<?xml version="1.0" encoding="utf-8"?>
<!-- Generator: Adobe Illustrator 19.2.0, SVG Export Plug-In . SVG Version: 6.00 Build 0)  -->
<svg version="1.1" id="Layer_1" xmlns="http://www.w3.org/2000/svg" xmlns:xlink="http://www.w3.org/1999/xlink" x="0px" y="0px"
	 viewBox="0 0 1000 1000" style="enable-background:new 0 0 1000 1000;" xml:space="preserve">
<style type="text/css">
	.st0{fill:none;stroke:#FF3366;stroke-width:5;stroke-miterlimit:10;}
	.st1{fill:#F9A825;}
	.st2{fill:#009688;}
	.st3{fill:#FFCCBC;}
	.st4{fill:#4A148C;}
	.st5{fill:#37474F;}
	.st6{fill:#263238;}
	.st7{fill:#E91E63;}
	.st8{fill:#FBCB7C;}
</style>
<line class="st0" x1="499.7" y1="193.2" x2="499.7" y2="484.8"/>
<g>
	<rect x="553.8" y="579.2" class="st1" width="7.2" height="6.9"/>
	<rect x="553.8" y="551.5" class="st1" width="7.2" height="6.9"/>
	<rect x="546.7" y="620.8" class="st2" width="7.2" height="6.9"/>
	<rect x="546.7" y="572.3" class="st1" width="7.2" height="6.9"/>
	<rect x="546.7" y="551.5" class="st1" width="7.2" height="6.9"/>
	<rect x="546.7" y="544.6" class="st1" width="7.2" height="6.9"/>
	<rect x="546.7" y="537.7" class="st1" width="7.2" height="6.9"/>
	<rect x="539.5" y="648.5" class="st3" width="7.2" height="6.9"/>
	<rect x="539.5" y="641.5" class="st3" width="7.2" height="6.9"/>
	<rect x="539.5" y="634.6" class="st4" width="7.2" height="6.9"/>
	<rect x="539.5" y="627.7" class="st4" width="7.2" height="6.9"/>
	<rect x="539.5" y="620.8" class="st2" width="7.2" height="6.9"/>
	<rect x="539.5" y="613.8" class="st2" width="7.2" height="6.9"/>
	<rect x="539.5" y="586.2" class="st3" width="7.2" height="6.9"/>
	<rect x="539.5" y="579.2" class="st3" width="7.2" height="6.9"/>
	<rect x="539.5" y="572.3" class="st3" width="7.2" height="6.9"/>
	<rect x="539.5" y="565.4" class="st1" width="7.2" height="6.9"/>
	<rect x="539.5" y="558.5" class="st1" width="7.2" height="6.9"/>
	<rect x="539.5" y="551.5" class="st1" width="7.2" height="6.9"/>
	<rect x="539.5" y="544.6" class="st1" width="7.2" height="6.9"/>
	<rect x="539.5" y="537.7" class="st1" width="7.2" height="6.9"/>
	<rect x="539.5" y="530.8" class="st1" width="7.2" height="6.9"/>
	<rect x="532.3" y="683.1" class="st2" width="7.2" height="6.9"/>
	<rect x="532.3" y="648.5" class="st3" width="7.2" height="6.9"/>
	<rect x="532.3" y="641.5" class="st3" width="7.2" height="6.9"/>
	<rect x="532.3" y="634.6" class="st4" width="7.2" height="6.9"/>
	<rect x="532.3" y="627.7" class="st4" width="7.2" height="6.9"/>
	<rect x="532.3" y="620.8" class="st2" width="7.2" height="6.9"/>
	<rect x="532.3" y="613.8" class="st2" width="7.2" height="6.9"/>
	<rect x="532.3" y="606.9" class="st2" width="7.2" height="6.9"/>
	<rect x="532.3" y="600" class="st1" width="7.2" height="6.9"/>
	<rect x="532.3" y="593.1" class="st3" width="7.2" height="6.9"/>
	<rect x="532.3" y="586.2" class="st3" width="7.2" height="6.9"/>
	<rect x="532.3" y="579.2" class="st3" width="7.2" height="6.9"/>
	<rect x="532.3" y="572.3" class="st3" width="7.2" height="6.9"/>
	<rect x="532.3" y="565.4" class="st3" width="7.2" height="6.9"/>
	<rect x="532.3" y="558.5" class="st3" width="7.2" height="6.9"/>
	<rect x="532.3" y="551.5" class="st1" width="7.2" height="6.9"/>
	<rect x="532.3" y="544.6" class="st1" width="7.2" height="6.9"/>
	<rect x="532.3" y="537.7" class="st1" width="7.2" height="6.9"/>
	<rect x="532.3" y="530.8" class="st1" width="7.2" height="6.9"/>
	<rect x="532.3" y="523.9" class="st1" width="7.2" height="6.9"/>
	<rect x="525.1" y="683.1" class="st2" width="7.2" height="6.9"/>
	<rect x="525.1" y="676.2" class="st3" width="7.2" height="6.9"/>
	<rect x="525.1" y="669.2" class="st3" width="7.2" height="6.9"/>
	<rect x="525.1" y="662.3" class="st4" width="7.2" height="6.9"/>
	<rect x="525.1" y="655.4" class="st4" width="7.2" height="6.9"/>
	<rect x="525.1" y="648.5" class="st5" width="7.2" height="6.9"/>
	<rect x="525.1" y="641.5" class="st3" width="7.2" height="6.9"/>
	<rect x="525.1" y="634.6" class="st4" width="7.2" height="6.9"/>
	<rect x="525.1" y="627.7" class="st4" width="7.2" height="6.9"/>
	<rect x="525.1" y="620.8" class="st4" width="7.2" height="6.9"/>
	<rect x="525.1" y="613.8" class="st2" width="7.2" height="6.9"/>
	<rect x="525.1" y="606.9" class="st2" width="7.2" height="6.9"/>
	<rect x="525.1" y="600" class="st2" width="7.2" height="6.9"/>
	<rect x="525.1" y="593.1" class="st3" width="7.2" height="6.9"/>
	<rect x="525.1" y="586.2" class="st3" width="7.2" height="6.9"/>
	<rect x="525.1" y="579.2" class="st3" width="7.2" height="6.9"/>
	<rect x="525.1" y="572.3" class="st3" width="7.2" height="6.9"/>
	<rect x="525.1" y="565.4" class="st6" width="7.2" height="6.9"/>
	<rect x="525.1" y="558.5" class="st6" width="7.2" height="6.9"/>
	<rect x="525.1" y="551.5" class="st1" width="7.2" height="6.9"/>
	<rect x="525.1" y="544.6" class="st1" width="7.2" height="6.9"/>
	<rect x="525.1" y="537.7" class="st1" width="7.2" height="6.9"/>
	<rect x="525.1" y="530.8" class="st1" width="7.2" height="6.9"/>
	<rect x="525.1" y="523.9" class="st1" width="7.2" height="6.9"/>
	<rect x="525.1" y="516.9" class="st1" width="7.2" height="6.9"/>
	<rect x="517.9" y="683.1" class="st2" width="7.2" height="6.9"/>
	<rect x="517.9" y="676.2" class="st3" width="7.2" height="6.9"/>
	<rect x="517.9" y="669.2" class="st3" width="7.2" height="6.9"/>
	<rect x="517.9" y="662.3" class="st4" width="7.2" height="6.9"/>
	<rect x="517.9" y="655.4" class="st4" width="7.2" height="6.9"/>
	<rect x="517.9" y="648.5" class="st5" width="7.2" height="6.9"/>
	<rect x="517.9" y="641.5" class="st4" width="7.2" height="6.9"/>
	<rect x="517.9" y="634.6" class="st4" width="7.2" height="6.9"/>
	<rect x="517.9" y="627.7" class="st4" width="7.2" height="6.9"/>
	<rect x="517.9" y="620.8" class="st4" width="7.2" height="6.9"/>
	<rect x="517.9" y="613.8" class="st2" width="7.2" height="6.9"/>
	<rect x="517.9" y="606.9" class="st2" width="7.2" height="6.9"/>
	<rect x="517.9" y="600" class="st2" width="7.2" height="6.9"/>
	<rect x="517.9" y="593.1" class="st3" width="7.2" height="6.9"/>
	<rect x="517.9" y="586.2" class="st7" width="7.2" height="6.9"/>
	<rect x="517.9" y="579.2" class="st3" width="7.2" height="6.9"/>
	<rect x="517.9" y="572.3" class="st3" width="7.2" height="6.9"/>
	<rect x="517.9" y="565.4" class="st3" width="7.2" height="6.9"/>
	<rect x="517.9" y="558.5" class="st3" width="7.2" height="6.9"/>
	<rect x="517.9" y="551.5" class="st3" width="7.2" height="6.9"/>
	<rect x="517.9" y="544.6" class="st1" width="7.2" height="6.9"/>
	<rect x="517.9" y="537.7" class="st1" width="7.2" height="6.9"/>
	<rect x="517.9" y="530.8" class="st1" width="7.2" height="6.9"/>
	<rect x="517.9" y="523.9" class="st1" width="7.2" height="6.9"/>
	<rect x="517.9" y="516.9" class="st1" width="7.2" height="6.9"/>
	<rect x="517.9" y="510" class="st1" width="7.2" height="6.9"/>
	<rect x="510.8" y="662.3" class="st4" width="7.2" height="6.9"/>
	<rect x="510.8" y="655.4" class="st4" width="7.2" height="6.9"/>
	<rect x="510.8" y="648.5" class="st5" width="7.2" height="6.9"/>
	<rect x="510.8" y="641.5" class="st4" width="7.2" height="6.9"/>
	<rect x="510.8" y="634.6" class="st4" width="7.2" height="6.9"/>
	<rect x="510.8" y="627.7" class="st4" width="7.2" height="6.9"/>
	<rect x="510.8" y="620.8" class="st2" width="7.2" height="6.9"/>
	<rect x="510.8" y="613.8" class="st2" width="7.2" height="6.9"/>
	<rect x="510.8" y="606.9" class="st2" width="7.2" height="6.9"/>
	<rect x="510.8" y="600" class="st2" width="7.2" height="6.9"/>
	<rect x="510.8" y="593.1" class="st3" width="7.2" height="6.9"/>
	<rect x="510.8" y="586.2" class="st7" width="7.2" height="6.9"/>
	<rect x="510.8" y="579.2" class="st3" width="7.2" height="6.9"/>
	<rect x="510.8" y="572.3" class="st3" width="7.2" height="6.9"/>
	<rect x="510.8" y="565.4" class="st3" width="7.2" height="6.9"/>
	<rect x="510.8" y="558.5" class="st3" width="7.2" height="6.9"/>
	<rect x="510.8" y="551.5" class="st3" width="7.2" height="6.9"/>
	<rect x="510.8" y="544.6" class="st1" width="7.2" height="6.9"/>
	<rect x="510.8" y="537.7" class="st1" width="7.2" height="6.9"/>
	<rect x="510.8" y="530.8" class="st1" width="7.2" height="6.9"/>
	<rect x="510.8" y="523.9" class="st1" width="7.2" height="6.9"/>
	<rect x="510.8" y="516.9" class="st1" width="7.2" height="6.9"/>
	<rect x="510.8" y="510" class="st1" width="7.2" height="6.9"/>
	<rect x="503.6" y="662.3" class="st4" width="7.2" height="6.9"/>
	<rect x="503.6" y="655.4" class="st4" width="7.2" height="6.9"/>
	<rect x="503.6" y="648.5" class="st5" width="7.2" height="6.9"/>
	<rect x="503.6" y="641.5" class="st4" width="7.2" height="6.9"/>
	<rect x="503.6" y="634.6" class="st4" width="7.2" height="6.9"/>
	<rect x="503.6" y="627.7" class="st4" width="7.2" height="6.9"/>
	<rect x="503.6" y="620.8" class="st2" width="7.2" height="6.9"/>
	<rect x="503.6" y="613.8" class="st2" width="7.2" height="6.9"/>
	<rect x="503.6" y="606.9" class="st2" width="7.2" height="6.9"/>
	<rect x="503.6" y="600" class="st2" width="7.2" height="6.9"/>
	<rect x="503.6" y="593.1" class="st3" width="7.2" height="6.9"/>
	<rect x="503.6" y="586.2" class="st3" width="7.2" height="6.9"/>
	<rect x="503.6" y="579.2" class="st7" width="7.2" height="6.9"/>
	<rect x="503.6" y="572.3" class="st3" width="7.2" height="6.9"/>
	<rect x="503.6" y="565.4" class="st6" width="7.2" height="6.9"/>
	<rect x="503.6" y="558.5" class="st6" width="7.2" height="6.9"/>
	<rect x="503.6" y="551.5" class="st1" width="7.2" height="6.9"/>
	<rect x="503.6" y="544.6" class="st1" width="7.2" height="6.9"/>
	<rect x="503.6" y="537.7" class="st1" width="7.2" height="6.9"/>
	<rect x="503.6" y="530.8" class="st1" width="7.2" height="6.9"/>
	<rect x="503.6" y="523.9" class="st1" width="7.2" height="6.9"/>
	<rect x="503.6" y="516.9" class="st1" width="7.2" height="6.9"/>
	<rect x="503.6" y="510" class="st1" width="7.2" height="6.9"/>
	<rect x="496.4" y="662.3" class="st4" width="7.2" height="6.9"/>
	<rect x="496.4" y="655.4" class="st4" width="7.2" height="6.9"/>
	<rect x="496.4" y="648.5" class="st5" width="7.2" height="6.9"/>
	<rect x="496.4" y="641.5" class="st3" width="7.2" height="6.9"/>
	<rect x="496.4" y="634.6" class="st4" width="7.2" height="6.9"/>
	<rect x="496.4" y="627.7" class="st2" width="7.2" height="6.9"/>
	<rect x="496.4" y="620.8" class="st4" width="7.2" height="6.9"/>
	<rect x="496.4" y="613.8" class="st2" width="7.2" height="6.9"/>
	<rect x="496.4" y="606.9" class="st2" width="7.2" height="6.9"/>
	<rect x="496.4" y="600" class="st2" width="7.2" height="6.9"/>
	<rect x="496.4" y="593.1" class="st3" width="7.2" height="6.9"/>
	<rect x="496.4" y="586.2" class="st3" width="7.2" height="6.9"/>
	<rect x="496.4" y="579.2" class="st3" width="7.2" height="6.9"/>
	<rect x="496.4" y="572.3" class="st3" width="7.2" height="6.9"/>
	<rect x="496.4" y="565.4" class="st3" width="7.2" height="6.9"/>
	<rect x="496.4" y="558.5" class="st3" width="7.2" height="6.9"/>
	<rect x="496.4" y="551.5" class="st1" width="7.2" height="6.9"/>
	<rect x="496.4" y="544.6" class="st1" width="7.2" height="6.9"/>
	<rect x="496.4" y="537.7" class="st1" width="7.2" height="6.9"/>
	<rect x="496.4" y="530.8" class="st1" width="7.2" height="6.9"/>
	<rect x="496.4" y="523.9" class="st1" width="7.2" height="6.9"/>
	<rect x="496.4" y="516.9" class="st1" width="7.2" height="6.9"/>
	<rect x="496.4" y="510" class="st1" width="7.2" height="6.9"/>
	<rect x="489.2" y="669.2" class="st3" width="7.2" height="6.9"/>
	<rect x="489.2" y="662.3" class="st4" width="7.2" height="6.9"/>
	<rect x="489.2" y="655.4" class="st4" width="7.2" height="6.9"/>
	<rect x="489.2" y="648.5" class="st3" width="7.2" height="6.9"/>
	<rect x="489.2" y="641.5" class="st3" width="7.2" height="6.9"/>
	<rect x="489.2" y="634.6" class="st4" width="7.2" height="6.9"/>
	<rect x="489.2" y="627.7" class="st4" width="7.2" height="6.9"/>
	<rect x="489.2" y="620.8" class="st4" width="7.2" height="6.9"/>
	<rect x="489.2" y="613.8" class="st2" width="7.2" height="6.9"/>
	<rect x="489.2" y="606.9" class="st1" width="7.2" height="6.9"/>
	<rect x="489.2" y="600" class="st1" width="7.2" height="6.9"/>
	<rect x="489.2" y="593.1" class="st3" width="7.2" height="6.9"/>
	<rect x="489.2" y="586.2" class="st3" width="7.2" height="6.9"/>
	<rect x="489.2" y="579.2" class="st1" width="7.2" height="6.9"/>
	<rect x="489.2" y="572.3" class="st3" width="7.2" height="6.9"/>
	<rect x="489.2" y="565.4" class="st3" width="7.2" height="6.9"/>
	<rect x="489.2" y="558.5" class="st1" width="7.2" height="6.9"/>
	<rect x="489.2" y="551.5" class="st1" width="7.2" height="6.9"/>
	<rect x="489.2" y="544.6" class="st1" width="7.2" height="6.9"/>
	<rect x="489.2" y="537.7" class="st1" width="7.2" height="6.9"/>
	<rect x="489.2" y="530.8" class="st1" width="7.2" height="6.9"/>
	<rect x="489.2" y="523.9" class="st1" width="7.2" height="6.9"/>
	<rect x="489.2" y="516.9" class="st1" width="7.2" height="6.9"/>
	<rect x="489.2" y="510" class="st1" width="7.2" height="6.9"/>
	<rect x="482.1" y="683.1" class="st2" width="7.2" height="6.9"/>
	<rect x="482.1" y="676.2" class="st3" width="7.2" height="6.9"/>
	<rect x="482.1" y="669.2" class="st3" width="7.2" height="6.9"/>
	<rect x="482.1" y="662.3" class="st4" width="7.2" height="6.9"/>
	<rect x="482.1" y="655.4" class="st4" width="7.2" height="6.9"/>
	<rect x="482.1" y="648.5" class="st3" width="7.2" height="6.9"/>
	<rect x="482.1" y="641.5" class="st3" width="7.2" height="6.9"/>
	<rect x="482.1" y="634.6" class="st4" width="7.2" height="6.9"/>
	<rect x="482.1" y="627.7" class="st4" width="7.2" height="6.9"/>
	<rect x="482.1" y="620.8" class="st2" width="7.2" height="6.9"/>
	<rect x="482.1" y="613.8" class="st1" width="7.2" height="6.9"/>
	<rect x="482.1" y="606.9" class="st1" width="7.2" height="6.9"/>
	<rect x="482.1" y="600" class="st1" width="7.2" height="6.9"/>
	<rect x="482.1" y="593.1" class="st1" width="7.2" height="6.9"/>
	<rect x="482.1" y="586.2" class="st3" width="7.2" height="6.9"/>
	<rect x="482.1" y="579.2" class="st3" width="7.2" height="6.9"/>
	<rect x="482.1" y="572.3" class="st1" width="7.2" height="6.9"/>
	<rect x="482.1" y="565.4" class="st3" width="7.2" height="6.9"/>
	<rect x="482.1" y="558.5" class="st1" width="7.2" height="6.9"/>
	<rect x="482.1" y="551.5" class="st1" width="7.2" height="6.9"/>
	<rect x="482.1" y="544.6" class="st1" width="7.2" height="6.9"/>
	<rect x="482.1" y="537.7" class="st1" width="7.2" height="6.9"/>
	<rect x="482.1" y="530.8" class="st1" width="7.2" height="6.9"/>
	<rect x="482.1" y="523.9" class="st8" width="7.2" height="6.9"/>
	<rect x="482.1" y="516.9" class="st1" width="7.2" height="6.9"/>
	<rect x="482.1" y="510" class="st1" width="7.2" height="6.9"/>
	<rect x="474.9" y="683.1" class="st2" width="7.2" height="6.9"/>
	<rect x="474.9" y="676.2" class="st3" width="7.2" height="6.9"/>
	<rect x="474.9" y="669.2" class="st3" width="7.2" height="6.9"/>
	<rect x="474.9" y="662.3" class="st4" width="7.2" height="6.9"/>
	<rect x="474.9" y="655.4" class="st4" width="7.2" height="6.9"/>
	<rect x="474.9" y="648.5" class="st3" width="7.2" height="6.9"/>
	<rect x="474.9" y="641.5" class="st3" width="7.2" height="6.9"/>
	<rect x="474.9" y="634.6" class="st4" width="7.2" height="6.9"/>
	<rect x="474.9" y="627.7" class="st4" width="7.2" height="6.9"/>
	<rect x="474.9" y="620.8" class="st4" width="7.2" height="6.9"/>
	<rect x="474.9" y="613.8" class="st1" width="7.2" height="6.9"/>
	<rect x="474.9" y="606.9" class="st1" width="7.2" height="6.9"/>
	<rect x="474.9" y="600" class="st1" width="7.2" height="6.9"/>
	<rect x="474.9" y="593.1" class="st1" width="7.2" height="6.9"/>
	<rect x="474.9" y="586.2" class="st1" width="7.2" height="6.9"/>
	<rect x="474.9" y="579.2" class="st3" width="7.2" height="6.9"/>
	<rect x="474.9" y="572.3" class="st3" width="7.2" height="6.9"/>
	<rect x="474.9" y="565.4" class="st1" width="7.2" height="6.9"/>
	<rect x="474.9" y="558.5" class="st1" width="7.2" height="6.9"/>
	<rect x="474.9" y="551.5" class="st1" width="7.2" height="6.9"/>
	<rect x="474.9" y="544.6" class="st1" width="7.2" height="6.9"/>
	<rect x="474.9" y="537.7" class="st1" width="7.2" height="6.9"/>
	<rect x="474.9" y="530.8" class="st1" width="7.2" height="6.9"/>
	<rect x="474.9" y="523.9" class="st8" width="7.2" height="6.9"/>
	<rect x="474.9" y="516.9" class="st1" width="7.2" height="6.9"/>
	<rect x="474.9" y="510" class="st1" width="7.2" height="6.9"/>
	<rect x="467.7" y="683.1" class="st2" width="7.2" height="6.9"/>
	<rect x="467.7" y="662.3" class="st4" width="7.2" height="6.9"/>
	<rect x="467.7" y="655.4" class="st4" width="7.2" height="6.9"/>
	<rect x="467.7" y="648.5" class="st4" width="7.2" height="6.9"/>
	<rect x="467.7" y="641.5" class="st4" width="7.2" height="6.9"/>
	<rect x="467.7" y="634.6" class="st4" width="7.2" height="6.9"/>
	<rect x="467.7" y="627.7" class="st1" width="7.2" height="6.9"/>
	<rect x="467.7" y="620.8" class="st1" width="7.2" height="6.9"/>
	<rect x="467.7" y="613.8" class="st1" width="7.2" height="6.9"/>
	<rect x="467.7" y="606.9" class="st1" width="7.2" height="6.9"/>
	<rect x="467.7" y="600" class="st1" width="7.2" height="6.9"/>
	<rect x="467.7" y="593.1" class="st1" width="7.2" height="6.9"/>
	<rect x="467.7" y="586.2" class="st1" width="7.2" height="6.9"/>
	<rect x="467.7" y="579.2" class="st3" width="7.2" height="6.9"/>
	<rect x="467.7" y="572.3" class="st3" width="7.2" height="6.9"/>
	<rect x="467.7" y="565.4" class="st3" width="7.2" height="6.9"/>
	<rect x="467.7" y="558.5" class="st3" width="7.2" height="6.9"/>
	<rect x="467.7" y="551.5" class="st1" width="7.2" height="6.9"/>
	<rect x="467.7" y="544.6" class="st1" width="7.2" height="6.9"/>
	<rect x="467.7" y="537.7" class="st1" width="7.2" height="6.9"/>
	<rect x="467.7" y="530.8" class="st1" width="7.2" height="6.9"/>
	<rect x="467.7" y="523.9" class="st8" width="7.2" height="6.9"/>
	<rect x="467.7" y="516.9" class="st1" width="7.2" height="6.9"/>
	<rect x="467.7" y="510" class="st1" width="7.2" height="6.9"/>
	<rect x="460.5" y="648.5" class="st1" width="7.2" height="6.9"/>
	<rect x="460.5" y="641.5" class="st1" width="7.2" height="6.9"/>
	<rect x="460.5" y="634.6" class="st1" width="7.2" height="6.9"/>
	<rect x="460.5" y="627.7" class="st1" width="7.2" height="6.9"/>
	<rect x="460.5" y="620.8" class="st1" width="7.2" height="6.9"/>
	<rect x="460.5" y="613.8" class="st1" width="7.2" height="6.9"/>
	<rect x="460.5" y="606.9" class="st1" width="7.2" height="6.9"/>
	<rect x="460.5" y="600" class="st1" width="7.2" height="6.9"/>
	<rect x="460.5" y="593.1" class="st1" width="7.2" height="6.9"/>
	<rect x="460.5" y="586.2" class="st1" width="7.2" height="6.9"/>
	<rect x="460.5" y="579.2" class="st3" width="7.2" height="6.9"/>
	<rect x="460.5" y="572.3" class="st3" width="7.2" height="6.9"/>
	<rect x="460.5" y="565.4" class="st3" width="7.2" height="6.9"/>
	<rect x="460.5" y="558.5" class="st3" width="7.2" height="6.9"/>
	<rect x="460.5" y="551.5" class="st1" width="7.2" height="6.9"/>
	<rect x="460.5" y="544.6" class="st1" width="7.2" height="6.9"/>
	<rect x="460.5" y="537.7" class="st1" width="7.2" height="6.9"/>
	<rect x="460.5" y="530.8" class="st8" width="7.2" height="6.9"/>
	<rect x="460.5" y="523.9" class="st1" width="7.2" height="6.9"/>
	<rect x="460.5" y="516.9" class="st1" width="7.2" height="6.9"/>
	<rect x="453.3" y="648.5" class="st1" width="7.2" height="6.9"/>
	<rect x="453.3" y="641.5" class="st1" width="7.2" height="6.9"/>
	<rect x="453.3" y="627.7" class="st1" width="7.2" height="6.9"/>
	<rect x="453.3" y="620.8" class="st1" width="7.2" height="6.9"/>
	<rect x="453.3" y="613.8" class="st1" width="7.2" height="6.9"/>
	<rect x="453.3" y="606.9" class="st1" width="7.2" height="6.9"/>
	<rect x="453.3" y="600" class="st1" width="7.2" height="6.9"/>
	<rect x="453.3" y="593.1" class="st1" width="7.2" height="6.9"/>
	<rect x="453.3" y="586.2" class="st1" width="7.2" height="6.9"/>
	<rect x="453.3" y="579.2" class="st1" width="7.2" height="6.9"/>
	<rect x="453.3" y="572.3" class="st1" width="7.2" height="6.9"/>
	<rect x="453.3" y="565.4" class="st1" width="7.2" height="6.9"/>
	<rect x="453.3" y="558.5" class="st1" width="7.2" height="6.9"/>
	<rect x="453.3" y="551.5" class="st1" width="7.2" height="6.9"/>
	<rect x="453.3" y="544.6" class="st1" width="7.2" height="6.9"/>
	<rect x="453.3" y="537.7" class="st8" width="7.2" height="6.9"/>
	<rect x="453.3" y="530.8" class="st1" width="7.2" height="6.9"/>
	<rect x="453.3" y="523.9" class="st1" width="7.2" height="6.9"/>
	<rect x="446.2" y="641.5" class="st1" width="7.2" height="6.9"/>
	<rect x="446.2" y="600" class="st1" width="7.2" height="6.9"/>
	<rect x="446.2" y="593.1" class="st1" width="7.2" height="6.9"/>
	<rect x="446.2" y="586.2" class="st1" width="7.2" height="6.9"/>
	<rect x="446.2" y="579.2" class="st1" width="7.2" height="6.9"/>
	<rect x="446.2" y="572.3" class="st1" width="7.2" height="6.9"/>
	<rect x="446.2" y="565.4" class="st1" width="7.2" height="6.9"/>
	<rect x="446.2" y="558.5" class="st1" width="7.2" height="6.9"/>
	<rect x="446.2" y="551.5" class="st1" width="7.2" height="6.9"/>
	<rect x="446.2" y="544.6" class="st1" width="7.2" height="6.9"/>
	<rect x="446.2" y="537.7" class="st1" width="7.2" height="6.9"/>
	<rect x="446.2" y="530.8" class="st1" width="7.2" height="6.9"/>
	<rect x="439" y="634.6" class="st1" width="7.2" height="6.9"/>
	<rect x="439" y="593.1" class="st1" width="7.2" height="6.9"/>
	<rect x="439" y="586.2" class="st1" width="7.2" height="6.9"/>
	<rect x="439" y="579.2" class="st1" width="7.2" height="6.9"/>
	<rect x="439" y="572.3" class="st1" width="7.2" height="6.9"/>
	<rect x="439" y="565.4" class="st1" width="7.2" height="6.9"/>
	<rect x="439" y="558.5" class="st1" width="7.2" height="6.9"/>
	<rect x="439" y="551.5" class="st1" width="7.2" height="6.9"/>
	<rect x="439" y="544.6" class="st1" width="7.2" height="6.9"/>
	<rect x="439" y="537.7" class="st1" width="7.2" height="6.9"/>
</g>
</svg>
