<?xml version="1.0" encoding="utf-8"?>
<!-- Generator: Adobe Illustrator 19.2.0, SVG Export Plug-In . SVG Version: 6.00 Build 0)  -->
<svg version="1.1" id="Layer_1" xmlns="http://www.w3.org/2000/svg" xmlns:xlink="http://www.w3.org/1999/xlink" x="0px" y="0px"
	 viewBox="0 0 1000 1000" style="enable-background:new 0 0 1000 1000;" xml:space="preserve">
<style type="text/css">
	.st0{fill:none;stroke:#3399CC;stroke-width:5;stroke-miterlimit:10;}
	.st1{fill:#FFCCBC;}
	.st2{fill:#00BCD4;}
	.st3{fill:#424242;}
	.st4{fill:#5D4037;}
	.st5{fill:#263238;}
	.st6{fill:#37474F;}
	.st7{fill:#E91E63;}
	.st8{fill:#4E342E;}
	.st9{fill:#8D6E63;}
</style>
<line class="st0" x1="499.7" y1="193.2" x2="499.7" y2="484.8"/>
<g>
	<rect x="550.2" y="641.5" class="st1" width="7.2" height="6.9"/>
	<rect x="550.2" y="634.6" class="st2" width="7.2" height="6.9"/>
	<rect x="550.2" y="627.7" class="st2" width="7.2" height="6.9"/>
	<rect x="543.1" y="683.1" class="st3" width="7.2" height="6.9"/>
	<rect x="543.1" y="648.5" class="st1" width="7.2" height="6.9"/>
	<rect x="543.1" y="641.5" class="st1" width="7.2" height="6.9"/>
	<rect x="543.1" y="634.6" class="st1" width="7.2" height="6.9"/>
	<rect x="543.1" y="627.7" class="st2" width="7.2" height="6.9"/>
	<rect x="543.1" y="620.8" class="st2" width="7.2" height="6.9"/>
	<rect x="543.1" y="613.8" class="st2" width="7.2" height="6.9"/>
	<rect x="543.1" y="523.9" class="st4" width="7.2" height="6.9"/>
	<rect x="535.9" y="683.1" class="st3" width="7.2" height="6.9"/>
	<rect x="535.9" y="676.2" class="st5" width="7.2" height="6.9"/>
	<rect x="535.9" y="669.2" class="st5" width="7.2" height="6.9"/>
	<rect x="535.9" y="648.5" class="st1" width="7.2" height="6.9"/>
	<rect x="535.9" y="641.5" class="st1" width="7.2" height="6.9"/>
	<rect x="535.9" y="634.6" class="st1" width="7.2" height="6.9"/>
	<rect x="535.9" y="627.7" class="st2" width="7.2" height="6.9"/>
	<rect x="535.9" y="620.8" class="st2" width="7.2" height="6.9"/>
	<rect x="535.9" y="613.8" class="st2" width="7.2" height="6.9"/>
	<rect x="535.9" y="606.9" class="st2" width="7.2" height="6.9"/>
	<rect x="535.9" y="600" class="st2" width="7.2" height="6.9"/>
	<rect x="535.9" y="586.2" class="st1" width="7.2" height="6.9"/>
	<rect x="535.9" y="579.2" class="st1" width="7.2" height="6.9"/>
	<rect x="535.9" y="572.3" class="st1" width="7.2" height="6.9"/>
	<rect x="535.9" y="565.4" class="st1" width="7.2" height="6.9"/>
	<rect x="535.9" y="544.6" class="st4" width="7.2" height="6.9"/>
	<rect x="535.9" y="537.7" class="st4" width="7.2" height="6.9"/>
	<rect x="535.9" y="530.8" class="st4" width="7.2" height="6.9"/>
	<rect x="528.7" y="683.1" class="st3" width="7.2" height="6.9"/>
	<rect x="528.7" y="676.2" class="st5" width="7.2" height="6.9"/>
	<rect x="528.7" y="669.2" class="st5" width="7.2" height="6.9"/>
	<rect x="528.7" y="662.3" class="st5" width="7.2" height="6.9"/>
	<rect x="528.7" y="655.4" class="st5" width="7.2" height="6.9"/>
	<rect x="528.7" y="648.5" class="st5" width="7.2" height="6.9"/>
	<rect x="528.7" y="641.5" class="st6" width="7.2" height="6.9"/>
	<rect x="528.7" y="634.6" class="st2" width="7.2" height="6.9"/>
	<rect x="528.7" y="627.7" class="st2" width="7.2" height="6.9"/>
	<rect x="528.7" y="620.8" class="st2" width="7.2" height="6.9"/>
	<rect x="528.7" y="613.8" class="st2" width="7.2" height="6.9"/>
	<rect x="528.7" y="606.9" class="st2" width="7.2" height="6.9"/>
	<rect x="528.7" y="600" class="st2" width="7.2" height="6.9"/>
	<rect x="528.7" y="593.1" class="st1" width="7.2" height="6.9"/>
	<rect x="528.7" y="586.2" class="st1" width="7.2" height="6.9"/>
	<rect x="528.7" y="579.2" class="st1" width="7.2" height="6.9"/>
	<rect x="528.7" y="572.3" class="st1" width="7.2" height="6.9"/>
	<rect x="528.7" y="565.4" class="st1" width="7.2" height="6.9"/>
	<rect x="528.7" y="558.5" class="st1" width="7.2" height="6.9"/>
	<rect x="528.7" y="551.5" class="st1" width="7.2" height="6.9"/>
	<rect x="528.7" y="544.6" class="st4" width="7.2" height="6.9"/>
	<rect x="528.7" y="537.7" class="st4" width="7.2" height="6.9"/>
	<rect x="528.7" y="530.8" class="st4" width="7.2" height="6.9"/>
	<rect x="528.7" y="523.9" class="st4" width="7.2" height="6.9"/>
	<rect x="521.5" y="683.1" class="st3" width="7.2" height="6.9"/>
	<rect x="521.5" y="676.2" class="st5" width="7.2" height="6.9"/>
	<rect x="521.5" y="669.2" class="st5" width="7.2" height="6.9"/>
	<rect x="521.5" y="662.3" class="st5" width="7.2" height="6.9"/>
	<rect x="521.5" y="655.4" class="st5" width="7.2" height="6.9"/>
	<rect x="521.5" y="648.5" class="st5" width="7.2" height="6.9"/>
	<rect x="521.5" y="641.5" class="st6" width="7.2" height="6.9"/>
	<rect x="521.5" y="634.6" class="st2" width="7.2" height="6.9"/>
	<rect x="521.5" y="627.7" class="st2" width="7.2" height="6.9"/>
	<rect x="521.5" y="620.8" class="st2" width="7.2" height="6.9"/>
	<rect x="521.5" y="613.8" class="st2" width="7.2" height="6.9"/>
	<rect x="521.5" y="606.9" class="st2" width="7.2" height="6.9"/>
	<rect x="521.5" y="600" class="st2" width="7.2" height="6.9"/>
	<rect x="521.5" y="593.1" class="st1" width="7.2" height="6.9"/>
	<rect x="521.5" y="586.2" class="st1" width="7.2" height="6.9"/>
	<rect x="521.5" y="579.2" class="st1" width="7.2" height="6.9"/>
	<rect x="521.5" y="572.3" class="st1" width="7.2" height="6.9"/>
	<rect x="521.5" y="565.4" class="st5" width="7.2" height="6.9"/>
	<rect x="521.5" y="558.5" class="st5" width="7.2" height="6.9"/>
	<rect x="521.5" y="551.5" class="st1" width="7.2" height="6.9"/>
	<rect x="521.5" y="544.6" class="st4" width="7.2" height="6.9"/>
	<rect x="521.5" y="537.7" class="st4" width="7.2" height="6.9"/>
	<rect x="521.5" y="530.8" class="st4" width="7.2" height="6.9"/>
	<rect x="521.5" y="523.9" class="st4" width="7.2" height="6.9"/>
	<rect x="521.5" y="516.9" class="st4" width="7.2" height="6.9"/>
	<rect x="514.4" y="683.1" class="st3" width="7.2" height="6.9"/>
	<rect x="514.4" y="676.2" class="st5" width="7.2" height="6.9"/>
	<rect x="514.4" y="669.2" class="st5" width="7.2" height="6.9"/>
	<rect x="514.4" y="662.3" class="st5" width="7.2" height="6.9"/>
	<rect x="514.4" y="655.4" class="st5" width="7.2" height="6.9"/>
	<rect x="514.4" y="648.5" class="st5" width="7.2" height="6.9"/>
	<rect x="514.4" y="641.5" class="st7" width="7.2" height="6.9"/>
	<rect x="514.4" y="634.6" class="st7" width="7.2" height="6.9"/>
	<rect x="514.4" y="627.7" class="st7" width="7.2" height="6.9"/>
	<rect x="514.4" y="620.8" class="st2" width="7.2" height="6.9"/>
	<rect x="514.4" y="613.8" class="st2" width="7.2" height="6.9"/>
	<rect x="514.4" y="606.9" class="st2" width="7.2" height="6.9"/>
	<rect x="514.4" y="600" class="st2" width="7.2" height="6.9"/>
	<rect x="514.4" y="593.1" class="st1" width="7.2" height="6.9"/>
	<rect x="514.4" y="586.2" class="st1" width="7.2" height="6.9"/>
	<rect x="514.4" y="579.2" class="st8" width="7.2" height="6.9"/>
	<rect x="514.4" y="572.3" class="st1" width="7.2" height="6.9"/>
	<rect x="514.4" y="565.4" class="st1" width="7.2" height="6.9"/>
	<rect x="514.4" y="558.5" class="st1" width="7.2" height="6.9"/>
	<rect x="514.4" y="551.5" class="st1" width="7.2" height="6.9"/>
	<rect x="514.4" y="544.6" class="st4" width="7.2" height="6.9"/>
	<rect x="514.4" y="537.7" class="st4" width="7.2" height="6.9"/>
	<rect x="514.4" y="530.8" class="st4" width="7.2" height="6.9"/>
	<rect x="514.4" y="523.9" class="st4" width="7.2" height="6.9"/>
	<rect x="514.4" y="516.9" class="st4" width="7.2" height="6.9"/>
	<rect x="514.4" y="510" class="st4" width="7.2" height="6.9"/>
	<rect x="507.2" y="655.4" class="st5" width="7.2" height="6.9"/>
	<rect x="507.2" y="648.5" class="st5" width="7.2" height="6.9"/>
	<rect x="507.2" y="641.5" class="st6" width="7.2" height="6.9"/>
	<rect x="507.2" y="634.6" class="st7" width="7.2" height="6.9"/>
	<rect x="507.2" y="627.7" class="st7" width="7.2" height="6.9"/>
	<rect x="507.2" y="620.8" class="st7" width="7.2" height="6.9"/>
	<rect x="507.2" y="613.8" class="st7" width="7.2" height="6.9"/>
	<rect x="507.2" y="606.9" class="st7" width="7.2" height="6.9"/>
	<rect x="507.2" y="600" class="st7" width="7.2" height="6.9"/>
	<rect x="507.2" y="593.1" class="st1" width="7.2" height="6.9"/>
	<rect x="507.2" y="586.2" class="st8" width="7.2" height="6.9"/>
	<rect x="507.2" y="579.2" class="st8" width="7.2" height="6.9"/>
	<rect x="507.2" y="572.3" class="st1" width="7.2" height="6.9"/>
	<rect x="507.2" y="565.4" class="st1" width="7.2" height="6.9"/>
	<rect x="507.2" y="558.5" class="st1" width="7.2" height="6.9"/>
	<rect x="507.2" y="551.5" class="st1" width="7.2" height="6.9"/>
	<rect x="507.2" y="544.6" class="st4" width="7.2" height="6.9"/>
	<rect x="507.2" y="537.7" class="st4" width="7.2" height="6.9"/>
	<rect x="507.2" y="530.8" class="st4" width="7.2" height="6.9"/>
	<rect x="507.2" y="523.9" class="st4" width="7.2" height="6.9"/>
	<rect x="507.2" y="516.9" class="st4" width="7.2" height="6.9"/>
	<rect x="507.2" y="510" class="st4" width="7.2" height="6.9"/>
	<rect x="500" y="662.3" class="st5" width="7.2" height="6.9"/>
	<rect x="500" y="655.4" class="st5" width="7.2" height="6.9"/>
	<rect x="500" y="648.5" class="st5" width="7.2" height="6.9"/>
	<rect x="500" y="641.5" class="st6" width="7.2" height="6.9"/>
	<rect x="500" y="634.6" class="st2" width="7.2" height="6.9"/>
	<rect x="500" y="627.7" class="st2" width="7.2" height="6.9"/>
	<rect x="500" y="620.8" class="st7" width="7.2" height="6.9"/>
	<rect x="500" y="613.8" class="st7" width="7.2" height="6.9"/>
	<rect x="500" y="606.9" class="st7" width="7.2" height="6.9"/>
	<rect x="500" y="600" class="st7" width="7.2" height="6.9"/>
	<rect x="500" y="593.1" class="st1" width="7.2" height="6.9"/>
	<rect x="500" y="586.2" class="st8" width="7.2" height="6.9"/>
	<rect x="500" y="579.2" class="st8" width="7.2" height="6.9"/>
	<rect x="500" y="572.3" class="st1" width="7.2" height="6.9"/>
	<rect x="500" y="565.4" class="st5" width="7.2" height="6.9"/>
	<rect x="500" y="558.5" class="st5" width="7.2" height="6.9"/>
	<rect x="500" y="551.5" class="st1" width="7.2" height="6.9"/>
	<rect x="500" y="544.6" class="st1" width="7.2" height="6.9"/>
	<rect x="500" y="537.7" class="st4" width="7.2" height="6.9"/>
	<rect x="500" y="530.8" class="st4" width="7.2" height="6.9"/>
	<rect x="500" y="523.9" class="st4" width="7.2" height="6.9"/>
	<rect x="500" y="516.9" class="st4" width="7.2" height="6.9"/>
	<rect x="500" y="510" class="st4" width="7.2" height="6.9"/>
	<rect x="492.8" y="669.2" class="st5" width="7.2" height="6.9"/>
	<rect x="492.8" y="662.3" class="st5" width="7.2" height="6.9"/>
	<rect x="492.8" y="655.4" class="st5" width="7.2" height="6.9"/>
	<rect x="492.8" y="648.5" class="st5" width="7.2" height="6.9"/>
	<rect x="492.8" y="641.5" class="st6" width="7.2" height="6.9"/>
	<rect x="492.8" y="634.6" class="st2" width="7.2" height="6.9"/>
	<rect x="492.8" y="627.7" class="st2" width="7.2" height="6.9"/>
	<rect x="492.8" y="620.8" class="st2" width="7.2" height="6.9"/>
	<rect x="492.8" y="613.8" class="st2" width="7.2" height="6.9"/>
	<rect x="492.8" y="606.9" class="st2" width="7.2" height="6.9"/>
	<rect x="492.8" y="600" class="st2" width="7.2" height="6.9"/>
	<rect x="492.8" y="593.1" class="st1" width="7.2" height="6.9"/>
	<rect x="492.8" y="586.2" class="st1" width="7.2" height="6.9"/>
	<rect x="492.8" y="579.2" class="st1" width="7.2" height="6.9"/>
	<rect x="492.8" y="572.3" class="st1" width="7.2" height="6.9"/>
	<rect x="492.8" y="565.4" class="st1" width="7.2" height="6.9"/>
	<rect x="492.8" y="558.5" class="st1" width="7.2" height="6.9"/>
	<rect x="492.8" y="551.5" class="st1" width="7.2" height="6.9"/>
	<rect x="492.8" y="544.6" class="st1" width="7.2" height="6.9"/>
	<rect x="492.8" y="537.7" class="st1" width="7.2" height="6.9"/>
	<rect x="492.8" y="530.8" class="st4" width="7.2" height="6.9"/>
	<rect x="492.8" y="523.9" class="st4" width="7.2" height="6.9"/>
	<rect x="492.8" y="516.9" class="st4" width="7.2" height="6.9"/>
	<rect x="492.8" y="510" class="st4" width="7.2" height="6.9"/>
	<rect x="485.6" y="683.1" class="st3" width="7.2" height="6.9"/>
	<rect x="485.6" y="676.2" class="st5" width="7.2" height="6.9"/>
	<rect x="485.6" y="669.2" class="st5" width="7.2" height="6.9"/>
	<rect x="485.6" y="662.3" class="st5" width="7.2" height="6.9"/>
	<rect x="485.6" y="655.4" class="st5" width="7.2" height="6.9"/>
	<rect x="485.6" y="648.5" class="st5" width="7.2" height="6.9"/>
	<rect x="485.6" y="641.5" class="st6" width="7.2" height="6.9"/>
	<rect x="485.6" y="634.6" class="st2" width="7.2" height="6.9"/>
	<rect x="485.6" y="627.7" class="st2" width="7.2" height="6.9"/>
	<rect x="485.6" y="620.8" class="st2" width="7.2" height="6.9"/>
	<rect x="485.6" y="613.8" class="st2" width="7.2" height="6.9"/>
	<rect x="485.6" y="606.9" class="st2" width="7.2" height="6.9"/>
	<rect x="485.6" y="600" class="st2" width="7.2" height="6.9"/>
	<rect x="485.6" y="593.1" class="st1" width="7.2" height="6.9"/>
	<rect x="485.6" y="586.2" class="st1" width="7.2" height="6.9"/>
	<rect x="485.6" y="579.2" class="st1" width="7.2" height="6.9"/>
	<rect x="485.6" y="572.3" class="st1" width="7.2" height="6.9"/>
	<rect x="485.6" y="565.4" class="st1" width="7.2" height="6.9"/>
	<rect x="485.6" y="558.5" class="st1" width="7.2" height="6.9"/>
	<rect x="485.6" y="551.5" class="st1" width="7.2" height="6.9"/>
	<rect x="485.6" y="544.6" class="st1" width="7.2" height="6.9"/>
	<rect x="485.6" y="537.7" class="st4" width="7.2" height="6.9"/>
	<rect x="485.6" y="530.8" class="st4" width="7.2" height="6.9"/>
	<rect x="485.6" y="523.9" class="st4" width="7.2" height="6.9"/>
	<rect x="485.6" y="516.9" class="st9" width="7.2" height="6.9"/>
	<rect x="485.6" y="510" class="st4" width="7.2" height="6.9"/>
	<rect x="478.5" y="683.1" class="st3" width="7.2" height="6.9"/>
	<rect x="478.5" y="676.2" class="st5" width="7.2" height="6.9"/>
	<rect x="478.5" y="669.2" class="st5" width="7.2" height="6.9"/>
	<rect x="478.5" y="662.3" class="st5" width="7.2" height="6.9"/>
	<rect x="478.5" y="655.4" class="st5" width="7.2" height="6.9"/>
	<rect x="478.5" y="648.5" class="st5" width="7.2" height="6.9"/>
	<rect x="478.5" y="641.5" class="st6" width="7.2" height="6.9"/>
	<rect x="478.5" y="634.6" class="st2" width="7.2" height="6.9"/>
	<rect x="478.5" y="627.7" class="st2" width="7.2" height="6.9"/>
	<rect x="478.5" y="620.8" class="st2" width="7.2" height="6.9"/>
	<rect x="478.5" y="613.8" class="st2" width="7.2" height="6.9"/>
	<rect x="478.5" y="606.9" class="st2" width="7.2" height="6.9"/>
	<rect x="478.5" y="600" class="st2" width="7.2" height="6.9"/>
	<rect x="478.5" y="593.1" class="st2" width="7.2" height="6.9"/>
	<rect x="478.5" y="586.2" class="st1" width="7.2" height="6.9"/>
	<rect x="478.5" y="579.2" class="st1" width="7.2" height="6.9"/>
	<rect x="478.5" y="572.3" class="st1" width="7.2" height="6.9"/>
	<rect x="478.5" y="565.4" class="st1" width="7.2" height="6.9"/>
	<rect x="478.5" y="558.5" class="st4" width="7.2" height="6.9"/>
	<rect x="478.5" y="551.5" class="st4" width="7.2" height="6.9"/>
	<rect x="478.5" y="544.6" class="st4" width="7.2" height="6.9"/>
	<rect x="478.5" y="537.7" class="st4" width="7.2" height="6.9"/>
	<rect x="478.5" y="530.8" class="st4" width="7.2" height="6.9"/>
	<rect x="478.5" y="523.9" class="st4" width="7.2" height="6.9"/>
	<rect x="478.5" y="516.9" class="st9" width="7.2" height="6.9"/>
	<rect x="478.5" y="510" class="st4" width="7.2" height="6.9"/>
	<rect x="471.3" y="683.1" class="st3" width="7.2" height="6.9"/>
	<rect x="471.3" y="676.2" class="st5" width="7.2" height="6.9"/>
	<rect x="471.3" y="669.2" class="st5" width="7.2" height="6.9"/>
	<rect x="471.3" y="662.3" class="st5" width="7.2" height="6.9"/>
	<rect x="471.3" y="655.4" class="st5" width="7.2" height="6.9"/>
	<rect x="471.3" y="648.5" class="st5" width="7.2" height="6.9"/>
	<rect x="471.3" y="641.5" class="st1" width="7.2" height="6.9"/>
	<rect x="471.3" y="634.6" class="st2" width="7.2" height="6.9"/>
	<rect x="471.3" y="627.7" class="st2" width="7.2" height="6.9"/>
	<rect x="471.3" y="620.8" class="st2" width="7.2" height="6.9"/>
	<rect x="471.3" y="613.8" class="st2" width="7.2" height="6.9"/>
	<rect x="471.3" y="606.9" class="st2" width="7.2" height="6.9"/>
	<rect x="471.3" y="600" class="st2" width="7.2" height="6.9"/>
	<rect x="471.3" y="593.1" class="st2" width="7.2" height="6.9"/>
	<rect x="471.3" y="586.2" class="st1" width="7.2" height="6.9"/>
	<rect x="471.3" y="579.2" class="st1" width="7.2" height="6.9"/>
	<rect x="471.3" y="572.3" class="st1" width="7.2" height="6.9"/>
	<rect x="471.3" y="565.4" class="st1" width="7.2" height="6.9"/>
	<rect x="471.3" y="558.5" class="st1" width="7.2" height="6.9"/>
	<rect x="471.3" y="551.5" class="st4" width="7.2" height="6.9"/>
	<rect x="471.3" y="544.6" class="st4" width="7.2" height="6.9"/>
	<rect x="471.3" y="537.7" class="st4" width="7.2" height="6.9"/>
	<rect x="471.3" y="530.8" class="st4" width="7.2" height="6.9"/>
	<rect x="471.3" y="523.9" class="st9" width="7.2" height="6.9"/>
	<rect x="471.3" y="516.9" class="st4" width="7.2" height="6.9"/>
	<rect x="471.3" y="510" class="st4" width="7.2" height="6.9"/>
	<rect x="464.1" y="683.1" class="st3" width="7.2" height="6.9"/>
	<rect x="464.1" y="676.2" class="st5" width="7.2" height="6.9"/>
	<rect x="464.1" y="669.2" class="st5" width="7.2" height="6.9"/>
	<rect x="464.1" y="662.3" class="st5" width="7.2" height="6.9"/>
	<rect x="464.1" y="655.4" class="st5" width="7.2" height="6.9"/>
	<rect x="464.1" y="648.5" class="st1" width="7.2" height="6.9"/>
	<rect x="464.1" y="641.5" class="st1" width="7.2" height="6.9"/>
	<rect x="464.1" y="634.6" class="st1" width="7.2" height="6.9"/>
	<rect x="464.1" y="627.7" class="st2" width="7.2" height="6.9"/>
	<rect x="464.1" y="620.8" class="st2" width="7.2" height="6.9"/>
	<rect x="464.1" y="613.8" class="st2" width="7.2" height="6.9"/>
	<rect x="464.1" y="606.9" class="st2" width="7.2" height="6.9"/>
	<rect x="464.1" y="600" class="st2" width="7.2" height="6.9"/>
	<rect x="464.1" y="593.1" class="st2" width="7.2" height="6.9"/>
	<rect x="464.1" y="586.2" class="st4" width="7.2" height="6.9"/>
	<rect x="464.1" y="579.2" class="st1" width="7.2" height="6.9"/>
	<rect x="464.1" y="572.3" class="st1" width="7.2" height="6.9"/>
	<rect x="464.1" y="565.4" class="st1" width="7.2" height="6.9"/>
	<rect x="464.1" y="558.5" class="st1" width="7.2" height="6.9"/>
	<rect x="464.1" y="551.5" class="st4" width="7.2" height="6.9"/>
	<rect x="464.1" y="544.6" class="st4" width="7.2" height="6.9"/>
	<rect x="464.1" y="537.7" class="st4" width="7.2" height="6.9"/>
	<rect x="464.1" y="530.8" class="st9" width="7.2" height="6.9"/>
	<rect x="464.1" y="523.9" class="st4" width="7.2" height="6.9"/>
	<rect x="464.1" y="516.9" class="st4" width="7.2" height="6.9"/>
	<rect x="456.9" y="648.5" class="st1" width="7.2" height="6.9"/>
	<rect x="456.9" y="641.5" class="st1" width="7.2" height="6.9"/>
	<rect x="456.9" y="634.6" class="st1" width="7.2" height="6.9"/>
	<rect x="456.9" y="627.7" class="st2" width="7.2" height="6.9"/>
	<rect x="456.9" y="620.8" class="st2" width="7.2" height="6.9"/>
	<rect x="456.9" y="613.8" class="st2" width="7.2" height="6.9"/>
	<rect x="456.9" y="606.9" class="st2" width="7.2" height="6.9"/>
	<rect x="456.9" y="600" class="st2" width="7.2" height="6.9"/>
	<rect x="456.9" y="579.2" class="st4" width="7.2" height="6.9"/>
	<rect x="456.9" y="572.3" class="st4" width="7.2" height="6.9"/>
	<rect x="456.9" y="565.4" class="st4" width="7.2" height="6.9"/>
	<rect x="456.9" y="558.5" class="st4" width="7.2" height="6.9"/>
	<rect x="456.9" y="551.5" class="st4" width="7.2" height="6.9"/>
	<rect x="456.9" y="544.6" class="st4" width="7.2" height="6.9"/>
	<rect x="456.9" y="537.7" class="st4" width="7.2" height="6.9"/>
	<rect x="456.9" y="530.8" class="st4" width="7.2" height="6.9"/>
	<rect x="456.9" y="523.9" class="st4" width="7.2" height="6.9"/>
	<rect x="449.8" y="648.5" class="st1" width="7.2" height="6.9"/>
	<rect x="449.8" y="641.5" class="st1" width="7.2" height="6.9"/>
	<rect x="449.8" y="634.6" class="st1" width="7.2" height="6.9"/>
	<rect x="449.8" y="627.7" class="st2" width="7.2" height="6.9"/>
	<rect x="449.8" y="620.8" class="st2" width="7.2" height="6.9"/>
	<rect x="449.8" y="613.8" class="st2" width="7.2" height="6.9"/>
	<rect x="449.8" y="606.9" class="st2" width="7.2" height="6.9"/>
	<rect x="449.8" y="572.3" class="st4" width="7.2" height="6.9"/>
	<rect x="449.8" y="565.4" class="st4" width="7.2" height="6.9"/>
	<rect x="449.8" y="558.5" class="st4" width="7.2" height="6.9"/>
	<rect x="449.8" y="551.5" class="st4" width="7.2" height="6.9"/>
	<rect x="449.8" y="544.6" class="st4" width="7.2" height="6.9"/>
	<rect x="449.8" y="537.7" class="st4" width="7.2" height="6.9"/>
	<rect x="442.6" y="641.5" class="st1" width="7.2" height="6.9"/>
	<rect x="442.6" y="634.6" class="st2" width="7.2" height="6.9"/>
	<rect x="442.6" y="627.7" class="st2" width="7.2" height="6.9"/>
	<rect x="442.6" y="620.8" class="st2" width="7.2" height="6.9"/>
	<rect x="442.6" y="613.8" class="st2" width="7.2" height="6.9"/>
</g>
</svg>
