<?xml version="1.0" encoding="utf-8"?>
<!-- Generator: Adobe Illustrator 19.2.0, SVG Export Plug-In . SVG Version: 6.00 Build 0)  -->
<svg version="1.1" id="Layer_1" xmlns="http://www.w3.org/2000/svg" xmlns:xlink="http://www.w3.org/1999/xlink" x="0px" y="0px"
	 viewBox="0 0 1000 1000" style="enable-background:new 0 0 1000 1000;" xml:space="preserve">
<style type="text/css">
	.st0{fill:#F9A825;}
	.st1{fill:#263238;}
	.st2{fill:#FFCCBC;}
	.st3{fill:#00BCD4;}
	.st4{fill:#009688;}
	.st5{fill:#FAFAFA;}
	.st6{fill:#FBCB7C;}
	.st7{fill:none;stroke:#3399CC;stroke-width:5;stroke-miterlimit:10;}
</style>
<g>
	<rect x="539.2" y="560.6" class="st0" width="7.2" height="7.2"/>
	<rect x="539.2" y="553.4" class="st0" width="7.2" height="7.2"/>
	<rect x="539.2" y="546.2" class="st0" width="7.2" height="7.2"/>
	<rect x="539.2" y="539" class="st0" width="7.2" height="7.2"/>
	<rect x="539.2" y="531.8" class="st0" width="7.2" height="7.2"/>
	<rect x="532.1" y="682.6" class="st1" width="7.2" height="7.2"/>
	<rect x="532.1" y="653.9" class="st2" width="7.2" height="7.2"/>
	<rect x="532.1" y="646.7" class="st2" width="7.2" height="7.2"/>
	<rect x="532.1" y="639.5" class="st3" width="7.2" height="7.2"/>
	<rect x="532.1" y="632.3" class="st3" width="7.2" height="7.2"/>
	<rect x="532.1" y="625.2" class="st3" width="7.2" height="7.2"/>
	<rect x="532.1" y="618" class="st3" width="7.2" height="7.2"/>
	<rect x="532.1" y="610.8" class="st2" width="7.2" height="7.2"/>
	<rect x="532.1" y="603.6" class="st2" width="7.2" height="7.2"/>
	<rect x="532.1" y="596.4" class="st2" width="7.2" height="7.2"/>
	<rect x="532.1" y="589.3" class="st2" width="7.2" height="7.2"/>
	<rect x="532.1" y="582.1" class="st2" width="7.2" height="7.2"/>
	<rect x="532.1" y="574.9" class="st2" width="7.2" height="7.2"/>
	<rect x="532.1" y="567.7" class="st2" width="7.2" height="7.2"/>
	<rect x="532.1" y="560.6" class="st2" width="7.2" height="7.2"/>
	<rect x="532.1" y="553.4" class="st0" width="7.2" height="7.2"/>
	<rect x="532.1" y="546.2" class="st0" width="7.2" height="7.2"/>
	<rect x="532.1" y="539" class="st0" width="7.2" height="7.2"/>
	<rect x="524.9" y="682.6" class="st1" width="7.2" height="7.2"/>
	<rect x="524.9" y="675.4" class="st2" width="7.2" height="7.2"/>
	<rect x="524.9" y="668.2" class="st4" width="7.2" height="7.2"/>
	<rect x="524.9" y="661" class="st4" width="7.2" height="7.2"/>
	<rect x="524.9" y="653.9" class="st2" width="7.2" height="7.2"/>
	<rect x="524.9" y="646.7" class="st2" width="7.2" height="7.2"/>
	<rect x="524.9" y="639.5" class="st3" width="7.2" height="7.2"/>
	<rect x="524.9" y="632.3" class="st3" width="7.2" height="7.2"/>
	<rect x="524.9" y="625.2" class="st3" width="7.2" height="7.2"/>
	<rect x="524.9" y="618" class="st3" width="7.2" height="7.2"/>
	<rect x="524.9" y="610.8" class="st2" width="7.2" height="7.2"/>
	<rect x="524.9" y="603.6" class="st2" width="7.2" height="7.2"/>
	<rect x="524.9" y="596.4" class="st2" width="7.2" height="7.2"/>
	<rect x="524.9" y="589.3" class="st1" width="7.2" height="7.2"/>
	<rect x="524.9" y="582.1" class="st1" width="7.2" height="7.2"/>
	<rect x="524.9" y="574.9" class="st2" width="7.2" height="7.2"/>
	<rect x="524.9" y="567.7" class="st2" width="7.2" height="7.2"/>
	<rect x="524.9" y="560.6" class="st2" width="7.2" height="7.2"/>
	<rect x="524.9" y="553.4" class="st0" width="7.2" height="7.2"/>
	<rect x="524.9" y="546.2" class="st0" width="7.2" height="7.2"/>
	<rect x="524.9" y="539" class="st0" width="7.2" height="7.2"/>
	<rect x="524.9" y="531.8" class="st0" width="7.2" height="7.2"/>
	<rect x="524.9" y="524.7" class="st0" width="7.2" height="7.2"/>
	<rect x="517.7" y="682.6" class="st1" width="7.2" height="7.2"/>
	<rect x="517.7" y="675.4" class="st2" width="7.2" height="7.2"/>
	<rect x="517.7" y="668.2" class="st4" width="7.2" height="7.2"/>
	<rect x="517.7" y="661" class="st4" width="7.2" height="7.2"/>
	<rect x="517.7" y="653.9" class="st3" width="7.2" height="7.2"/>
	<rect x="517.7" y="646.7" class="st2" width="7.2" height="7.2"/>
	<rect x="517.7" y="639.5" class="st3" width="7.2" height="7.2"/>
	<rect x="517.7" y="632.3" class="st3" width="7.2" height="7.2"/>
	<rect x="517.7" y="625.2" class="st3" width="7.2" height="7.2"/>
	<rect x="517.7" y="618" class="st2" width="7.2" height="7.2"/>
	<rect x="517.7" y="610.8" class="st2" width="7.2" height="7.2"/>
	<rect x="517.7" y="603.6" class="st1" width="7.2" height="7.2"/>
	<rect x="517.7" y="596.4" class="st2" width="7.2" height="7.2"/>
	<rect x="517.7" y="589.3" class="st2" width="7.2" height="7.2"/>
	<rect x="517.7" y="582.1" class="st2" width="7.2" height="7.2"/>
	<rect x="517.7" y="574.9" class="st2" width="7.2" height="7.2"/>
	<rect x="517.7" y="567.7" class="st0" width="7.2" height="7.2"/>
	<rect x="517.7" y="560.6" class="st0" width="7.2" height="7.2"/>
	<rect x="517.7" y="553.4" class="st0" width="7.2" height="7.2"/>
	<rect x="517.7" y="546.2" class="st0" width="7.2" height="7.2"/>
	<rect x="517.7" y="539" class="st0" width="7.2" height="7.2"/>
	<rect x="517.7" y="531.8" class="st0" width="7.2" height="7.2"/>
	<rect x="510.5" y="668.2" class="st4" width="7.2" height="7.2"/>
	<rect x="510.5" y="661" class="st4" width="7.2" height="7.2"/>
	<rect x="510.5" y="653.9" class="st3" width="7.2" height="7.2"/>
	<rect x="510.5" y="646.7" class="st3" width="7.2" height="7.2"/>
	<rect x="510.5" y="639.5" class="st3" width="7.2" height="7.2"/>
	<rect x="510.5" y="632.3" class="st3" width="7.2" height="7.2"/>
	<rect x="510.5" y="625.2" class="st3" width="7.2" height="7.2"/>
	<rect x="510.5" y="618" class="st2" width="7.2" height="7.2"/>
	<rect x="510.5" y="610.8" class="st2" width="7.2" height="7.2"/>
	<rect x="510.5" y="603.6" class="st2" width="7.2" height="7.2"/>
	<rect x="510.5" y="596.4" class="st2" width="7.2" height="7.2"/>
	<rect x="510.5" y="589.3" class="st2" width="7.2" height="7.2"/>
	<rect x="510.5" y="582.1" class="st2" width="7.2" height="7.2"/>
	<rect x="510.5" y="574.9" class="st2" width="7.2" height="7.2"/>
	<rect x="510.5" y="567.7" class="st2" width="7.2" height="7.2"/>
	<rect x="510.5" y="560.6" class="st0" width="7.2" height="7.2"/>
	<rect x="510.5" y="553.4" class="st0" width="7.2" height="7.2"/>
	<rect x="510.5" y="546.2" class="st0" width="7.2" height="7.2"/>
	<rect x="510.5" y="539" class="st0" width="7.2" height="7.2"/>
	<rect x="510.5" y="531.8" class="st0" width="7.2" height="7.2"/>
	<rect x="510.5" y="524.7" class="st0" width="7.2" height="7.2"/>
	<rect x="510.5" y="517.5" class="st0" width="7.2" height="7.2"/>
	<rect x="503.3" y="661" class="st4" width="7.2" height="7.2"/>
	<rect x="503.3" y="653.9" class="st3" width="7.2" height="7.2"/>
	<rect x="503.3" y="646.7" class="st3" width="7.2" height="7.2"/>
	<rect x="503.3" y="639.5" class="st3" width="7.2" height="7.2"/>
	<rect x="503.3" y="632.3" class="st3" width="7.2" height="7.2"/>
	<rect x="503.3" y="625.2" class="st3" width="7.2" height="7.2"/>
	<rect x="503.3" y="618" class="st3" width="7.2" height="7.2"/>
	<rect x="503.3" y="610.8" class="st2" width="7.2" height="7.2"/>
	<rect x="503.3" y="603.6" class="st2" width="7.2" height="7.2"/>
	<rect x="503.3" y="596.4" class="st2" width="7.2" height="7.2"/>
	<rect x="503.3" y="589.3" class="st1" width="7.2" height="7.2"/>
	<rect x="503.3" y="582.1" class="st1" width="7.2" height="7.2"/>
	<rect x="503.3" y="574.9" class="st2" width="7.2" height="7.2"/>
	<rect x="503.3" y="567.7" class="st2" width="7.2" height="7.2"/>
	<rect x="503.3" y="560.6" class="st2" width="7.2" height="7.2"/>
	<rect x="503.3" y="553.4" class="st0" width="7.2" height="7.2"/>
	<rect x="503.3" y="546.2" class="st0" width="7.2" height="7.2"/>
	<rect x="503.3" y="539" class="st0" width="7.2" height="7.2"/>
	<rect x="503.3" y="531.8" class="st0" width="7.2" height="7.2"/>
	<rect x="503.3" y="524.7" class="st0" width="7.2" height="7.2"/>
	<rect x="496.2" y="668.2" class="st4" width="7.2" height="7.2"/>
	<rect x="496.2" y="661" class="st4" width="7.2" height="7.2"/>
	<rect x="496.2" y="653.9" class="st3" width="7.2" height="7.2"/>
	<rect x="496.2" y="646.7" class="st3" width="7.2" height="7.2"/>
	<rect x="496.2" y="639.5" class="st3" width="7.2" height="7.2"/>
	<rect x="496.2" y="632.3" class="st3" width="7.2" height="7.2"/>
	<rect x="496.2" y="625.2" class="st3" width="7.2" height="7.2"/>
	<rect x="496.2" y="618" class="st3" width="7.2" height="7.2"/>
	<rect x="496.2" y="610.8" class="st2" width="7.2" height="7.2"/>
	<rect x="496.2" y="603.6" class="st2" width="7.2" height="7.2"/>
	<rect x="496.2" y="596.4" class="st2" width="7.2" height="7.2"/>
	<rect x="496.2" y="589.3" class="st2" width="7.2" height="7.2"/>
	<rect x="496.2" y="582.1" class="st2" width="7.2" height="7.2"/>
	<rect x="496.2" y="574.9" class="st2" width="7.2" height="7.2"/>
	<rect x="496.2" y="567.7" class="st2" width="7.2" height="7.2"/>
	<rect x="496.2" y="560.6" class="st2" width="7.2" height="7.2"/>
	<rect x="496.2" y="553.4" class="st0" width="7.2" height="7.2"/>
	<rect x="496.2" y="546.2" class="st0" width="7.2" height="7.2"/>
	<rect x="496.2" y="539" class="st0" width="7.2" height="7.2"/>
	<rect x="496.2" y="531.8" class="st0" width="7.2" height="7.2"/>
	<rect x="496.2" y="524.7" class="st0" width="7.2" height="7.2"/>
	<rect x="496.2" y="517.5" class="st0" width="7.2" height="7.2"/>
	<rect x="489" y="682.6" class="st1" width="7.2" height="7.2"/>
	<rect x="489" y="675.4" class="st2" width="7.2" height="7.2"/>
	<rect x="489" y="668.2" class="st4" width="7.2" height="7.2"/>
	<rect x="489" y="661" class="st4" width="7.2" height="7.2"/>
	<rect x="489" y="653.9" class="st5" width="7.2" height="7.2"/>
	<rect x="489" y="646.7" class="st5" width="7.2" height="7.2"/>
	<rect x="489" y="639.5" class="st3" width="7.2" height="7.2"/>
	<rect x="489" y="632.3" class="st3" width="7.2" height="7.2"/>
	<rect x="489" y="625.2" class="st3" width="7.2" height="7.2"/>
	<rect x="489" y="618" class="st3" width="7.2" height="7.2"/>
	<rect x="489" y="610.8" class="st2" width="7.2" height="7.2"/>
	<rect x="489" y="603.6" class="st2" width="7.2" height="7.2"/>
	<rect x="489" y="596.4" class="st2" width="7.2" height="7.2"/>
	<rect x="489" y="589.3" class="st2" width="7.2" height="7.2"/>
	<rect x="489" y="582.1" class="st2" width="7.2" height="7.2"/>
	<rect x="489" y="574.9" class="st2" width="7.2" height="7.2"/>
	<rect x="489" y="567.7" class="st2" width="7.2" height="7.2"/>
	<rect x="489" y="560.6" class="st0" width="7.2" height="7.2"/>
	<rect x="489" y="553.4" class="st0" width="7.2" height="7.2"/>
	<rect x="489" y="546.2" class="st0" width="7.2" height="7.2"/>
	<rect x="489" y="539" class="st0" width="7.2" height="7.2"/>
	<rect x="489" y="531.8" class="st6" width="7.2" height="7.2"/>
	<rect x="489" y="524.7" class="st0" width="7.2" height="7.2"/>
	<rect x="489" y="510.3" class="st0" width="7.2" height="7.2"/>
	<rect x="481.8" y="682.6" class="st1" width="7.2" height="7.2"/>
	<rect x="481.8" y="675.4" class="st2" width="7.2" height="7.2"/>
	<rect x="481.8" y="668.2" class="st4" width="7.2" height="7.2"/>
	<rect x="481.8" y="661" class="st5" width="7.2" height="7.2"/>
	<rect x="481.8" y="653.9" class="st5" width="7.2" height="7.2"/>
	<rect x="481.8" y="646.7" class="st5" width="7.2" height="7.2"/>
	<rect x="481.8" y="639.5" class="st5" width="7.2" height="7.2"/>
	<rect x="481.8" y="632.3" class="st3" width="7.2" height="7.2"/>
	<rect x="481.8" y="625.2" class="st3" width="7.2" height="7.2"/>
	<rect x="481.8" y="618" class="st3" width="7.2" height="7.2"/>
	<rect x="481.8" y="610.8" class="st3" width="7.2" height="7.2"/>
	<rect x="481.8" y="603.6" class="st2" width="7.2" height="7.2"/>
	<rect x="481.8" y="596.4" class="st2" width="7.2" height="7.2"/>
	<rect x="481.8" y="589.3" class="st2" width="7.2" height="7.2"/>
	<rect x="481.8" y="582.1" class="st2" width="7.2" height="7.2"/>
	<rect x="481.8" y="574.9" class="st2" width="7.2" height="7.2"/>
	<rect x="481.8" y="567.7" class="st0" width="7.2" height="7.2"/>
	<rect x="481.8" y="560.6" class="st0" width="7.2" height="7.2"/>
	<rect x="481.8" y="553.4" class="st0" width="7.2" height="7.2"/>
	<rect x="481.8" y="546.2" class="st0" width="7.2" height="7.2"/>
	<rect x="481.8" y="539" class="st0" width="7.2" height="7.2"/>
	<rect x="481.8" y="531.8" class="st6" width="7.2" height="7.2"/>
	<rect x="481.8" y="524.7" class="st0" width="7.2" height="7.2"/>
	<rect x="474.6" y="682.6" class="st1" width="7.2" height="7.2"/>
	<rect x="474.6" y="675.4" class="st2" width="7.2" height="7.2"/>
	<rect x="474.6" y="668.2" class="st4" width="7.2" height="7.2"/>
	<rect x="474.6" y="661" class="st5" width="7.2" height="7.2"/>
	<rect x="474.6" y="653.9" class="st5" width="7.2" height="7.2"/>
	<rect x="474.6" y="646.7" class="st5" width="7.2" height="7.2"/>
	<rect x="474.6" y="639.5" class="st2" width="7.2" height="7.2"/>
	<rect x="474.6" y="632.3" class="st3" width="7.2" height="7.2"/>
	<rect x="474.6" y="625.2" class="st3" width="7.2" height="7.2"/>
	<rect x="474.6" y="618" class="st3" width="7.2" height="7.2"/>
	<rect x="474.6" y="610.8" class="st3" width="7.2" height="7.2"/>
	<rect x="474.6" y="603.6" class="st2" width="7.2" height="7.2"/>
	<rect x="474.6" y="596.4" class="st2" width="7.2" height="7.2"/>
	<rect x="474.6" y="589.3" class="st2" width="7.2" height="7.2"/>
	<rect x="474.6" y="582.1" class="st0" width="7.2" height="7.2"/>
	<rect x="474.6" y="574.9" class="st0" width="7.2" height="7.2"/>
	<rect x="474.6" y="567.7" class="st0" width="7.2" height="7.2"/>
	<rect x="474.6" y="560.6" class="st0" width="7.2" height="7.2"/>
	<rect x="474.6" y="553.4" class="st0" width="7.2" height="7.2"/>
	<rect x="474.6" y="546.2" class="st0" width="7.2" height="7.2"/>
	<rect x="474.6" y="539" class="st6" width="7.2" height="7.2"/>
	<rect x="474.6" y="531.8" class="st0" width="7.2" height="7.2"/>
	<rect x="474.6" y="524.7" class="st0" width="7.2" height="7.2"/>
	<rect x="474.6" y="517.5" class="st0" width="7.2" height="7.2"/>
	<rect x="467.4" y="661" class="st2" width="7.2" height="7.2"/>
	<rect x="467.4" y="653.9" class="st2" width="7.2" height="7.2"/>
	<rect x="467.4" y="646.7" class="st2" width="7.2" height="7.2"/>
	<rect x="467.4" y="639.5" class="st3" width="7.2" height="7.2"/>
	<rect x="467.4" y="632.3" class="st3" width="7.2" height="7.2"/>
	<rect x="467.4" y="625.2" class="st3" width="7.2" height="7.2"/>
	<rect x="467.4" y="618" class="st3" width="7.2" height="7.2"/>
	<rect x="467.4" y="596.4" class="st0" width="7.2" height="7.2"/>
	<rect x="467.4" y="589.3" class="st0" width="7.2" height="7.2"/>
	<rect x="467.4" y="582.1" class="st0" width="7.2" height="7.2"/>
	<rect x="467.4" y="574.9" class="st0" width="7.2" height="7.2"/>
	<rect x="467.4" y="567.7" class="st0" width="7.2" height="7.2"/>
	<rect x="467.4" y="560.6" class="st0" width="7.2" height="7.2"/>
	<rect x="467.4" y="553.4" class="st0" width="7.2" height="7.2"/>
	<rect x="467.4" y="546.2" class="st6" width="7.2" height="7.2"/>
	<rect x="467.4" y="539" class="st0" width="7.2" height="7.2"/>
	<rect x="467.4" y="531.8" class="st0" width="7.2" height="7.2"/>
	<rect x="467.4" y="524.7" class="st0" width="7.2" height="7.2"/>
	<rect x="467.4" y="510.3" class="st0" width="7.2" height="7.2"/>
	<rect x="460.3" y="661" class="st2" width="7.2" height="7.2"/>
	<rect x="460.3" y="653.9" class="st2" width="7.2" height="7.2"/>
	<rect x="460.3" y="646.7" class="st2" width="7.2" height="7.2"/>
	<rect x="460.3" y="639.5" class="st3" width="7.2" height="7.2"/>
	<rect x="460.3" y="632.3" class="st3" width="7.2" height="7.2"/>
	<rect x="460.3" y="625.2" class="st3" width="7.2" height="7.2"/>
	<rect x="460.3" y="582.1" class="st0" width="7.2" height="7.2"/>
	<rect x="460.3" y="574.9" class="st0" width="7.2" height="7.2"/>
	<rect x="460.3" y="567.7" class="st0" width="7.2" height="7.2"/>
	<rect x="460.3" y="560.6" class="st0" width="7.2" height="7.2"/>
	<rect x="460.3" y="553.4" class="st0" width="7.2" height="7.2"/>
	<rect x="460.3" y="546.2" class="st0" width="7.2" height="7.2"/>
	<rect x="460.3" y="539" class="st0" width="7.2" height="7.2"/>
	<rect x="453.1" y="646.7" class="st3" width="7.2" height="7.2"/>
	<rect x="453.1" y="639.5" class="st3" width="7.2" height="7.2"/>
	<rect x="453.1" y="632.3" class="st3" width="7.2" height="7.2"/>
	<rect x="453.1" y="574.9" class="st0" width="7.2" height="7.2"/>
	<rect x="453.1" y="567.7" class="st0" width="7.2" height="7.2"/>
	<rect x="453.1" y="560.6" class="st0" width="7.2" height="7.2"/>
	<rect x="453.1" y="553.4" class="st0" width="7.2" height="7.2"/>
</g>
<line class="st7" x1="499.7" y1="193.2" x2="499.7" y2="484.8"/>
</svg>
