<?xml version="1.0" encoding="utf-8"?>
<!-- Generator: Adobe Illustrator 19.2.0, SVG Export Plug-In . SVG Version: 6.00 Build 0)  -->
<svg version="1.1" id="Layer_1" xmlns="http://www.w3.org/2000/svg" xmlns:xlink="http://www.w3.org/1999/xlink" x="0px" y="0px"
	 viewBox="0 0 1000 1000" style="enable-background:new 0 0 1000 1000;" xml:space="preserve">
<style type="text/css">
	.st0{fill:none;stroke:#FF3366;stroke-width:5;stroke-miterlimit:10;}
	.st1{fill:#4E342E;}
	.st2{fill:#E91E63;}
	.st3{fill:#263238;}
	.st4{fill:#FFCCBC;}
	.st5{fill:#F9A825;}
	.st6{fill:#FAFAFA;}
	.st7{fill:#8D6E63;}
	.st8{fill:#009688;}
</style>
<line class="st0" x1="499.7" y1="193.2" x2="499.7" y2="484.8"/>
<g>
	<rect x="561" y="571.3" class="st1" width="7.2" height="7.2"/>
	<rect x="561" y="564.1" class="st1" width="7.2" height="7.2"/>
	<rect x="553.8" y="564.1" class="st1" width="7.2" height="7.2"/>
	<rect x="553.8" y="556.9" class="st1" width="7.2" height="7.2"/>
	<rect x="553.8" y="549.8" class="st1" width="7.2" height="7.2"/>
	<rect x="546.7" y="564.1" class="st1" width="7.2" height="7.2"/>
	<rect x="546.7" y="556.9" class="st1" width="7.2" height="7.2"/>
	<rect x="546.7" y="549.8" class="st1" width="7.2" height="7.2"/>
	<rect x="546.7" y="542.6" class="st1" width="7.2" height="7.2"/>
	<rect x="539.5" y="564.1" class="st2" width="7.2" height="7.2"/>
	<rect x="539.5" y="556.9" class="st2" width="7.2" height="7.2"/>
	<rect x="539.5" y="549.8" class="st2" width="7.2" height="7.2"/>
	<rect x="539.5" y="542.6" class="st2" width="7.2" height="7.2"/>
	<rect x="532.3" y="671.8" class="st3" width="7.2" height="7.2"/>
	<rect x="532.3" y="643.1" class="st4" width="7.2" height="7.2"/>
	<rect x="532.3" y="635.9" class="st4" width="7.2" height="7.2"/>
	<rect x="532.3" y="628.7" class="st5" width="7.2" height="7.2"/>
	<rect x="532.3" y="621.5" class="st5" width="7.2" height="7.2"/>
	<rect x="532.3" y="614.4" class="st5" width="7.2" height="7.2"/>
	<rect x="532.3" y="600" class="st4" width="7.2" height="7.2"/>
	<rect x="532.3" y="592.8" class="st4" width="7.2" height="7.2"/>
	<rect x="532.3" y="585.6" class="st4" width="7.2" height="7.2"/>
	<rect x="532.3" y="578.5" class="st4" width="7.2" height="7.2"/>
	<rect x="532.3" y="571.3" class="st1" width="7.2" height="7.2"/>
	<rect x="532.3" y="564.1" class="st1" width="7.2" height="7.2"/>
	<rect x="532.3" y="556.9" class="st1" width="7.2" height="7.2"/>
	<rect x="532.3" y="549.8" class="st1" width="7.2" height="7.2"/>
	<rect x="532.3" y="542.6" class="st1" width="7.2" height="7.2"/>
	<rect x="532.3" y="535.4" class="st1" width="7.2" height="7.2"/>
	<rect x="532.3" y="528.2" class="st1" width="7.2" height="7.2"/>
	<rect x="525.1" y="671.8" class="st3" width="7.2" height="7.2"/>
	<rect x="525.1" y="664.6" class="st4" width="7.2" height="7.2"/>
	<rect x="525.1" y="657.4" class="st5" width="7.2" height="7.2"/>
	<rect x="525.1" y="650.2" class="st5" width="7.2" height="7.2"/>
	<rect x="525.1" y="643.1" class="st6" width="7.2" height="7.2"/>
	<rect x="525.1" y="635.9" class="st4" width="7.2" height="7.2"/>
	<rect x="525.1" y="628.7" class="st5" width="7.2" height="7.2"/>
	<rect x="525.1" y="621.5" class="st5" width="7.2" height="7.2"/>
	<rect x="525.1" y="614.4" class="st2" width="7.2" height="7.2"/>
	<rect x="525.1" y="607.2" class="st4" width="7.2" height="7.2"/>
	<rect x="525.1" y="600" class="st4" width="7.2" height="7.2"/>
	<rect x="525.1" y="592.8" class="st4" width="7.2" height="7.2"/>
	<rect x="525.1" y="585.6" class="st4" width="7.2" height="7.2"/>
	<rect x="525.1" y="578.5" class="st3" width="7.2" height="7.2"/>
	<rect x="525.1" y="571.3" class="st3" width="7.2" height="7.2"/>
	<rect x="525.1" y="564.1" class="st4" width="7.2" height="7.2"/>
	<rect x="525.1" y="556.9" class="st1" width="7.2" height="7.2"/>
	<rect x="525.1" y="549.8" class="st1" width="7.2" height="7.2"/>
	<rect x="525.1" y="542.6" class="st1" width="7.2" height="7.2"/>
	<rect x="525.1" y="535.4" class="st1" width="7.2" height="7.2"/>
	<rect x="525.1" y="528.2" class="st1" width="7.2" height="7.2"/>
	<rect x="525.1" y="521" class="st1" width="7.2" height="7.2"/>
	<rect x="517.9" y="671.8" class="st3" width="7.2" height="7.2"/>
	<rect x="517.9" y="664.6" class="st4" width="7.2" height="7.2"/>
	<rect x="517.9" y="657.4" class="st5" width="7.2" height="7.2"/>
	<rect x="517.9" y="650.2" class="st5" width="7.2" height="7.2"/>
	<rect x="517.9" y="643.1" class="st6" width="7.2" height="7.2"/>
	<rect x="517.9" y="635.9" class="st5" width="7.2" height="7.2"/>
	<rect x="517.9" y="628.7" class="st5" width="7.2" height="7.2"/>
	<rect x="517.9" y="621.5" class="st2" width="7.2" height="7.2"/>
	<rect x="517.9" y="614.4" class="st2" width="7.2" height="7.2"/>
	<rect x="517.9" y="607.2" class="st4" width="7.2" height="7.2"/>
	<rect x="517.9" y="600" class="st4" width="7.2" height="7.2"/>
	<rect x="517.9" y="592.8" class="st2" width="7.2" height="7.2"/>
	<rect x="517.9" y="585.6" class="st4" width="7.2" height="7.2"/>
	<rect x="517.9" y="578.5" class="st4" width="7.2" height="7.2"/>
	<rect x="517.9" y="571.3" class="st4" width="7.2" height="7.2"/>
	<rect x="517.9" y="564.1" class="st4" width="7.2" height="7.2"/>
	<rect x="517.9" y="556.9" class="st4" width="7.2" height="7.2"/>
	<rect x="517.9" y="549.8" class="st1" width="7.2" height="7.2"/>
	<rect x="517.9" y="542.6" class="st1" width="7.2" height="7.2"/>
	<rect x="517.9" y="535.4" class="st1" width="7.2" height="7.2"/>
	<rect x="517.9" y="528.2" class="st1" width="7.2" height="7.2"/>
	<rect x="517.9" y="521" class="st1" width="7.2" height="7.2"/>
	<rect x="510.8" y="657.4" class="st5" width="7.2" height="7.2"/>
	<rect x="510.8" y="650.2" class="st5" width="7.2" height="7.2"/>
	<rect x="510.8" y="643.1" class="st6" width="7.2" height="7.2"/>
	<rect x="510.8" y="635.9" class="st5" width="7.2" height="7.2"/>
	<rect x="510.8" y="628.7" class="st2" width="7.2" height="7.2"/>
	<rect x="510.8" y="621.5" class="st2" width="7.2" height="7.2"/>
	<rect x="510.8" y="614.4" class="st5" width="7.2" height="7.2"/>
	<rect x="510.8" y="607.2" class="st4" width="7.2" height="7.2"/>
	<rect x="510.8" y="600" class="st4" width="7.2" height="7.2"/>
	<rect x="510.8" y="592.8" class="st4" width="7.2" height="7.2"/>
	<rect x="510.8" y="585.6" class="st4" width="7.2" height="7.2"/>
	<rect x="510.8" y="578.5" class="st4" width="7.2" height="7.2"/>
	<rect x="510.8" y="571.3" class="st4" width="7.2" height="7.2"/>
	<rect x="510.8" y="564.1" class="st4" width="7.2" height="7.2"/>
	<rect x="510.8" y="556.9" class="st1" width="7.2" height="7.2"/>
	<rect x="510.8" y="549.8" class="st1" width="7.2" height="7.2"/>
	<rect x="510.8" y="542.6" class="st1" width="7.2" height="7.2"/>
	<rect x="510.8" y="535.4" class="st1" width="7.2" height="7.2"/>
	<rect x="510.8" y="528.2" class="st1" width="7.2" height="7.2"/>
	<rect x="510.8" y="521" class="st1" width="7.2" height="7.2"/>
	<rect x="503.6" y="657.4" class="st5" width="7.2" height="7.2"/>
	<rect x="503.6" y="650.2" class="st5" width="7.2" height="7.2"/>
	<rect x="503.6" y="643.1" class="st6" width="7.2" height="7.2"/>
	<rect x="503.6" y="635.9" class="st5" width="7.2" height="7.2"/>
	<rect x="503.6" y="628.7" class="st5" width="7.2" height="7.2"/>
	<rect x="503.6" y="621.5" class="st2" width="7.2" height="7.2"/>
	<rect x="503.6" y="614.4" class="st2" width="7.2" height="7.2"/>
	<rect x="503.6" y="607.2" class="st4" width="7.2" height="7.2"/>
	<rect x="503.6" y="600" class="st4" width="7.2" height="7.2"/>
	<rect x="503.6" y="592.8" class="st4" width="7.2" height="7.2"/>
	<rect x="503.6" y="585.6" class="st4" width="7.2" height="7.2"/>
	<rect x="503.6" y="578.5" class="st3" width="7.2" height="7.2"/>
	<rect x="503.6" y="571.3" class="st3" width="7.2" height="7.2"/>
	<rect x="503.6" y="564.1" class="st4" width="7.2" height="7.2"/>
	<rect x="503.6" y="556.9" class="st1" width="7.2" height="7.2"/>
	<rect x="503.6" y="549.8" class="st1" width="7.2" height="7.2"/>
	<rect x="503.6" y="542.6" class="st1" width="7.2" height="7.2"/>
	<rect x="503.6" y="535.4" class="st1" width="7.2" height="7.2"/>
	<rect x="503.6" y="528.2" class="st1" width="7.2" height="7.2"/>
	<rect x="503.6" y="521" class="st1" width="7.2" height="7.2"/>
	<rect x="496.4" y="657.4" class="st5" width="7.2" height="7.2"/>
	<rect x="496.4" y="650.2" class="st5" width="7.2" height="7.2"/>
	<rect x="496.4" y="643.1" class="st6" width="7.2" height="7.2"/>
	<rect x="496.4" y="635.9" class="st5" width="7.2" height="7.2"/>
	<rect x="496.4" y="628.7" class="st5" width="7.2" height="7.2"/>
	<rect x="496.4" y="621.5" class="st5" width="7.2" height="7.2"/>
	<rect x="496.4" y="614.4" class="st2" width="7.2" height="7.2"/>
	<rect x="496.4" y="607.2" class="st4" width="7.2" height="7.2"/>
	<rect x="496.4" y="600" class="st4" width="7.2" height="7.2"/>
	<rect x="496.4" y="592.8" class="st4" width="7.2" height="7.2"/>
	<rect x="496.4" y="585.6" class="st4" width="7.2" height="7.2"/>
	<rect x="496.4" y="578.5" class="st4" width="7.2" height="7.2"/>
	<rect x="496.4" y="571.3" class="st4" width="7.2" height="7.2"/>
	<rect x="496.4" y="564.1" class="st1" width="7.2" height="7.2"/>
	<rect x="496.4" y="556.9" class="st1" width="7.2" height="7.2"/>
	<rect x="496.4" y="549.8" class="st1" width="7.2" height="7.2"/>
	<rect x="496.4" y="542.6" class="st1" width="7.2" height="7.2"/>
	<rect x="496.4" y="535.4" class="st1" width="7.2" height="7.2"/>
	<rect x="496.4" y="528.2" class="st7" width="7.2" height="7.2"/>
	<rect x="496.4" y="521" class="st1" width="7.2" height="7.2"/>
	<rect x="489.2" y="671.8" class="st3" width="7.2" height="7.2"/>
	<rect x="489.2" y="664.6" class="st4" width="7.2" height="7.2"/>
	<rect x="489.2" y="657.4" class="st5" width="7.2" height="7.2"/>
	<rect x="489.2" y="650.2" class="st5" width="7.2" height="7.2"/>
	<rect x="489.2" y="643.1" class="st6" width="7.2" height="7.2"/>
	<rect x="489.2" y="635.9" class="st4" width="7.2" height="7.2"/>
	<rect x="489.2" y="628.7" class="st8" width="7.2" height="7.2"/>
	<rect x="489.2" y="621.5" class="st8" width="7.2" height="7.2"/>
	<rect x="489.2" y="614.4" class="st8" width="7.2" height="7.2"/>
	<rect x="489.2" y="607.2" class="st4" width="7.2" height="7.2"/>
	<rect x="489.2" y="600" class="st4" width="7.2" height="7.2"/>
	<rect x="489.2" y="592.8" class="st4" width="7.2" height="7.2"/>
	<rect x="489.2" y="585.6" class="st4" width="7.2" height="7.2"/>
	<rect x="489.2" y="578.5" class="st4" width="7.2" height="7.2"/>
	<rect x="489.2" y="571.3" class="st1" width="7.2" height="7.2"/>
	<rect x="489.2" y="564.1" class="st1" width="7.2" height="7.2"/>
	<rect x="489.2" y="556.9" class="st1" width="7.2" height="7.2"/>
	<rect x="489.2" y="549.8" class="st1" width="7.2" height="7.2"/>
	<rect x="489.2" y="542.6" class="st1" width="7.2" height="7.2"/>
	<rect x="489.2" y="535.4" class="st1" width="7.2" height="7.2"/>
	<rect x="489.2" y="528.2" class="st7" width="7.2" height="7.2"/>
	<rect x="489.2" y="521" class="st1" width="7.2" height="7.2"/>
	<rect x="482.1" y="671.8" class="st3" width="7.2" height="7.2"/>
	<rect x="482.1" y="664.6" class="st4" width="7.2" height="7.2"/>
	<rect x="482.1" y="657.4" class="st5" width="7.2" height="7.2"/>
	<rect x="482.1" y="650.2" class="st5" width="7.2" height="7.2"/>
	<rect x="482.1" y="643.1" class="st4" width="7.2" height="7.2"/>
	<rect x="482.1" y="635.9" class="st4" width="7.2" height="7.2"/>
	<rect x="482.1" y="628.7" class="st5" width="7.2" height="7.2"/>
	<rect x="482.1" y="621.5" class="st5" width="7.2" height="7.2"/>
	<rect x="482.1" y="614.4" class="st5" width="7.2" height="7.2"/>
	<rect x="482.1" y="607.2" class="st1" width="7.2" height="7.2"/>
	<rect x="482.1" y="600" class="st1" width="7.2" height="7.2"/>
	<rect x="482.1" y="592.8" class="st1" width="7.2" height="7.2"/>
	<rect x="482.1" y="585.6" class="st1" width="7.2" height="7.2"/>
	<rect x="482.1" y="578.5" class="st1" width="7.2" height="7.2"/>
	<rect x="482.1" y="571.3" class="st1" width="7.2" height="7.2"/>
	<rect x="482.1" y="564.1" class="st1" width="7.2" height="7.2"/>
	<rect x="482.1" y="556.9" class="st1" width="7.2" height="7.2"/>
	<rect x="482.1" y="549.8" class="st1" width="7.2" height="7.2"/>
	<rect x="482.1" y="542.6" class="st1" width="7.2" height="7.2"/>
	<rect x="482.1" y="535.4" class="st7" width="7.2" height="7.2"/>
	<rect x="482.1" y="528.2" class="st1" width="7.2" height="7.2"/>
	<rect x="482.1" y="521" class="st1" width="7.2" height="7.2"/>
	<rect x="474.9" y="671.8" class="st3" width="7.2" height="7.2"/>
	<rect x="474.9" y="664.6" class="st4" width="7.2" height="7.2"/>
	<rect x="474.9" y="657.4" class="st5" width="7.2" height="7.2"/>
	<rect x="474.9" y="650.2" class="st5" width="7.2" height="7.2"/>
	<rect x="474.9" y="643.1" class="st4" width="7.2" height="7.2"/>
	<rect x="474.9" y="635.9" class="st4" width="7.2" height="7.2"/>
	<rect x="474.9" y="628.7" class="st5" width="7.2" height="7.2"/>
	<rect x="474.9" y="621.5" class="st5" width="7.2" height="7.2"/>
	<rect x="474.9" y="614.4" class="st5" width="7.2" height="7.2"/>
	<rect x="474.9" y="607.2" class="st5" width="7.2" height="7.2"/>
	<rect x="474.9" y="600" class="st4" width="7.2" height="7.2"/>
	<rect x="474.9" y="592.8" class="st4" width="7.2" height="7.2"/>
	<rect x="474.9" y="585.6" class="st4" width="7.2" height="7.2"/>
	<rect x="474.9" y="578.5" class="st4" width="7.2" height="7.2"/>
	<rect x="474.9" y="571.3" class="st1" width="7.2" height="7.2"/>
	<rect x="474.9" y="564.1" class="st1" width="7.2" height="7.2"/>
	<rect x="474.9" y="556.9" class="st1" width="7.2" height="7.2"/>
	<rect x="474.9" y="549.8" class="st1" width="7.2" height="7.2"/>
	<rect x="474.9" y="542.6" class="st1" width="7.2" height="7.2"/>
	<rect x="474.9" y="535.4" class="st1" width="7.2" height="7.2"/>
	<rect x="474.9" y="528.2" class="st1" width="7.2" height="7.2"/>
	<rect x="474.9" y="521" class="st1" width="7.2" height="7.2"/>
	<rect x="467.7" y="657.4" class="st5" width="7.2" height="7.2"/>
	<rect x="467.7" y="650.2" class="st5" width="7.2" height="7.2"/>
	<rect x="467.7" y="643.1" class="st6" width="7.2" height="7.2"/>
	<rect x="467.7" y="635.9" class="st8" width="7.2" height="7.2"/>
	<rect x="467.7" y="628.7" class="st8" width="7.2" height="7.2"/>
	<rect x="467.7" y="621.5" class="st8" width="7.2" height="7.2"/>
	<rect x="467.7" y="614.4" class="st8" width="7.2" height="7.2"/>
	<rect x="467.7" y="607.2" class="st8" width="7.2" height="7.2"/>
	<rect x="467.7" y="600" class="st1" width="7.2" height="7.2"/>
	<rect x="467.7" y="592.8" class="st4" width="7.2" height="7.2"/>
	<rect x="467.7" y="585.6" class="st4" width="7.2" height="7.2"/>
	<rect x="467.7" y="578.5" class="st4" width="7.2" height="7.2"/>
	<rect x="467.7" y="571.3" class="st1" width="7.2" height="7.2"/>
	<rect x="467.7" y="564.1" class="st2" width="7.2" height="7.2"/>
	<rect x="467.7" y="556.9" class="st2" width="7.2" height="7.2"/>
	<rect x="467.7" y="549.8" class="st2" width="7.2" height="7.2"/>
	<rect x="467.7" y="542.6" class="st2" width="7.2" height="7.2"/>
	<rect x="467.7" y="535.4" class="st1" width="7.2" height="7.2"/>
	<rect x="467.7" y="528.2" class="st1" width="7.2" height="7.2"/>
	<rect x="460.5" y="635.9" class="st8" width="7.2" height="7.2"/>
	<rect x="460.5" y="628.7" class="st8" width="7.2" height="7.2"/>
	<rect x="460.5" y="621.5" class="st8" width="7.2" height="7.2"/>
	<rect x="460.5" y="614.4" class="st8" width="7.2" height="7.2"/>
	<rect x="460.5" y="607.2" class="st8" width="7.2" height="7.2"/>
	<rect x="460.5" y="600" class="st1" width="7.2" height="7.2"/>
	<rect x="460.5" y="592.8" class="st1" width="7.2" height="7.2"/>
	<rect x="460.5" y="585.6" class="st1" width="7.2" height="7.2"/>
	<rect x="460.5" y="578.5" class="st1" width="7.2" height="7.2"/>
	<rect x="460.5" y="571.3" class="st2" width="7.2" height="7.2"/>
	<rect x="460.5" y="564.1" class="st1" width="7.2" height="7.2"/>
	<rect x="460.5" y="556.9" class="st1" width="7.2" height="7.2"/>
	<rect x="460.5" y="549.8" class="st1" width="7.2" height="7.2"/>
	<rect x="460.5" y="542.6" class="st1" width="7.2" height="7.2"/>
	<rect x="460.5" y="535.4" class="st2" width="7.2" height="7.2"/>
	<rect x="453.3" y="635.9" class="st8" width="7.2" height="7.2"/>
	<rect x="453.3" y="628.7" class="st8" width="7.2" height="7.2"/>
	<rect x="453.3" y="564.1" class="st1" width="7.2" height="7.2"/>
	<rect x="453.3" y="556.9" class="st1" width="7.2" height="7.2"/>
	<rect x="453.3" y="549.8" class="st1" width="7.2" height="7.2"/>
	<rect x="453.3" y="542.6" class="st1" width="7.2" height="7.2"/>
	<rect x="446.2" y="556.9" class="st1" width="7.2" height="7.2"/>
	<rect x="446.2" y="549.8" class="st1" width="7.2" height="7.2"/>
	<rect x="446.2" y="542.6" class="st1" width="7.2" height="7.2"/>
	<rect x="439" y="556.9" class="st1" width="7.2" height="7.2"/>
	<rect x="439" y="549.8" class="st1" width="7.2" height="7.2"/>
	<rect x="431.8" y="571.3" class="st1" width="7.2" height="7.2"/>
	<rect x="431.8" y="564.1" class="st1" width="7.2" height="7.2"/>
</g>
</svg>
