<?xml version="1.0" encoding="utf-8"?>
<!-- Generator: Adobe Illustrator 19.2.0, SVG Export Plug-In . SVG Version: 6.00 Build 0)  -->
<svg version="1.1" id="Layer_1" xmlns="http://www.w3.org/2000/svg" xmlns:xlink="http://www.w3.org/1999/xlink" x="0px" y="0px"
	 viewBox="0 0 1000 1000" style="enable-background:new 0 0 1000 1000;" xml:space="preserve">
<style type="text/css">
	.st0{opacity:0.6;fill-rule:evenodd;clip-rule:evenodd;fill:#A8CCE9;}
	.st1{fill-rule:evenodd;clip-rule:evenodd;fill:none;}
	.st2{opacity:0.8;fill:#E94229;}
	.st3{opacity:0.6;fill:#E94229;}
	.st4{opacity:0.6;fill:#49AFE3;}
	.st5{opacity:0.8;fill:#884A9C;}
	.st6{opacity:0.8;fill:#8F9192;}
	.st7{opacity:0.8;fill:#FFD03F;}
	.st8{opacity:0.5;fill:#8F9192;}
	.st9{opacity:0.4;fill:#1B824D;}
	.st10{opacity:0.5;fill:#1B824D;}
	.st11{opacity:0.9;fill:#999999;}
	.st12{opacity:0.4;fill:#999999;}
	.st13{fill-rule:evenodd;clip-rule:evenodd;fill:#5D737A;}
	.st14{fill-rule:evenodd;clip-rule:evenodd;fill:#FFFFFF;}
	.st15{fill-rule:evenodd;clip-rule:evenodd;fill:#F0684E;}
	.st16{fill-rule:evenodd;clip-rule:evenodd;fill:#C7452B;}
	.st17{fill-rule:evenodd;clip-rule:evenodd;fill:#31464D;}
	.st18{fill-rule:evenodd;clip-rule:evenodd;fill:#8AA1A9;}
	.st19{fill-rule:evenodd;clip-rule:evenodd;fill:#B5E9E1;}
	.st20{fill-rule:evenodd;clip-rule:evenodd;fill:#FBC017;}
</style>
<path class="st0" d="M777.4,728.8h-8.1h0l-610.6,0c0,0-38.3-41.3-19.3-94.2c18.9-52.5,79.4-41.3,79.4-41.3l0,0c0,0-7-93.2,93.1-85
	c20,1.6,38,8.2,50.5,23.1c8.5-17.9,25.2-30.5,44.3-31.2c26.6-1,48.3,21.2,50.2,50.5c3.4-0.9,6.9-1.5,10.5-1.6
	c14.2-0.5,27.1,5.6,36.2,15.9c10.8-26.7,34.5-45.8,62-46.9c9.1-0.4,17.9,1.3,25.8,4.7c9.2-11.1,22.1-18.3,36.4-18.9
	c27.8-1.1,50.4,23.4,50.4,54.7c0,2-0.1,3.9-0.3,5.9c0.4,0,0.9-0.1,1.3-0.1c4.8-0.2,9.4,0.2,13.9,1.1c9.5-13.9,24.6-22.7,41.6-21.9
	c26.3,1.1,47.5,25.6,48,55.2c0.1,6.8-0.9,13.3-2.7,19.3c22.5,5.5,39.3,27.9,39.3,54.8c0,28-18.2,51.2-42.1,55.4L777.4,728.8z"/>
<rect x="159.2" y="306.6" class="st1" width="650.4" height="414.7"/>
<g>
	<path class="st2" d="M593,514h31.1c6.6,0,12,5.4,12,12v177c0,6.6-5.4,12-12,12H593c-6.6,0-12-5.4-12-12V526
		C581,519.4,586.4,514,593,514z"/>
	<path class="st3" d="M631.1,715.1h-43.7c-1.1,0-2-0.9-2-2V511.2c17.8-17.8,27.9-27.9,45.7-45.7h0c1.1,0,2,0.9,2,2v245.6
		C633.1,714.2,632.2,715.1,631.1,715.1z"/>
	<g>
		<polygon class="st4" points="574.3,715.1 500,715.1 500,379.4 574.3,378.1 		"/>
		<polygon class="st4" points="574.3,715.1 538.8,715.1 500,715.1 537.2,294.2 		"/>
	</g>
	<rect x="537.2" y="569" class="st5" width="50.1" height="146"/>
	<rect x="530.1" y="575.1" class="st5" width="64.1" height="139.9"/>
	<rect x="377.5" y="547.6" class="st6" width="60.3" height="167.4"/>
	<rect x="352.9" y="492.7" class="st7" width="33.5" height="222.5"/>
	<rect x="361.5" y="492.7" class="st7" width="33.5" height="222.5"/>
	<rect x="419.5" y="573.8" class="st8" width="72.6" height="141.2"/>
	<rect x="332.3" y="645.3" class="st9" width="54" height="69.8"/>
	<rect x="338.2" y="615.7" class="st10" width="42.3" height="99.4"/>
	<rect x="618.7" y="614.5" class="st11" width="48.8" height="100.5"/>
	<rect x="643.1" y="579.7" class="st12" width="48.8" height="135.3"/>
</g>
<path class="st13" d="M271.9,704.7h413.8c6.2,0,11.3,5.1,11.3,11.3v0c0,6.2-5.1,11.3-11.3,11.3H271.9V704.7z"/>
<g>
	<rect x="270.9" y="714.8" class="st14" width="8.4" height="1.3"/>
	<rect x="281.5" y="714.8" class="st14" width="8.4" height="1.3"/>
	<rect x="292.1" y="714.8" class="st14" width="8.4" height="1.3"/>
	<rect x="302.8" y="714.8" class="st14" width="8.4" height="1.3"/>
	<rect x="313.4" y="714.8" class="st14" width="8.4" height="1.3"/>
	<rect x="324" y="714.8" class="st14" width="8.4" height="1.3"/>
	<rect x="334.6" y="714.8" class="st14" width="8.4" height="1.3"/>
	<rect x="345.2" y="714.8" class="st14" width="8.4" height="1.3"/>
	<rect x="355.8" y="714.8" class="st14" width="8.4" height="1.3"/>
	<rect x="366.4" y="714.8" class="st14" width="8.4" height="1.3"/>
	<rect x="377" y="714.8" class="st14" width="8.4" height="1.3"/>
	<rect x="387.6" y="714.8" class="st14" width="8.4" height="1.3"/>
	<rect x="398.2" y="714.8" class="st14" width="8.4" height="1.3"/>
	<rect x="408.8" y="714.8" class="st14" width="8.4" height="1.3"/>
	<rect x="419.4" y="714.8" class="st14" width="8.4" height="1.3"/>
	<rect x="430" y="714.8" class="st14" width="8.4" height="1.3"/>
	<rect x="440.6" y="714.8" class="st14" width="8.4" height="1.3"/>
	<rect x="451.2" y="714.8" class="st14" width="8.4" height="1.3"/>
	<rect x="461.8" y="714.8" class="st14" width="8.4" height="1.3"/>
	<rect x="472.4" y="714.8" class="st14" width="8.4" height="1.3"/>
	<rect x="483" y="714.8" class="st14" width="8.4" height="1.3"/>
	<rect x="493.6" y="714.8" class="st14" width="8.4" height="1.3"/>
	<rect x="504.3" y="714.8" class="st14" width="8.4" height="1.3"/>
	<rect x="514.9" y="714.8" class="st14" width="8.4" height="1.3"/>
	<rect x="525.5" y="714.8" class="st14" width="8.4" height="1.3"/>
	<rect x="536.1" y="714.8" class="st14" width="8.4" height="1.3"/>
	<rect x="546.7" y="714.8" class="st14" width="8.4" height="1.3"/>
	<rect x="557.3" y="714.8" class="st14" width="8.4" height="1.3"/>
	<rect x="567.9" y="714.8" class="st14" width="8.4" height="1.3"/>
	<rect x="578.5" y="714.8" class="st14" width="8.4" height="1.3"/>
	<rect x="589.1" y="714.8" class="st14" width="8.4" height="1.3"/>
	<rect x="599.7" y="714.8" class="st14" width="8.4" height="1.3"/>
	<rect x="610.3" y="714.8" class="st14" width="8.4" height="1.3"/>
	<rect x="620.9" y="714.8" class="st14" width="8.4" height="1.3"/>
	<rect x="631.5" y="714.8" class="st14" width="8.4" height="1.3"/>
	<rect x="642.1" y="714.8" class="st14" width="8.4" height="1.3"/>
	<rect x="652.7" y="714.8" class="st14" width="8.4" height="1.3"/>
	<rect x="663.3" y="714.8" class="st14" width="8.4" height="1.3"/>
	<rect x="673.9" y="714.8" class="st14" width="8.4" height="1.3"/>
	<rect x="684.5" y="714.8" class="st14" width="8.4" height="1.3"/>
	<path class="st14" d="M695.1,714.8h0.8c0,0.2,0,0.4,0,0.7v0c0,0.2,0,0.5,0,0.7h-0.8V714.8z"/>
</g>
<g>
	<path class="st14" d="M270,706.3h419.5c0.6,0.4,1.3,0.8,1.8,1.3H270V706.3z"/>
	<path class="st14" d="M270,724.3h421.4c-0.6,0.5-1.2,1-1.8,1.3H270V724.3z"/>
</g>
<g>
	<path class="st15" d="M342.6,699.3h6.8c2.9,0,5.8,3.6,8.5,5.3c1.9,1.2,2.9,1.2,3.9,1.5c1.5,0.4,2.3,1.3,2.7,2
		c0.4,0.7,0.6,2.5,0.6,3.3c0,1-0.6,1.3-1.3,1.3l-29,0c-0.6,0-0.9-0.8-1-1.4c-0.1-1-0.2-2.8,0-3.7C334.5,704.4,337,699.3,342.6,699.3
		z"/>
	<path class="st16" d="M365.1,711.4c0-0.1,0-0.2,0-0.4l-31.3-0.4c0,0.3,0,0.6,0.1,0.8c0.1,0.6,0.4,1.4,1,1.4l29,0
		C364.4,712.8,365.1,712.4,365.1,711.4z"/>
	<path class="st16" d="M336.2,712.8c0-3,1.9-4.2,4.2-4.2c2.3,0,4.2,1.2,4.2,4.2L336.2,712.8z"/>
	<circle class="st17" cx="340.4" cy="712.8" r="3.3"/>
	<circle class="st18" cx="340.4" cy="712.8" r="2.2"/>
	<path class="st16" d="M353.8,712.8c0-3,1.9-4.2,4.2-4.2c2.3,0,4.2,1.2,4.2,4.2L353.8,712.8z"/>
	<circle class="st17" cx="358" cy="712.8" r="3.3"/>
	<circle class="st18" cx="358" cy="712.8" r="2.2"/>
	<path class="st19" d="M349.8,700.1c0,0,4,0.7,6.4,5.2l-6.4,0V700.1z"/>
	<rect x="342.3" y="700.1" class="st19" width="6.7" height="5.2"/>
	<path class="st19" d="M341.6,700.1v5.2c0,0-3.2,0-5.1,0C334.5,705.3,337.8,700.2,341.6,700.1z"/>
	<path class="st16" d="M350.3,706.2c0,0.1-0.1,0.3-0.3,0.3l-0.9,0c-0.1,0-0.3-0.1-0.3-0.3V706c0-0.1,0.1-0.3,0.3-0.3l0.9,0
		c0.1,0,0.3,0.1,0.3,0.3V706.2z"/>
	<path class="st16" d="M343.3,706.2c0,0.1-0.1,0.3-0.3,0.3l-0.9,0c-0.1,0-0.3-0.1-0.3-0.3V706c0-0.1,0.1-0.3,0.3-0.3l0.9,0
		c0.1,0,0.3,0.1,0.3,0.3L343.3,706.2z"/>
	<path class="st16" d="M356.9,705.5c0,0.2-0.2,0.3-0.4,0.3l-1.2-0.2c-0.2,0-0.3-0.2-0.3-0.4l0-0.2c0-0.2,0.2-0.3,0.4-0.3l1.2,0.2
		c0.2,0,0.3,0.2,0.3,0.4L356.9,705.5z"/>
	<path class="st20" d="M363.6,707c-0.4,0.3-0.7,0.7-0.7,1.3c0,0.8,0.6,1.5,1.4,1.5c0.2,0,0.4-0.1,0.6-0.2c-0.1-0.6-0.2-1.2-0.4-1.5
		C364.3,707.8,364,707.4,363.6,707z"/>
</g>
</svg>
