<?xml version="1.0" encoding="utf-8"?>
<!-- Generator: Adobe Illustrator 19.1.0, SVG Export Plug-In . SVG Version: 6.00 Build 0)  -->
<svg version="1.1" id="Layer_1" xmlns="http://www.w3.org/2000/svg" xmlns:xlink="http://www.w3.org/1999/xlink" x="0px" y="0px"
	 viewBox="0 0 700 400" style="enable-background:new 0 0 700 400;" xml:space="preserve">
<style type="text/css">
	.st0{opacity:0.5;fill:#456CB3;}
	.st1{font-family:'FranklinGothic-Medium';}
	.st2{font-size:62.3503px;}
	.st3{fill:#456CB3;}
	.st4{font-size:100.2068px;}
	.st5{opacity:0.5;}
	.st6{font-size:65.1289px;}
	.st7{font-size:37.8932px;}
	.st8{font-size:53.2873px;}
	.st9{fill:#BEDFF4;}
	.st10{fill:none;stroke:#466CB3;stroke-width:5;stroke-miterlimit:10;}
	.st11{fill:#466CB3;}
</style>
<text transform="matrix(1 0 0 1 228.3457 122.6196)" class="st0 st1 st2">HEY THERE</text>
<g>
	<text transform="matrix(1 0 0 1 224.9482 194.2795)" class="st3 st1 st4">I’M RICHIE</text>
</g>
<g class="st5">
	<text transform="matrix(1 0 0 1 228.3458 265.1729)" class="st3 st1 st6">I’M SWEET</text>
</g>
<g class="st5">
	<text transform="matrix(1 0 0 1 232.0401 293.093)" class="st3 st1 st7">AND ARTIFICIALLY</text>
</g>
<text transform="matrix(1 0 0 1 228.9483 331.5499)" class="st0 st1 st8">INTELLIGENT</text>
<ellipse class="st9" cx="148.5" cy="228.6" rx="5" ry="52.4"/>
<ellipse class="st9" cx="38.3" cy="226.5" rx="5" ry="52.2"/>
<g>
	<path class="st10" d="M147.5,285H38.3c0,0-37.6-154.6,57.5-154.8C182.7,130,147.5,285,147.5,285z"/>
	<path class="st10" d="M147.1,304.6H38.9c-0.3,0-0.6-0.3-0.6-0.6v-18.4c0-0.3,0.3-0.6,0.6-0.6h108.2c0.3,0,0.6,0.3,0.6,0.6V304
		C147.6,304.3,147.4,304.6,147.1,304.6z"/>
	<ellipse class="st10" cx="93" cy="192.9" rx="44.7" ry="35.5"/>
	<ellipse class="st10" cx="80.5" cy="188.8" rx="6.5" ry="6.3"/>
	<ellipse class="st10" cx="107" cy="188.8" rx="6.5" ry="6.3"/>
	<line class="st10" x1="97.4" y1="130.2" x2="97.4" y2="121"/>
	<rect x="52.9" y="304.6" class="st10" width="16.1" height="33.2"/>
	<path class="st10" d="M72.9,349.3H44.6c-0.7,0-1.3-0.6-1.3-1.3v-9c0-0.7,0.6-1.3,1.3-1.3h28.4c0.7,0,1.3,0.6,1.3,1.3v9
		C74.2,348.7,73.6,349.3,72.9,349.3z"/>
	<line class="st10" x1="55" y1="315.3" x2="69" y2="315.3"/>
	<line class="st10" x1="54.1" y1="326.3" x2="69" y2="326.3"/>
	<rect x="117.5" y="304.6" class="st10" width="16.1" height="33.2"/>
	<path class="st10" d="M142.2,349.3h-28.4c-0.7,0-1.3-0.6-1.3-1.3v-9c0-0.7,0.6-1.3,1.3-1.3h28.4c0.7,0,1.3,0.6,1.3,1.3v9
		C143.4,348.7,142.8,349.3,142.2,349.3z"/>
	<line class="st10" x1="119.6" y1="315.3" x2="133.6" y2="315.3"/>
	<line class="st10" x1="118.7" y1="326.3" x2="133.6" y2="326.3"/>
	<path class="st0" d="M86.9,116v4.9c3.6-0.6,7.5-0.8,11.6-0.8c5,0,9.1,0.4,11.2,0.7v-4.7c-3.9-1.4-7.8-2.1-11.7-2.1
		C92.5,114,88.5,115.4,86.9,116z"/>
	<path class="st11" d="M80,103.5c2.4,2.9,4.6,8.2,5.5,10.4c-0.2,0.1-0.4,0.2-0.4,0.2c-0.4,0.2-0.7,0.6-0.7,1.1v7.2
		c0,0.4,0.2,0.7,0.4,0.9c0.2,0.2,0.5,0.3,0.8,0.3c0.1,0,0.1,0,0.2,0c3.8-0.7,8.1-1,12.6-1c6.9,0,12.2,0.8,12.2,0.8
		c0.4,0.1,0.7,0,1-0.3c0.3-0.2,0.4-0.6,0.4-0.9v-7c0-0.5-0.3-1-0.8-1.2c-0.4-0.2-0.8-0.3-1.2-0.4c0.1-0.5,0.3-1.3,0.5-2.3
		c0.9-4.1,2.3-10.9,2.3-14V67.5c0-2.3-0.5-4.3-1.4-5.6c-0.9-1.3-2.2-2.1-3.6-2.1c-0.7,0-1.4,0.2-2,0.6c-0.2-0.8-0.5-1.6-1-2.2
		c-0.8-1-1.8-1.5-3.1-1.5c-0.8,0-1.6,0.3-2.3,0.7v-2.8c0-2.1-0.8-3.3-1.5-4c-0.9-0.9-2-1.3-3.3-1.3c-2.5,0-5.1,1.8-5.1,4.7v3.7
		c-0.7-0.4-1.5-0.6-2.2-0.6c-1.4,0-2.7,0.6-3.6,1.6c-0.7,0.8-1.6,2.2-1.6,4.5v25.6c-4.7-4.5-8.4-4.6-10.4-4.2
		c-2.1,0.4-3.8,1.8-4.3,3.5c-0.3,1.1-0.1,2.2,0.6,2.9C70.7,93.3,76.8,99.6,80,103.5z M109.7,120.8c-2.1-0.3-6.2-0.7-11.2-0.7
		c-4.1,0-8,0.3-11.6,0.8V116c1.5-0.6,5.6-2,11.1-2c3.9,0,7.9,0.7,11.7,2.1V120.8z M70.1,88.8c0.2-0.7,1-1.5,2.4-1.8
		c1.4-0.3,5.1-0.3,10.2,5.7c0.3,0.4,0.9,0.5,1.4,0.4c0.5-0.2,0.8-0.6,0.8-1.2V63.2c0-1.2,0.3-2.2,0.9-2.8c0.5-0.5,1.1-0.8,1.8-0.8
		c1.1,0,2.2,0.7,2.2,2.4v21.6c0,0.7,0.6,1.2,1.2,1.2c0.7,0,1.2-0.6,1.2-1.2V62v-8c0-1.4,1.4-2.2,2.6-2.2c0.4,0,1.1,0.1,1.6,0.6
		c0.5,0.5,0.7,1.3,0.7,2.3v28.8c0,0.7,0.6,1.2,1.2,1.2c0.7,0,1.2-0.6,1.2-1.2V62.5c0-0.3,0-0.5,0-0.7c0-1.6,1.3-2.6,2.3-2.6
		c0.4,0,0.8,0.2,1.1,0.6c0.3,0.4,0.7,1.2,0.7,2.7v1.3c0,0.6,0,1,0,1.7c0,0.3,0.1,0.4,0,0.8v17.4c0,0.7,0.6,1.2,1.2,1.2
		c0.7,0,1.2-0.6,1.2-1.2V64c0.3-1.1,1.1-1.7,1.8-1.7c0.6,0,1.1,0.4,1.5,1c0.4,0.7,1,2,1,4.3v29.8c0,2.9-1.5,9.8-2.3,13.5
		c-0.2,0.8-0.3,1.5-0.4,2c-3.2-0.9-6.5-1.4-9.8-1.4c-4.4,0-7.9,0.8-10.2,1.5c-0.9-2.4-3.3-8-6-11.2c-3.3-3.9-9.5-10.3-11.8-12.6
		C70,89.2,70.1,89,70.1,88.8z"/>
</g>
</svg>
