<?xml version="1.0" encoding="utf-8"?>
<!-- Generator: Adobe Illustrator 19.2.0, SVG Export Plug-In . SVG Version: 6.00 Build 0)  -->
<svg version="1.1" id="Layer_1" xmlns="http://www.w3.org/2000/svg" xmlns:xlink="http://www.w3.org/1999/xlink" x="0px" y="0px"
	 viewBox="0 0 900 500" style="enable-background:new 0 0 900 500;" xml:space="preserve">
<style type="text/css">
	.st0{opacity:0.5;}
	.st1{fill:#446DB2;}
	.st2{fill:#BDDFF4;}
	.st3{fill:none;stroke:#456CB2;stroke-width:5;stroke-miterlimit:10;}
	.st4{fill:#FFFFFF;stroke:#456CB2;stroke-width:5;stroke-miterlimit:10;}
	.st5{opacity:0.5;fill:#446DB2;}
	.st6{fill:#456CB2;}
</style>
<g class="st0">
	<path class="st1" d="M763.2,189.7l5.7,21.4h-4.5l-1-4.5h-5.7l-1,4.5h-4.5l5.7-21.4H763.2z M762.6,203l-2.1-9.6h-0.1l-2.1,9.6H762.6
		z"/>
	<path class="st1" d="M780.5,204.4L780.5,204.4l0.1-14.7h4v21.4h-4.9l-5.3-15h-0.1v15h-4v-21.4h5L780.5,204.4z"/>
	<path class="st1" d="M794.8,189.7c1.5,0,2.7,0.2,3.6,0.7c0.9,0.5,1.6,1.2,2.1,2.1c0.5,0.9,0.9,2,1,3.3c0.2,1.3,0.3,2.7,0.3,4.3
		c0,1.9-0.1,3.5-0.3,4.9c-0.2,1.4-0.6,2.5-1.2,3.4s-1.3,1.6-2.2,2c-0.9,0.4-2.1,0.7-3.6,0.7h-6.8v-21.4H794.8z M794,207.9
		c0.8,0,1.4-0.1,1.8-0.4c0.5-0.3,0.8-0.7,1.1-1.3s0.5-1.4,0.5-2.4c0.1-1,0.1-2.2,0.1-3.7c0-1.2,0-2.3-0.1-3.2
		c-0.1-0.9-0.2-1.7-0.5-2.3c-0.2-0.6-0.6-1.1-1.1-1.4c-0.5-0.3-1.1-0.5-2-0.5h-1.8v15.1H794z"/>
</g>
<g>
	<g>
		<path class="st1" d="M545.3,151.2c-0.2-0.9-0.5-1.7-0.9-2.5c-0.4-0.8-1-1.4-1.7-1.9c-0.7-0.5-1.5-0.7-2.4-0.7
			c-2.3,0-3.9,1.3-4.9,3.8c-1,2.5-1.5,6.7-1.5,12.5c0,2.8,0.1,5.3,0.3,7.5c0.2,2.3,0.5,4.2,0.9,5.8c0.5,1.6,1.1,2.8,2,3.6
			c0.8,0.8,1.9,1.3,3.3,1.3c0.6,0,1.2-0.2,1.9-0.5c0.7-0.3,1.3-0.8,1.9-1.4c0.6-0.6,1.1-1.4,1.5-2.3c0.4-0.9,0.6-2,0.6-3.3v-4.7
			h-6.2v-6.9h15.1v25h-6.9v-4.3H548c-1.1,1.8-2.5,3.1-4.1,3.9c-1.6,0.8-3.5,1.1-5.7,1.1c-2.9,0-5.2-0.5-7-1.5
			c-1.8-1-3.2-2.5-4.2-4.6c-1-2.1-1.7-4.6-2-7.7s-0.5-6.6-0.5-10.6c0-3.9,0.2-7.3,0.7-10.3c0.5-2.9,1.4-5.4,2.6-7.4s2.8-3.5,4.8-4.5
			c2-1,4.5-1.5,7.5-1.5c5.1,0,8.8,1.3,11.1,3.8c2.3,2.5,3.4,6.2,3.4,10.9h-9C545.6,153,545.5,152.1,545.3,151.2z"/>
		<path class="st1" d="M587,147.7h-16.6v10.9h15.6v7.7h-15.6v12.5h17.2v7.7h-26.6v-46.4H587V147.7z"/>
		<path class="st1" d="M619.5,147.7h-10.1v38.7H600v-38.7h-10.1v-7.7h29.6V147.7z"/>
		<path class="st1" d="M665.1,140.1v7.7h-16.6v10.9h15.6v7.7h-15.6v20.2h-9.4v-46.4H665.1z"/>
		<path class="st1" d="M686.4,140.1l12.3,46.4h-9.8l-2.1-9.8h-12.4l-2.1,9.8h-9.8l12.3-46.4H686.4z M685.1,169l-4.5-20.9h-0.1
			L676,169H685.1z"/>
		<path class="st1" d="M724,171.8h0.1v-31.8h8.6v46.4H722L710.6,154h-0.1v32.5h-8.6v-46.4h10.8L724,171.8z"/>
		<path class="st1" d="M757.8,148.3c-0.8-1.5-2.3-2.3-4.4-2.3c-1.2,0-2.1,0.3-2.9,0.9c-0.8,0.6-1.4,1.6-1.8,3.1
			c-0.4,1.4-0.7,3.2-0.9,5.5c-0.2,2.3-0.3,5.1-0.3,8.4c0,3.5,0.1,6.3,0.4,8.5c0.2,2.2,0.6,3.8,1.1,5c0.5,1.2,1.1,2,1.9,2.4
			c0.8,0.4,1.6,0.6,2.6,0.6c0.8,0,1.6-0.1,2.3-0.4c0.7-0.3,1.3-0.8,1.9-1.7c0.5-0.8,0.9-2,1.2-3.6c0.3-1.5,0.5-3.6,0.5-6.1h9.4
			c0,2.5-0.2,4.9-0.6,7.2c-0.4,2.3-1.1,4.2-2.2,5.9c-1.1,1.7-2.6,3-4.5,4c-1.9,1-4.4,1.4-7.5,1.4c-3.5,0-6.3-0.6-8.4-1.7
			c-2.1-1.1-3.7-2.8-4.8-4.9c-1.1-2.1-1.8-4.7-2.1-7.6c-0.3-2.9-0.5-6.2-0.5-9.8c0-3.5,0.2-6.7,0.5-9.7c0.3-3,1-5.5,2.1-7.6
			c1.1-2.1,2.7-3.8,4.8-5c2.1-1.2,4.9-1.8,8.4-1.8c3.3,0,6,0.5,7.9,1.6c1.9,1.1,3.4,2.5,4.3,4.1c1,1.7,1.5,3.5,1.8,5.4
			c0.2,1.9,0.4,3.7,0.4,5.4H759C759,152.3,758.6,149.9,757.8,148.3z"/>
		<path class="st1" d="M787.7,158h0.1l6.5-17.9h10.1l-12,28.1v18.3h-9.4v-18.3l-12-28.1h10.5L787.7,158z"/>
	</g>
</g>
<g>
	<g>
		<path class="st1" d="M305.5,250.2h19v94.2h-19V250.2z"/>
		<path class="st1" d="M383.6,314.7h0.3v-64.5h17.4v94.2h-21.6l-23.2-66h-0.3v66h-17.4v-94.2h21.9L383.6,314.7z"/>
		<path class="st1" d="M441.9,319.9h0.4l14-69.7H476l-21.6,94.2h-24.4l-21.6-94.2h20.3L441.9,319.9z"/>
		<path class="st1" d="M535.6,265.8H502v22.2h31.7v15.6H502v25.3h35v15.6h-54v-94.2h52.7V265.8z"/>
		<path class="st1" d="M561.8,317.8c0,2.2,0.2,4.2,0.5,6c0.4,1.8,1,3.3,2,4.6c1,1.2,2.3,2.2,3.9,2.9c1.6,0.7,3.7,1.1,6.1,1.1
			c2.9,0,5.5-0.9,7.9-2.8c2.3-1.9,3.5-4.8,3.5-8.8c0-2.1-0.3-3.9-0.9-5.5c-0.6-1.5-1.5-2.9-2.8-4.2c-1.3-1.2-3.1-2.4-5.2-3.4
			c-2.2-1-4.8-2-8-3.1c-4.2-1.4-7.9-2.9-11-4.6c-3.1-1.7-5.7-3.6-7.7-5.9c-2.1-2.2-3.6-4.8-4.6-7.8c-1-2.9-1.5-6.4-1.5-10.2
			c0-9.3,2.6-16.3,7.8-20.9c5.2-4.6,12.3-6.9,21.4-6.9c4.2,0,8.1,0.5,11.7,1.4c3.6,0.9,6.6,2.4,9.2,4.5c2.6,2.1,4.6,4.7,6.1,7.9
			c1.5,3.2,2.2,7.1,2.2,11.5v2.6h-18.2c0-4.5-0.8-7.9-2.4-10.4c-1.6-2.4-4.2-3.6-7.9-3.6c-2.1,0-3.9,0.3-5.3,0.9
			c-1.4,0.6-2.5,1.4-3.4,2.4c-0.8,1-1.4,2.2-1.7,3.5c-0.3,1.3-0.5,2.7-0.5,4.1c0,2.9,0.6,5.3,1.8,7.3c1.2,2,3.9,3.8,7.9,5.5
			l14.7,6.3c3.6,1.6,6.6,3.2,8.8,5c2.3,1.7,4.1,3.6,5.5,5.5c1.4,2,2.3,4.2,2.8,6.5c0.5,2.4,0.8,5,0.8,7.9c0,9.9-2.9,17.2-8.6,21.7
			c-5.8,4.5-13.8,6.8-24.1,6.8c-10.7,0-18.4-2.3-23-7c-4.6-4.7-6.9-11.4-6.9-20.1V315h19V317.8z"/>
		<path class="st1" d="M670.1,265.8h-20.6v78.7h-19v-78.7h-20.6v-15.6h60.2V265.8z"/>
		<path class="st1" d="M710.9,250.2h19v94.2h-19V250.2z"/>
		<path class="st1" d="M788.9,314.7h0.3v-64.5h17.4v94.2H785l-23.2-66h-0.3v66H744v-94.2H766L788.9,314.7z"/>
	</g>
</g>
<g class="st0">
	<path class="st1" d="M311.3,370.2h0.1l4.2-21.1h6l-6.6,28.6h-7.4l-6.6-28.6h6.2L311.3,370.2z"/>
	<path class="st1" d="M324,349.1h5.8v28.6H324V349.1z"/>
	<path class="st1" d="M344.7,349.1c2.4,0,4.3,0.6,5.6,1.8c1.3,1.2,2,3.1,2,5.5c0,1.9-0.4,3.5-1.2,4.7c-0.8,1.2-2,2-3.6,2.3v0.1
		c1.4,0.2,2.5,0.7,3.2,1.4c0.7,0.7,1.1,1.9,1.2,3.5c0.1,0.5,0.1,1.1,0.1,1.7c0,0.6,0.1,1.3,0.1,2.1c0.1,1.5,0.1,2.7,0.2,3.5
		c0.2,0.8,0.5,1.3,1,1.6v0.2h-6.2c-0.3-0.4-0.5-0.9-0.6-1.4c-0.1-0.5-0.1-1.1-0.2-1.6l-0.2-5.5c-0.1-1.1-0.3-2-0.8-2.6
		c-0.5-0.6-1.4-1-2.6-1h-3.1v12.1h-5.8v-28.6H344.7z M342.2,361.5c1.4,0,2.5-0.3,3.2-1c0.7-0.7,1.1-1.8,1.1-3.3c0-2.6-1.3-4-4-4
		h-2.7v8.2H342.2z"/>
	<path class="st1" d="M372.3,353.8h-6.2v23.8h-5.8v-23.8h-6.2v-4.7h18.2V353.8z"/>
	<path class="st1" d="M380.2,369c0,0.7,0,1.4,0.1,2c0.1,0.6,0.3,1.1,0.5,1.6c0.3,0.4,0.6,0.8,1,1c0.4,0.3,1,0.4,1.7,0.4
		c0.7,0,1.3-0.1,1.7-0.4c0.4-0.3,0.8-0.6,1-1c0.3-0.4,0.4-1,0.5-1.6c0.1-0.6,0.1-1.3,0.1-2v-19.9h5.8V369c0,1.8-0.3,3.3-0.8,4.5
		c-0.5,1.2-1.2,2.1-2,2.8c-0.9,0.7-1.8,1.2-2.9,1.4c-1.1,0.2-2.2,0.4-3.4,0.4s-2.3-0.1-3.4-0.3c-1.1-0.2-2.1-0.6-2.9-1.3
		c-0.9-0.7-1.5-1.6-2-2.8c-0.5-1.2-0.8-2.8-0.8-4.7v-19.9h5.8V369z"/>
	<path class="st1" d="M409,349.1l7.6,28.6h-6l-1.3-6h-7.6l-1.3,6h-6l7.6-28.6H409z M408.2,366.9l-2.8-12.8h-0.1l-2.8,12.8H408.2z"/>
	<path class="st1" d="M418.6,349.1h5.8v23.8h10.2v4.7h-16V349.1z"/>
	<path class="st1" d="M457.9,349.1l7.6,28.6h-6l-1.3-6h-7.6l-1.3,6h-6l7.6-28.6H457.9z M457.1,366.9l-2.8-12.8h-0.1l-2.8,12.8H457.1
		z"/>
	<path class="st1" d="M481,368.6L481,368.6l0.1-19.6h5.3v28.6h-6.6l-7-20h-0.1v20h-5.3v-28.6h6.6L481,368.6z"/>
	<path class="st1" d="M500.1,349.1c2,0,3.6,0.3,4.8,1c1.2,0.7,2.2,1.6,2.9,2.8c0.7,1.2,1.1,2.7,1.4,4.4c0.2,1.7,0.4,3.6,0.4,5.7
		c0,2.5-0.2,4.7-0.5,6.5c-0.3,1.9-0.8,3.4-1.6,4.6c-0.7,1.2-1.7,2.1-3,2.7c-1.3,0.6-2.8,0.9-4.8,0.9h-9.1v-28.6H500.1z M499,373.4
		c1,0,1.8-0.2,2.4-0.5c0.6-0.3,1.1-0.9,1.5-1.7c0.4-0.8,0.6-1.9,0.7-3.2s0.2-2.9,0.2-4.9c0-1.6-0.1-3.1-0.2-4.3
		c-0.1-1.2-0.3-2.2-0.7-3.1c-0.3-0.8-0.8-1.4-1.5-1.8c-0.7-0.4-1.5-0.6-2.6-0.6h-2.4v20.1H499z"/>
	<path class="st1" d="M533.6,349.1c2.4,0,4.3,0.6,5.6,1.8c1.3,1.2,2,3.1,2,5.5c0,1.9-0.4,3.5-1.2,4.7c-0.8,1.2-2,2-3.6,2.3v0.1
		c1.4,0.2,2.5,0.7,3.2,1.4c0.7,0.7,1.1,1.9,1.2,3.5c0.1,0.5,0.1,1.1,0.1,1.7c0,0.6,0.1,1.3,0.1,2.1c0.1,1.5,0.1,2.7,0.2,3.5
		c0.2,0.8,0.5,1.3,1,1.6v0.2h-6.2c-0.3-0.4-0.5-0.9-0.6-1.4c-0.1-0.5-0.1-1.1-0.2-1.6l-0.2-5.5c-0.1-1.1-0.3-2-0.8-2.6
		c-0.5-0.6-1.4-1-2.6-1h-3.1v12.1H523v-28.6H533.6z M531.1,361.5c1.4,0,2.5-0.3,3.2-1c0.7-0.7,1.1-1.8,1.1-3.3c0-2.6-1.3-4-4-4h-2.7
		v8.2H531.1z"/>
	<path class="st1" d="M561.2,353.8H551v6.7h9.6v4.7H551v7.7h10.6v4.7h-16.4v-28.6h16V353.8z"/>
	<path class="st1" d="M577.1,349.1l7.6,28.6h-6l-1.3-6h-7.6l-1.3,6h-6l7.6-28.6H577.1z M576.4,366.9l-2.8-12.8h-0.1l-2.8,12.8H576.4
		z"/>
	<path class="st1" d="M586.7,349.1h5.8v23.8h10.2v4.7h-16V349.1z"/>
	<path class="st1" d="M624.9,349.1c1.5,0,2.7,0.2,3.7,0.7c1,0.5,1.8,1.1,2.4,1.9c0.6,0.8,1.1,1.7,1.3,2.7s0.4,2.1,0.4,3.1
		c0,1.5-0.2,2.7-0.7,3.8c-0.4,1.1-1.1,2-1.8,2.7c-0.8,0.7-1.7,1.2-2.9,1.6c-1.1,0.3-2.4,0.5-3.7,0.5h-3.1v11.4h-5.8v-28.6H624.9z
		 M623.1,362c1.1,0,2.1-0.3,2.8-1c0.7-0.7,1.1-1.8,1.1-3.2c0-1.4-0.3-2.5-0.9-3.3c-0.6-0.7-1.6-1.1-3.1-1.1h-2.4v8.7H623.1z"/>
	<path class="st1" d="M635.3,357.4c0.2-1.8,0.6-3.4,1.3-4.7c0.7-1.3,1.7-2.3,2.9-3.1s3-1.1,5.2-1.1s3.9,0.4,5.2,1.1
		c1.3,0.7,2.3,1.8,2.9,3.1c0.7,1.3,1.1,2.9,1.3,4.7s0.3,3.8,0.3,6c0,2.2-0.1,4.2-0.3,6c-0.2,1.8-0.6,3.4-1.3,4.7
		c-0.7,1.3-1.7,2.3-2.9,3c-1.3,0.7-3,1-5.2,1s-3.9-0.3-5.2-1c-1.3-0.7-2.3-1.7-2.9-3c-0.7-1.3-1.1-2.9-1.3-4.7
		c-0.2-1.8-0.3-3.8-0.3-6C635,361.2,635.1,359.2,635.3,357.4z M640.9,368.2c0.1,1.3,0.3,2.4,0.6,3.3c0.3,0.8,0.7,1.5,1.2,1.8
		c0.5,0.4,1.2,0.6,2.1,0.6c0.9,0,1.5-0.2,2.1-0.6c0.5-0.4,0.9-1,1.2-1.8c0.3-0.8,0.5-1.9,0.6-3.3c0.1-1.3,0.1-3,0.1-4.9
		s0-3.5-0.1-4.9c-0.1-1.3-0.3-2.4-0.6-3.3c-0.3-0.9-0.7-1.5-1.2-1.9c-0.5-0.4-1.2-0.6-2.1-0.6c-0.9,0-1.5,0.2-2.1,0.6
		c-0.5,0.4-0.9,1-1.2,1.9c-0.3,0.9-0.5,1.9-0.6,3.3c-0.1,1.3-0.1,3-0.1,4.9S640.8,366.9,640.9,368.2z"/>
	<path class="st1" d="M668.4,349.1c2.4,0,4.3,0.6,5.6,1.8c1.3,1.2,2,3.1,2,5.5c0,1.9-0.4,3.5-1.2,4.7c-0.8,1.2-2,2-3.6,2.3v0.1
		c1.4,0.2,2.5,0.7,3.2,1.4c0.7,0.7,1.1,1.9,1.2,3.5c0.1,0.5,0.1,1.1,0.1,1.7c0,0.6,0.1,1.3,0.1,2.1c0.1,1.5,0.1,2.7,0.2,3.5
		c0.2,0.8,0.5,1.3,1,1.6v0.2h-6.2c-0.3-0.4-0.5-0.9-0.6-1.4c-0.1-0.5-0.1-1.1-0.2-1.6l-0.2-5.5c-0.1-1.1-0.3-2-0.8-2.6
		c-0.5-0.6-1.4-1-2.6-1h-3.1v12.1h-5.8v-28.6H668.4z M666,361.5c1.4,0,2.5-0.3,3.2-1c0.7-0.7,1.1-1.8,1.1-3.3c0-2.6-1.3-4-4-4h-2.7
		v8.2H666z"/>
	<path class="st1" d="M696,353.8h-6.2v23.8H684v-23.8h-6.2v-4.7H696V353.8z"/>
	<path class="st1" d="M714.5,349.1v4.7h-10.2v6.7h9.6v4.7h-9.6v12.4h-5.8v-28.6H714.5z"/>
	<path class="st1" d="M716.7,357.4c0.2-1.8,0.6-3.4,1.3-4.7c0.7-1.3,1.7-2.3,2.9-3.1s3-1.1,5.2-1.1s3.9,0.4,5.2,1.1
		c1.3,0.7,2.3,1.8,2.9,3.1c0.7,1.3,1.1,2.9,1.3,4.7s0.3,3.8,0.3,6c0,2.2-0.1,4.2-0.3,6c-0.2,1.8-0.6,3.4-1.3,4.7
		c-0.7,1.3-1.7,2.3-2.9,3c-1.3,0.7-3,1-5.2,1s-3.9-0.3-5.2-1c-1.3-0.7-2.3-1.7-2.9-3c-0.7-1.3-1.1-2.9-1.3-4.7
		c-0.2-1.8-0.3-3.8-0.3-6C716.4,361.2,716.5,359.2,716.7,357.4z M722.3,368.2c0.1,1.3,0.3,2.4,0.6,3.3c0.3,0.8,0.7,1.5,1.2,1.8
		c0.5,0.4,1.2,0.6,2.1,0.6c0.9,0,1.5-0.2,2.1-0.6c0.5-0.4,0.9-1,1.2-1.8c0.3-0.8,0.5-1.9,0.6-3.3c0.1-1.3,0.1-3,0.1-4.9
		s0-3.5-0.1-4.9c-0.1-1.3-0.3-2.4-0.6-3.3c-0.3-0.9-0.7-1.5-1.2-1.9c-0.5-0.4-1.2-0.6-2.1-0.6c-0.9,0-1.5,0.2-2.1,0.6
		c-0.5,0.4-0.9,1-1.2,1.9c-0.3,0.9-0.5,1.9-0.6,3.3c-0.1,1.3-0.1,3-0.1,4.9S722.3,366.9,722.3,368.2z"/>
	<path class="st1" d="M739.3,349.1h5.8v23.8h10.2v4.7h-16V349.1z"/>
	<path class="st1" d="M758.1,349.1h5.8v28.6h-5.8V349.1z"/>
	<path class="st1" d="M767.8,357.4c0.2-1.8,0.6-3.4,1.3-4.7c0.7-1.3,1.7-2.3,2.9-3.1s3-1.1,5.2-1.1s3.9,0.4,5.2,1.1
		c1.3,0.7,2.3,1.8,2.9,3.1c0.7,1.3,1.1,2.9,1.3,4.7s0.3,3.8,0.3,6c0,2.2-0.1,4.2-0.3,6c-0.2,1.8-0.6,3.4-1.3,4.7
		c-0.7,1.3-1.7,2.3-2.9,3c-1.3,0.7-3,1-5.2,1s-3.9-0.3-5.2-1c-1.3-0.7-2.3-1.7-2.9-3c-0.7-1.3-1.1-2.9-1.3-4.7
		c-0.2-1.8-0.3-3.8-0.3-6C767.5,361.2,767.6,359.2,767.8,357.4z M773.4,368.2c0.1,1.3,0.3,2.4,0.6,3.3c0.3,0.8,0.7,1.5,1.2,1.8
		c0.5,0.4,1.2,0.6,2.1,0.6c0.9,0,1.5-0.2,2.1-0.6c0.5-0.4,0.9-1,1.2-1.8c0.3-0.8,0.5-1.9,0.6-3.3c0.1-1.3,0.1-3,0.1-4.9
		s0-3.5-0.1-4.9c-0.1-1.3-0.3-2.4-0.6-3.3c-0.3-0.9-0.7-1.5-1.2-1.9c-0.5-0.4-1.2-0.6-2.1-0.6c-0.9,0-1.5,0.2-2.1,0.6
		c-0.5,0.4-0.9,1-1.2,1.9c-0.3,0.9-0.5,1.9-0.6,3.3c-0.1,1.3-0.1,3-0.1,4.9S773.3,366.9,773.4,368.2z"/>
	<path class="st1" d="M795,369.5c0,0.7,0.1,1.3,0.2,1.8s0.3,1,0.6,1.4c0.3,0.4,0.7,0.7,1.2,0.9c0.5,0.2,1.1,0.3,1.9,0.3
		c0.9,0,1.7-0.3,2.4-0.9c0.7-0.6,1.1-1.5,1.1-2.7c0-0.6-0.1-1.2-0.3-1.7c-0.2-0.5-0.5-0.9-0.9-1.3c-0.4-0.4-0.9-0.7-1.6-1
		s-1.5-0.6-2.4-0.9c-1.3-0.4-2.4-0.9-3.3-1.4c-0.9-0.5-1.7-1.1-2.3-1.8c-0.6-0.7-1.1-1.5-1.4-2.4c-0.3-0.9-0.4-1.9-0.4-3.1
		c0-2.8,0.8-4.9,2.4-6.3c1.6-1.4,3.7-2.1,6.5-2.1c1.3,0,2.5,0.1,3.5,0.4s2,0.7,2.8,1.4c0.8,0.6,1.4,1.4,1.8,2.4
		c0.4,1,0.7,2.1,0.7,3.5v0.8h-5.5c0-1.4-0.2-2.4-0.7-3.1c-0.5-0.7-1.3-1.1-2.4-1.1c-0.6,0-1.2,0.1-1.6,0.3s-0.8,0.4-1,0.7
		c-0.3,0.3-0.4,0.7-0.5,1.1c-0.1,0.4-0.1,0.8-0.1,1.2c0,0.9,0.2,1.6,0.6,2.2c0.4,0.6,1.2,1.2,2.4,1.7l4.4,1.9c1.1,0.5,2,1,2.7,1.5
		c0.7,0.5,1.2,1.1,1.7,1.7c0.4,0.6,0.7,1.3,0.9,2c0.2,0.7,0.2,1.5,0.2,2.4c0,3-0.9,5.2-2.6,6.6c-1.7,1.4-4.2,2.1-7.3,2.1
		c-3.3,0-5.6-0.7-7-2.1c-1.4-1.4-2.1-3.4-2.1-6.1v-1.2h5.8V369.5z"/>
</g>
<g class="st0">
	<g>
		<path class="st1" d="M646.1,118.1h-4.7v17.9h-4.3v-17.9h-4.7v-3.5h13.7V118.1z"/>
		<path class="st1" d="M652.3,114.5v8.2h5v-8.2h4.3v21.4h-4.3v-9.5h-5v9.5H648v-21.4H652.3z"/>
		<path class="st1" d="M676.7,118.1H669v5h7.2v3.5H669v5.8h8v3.5h-12.3v-21.4h12V118.1z"/>
		<path class="st1" d="M689.3,129.2L689.3,129.2l0.1-14.7h4v21.4h-4.9l-5.3-15h-0.1v15h-4v-21.4h5L689.3,129.2z"/>
		<path class="st1" d="M705.3,114.5l2.4,15.8h0.1l2.5-15.8h4.1l2.5,15.8h0.1l2.4-15.8h4.1l-3.9,21.4h-4.8l-2.4-15.5h-0.1l-2.4,15.5
			h-4.8l-3.9-21.4H705.3z"/>
		<path class="st1" d="M737.2,118.1h-7.7v5h7.2v3.5h-7.2v5.8h8v3.5h-12.3v-21.4h12V118.1z"/>
		<path class="st1" d="M748.6,114.5l2.4,15.8h0.1l2.5-15.8h4.1l2.5,15.8h0.1l2.4-15.8h4.1l-3.9,21.4h-4.8l-2.4-15.5h-0.1l-2.4,15.5
			h-4.8l-3.9-21.4H748.6z"/>
		<path class="st1" d="M768.8,114.5h4.3v21.4h-4.3V114.5z"/>
		<path class="st1" d="M776.3,114.5h4.3v17.9h7.6v3.5h-12V114.5z"/>
		<path class="st1" d="M790.2,114.5h4.3v17.9h7.6v3.5h-12V114.5z"/>
	</g>
</g>
<ellipse class="st2" cx="257.2" cy="336.3" rx="7.5" ry="78.6"/>
<ellipse class="st2" cx="90.9" cy="333.1" rx="7.5" ry="78.3"/>
<path class="st3" d="M255.7,420.9H91.9c0,0-56.4-232,86.3-232.2C308.5,188.4,255.7,420.9,255.7,420.9z"/>
<ellipse class="st4" cx="173.9" cy="282.7" rx="67" ry="53.2"/>
<ellipse class="st3" cx="155.2" cy="276.5" rx="9.8" ry="9.5"/>
<ellipse class="st3" cx="194.9" cy="276.5" rx="9.8" ry="9.5"/>
<line class="st3" x1="180.5" y1="188.7" x2="180.5" y2="174.8"/>
<path class="st5" d="M164.8,167.4v7.4c5.4-0.8,11.2-1.3,17.4-1.3c7.6,0,13.7,0.6,16.8,1v-7.1c-5.8-2.1-11.7-3.1-17.6-3.1
	C173.2,164.4,167.1,166.5,164.8,167.4z"/>
<path class="st6" d="M154.5,148.6c3.6,4.3,7,12.2,8.3,15.7c-0.4,0.2-0.6,0.3-0.6,0.3c-0.6,0.3-1,1-1,1.6V177c0,0.5,0.2,1.1,0.7,1.4
	c0.3,0.3,0.8,0.4,1.2,0.4c0.1,0,0.2,0,0.3,0c5.7-1,12.1-1.6,18.9-1.6c10.4,0,18.3,1.2,18.4,1.3c0.5,0.1,1.1-0.1,1.5-0.4
	c0.4-0.4,0.7-0.9,0.7-1.4v-10.5c0-0.8-0.5-1.5-1.2-1.7c-0.6-0.2-1.2-0.4-1.8-0.7c0.2-0.8,0.4-2,0.7-3.4c1.3-6.1,3.5-16.3,3.5-21
	V94.7c0-3.5-0.7-6.4-2.1-8.5c-1.3-2-3.3-3.2-5.4-3.2c-1,0-2.1,0.3-3,0.9c-0.3-1.3-0.8-2.4-1.5-3.2c-1.1-1.5-2.8-2.3-4.6-2.3
	c-1.2,0-2.4,0.4-3.5,1.1v-4.2c0-3.2-1.2-5-2.2-6c-1.3-1.3-3-2-5-2c-3.7,0-7.7,2.7-7.7,7.1v5.6c-1-0.6-2.2-0.8-3.3-0.8
	c-2.1,0-4,0.8-5.4,2.4c-1.1,1.2-2.4,3.3-2.4,6.8v38.5c-7-6.8-12.7-6.9-15.6-6.3c-3.1,0.6-5.6,2.7-6.4,5.2c-0.5,1.7-0.1,3.2,1,4.3
	C140.4,133.3,149.6,142.8,154.5,148.6z M199.1,174.6c-3.1-0.4-9.2-1-16.8-1c-6.2,0-12,0.4-17.4,1.3v-7.4c2.3-0.9,8.3-3.1,16.7-3.1
	c5.9,0,11.8,1.1,17.6,3.1V174.6z M139.6,126.6c0.3-1,1.6-2.2,3.6-2.7c2.1-0.4,7.7-0.4,15.3,8.6c0.5,0.6,1.3,0.8,2,0.5
	c0.7-0.3,1.2-1,1.2-1.7V88.2c0-1.8,0.5-3.3,1.4-4.3c0.7-0.8,1.7-1.2,2.7-1.2c1.7,0,3.3,1.1,3.3,3.6v32.4c0,1,0.8,1.9,1.9,1.9
	s1.9-0.8,1.9-1.9V86.3v-12c0-2.1,2.1-3.4,4-3.4c0.7,0,1.6,0.2,2.3,0.9c0.7,0.7,1.1,1.9,1.1,3.4v43.2c0,1,0.8,1.9,1.9,1.9
	c1,0,1.9-0.8,1.9-1.9V87.1c0-0.4,0-0.7,0-1.1c0-2.4,1.9-3.9,3.5-3.9c0.7,0,1.2,0.3,1.7,0.9c0.5,0.6,1,1.8,1,4v1.9
	c-0.1,0.9,0,1.5,0,2.5c0,0.4,0.1,0.7,0,1.2v26.1c0,1,0.8,1.9,1.9,1.9c1,0,1.9-0.8,1.9-1.9V89.4c0.5-1.7,1.6-2.6,2.7-2.6
	c0.8,0,1.7,0.5,2.3,1.5c0.7,1,1.5,2.9,1.5,6.4v44.7c0,4.3-2.2,14.7-3.4,20.3c-0.3,1.2-0.5,2.3-0.7,3.1c-4.9-1.4-9.8-2-14.7-2
	c-6.6,0-11.9,1.2-15.2,2.3c-1.4-3.6-4.9-12-8.9-16.8c-5-5.9-14.2-15.5-17.7-18.9C139.5,127.1,139.5,126.8,139.6,126.6z"/>
<g>
	<path class="st2" d="M116.5,263.9c-1.4,5.6-5.6,45.9,23.7,46.3c29.3,0.4,29.3-35.2,30.4-43.8C162,257.7,118,258.3,116.5,263.9z"/>
	<path class="st2" d="M177.6,267c-1.2,5.7-3.6,46.1,25.7,45.2s27.8-36.5,28.5-45.1C222.7,258.8,178.8,261.3,177.6,267z"/>
	<path class="st2" d="M167.6,277.7l-1.3-4.3c2.5-3.9,8.4-3.7,11.7-2.4c2.5,1,3.1,2.5,3.4,3.6l-2.2,2.9c0,0.1,0.1,0.2,0.1,0.2
		C178.2,275.6,169.9,274.1,167.6,277.7z"/>
</g>
</svg>
