<?xml version="1.0" encoding="utf-8"?>
<!-- Generator: Adobe Illustrator 19.2.0, SVG Export Plug-In . SVG Version: 6.00 Build 0)  -->
<svg version="1.1" id="Layer_1" xmlns="http://www.w3.org/2000/svg" xmlns:xlink="http://www.w3.org/1999/xlink" x="0px" y="0px"
	 viewBox="0 0 200 350" style="enable-background:new 0 0 200 350;" xml:space="preserve">
<style type="text/css">
	.st0{fill:none;stroke:#3399CC;stroke-width:5;stroke-miterlimit:10;}
	.st1{fill:#FFCCBC;}
	.st2{fill:#00BCD4;}
	.st3{fill:#424242;}
	.st4{fill:#5D4037;}
	.st5{fill:#263238;}
	.st6{fill:#37474F;}
	.st7{fill:#E91E63;}
	.st8{fill:#4E342E;}
	.st9{fill:#8D6E63;}
</style>
<line class="st0" x1="99.7" y1="22" x2="99.7" y2="132.8"/>
<g>
	<rect x="143.5" y="285.6" class="st1" width="6.2" height="6.2"/>
	<rect x="143.5" y="279.3" class="st2" width="6.2" height="6.3"/>
	<rect x="143.5" y="273" class="st2" width="6.2" height="6.3"/>
	<rect x="137.3" y="323.1" class="st3" width="6.3" height="6.2"/>
	<rect x="137.3" y="291.8" class="st1" width="6.3" height="6.3"/>
	<rect x="137.3" y="285.6" class="st1" width="6.3" height="6.2"/>
	<rect x="137.3" y="279.3" class="st1" width="6.3" height="6.3"/>
	<rect x="137.3" y="273" class="st2" width="6.3" height="6.3"/>
	<rect x="137.3" y="266.8" class="st2" width="6.3" height="6.2"/>
	<rect x="137.3" y="260.6" class="st2" width="6.3" height="6.3"/>
	<rect x="137.3" y="179.3" class="st4" width="6.3" height="6.2"/>
	<rect x="131" y="323.1" class="st3" width="6.2" height="6.2"/>
	<rect x="131" y="316.8" class="st5" width="6.2" height="6.3"/>
	<rect x="131" y="310.6" class="st5" width="6.2" height="6.3"/>
	<rect x="131" y="291.8" class="st1" width="6.2" height="6.3"/>
	<rect x="131" y="285.6" class="st1" width="6.2" height="6.2"/>
	<rect x="131" y="279.3" class="st1" width="6.2" height="6.3"/>
	<rect x="131" y="273" class="st2" width="6.2" height="6.3"/>
	<rect x="131" y="266.8" class="st2" width="6.2" height="6.2"/>
	<rect x="131" y="260.6" class="st2" width="6.2" height="6.3"/>
	<rect x="131" y="254.3" class="st2" width="6.2" height="6.3"/>
	<rect x="131" y="248.1" class="st2" width="6.2" height="6.2"/>
	<rect x="131" y="235.6" class="st1" width="6.2" height="6.2"/>
	<rect x="131" y="229.3" class="st1" width="6.2" height="6.3"/>
	<rect x="131" y="223.1" class="st1" width="6.2" height="6.3"/>
	<rect x="131" y="216.8" class="st1" width="6.2" height="6.2"/>
	<rect x="131" y="198.1" class="st4" width="6.2" height="6.2"/>
	<rect x="131" y="191.8" class="st4" width="6.2" height="6.3"/>
	<rect x="131" y="185.5" class="st4" width="6.2" height="6.3"/>
	<rect x="124.8" y="323.1" class="st3" width="6.3" height="6.2"/>
	<rect x="124.8" y="316.8" class="st5" width="6.3" height="6.3"/>
	<rect x="124.8" y="310.6" class="st5" width="6.3" height="6.3"/>
	<rect x="124.8" y="304.3" class="st5" width="6.3" height="6.2"/>
	<rect x="124.8" y="298.1" class="st5" width="6.3" height="6.3"/>
	<rect x="124.8" y="291.8" class="st5" width="6.3" height="6.3"/>
	<rect x="124.8" y="285.6" class="st6" width="6.3" height="6.2"/>
	<rect x="124.8" y="279.3" class="st2" width="6.3" height="6.3"/>
	<rect x="124.8" y="273" class="st2" width="6.3" height="6.3"/>
	<rect x="124.8" y="266.8" class="st2" width="6.3" height="6.2"/>
	<rect x="124.8" y="260.6" class="st2" width="6.3" height="6.3"/>
	<rect x="124.8" y="254.3" class="st2" width="6.3" height="6.3"/>
	<rect x="124.8" y="248.1" class="st2" width="6.3" height="6.2"/>
	<rect x="124.8" y="241.8" class="st1" width="6.3" height="6.3"/>
	<rect x="124.8" y="235.6" class="st1" width="6.3" height="6.2"/>
	<rect x="124.8" y="229.3" class="st1" width="6.3" height="6.3"/>
	<rect x="124.8" y="223.1" class="st1" width="6.3" height="6.3"/>
	<rect x="124.8" y="216.8" class="st1" width="6.3" height="6.2"/>
	<rect x="124.8" y="210.6" class="st1" width="6.3" height="6.3"/>
	<rect x="124.8" y="204.3" class="st1" width="6.3" height="6.3"/>
	<rect x="124.8" y="198.1" class="st4" width="6.3" height="6.2"/>
	<rect x="124.8" y="191.8" class="st4" width="6.3" height="6.3"/>
	<rect x="124.8" y="185.5" class="st4" width="6.3" height="6.3"/>
	<rect x="124.8" y="179.3" class="st4" width="6.3" height="6.2"/>
	<rect x="118.5" y="323.1" class="st3" width="6.3" height="6.2"/>
	<rect x="118.5" y="316.8" class="st5" width="6.3" height="6.3"/>
	<rect x="118.5" y="310.6" class="st5" width="6.3" height="6.3"/>
	<rect x="118.5" y="304.3" class="st5" width="6.3" height="6.2"/>
	<rect x="118.5" y="298.1" class="st5" width="6.3" height="6.3"/>
	<rect x="118.5" y="291.8" class="st5" width="6.3" height="6.3"/>
	<rect x="118.5" y="285.6" class="st6" width="6.3" height="6.2"/>
	<rect x="118.5" y="279.3" class="st2" width="6.3" height="6.3"/>
	<rect x="118.5" y="273" class="st2" width="6.3" height="6.3"/>
	<rect x="118.5" y="266.8" class="st2" width="6.3" height="6.2"/>
	<rect x="118.5" y="260.6" class="st2" width="6.3" height="6.3"/>
	<rect x="118.5" y="254.3" class="st2" width="6.3" height="6.3"/>
	<rect x="118.5" y="248.1" class="st2" width="6.3" height="6.2"/>
	<rect x="118.5" y="241.8" class="st1" width="6.3" height="6.3"/>
	<rect x="118.5" y="235.6" class="st1" width="6.3" height="6.2"/>
	<rect x="118.5" y="229.3" class="st1" width="6.3" height="6.3"/>
	<rect x="118.5" y="223.1" class="st1" width="6.3" height="6.3"/>
	<rect x="118.5" y="216.8" class="st5" width="6.3" height="6.2"/>
	<rect x="118.5" y="210.6" class="st5" width="6.3" height="6.3"/>
	<rect x="118.5" y="204.3" class="st1" width="6.3" height="6.3"/>
	<rect x="118.5" y="198.1" class="st4" width="6.3" height="6.2"/>
	<rect x="118.5" y="191.8" class="st4" width="6.3" height="6.3"/>
	<rect x="118.5" y="185.5" class="st4" width="6.3" height="6.3"/>
	<rect x="118.5" y="179.3" class="st4" width="6.3" height="6.2"/>
	<rect x="118.5" y="173.1" class="st4" width="6.3" height="6.3"/>
	<rect x="112.3" y="323.1" class="st3" width="6.2" height="6.2"/>
	<rect x="112.3" y="316.8" class="st5" width="6.2" height="6.3"/>
	<rect x="112.3" y="310.6" class="st5" width="6.2" height="6.3"/>
	<rect x="112.3" y="304.3" class="st5" width="6.2" height="6.2"/>
	<rect x="112.3" y="298.1" class="st5" width="6.2" height="6.3"/>
	<rect x="112.3" y="291.8" class="st5" width="6.2" height="6.3"/>
	<rect x="112.3" y="285.6" class="st7" width="6.2" height="6.2"/>
	<rect x="112.3" y="279.3" class="st7" width="6.2" height="6.3"/>
	<rect x="112.3" y="273" class="st7" width="6.2" height="6.3"/>
	<rect x="112.3" y="266.8" class="st2" width="6.2" height="6.2"/>
	<rect x="112.3" y="260.6" class="st2" width="6.2" height="6.3"/>
	<rect x="112.3" y="254.3" class="st2" width="6.2" height="6.3"/>
	<rect x="112.3" y="248.1" class="st2" width="6.2" height="6.2"/>
	<rect x="112.3" y="241.8" class="st1" width="6.2" height="6.3"/>
	<rect x="112.3" y="235.6" class="st1" width="6.2" height="6.2"/>
	<rect x="112.3" y="229.3" class="st8" width="6.2" height="6.3"/>
	<rect x="112.3" y="223.1" class="st1" width="6.2" height="6.3"/>
	<rect x="112.3" y="216.8" class="st1" width="6.2" height="6.2"/>
	<rect x="112.3" y="210.6" class="st1" width="6.2" height="6.3"/>
	<rect x="112.3" y="204.3" class="st1" width="6.2" height="6.3"/>
	<rect x="112.3" y="198.1" class="st4" width="6.2" height="6.2"/>
	<rect x="112.3" y="191.8" class="st4" width="6.2" height="6.3"/>
	<rect x="112.3" y="185.5" class="st4" width="6.2" height="6.3"/>
	<rect x="112.3" y="179.3" class="st4" width="6.2" height="6.2"/>
	<rect x="112.3" y="173.1" class="st4" width="6.2" height="6.3"/>
	<rect x="112.3" y="166.8" class="st4" width="6.2" height="6.3"/>
	<rect x="106" y="298.1" class="st5" width="6.3" height="6.3"/>
	<rect x="106" y="291.8" class="st5" width="6.3" height="6.3"/>
	<rect x="106" y="285.6" class="st6" width="6.3" height="6.2"/>
	<rect x="106" y="279.3" class="st7" width="6.3" height="6.3"/>
	<rect x="106" y="273" class="st7" width="6.3" height="6.3"/>
	<rect x="106" y="266.8" class="st7" width="6.3" height="6.2"/>
	<rect x="106" y="260.6" class="st7" width="6.3" height="6.3"/>
	<rect x="106" y="254.3" class="st7" width="6.3" height="6.3"/>
	<rect x="106" y="248.1" class="st7" width="6.3" height="6.2"/>
	<rect x="106" y="241.8" class="st1" width="6.3" height="6.3"/>
	<rect x="106" y="235.6" class="st8" width="6.3" height="6.2"/>
	<rect x="106" y="229.3" class="st8" width="6.3" height="6.3"/>
	<rect x="106" y="223.1" class="st1" width="6.3" height="6.3"/>
	<rect x="106" y="216.8" class="st1" width="6.3" height="6.2"/>
	<rect x="106" y="210.6" class="st1" width="6.3" height="6.3"/>
	<rect x="106" y="204.3" class="st1" width="6.3" height="6.3"/>
	<rect x="106" y="198.1" class="st4" width="6.3" height="6.2"/>
	<rect x="106" y="191.8" class="st4" width="6.3" height="6.3"/>
	<rect x="106" y="185.5" class="st4" width="6.3" height="6.3"/>
	<rect x="106" y="179.3" class="st4" width="6.3" height="6.2"/>
	<rect x="106" y="173.1" class="st4" width="6.3" height="6.3"/>
	<rect x="106" y="166.8" class="st4" width="6.3" height="6.3"/>
	<rect x="99.7" y="304.3" class="st5" width="6.3" height="6.2"/>
	<rect x="99.7" y="298.1" class="st5" width="6.3" height="6.3"/>
	<rect x="99.7" y="291.8" class="st5" width="6.3" height="6.3"/>
	<rect x="99.7" y="285.6" class="st6" width="6.3" height="6.2"/>
	<rect x="99.7" y="279.3" class="st2" width="6.3" height="6.3"/>
	<rect x="99.7" y="273" class="st2" width="6.3" height="6.3"/>
	<rect x="99.7" y="266.8" class="st7" width="6.3" height="6.2"/>
	<rect x="99.7" y="260.6" class="st7" width="6.3" height="6.3"/>
	<rect x="99.7" y="254.3" class="st7" width="6.3" height="6.3"/>
	<rect x="99.7" y="248.1" class="st7" width="6.3" height="6.2"/>
	<rect x="99.7" y="241.8" class="st1" width="6.3" height="6.3"/>
	<rect x="99.7" y="235.6" class="st8" width="6.3" height="6.2"/>
	<rect x="99.7" y="229.3" class="st8" width="6.3" height="6.3"/>
	<rect x="99.7" y="223.1" class="st1" width="6.3" height="6.3"/>
	<rect x="99.7" y="216.8" class="st5" width="6.3" height="6.2"/>
	<rect x="99.7" y="210.6" class="st5" width="6.3" height="6.3"/>
	<rect x="99.7" y="204.3" class="st1" width="6.3" height="6.3"/>
	<rect x="99.7" y="198.1" class="st1" width="6.3" height="6.2"/>
	<rect x="99.7" y="191.8" class="st4" width="6.3" height="6.3"/>
	<rect x="99.7" y="185.5" class="st4" width="6.3" height="6.3"/>
	<rect x="99.7" y="179.3" class="st4" width="6.3" height="6.2"/>
	<rect x="99.7" y="173.1" class="st4" width="6.3" height="6.3"/>
	<rect x="99.7" y="166.8" class="st4" width="6.3" height="6.3"/>
	<rect x="93.5" y="310.6" class="st5" width="6.2" height="6.3"/>
	<rect x="93.5" y="304.3" class="st5" width="6.2" height="6.2"/>
	<rect x="93.5" y="298.1" class="st5" width="6.2" height="6.3"/>
	<rect x="93.5" y="291.8" class="st5" width="6.2" height="6.3"/>
	<rect x="93.5" y="285.6" class="st6" width="6.2" height="6.2"/>
	<rect x="93.5" y="279.3" class="st2" width="6.2" height="6.3"/>
	<rect x="93.5" y="273" class="st2" width="6.2" height="6.3"/>
	<rect x="93.5" y="266.8" class="st2" width="6.2" height="6.2"/>
	<rect x="93.5" y="260.6" class="st2" width="6.2" height="6.3"/>
	<rect x="93.5" y="254.3" class="st2" width="6.2" height="6.3"/>
	<rect x="93.5" y="248.1" class="st2" width="6.2" height="6.2"/>
	<rect x="93.5" y="241.8" class="st1" width="6.2" height="6.3"/>
	<rect x="93.5" y="235.6" class="st1" width="6.2" height="6.2"/>
	<rect x="93.5" y="229.3" class="st1" width="6.2" height="6.3"/>
	<rect x="93.5" y="223.1" class="st1" width="6.2" height="6.3"/>
	<rect x="93.5" y="216.8" class="st1" width="6.2" height="6.2"/>
	<rect x="93.5" y="210.6" class="st1" width="6.2" height="6.3"/>
	<rect x="93.5" y="204.3" class="st1" width="6.2" height="6.3"/>
	<rect x="93.5" y="198.1" class="st1" width="6.2" height="6.2"/>
	<rect x="93.5" y="191.8" class="st1" width="6.2" height="6.3"/>
	<rect x="93.5" y="185.5" class="st4" width="6.2" height="6.3"/>
	<rect x="93.5" y="179.3" class="st4" width="6.2" height="6.2"/>
	<rect x="93.5" y="173.1" class="st4" width="6.2" height="6.3"/>
	<rect x="93.5" y="166.8" class="st4" width="6.2" height="6.3"/>
	<rect x="87.3" y="323.1" class="st3" width="6.3" height="6.2"/>
	<rect x="87.3" y="316.8" class="st5" width="6.3" height="6.3"/>
	<rect x="87.3" y="310.6" class="st5" width="6.3" height="6.3"/>
	<rect x="87.3" y="304.3" class="st5" width="6.3" height="6.2"/>
	<rect x="87.3" y="298.1" class="st5" width="6.3" height="6.3"/>
	<rect x="87.3" y="291.8" class="st5" width="6.3" height="6.3"/>
	<rect x="87.3" y="285.6" class="st6" width="6.3" height="6.2"/>
	<rect x="87.3" y="279.3" class="st2" width="6.3" height="6.3"/>
	<rect x="87.3" y="273" class="st2" width="6.3" height="6.3"/>
	<rect x="87.3" y="266.8" class="st2" width="6.3" height="6.2"/>
	<rect x="87.3" y="260.6" class="st2" width="6.3" height="6.3"/>
	<rect x="87.3" y="254.3" class="st2" width="6.3" height="6.3"/>
	<rect x="87.3" y="248.1" class="st2" width="6.3" height="6.2"/>
	<rect x="87.3" y="241.8" class="st1" width="6.3" height="6.3"/>
	<rect x="87.3" y="235.6" class="st1" width="6.3" height="6.2"/>
	<rect x="87.3" y="229.3" class="st1" width="6.3" height="6.3"/>
	<rect x="87.3" y="223.1" class="st1" width="6.3" height="6.3"/>
	<rect x="87.3" y="216.8" class="st1" width="6.3" height="6.2"/>
	<rect x="87.3" y="210.6" class="st1" width="6.3" height="6.3"/>
	<rect x="87.3" y="204.3" class="st1" width="6.3" height="6.3"/>
	<rect x="87.3" y="198.1" class="st1" width="6.3" height="6.2"/>
	<rect x="87.3" y="191.8" class="st4" width="6.3" height="6.3"/>
	<rect x="87.3" y="185.5" class="st4" width="6.3" height="6.3"/>
	<rect x="87.3" y="179.3" class="st4" width="6.3" height="6.2"/>
	<rect x="87.3" y="173.1" class="st9" width="6.3" height="6.3"/>
	<rect x="87.3" y="166.8" class="st4" width="6.3" height="6.3"/>
	<rect x="81" y="323.1" class="st3" width="6.3" height="6.2"/>
	<rect x="81" y="316.8" class="st5" width="6.3" height="6.3"/>
	<rect x="81" y="310.6" class="st5" width="6.3" height="6.3"/>
	<rect x="81" y="304.3" class="st5" width="6.3" height="6.2"/>
	<rect x="81" y="298.1" class="st5" width="6.3" height="6.3"/>
	<rect x="81" y="291.8" class="st5" width="6.3" height="6.3"/>
	<rect x="81" y="285.6" class="st6" width="6.3" height="6.2"/>
	<rect x="81" y="279.3" class="st2" width="6.3" height="6.3"/>
	<rect x="81" y="273" class="st2" width="6.3" height="6.3"/>
	<rect x="81" y="266.8" class="st2" width="6.3" height="6.2"/>
	<rect x="81" y="260.6" class="st2" width="6.3" height="6.3"/>
	<rect x="81" y="254.3" class="st2" width="6.3" height="6.3"/>
	<rect x="81" y="248.1" class="st2" width="6.3" height="6.2"/>
	<rect x="81" y="241.8" class="st2" width="6.3" height="6.3"/>
	<rect x="81" y="235.6" class="st1" width="6.3" height="6.2"/>
	<rect x="81" y="229.3" class="st1" width="6.3" height="6.3"/>
	<rect x="81" y="223.1" class="st1" width="6.3" height="6.3"/>
	<rect x="81" y="216.8" class="st1" width="6.3" height="6.2"/>
	<rect x="81" y="210.6" class="st4" width="6.3" height="6.3"/>
	<rect x="81" y="204.3" class="st4" width="6.3" height="6.3"/>
	<rect x="81" y="198.1" class="st4" width="6.3" height="6.2"/>
	<rect x="81" y="191.8" class="st4" width="6.3" height="6.3"/>
	<rect x="81" y="185.5" class="st4" width="6.3" height="6.3"/>
	<rect x="81" y="179.3" class="st4" width="6.3" height="6.2"/>
	<rect x="81" y="173.1" class="st9" width="6.3" height="6.3"/>
	<rect x="81" y="166.8" class="st4" width="6.3" height="6.3"/>
	<rect x="74.8" y="323.1" class="st3" width="6.2" height="6.2"/>
	<rect x="74.8" y="316.8" class="st5" width="6.2" height="6.3"/>
	<rect x="74.8" y="310.6" class="st5" width="6.2" height="6.3"/>
	<rect x="74.8" y="304.3" class="st5" width="6.2" height="6.2"/>
	<rect x="74.8" y="298.1" class="st5" width="6.2" height="6.3"/>
	<rect x="74.8" y="291.8" class="st5" width="6.2" height="6.3"/>
	<rect x="74.8" y="285.6" class="st1" width="6.2" height="6.2"/>
	<rect x="74.8" y="279.3" class="st2" width="6.2" height="6.3"/>
	<rect x="74.8" y="273" class="st2" width="6.2" height="6.3"/>
	<rect x="74.8" y="266.8" class="st2" width="6.2" height="6.2"/>
	<rect x="74.8" y="260.6" class="st2" width="6.2" height="6.3"/>
	<rect x="74.8" y="254.3" class="st2" width="6.2" height="6.3"/>
	<rect x="74.8" y="248.1" class="st2" width="6.2" height="6.2"/>
	<rect x="74.8" y="241.8" class="st2" width="6.2" height="6.3"/>
	<rect x="74.8" y="235.6" class="st1" width="6.2" height="6.2"/>
	<rect x="74.8" y="229.3" class="st1" width="6.2" height="6.3"/>
	<rect x="74.8" y="223.1" class="st1" width="6.2" height="6.3"/>
	<rect x="74.8" y="216.8" class="st1" width="6.2" height="6.2"/>
	<rect x="74.8" y="210.6" class="st1" width="6.2" height="6.3"/>
	<rect x="74.8" y="204.3" class="st4" width="6.2" height="6.3"/>
	<rect x="74.8" y="198.1" class="st4" width="6.2" height="6.2"/>
	<rect x="74.8" y="191.8" class="st4" width="6.2" height="6.3"/>
	<rect x="74.8" y="185.5" class="st4" width="6.2" height="6.3"/>
	<rect x="74.8" y="179.3" class="st9" width="6.2" height="6.2"/>
	<rect x="74.8" y="173.1" class="st4" width="6.2" height="6.3"/>
	<rect x="74.8" y="166.8" class="st4" width="6.2" height="6.3"/>
	<rect x="68.5" y="323.1" class="st3" width="6.3" height="6.2"/>
	<rect x="68.5" y="316.8" class="st5" width="6.3" height="6.3"/>
	<rect x="68.5" y="310.6" class="st5" width="6.3" height="6.3"/>
	<rect x="68.5" y="304.3" class="st5" width="6.3" height="6.2"/>
	<rect x="68.5" y="298.1" class="st5" width="6.3" height="6.3"/>
	<rect x="68.5" y="291.8" class="st1" width="6.3" height="6.3"/>
	<rect x="68.5" y="285.6" class="st1" width="6.3" height="6.2"/>
	<rect x="68.5" y="279.3" class="st1" width="6.3" height="6.3"/>
	<rect x="68.5" y="273" class="st2" width="6.3" height="6.3"/>
	<rect x="68.5" y="266.8" class="st2" width="6.3" height="6.2"/>
	<rect x="68.5" y="260.6" class="st2" width="6.3" height="6.3"/>
	<rect x="68.5" y="254.3" class="st2" width="6.3" height="6.3"/>
	<rect x="68.5" y="248.1" class="st2" width="6.3" height="6.2"/>
	<rect x="68.5" y="241.8" class="st2" width="6.3" height="6.3"/>
	<rect x="68.5" y="235.6" class="st4" width="6.3" height="6.2"/>
	<rect x="68.5" y="229.3" class="st1" width="6.3" height="6.3"/>
	<rect x="68.5" y="223.1" class="st1" width="6.3" height="6.3"/>
	<rect x="68.5" y="216.8" class="st1" width="6.3" height="6.2"/>
	<rect x="68.5" y="210.6" class="st1" width="6.3" height="6.3"/>
	<rect x="68.5" y="204.3" class="st4" width="6.3" height="6.3"/>
	<rect x="68.5" y="198.1" class="st4" width="6.3" height="6.2"/>
	<rect x="68.5" y="191.8" class="st4" width="6.3" height="6.3"/>
	<rect x="68.5" y="185.5" class="st9" width="6.3" height="6.3"/>
	<rect x="68.5" y="179.3" class="st4" width="6.3" height="6.2"/>
	<rect x="68.5" y="173.1" class="st4" width="6.3" height="6.3"/>
	<rect x="62.2" y="291.8" class="st1" width="6.3" height="6.3"/>
	<rect x="62.2" y="285.6" class="st1" width="6.3" height="6.2"/>
	<rect x="62.2" y="279.3" class="st1" width="6.3" height="6.3"/>
	<rect x="62.2" y="273" class="st2" width="6.3" height="6.3"/>
	<rect x="62.2" y="266.8" class="st2" width="6.3" height="6.2"/>
	<rect x="62.2" y="260.6" class="st2" width="6.3" height="6.3"/>
	<rect x="62.2" y="254.3" class="st2" width="6.3" height="6.3"/>
	<rect x="62.2" y="248.1" class="st2" width="6.3" height="6.2"/>
	<rect x="62.2" y="229.3" class="st4" width="6.3" height="6.3"/>
	<rect x="62.2" y="223.1" class="st4" width="6.3" height="6.3"/>
	<rect x="62.2" y="216.8" class="st4" width="6.3" height="6.2"/>
	<rect x="62.2" y="210.6" class="st4" width="6.3" height="6.3"/>
	<rect x="62.2" y="204.3" class="st4" width="6.3" height="6.3"/>
	<rect x="62.2" y="198.1" class="st4" width="6.3" height="6.2"/>
	<rect x="62.2" y="191.8" class="st4" width="6.3" height="6.3"/>
	<rect x="62.2" y="185.5" class="st4" width="6.3" height="6.3"/>
	<rect x="62.2" y="179.3" class="st4" width="6.3" height="6.2"/>
	<rect x="56" y="291.8" class="st1" width="6.2" height="6.3"/>
	<rect x="56" y="285.6" class="st1" width="6.2" height="6.2"/>
	<rect x="56" y="279.3" class="st1" width="6.2" height="6.3"/>
	<rect x="56" y="273" class="st2" width="6.2" height="6.3"/>
	<rect x="56" y="266.8" class="st2" width="6.2" height="6.2"/>
	<rect x="56" y="260.6" class="st2" width="6.2" height="6.3"/>
	<rect x="56" y="254.3" class="st2" width="6.2" height="6.3"/>
	<rect x="56" y="223.1" class="st4" width="6.2" height="6.3"/>
	<rect x="56" y="216.8" class="st4" width="6.2" height="6.2"/>
	<rect x="56" y="210.6" class="st4" width="6.2" height="6.3"/>
	<rect x="56" y="204.3" class="st4" width="6.2" height="6.3"/>
	<rect x="56" y="198.1" class="st4" width="6.2" height="6.2"/>
	<rect x="56" y="191.8" class="st4" width="6.2" height="6.3"/>
	<rect x="49.8" y="285.6" class="st1" width="6.3" height="6.2"/>
	<rect x="49.8" y="279.3" class="st2" width="6.3" height="6.3"/>
	<rect x="49.8" y="273" class="st2" width="6.3" height="6.3"/>
	<rect x="49.8" y="266.8" class="st2" width="6.3" height="6.2"/>
	<rect x="49.8" y="260.6" class="st2" width="6.3" height="6.3"/>
</g>
</svg>
