<?xml version="1.0" encoding="utf-8"?>
<!-- Generator: Adobe Illustrator 19.2.0, SVG Export Plug-In . SVG Version: 6.00 Build 0)  -->
<svg version="1.1" id="Layer_1" xmlns="http://www.w3.org/2000/svg" xmlns:xlink="http://www.w3.org/1999/xlink" x="0px" y="0px"
	 viewBox="0 0 200 400" style="enable-background:new 0 0 200 400;" xml:space="preserve">
<style type="text/css">
	.st0{fill:none;stroke:#E0277F;stroke-width:5;stroke-miterlimit:10;}
	.st1{fill:#F9A825;}
	.st2{fill:#FFCCBC;}
	.st3{fill:#E91E63;}
	.st4{fill:#263238;}
	.st5{fill:#37474F;}
	.st6{fill:#FAFAFA;}
	.st7{fill:#FBCB7C;}
</style>
<line class="st0" x1="96.7" y1="6.9" x2="96.7" y2="181.8"/>
<g>
	<rect x="144" y="265.5" class="st1" width="5.2" height="5.3"/>
	<rect x="138.8" y="328.5" class="st2" width="5.3" height="5.3"/>
	<rect x="138.8" y="323.3" class="st2" width="5.3" height="5.2"/>
	<rect x="138.8" y="318" class="st3" width="5.3" height="5.3"/>
	<rect x="138.8" y="276.1" class="st1" width="5.3" height="5.2"/>
	<rect x="138.8" y="265.5" class="st1" width="5.3" height="5.3"/>
	<rect x="138.8" y="260.3" class="st1" width="5.3" height="5.2"/>
	<rect x="138.8" y="255" class="st1" width="5.3" height="5.3"/>
	<rect x="138.8" y="249.8" class="st1" width="5.3" height="5.2"/>
	<rect x="133.5" y="370.6" class="st4" width="5.3" height="5.2"/>
	<rect x="133.5" y="328.5" class="st2" width="5.3" height="5.3"/>
	<rect x="133.5" y="323.3" class="st2" width="5.3" height="5.2"/>
	<rect x="133.5" y="318" class="st3" width="5.3" height="5.3"/>
	<rect x="133.5" y="312.8" class="st3" width="5.3" height="5.3"/>
	<rect x="133.5" y="307.6" class="st3" width="5.3" height="5.2"/>
	<rect x="133.5" y="302.3" class="st3" width="5.3" height="5.3"/>
	<rect x="133.5" y="297" class="st3" width="5.3" height="5.3"/>
	<rect x="133.5" y="291.8" class="st2" width="5.3" height="5.2"/>
	<rect x="133.5" y="286.5" class="st2" width="5.3" height="5.3"/>
	<rect x="133.5" y="281.3" class="st2" width="5.3" height="5.3"/>
	<rect x="133.5" y="276.1" class="st2" width="5.3" height="5.2"/>
	<rect x="133.5" y="270.8" class="st2" width="5.3" height="5.3"/>
	<rect x="133.5" y="265.5" class="st1" width="5.3" height="5.3"/>
	<rect x="133.5" y="260.3" class="st1" width="5.3" height="5.2"/>
	<rect x="133.5" y="255" class="st1" width="5.3" height="5.3"/>
	<rect x="133.5" y="249.8" class="st1" width="5.3" height="5.2"/>
	<rect x="133.5" y="244.6" class="st1" width="5.3" height="5.3"/>
	<rect x="133.5" y="239.3" class="st1" width="5.3" height="5.3"/>
	<rect x="128.3" y="370.6" class="st4" width="5.2" height="5.2"/>
	<rect x="128.3" y="365.3" class="st2" width="5.2" height="5.3"/>
	<rect x="128.3" y="360" class="st2" width="5.2" height="5.3"/>
	<rect x="128.3" y="354.8" class="st2" width="5.2" height="5.2"/>
	<rect x="128.3" y="349.5" class="st3" width="5.2" height="5.3"/>
	<rect x="128.3" y="344.3" class="st3" width="5.2" height="5.3"/>
	<rect x="128.3" y="339.1" class="st3" width="5.2" height="5.2"/>
	<rect x="128.3" y="333.8" class="st5" width="5.2" height="5.3"/>
	<rect x="128.3" y="328.5" class="st3" width="5.2" height="5.3"/>
	<rect x="128.3" y="323.3" class="st2" width="5.2" height="5.2"/>
	<rect x="128.3" y="318" class="st3" width="5.2" height="5.3"/>
	<rect x="128.3" y="312.8" class="st3" width="5.2" height="5.3"/>
	<rect x="128.3" y="307.6" class="st3" width="5.2" height="5.2"/>
	<rect x="128.3" y="302.3" class="st6" width="5.2" height="5.3"/>
	<rect x="128.3" y="297" class="st2" width="5.2" height="5.3"/>
	<rect x="128.3" y="291.8" class="st2" width="5.2" height="5.2"/>
	<rect x="128.3" y="286.5" class="st2" width="5.2" height="5.3"/>
	<rect x="128.3" y="281.3" class="st3" width="5.2" height="5.3"/>
	<rect x="128.3" y="276.1" class="st2" width="5.2" height="5.2"/>
	<rect x="128.3" y="270.8" class="st2" width="5.2" height="5.3"/>
	<rect x="128.3" y="265.5" class="st2" width="5.2" height="5.3"/>
	<rect x="128.3" y="260.3" class="st2" width="5.2" height="5.2"/>
	<rect x="128.3" y="255" class="st1" width="5.2" height="5.3"/>
	<rect x="128.3" y="249.8" class="st1" width="5.2" height="5.2"/>
	<rect x="128.3" y="244.6" class="st1" width="5.2" height="5.3"/>
	<rect x="128.3" y="239.3" class="st1" width="5.2" height="5.3"/>
	<rect x="128.3" y="234.1" class="st1" width="5.2" height="5.2"/>
	<rect x="123" y="370.6" class="st4" width="5.3" height="5.2"/>
	<rect x="123" y="365.3" class="st2" width="5.3" height="5.3"/>
	<rect x="123" y="360" class="st2" width="5.3" height="5.3"/>
	<rect x="123" y="354.8" class="st2" width="5.3" height="5.2"/>
	<rect x="123" y="349.5" class="st3" width="5.3" height="5.3"/>
	<rect x="123" y="344.3" class="st3" width="5.3" height="5.3"/>
	<rect x="123" y="339.1" class="st3" width="5.3" height="5.2"/>
	<rect x="123" y="333.8" class="st5" width="5.3" height="5.3"/>
	<rect x="123" y="328.5" class="st3" width="5.3" height="5.3"/>
	<rect x="123" y="323.3" class="st3" width="5.3" height="5.2"/>
	<rect x="123" y="318" class="st3" width="5.3" height="5.3"/>
	<rect x="123" y="312.8" class="st3" width="5.3" height="5.3"/>
	<rect x="123" y="307.6" class="st6" width="5.3" height="5.2"/>
	<rect x="123" y="302.3" class="st6" width="5.3" height="5.3"/>
	<rect x="123" y="297" class="st2" width="5.3" height="5.3"/>
	<rect x="123" y="291.8" class="st2" width="5.3" height="5.2"/>
	<rect x="123" y="286.5" class="st3" width="5.3" height="5.3"/>
	<rect x="123" y="281.3" class="st2" width="5.3" height="5.3"/>
	<rect x="123" y="276.1" class="st2" width="5.3" height="5.2"/>
	<rect x="123" y="270.8" class="st4" width="5.3" height="5.3"/>
	<rect x="123" y="265.5" class="st4" width="5.3" height="5.3"/>
	<rect x="123" y="260.3" class="st2" width="5.3" height="5.2"/>
	<rect x="123" y="255" class="st2" width="5.3" height="5.3"/>
	<rect x="123" y="249.8" class="st1" width="5.3" height="5.2"/>
	<rect x="123" y="244.6" class="st1" width="5.3" height="5.3"/>
	<rect x="123" y="239.3" class="st1" width="5.3" height="5.3"/>
	<rect x="123" y="234.1" class="st1" width="5.3" height="5.2"/>
	<rect x="123" y="228.8" class="st1" width="5.3" height="5.3"/>
	<rect x="117.7" y="354.8" class="st2" width="5.3" height="5.2"/>
	<rect x="117.7" y="349.5" class="st3" width="5.3" height="5.3"/>
	<rect x="117.7" y="344.3" class="st3" width="5.3" height="5.3"/>
	<rect x="117.7" y="339.1" class="st3" width="5.3" height="5.2"/>
	<rect x="117.7" y="333.8" class="st6" width="5.3" height="5.3"/>
	<rect x="117.7" y="328.5" class="st3" width="5.3" height="5.3"/>
	<rect x="117.7" y="323.3" class="st3" width="5.3" height="5.2"/>
	<rect x="117.7" y="318" class="st3" width="5.3" height="5.3"/>
	<rect x="117.7" y="312.8" class="st6" width="5.3" height="5.3"/>
	<rect x="117.7" y="307.6" class="st6" width="5.3" height="5.2"/>
	<rect x="117.7" y="302.3" class="st6" width="5.3" height="5.3"/>
	<rect x="117.7" y="297" class="st2" width="5.3" height="5.3"/>
	<rect x="117.7" y="291.8" class="st2" width="5.3" height="5.2"/>
	<rect x="117.7" y="286.5" class="st3" width="5.3" height="5.3"/>
	<rect x="117.7" y="281.3" class="st2" width="5.3" height="5.3"/>
	<rect x="117.7" y="276.1" class="st2" width="5.3" height="5.2"/>
	<rect x="117.7" y="270.8" class="st2" width="5.3" height="5.3"/>
	<rect x="117.7" y="265.5" class="st2" width="5.3" height="5.3"/>
	<rect x="117.7" y="260.3" class="st2" width="5.3" height="5.2"/>
	<rect x="117.7" y="255" class="st2" width="5.3" height="5.3"/>
	<rect x="117.7" y="249.8" class="st1" width="5.3" height="5.2"/>
	<rect x="117.7" y="244.6" class="st1" width="5.3" height="5.3"/>
	<rect x="117.7" y="239.3" class="st1" width="5.3" height="5.3"/>
	<rect x="117.7" y="234.1" class="st1" width="5.3" height="5.2"/>
	<rect x="117.7" y="228.8" class="st1" width="5.3" height="5.3"/>
	<rect x="117.7" y="223.5" class="st1" width="5.3" height="5.3"/>
	<rect x="112.5" y="349.5" class="st3" width="5.2" height="5.3"/>
	<rect x="112.5" y="344.3" class="st3" width="5.2" height="5.3"/>
	<rect x="112.5" y="339.1" class="st3" width="5.2" height="5.2"/>
	<rect x="112.5" y="333.8" class="st5" width="5.2" height="5.3"/>
	<rect x="112.5" y="328.5" class="st3" width="5.2" height="5.3"/>
	<rect x="112.5" y="323.3" class="st3" width="5.2" height="5.2"/>
	<rect x="112.5" y="318" class="st3" width="5.2" height="5.3"/>
	<rect x="112.5" y="312.8" class="st3" width="5.2" height="5.3"/>
	<rect x="112.5" y="307.6" class="st6" width="5.2" height="5.2"/>
	<rect x="112.5" y="302.3" class="st6" width="5.2" height="5.3"/>
	<rect x="112.5" y="297" class="st2" width="5.2" height="5.3"/>
	<rect x="112.5" y="291.8" class="st2" width="5.2" height="5.2"/>
	<rect x="112.5" y="286.5" class="st3" width="5.2" height="5.3"/>
	<rect x="112.5" y="281.3" class="st2" width="5.2" height="5.3"/>
	<rect x="112.5" y="276.1" class="st2" width="5.2" height="5.2"/>
	<rect x="112.5" y="270.8" class="st2" width="5.2" height="5.3"/>
	<rect x="112.5" y="265.5" class="st2" width="5.2" height="5.3"/>
	<rect x="112.5" y="260.3" class="st2" width="5.2" height="5.2"/>
	<rect x="112.5" y="255" class="st2" width="5.2" height="5.3"/>
	<rect x="112.5" y="249.8" class="st1" width="5.2" height="5.2"/>
	<rect x="112.5" y="244.6" class="st1" width="5.2" height="5.3"/>
	<rect x="112.5" y="239.3" class="st1" width="5.2" height="5.3"/>
	<rect x="112.5" y="234.1" class="st1" width="5.2" height="5.2"/>
	<rect x="112.5" y="228.8" class="st1" width="5.2" height="5.3"/>
	<rect x="112.5" y="223.5" class="st1" width="5.2" height="5.3"/>
	<rect x="112.5" y="218.3" class="st1" width="5.2" height="5.2"/>
	<rect x="107.3" y="349.5" class="st3" width="5.3" height="5.3"/>
	<rect x="107.3" y="344.3" class="st3" width="5.3" height="5.3"/>
	<rect x="107.3" y="339.1" class="st3" width="5.3" height="5.2"/>
	<rect x="107.3" y="333.8" class="st5" width="5.3" height="5.3"/>
	<rect x="107.3" y="328.5" class="st3" width="5.3" height="5.3"/>
	<rect x="107.3" y="323.3" class="st3" width="5.3" height="5.2"/>
	<rect x="107.3" y="318" class="st3" width="5.3" height="5.3"/>
	<rect x="107.3" y="312.8" class="st3" width="5.3" height="5.3"/>
	<rect x="107.3" y="307.6" class="st3" width="5.3" height="5.2"/>
	<rect x="107.3" y="302.3" class="st6" width="5.3" height="5.3"/>
	<rect x="107.3" y="297" class="st2" width="5.3" height="5.3"/>
	<rect x="107.3" y="291.8" class="st2" width="5.3" height="5.2"/>
	<rect x="107.3" y="286.5" class="st3" width="5.3" height="5.3"/>
	<rect x="107.3" y="281.3" class="st2" width="5.3" height="5.3"/>
	<rect x="107.3" y="276.1" class="st2" width="5.3" height="5.2"/>
	<rect x="107.3" y="270.8" class="st4" width="5.3" height="5.3"/>
	<rect x="107.3" y="265.5" class="st4" width="5.3" height="5.3"/>
	<rect x="107.3" y="260.3" class="st2" width="5.3" height="5.2"/>
	<rect x="107.3" y="255" class="st2" width="5.3" height="5.3"/>
	<rect x="107.3" y="249.8" class="st1" width="5.3" height="5.2"/>
	<rect x="107.3" y="244.6" class="st1" width="5.3" height="5.3"/>
	<rect x="107.3" y="239.3" class="st1" width="5.3" height="5.3"/>
	<rect x="107.3" y="234.1" class="st1" width="5.3" height="5.2"/>
	<rect x="107.3" y="228.8" class="st1" width="5.3" height="5.3"/>
	<rect x="107.3" y="223.5" class="st1" width="5.3" height="5.3"/>
	<rect x="107.3" y="218.3" class="st1" width="5.3" height="5.2"/>
	<rect x="102" y="354.8" class="st2" width="5.3" height="5.2"/>
	<rect x="102" y="349.5" class="st3" width="5.3" height="5.3"/>
	<rect x="102" y="344.3" class="st3" width="5.3" height="5.3"/>
	<rect x="102" y="339.1" class="st3" width="5.3" height="5.2"/>
	<rect x="102" y="333.8" class="st5" width="5.3" height="5.3"/>
	<rect x="102" y="328.5" class="st3" width="5.3" height="5.3"/>
	<rect x="102" y="323.3" class="st3" width="5.3" height="5.2"/>
	<rect x="102" y="318" class="st3" width="5.3" height="5.3"/>
	<rect x="102" y="312.8" class="st3" width="5.3" height="5.3"/>
	<rect x="102" y="307.6" class="st3" width="5.3" height="5.2"/>
	<rect x="102" y="302.3" class="st3" width="5.3" height="5.3"/>
	<rect x="102" y="297" class="st2" width="5.3" height="5.3"/>
	<rect x="102" y="291.8" class="st2" width="5.3" height="5.2"/>
	<rect x="102" y="286.5" class="st2" width="5.3" height="5.3"/>
	<rect x="102" y="281.3" class="st3" width="5.3" height="5.3"/>
	<rect x="102" y="276.1" class="st2" width="5.3" height="5.2"/>
	<rect x="102" y="270.8" class="st2" width="5.3" height="5.3"/>
	<rect x="102" y="265.5" class="st2" width="5.3" height="5.3"/>
	<rect x="102" y="260.3" class="st2" width="5.3" height="5.2"/>
	<rect x="102" y="255" class="st2" width="5.3" height="5.3"/>
	<rect x="102" y="249.8" class="st1" width="5.3" height="5.2"/>
	<rect x="102" y="244.6" class="st1" width="5.3" height="5.3"/>
	<rect x="102" y="239.3" class="st1" width="5.3" height="5.3"/>
	<rect x="102" y="234.1" class="st1" width="5.3" height="5.2"/>
	<rect x="102" y="228.8" class="st1" width="5.3" height="5.3"/>
	<rect x="102" y="223.5" class="st1" width="5.3" height="5.3"/>
	<rect x="102" y="218.3" class="st1" width="5.3" height="5.2"/>
	<rect x="96.8" y="360" class="st2" width="5.2" height="5.3"/>
	<rect x="96.8" y="354.8" class="st2" width="5.2" height="5.2"/>
	<rect x="96.8" y="349.5" class="st3" width="5.2" height="5.3"/>
	<rect x="96.8" y="344.3" class="st3" width="5.2" height="5.3"/>
	<rect x="96.8" y="339.1" class="st3" width="5.2" height="5.2"/>
	<rect x="96.8" y="333.8" class="st5" width="5.2" height="5.3"/>
	<rect x="96.8" y="328.5" class="st3" width="5.2" height="5.3"/>
	<rect x="96.8" y="323.3" class="st3" width="5.2" height="5.2"/>
	<rect x="96.8" y="318" class="st3" width="5.2" height="5.3"/>
	<rect x="96.8" y="312.8" class="st3" width="5.2" height="5.3"/>
	<rect x="96.8" y="307.6" class="st3" width="5.2" height="5.2"/>
	<rect x="96.8" y="302.3" class="st3" width="5.2" height="5.3"/>
	<rect x="96.8" y="297" class="st2" width="5.2" height="5.3"/>
	<rect x="96.8" y="291.8" class="st2" width="5.2" height="5.2"/>
	<rect x="96.8" y="286.5" class="st2" width="5.2" height="5.3"/>
	<rect x="96.8" y="281.3" class="st2" width="5.2" height="5.3"/>
	<rect x="96.8" y="276.1" class="st2" width="5.2" height="5.2"/>
	<rect x="96.8" y="270.8" class="st2" width="5.2" height="5.3"/>
	<rect x="96.8" y="265.5" class="st2" width="5.2" height="5.3"/>
	<rect x="96.8" y="260.3" class="st2" width="5.2" height="5.2"/>
	<rect x="96.8" y="255" class="st2" width="5.2" height="5.3"/>
	<rect x="96.8" y="249.8" class="st1" width="5.2" height="5.2"/>
	<rect x="96.8" y="244.6" class="st1" width="5.2" height="5.3"/>
	<rect x="96.8" y="239.3" class="st1" width="5.2" height="5.3"/>
	<rect x="96.8" y="234.1" class="st1" width="5.2" height="5.2"/>
	<rect x="96.8" y="228.8" class="st1" width="5.2" height="5.3"/>
	<rect x="96.8" y="223.5" class="st1" width="5.2" height="5.3"/>
	<rect x="96.8" y="218.3" class="st1" width="5.2" height="5.2"/>
	<rect x="91.5" y="370.6" class="st4" width="5.3" height="5.2"/>
	<rect x="91.5" y="365.3" class="st2" width="5.3" height="5.3"/>
	<rect x="91.5" y="360" class="st2" width="5.3" height="5.3"/>
	<rect x="91.5" y="354.8" class="st2" width="5.3" height="5.2"/>
	<rect x="91.5" y="349.5" class="st3" width="5.3" height="5.3"/>
	<rect x="91.5" y="344.3" class="st3" width="5.3" height="5.3"/>
	<rect x="91.5" y="339.1" class="st3" width="5.3" height="5.2"/>
	<rect x="91.5" y="333.8" class="st5" width="5.3" height="5.3"/>
	<rect x="91.5" y="328.5" class="st3" width="5.3" height="5.3"/>
	<rect x="91.5" y="323.3" class="st3" width="5.3" height="5.2"/>
	<rect x="91.5" y="318" class="st3" width="5.3" height="5.3"/>
	<rect x="91.5" y="312.8" class="st3" width="5.3" height="5.3"/>
	<rect x="91.5" y="307.6" class="st3" width="5.3" height="5.2"/>
	<rect x="91.5" y="302.3" class="st3" width="5.3" height="5.3"/>
	<rect x="91.5" y="297" class="st3" width="5.3" height="5.3"/>
	<rect x="91.5" y="291.8" class="st2" width="5.3" height="5.2"/>
	<rect x="91.5" y="286.5" class="st2" width="5.3" height="5.3"/>
	<rect x="91.5" y="281.3" class="st2" width="5.3" height="5.3"/>
	<rect x="91.5" y="276.1" class="st2" width="5.3" height="5.2"/>
	<rect x="91.5" y="270.8" class="st2" width="5.3" height="5.3"/>
	<rect x="91.5" y="265.5" class="st2" width="5.3" height="5.3"/>
	<rect x="91.5" y="260.3" class="st2" width="5.3" height="5.2"/>
	<rect x="91.5" y="255" class="st1" width="5.3" height="5.3"/>
	<rect x="91.5" y="249.8" class="st1" width="5.3" height="5.2"/>
	<rect x="91.5" y="244.6" class="st1" width="5.3" height="5.3"/>
	<rect x="91.5" y="239.3" class="st1" width="5.3" height="5.3"/>
	<rect x="91.5" y="234.1" class="st1" width="5.3" height="5.2"/>
	<rect x="91.5" y="228.8" class="st1" width="5.3" height="5.3"/>
	<rect x="91.5" y="223.5" class="st1" width="5.3" height="5.3"/>
	<rect x="91.5" y="218.3" class="st1" width="5.3" height="5.2"/>
	<rect x="86.2" y="370.6" class="st4" width="5.3" height="5.2"/>
	<rect x="86.2" y="365.3" class="st2" width="5.3" height="5.3"/>
	<rect x="86.2" y="360" class="st2" width="5.3" height="5.3"/>
	<rect x="86.2" y="354.8" class="st2" width="5.3" height="5.2"/>
	<rect x="86.2" y="349.5" class="st3" width="5.3" height="5.3"/>
	<rect x="86.2" y="344.3" class="st3" width="5.3" height="5.3"/>
	<rect x="86.2" y="339.1" class="st3" width="5.3" height="5.2"/>
	<rect x="86.2" y="333.8" class="st5" width="5.3" height="5.3"/>
	<rect x="86.2" y="328.5" class="st3" width="5.3" height="5.3"/>
	<rect x="86.2" y="323.3" class="st3" width="5.3" height="5.2"/>
	<rect x="86.2" y="318" class="st3" width="5.3" height="5.3"/>
	<rect x="86.2" y="312.8" class="st3" width="5.3" height="5.3"/>
	<rect x="86.2" y="307.6" class="st3" width="5.3" height="5.2"/>
	<rect x="86.2" y="302.3" class="st3" width="5.3" height="5.3"/>
	<rect x="86.2" y="297" class="st3" width="5.3" height="5.3"/>
	<rect x="86.2" y="291.8" class="st2" width="5.3" height="5.2"/>
	<rect x="86.2" y="286.5" class="st2" width="5.3" height="5.3"/>
	<rect x="86.2" y="281.3" class="st2" width="5.3" height="5.3"/>
	<rect x="86.2" y="276.1" class="st1" width="5.3" height="5.2"/>
	<rect x="86.2" y="270.8" class="st2" width="5.3" height="5.3"/>
	<rect x="86.2" y="265.5" class="st2" width="5.3" height="5.3"/>
	<rect x="86.2" y="260.3" class="st1" width="5.3" height="5.2"/>
	<rect x="86.2" y="255" class="st1" width="5.3" height="5.3"/>
	<rect x="86.2" y="249.8" class="st1" width="5.3" height="5.2"/>
	<rect x="86.2" y="244.6" class="st1" width="5.3" height="5.3"/>
	<rect x="86.2" y="239.3" class="st1" width="5.3" height="5.3"/>
	<rect x="86.2" y="234.1" class="st1" width="5.3" height="5.2"/>
	<rect x="86.2" y="228.8" class="st7" width="5.3" height="5.3"/>
	<rect x="86.2" y="223.5" class="st1" width="5.3" height="5.3"/>
	<rect x="86.2" y="218.3" class="st1" width="5.3" height="5.2"/>
	<rect x="81" y="370.6" class="st4" width="5.2" height="5.2"/>
	<rect x="81" y="365.3" class="st2" width="5.2" height="5.3"/>
	<rect x="81" y="360" class="st2" width="5.2" height="5.3"/>
	<rect x="81" y="354.8" class="st2" width="5.2" height="5.2"/>
	<rect x="81" y="349.5" class="st3" width="5.2" height="5.3"/>
	<rect x="81" y="344.3" class="st3" width="5.2" height="5.3"/>
	<rect x="81" y="339.1" class="st3" width="5.2" height="5.2"/>
	<rect x="81" y="333.8" class="st5" width="5.2" height="5.3"/>
	<rect x="81" y="328.5" class="st3" width="5.2" height="5.3"/>
	<rect x="81" y="323.3" class="st3" width="5.2" height="5.2"/>
	<rect x="81" y="318" class="st3" width="5.2" height="5.3"/>
	<rect x="81" y="312.8" class="st3" width="5.2" height="5.3"/>
	<rect x="81" y="307.6" class="st3" width="5.2" height="5.2"/>
	<rect x="81" y="302.3" class="st3" width="5.2" height="5.3"/>
	<rect x="81" y="297" class="st3" width="5.2" height="5.3"/>
	<rect x="81" y="291.8" class="st3" width="5.2" height="5.2"/>
	<rect x="81" y="286.5" class="st2" width="5.2" height="5.3"/>
	<rect x="81" y="281.3" class="st2" width="5.2" height="5.3"/>
	<rect x="81" y="276.1" class="st2" width="5.2" height="5.2"/>
	<rect x="81" y="270.8" class="st1" width="5.2" height="5.3"/>
	<rect x="81" y="265.5" class="st1" width="5.2" height="5.3"/>
	<rect x="81" y="260.3" class="st1" width="5.2" height="5.2"/>
	<rect x="81" y="255" class="st1" width="5.2" height="5.3"/>
	<rect x="81" y="249.8" class="st1" width="5.2" height="5.2"/>
	<rect x="81" y="244.6" class="st1" width="5.2" height="5.3"/>
	<rect x="81" y="239.3" class="st1" width="5.2" height="5.3"/>
	<rect x="81" y="234.1" class="st1" width="5.2" height="5.2"/>
	<rect x="81" y="228.8" class="st7" width="5.2" height="5.3"/>
	<rect x="81" y="223.5" class="st1" width="5.2" height="5.3"/>
	<rect x="81" y="218.3" class="st1" width="5.2" height="5.2"/>
	<rect x="75.8" y="370.6" class="st4" width="5.3" height="5.2"/>
	<rect x="75.8" y="328.5" class="st2" width="5.3" height="5.3"/>
	<rect x="75.8" y="323.3" class="st3" width="5.3" height="5.2"/>
	<rect x="75.8" y="318" class="st3" width="5.3" height="5.3"/>
	<rect x="75.8" y="312.8" class="st3" width="5.3" height="5.3"/>
	<rect x="75.8" y="307.6" class="st3" width="5.3" height="5.2"/>
	<rect x="75.8" y="302.3" class="st3" width="5.3" height="5.3"/>
	<rect x="75.8" y="297" class="st3" width="5.3" height="5.3"/>
	<rect x="75.8" y="291.8" class="st1" width="5.3" height="5.2"/>
	<rect x="75.8" y="286.5" class="st1" width="5.3" height="5.3"/>
	<rect x="75.8" y="281.3" class="st3" width="5.3" height="5.3"/>
	<rect x="75.8" y="276.1" class="st2" width="5.3" height="5.2"/>
	<rect x="75.8" y="270.8" class="st2" width="5.3" height="5.3"/>
	<rect x="75.8" y="265.5" class="st2" width="5.3" height="5.3"/>
	<rect x="75.8" y="260.3" class="st1" width="5.3" height="5.2"/>
	<rect x="75.8" y="255" class="st1" width="5.3" height="5.3"/>
	<rect x="75.8" y="249.8" class="st1" width="5.3" height="5.2"/>
	<rect x="75.8" y="244.6" class="st1" width="5.3" height="5.3"/>
	<rect x="75.8" y="239.3" class="st1" width="5.3" height="5.3"/>
	<rect x="75.8" y="234.1" class="st7" width="5.3" height="5.2"/>
	<rect x="75.8" y="228.8" class="st1" width="5.3" height="5.3"/>
	<rect x="75.8" y="223.5" class="st1" width="5.3" height="5.3"/>
	<rect x="70.5" y="333.8" class="st2" width="5.3" height="5.3"/>
	<rect x="70.5" y="328.5" class="st2" width="5.3" height="5.3"/>
	<rect x="70.5" y="323.3" class="st3" width="5.3" height="5.2"/>
	<rect x="70.5" y="318" class="st3" width="5.3" height="5.3"/>
	<rect x="70.5" y="312.8" class="st3" width="5.3" height="5.3"/>
	<rect x="70.5" y="307.6" class="st3" width="5.3" height="5.2"/>
	<rect x="70.5" y="302.3" class="st3" width="5.3" height="5.3"/>
	<rect x="70.5" y="297" class="st1" width="5.3" height="5.3"/>
	<rect x="70.5" y="291.8" class="st1" width="5.3" height="5.2"/>
	<rect x="70.5" y="286.5" class="st1" width="5.3" height="5.3"/>
	<rect x="70.5" y="281.3" class="st1" width="5.3" height="5.3"/>
	<rect x="70.5" y="276.1" class="st2" width="5.3" height="5.2"/>
	<rect x="70.5" y="270.8" class="st2" width="5.3" height="5.3"/>
	<rect x="70.5" y="265.5" class="st2" width="5.3" height="5.3"/>
	<rect x="70.5" y="260.3" class="st1" width="5.3" height="5.2"/>
	<rect x="70.5" y="255" class="st1" width="5.3" height="5.3"/>
	<rect x="70.5" y="249.8" class="st1" width="5.3" height="5.2"/>
	<rect x="70.5" y="244.6" class="st1" width="5.3" height="5.3"/>
	<rect x="70.5" y="239.3" class="st7" width="5.3" height="5.3"/>
	<rect x="70.5" y="234.1" class="st1" width="5.3" height="5.2"/>
	<rect x="70.5" y="228.8" class="st1" width="5.3" height="5.3"/>
	<rect x="65.3" y="339.1" class="st2" width="5.2" height="5.2"/>
	<rect x="65.3" y="333.8" class="st2" width="5.2" height="5.3"/>
	<rect x="65.3" y="328.5" class="st2" width="5.2" height="5.3"/>
	<rect x="65.3" y="323.3" class="st3" width="5.2" height="5.2"/>
	<rect x="65.3" y="318" class="st3" width="5.2" height="5.3"/>
	<rect x="65.3" y="312.8" class="st3" width="5.2" height="5.3"/>
	<rect x="65.3" y="307.6" class="st1" width="5.2" height="5.2"/>
	<rect x="65.3" y="302.3" class="st1" width="5.2" height="5.3"/>
	<rect x="65.3" y="297" class="st1" width="5.2" height="5.3"/>
	<rect x="65.3" y="291.8" class="st1" width="5.2" height="5.2"/>
	<rect x="65.3" y="286.5" class="st1" width="5.2" height="5.3"/>
	<rect x="65.3" y="281.3" class="st1" width="5.2" height="5.3"/>
	<rect x="65.3" y="276.1" class="st1" width="5.2" height="5.2"/>
	<rect x="65.3" y="270.8" class="st1" width="5.2" height="5.3"/>
	<rect x="65.3" y="265.5" class="st1" width="5.2" height="5.3"/>
	<rect x="65.3" y="260.3" class="st1" width="5.2" height="5.2"/>
	<rect x="65.3" y="255" class="st1" width="5.2" height="5.3"/>
	<rect x="65.3" y="249.8" class="st1" width="5.2" height="5.2"/>
	<rect x="65.3" y="244.6" class="st7" width="5.2" height="5.3"/>
	<rect x="65.3" y="239.3" class="st1" width="5.2" height="5.3"/>
	<rect x="65.3" y="234.1" class="st1" width="5.2" height="5.2"/>
	<rect x="60" y="312.8" class="st1" width="5.3" height="5.3"/>
	<rect x="60" y="307.6" class="st1" width="5.3" height="5.2"/>
	<rect x="60" y="302.3" class="st1" width="5.3" height="5.3"/>
	<rect x="60" y="297" class="st1" width="5.3" height="5.3"/>
	<rect x="60" y="291.8" class="st1" width="5.3" height="5.2"/>
	<rect x="60" y="286.5" class="st1" width="5.3" height="5.3"/>
	<rect x="60" y="281.3" class="st1" width="5.3" height="5.3"/>
	<rect x="60" y="276.1" class="st1" width="5.3" height="5.2"/>
	<rect x="60" y="270.8" class="st1" width="5.3" height="5.3"/>
	<rect x="60" y="265.5" class="st1" width="5.3" height="5.3"/>
	<rect x="60" y="260.3" class="st1" width="5.3" height="5.2"/>
	<rect x="60" y="255" class="st1" width="5.3" height="5.3"/>
	<rect x="60" y="249.8" class="st1" width="5.3" height="5.2"/>
	<rect x="60" y="244.6" class="st1" width="5.3" height="5.3"/>
	<rect x="60" y="239.3" class="st1" width="5.3" height="5.3"/>
	<rect x="54.7" y="312.8" class="st1" width="5.3" height="5.3"/>
	<rect x="54.7" y="307.6" class="st1" width="5.3" height="5.2"/>
	<rect x="54.7" y="302.3" class="st1" width="5.3" height="5.3"/>
	<rect x="54.7" y="297" class="st1" width="5.3" height="5.3"/>
	<rect x="54.7" y="291.8" class="st1" width="5.3" height="5.2"/>
	<rect x="54.7" y="286.5" class="st1" width="5.3" height="5.3"/>
	<rect x="54.7" y="281.3" class="st1" width="5.3" height="5.3"/>
	<rect x="54.7" y="276.1" class="st1" width="5.3" height="5.2"/>
	<rect x="49.5" y="307.6" class="st1" width="5.2" height="5.2"/>
	<rect x="49.5" y="302.3" class="st1" width="5.2" height="5.3"/>
	<rect x="49.5" y="297" class="st1" width="5.2" height="5.3"/>
	<rect x="49.5" y="291.8" class="st1" width="5.2" height="5.2"/>
	<rect x="49.5" y="286.5" class="st1" width="5.2" height="5.3"/>
	<rect x="49.5" y="281.3" class="st1" width="5.2" height="5.3"/>
	<rect x="44.2" y="302.3" class="st1" width="5.3" height="5.3"/>
	<rect x="44.2" y="297" class="st1" width="5.3" height="5.3"/>
	<rect x="44.2" y="291.8" class="st1" width="5.3" height="5.2"/>
	<rect x="44.2" y="286.5" class="st1" width="5.3" height="5.3"/>
</g>
</svg>
