<?xml version="1.0" encoding="utf-8"?>
<!-- Generator: Adobe Illustrator 19.2.0, SVG Export Plug-In . SVG Version: 6.00 Build 0)  -->
<svg version="1.1" id="Layer_1" xmlns="http://www.w3.org/2000/svg" xmlns:xlink="http://www.w3.org/1999/xlink" x="0px" y="0px"
	 viewBox="0 0 200 400" style="enable-background:new 0 0 200 400;" xml:space="preserve">
<style type="text/css">
	.st0{fill:none;stroke:#E0277F;stroke-width:5;stroke-miterlimit:10;}
	.st1{fill:#F9A825;}
	.st2{fill:#009688;}
	.st3{fill:#FFCCBC;}
	.st4{fill:#4A148C;}
	.st5{fill:#37474F;}
	.st6{fill:#263238;}
	.st7{fill:#E91E63;}
	.st8{fill:#FBCB7C;}
</style>
<line class="st0" x1="96.7" y1="6.9" x2="96.7" y2="181.8"/>
<g>
	<rect x="142.9" y="278.6" class="st1" width="6.2" height="6.2"/>
	<rect x="142.9" y="254" class="st1" width="6.2" height="6.2"/>
	<rect x="136.8" y="315.5" class="st2" width="6.1" height="6.1"/>
	<rect x="136.8" y="272.4" class="st1" width="6.1" height="6.2"/>
	<rect x="136.8" y="254" class="st1" width="6.1" height="6.2"/>
	<rect x="136.8" y="247.8" class="st1" width="6.1" height="6.1"/>
	<rect x="136.8" y="241.7" class="st1" width="6.1" height="6.2"/>
	<rect x="130.6" y="340.1" class="st3" width="6.2" height="6.2"/>
	<rect x="130.6" y="334" class="st3" width="6.2" height="6.1"/>
	<rect x="130.6" y="327.8" class="st4" width="6.2" height="6.2"/>
	<rect x="130.6" y="321.7" class="st4" width="6.2" height="6.2"/>
	<rect x="130.6" y="315.5" class="st2" width="6.2" height="6.1"/>
	<rect x="130.6" y="309.4" class="st2" width="6.2" height="6.2"/>
	<rect x="130.6" y="284.7" class="st3" width="6.2" height="6.1"/>
	<rect x="130.6" y="278.6" class="st3" width="6.2" height="6.2"/>
	<rect x="130.6" y="272.4" class="st3" width="6.2" height="6.2"/>
	<rect x="130.6" y="266.3" class="st1" width="6.2" height="6.1"/>
	<rect x="130.6" y="260.1" class="st1" width="6.2" height="6.2"/>
	<rect x="130.6" y="254" class="st1" width="6.2" height="6.2"/>
	<rect x="130.6" y="247.8" class="st1" width="6.2" height="6.1"/>
	<rect x="130.6" y="241.7" class="st1" width="6.2" height="6.2"/>
	<rect x="130.6" y="235.5" class="st1" width="6.2" height="6.2"/>
	<rect x="124.4" y="370.9" class="st2" width="6.2" height="6.1"/>
	<rect x="124.4" y="340.1" class="st3" width="6.2" height="6.2"/>
	<rect x="124.4" y="334" class="st3" width="6.2" height="6.1"/>
	<rect x="124.4" y="327.8" class="st4" width="6.2" height="6.2"/>
	<rect x="124.4" y="321.7" class="st4" width="6.2" height="6.2"/>
	<rect x="124.4" y="315.5" class="st2" width="6.2" height="6.1"/>
	<rect x="124.4" y="309.4" class="st2" width="6.2" height="6.2"/>
	<rect x="124.4" y="303.2" class="st2" width="6.2" height="6.2"/>
	<rect x="124.4" y="297.1" class="st1" width="6.2" height="6.1"/>
	<rect x="124.4" y="290.9" class="st3" width="6.2" height="6.2"/>
	<rect x="124.4" y="284.7" class="st3" width="6.2" height="6.1"/>
	<rect x="124.4" y="278.6" class="st3" width="6.2" height="6.2"/>
	<rect x="124.4" y="272.4" class="st3" width="6.2" height="6.2"/>
	<rect x="124.4" y="266.3" class="st3" width="6.2" height="6.1"/>
	<rect x="124.4" y="260.1" class="st3" width="6.2" height="6.2"/>
	<rect x="124.4" y="254" class="st1" width="6.2" height="6.2"/>
	<rect x="124.4" y="247.8" class="st1" width="6.2" height="6.1"/>
	<rect x="124.4" y="241.7" class="st1" width="6.2" height="6.2"/>
	<rect x="124.4" y="235.5" class="st1" width="6.2" height="6.2"/>
	<rect x="124.4" y="229.4" class="st1" width="6.2" height="6.1"/>
	<rect x="118.3" y="370.9" class="st2" width="6.1" height="6.1"/>
	<rect x="118.3" y="364.7" class="st3" width="6.1" height="6.2"/>
	<rect x="118.3" y="358.6" class="st3" width="6.1" height="6.2"/>
	<rect x="118.3" y="352.4" class="st4" width="6.1" height="6.1"/>
	<rect x="118.3" y="346.3" class="st4" width="6.1" height="6.2"/>
	<rect x="118.3" y="340.1" class="st5" width="6.1" height="6.2"/>
	<rect x="118.3" y="334" class="st3" width="6.1" height="6.1"/>
	<rect x="118.3" y="327.8" class="st4" width="6.1" height="6.2"/>
	<rect x="118.3" y="321.7" class="st4" width="6.1" height="6.2"/>
	<rect x="118.3" y="315.5" class="st4" width="6.1" height="6.1"/>
	<rect x="118.3" y="309.4" class="st2" width="6.1" height="6.2"/>
	<rect x="118.3" y="303.2" class="st2" width="6.1" height="6.2"/>
	<rect x="118.3" y="297.1" class="st2" width="6.1" height="6.1"/>
	<rect x="118.3" y="290.9" class="st3" width="6.1" height="6.2"/>
	<rect x="118.3" y="284.7" class="st3" width="6.1" height="6.1"/>
	<rect x="118.3" y="278.6" class="st3" width="6.1" height="6.2"/>
	<rect x="118.3" y="272.4" class="st3" width="6.1" height="6.2"/>
	<rect x="118.3" y="266.3" class="st6" width="6.1" height="6.1"/>
	<rect x="118.3" y="260.1" class="st6" width="6.1" height="6.2"/>
	<rect x="118.3" y="254" class="st1" width="6.1" height="6.2"/>
	<rect x="118.3" y="247.8" class="st1" width="6.1" height="6.1"/>
	<rect x="118.3" y="241.7" class="st1" width="6.1" height="6.2"/>
	<rect x="118.3" y="235.5" class="st1" width="6.1" height="6.2"/>
	<rect x="118.3" y="229.4" class="st1" width="6.1" height="6.1"/>
	<rect x="118.3" y="223.2" class="st1" width="6.1" height="6.2"/>
	<rect x="112.1" y="370.9" class="st2" width="6.2" height="6.1"/>
	<rect x="112.1" y="364.7" class="st3" width="6.2" height="6.2"/>
	<rect x="112.1" y="358.6" class="st3" width="6.2" height="6.2"/>
	<rect x="112.1" y="352.4" class="st4" width="6.2" height="6.1"/>
	<rect x="112.1" y="346.3" class="st4" width="6.2" height="6.2"/>
	<rect x="112.1" y="340.1" class="st5" width="6.2" height="6.2"/>
	<rect x="112.1" y="334" class="st4" width="6.2" height="6.1"/>
	<rect x="112.1" y="327.8" class="st4" width="6.2" height="6.2"/>
	<rect x="112.1" y="321.7" class="st4" width="6.2" height="6.2"/>
	<rect x="112.1" y="315.5" class="st4" width="6.2" height="6.1"/>
	<rect x="112.1" y="309.4" class="st2" width="6.2" height="6.2"/>
	<rect x="112.1" y="303.2" class="st2" width="6.2" height="6.2"/>
	<rect x="112.1" y="297.1" class="st2" width="6.2" height="6.1"/>
	<rect x="112.1" y="290.9" class="st3" width="6.2" height="6.2"/>
	<rect x="112.1" y="284.7" class="st7" width="6.2" height="6.1"/>
	<rect x="112.1" y="278.6" class="st3" width="6.2" height="6.2"/>
	<rect x="112.1" y="272.4" class="st3" width="6.2" height="6.2"/>
	<rect x="112.1" y="266.3" class="st3" width="6.2" height="6.1"/>
	<rect x="112.1" y="260.1" class="st3" width="6.2" height="6.2"/>
	<rect x="112.1" y="254" class="st3" width="6.2" height="6.2"/>
	<rect x="112.1" y="247.8" class="st1" width="6.2" height="6.1"/>
	<rect x="112.1" y="241.7" class="st1" width="6.2" height="6.2"/>
	<rect x="112.1" y="235.5" class="st1" width="6.2" height="6.2"/>
	<rect x="112.1" y="229.4" class="st1" width="6.2" height="6.1"/>
	<rect x="112.1" y="223.2" class="st1" width="6.2" height="6.2"/>
	<rect x="112.1" y="217.1" class="st1" width="6.2" height="6.2"/>
	<rect x="106" y="352.4" class="st4" width="6.2" height="6.1"/>
	<rect x="106" y="346.3" class="st4" width="6.2" height="6.2"/>
	<rect x="106" y="340.1" class="st5" width="6.2" height="6.2"/>
	<rect x="106" y="334" class="st4" width="6.2" height="6.1"/>
	<rect x="106" y="327.8" class="st4" width="6.2" height="6.2"/>
	<rect x="106" y="321.7" class="st4" width="6.2" height="6.2"/>
	<rect x="106" y="315.5" class="st2" width="6.2" height="6.1"/>
	<rect x="106" y="309.4" class="st2" width="6.2" height="6.2"/>
	<rect x="106" y="303.2" class="st2" width="6.2" height="6.2"/>
	<rect x="106" y="297.1" class="st2" width="6.2" height="6.1"/>
	<rect x="106" y="290.9" class="st3" width="6.2" height="6.2"/>
	<rect x="106" y="284.7" class="st7" width="6.2" height="6.1"/>
	<rect x="106" y="278.6" class="st3" width="6.2" height="6.2"/>
	<rect x="106" y="272.4" class="st3" width="6.2" height="6.2"/>
	<rect x="106" y="266.3" class="st3" width="6.2" height="6.1"/>
	<rect x="106" y="260.1" class="st3" width="6.2" height="6.2"/>
	<rect x="106" y="254" class="st3" width="6.2" height="6.2"/>
	<rect x="106" y="247.8" class="st1" width="6.2" height="6.1"/>
	<rect x="106" y="241.7" class="st1" width="6.2" height="6.2"/>
	<rect x="106" y="235.5" class="st1" width="6.2" height="6.2"/>
	<rect x="106" y="229.4" class="st1" width="6.2" height="6.1"/>
	<rect x="106" y="223.2" class="st1" width="6.2" height="6.2"/>
	<rect x="106" y="217.1" class="st1" width="6.2" height="6.2"/>
	<rect x="99.8" y="352.4" class="st4" width="6.1" height="6.1"/>
	<rect x="99.8" y="346.3" class="st4" width="6.1" height="6.2"/>
	<rect x="99.8" y="340.1" class="st5" width="6.1" height="6.2"/>
	<rect x="99.8" y="334" class="st4" width="6.1" height="6.1"/>
	<rect x="99.8" y="327.8" class="st4" width="6.1" height="6.2"/>
	<rect x="99.8" y="321.7" class="st4" width="6.1" height="6.2"/>
	<rect x="99.8" y="315.5" class="st2" width="6.1" height="6.1"/>
	<rect x="99.8" y="309.4" class="st2" width="6.1" height="6.2"/>
	<rect x="99.8" y="303.2" class="st2" width="6.1" height="6.2"/>
	<rect x="99.8" y="297.1" class="st2" width="6.1" height="6.1"/>
	<rect x="99.8" y="290.9" class="st3" width="6.1" height="6.2"/>
	<rect x="99.8" y="284.7" class="st3" width="6.1" height="6.1"/>
	<rect x="99.8" y="278.6" class="st7" width="6.1" height="6.2"/>
	<rect x="99.8" y="272.4" class="st3" width="6.1" height="6.2"/>
	<rect x="99.8" y="266.3" class="st6" width="6.1" height="6.1"/>
	<rect x="99.8" y="260.1" class="st6" width="6.1" height="6.2"/>
	<rect x="99.8" y="254" class="st1" width="6.1" height="6.2"/>
	<rect x="99.8" y="247.8" class="st1" width="6.1" height="6.1"/>
	<rect x="99.8" y="241.7" class="st1" width="6.1" height="6.2"/>
	<rect x="99.8" y="235.5" class="st1" width="6.1" height="6.2"/>
	<rect x="99.8" y="229.4" class="st1" width="6.1" height="6.1"/>
	<rect x="99.8" y="223.2" class="st1" width="6.1" height="6.2"/>
	<rect x="99.8" y="217.1" class="st1" width="6.1" height="6.2"/>
	<rect x="93.7" y="352.4" class="st4" width="6.2" height="6.1"/>
	<rect x="93.7" y="346.3" class="st4" width="6.2" height="6.2"/>
	<rect x="93.7" y="340.1" class="st5" width="6.2" height="6.2"/>
	<rect x="93.7" y="334" class="st3" width="6.2" height="6.1"/>
	<rect x="93.7" y="327.8" class="st4" width="6.2" height="6.2"/>
	<rect x="93.7" y="321.7" class="st2" width="6.2" height="6.2"/>
	<rect x="93.7" y="315.5" class="st4" width="6.2" height="6.1"/>
	<rect x="93.7" y="309.4" class="st2" width="6.2" height="6.2"/>
	<rect x="93.7" y="303.2" class="st2" width="6.2" height="6.2"/>
	<rect x="93.7" y="297.1" class="st2" width="6.2" height="6.1"/>
	<rect x="93.7" y="290.9" class="st3" width="6.2" height="6.2"/>
	<rect x="93.7" y="284.7" class="st3" width="6.2" height="6.1"/>
	<rect x="93.7" y="278.6" class="st3" width="6.2" height="6.2"/>
	<rect x="93.7" y="272.4" class="st3" width="6.2" height="6.2"/>
	<rect x="93.7" y="266.3" class="st3" width="6.2" height="6.1"/>
	<rect x="93.7" y="260.1" class="st3" width="6.2" height="6.2"/>
	<rect x="93.7" y="254" class="st1" width="6.2" height="6.2"/>
	<rect x="93.7" y="247.8" class="st1" width="6.2" height="6.1"/>
	<rect x="93.7" y="241.7" class="st1" width="6.2" height="6.2"/>
	<rect x="93.7" y="235.5" class="st1" width="6.2" height="6.2"/>
	<rect x="93.7" y="229.4" class="st1" width="6.2" height="6.1"/>
	<rect x="93.7" y="223.2" class="st1" width="6.2" height="6.2"/>
	<rect x="93.7" y="217.1" class="st1" width="6.2" height="6.2"/>
	<rect x="87.5" y="358.6" class="st3" width="6.2" height="6.2"/>
	<rect x="87.5" y="352.4" class="st4" width="6.2" height="6.1"/>
	<rect x="87.5" y="346.3" class="st4" width="6.2" height="6.2"/>
	<rect x="87.5" y="340.1" class="st3" width="6.2" height="6.2"/>
	<rect x="87.5" y="334" class="st3" width="6.2" height="6.1"/>
	<rect x="87.5" y="327.8" class="st4" width="6.2" height="6.2"/>
	<rect x="87.5" y="321.7" class="st4" width="6.2" height="6.2"/>
	<rect x="87.5" y="315.5" class="st4" width="6.2" height="6.1"/>
	<rect x="87.5" y="309.4" class="st2" width="6.2" height="6.2"/>
	<rect x="87.5" y="303.2" class="st1" width="6.2" height="6.2"/>
	<rect x="87.5" y="297.1" class="st1" width="6.2" height="6.1"/>
	<rect x="87.5" y="290.9" class="st3" width="6.2" height="6.2"/>
	<rect x="87.5" y="284.7" class="st3" width="6.2" height="6.1"/>
	<rect x="87.5" y="278.6" class="st1" width="6.2" height="6.2"/>
	<rect x="87.5" y="272.4" class="st3" width="6.2" height="6.2"/>
	<rect x="87.5" y="266.3" class="st3" width="6.2" height="6.1"/>
	<rect x="87.5" y="260.1" class="st1" width="6.2" height="6.2"/>
	<rect x="87.5" y="254" class="st1" width="6.2" height="6.2"/>
	<rect x="87.5" y="247.8" class="st1" width="6.2" height="6.1"/>
	<rect x="87.5" y="241.7" class="st1" width="6.2" height="6.2"/>
	<rect x="87.5" y="235.5" class="st1" width="6.2" height="6.2"/>
	<rect x="87.5" y="229.4" class="st1" width="6.2" height="6.1"/>
	<rect x="87.5" y="223.2" class="st1" width="6.2" height="6.2"/>
	<rect x="87.5" y="217.1" class="st1" width="6.2" height="6.2"/>
	<rect x="81.4" y="370.9" class="st2" width="6.1" height="6.1"/>
	<rect x="81.4" y="364.7" class="st3" width="6.1" height="6.2"/>
	<rect x="81.4" y="358.6" class="st3" width="6.1" height="6.2"/>
	<rect x="81.4" y="352.4" class="st4" width="6.1" height="6.1"/>
	<rect x="81.4" y="346.3" class="st4" width="6.1" height="6.2"/>
	<rect x="81.4" y="340.1" class="st3" width="6.1" height="6.2"/>
	<rect x="81.4" y="334" class="st3" width="6.1" height="6.1"/>
	<rect x="81.4" y="327.8" class="st4" width="6.1" height="6.2"/>
	<rect x="81.4" y="321.7" class="st4" width="6.1" height="6.2"/>
	<rect x="81.4" y="315.5" class="st2" width="6.1" height="6.1"/>
	<rect x="81.4" y="309.4" class="st1" width="6.1" height="6.2"/>
	<rect x="81.4" y="303.2" class="st1" width="6.1" height="6.2"/>
	<rect x="81.4" y="297.1" class="st1" width="6.1" height="6.1"/>
	<rect x="81.4" y="290.9" class="st1" width="6.1" height="6.2"/>
	<rect x="81.4" y="284.7" class="st3" width="6.1" height="6.1"/>
	<rect x="81.4" y="278.6" class="st3" width="6.1" height="6.2"/>
	<rect x="81.4" y="272.4" class="st1" width="6.1" height="6.2"/>
	<rect x="81.4" y="266.3" class="st3" width="6.1" height="6.1"/>
	<rect x="81.4" y="260.1" class="st1" width="6.1" height="6.2"/>
	<rect x="81.4" y="254" class="st1" width="6.1" height="6.2"/>
	<rect x="81.4" y="247.8" class="st1" width="6.1" height="6.1"/>
	<rect x="81.4" y="241.7" class="st1" width="6.1" height="6.2"/>
	<rect x="81.4" y="235.5" class="st1" width="6.1" height="6.2"/>
	<rect x="81.4" y="229.4" class="st8" width="6.1" height="6.1"/>
	<rect x="81.4" y="223.2" class="st1" width="6.1" height="6.2"/>
	<rect x="81.4" y="217.1" class="st1" width="6.1" height="6.2"/>
	<rect x="75.2" y="370.9" class="st2" width="6.2" height="6.1"/>
	<rect x="75.2" y="364.7" class="st3" width="6.2" height="6.2"/>
	<rect x="75.2" y="358.6" class="st3" width="6.2" height="6.2"/>
	<rect x="75.2" y="352.4" class="st4" width="6.2" height="6.1"/>
	<rect x="75.2" y="346.3" class="st4" width="6.2" height="6.2"/>
	<rect x="75.2" y="340.1" class="st3" width="6.2" height="6.2"/>
	<rect x="75.2" y="334" class="st3" width="6.2" height="6.1"/>
	<rect x="75.2" y="327.8" class="st4" width="6.2" height="6.2"/>
	<rect x="75.2" y="321.7" class="st4" width="6.2" height="6.2"/>
	<rect x="75.2" y="315.5" class="st4" width="6.2" height="6.1"/>
	<rect x="75.2" y="309.4" class="st1" width="6.2" height="6.2"/>
	<rect x="75.2" y="303.2" class="st1" width="6.2" height="6.2"/>
	<rect x="75.2" y="297.1" class="st1" width="6.2" height="6.1"/>
	<rect x="75.2" y="290.9" class="st1" width="6.2" height="6.2"/>
	<rect x="75.2" y="284.7" class="st1" width="6.2" height="6.1"/>
	<rect x="75.2" y="278.6" class="st3" width="6.2" height="6.2"/>
	<rect x="75.2" y="272.4" class="st3" width="6.2" height="6.2"/>
	<rect x="75.2" y="266.3" class="st1" width="6.2" height="6.1"/>
	<rect x="75.2" y="260.1" class="st1" width="6.2" height="6.2"/>
	<rect x="75.2" y="254" class="st1" width="6.2" height="6.2"/>
	<rect x="75.2" y="247.8" class="st1" width="6.2" height="6.1"/>
	<rect x="75.2" y="241.7" class="st1" width="6.2" height="6.2"/>
	<rect x="75.2" y="235.5" class="st1" width="6.2" height="6.2"/>
	<rect x="75.2" y="229.4" class="st8" width="6.2" height="6.1"/>
	<rect x="75.2" y="223.2" class="st1" width="6.2" height="6.2"/>
	<rect x="75.2" y="217.1" class="st1" width="6.2" height="6.2"/>
	<rect x="69.1" y="370.9" class="st2" width="6.2" height="6.1"/>
	<rect x="69.1" y="352.4" class="st4" width="6.2" height="6.1"/>
	<rect x="69.1" y="346.3" class="st4" width="6.2" height="6.2"/>
	<rect x="69.1" y="340.1" class="st4" width="6.2" height="6.2"/>
	<rect x="69.1" y="334" class="st4" width="6.2" height="6.1"/>
	<rect x="69.1" y="327.8" class="st4" width="6.2" height="6.2"/>
	<rect x="69.1" y="321.7" class="st1" width="6.2" height="6.2"/>
	<rect x="69.1" y="315.5" class="st1" width="6.2" height="6.1"/>
	<rect x="69.1" y="309.4" class="st1" width="6.2" height="6.2"/>
	<rect x="69.1" y="303.2" class="st1" width="6.2" height="6.2"/>
	<rect x="69.1" y="297.1" class="st1" width="6.2" height="6.1"/>
	<rect x="69.1" y="290.9" class="st1" width="6.2" height="6.2"/>
	<rect x="69.1" y="284.7" class="st1" width="6.2" height="6.1"/>
	<rect x="69.1" y="278.6" class="st3" width="6.2" height="6.2"/>
	<rect x="69.1" y="272.4" class="st3" width="6.2" height="6.2"/>
	<rect x="69.1" y="266.3" class="st3" width="6.2" height="6.1"/>
	<rect x="69.1" y="260.1" class="st3" width="6.2" height="6.2"/>
	<rect x="69.1" y="254" class="st1" width="6.2" height="6.2"/>
	<rect x="69.1" y="247.8" class="st1" width="6.2" height="6.1"/>
	<rect x="69.1" y="241.7" class="st1" width="6.2" height="6.2"/>
	<rect x="69.1" y="235.5" class="st1" width="6.2" height="6.2"/>
	<rect x="69.1" y="229.4" class="st8" width="6.2" height="6.1"/>
	<rect x="69.1" y="223.2" class="st1" width="6.2" height="6.2"/>
	<rect x="69.1" y="217.1" class="st1" width="6.2" height="6.2"/>
	<rect x="62.9" y="340.1" class="st1" width="6.1" height="6.2"/>
	<rect x="62.9" y="334" class="st1" width="6.1" height="6.1"/>
	<rect x="62.9" y="327.8" class="st1" width="6.1" height="6.2"/>
	<rect x="62.9" y="321.7" class="st1" width="6.1" height="6.2"/>
	<rect x="62.9" y="315.5" class="st1" width="6.1" height="6.1"/>
	<rect x="62.9" y="309.4" class="st1" width="6.1" height="6.2"/>
	<rect x="62.9" y="303.2" class="st1" width="6.1" height="6.2"/>
	<rect x="62.9" y="297.1" class="st1" width="6.1" height="6.1"/>
	<rect x="62.9" y="290.9" class="st1" width="6.1" height="6.2"/>
	<rect x="62.9" y="284.7" class="st1" width="6.1" height="6.1"/>
	<rect x="62.9" y="278.6" class="st3" width="6.1" height="6.2"/>
	<rect x="62.9" y="272.4" class="st3" width="6.1" height="6.2"/>
	<rect x="62.9" y="266.3" class="st3" width="6.1" height="6.1"/>
	<rect x="62.9" y="260.1" class="st3" width="6.1" height="6.2"/>
	<rect x="62.9" y="254" class="st1" width="6.1" height="6.2"/>
	<rect x="62.9" y="247.8" class="st1" width="6.1" height="6.1"/>
	<rect x="62.9" y="241.7" class="st1" width="6.1" height="6.2"/>
	<rect x="62.9" y="235.5" class="st8" width="6.1" height="6.2"/>
	<rect x="62.9" y="229.4" class="st1" width="6.1" height="6.1"/>
	<rect x="62.9" y="223.2" class="st1" width="6.1" height="6.2"/>
	<rect x="56.7" y="340.1" class="st1" width="6.2" height="6.2"/>
	<rect x="56.7" y="334" class="st1" width="6.2" height="6.1"/>
	<rect x="56.7" y="321.7" class="st1" width="6.2" height="6.2"/>
	<rect x="56.7" y="315.5" class="st1" width="6.2" height="6.1"/>
	<rect x="56.7" y="309.4" class="st1" width="6.2" height="6.2"/>
	<rect x="56.7" y="303.2" class="st1" width="6.2" height="6.2"/>
	<rect x="56.7" y="297.1" class="st1" width="6.2" height="6.1"/>
	<rect x="56.7" y="290.9" class="st1" width="6.2" height="6.2"/>
	<rect x="56.7" y="284.7" class="st1" width="6.2" height="6.1"/>
	<rect x="56.7" y="278.6" class="st1" width="6.2" height="6.2"/>
	<rect x="56.7" y="272.4" class="st1" width="6.2" height="6.2"/>
	<rect x="56.7" y="266.3" class="st1" width="6.2" height="6.1"/>
	<rect x="56.7" y="260.1" class="st1" width="6.2" height="6.2"/>
	<rect x="56.7" y="254" class="st1" width="6.2" height="6.2"/>
	<rect x="56.7" y="247.8" class="st1" width="6.2" height="6.1"/>
	<rect x="56.7" y="241.7" class="st8" width="6.2" height="6.2"/>
	<rect x="56.7" y="235.5" class="st1" width="6.2" height="6.2"/>
	<rect x="56.7" y="229.4" class="st1" width="6.2" height="6.1"/>
	<rect x="50.6" y="334" class="st1" width="6.2" height="6.1"/>
	<rect x="50.6" y="297.1" class="st1" width="6.2" height="6.1"/>
	<rect x="50.6" y="290.9" class="st1" width="6.2" height="6.2"/>
	<rect x="50.6" y="284.7" class="st1" width="6.2" height="6.1"/>
	<rect x="50.6" y="278.6" class="st1" width="6.2" height="6.2"/>
	<rect x="50.6" y="272.4" class="st1" width="6.2" height="6.2"/>
	<rect x="50.6" y="266.3" class="st1" width="6.2" height="6.1"/>
	<rect x="50.6" y="260.1" class="st1" width="6.2" height="6.2"/>
	<rect x="50.6" y="254" class="st1" width="6.2" height="6.2"/>
	<rect x="50.6" y="247.8" class="st1" width="6.2" height="6.1"/>
	<rect x="50.6" y="241.7" class="st1" width="6.2" height="6.2"/>
	<rect x="50.6" y="235.5" class="st1" width="6.2" height="6.2"/>
	<rect x="44.4" y="327.8" class="st1" width="6.1" height="6.2"/>
	<rect x="44.4" y="290.9" class="st1" width="6.1" height="6.2"/>
	<rect x="44.4" y="284.7" class="st1" width="6.1" height="6.1"/>
	<rect x="44.4" y="278.6" class="st1" width="6.1" height="6.2"/>
	<rect x="44.4" y="272.4" class="st1" width="6.1" height="6.2"/>
	<rect x="44.4" y="266.3" class="st1" width="6.1" height="6.1"/>
	<rect x="44.4" y="260.1" class="st1" width="6.1" height="6.2"/>
	<rect x="44.4" y="254" class="st1" width="6.1" height="6.2"/>
	<rect x="44.4" y="247.8" class="st1" width="6.1" height="6.1"/>
	<rect x="44.4" y="241.7" class="st1" width="6.1" height="6.2"/>
</g>
</svg>
