<?xml version="1.0" encoding="utf-8"?>
<!-- Generator: Adobe Illustrator 19.2.0, SVG Export Plug-In . SVG Version: 6.00 Build 0)  -->
<svg version="1.1" id="Layer_1" xmlns="http://www.w3.org/2000/svg" xmlns:xlink="http://www.w3.org/1999/xlink" x="0px" y="0px"
	 viewBox="0 0 200 200" style="enable-background:new 0 0 200 200;" xml:space="preserve">
<style type="text/css">
	.st0{fill:#F9A825;}
	.st1{fill:#FFCCBC;}
	.st2{fill:#E91E63;}
	.st3{fill:#263238;}
	.st4{fill:#37474F;}
	.st5{fill:#FAFAFA;}
	.st6{fill:#FBCB7C;}
</style>
<g>
	<rect x="153.4" y="63.1" class="st0" width="6" height="6"/>
	<rect x="147.4" y="135.1" class="st1" width="6" height="6"/>
	<rect x="147.4" y="129.2" class="st1" width="6" height="6"/>
	<rect x="147.4" y="123.1" class="st2" width="6" height="6"/>
	<rect x="147.4" y="75.2" class="st0" width="6" height="6"/>
	<rect x="147.4" y="63.1" class="st0" width="6" height="6"/>
	<rect x="147.4" y="57.2" class="st0" width="6" height="6"/>
	<rect x="147.4" y="51.1" class="st0" width="6" height="6"/>
	<rect x="147.4" y="45.2" class="st0" width="6" height="6"/>
	<rect x="141.3" y="183.2" class="st3" width="6" height="6"/>
	<rect x="141.3" y="135.1" class="st1" width="6" height="6"/>
	<rect x="141.3" y="129.2" class="st1" width="6" height="6"/>
	<rect x="141.3" y="123.1" class="st2" width="6" height="6"/>
	<rect x="141.3" y="117.1" class="st2" width="6" height="6"/>
	<rect x="141.3" y="111.2" class="st2" width="6" height="6"/>
	<rect x="141.3" y="105.1" class="st2" width="6" height="6"/>
	<rect x="141.3" y="99.1" class="st2" width="6" height="6"/>
	<rect x="141.3" y="93.2" class="st1" width="6" height="6"/>
	<rect x="141.3" y="87.1" class="st1" width="6" height="6"/>
	<rect x="141.3" y="81.1" class="st1" width="6" height="6"/>
	<rect x="141.3" y="75.2" class="st1" width="6" height="6"/>
	<rect x="141.3" y="69.1" class="st1" width="6" height="6"/>
	<rect x="141.3" y="63.1" class="st0" width="6" height="6"/>
	<rect x="141.3" y="57.2" class="st0" width="6" height="6"/>
	<rect x="141.3" y="51.1" class="st0" width="6" height="6"/>
	<rect x="141.3" y="45.2" class="st0" width="6" height="6"/>
	<rect x="141.3" y="39.1" class="st0" width="6" height="6"/>
	<rect x="141.3" y="33.1" class="st0" width="6" height="6"/>
	<rect x="135.4" y="183.2" class="st3" width="6" height="6"/>
	<rect x="135.4" y="177.2" class="st1" width="6" height="6"/>
	<rect x="135.4" y="171.1" class="st1" width="6" height="6"/>
	<rect x="135.4" y="165.2" class="st1" width="6" height="6"/>
	<rect x="135.4" y="159.1" class="st2" width="6" height="6"/>
	<rect x="135.4" y="153.1" class="st2" width="6" height="6"/>
	<rect x="135.4" y="147.2" class="st2" width="6" height="6"/>
	<rect x="135.4" y="141.1" class="st4" width="6" height="6"/>
	<rect x="135.4" y="135.1" class="st2" width="6" height="6"/>
	<rect x="135.4" y="129.2" class="st1" width="6" height="6"/>
	<rect x="135.4" y="123.1" class="st2" width="6" height="6"/>
	<rect x="135.4" y="117.1" class="st2" width="6" height="6"/>
	<rect x="135.4" y="111.2" class="st2" width="6" height="6"/>
	<rect x="135.4" y="105.1" class="st5" width="6" height="6"/>
	<rect x="135.4" y="99.1" class="st1" width="6" height="6"/>
	<rect x="135.4" y="93.2" class="st1" width="6" height="6"/>
	<rect x="135.4" y="87.1" class="st1" width="6" height="6"/>
	<rect x="135.4" y="81.1" class="st2" width="6" height="6"/>
	<rect x="135.4" y="75.2" class="st1" width="6" height="6"/>
	<rect x="135.4" y="69.1" class="st1" width="6" height="6"/>
	<rect x="135.4" y="63.1" class="st1" width="6" height="6"/>
	<rect x="135.4" y="57.2" class="st1" width="6" height="6"/>
	<rect x="135.4" y="51.1" class="st0" width="6" height="6"/>
	<rect x="135.4" y="45.2" class="st0" width="6" height="6"/>
	<rect x="135.4" y="39.1" class="st0" width="6" height="6"/>
	<rect x="135.4" y="33.1" class="st0" width="6" height="6"/>
	<rect x="135.4" y="27.2" class="st0" width="6" height="6"/>
	<rect x="129.4" y="183.2" class="st3" width="6" height="6"/>
	<rect x="129.4" y="177.2" class="st1" width="6" height="6"/>
	<rect x="129.4" y="171.1" class="st1" width="6" height="6"/>
	<rect x="129.4" y="165.2" class="st1" width="6" height="6"/>
	<rect x="129.4" y="159.1" class="st2" width="6" height="6"/>
	<rect x="129.4" y="153.1" class="st2" width="6" height="6"/>
	<rect x="129.4" y="147.2" class="st2" width="6" height="6"/>
	<rect x="129.4" y="141.1" class="st4" width="6" height="6"/>
	<rect x="129.4" y="135.1" class="st2" width="6" height="6"/>
	<rect x="129.4" y="129.2" class="st2" width="6" height="6"/>
	<rect x="129.4" y="123.1" class="st2" width="6" height="6"/>
	<rect x="129.4" y="117.1" class="st2" width="6" height="6"/>
	<rect x="129.4" y="111.2" class="st5" width="6" height="6"/>
	<rect x="129.4" y="105.1" class="st5" width="6" height="6"/>
	<rect x="129.4" y="99.1" class="st1" width="6" height="6"/>
	<rect x="129.4" y="93.2" class="st1" width="6" height="6"/>
	<rect x="129.4" y="87.1" class="st2" width="6" height="6"/>
	<rect x="129.4" y="81.1" class="st1" width="6" height="6"/>
	<rect x="129.4" y="75.2" class="st1" width="6" height="6"/>
	<rect x="129.4" y="69.1" class="st3" width="6" height="6"/>
	<rect x="129.4" y="63.1" class="st3" width="6" height="6"/>
	<rect x="129.4" y="57.2" class="st1" width="6" height="6"/>
	<rect x="129.4" y="51.1" class="st1" width="6" height="6"/>
	<rect x="129.4" y="45.2" class="st0" width="6" height="6"/>
	<rect x="129.4" y="39.1" class="st0" width="6" height="6"/>
	<rect x="129.4" y="33.1" class="st0" width="6" height="6"/>
	<rect x="129.4" y="27.2" class="st0" width="6" height="6"/>
	<rect x="129.4" y="21.1" class="st0" width="6" height="6"/>
	<rect x="123.3" y="165.2" class="st1" width="6" height="6"/>
	<rect x="123.3" y="159.1" class="st2" width="6" height="6"/>
	<rect x="123.3" y="153.1" class="st2" width="6" height="6"/>
	<rect x="123.3" y="147.2" class="st2" width="6" height="6"/>
	<rect x="123.3" y="141.1" class="st5" width="6" height="6"/>
	<rect x="123.3" y="135.1" class="st2" width="6" height="6"/>
	<rect x="123.3" y="129.2" class="st2" width="6" height="6"/>
	<rect x="123.3" y="123.1" class="st2" width="6" height="6"/>
	<rect x="123.3" y="117.1" class="st5" width="6" height="6"/>
	<rect x="123.3" y="111.2" class="st5" width="6" height="6"/>
	<rect x="123.3" y="105.1" class="st5" width="6" height="6"/>
	<rect x="123.3" y="99.1" class="st1" width="6" height="6"/>
	<rect x="123.3" y="93.2" class="st1" width="6" height="6"/>
	<rect x="123.3" y="87.1" class="st2" width="6" height="6"/>
	<rect x="123.3" y="81.1" class="st1" width="6" height="6"/>
	<rect x="123.3" y="75.2" class="st1" width="6" height="6"/>
	<rect x="123.3" y="69.1" class="st1" width="6" height="6"/>
	<rect x="123.3" y="63.1" class="st1" width="6" height="6"/>
	<rect x="123.3" y="57.2" class="st1" width="6" height="6"/>
	<rect x="123.3" y="51.1" class="st1" width="6" height="6"/>
	<rect x="123.3" y="45.2" class="st0" width="6" height="6"/>
	<rect x="123.3" y="39.1" class="st0" width="6" height="6"/>
	<rect x="123.3" y="33.1" class="st0" width="6" height="6"/>
	<rect x="123.3" y="27.2" class="st0" width="6" height="6"/>
	<rect x="123.3" y="21.1" class="st0" width="6" height="6"/>
	<rect x="123.3" y="15.1" class="st0" width="6" height="6"/>
	<rect x="117.4" y="159.1" class="st2" width="6" height="6"/>
	<rect x="117.4" y="153.1" class="st2" width="6" height="6"/>
	<rect x="117.4" y="147.2" class="st2" width="6" height="6"/>
	<rect x="117.4" y="141.1" class="st4" width="6" height="6"/>
	<rect x="117.4" y="135.1" class="st2" width="6" height="6"/>
	<rect x="117.4" y="129.2" class="st2" width="6" height="6"/>
	<rect x="117.4" y="123.1" class="st2" width="6" height="6"/>
	<rect x="117.4" y="117.1" class="st2" width="6" height="6"/>
	<rect x="117.4" y="111.2" class="st5" width="6" height="6"/>
	<rect x="117.4" y="105.1" class="st5" width="6" height="6"/>
	<rect x="117.4" y="99.1" class="st1" width="6" height="6"/>
	<rect x="117.4" y="93.2" class="st1" width="6" height="6"/>
	<rect x="117.4" y="87.1" class="st2" width="6" height="6"/>
	<rect x="117.4" y="81.1" class="st1" width="6" height="6"/>
	<rect x="117.4" y="75.2" class="st1" width="6" height="6"/>
	<rect x="117.4" y="69.1" class="st1" width="6" height="6"/>
	<rect x="117.4" y="63.1" class="st1" width="6" height="6"/>
	<rect x="117.4" y="57.2" class="st1" width="6" height="6"/>
	<rect x="117.4" y="51.1" class="st1" width="6" height="6"/>
	<rect x="117.4" y="45.2" class="st0" width="6" height="6"/>
	<rect x="117.4" y="39.1" class="st0" width="6" height="6"/>
	<rect x="117.4" y="33.1" class="st0" width="6" height="6"/>
	<rect x="117.4" y="27.2" class="st0" width="6" height="6"/>
	<rect x="117.4" y="21.1" class="st0" width="6" height="6"/>
	<rect x="117.4" y="15.1" class="st0" width="6" height="6"/>
	<rect x="117.4" y="9.2" class="st0" width="6" height="6"/>
	<rect x="111.4" y="159.1" class="st2" width="6" height="6"/>
	<rect x="111.4" y="153.1" class="st2" width="6" height="6"/>
	<rect x="111.4" y="147.2" class="st2" width="6" height="6"/>
	<rect x="111.4" y="141.1" class="st4" width="6" height="6"/>
	<rect x="111.4" y="135.1" class="st2" width="6" height="6"/>
	<rect x="111.4" y="129.2" class="st2" width="6" height="6"/>
	<rect x="111.4" y="123.1" class="st2" width="6" height="6"/>
	<rect x="111.4" y="117.1" class="st2" width="6" height="6"/>
	<rect x="111.4" y="111.2" class="st2" width="6" height="6"/>
	<rect x="111.4" y="105.1" class="st5" width="6" height="6"/>
	<rect x="111.4" y="99.1" class="st1" width="6" height="6"/>
	<rect x="111.4" y="93.2" class="st1" width="6" height="6"/>
	<rect x="111.4" y="87.1" class="st2" width="6" height="6"/>
	<rect x="111.4" y="81.1" class="st1" width="6" height="6"/>
	<rect x="111.4" y="75.2" class="st1" width="6" height="6"/>
	<rect x="111.4" y="69.1" class="st3" width="6" height="6"/>
	<rect x="111.4" y="63.1" class="st3" width="6" height="6"/>
	<rect x="111.4" y="57.2" class="st1" width="6" height="6"/>
	<rect x="111.4" y="51.1" class="st1" width="6" height="6"/>
	<rect x="111.4" y="45.2" class="st0" width="6" height="6"/>
	<rect x="111.4" y="39.1" class="st0" width="6" height="6"/>
	<rect x="111.4" y="33.1" class="st0" width="6" height="6"/>
	<rect x="111.4" y="27.2" class="st0" width="6" height="6"/>
	<rect x="111.4" y="21.1" class="st0" width="6" height="6"/>
	<rect x="111.4" y="15.1" class="st0" width="6" height="6"/>
	<rect x="111.4" y="9.2" class="st0" width="6" height="6"/>
	<rect x="105.3" y="165.2" class="st1" width="6" height="6"/>
	<rect x="105.3" y="159.1" class="st2" width="6" height="6"/>
	<rect x="105.3" y="153.1" class="st2" width="6" height="6"/>
	<rect x="105.3" y="147.2" class="st2" width="6" height="6"/>
	<rect x="105.3" y="141.1" class="st4" width="6" height="6"/>
	<rect x="105.3" y="135.1" class="st2" width="6" height="6"/>
	<rect x="105.3" y="129.2" class="st2" width="6" height="6"/>
	<rect x="105.3" y="123.1" class="st2" width="6" height="6"/>
	<rect x="105.3" y="117.1" class="st2" width="6" height="6"/>
	<rect x="105.3" y="111.2" class="st2" width="6" height="6"/>
	<rect x="105.3" y="105.1" class="st2" width="6" height="6"/>
	<rect x="105.3" y="99.1" class="st1" width="6" height="6"/>
	<rect x="105.3" y="93.2" class="st1" width="6" height="6"/>
	<rect x="105.3" y="87.1" class="st1" width="6" height="6"/>
	<rect x="105.3" y="81.1" class="st2" width="6" height="6"/>
	<rect x="105.3" y="75.2" class="st1" width="6" height="6"/>
	<rect x="105.3" y="69.1" class="st1" width="6" height="6"/>
	<rect x="105.3" y="63.1" class="st1" width="6" height="6"/>
	<rect x="105.3" y="57.2" class="st1" width="6" height="6"/>
	<rect x="105.3" y="51.1" class="st1" width="6" height="6"/>
	<rect x="105.3" y="45.2" class="st0" width="6" height="6"/>
	<rect x="105.3" y="39.1" class="st0" width="6" height="6"/>
	<rect x="105.3" y="33.1" class="st0" width="6" height="6"/>
	<rect x="105.3" y="27.2" class="st0" width="6" height="6"/>
	<rect x="105.3" y="21.1" class="st0" width="6" height="6"/>
	<rect x="105.3" y="15.1" class="st0" width="6" height="6"/>
	<rect x="105.3" y="9.2" class="st0" width="6" height="6"/>
	<rect x="99.4" y="171.1" class="st1" width="6" height="6"/>
	<rect x="99.4" y="165.2" class="st1" width="6" height="6"/>
	<rect x="99.4" y="159.1" class="st2" width="6" height="6"/>
	<rect x="99.4" y="153.1" class="st2" width="6" height="6"/>
	<rect x="99.4" y="147.2" class="st2" width="6" height="6"/>
	<rect x="99.4" y="141.1" class="st4" width="6" height="6"/>
	<rect x="99.4" y="135.1" class="st2" width="6" height="6"/>
	<rect x="99.4" y="129.2" class="st2" width="6" height="6"/>
	<rect x="99.4" y="123.1" class="st2" width="6" height="6"/>
	<rect x="99.4" y="117.1" class="st2" width="6" height="6"/>
	<rect x="99.4" y="111.2" class="st2" width="6" height="6"/>
	<rect x="99.4" y="105.1" class="st2" width="6" height="6"/>
	<rect x="99.4" y="99.1" class="st1" width="6" height="6"/>
	<rect x="99.4" y="93.2" class="st1" width="6" height="6"/>
	<rect x="99.4" y="87.1" class="st1" width="6" height="6"/>
	<rect x="99.4" y="81.1" class="st1" width="6" height="6"/>
	<rect x="99.4" y="75.2" class="st1" width="6" height="6"/>
	<rect x="99.4" y="69.1" class="st1" width="6" height="6"/>
	<rect x="99.4" y="63.1" class="st1" width="6" height="6"/>
	<rect x="99.4" y="57.2" class="st1" width="6" height="6"/>
	<rect x="99.4" y="51.1" class="st1" width="6" height="6"/>
	<rect x="99.4" y="45.2" class="st0" width="6" height="6"/>
	<rect x="99.4" y="39.1" class="st0" width="6" height="6"/>
	<rect x="99.4" y="33.1" class="st0" width="6" height="6"/>
	<rect x="99.4" y="27.2" class="st0" width="6" height="6"/>
	<rect x="99.4" y="21.1" class="st0" width="6" height="6"/>
	<rect x="99.4" y="15.1" class="st0" width="6" height="6"/>
	<rect x="99.4" y="9.2" class="st0" width="6" height="6"/>
	<rect x="93.4" y="183.2" class="st3" width="6" height="6"/>
	<rect x="93.4" y="177.2" class="st1" width="6" height="6"/>
	<rect x="93.4" y="171.1" class="st1" width="6" height="6"/>
	<rect x="93.4" y="165.2" class="st1" width="6" height="6"/>
	<rect x="93.4" y="159.1" class="st2" width="6" height="6"/>
	<rect x="93.4" y="153.1" class="st2" width="6" height="6"/>
	<rect x="93.4" y="147.2" class="st2" width="6" height="6"/>
	<rect x="93.4" y="141.1" class="st4" width="6" height="6"/>
	<rect x="93.4" y="135.1" class="st2" width="6" height="6"/>
	<rect x="93.4" y="129.2" class="st2" width="6" height="6"/>
	<rect x="93.4" y="123.1" class="st2" width="6" height="6"/>
	<rect x="93.4" y="117.1" class="st2" width="6" height="6"/>
	<rect x="93.4" y="111.2" class="st2" width="6" height="6"/>
	<rect x="93.4" y="105.1" class="st2" width="6" height="6"/>
	<rect x="93.4" y="99.1" class="st2" width="6" height="6"/>
	<rect x="93.4" y="93.2" class="st1" width="6" height="6"/>
	<rect x="93.4" y="87.1" class="st1" width="6" height="6"/>
	<rect x="93.4" y="81.1" class="st1" width="6" height="6"/>
	<rect x="93.4" y="75.2" class="st1" width="6" height="6"/>
	<rect x="93.4" y="69.1" class="st1" width="6" height="6"/>
	<rect x="93.4" y="63.1" class="st1" width="6" height="6"/>
	<rect x="93.4" y="57.2" class="st1" width="6" height="6"/>
	<rect x="93.4" y="51.1" class="st0" width="6" height="6"/>
	<rect x="93.4" y="45.2" class="st0" width="6" height="6"/>
	<rect x="93.4" y="39.1" class="st0" width="6" height="6"/>
	<rect x="93.4" y="33.1" class="st0" width="6" height="6"/>
	<rect x="93.4" y="27.2" class="st0" width="6" height="6"/>
	<rect x="93.4" y="21.1" class="st0" width="6" height="6"/>
	<rect x="93.4" y="15.1" class="st0" width="6" height="6"/>
	<rect x="93.4" y="9.2" class="st0" width="6" height="6"/>
	<rect x="87.3" y="183.2" class="st3" width="6" height="6"/>
	<rect x="87.3" y="177.2" class="st1" width="6" height="6"/>
	<rect x="87.3" y="171.1" class="st1" width="6" height="6"/>
	<rect x="87.3" y="165.2" class="st1" width="6" height="6"/>
	<rect x="87.3" y="159.1" class="st2" width="6" height="6"/>
	<rect x="87.3" y="153.1" class="st2" width="6" height="6"/>
	<rect x="87.3" y="147.2" class="st2" width="6" height="6"/>
	<rect x="87.3" y="141.1" class="st4" width="6" height="6"/>
	<rect x="87.3" y="135.1" class="st2" width="6" height="6"/>
	<rect x="87.3" y="129.2" class="st2" width="6" height="6"/>
	<rect x="87.3" y="123.1" class="st2" width="6" height="6"/>
	<rect x="87.3" y="117.1" class="st2" width="6" height="6"/>
	<rect x="87.3" y="111.2" class="st2" width="6" height="6"/>
	<rect x="87.3" y="105.1" class="st2" width="6" height="6"/>
	<rect x="87.3" y="99.1" class="st2" width="6" height="6"/>
	<rect x="87.3" y="93.2" class="st1" width="6" height="6"/>
	<rect x="87.3" y="87.1" class="st1" width="6" height="6"/>
	<rect x="87.3" y="81.1" class="st1" width="6" height="6"/>
	<rect x="87.3" y="75.2" class="st0" width="6" height="6"/>
	<rect x="87.3" y="69.1" class="st1" width="6" height="6"/>
	<rect x="87.3" y="63.1" class="st1" width="6" height="6"/>
	<rect x="87.3" y="57.2" class="st0" width="6" height="6"/>
	<rect x="87.3" y="51.1" class="st0" width="6" height="6"/>
	<rect x="87.3" y="45.2" class="st0" width="6" height="6"/>
	<rect x="87.3" y="39.1" class="st0" width="6" height="6"/>
	<rect x="87.3" y="33.1" class="st0" width="6" height="6"/>
	<rect x="87.3" y="27.2" class="st0" width="6" height="6"/>
	<rect x="87.3" y="21.1" class="st6" width="6" height="6"/>
	<rect x="87.3" y="15.1" class="st0" width="6" height="6"/>
	<rect x="87.3" y="9.2" class="st0" width="6" height="6"/>
	<rect x="81.4" y="183.2" class="st3" width="6" height="6"/>
	<rect x="81.4" y="177.2" class="st1" width="6" height="6"/>
	<rect x="81.4" y="171.1" class="st1" width="6" height="6"/>
	<rect x="81.4" y="165.2" class="st1" width="6" height="6"/>
	<rect x="81.4" y="159.1" class="st2" width="6" height="6"/>
	<rect x="81.4" y="153.1" class="st2" width="6" height="6"/>
	<rect x="81.4" y="147.2" class="st2" width="6" height="6"/>
	<rect x="81.4" y="141.1" class="st4" width="6" height="6"/>
	<rect x="81.4" y="135.1" class="st2" width="6" height="6"/>
	<rect x="81.4" y="129.2" class="st2" width="6" height="6"/>
	<rect x="81.4" y="123.1" class="st2" width="6" height="6"/>
	<rect x="81.4" y="117.1" class="st2" width="6" height="6"/>
	<rect x="81.4" y="111.2" class="st2" width="6" height="6"/>
	<rect x="81.4" y="105.1" class="st2" width="6" height="6"/>
	<rect x="81.4" y="99.1" class="st2" width="6" height="6"/>
	<rect x="81.4" y="93.2" class="st2" width="6" height="6"/>
	<rect x="81.4" y="87.1" class="st1" width="6" height="6"/>
	<rect x="81.4" y="81.1" class="st1" width="6" height="6"/>
	<rect x="81.4" y="75.2" class="st1" width="6" height="6"/>
	<rect x="81.4" y="69.1" class="st0" width="6" height="6"/>
	<rect x="81.4" y="63.1" class="st0" width="6" height="6"/>
	<rect x="81.4" y="57.2" class="st0" width="6" height="6"/>
	<rect x="81.4" y="51.1" class="st0" width="6" height="6"/>
	<rect x="81.4" y="45.2" class="st0" width="6" height="6"/>
	<rect x="81.4" y="39.1" class="st0" width="6" height="6"/>
	<rect x="81.4" y="33.1" class="st0" width="6" height="6"/>
	<rect x="81.4" y="27.2" class="st0" width="6" height="6"/>
	<rect x="81.4" y="21.1" class="st6" width="6" height="6"/>
	<rect x="81.4" y="15.1" class="st0" width="6" height="6"/>
	<rect x="81.4" y="9.2" class="st0" width="6" height="6"/>
	<rect x="75.4" y="183.2" class="st3" width="6" height="6"/>
	<rect x="75.4" y="135.1" class="st1" width="6" height="6"/>
	<rect x="75.4" y="129.2" class="st2" width="6" height="6"/>
	<rect x="75.4" y="123.1" class="st2" width="6" height="6"/>
	<rect x="75.4" y="117.1" class="st2" width="6" height="6"/>
	<rect x="75.4" y="111.2" class="st2" width="6" height="6"/>
	<rect x="75.4" y="105.1" class="st2" width="6" height="6"/>
	<rect x="75.4" y="99.1" class="st2" width="6" height="6"/>
	<rect x="75.4" y="93.2" class="st0" width="6" height="6"/>
	<rect x="75.4" y="87.1" class="st0" width="6" height="6"/>
	<rect x="75.4" y="81.1" class="st2" width="6" height="6"/>
	<rect x="75.4" y="75.2" class="st1" width="6" height="6"/>
	<rect x="75.4" y="69.1" class="st1" width="6" height="6"/>
	<rect x="75.4" y="63.1" class="st1" width="6" height="6"/>
	<rect x="75.4" y="57.2" class="st0" width="6" height="6"/>
	<rect x="75.4" y="51.1" class="st0" width="6" height="6"/>
	<rect x="75.4" y="45.2" class="st0" width="6" height="6"/>
	<rect x="75.4" y="39.1" class="st0" width="6" height="6"/>
	<rect x="75.4" y="33.1" class="st0" width="6" height="6"/>
	<rect x="75.4" y="27.2" class="st6" width="6" height="6"/>
	<rect x="75.4" y="21.1" class="st0" width="6" height="6"/>
	<rect x="75.4" y="15.1" class="st0" width="6" height="6"/>
	<rect x="69.3" y="141.1" class="st1" width="6" height="6"/>
	<rect x="69.3" y="135.1" class="st1" width="6" height="6"/>
	<rect x="69.3" y="129.2" class="st2" width="6" height="6"/>
	<rect x="69.3" y="123.1" class="st2" width="6" height="6"/>
	<rect x="69.3" y="117.1" class="st2" width="6" height="6"/>
	<rect x="69.3" y="111.2" class="st2" width="6" height="6"/>
	<rect x="69.3" y="105.1" class="st2" width="6" height="6"/>
	<rect x="69.3" y="99.1" class="st0" width="6" height="6"/>
	<rect x="69.3" y="93.2" class="st0" width="6" height="6"/>
	<rect x="69.3" y="87.1" class="st0" width="6" height="6"/>
	<rect x="69.3" y="81.1" class="st0" width="6" height="6"/>
	<rect x="69.3" y="75.2" class="st1" width="6" height="6"/>
	<rect x="69.3" y="69.1" class="st1" width="6" height="6"/>
	<rect x="69.3" y="63.1" class="st1" width="6" height="6"/>
	<rect x="69.3" y="57.2" class="st0" width="6" height="6"/>
	<rect x="69.3" y="51.1" class="st0" width="6" height="6"/>
	<rect x="69.3" y="45.2" class="st0" width="6" height="6"/>
	<rect x="69.3" y="39.1" class="st0" width="6" height="6"/>
	<rect x="69.3" y="33.1" class="st6" width="6" height="6"/>
	<rect x="69.3" y="27.2" class="st0" width="6" height="6"/>
	<rect x="69.3" y="21.1" class="st0" width="6" height="6"/>
	<rect x="63.4" y="147.2" class="st1" width="6" height="6"/>
	<rect x="63.4" y="141.1" class="st1" width="6" height="6"/>
	<rect x="63.4" y="135.1" class="st1" width="6" height="6"/>
	<rect x="63.4" y="129.2" class="st2" width="6" height="6"/>
	<rect x="63.4" y="123.1" class="st2" width="6" height="6"/>
	<rect x="63.4" y="117.1" class="st2" width="6" height="6"/>
	<rect x="63.4" y="111.2" class="st0" width="6" height="6"/>
	<rect x="63.4" y="105.1" class="st0" width="6" height="6"/>
	<rect x="63.4" y="99.1" class="st0" width="6" height="6"/>
	<rect x="63.4" y="93.2" class="st0" width="6" height="6"/>
	<rect x="63.4" y="87.1" class="st0" width="6" height="6"/>
	<rect x="63.4" y="81.1" class="st0" width="6" height="6"/>
	<rect x="63.4" y="75.2" class="st0" width="6" height="6"/>
	<rect x="63.4" y="69.1" class="st0" width="6" height="6"/>
	<rect x="63.4" y="63.1" class="st0" width="6" height="6"/>
	<rect x="63.4" y="57.2" class="st0" width="6" height="6"/>
	<rect x="63.4" y="51.1" class="st0" width="6" height="6"/>
	<rect x="63.4" y="45.2" class="st0" width="6" height="6"/>
	<rect x="63.4" y="39.1" class="st6" width="6" height="6"/>
	<rect x="63.4" y="33.1" class="st0" width="6" height="6"/>
	<rect x="63.4" y="27.2" class="st0" width="6" height="6"/>
	<rect x="57.4" y="117.1" class="st0" width="6" height="6"/>
	<rect x="57.4" y="111.2" class="st0" width="6" height="6"/>
	<rect x="57.4" y="105.1" class="st0" width="6" height="6"/>
	<rect x="57.4" y="99.1" class="st0" width="6" height="6"/>
	<rect x="57.4" y="93.2" class="st0" width="6" height="6"/>
	<rect x="57.4" y="87.1" class="st0" width="6" height="6"/>
	<rect x="57.4" y="81.1" class="st0" width="6" height="6"/>
	<rect x="57.4" y="75.2" class="st0" width="6" height="6"/>
	<rect x="57.4" y="69.1" class="st0" width="6" height="6"/>
	<rect x="57.4" y="63.1" class="st0" width="6" height="6"/>
	<rect x="57.4" y="57.2" class="st0" width="6" height="6"/>
	<rect x="57.4" y="51.1" class="st0" width="6" height="6"/>
	<rect x="57.4" y="45.2" class="st0" width="6" height="6"/>
	<rect x="57.4" y="39.1" class="st0" width="6" height="6"/>
	<rect x="57.4" y="33.1" class="st0" width="6" height="6"/>
	<rect x="51.3" y="117.1" class="st0" width="6" height="6"/>
	<rect x="51.3" y="111.2" class="st0" width="6" height="6"/>
	<rect x="51.3" y="105.1" class="st0" width="6" height="6"/>
	<rect x="51.3" y="99.1" class="st0" width="6" height="6"/>
	<rect x="51.3" y="93.2" class="st0" width="6" height="6"/>
	<rect x="51.3" y="87.1" class="st0" width="6" height="6"/>
	<rect x="51.3" y="81.1" class="st0" width="6" height="6"/>
	<rect x="51.3" y="75.2" class="st0" width="6" height="6"/>
	<rect x="45.4" y="111.2" class="st0" width="6" height="6"/>
	<rect x="45.4" y="105.1" class="st0" width="6" height="6"/>
	<rect x="45.4" y="99.1" class="st0" width="6" height="6"/>
	<rect x="45.4" y="93.2" class="st0" width="6" height="6"/>
	<rect x="45.4" y="87.1" class="st0" width="6" height="6"/>
	<rect x="45.4" y="81.1" class="st0" width="6" height="6"/>
	<rect x="39.3" y="105.1" class="st0" width="6" height="6"/>
	<rect x="39.3" y="99.1" class="st0" width="6" height="6"/>
	<rect x="39.3" y="93.2" class="st0" width="6" height="6"/>
	<rect x="39.3" y="87.1" class="st0" width="6" height="6"/>
</g>
</svg>
