<?xml version="1.0" encoding="utf-8"?>
<!-- Generator: Adobe Illustrator 19.2.0, SVG Export Plug-In . SVG Version: 6.00 Build 0)  -->
<svg version="1.1" id="Layer_1" xmlns="http://www.w3.org/2000/svg" xmlns:xlink="http://www.w3.org/1999/xlink" x="0px" y="0px"
	 viewBox="0 0 200 200" style="enable-background:new 0 0 200 200;" xml:space="preserve">
<style type="text/css">
	.st0{fill:#FFCCBC;}
	.st1{fill:#00BCD4;}
	.st2{fill:#424242;}
	.st3{fill:#5D4037;}
	.st4{fill:#263238;}
	.st5{fill:#37474F;}
	.st6{fill:#E91E63;}
	.st7{fill:#4E342E;}
	.st8{fill:#8D6E63;}
</style>
<g>
	<rect x="149.6" y="142.2" class="st0" width="7.2" height="7.2"/>
	<rect x="149.6" y="135" class="st1" width="7.2" height="7.2"/>
	<rect x="149.6" y="127.9" class="st1" width="7.2" height="7.2"/>
	<rect x="142.4" y="185.3" class="st2" width="7.2" height="7.2"/>
	<rect x="142.4" y="149.4" class="st0" width="7.2" height="7.2"/>
	<rect x="142.4" y="142.2" class="st0" width="7.2" height="7.2"/>
	<rect x="142.4" y="135" class="st0" width="7.2" height="7.2"/>
	<rect x="142.4" y="127.9" class="st1" width="7.2" height="7.2"/>
	<rect x="142.4" y="120.7" class="st1" width="7.2" height="7.2"/>
	<rect x="142.4" y="113.5" class="st1" width="7.2" height="7.2"/>
	<rect x="142.4" y="20.2" class="st3" width="7.2" height="7.2"/>
	<rect x="135.2" y="185.3" class="st2" width="7.2" height="7.2"/>
	<rect x="135.2" y="178.1" class="st4" width="7.2" height="7.2"/>
	<rect x="135.2" y="170.9" class="st4" width="7.2" height="7.2"/>
	<rect x="135.2" y="149.4" class="st0" width="7.2" height="7.2"/>
	<rect x="135.2" y="142.2" class="st0" width="7.2" height="7.2"/>
	<rect x="135.2" y="135" class="st0" width="7.2" height="7.2"/>
	<rect x="135.2" y="127.9" class="st1" width="7.2" height="7.2"/>
	<rect x="135.2" y="120.7" class="st1" width="7.2" height="7.2"/>
	<rect x="135.2" y="113.5" class="st1" width="7.2" height="7.2"/>
	<rect x="135.2" y="106.3" class="st1" width="7.2" height="7.2"/>
	<rect x="135.2" y="99.2" class="st1" width="7.2" height="7.2"/>
	<rect x="135.2" y="84.8" class="st0" width="7.2" height="7.2"/>
	<rect x="135.2" y="77.6" class="st0" width="7.2" height="7.2"/>
	<rect x="135.2" y="70.4" class="st0" width="7.2" height="7.2"/>
	<rect x="135.2" y="63.3" class="st0" width="7.2" height="7.2"/>
	<rect x="135.2" y="41.7" class="st3" width="7.2" height="7.2"/>
	<rect x="135.2" y="34.6" class="st3" width="7.2" height="7.2"/>
	<rect x="135.2" y="27.4" class="st3" width="7.2" height="7.2"/>
	<rect x="128.1" y="185.3" class="st2" width="7.2" height="7.2"/>
	<rect x="128.1" y="178.1" class="st4" width="7.2" height="7.2"/>
	<rect x="128.1" y="170.9" class="st4" width="7.2" height="7.2"/>
	<rect x="128.1" y="163.8" class="st4" width="7.2" height="7.2"/>
	<rect x="128.1" y="156.6" class="st4" width="7.2" height="7.2"/>
	<rect x="128.1" y="149.4" class="st4" width="7.2" height="7.2"/>
	<rect x="128.1" y="142.2" class="st5" width="7.2" height="7.2"/>
	<rect x="128.1" y="135" class="st1" width="7.2" height="7.2"/>
	<rect x="128.1" y="127.9" class="st1" width="7.2" height="7.2"/>
	<rect x="128.1" y="120.7" class="st1" width="7.2" height="7.2"/>
	<rect x="128.1" y="113.5" class="st1" width="7.2" height="7.2"/>
	<rect x="128.1" y="106.3" class="st1" width="7.2" height="7.2"/>
	<rect x="128.1" y="99.2" class="st1" width="7.2" height="7.2"/>
	<rect x="128.1" y="92" class="st0" width="7.2" height="7.2"/>
	<rect x="128.1" y="84.8" class="st0" width="7.2" height="7.2"/>
	<rect x="128.1" y="77.6" class="st0" width="7.2" height="7.2"/>
	<rect x="128.1" y="70.4" class="st0" width="7.2" height="7.2"/>
	<rect x="128.1" y="63.3" class="st0" width="7.2" height="7.2"/>
	<rect x="128.1" y="56.1" class="st0" width="7.2" height="7.2"/>
	<rect x="128.1" y="48.9" class="st0" width="7.2" height="7.2"/>
	<rect x="128.1" y="41.7" class="st3" width="7.2" height="7.2"/>
	<rect x="128.1" y="34.6" class="st3" width="7.2" height="7.2"/>
	<rect x="128.1" y="27.4" class="st3" width="7.2" height="7.2"/>
	<rect x="128.1" y="20.2" class="st3" width="7.2" height="7.2"/>
	<rect x="120.9" y="185.3" class="st2" width="7.2" height="7.2"/>
	<rect x="120.9" y="178.1" class="st4" width="7.2" height="7.2"/>
	<rect x="120.9" y="170.9" class="st4" width="7.2" height="7.2"/>
	<rect x="120.9" y="163.8" class="st4" width="7.2" height="7.2"/>
	<rect x="120.9" y="156.6" class="st4" width="7.2" height="7.2"/>
	<rect x="120.9" y="149.4" class="st4" width="7.2" height="7.2"/>
	<rect x="120.9" y="142.2" class="st5" width="7.2" height="7.2"/>
	<rect x="120.9" y="135" class="st1" width="7.2" height="7.2"/>
	<rect x="120.9" y="127.9" class="st1" width="7.2" height="7.2"/>
	<rect x="120.9" y="120.7" class="st1" width="7.2" height="7.2"/>
	<rect x="120.9" y="113.5" class="st1" width="7.2" height="7.2"/>
	<rect x="120.9" y="106.3" class="st1" width="7.2" height="7.2"/>
	<rect x="120.9" y="99.2" class="st1" width="7.2" height="7.2"/>
	<rect x="120.9" y="92" class="st0" width="7.2" height="7.2"/>
	<rect x="120.9" y="84.8" class="st0" width="7.2" height="7.2"/>
	<rect x="120.9" y="77.6" class="st0" width="7.2" height="7.2"/>
	<rect x="120.9" y="70.4" class="st0" width="7.2" height="7.2"/>
	<rect x="120.9" y="63.3" class="st4" width="7.2" height="7.2"/>
	<rect x="120.9" y="56.1" class="st4" width="7.2" height="7.2"/>
	<rect x="120.9" y="48.9" class="st0" width="7.2" height="7.2"/>
	<rect x="120.9" y="41.7" class="st3" width="7.2" height="7.2"/>
	<rect x="120.9" y="34.6" class="st3" width="7.2" height="7.2"/>
	<rect x="120.9" y="27.4" class="st3" width="7.2" height="7.2"/>
	<rect x="120.9" y="20.2" class="st3" width="7.2" height="7.2"/>
	<rect x="120.9" y="13" class="st3" width="7.2" height="7.2"/>
	<rect x="113.7" y="185.3" class="st2" width="7.2" height="7.2"/>
	<rect x="113.7" y="178.1" class="st4" width="7.2" height="7.2"/>
	<rect x="113.7" y="170.9" class="st4" width="7.2" height="7.2"/>
	<rect x="113.7" y="163.8" class="st4" width="7.2" height="7.2"/>
	<rect x="113.7" y="156.6" class="st4" width="7.2" height="7.2"/>
	<rect x="113.7" y="149.4" class="st4" width="7.2" height="7.2"/>
	<rect x="113.7" y="142.2" class="st6" width="7.2" height="7.2"/>
	<rect x="113.7" y="135" class="st6" width="7.2" height="7.2"/>
	<rect x="113.7" y="127.9" class="st6" width="7.2" height="7.2"/>
	<rect x="113.7" y="120.7" class="st1" width="7.2" height="7.2"/>
	<rect x="113.7" y="113.5" class="st1" width="7.2" height="7.2"/>
	<rect x="113.7" y="106.3" class="st1" width="7.2" height="7.2"/>
	<rect x="113.7" y="99.2" class="st1" width="7.2" height="7.2"/>
	<rect x="113.7" y="92" class="st0" width="7.2" height="7.2"/>
	<rect x="113.7" y="84.8" class="st0" width="7.2" height="7.2"/>
	<rect x="113.7" y="77.6" class="st7" width="7.2" height="7.2"/>
	<rect x="113.7" y="70.4" class="st0" width="7.2" height="7.2"/>
	<rect x="113.7" y="63.3" class="st0" width="7.2" height="7.2"/>
	<rect x="113.7" y="56.1" class="st0" width="7.2" height="7.2"/>
	<rect x="113.7" y="48.9" class="st0" width="7.2" height="7.2"/>
	<rect x="113.7" y="41.7" class="st3" width="7.2" height="7.2"/>
	<rect x="113.7" y="34.6" class="st3" width="7.2" height="7.2"/>
	<rect x="113.7" y="27.4" class="st3" width="7.2" height="7.2"/>
	<rect x="113.7" y="20.2" class="st3" width="7.2" height="7.2"/>
	<rect x="113.7" y="13" class="st3" width="7.2" height="7.2"/>
	<rect x="113.7" y="5.8" class="st3" width="7.2" height="7.2"/>
	<rect x="106.5" y="156.6" class="st4" width="7.2" height="7.2"/>
	<rect x="106.5" y="149.4" class="st4" width="7.2" height="7.2"/>
	<rect x="106.5" y="142.2" class="st5" width="7.2" height="7.2"/>
	<rect x="106.5" y="135" class="st6" width="7.2" height="7.2"/>
	<rect x="106.5" y="127.9" class="st6" width="7.2" height="7.2"/>
	<rect x="106.5" y="120.7" class="st6" width="7.2" height="7.2"/>
	<rect x="106.5" y="113.5" class="st6" width="7.2" height="7.2"/>
	<rect x="106.5" y="106.3" class="st6" width="7.2" height="7.2"/>
	<rect x="106.5" y="99.2" class="st6" width="7.2" height="7.2"/>
	<rect x="106.5" y="92" class="st0" width="7.2" height="7.2"/>
	<rect x="106.5" y="84.8" class="st7" width="7.2" height="7.2"/>
	<rect x="106.5" y="77.6" class="st7" width="7.2" height="7.2"/>
	<rect x="106.5" y="70.4" class="st0" width="7.2" height="7.2"/>
	<rect x="106.5" y="63.3" class="st0" width="7.2" height="7.2"/>
	<rect x="106.5" y="56.1" class="st0" width="7.2" height="7.2"/>
	<rect x="106.5" y="48.9" class="st0" width="7.2" height="7.2"/>
	<rect x="106.5" y="41.7" class="st3" width="7.2" height="7.2"/>
	<rect x="106.5" y="34.6" class="st3" width="7.2" height="7.2"/>
	<rect x="106.5" y="27.4" class="st3" width="7.2" height="7.2"/>
	<rect x="106.5" y="20.2" class="st3" width="7.2" height="7.2"/>
	<rect x="106.5" y="13" class="st3" width="7.2" height="7.2"/>
	<rect x="106.5" y="5.8" class="st3" width="7.2" height="7.2"/>
	<rect x="99.3" y="163.8" class="st4" width="7.2" height="7.2"/>
	<rect x="99.3" y="156.6" class="st4" width="7.2" height="7.2"/>
	<rect x="99.3" y="149.4" class="st4" width="7.2" height="7.2"/>
	<rect x="99.3" y="142.2" class="st5" width="7.2" height="7.2"/>
	<rect x="99.3" y="135" class="st1" width="7.2" height="7.2"/>
	<rect x="99.3" y="127.9" class="st1" width="7.2" height="7.2"/>
	<rect x="99.3" y="120.7" class="st6" width="7.2" height="7.2"/>
	<rect x="99.3" y="113.5" class="st6" width="7.2" height="7.2"/>
	<rect x="99.3" y="106.3" class="st6" width="7.2" height="7.2"/>
	<rect x="99.3" y="99.2" class="st6" width="7.2" height="7.2"/>
	<rect x="99.3" y="92" class="st0" width="7.2" height="7.2"/>
	<rect x="99.3" y="84.8" class="st7" width="7.2" height="7.2"/>
	<rect x="99.3" y="77.6" class="st7" width="7.2" height="7.2"/>
	<rect x="99.3" y="70.4" class="st0" width="7.2" height="7.2"/>
	<rect x="99.3" y="63.3" class="st4" width="7.2" height="7.2"/>
	<rect x="99.3" y="56.1" class="st4" width="7.2" height="7.2"/>
	<rect x="99.3" y="48.9" class="st0" width="7.2" height="7.2"/>
	<rect x="99.3" y="41.7" class="st0" width="7.2" height="7.2"/>
	<rect x="99.3" y="34.6" class="st3" width="7.2" height="7.2"/>
	<rect x="99.3" y="27.4" class="st3" width="7.2" height="7.2"/>
	<rect x="99.3" y="20.2" class="st3" width="7.2" height="7.2"/>
	<rect x="99.3" y="13" class="st3" width="7.2" height="7.2"/>
	<rect x="99.3" y="5.8" class="st3" width="7.2" height="7.2"/>
	<rect x="92.2" y="170.9" class="st4" width="7.2" height="7.2"/>
	<rect x="92.2" y="163.8" class="st4" width="7.2" height="7.2"/>
	<rect x="92.2" y="156.6" class="st4" width="7.2" height="7.2"/>
	<rect x="92.2" y="149.4" class="st4" width="7.2" height="7.2"/>
	<rect x="92.2" y="142.2" class="st5" width="7.2" height="7.2"/>
	<rect x="92.2" y="135" class="st1" width="7.2" height="7.2"/>
	<rect x="92.2" y="127.9" class="st1" width="7.2" height="7.2"/>
	<rect x="92.2" y="120.7" class="st1" width="7.2" height="7.2"/>
	<rect x="92.2" y="113.5" class="st1" width="7.2" height="7.2"/>
	<rect x="92.2" y="106.3" class="st1" width="7.2" height="7.2"/>
	<rect x="92.2" y="99.2" class="st1" width="7.2" height="7.2"/>
	<rect x="92.2" y="92" class="st0" width="7.2" height="7.2"/>
	<rect x="92.2" y="84.8" class="st0" width="7.2" height="7.2"/>
	<rect x="92.2" y="77.6" class="st0" width="7.2" height="7.2"/>
	<rect x="92.2" y="70.4" class="st0" width="7.2" height="7.2"/>
	<rect x="92.2" y="63.3" class="st0" width="7.2" height="7.2"/>
	<rect x="92.2" y="56.1" class="st0" width="7.2" height="7.2"/>
	<rect x="92.2" y="48.9" class="st0" width="7.2" height="7.2"/>
	<rect x="92.2" y="41.7" class="st0" width="7.2" height="7.2"/>
	<rect x="92.2" y="34.6" class="st0" width="7.2" height="7.2"/>
	<rect x="92.2" y="27.4" class="st3" width="7.2" height="7.2"/>
	<rect x="92.2" y="20.2" class="st3" width="7.2" height="7.2"/>
	<rect x="92.2" y="13" class="st3" width="7.2" height="7.2"/>
	<rect x="92.2" y="5.8" class="st3" width="7.2" height="7.2"/>
	<rect x="85" y="185.3" class="st2" width="7.2" height="7.2"/>
	<rect x="85" y="178.1" class="st4" width="7.2" height="7.2"/>
	<rect x="85" y="170.9" class="st4" width="7.2" height="7.2"/>
	<rect x="85" y="163.8" class="st4" width="7.2" height="7.2"/>
	<rect x="85" y="156.6" class="st4" width="7.2" height="7.2"/>
	<rect x="85" y="149.4" class="st4" width="7.2" height="7.2"/>
	<rect x="85" y="142.2" class="st5" width="7.2" height="7.2"/>
	<rect x="85" y="135" class="st1" width="7.2" height="7.2"/>
	<rect x="85" y="127.9" class="st1" width="7.2" height="7.2"/>
	<rect x="85" y="120.7" class="st1" width="7.2" height="7.2"/>
	<rect x="85" y="113.5" class="st1" width="7.2" height="7.2"/>
	<rect x="85" y="106.3" class="st1" width="7.2" height="7.2"/>
	<rect x="85" y="99.2" class="st1" width="7.2" height="7.2"/>
	<rect x="85" y="92" class="st0" width="7.2" height="7.2"/>
	<rect x="85" y="84.8" class="st0" width="7.2" height="7.2"/>
	<rect x="85" y="77.6" class="st0" width="7.2" height="7.2"/>
	<rect x="85" y="70.4" class="st0" width="7.2" height="7.2"/>
	<rect x="85" y="63.3" class="st0" width="7.2" height="7.2"/>
	<rect x="85" y="56.1" class="st0" width="7.2" height="7.2"/>
	<rect x="85" y="48.9" class="st0" width="7.2" height="7.2"/>
	<rect x="85" y="41.7" class="st0" width="7.2" height="7.2"/>
	<rect x="85" y="34.6" class="st3" width="7.2" height="7.2"/>
	<rect x="85" y="27.4" class="st3" width="7.2" height="7.2"/>
	<rect x="85" y="20.2" class="st3" width="7.2" height="7.2"/>
	<rect x="85" y="13" class="st8" width="7.2" height="7.2"/>
	<rect x="85" y="5.8" class="st3" width="7.2" height="7.2"/>
	<rect x="77.8" y="185.3" class="st2" width="7.2" height="7.2"/>
	<rect x="77.8" y="178.1" class="st4" width="7.2" height="7.2"/>
	<rect x="77.8" y="170.9" class="st4" width="7.2" height="7.2"/>
	<rect x="77.8" y="163.8" class="st4" width="7.2" height="7.2"/>
	<rect x="77.8" y="156.6" class="st4" width="7.2" height="7.2"/>
	<rect x="77.8" y="149.4" class="st4" width="7.2" height="7.2"/>
	<rect x="77.8" y="142.2" class="st5" width="7.2" height="7.2"/>
	<rect x="77.8" y="135" class="st1" width="7.2" height="7.2"/>
	<rect x="77.8" y="127.9" class="st1" width="7.2" height="7.2"/>
	<rect x="77.8" y="120.7" class="st1" width="7.2" height="7.2"/>
	<rect x="77.8" y="113.5" class="st1" width="7.2" height="7.2"/>
	<rect x="77.8" y="106.3" class="st1" width="7.2" height="7.2"/>
	<rect x="77.8" y="99.2" class="st1" width="7.2" height="7.2"/>
	<rect x="77.8" y="92" class="st1" width="7.2" height="7.2"/>
	<rect x="77.8" y="84.8" class="st0" width="7.2" height="7.2"/>
	<rect x="77.8" y="77.6" class="st0" width="7.2" height="7.2"/>
	<rect x="77.8" y="70.4" class="st0" width="7.2" height="7.2"/>
	<rect x="77.8" y="63.3" class="st0" width="7.2" height="7.2"/>
	<rect x="77.8" y="56.1" class="st3" width="7.2" height="7.2"/>
	<rect x="77.8" y="48.9" class="st3" width="7.2" height="7.2"/>
	<rect x="77.8" y="41.7" class="st3" width="7.2" height="7.2"/>
	<rect x="77.8" y="34.6" class="st3" width="7.2" height="7.2"/>
	<rect x="77.8" y="27.4" class="st3" width="7.2" height="7.2"/>
	<rect x="77.8" y="20.2" class="st3" width="7.2" height="7.2"/>
	<rect x="77.8" y="13" class="st8" width="7.2" height="7.2"/>
	<rect x="77.8" y="5.8" class="st3" width="7.2" height="7.2"/>
	<rect x="70.6" y="185.3" class="st2" width="7.2" height="7.2"/>
	<rect x="70.6" y="178.1" class="st4" width="7.2" height="7.2"/>
	<rect x="70.6" y="170.9" class="st4" width="7.2" height="7.2"/>
	<rect x="70.6" y="163.8" class="st4" width="7.2" height="7.2"/>
	<rect x="70.6" y="156.6" class="st4" width="7.2" height="7.2"/>
	<rect x="70.6" y="149.4" class="st4" width="7.2" height="7.2"/>
	<rect x="70.6" y="142.2" class="st0" width="7.2" height="7.2"/>
	<rect x="70.6" y="135" class="st1" width="7.2" height="7.2"/>
	<rect x="70.6" y="127.9" class="st1" width="7.2" height="7.2"/>
	<rect x="70.6" y="120.7" class="st1" width="7.2" height="7.2"/>
	<rect x="70.6" y="113.5" class="st1" width="7.2" height="7.2"/>
	<rect x="70.6" y="106.3" class="st1" width="7.2" height="7.2"/>
	<rect x="70.6" y="99.2" class="st1" width="7.2" height="7.2"/>
	<rect x="70.6" y="92" class="st1" width="7.2" height="7.2"/>
	<rect x="70.6" y="84.8" class="st0" width="7.2" height="7.2"/>
	<rect x="70.6" y="77.6" class="st0" width="7.2" height="7.2"/>
	<rect x="70.6" y="70.4" class="st0" width="7.2" height="7.2"/>
	<rect x="70.6" y="63.3" class="st0" width="7.2" height="7.2"/>
	<rect x="70.6" y="56.1" class="st0" width="7.2" height="7.2"/>
	<rect x="70.6" y="48.9" class="st3" width="7.2" height="7.2"/>
	<rect x="70.6" y="41.7" class="st3" width="7.2" height="7.2"/>
	<rect x="70.6" y="34.6" class="st3" width="7.2" height="7.2"/>
	<rect x="70.6" y="27.4" class="st3" width="7.2" height="7.2"/>
	<rect x="70.6" y="20.2" class="st8" width="7.2" height="7.2"/>
	<rect x="70.6" y="13" class="st3" width="7.2" height="7.2"/>
	<rect x="70.6" y="5.8" class="st3" width="7.2" height="7.2"/>
	<rect x="63.5" y="185.3" class="st2" width="7.2" height="7.2"/>
	<rect x="63.5" y="178.1" class="st4" width="7.2" height="7.2"/>
	<rect x="63.5" y="170.9" class="st4" width="7.2" height="7.2"/>
	<rect x="63.5" y="163.8" class="st4" width="7.2" height="7.2"/>
	<rect x="63.5" y="156.6" class="st4" width="7.2" height="7.2"/>
	<rect x="63.5" y="149.4" class="st0" width="7.2" height="7.2"/>
	<rect x="63.5" y="142.2" class="st0" width="7.2" height="7.2"/>
	<rect x="63.5" y="135" class="st0" width="7.2" height="7.2"/>
	<rect x="63.5" y="127.9" class="st1" width="7.2" height="7.2"/>
	<rect x="63.5" y="120.7" class="st1" width="7.2" height="7.2"/>
	<rect x="63.5" y="113.5" class="st1" width="7.2" height="7.2"/>
	<rect x="63.5" y="106.3" class="st1" width="7.2" height="7.2"/>
	<rect x="63.5" y="99.2" class="st1" width="7.2" height="7.2"/>
	<rect x="63.5" y="92" class="st1" width="7.2" height="7.2"/>
	<rect x="63.5" y="84.8" class="st3" width="7.2" height="7.2"/>
	<rect x="63.5" y="77.6" class="st0" width="7.2" height="7.2"/>
	<rect x="63.5" y="70.4" class="st0" width="7.2" height="7.2"/>
	<rect x="63.5" y="63.3" class="st0" width="7.2" height="7.2"/>
	<rect x="63.5" y="56.1" class="st0" width="7.2" height="7.2"/>
	<rect x="63.5" y="48.9" class="st3" width="7.2" height="7.2"/>
	<rect x="63.5" y="41.7" class="st3" width="7.2" height="7.2"/>
	<rect x="63.5" y="34.6" class="st3" width="7.2" height="7.2"/>
	<rect x="63.5" y="27.4" class="st8" width="7.2" height="7.2"/>
	<rect x="63.5" y="20.2" class="st3" width="7.2" height="7.2"/>
	<rect x="63.5" y="13" class="st3" width="7.2" height="7.2"/>
	<rect x="56.3" y="149.4" class="st0" width="7.2" height="7.2"/>
	<rect x="56.3" y="142.2" class="st0" width="7.2" height="7.2"/>
	<rect x="56.3" y="135" class="st0" width="7.2" height="7.2"/>
	<rect x="56.3" y="127.9" class="st1" width="7.2" height="7.2"/>
	<rect x="56.3" y="120.7" class="st1" width="7.2" height="7.2"/>
	<rect x="56.3" y="113.5" class="st1" width="7.2" height="7.2"/>
	<rect x="56.3" y="106.3" class="st1" width="7.2" height="7.2"/>
	<rect x="56.3" y="99.2" class="st1" width="7.2" height="7.2"/>
	<rect x="56.3" y="77.6" class="st3" width="7.2" height="7.2"/>
	<rect x="56.3" y="70.4" class="st3" width="7.2" height="7.2"/>
	<rect x="56.3" y="63.3" class="st3" width="7.2" height="7.2"/>
	<rect x="56.3" y="56.1" class="st3" width="7.2" height="7.2"/>
	<rect x="56.3" y="48.9" class="st3" width="7.2" height="7.2"/>
	<rect x="56.3" y="41.7" class="st3" width="7.2" height="7.2"/>
	<rect x="56.3" y="34.6" class="st3" width="7.2" height="7.2"/>
	<rect x="56.3" y="27.4" class="st3" width="7.2" height="7.2"/>
	<rect x="56.3" y="20.2" class="st3" width="7.2" height="7.2"/>
	<rect x="49.1" y="149.4" class="st0" width="7.2" height="7.2"/>
	<rect x="49.1" y="142.2" class="st0" width="7.2" height="7.2"/>
	<rect x="49.1" y="135" class="st0" width="7.2" height="7.2"/>
	<rect x="49.1" y="127.9" class="st1" width="7.2" height="7.2"/>
	<rect x="49.1" y="120.7" class="st1" width="7.2" height="7.2"/>
	<rect x="49.1" y="113.5" class="st1" width="7.2" height="7.2"/>
	<rect x="49.1" y="106.3" class="st1" width="7.2" height="7.2"/>
	<rect x="49.1" y="70.4" class="st3" width="7.2" height="7.2"/>
	<rect x="49.1" y="63.3" class="st3" width="7.2" height="7.2"/>
	<rect x="49.1" y="56.1" class="st3" width="7.2" height="7.2"/>
	<rect x="49.1" y="48.9" class="st3" width="7.2" height="7.2"/>
	<rect x="49.1" y="41.7" class="st3" width="7.2" height="7.2"/>
	<rect x="49.1" y="34.6" class="st3" width="7.2" height="7.2"/>
	<rect x="41.9" y="142.2" class="st0" width="7.2" height="7.2"/>
	<rect x="41.9" y="135" class="st1" width="7.2" height="7.2"/>
	<rect x="41.9" y="127.9" class="st1" width="7.2" height="7.2"/>
	<rect x="41.9" y="120.7" class="st1" width="7.2" height="7.2"/>
	<rect x="41.9" y="113.5" class="st1" width="7.2" height="7.2"/>
</g>
</svg>
