<?xml version="1.0" encoding="utf-8"?>
<!-- Generator: Adobe Illustrator 19.2.0, SVG Export Plug-In . SVG Version: 6.00 Build 0)  -->
<svg version="1.1" id="Layer_1" xmlns="http://www.w3.org/2000/svg" xmlns:xlink="http://www.w3.org/1999/xlink" x="0px" y="0px"
	 viewBox="0 0 200 200" style="enable-background:new 0 0 200 200;" xml:space="preserve">
<style type="text/css">
	.st0{fill:#4E342E;}
	.st1{fill:#E91E63;}
	.st2{fill:#263238;}
	.st3{fill:#FFCCBC;}
	.st4{fill:#F9A825;}
	.st5{fill:#FAFAFA;}
	.st6{fill:#8D6E63;}
	.st7{fill:#009688;}
</style>
<g>
	<rect x="168.7" y="66.5" class="st0" width="8.2" height="8.2"/>
	<rect x="168.7" y="58.4" class="st0" width="8.2" height="8.2"/>
	<rect x="160.5" y="58.4" class="st0" width="8.2" height="8.2"/>
	<rect x="160.5" y="50.2" class="st0" width="8.2" height="8.2"/>
	<rect x="160.5" y="42" class="st0" width="8.2" height="8.2"/>
	<rect x="152.4" y="58.4" class="st0" width="8.2" height="8.2"/>
	<rect x="152.4" y="50.2" class="st0" width="8.2" height="8.2"/>
	<rect x="152.4" y="42" class="st0" width="8.2" height="8.2"/>
	<rect x="152.4" y="33.9" class="st0" width="8.2" height="8.2"/>
	<rect x="144.2" y="58.4" class="st1" width="8.2" height="8.2"/>
	<rect x="144.2" y="50.2" class="st1" width="8.2" height="8.2"/>
	<rect x="144.2" y="42" class="st1" width="8.2" height="8.2"/>
	<rect x="144.2" y="33.9" class="st1" width="8.2" height="8.2"/>
	<rect x="136.1" y="180.7" class="st2" width="8.2" height="8.2"/>
	<rect x="136.1" y="148.1" class="st3" width="8.2" height="8.2"/>
	<rect x="136.1" y="139.9" class="st3" width="8.2" height="8.2"/>
	<rect x="136.1" y="131.8" class="st4" width="8.2" height="8.2"/>
	<rect x="136.1" y="123.6" class="st4" width="8.2" height="8.2"/>
	<rect x="136.1" y="115.5" class="st4" width="8.2" height="8.2"/>
	<rect x="136.1" y="99.2" class="st3" width="8.2" height="8.2"/>
	<rect x="136.1" y="91" class="st3" width="8.2" height="8.2"/>
	<rect x="136.1" y="82.8" class="st3" width="8.2" height="8.2"/>
	<rect x="136.1" y="74.7" class="st3" width="8.2" height="8.2"/>
	<rect x="136.1" y="66.5" class="st0" width="8.2" height="8.2"/>
	<rect x="136.1" y="58.4" class="st0" width="8.2" height="8.2"/>
	<rect x="136.1" y="50.2" class="st0" width="8.2" height="8.2"/>
	<rect x="136.1" y="42" class="st0" width="8.2" height="8.2"/>
	<rect x="136.1" y="33.9" class="st0" width="8.2" height="8.2"/>
	<rect x="136.1" y="25.7" class="st0" width="8.2" height="8.2"/>
	<rect x="136.1" y="17.6" class="st0" width="8.2" height="8.2"/>
	<rect x="127.9" y="180.7" class="st2" width="8.2" height="8.2"/>
	<rect x="127.9" y="172.6" class="st3" width="8.2" height="8.2"/>
	<rect x="127.9" y="164.4" class="st4" width="8.2" height="8.2"/>
	<rect x="127.9" y="156.3" class="st4" width="8.2" height="8.2"/>
	<rect x="127.9" y="148.1" class="st5" width="8.2" height="8.2"/>
	<rect x="127.9" y="139.9" class="st3" width="8.2" height="8.2"/>
	<rect x="127.9" y="131.8" class="st4" width="8.2" height="8.2"/>
	<rect x="127.9" y="123.6" class="st4" width="8.2" height="8.2"/>
	<rect x="127.9" y="115.5" class="st1" width="8.2" height="8.2"/>
	<rect x="127.9" y="107.3" class="st3" width="8.2" height="8.2"/>
	<rect x="127.9" y="99.2" class="st3" width="8.2" height="8.2"/>
	<rect x="127.9" y="91" class="st3" width="8.2" height="8.2"/>
	<rect x="127.9" y="82.8" class="st3" width="8.2" height="8.2"/>
	<rect x="127.9" y="74.7" class="st2" width="8.2" height="8.2"/>
	<rect x="127.9" y="66.5" class="st2" width="8.2" height="8.2"/>
	<rect x="127.9" y="58.4" class="st3" width="8.2" height="8.2"/>
	<rect x="127.9" y="50.2" class="st0" width="8.2" height="8.2"/>
	<rect x="127.9" y="42" class="st0" width="8.2" height="8.2"/>
	<rect x="127.9" y="33.9" class="st0" width="8.2" height="8.2"/>
	<rect x="127.9" y="25.7" class="st0" width="8.2" height="8.2"/>
	<rect x="127.9" y="17.6" class="st0" width="8.2" height="8.2"/>
	<rect x="127.9" y="9.4" class="st0" width="8.2" height="8.2"/>
	<rect x="119.7" y="180.7" class="st2" width="8.2" height="8.2"/>
	<rect x="119.7" y="172.6" class="st3" width="8.2" height="8.2"/>
	<rect x="119.7" y="164.4" class="st4" width="8.2" height="8.2"/>
	<rect x="119.7" y="156.3" class="st4" width="8.2" height="8.2"/>
	<rect x="119.7" y="148.1" class="st5" width="8.2" height="8.2"/>
	<rect x="119.7" y="139.9" class="st4" width="8.2" height="8.2"/>
	<rect x="119.7" y="131.8" class="st4" width="8.2" height="8.2"/>
	<rect x="119.7" y="123.6" class="st1" width="8.2" height="8.2"/>
	<rect x="119.7" y="115.5" class="st1" width="8.2" height="8.2"/>
	<rect x="119.7" y="107.3" class="st3" width="8.2" height="8.2"/>
	<rect x="119.7" y="99.2" class="st3" width="8.2" height="8.2"/>
	<rect x="119.7" y="91" class="st1" width="8.2" height="8.2"/>
	<rect x="119.7" y="82.8" class="st3" width="8.2" height="8.2"/>
	<rect x="119.7" y="74.7" class="st3" width="8.2" height="8.2"/>
	<rect x="119.7" y="66.5" class="st3" width="8.2" height="8.2"/>
	<rect x="119.7" y="58.4" class="st3" width="8.2" height="8.2"/>
	<rect x="119.7" y="50.2" class="st3" width="8.2" height="8.2"/>
	<rect x="119.7" y="42" class="st0" width="8.2" height="8.2"/>
	<rect x="119.7" y="33.9" class="st0" width="8.2" height="8.2"/>
	<rect x="119.7" y="25.7" class="st0" width="8.2" height="8.2"/>
	<rect x="119.7" y="17.6" class="st0" width="8.2" height="8.2"/>
	<rect x="119.7" y="9.4" class="st0" width="8.2" height="8.2"/>
	<rect x="111.6" y="164.4" class="st4" width="8.2" height="8.2"/>
	<rect x="111.6" y="156.3" class="st4" width="8.2" height="8.2"/>
	<rect x="111.6" y="148.1" class="st5" width="8.2" height="8.2"/>
	<rect x="111.6" y="139.9" class="st4" width="8.2" height="8.2"/>
	<rect x="111.6" y="131.8" class="st1" width="8.2" height="8.2"/>
	<rect x="111.6" y="123.6" class="st1" width="8.2" height="8.2"/>
	<rect x="111.6" y="115.5" class="st4" width="8.2" height="8.2"/>
	<rect x="111.6" y="107.3" class="st3" width="8.2" height="8.2"/>
	<rect x="111.6" y="99.2" class="st3" width="8.2" height="8.2"/>
	<rect x="111.6" y="91" class="st3" width="8.2" height="8.2"/>
	<rect x="111.6" y="82.8" class="st3" width="8.2" height="8.2"/>
	<rect x="111.6" y="74.7" class="st3" width="8.2" height="8.2"/>
	<rect x="111.6" y="66.5" class="st3" width="8.2" height="8.2"/>
	<rect x="111.6" y="58.4" class="st3" width="8.2" height="8.2"/>
	<rect x="111.6" y="50.2" class="st0" width="8.2" height="8.2"/>
	<rect x="111.6" y="42" class="st0" width="8.2" height="8.2"/>
	<rect x="111.6" y="33.9" class="st0" width="8.2" height="8.2"/>
	<rect x="111.6" y="25.7" class="st0" width="8.2" height="8.2"/>
	<rect x="111.6" y="17.6" class="st0" width="8.2" height="8.2"/>
	<rect x="111.6" y="9.4" class="st0" width="8.2" height="8.2"/>
	<rect x="103.4" y="164.4" class="st4" width="8.2" height="8.2"/>
	<rect x="103.4" y="156.3" class="st4" width="8.2" height="8.2"/>
	<rect x="103.4" y="148.1" class="st5" width="8.2" height="8.2"/>
	<rect x="103.4" y="139.9" class="st4" width="8.2" height="8.2"/>
	<rect x="103.4" y="131.8" class="st4" width="8.2" height="8.2"/>
	<rect x="103.4" y="123.6" class="st1" width="8.2" height="8.2"/>
	<rect x="103.4" y="115.5" class="st1" width="8.2" height="8.2"/>
	<rect x="103.4" y="107.3" class="st3" width="8.2" height="8.2"/>
	<rect x="103.4" y="99.2" class="st3" width="8.2" height="8.2"/>
	<rect x="103.4" y="91" class="st3" width="8.2" height="8.2"/>
	<rect x="103.4" y="82.8" class="st3" width="8.2" height="8.2"/>
	<rect x="103.4" y="74.7" class="st2" width="8.2" height="8.2"/>
	<rect x="103.4" y="66.5" class="st2" width="8.2" height="8.2"/>
	<rect x="103.4" y="58.4" class="st3" width="8.2" height="8.2"/>
	<rect x="103.4" y="50.2" class="st0" width="8.2" height="8.2"/>
	<rect x="103.4" y="42" class="st0" width="8.2" height="8.2"/>
	<rect x="103.4" y="33.9" class="st0" width="8.2" height="8.2"/>
	<rect x="103.4" y="25.7" class="st0" width="8.2" height="8.2"/>
	<rect x="103.4" y="17.6" class="st0" width="8.2" height="8.2"/>
	<rect x="103.4" y="9.4" class="st0" width="8.2" height="8.2"/>
	<rect x="95.3" y="164.4" class="st4" width="8.2" height="8.2"/>
	<rect x="95.3" y="156.3" class="st4" width="8.2" height="8.2"/>
	<rect x="95.3" y="148.1" class="st5" width="8.2" height="8.2"/>
	<rect x="95.3" y="139.9" class="st4" width="8.2" height="8.2"/>
	<rect x="95.3" y="131.8" class="st4" width="8.2" height="8.2"/>
	<rect x="95.3" y="123.6" class="st4" width="8.2" height="8.2"/>
	<rect x="95.3" y="115.5" class="st1" width="8.2" height="8.2"/>
	<rect x="95.3" y="107.3" class="st3" width="8.2" height="8.2"/>
	<rect x="95.3" y="99.2" class="st3" width="8.2" height="8.2"/>
	<rect x="95.3" y="91" class="st3" width="8.2" height="8.2"/>
	<rect x="95.3" y="82.8" class="st3" width="8.2" height="8.2"/>
	<rect x="95.3" y="74.7" class="st3" width="8.2" height="8.2"/>
	<rect x="95.3" y="66.5" class="st3" width="8.2" height="8.2"/>
	<rect x="95.3" y="58.4" class="st0" width="8.2" height="8.2"/>
	<rect x="95.3" y="50.2" class="st0" width="8.2" height="8.2"/>
	<rect x="95.3" y="42" class="st0" width="8.2" height="8.2"/>
	<rect x="95.3" y="33.9" class="st0" width="8.2" height="8.2"/>
	<rect x="95.3" y="25.7" class="st0" width="8.2" height="8.2"/>
	<rect x="95.3" y="17.6" class="st6" width="8.2" height="8.2"/>
	<rect x="95.3" y="9.4" class="st0" width="8.2" height="8.2"/>
	<rect x="87.1" y="180.7" class="st2" width="8.2" height="8.2"/>
	<rect x="87.1" y="172.6" class="st3" width="8.2" height="8.2"/>
	<rect x="87.1" y="164.4" class="st4" width="8.2" height="8.2"/>
	<rect x="87.1" y="156.3" class="st4" width="8.2" height="8.2"/>
	<rect x="87.1" y="148.1" class="st5" width="8.2" height="8.2"/>
	<rect x="87.1" y="139.9" class="st3" width="8.2" height="8.2"/>
	<rect x="87.1" y="131.8" class="st7" width="8.2" height="8.2"/>
	<rect x="87.1" y="123.6" class="st7" width="8.2" height="8.2"/>
	<rect x="87.1" y="115.5" class="st7" width="8.2" height="8.2"/>
	<rect x="87.1" y="107.3" class="st3" width="8.2" height="8.2"/>
	<rect x="87.1" y="99.2" class="st3" width="8.2" height="8.2"/>
	<rect x="87.1" y="91" class="st3" width="8.2" height="8.2"/>
	<rect x="87.1" y="82.8" class="st3" width="8.2" height="8.2"/>
	<rect x="87.1" y="74.7" class="st3" width="8.2" height="8.2"/>
	<rect x="87.1" y="66.5" class="st0" width="8.2" height="8.2"/>
	<rect x="87.1" y="58.4" class="st0" width="8.2" height="8.2"/>
	<rect x="87.1" y="50.2" class="st0" width="8.2" height="8.2"/>
	<rect x="87.1" y="42" class="st0" width="8.2" height="8.2"/>
	<rect x="87.1" y="33.9" class="st0" width="8.2" height="8.2"/>
	<rect x="87.1" y="25.7" class="st0" width="8.2" height="8.2"/>
	<rect x="87.1" y="17.6" class="st6" width="8.2" height="8.2"/>
	<rect x="87.1" y="9.4" class="st0" width="8.2" height="8.2"/>
	<rect x="79" y="180.7" class="st2" width="8.2" height="8.2"/>
	<rect x="79" y="172.6" class="st3" width="8.2" height="8.2"/>
	<rect x="79" y="164.4" class="st4" width="8.2" height="8.2"/>
	<rect x="79" y="156.3" class="st4" width="8.2" height="8.2"/>
	<rect x="79" y="148.1" class="st3" width="8.2" height="8.2"/>
	<rect x="79" y="139.9" class="st3" width="8.2" height="8.2"/>
	<rect x="79" y="131.8" class="st4" width="8.2" height="8.2"/>
	<rect x="79" y="123.6" class="st4" width="8.2" height="8.2"/>
	<rect x="79" y="115.5" class="st4" width="8.2" height="8.2"/>
	<rect x="79" y="107.3" class="st0" width="8.2" height="8.2"/>
	<rect x="79" y="99.2" class="st0" width="8.2" height="8.2"/>
	<rect x="79" y="91" class="st0" width="8.2" height="8.2"/>
	<rect x="79" y="82.8" class="st0" width="8.2" height="8.2"/>
	<rect x="79" y="74.7" class="st0" width="8.2" height="8.2"/>
	<rect x="79" y="66.5" class="st0" width="8.2" height="8.2"/>
	<rect x="79" y="58.4" class="st0" width="8.2" height="8.2"/>
	<rect x="79" y="50.2" class="st0" width="8.2" height="8.2"/>
	<rect x="79" y="42" class="st0" width="8.2" height="8.2"/>
	<rect x="79" y="33.9" class="st0" width="8.2" height="8.2"/>
	<rect x="79" y="25.7" class="st6" width="8.2" height="8.2"/>
	<rect x="79" y="17.6" class="st0" width="8.2" height="8.2"/>
	<rect x="79" y="9.4" class="st0" width="8.2" height="8.2"/>
	<rect x="70.8" y="180.7" class="st2" width="8.2" height="8.2"/>
	<rect x="70.8" y="172.6" class="st3" width="8.2" height="8.2"/>
	<rect x="70.8" y="164.4" class="st4" width="8.2" height="8.2"/>
	<rect x="70.8" y="156.3" class="st4" width="8.2" height="8.2"/>
	<rect x="70.8" y="148.1" class="st3" width="8.2" height="8.2"/>
	<rect x="70.8" y="139.9" class="st3" width="8.2" height="8.2"/>
	<rect x="70.8" y="131.8" class="st4" width="8.2" height="8.2"/>
	<rect x="70.8" y="123.6" class="st4" width="8.2" height="8.2"/>
	<rect x="70.8" y="115.5" class="st4" width="8.2" height="8.2"/>
	<rect x="70.8" y="107.3" class="st4" width="8.2" height="8.2"/>
	<rect x="70.8" y="99.2" class="st3" width="8.2" height="8.2"/>
	<rect x="70.8" y="91" class="st3" width="8.2" height="8.2"/>
	<rect x="70.8" y="82.8" class="st3" width="8.2" height="8.2"/>
	<rect x="70.8" y="74.7" class="st3" width="8.2" height="8.2"/>
	<rect x="70.8" y="66.5" class="st0" width="8.2" height="8.2"/>
	<rect x="70.8" y="58.4" class="st0" width="8.2" height="8.2"/>
	<rect x="70.8" y="50.2" class="st0" width="8.2" height="8.2"/>
	<rect x="70.8" y="42" class="st0" width="8.2" height="8.2"/>
	<rect x="70.8" y="33.9" class="st0" width="8.2" height="8.2"/>
	<rect x="70.8" y="25.7" class="st0" width="8.2" height="8.2"/>
	<rect x="70.8" y="17.6" class="st0" width="8.2" height="8.2"/>
	<rect x="70.8" y="9.4" class="st0" width="8.2" height="8.2"/>
	<rect x="62.6" y="164.4" class="st4" width="8.2" height="8.2"/>
	<rect x="62.6" y="156.3" class="st4" width="8.2" height="8.2"/>
	<rect x="62.6" y="148.1" class="st5" width="8.2" height="8.2"/>
	<rect x="62.6" y="139.9" class="st7" width="8.2" height="8.2"/>
	<rect x="62.6" y="131.8" class="st7" width="8.2" height="8.2"/>
	<rect x="62.6" y="123.6" class="st7" width="8.2" height="8.2"/>
	<rect x="62.6" y="115.5" class="st7" width="8.2" height="8.2"/>
	<rect x="62.6" y="107.3" class="st7" width="8.2" height="8.2"/>
	<rect x="62.6" y="99.2" class="st0" width="8.2" height="8.2"/>
	<rect x="62.6" y="91" class="st3" width="8.2" height="8.2"/>
	<rect x="62.6" y="82.8" class="st3" width="8.2" height="8.2"/>
	<rect x="62.6" y="74.7" class="st3" width="8.2" height="8.2"/>
	<rect x="62.6" y="66.5" class="st0" width="8.2" height="8.2"/>
	<rect x="62.6" y="58.4" class="st1" width="8.2" height="8.2"/>
	<rect x="62.6" y="50.2" class="st1" width="8.2" height="8.2"/>
	<rect x="62.6" y="42" class="st1" width="8.2" height="8.2"/>
	<rect x="62.6" y="33.9" class="st1" width="8.2" height="8.2"/>
	<rect x="62.6" y="25.7" class="st0" width="8.2" height="8.2"/>
	<rect x="62.6" y="17.6" class="st0" width="8.2" height="8.2"/>
	<rect x="54.5" y="139.9" class="st7" width="8.2" height="8.2"/>
	<rect x="54.5" y="131.8" class="st7" width="8.2" height="8.2"/>
	<rect x="54.5" y="123.6" class="st7" width="8.2" height="8.2"/>
	<rect x="54.5" y="115.5" class="st7" width="8.2" height="8.2"/>
	<rect x="54.5" y="107.3" class="st7" width="8.2" height="8.2"/>
	<rect x="54.5" y="99.2" class="st0" width="8.2" height="8.2"/>
	<rect x="54.5" y="91" class="st0" width="8.2" height="8.2"/>
	<rect x="54.5" y="82.8" class="st0" width="8.2" height="8.2"/>
	<rect x="54.5" y="74.7" class="st0" width="8.2" height="8.2"/>
	<rect x="54.5" y="66.5" class="st1" width="8.2" height="8.2"/>
	<rect x="54.5" y="58.4" class="st0" width="8.2" height="8.2"/>
	<rect x="54.5" y="50.2" class="st0" width="8.2" height="8.2"/>
	<rect x="54.5" y="42" class="st0" width="8.2" height="8.2"/>
	<rect x="54.5" y="33.9" class="st0" width="8.2" height="8.2"/>
	<rect x="54.5" y="25.7" class="st1" width="8.2" height="8.2"/>
	<rect x="46.3" y="139.9" class="st7" width="8.2" height="8.2"/>
	<rect x="46.3" y="131.8" class="st7" width="8.2" height="8.2"/>
	<rect x="46.3" y="58.4" class="st0" width="8.2" height="8.2"/>
	<rect x="46.3" y="50.2" class="st0" width="8.2" height="8.2"/>
	<rect x="46.3" y="42" class="st0" width="8.2" height="8.2"/>
	<rect x="46.3" y="33.9" class="st0" width="8.2" height="8.2"/>
	<rect x="38.2" y="50.2" class="st0" width="8.2" height="8.2"/>
	<rect x="38.2" y="42" class="st0" width="8.2" height="8.2"/>
	<rect x="38.2" y="33.9" class="st0" width="8.2" height="8.2"/>
	<rect x="30" y="50.2" class="st0" width="8.2" height="8.2"/>
	<rect x="30" y="42" class="st0" width="8.2" height="8.2"/>
	<rect x="21.8" y="66.5" class="st0" width="8.2" height="8.2"/>
	<rect x="21.8" y="58.4" class="st0" width="8.2" height="8.2"/>
</g>
</svg>
