<?xml version="1.0" encoding="utf-8"?>
<!-- Generator: Adobe Illustrator 19.2.0, SVG Export Plug-In . SVG Version: 6.00 Build 0)  -->
<svg version="1.1" id="Layer_1" xmlns="http://www.w3.org/2000/svg" xmlns:xlink="http://www.w3.org/1999/xlink" x="0px" y="0px"
	 viewBox="0 0 200 350" style="enable-background:new 0 0 200 350;" xml:space="preserve">
<style type="text/css">
	.st0{fill:none;stroke:#E0277F;stroke-width:5;stroke-miterlimit:10;}
	.st1{fill:#4E342E;}
	.st2{fill:#E91E63;}
	.st3{fill:#263238;}
	.st4{fill:#FFCCBC;}
	.st5{fill:#F9A825;}
	.st6{fill:#FAFAFA;}
	.st7{fill:#8D6E63;}
	.st8{fill:#009688;}
</style>
<line class="st0" x1="99.7" y1="22" x2="99.7" y2="132.8"/>
<g>
	<rect x="155.7" y="221.7" class="st1" width="6.6" height="6.6"/>
	<rect x="155.7" y="215.2" class="st1" width="6.6" height="6.6"/>
	<rect x="149.1" y="215.2" class="st1" width="6.6" height="6.6"/>
	<rect x="149.1" y="208.6" class="st1" width="6.6" height="6.6"/>
	<rect x="149.1" y="202" class="st1" width="6.6" height="6.6"/>
	<rect x="142.5" y="215.2" class="st1" width="6.6" height="6.6"/>
	<rect x="142.5" y="208.6" class="st1" width="6.6" height="6.6"/>
	<rect x="142.5" y="202" class="st1" width="6.6" height="6.6"/>
	<rect x="142.5" y="195.4" class="st1" width="6.6" height="6.6"/>
	<rect x="135.9" y="215.2" class="st2" width="6.6" height="6.6"/>
	<rect x="135.9" y="208.6" class="st2" width="6.6" height="6.6"/>
	<rect x="135.9" y="202" class="st2" width="6.6" height="6.6"/>
	<rect x="135.9" y="195.4" class="st2" width="6.6" height="6.6"/>
	<rect x="129.4" y="313.8" class="st3" width="6.6" height="6.6"/>
	<rect x="129.4" y="287.5" class="st4" width="6.6" height="6.6"/>
	<rect x="129.4" y="280.9" class="st4" width="6.6" height="6.6"/>
	<rect x="129.4" y="274.4" class="st5" width="6.6" height="6.6"/>
	<rect x="129.4" y="267.8" class="st5" width="6.6" height="6.6"/>
	<rect x="129.4" y="261.2" class="st5" width="6.6" height="6.6"/>
	<rect x="129.4" y="248" class="st4" width="6.6" height="6.6"/>
	<rect x="129.4" y="241.5" class="st4" width="6.6" height="6.6"/>
	<rect x="129.4" y="234.9" class="st4" width="6.6" height="6.6"/>
	<rect x="129.4" y="228.3" class="st4" width="6.6" height="6.6"/>
	<rect x="129.4" y="221.7" class="st1" width="6.6" height="6.6"/>
	<rect x="129.4" y="215.2" class="st1" width="6.6" height="6.6"/>
	<rect x="129.4" y="208.6" class="st1" width="6.6" height="6.6"/>
	<rect x="129.4" y="202" class="st1" width="6.6" height="6.6"/>
	<rect x="129.4" y="195.4" class="st1" width="6.6" height="6.6"/>
	<rect x="129.4" y="188.8" class="st1" width="6.6" height="6.6"/>
	<rect x="129.4" y="182.3" class="st1" width="6.6" height="6.6"/>
	<rect x="122.8" y="313.8" class="st3" width="6.6" height="6.6"/>
	<rect x="122.8" y="307.3" class="st4" width="6.6" height="6.6"/>
	<rect x="122.8" y="300.7" class="st5" width="6.6" height="6.6"/>
	<rect x="122.8" y="294.1" class="st5" width="6.6" height="6.6"/>
	<rect x="122.8" y="287.5" class="st6" width="6.6" height="6.6"/>
	<rect x="122.8" y="280.9" class="st4" width="6.6" height="6.6"/>
	<rect x="122.8" y="274.4" class="st5" width="6.6" height="6.6"/>
	<rect x="122.8" y="267.8" class="st5" width="6.6" height="6.6"/>
	<rect x="122.8" y="261.2" class="st2" width="6.6" height="6.6"/>
	<rect x="122.8" y="254.6" class="st4" width="6.6" height="6.6"/>
	<rect x="122.8" y="248" class="st4" width="6.6" height="6.6"/>
	<rect x="122.8" y="241.5" class="st4" width="6.6" height="6.6"/>
	<rect x="122.8" y="234.9" class="st4" width="6.6" height="6.6"/>
	<rect x="122.8" y="228.3" class="st3" width="6.6" height="6.6"/>
	<rect x="122.8" y="221.7" class="st3" width="6.6" height="6.6"/>
	<rect x="122.8" y="215.2" class="st4" width="6.6" height="6.6"/>
	<rect x="122.8" y="208.6" class="st1" width="6.6" height="6.6"/>
	<rect x="122.8" y="202" class="st1" width="6.6" height="6.6"/>
	<rect x="122.8" y="195.4" class="st1" width="6.6" height="6.6"/>
	<rect x="122.8" y="188.8" class="st1" width="6.6" height="6.6"/>
	<rect x="122.8" y="182.3" class="st1" width="6.6" height="6.6"/>
	<rect x="122.8" y="175.7" class="st1" width="6.6" height="6.6"/>
	<rect x="116.2" y="313.8" class="st3" width="6.6" height="6.6"/>
	<rect x="116.2" y="307.3" class="st4" width="6.6" height="6.6"/>
	<rect x="116.2" y="300.7" class="st5" width="6.6" height="6.6"/>
	<rect x="116.2" y="294.1" class="st5" width="6.6" height="6.6"/>
	<rect x="116.2" y="287.5" class="st6" width="6.6" height="6.6"/>
	<rect x="116.2" y="280.9" class="st5" width="6.6" height="6.6"/>
	<rect x="116.2" y="274.4" class="st5" width="6.6" height="6.6"/>
	<rect x="116.2" y="267.8" class="st2" width="6.6" height="6.6"/>
	<rect x="116.2" y="261.2" class="st2" width="6.6" height="6.6"/>
	<rect x="116.2" y="254.6" class="st4" width="6.6" height="6.6"/>
	<rect x="116.2" y="248" class="st4" width="6.6" height="6.6"/>
	<rect x="116.2" y="241.5" class="st2" width="6.6" height="6.6"/>
	<rect x="116.2" y="234.9" class="st4" width="6.6" height="6.6"/>
	<rect x="116.2" y="228.3" class="st4" width="6.6" height="6.6"/>
	<rect x="116.2" y="221.7" class="st4" width="6.6" height="6.6"/>
	<rect x="116.2" y="215.2" class="st4" width="6.6" height="6.6"/>
	<rect x="116.2" y="208.6" class="st4" width="6.6" height="6.6"/>
	<rect x="116.2" y="202" class="st1" width="6.6" height="6.6"/>
	<rect x="116.2" y="195.4" class="st1" width="6.6" height="6.6"/>
	<rect x="116.2" y="188.8" class="st1" width="6.6" height="6.6"/>
	<rect x="116.2" y="182.3" class="st1" width="6.6" height="6.6"/>
	<rect x="116.2" y="175.7" class="st1" width="6.6" height="6.6"/>
	<rect x="109.6" y="300.7" class="st5" width="6.6" height="6.6"/>
	<rect x="109.6" y="294.1" class="st5" width="6.6" height="6.6"/>
	<rect x="109.6" y="287.5" class="st6" width="6.6" height="6.6"/>
	<rect x="109.6" y="280.9" class="st5" width="6.6" height="6.6"/>
	<rect x="109.6" y="274.4" class="st2" width="6.6" height="6.6"/>
	<rect x="109.6" y="267.8" class="st2" width="6.6" height="6.6"/>
	<rect x="109.6" y="261.2" class="st5" width="6.6" height="6.6"/>
	<rect x="109.6" y="254.6" class="st4" width="6.6" height="6.6"/>
	<rect x="109.6" y="248" class="st4" width="6.6" height="6.6"/>
	<rect x="109.6" y="241.5" class="st4" width="6.6" height="6.6"/>
	<rect x="109.6" y="234.9" class="st4" width="6.6" height="6.6"/>
	<rect x="109.6" y="228.3" class="st4" width="6.6" height="6.6"/>
	<rect x="109.6" y="221.7" class="st4" width="6.6" height="6.6"/>
	<rect x="109.6" y="215.2" class="st4" width="6.6" height="6.6"/>
	<rect x="109.6" y="208.6" class="st1" width="6.6" height="6.6"/>
	<rect x="109.6" y="202" class="st1" width="6.6" height="6.6"/>
	<rect x="109.6" y="195.4" class="st1" width="6.6" height="6.6"/>
	<rect x="109.6" y="188.8" class="st1" width="6.6" height="6.6"/>
	<rect x="109.6" y="182.3" class="st1" width="6.6" height="6.6"/>
	<rect x="109.6" y="175.7" class="st1" width="6.6" height="6.6"/>
	<rect x="103" y="300.7" class="st5" width="6.6" height="6.6"/>
	<rect x="103" y="294.1" class="st5" width="6.6" height="6.6"/>
	<rect x="103" y="287.5" class="st6" width="6.6" height="6.6"/>
	<rect x="103" y="280.9" class="st5" width="6.6" height="6.6"/>
	<rect x="103" y="274.4" class="st5" width="6.6" height="6.6"/>
	<rect x="103" y="267.8" class="st2" width="6.6" height="6.6"/>
	<rect x="103" y="261.2" class="st2" width="6.6" height="6.6"/>
	<rect x="103" y="254.6" class="st4" width="6.6" height="6.6"/>
	<rect x="103" y="248" class="st4" width="6.6" height="6.6"/>
	<rect x="103" y="241.5" class="st4" width="6.6" height="6.6"/>
	<rect x="103" y="234.9" class="st4" width="6.6" height="6.6"/>
	<rect x="103" y="228.3" class="st3" width="6.6" height="6.6"/>
	<rect x="103" y="221.7" class="st3" width="6.6" height="6.6"/>
	<rect x="103" y="215.2" class="st4" width="6.6" height="6.6"/>
	<rect x="103" y="208.6" class="st1" width="6.6" height="6.6"/>
	<rect x="103" y="202" class="st1" width="6.6" height="6.6"/>
	<rect x="103" y="195.4" class="st1" width="6.6" height="6.6"/>
	<rect x="103" y="188.8" class="st1" width="6.6" height="6.6"/>
	<rect x="103" y="182.3" class="st1" width="6.6" height="6.6"/>
	<rect x="103" y="175.7" class="st1" width="6.6" height="6.6"/>
	<rect x="96.5" y="300.7" class="st5" width="6.6" height="6.6"/>
	<rect x="96.5" y="294.1" class="st5" width="6.6" height="6.6"/>
	<rect x="96.5" y="287.5" class="st6" width="6.6" height="6.6"/>
	<rect x="96.5" y="280.9" class="st5" width="6.6" height="6.6"/>
	<rect x="96.5" y="274.4" class="st5" width="6.6" height="6.6"/>
	<rect x="96.5" y="267.8" class="st5" width="6.6" height="6.6"/>
	<rect x="96.5" y="261.2" class="st2" width="6.6" height="6.6"/>
	<rect x="96.5" y="254.6" class="st4" width="6.6" height="6.6"/>
	<rect x="96.5" y="248" class="st4" width="6.6" height="6.6"/>
	<rect x="96.5" y="241.5" class="st4" width="6.6" height="6.6"/>
	<rect x="96.5" y="234.9" class="st4" width="6.6" height="6.6"/>
	<rect x="96.5" y="228.3" class="st4" width="6.6" height="6.6"/>
	<rect x="96.5" y="221.7" class="st4" width="6.6" height="6.6"/>
	<rect x="96.5" y="215.2" class="st1" width="6.6" height="6.6"/>
	<rect x="96.5" y="208.6" class="st1" width="6.6" height="6.6"/>
	<rect x="96.5" y="202" class="st1" width="6.6" height="6.6"/>
	<rect x="96.5" y="195.4" class="st1" width="6.6" height="6.6"/>
	<rect x="96.5" y="188.8" class="st1" width="6.6" height="6.6"/>
	<rect x="96.5" y="182.3" class="st7" width="6.6" height="6.6"/>
	<rect x="96.5" y="175.7" class="st1" width="6.6" height="6.6"/>
	<rect x="89.9" y="313.8" class="st3" width="6.6" height="6.6"/>
	<rect x="89.9" y="307.3" class="st4" width="6.6" height="6.6"/>
	<rect x="89.9" y="300.7" class="st5" width="6.6" height="6.6"/>
	<rect x="89.9" y="294.1" class="st5" width="6.6" height="6.6"/>
	<rect x="89.9" y="287.5" class="st6" width="6.6" height="6.6"/>
	<rect x="89.9" y="280.9" class="st4" width="6.6" height="6.6"/>
	<rect x="89.9" y="274.4" class="st8" width="6.6" height="6.6"/>
	<rect x="89.9" y="267.8" class="st8" width="6.6" height="6.6"/>
	<rect x="89.9" y="261.2" class="st8" width="6.6" height="6.6"/>
	<rect x="89.9" y="254.6" class="st4" width="6.6" height="6.6"/>
	<rect x="89.9" y="248" class="st4" width="6.6" height="6.6"/>
	<rect x="89.9" y="241.5" class="st4" width="6.6" height="6.6"/>
	<rect x="89.9" y="234.9" class="st4" width="6.6" height="6.6"/>
	<rect x="89.9" y="228.3" class="st4" width="6.6" height="6.6"/>
	<rect x="89.9" y="221.7" class="st1" width="6.6" height="6.6"/>
	<rect x="89.9" y="215.2" class="st1" width="6.6" height="6.6"/>
	<rect x="89.9" y="208.6" class="st1" width="6.6" height="6.6"/>
	<rect x="89.9" y="202" class="st1" width="6.6" height="6.6"/>
	<rect x="89.9" y="195.4" class="st1" width="6.6" height="6.6"/>
	<rect x="89.9" y="188.8" class="st1" width="6.6" height="6.6"/>
	<rect x="89.9" y="182.3" class="st7" width="6.6" height="6.6"/>
	<rect x="89.9" y="175.7" class="st1" width="6.6" height="6.6"/>
	<rect x="83.3" y="313.8" class="st3" width="6.6" height="6.6"/>
	<rect x="83.3" y="307.3" class="st4" width="6.6" height="6.6"/>
	<rect x="83.3" y="300.7" class="st5" width="6.6" height="6.6"/>
	<rect x="83.3" y="294.1" class="st5" width="6.6" height="6.6"/>
	<rect x="83.3" y="287.5" class="st4" width="6.6" height="6.6"/>
	<rect x="83.3" y="280.9" class="st4" width="6.6" height="6.6"/>
	<rect x="83.3" y="274.4" class="st5" width="6.6" height="6.6"/>
	<rect x="83.3" y="267.8" class="st5" width="6.6" height="6.6"/>
	<rect x="83.3" y="261.2" class="st5" width="6.6" height="6.6"/>
	<rect x="83.3" y="254.6" class="st1" width="6.6" height="6.6"/>
	<rect x="83.3" y="248" class="st1" width="6.6" height="6.6"/>
	<rect x="83.3" y="241.5" class="st1" width="6.6" height="6.6"/>
	<rect x="83.3" y="234.9" class="st1" width="6.6" height="6.6"/>
	<rect x="83.3" y="228.3" class="st1" width="6.6" height="6.6"/>
	<rect x="83.3" y="221.7" class="st1" width="6.6" height="6.6"/>
	<rect x="83.3" y="215.2" class="st1" width="6.6" height="6.6"/>
	<rect x="83.3" y="208.6" class="st1" width="6.6" height="6.6"/>
	<rect x="83.3" y="202" class="st1" width="6.6" height="6.6"/>
	<rect x="83.3" y="195.4" class="st1" width="6.6" height="6.6"/>
	<rect x="83.3" y="188.8" class="st7" width="6.6" height="6.6"/>
	<rect x="83.3" y="182.3" class="st1" width="6.6" height="6.6"/>
	<rect x="83.3" y="175.7" class="st1" width="6.6" height="6.6"/>
	<rect x="76.7" y="313.8" class="st3" width="6.6" height="6.6"/>
	<rect x="76.7" y="307.3" class="st4" width="6.6" height="6.6"/>
	<rect x="76.7" y="300.7" class="st5" width="6.6" height="6.6"/>
	<rect x="76.7" y="294.1" class="st5" width="6.6" height="6.6"/>
	<rect x="76.7" y="287.5" class="st4" width="6.6" height="6.6"/>
	<rect x="76.7" y="280.9" class="st4" width="6.6" height="6.6"/>
	<rect x="76.7" y="274.4" class="st5" width="6.6" height="6.6"/>
	<rect x="76.7" y="267.8" class="st5" width="6.6" height="6.6"/>
	<rect x="76.7" y="261.2" class="st5" width="6.6" height="6.6"/>
	<rect x="76.7" y="254.6" class="st5" width="6.6" height="6.6"/>
	<rect x="76.7" y="248" class="st4" width="6.6" height="6.6"/>
	<rect x="76.7" y="241.5" class="st4" width="6.6" height="6.6"/>
	<rect x="76.7" y="234.9" class="st4" width="6.6" height="6.6"/>
	<rect x="76.7" y="228.3" class="st4" width="6.6" height="6.6"/>
	<rect x="76.7" y="221.7" class="st1" width="6.6" height="6.6"/>
	<rect x="76.7" y="215.2" class="st1" width="6.6" height="6.6"/>
	<rect x="76.7" y="208.6" class="st1" width="6.6" height="6.6"/>
	<rect x="76.7" y="202" class="st1" width="6.6" height="6.6"/>
	<rect x="76.7" y="195.4" class="st1" width="6.6" height="6.6"/>
	<rect x="76.7" y="188.8" class="st1" width="6.6" height="6.6"/>
	<rect x="76.7" y="182.3" class="st1" width="6.6" height="6.6"/>
	<rect x="76.7" y="175.7" class="st1" width="6.6" height="6.6"/>
	<rect x="70.1" y="300.7" class="st5" width="6.6" height="6.6"/>
	<rect x="70.1" y="294.1" class="st5" width="6.6" height="6.6"/>
	<rect x="70.1" y="287.5" class="st6" width="6.6" height="6.6"/>
	<rect x="70.1" y="280.9" class="st8" width="6.6" height="6.6"/>
	<rect x="70.1" y="274.4" class="st8" width="6.6" height="6.6"/>
	<rect x="70.1" y="267.8" class="st8" width="6.6" height="6.6"/>
	<rect x="70.1" y="261.2" class="st8" width="6.6" height="6.6"/>
	<rect x="70.1" y="254.6" class="st8" width="6.6" height="6.6"/>
	<rect x="70.1" y="248" class="st1" width="6.6" height="6.6"/>
	<rect x="70.1" y="241.5" class="st4" width="6.6" height="6.6"/>
	<rect x="70.1" y="234.9" class="st4" width="6.6" height="6.6"/>
	<rect x="70.1" y="228.3" class="st4" width="6.6" height="6.6"/>
	<rect x="70.1" y="221.7" class="st1" width="6.6" height="6.6"/>
	<rect x="70.1" y="215.2" class="st2" width="6.6" height="6.6"/>
	<rect x="70.1" y="208.6" class="st2" width="6.6" height="6.6"/>
	<rect x="70.1" y="202" class="st2" width="6.6" height="6.6"/>
	<rect x="70.1" y="195.4" class="st2" width="6.6" height="6.6"/>
	<rect x="70.1" y="188.8" class="st1" width="6.6" height="6.6"/>
	<rect x="70.1" y="182.3" class="st1" width="6.6" height="6.6"/>
	<rect x="63.6" y="280.9" class="st8" width="6.6" height="6.6"/>
	<rect x="63.6" y="274.4" class="st8" width="6.6" height="6.6"/>
	<rect x="63.6" y="267.8" class="st8" width="6.6" height="6.6"/>
	<rect x="63.6" y="261.2" class="st8" width="6.6" height="6.6"/>
	<rect x="63.6" y="254.6" class="st8" width="6.6" height="6.6"/>
	<rect x="63.6" y="248" class="st1" width="6.6" height="6.6"/>
	<rect x="63.6" y="241.5" class="st1" width="6.6" height="6.6"/>
	<rect x="63.6" y="234.9" class="st1" width="6.6" height="6.6"/>
	<rect x="63.6" y="228.3" class="st1" width="6.6" height="6.6"/>
	<rect x="63.6" y="221.7" class="st2" width="6.6" height="6.6"/>
	<rect x="63.6" y="215.2" class="st1" width="6.6" height="6.6"/>
	<rect x="63.6" y="208.6" class="st1" width="6.6" height="6.6"/>
	<rect x="63.6" y="202" class="st1" width="6.6" height="6.6"/>
	<rect x="63.6" y="195.4" class="st1" width="6.6" height="6.6"/>
	<rect x="63.6" y="188.8" class="st2" width="6.6" height="6.6"/>
	<rect x="57" y="280.9" class="st8" width="6.6" height="6.6"/>
	<rect x="57" y="274.4" class="st8" width="6.6" height="6.6"/>
	<rect x="57" y="215.2" class="st1" width="6.6" height="6.6"/>
	<rect x="57" y="208.6" class="st1" width="6.6" height="6.6"/>
	<rect x="57" y="202" class="st1" width="6.6" height="6.6"/>
	<rect x="57" y="195.4" class="st1" width="6.6" height="6.6"/>
	<rect x="50.4" y="208.6" class="st1" width="6.6" height="6.6"/>
	<rect x="50.4" y="202" class="st1" width="6.6" height="6.6"/>
	<rect x="50.4" y="195.4" class="st1" width="6.6" height="6.6"/>
	<rect x="43.8" y="208.6" class="st1" width="6.6" height="6.6"/>
	<rect x="43.8" y="202" class="st1" width="6.6" height="6.6"/>
	<rect x="37.2" y="221.7" class="st1" width="6.6" height="6.6"/>
	<rect x="37.2" y="215.2" class="st1" width="6.6" height="6.6"/>
</g>
</svg>
