<?xml version="1.0" encoding="utf-8"?>
<!-- Generator: Adobe Illustrator 19.2.0, SVG Export Plug-In . SVG Version: 6.00 Build 0)  -->
<svg version="1.1" id="Layer_1" xmlns="http://www.w3.org/2000/svg" xmlns:xlink="http://www.w3.org/1999/xlink" x="0px" y="0px"
	 viewBox="0 0 200 350" style="enable-background:new 0 0 200 350;" xml:space="preserve">
<style type="text/css">
	.st0{fill:none;stroke:#3399CC;stroke-width:5;stroke-miterlimit:10;}
	.st1{fill:#F9A825;}
	.st2{fill:#263238;}
	.st3{fill:#FFCCBC;}
	.st4{fill:#00BCD4;}
	.st5{fill:#009688;}
	.st6{fill:#FAFAFA;}
	.st7{fill:#FBCB7C;}
</style>
<line class="st0" x1="99.7" y1="22" x2="99.7" y2="132.8"/>
<g>
	<rect x="139.2" y="208.6" class="st1" width="7.2" height="7.2"/>
	<rect x="139.2" y="201.4" class="st1" width="7.2" height="7.2"/>
	<rect x="139.2" y="194.2" class="st1" width="7.2" height="7.2"/>
	<rect x="139.2" y="187" class="st1" width="7.2" height="7.2"/>
	<rect x="139.2" y="179.8" class="st1" width="7.2" height="7.2"/>
	<rect x="132.1" y="330.6" class="st2" width="7.2" height="7.2"/>
	<rect x="132.1" y="301.9" class="st3" width="7.2" height="7.2"/>
	<rect x="132.1" y="294.7" class="st3" width="7.2" height="7.2"/>
	<rect x="132.1" y="287.5" class="st4" width="7.2" height="7.2"/>
	<rect x="132.1" y="280.3" class="st4" width="7.2" height="7.2"/>
	<rect x="132.1" y="273.2" class="st4" width="7.2" height="7.2"/>
	<rect x="132.1" y="266" class="st4" width="7.2" height="7.2"/>
	<rect x="132.1" y="258.8" class="st3" width="7.2" height="7.2"/>
	<rect x="132.1" y="251.6" class="st3" width="7.2" height="7.2"/>
	<rect x="132.1" y="244.4" class="st3" width="7.2" height="7.2"/>
	<rect x="132.1" y="237.3" class="st3" width="7.2" height="7.2"/>
	<rect x="132.1" y="230.1" class="st3" width="7.2" height="7.2"/>
	<rect x="132.1" y="222.9" class="st3" width="7.2" height="7.2"/>
	<rect x="132.1" y="215.7" class="st3" width="7.2" height="7.2"/>
	<rect x="132.1" y="208.6" class="st3" width="7.2" height="7.2"/>
	<rect x="132.1" y="201.4" class="st1" width="7.2" height="7.2"/>
	<rect x="132.1" y="194.2" class="st1" width="7.2" height="7.2"/>
	<rect x="132.1" y="187" class="st1" width="7.2" height="7.2"/>
	<rect x="124.9" y="330.6" class="st2" width="7.2" height="7.2"/>
	<rect x="124.9" y="323.4" class="st3" width="7.2" height="7.2"/>
	<rect x="124.9" y="316.2" class="st5" width="7.2" height="7.2"/>
	<rect x="124.9" y="309" class="st5" width="7.2" height="7.2"/>
	<rect x="124.9" y="301.9" class="st3" width="7.2" height="7.2"/>
	<rect x="124.9" y="294.7" class="st3" width="7.2" height="7.2"/>
	<rect x="124.9" y="287.5" class="st4" width="7.2" height="7.2"/>
	<rect x="124.9" y="280.3" class="st4" width="7.2" height="7.2"/>
	<rect x="124.9" y="273.2" class="st4" width="7.2" height="7.2"/>
	<rect x="124.9" y="266" class="st4" width="7.2" height="7.2"/>
	<rect x="124.9" y="258.8" class="st3" width="7.2" height="7.2"/>
	<rect x="124.9" y="251.6" class="st3" width="7.2" height="7.2"/>
	<rect x="124.9" y="244.4" class="st3" width="7.2" height="7.2"/>
	<rect x="124.9" y="237.3" class="st2" width="7.2" height="7.2"/>
	<rect x="124.9" y="230.1" class="st2" width="7.2" height="7.2"/>
	<rect x="124.9" y="222.9" class="st3" width="7.2" height="7.2"/>
	<rect x="124.9" y="215.7" class="st3" width="7.2" height="7.2"/>
	<rect x="124.9" y="208.6" class="st3" width="7.2" height="7.2"/>
	<rect x="124.9" y="201.4" class="st1" width="7.2" height="7.2"/>
	<rect x="124.9" y="194.2" class="st1" width="7.2" height="7.2"/>
	<rect x="124.9" y="187" class="st1" width="7.2" height="7.2"/>
	<rect x="124.9" y="179.8" class="st1" width="7.2" height="7.2"/>
	<rect x="124.9" y="172.7" class="st1" width="7.2" height="7.2"/>
	<rect x="117.7" y="330.6" class="st2" width="7.2" height="7.2"/>
	<rect x="117.7" y="323.4" class="st3" width="7.2" height="7.2"/>
	<rect x="117.7" y="316.2" class="st5" width="7.2" height="7.2"/>
	<rect x="117.7" y="309" class="st5" width="7.2" height="7.2"/>
	<rect x="117.7" y="301.9" class="st4" width="7.2" height="7.2"/>
	<rect x="117.7" y="294.7" class="st3" width="7.2" height="7.2"/>
	<rect x="117.7" y="287.5" class="st4" width="7.2" height="7.2"/>
	<rect x="117.7" y="280.3" class="st4" width="7.2" height="7.2"/>
	<rect x="117.7" y="273.2" class="st4" width="7.2" height="7.2"/>
	<rect x="117.7" y="266" class="st3" width="7.2" height="7.2"/>
	<rect x="117.7" y="258.8" class="st3" width="7.2" height="7.2"/>
	<rect x="117.7" y="251.6" class="st2" width="7.2" height="7.2"/>
	<rect x="117.7" y="244.4" class="st3" width="7.2" height="7.2"/>
	<rect x="117.7" y="237.3" class="st3" width="7.2" height="7.2"/>
	<rect x="117.7" y="230.1" class="st3" width="7.2" height="7.2"/>
	<rect x="117.7" y="222.9" class="st3" width="7.2" height="7.2"/>
	<rect x="117.7" y="215.7" class="st1" width="7.2" height="7.2"/>
	<rect x="117.7" y="208.6" class="st1" width="7.2" height="7.2"/>
	<rect x="117.7" y="201.4" class="st1" width="7.2" height="7.2"/>
	<rect x="117.7" y="194.2" class="st1" width="7.2" height="7.2"/>
	<rect x="117.7" y="187" class="st1" width="7.2" height="7.2"/>
	<rect x="117.7" y="179.8" class="st1" width="7.2" height="7.2"/>
	<rect x="110.5" y="316.2" class="st5" width="7.2" height="7.2"/>
	<rect x="110.5" y="309" class="st5" width="7.2" height="7.2"/>
	<rect x="110.5" y="301.9" class="st4" width="7.2" height="7.2"/>
	<rect x="110.5" y="294.7" class="st4" width="7.2" height="7.2"/>
	<rect x="110.5" y="287.5" class="st4" width="7.2" height="7.2"/>
	<rect x="110.5" y="280.3" class="st4" width="7.2" height="7.2"/>
	<rect x="110.5" y="273.2" class="st4" width="7.2" height="7.2"/>
	<rect x="110.5" y="266" class="st3" width="7.2" height="7.2"/>
	<rect x="110.5" y="258.8" class="st3" width="7.2" height="7.2"/>
	<rect x="110.5" y="251.6" class="st3" width="7.2" height="7.2"/>
	<rect x="110.5" y="244.4" class="st3" width="7.2" height="7.2"/>
	<rect x="110.5" y="237.3" class="st3" width="7.2" height="7.2"/>
	<rect x="110.5" y="230.1" class="st3" width="7.2" height="7.2"/>
	<rect x="110.5" y="222.9" class="st3" width="7.2" height="7.2"/>
	<rect x="110.5" y="215.7" class="st3" width="7.2" height="7.2"/>
	<rect x="110.5" y="208.6" class="st1" width="7.2" height="7.2"/>
	<rect x="110.5" y="201.4" class="st1" width="7.2" height="7.2"/>
	<rect x="110.5" y="194.2" class="st1" width="7.2" height="7.2"/>
	<rect x="110.5" y="187" class="st1" width="7.2" height="7.2"/>
	<rect x="110.5" y="179.8" class="st1" width="7.2" height="7.2"/>
	<rect x="110.5" y="172.7" class="st1" width="7.2" height="7.2"/>
	<rect x="110.5" y="165.5" class="st1" width="7.2" height="7.2"/>
	<rect x="103.3" y="309" class="st5" width="7.2" height="7.2"/>
	<rect x="103.3" y="301.9" class="st4" width="7.2" height="7.2"/>
	<rect x="103.3" y="294.7" class="st4" width="7.2" height="7.2"/>
	<rect x="103.3" y="287.5" class="st4" width="7.2" height="7.2"/>
	<rect x="103.3" y="280.3" class="st4" width="7.2" height="7.2"/>
	<rect x="103.3" y="273.2" class="st4" width="7.2" height="7.2"/>
	<rect x="103.3" y="266" class="st4" width="7.2" height="7.2"/>
	<rect x="103.3" y="258.8" class="st3" width="7.2" height="7.2"/>
	<rect x="103.3" y="251.6" class="st3" width="7.2" height="7.2"/>
	<rect x="103.3" y="244.4" class="st3" width="7.2" height="7.2"/>
	<rect x="103.3" y="237.3" class="st2" width="7.2" height="7.2"/>
	<rect x="103.3" y="230.1" class="st2" width="7.2" height="7.2"/>
	<rect x="103.3" y="222.9" class="st3" width="7.2" height="7.2"/>
	<rect x="103.3" y="215.7" class="st3" width="7.2" height="7.2"/>
	<rect x="103.3" y="208.6" class="st3" width="7.2" height="7.2"/>
	<rect x="103.3" y="201.4" class="st1" width="7.2" height="7.2"/>
	<rect x="103.3" y="194.2" class="st1" width="7.2" height="7.2"/>
	<rect x="103.3" y="187" class="st1" width="7.2" height="7.2"/>
	<rect x="103.3" y="179.8" class="st1" width="7.2" height="7.2"/>
	<rect x="103.3" y="172.7" class="st1" width="7.2" height="7.2"/>
	<rect x="96.2" y="316.2" class="st5" width="7.2" height="7.2"/>
	<rect x="96.2" y="309" class="st5" width="7.2" height="7.2"/>
	<rect x="96.2" y="301.9" class="st4" width="7.2" height="7.2"/>
	<rect x="96.2" y="294.7" class="st4" width="7.2" height="7.2"/>
	<rect x="96.2" y="287.5" class="st4" width="7.2" height="7.2"/>
	<rect x="96.2" y="280.3" class="st4" width="7.2" height="7.2"/>
	<rect x="96.2" y="273.2" class="st4" width="7.2" height="7.2"/>
	<rect x="96.2" y="266" class="st4" width="7.2" height="7.2"/>
	<rect x="96.2" y="258.8" class="st3" width="7.2" height="7.2"/>
	<rect x="96.2" y="251.6" class="st3" width="7.2" height="7.2"/>
	<rect x="96.2" y="244.4" class="st3" width="7.2" height="7.2"/>
	<rect x="96.2" y="237.3" class="st3" width="7.2" height="7.2"/>
	<rect x="96.2" y="230.1" class="st3" width="7.2" height="7.2"/>
	<rect x="96.2" y="222.9" class="st3" width="7.2" height="7.2"/>
	<rect x="96.2" y="215.7" class="st3" width="7.2" height="7.2"/>
	<rect x="96.2" y="208.6" class="st3" width="7.2" height="7.2"/>
	<rect x="96.2" y="201.4" class="st1" width="7.2" height="7.2"/>
	<rect x="96.2" y="194.2" class="st1" width="7.2" height="7.2"/>
	<rect x="96.2" y="187" class="st1" width="7.2" height="7.2"/>
	<rect x="96.2" y="179.8" class="st1" width="7.2" height="7.2"/>
	<rect x="96.2" y="172.7" class="st1" width="7.2" height="7.2"/>
	<rect x="96.2" y="165.5" class="st1" width="7.2" height="7.2"/>
	<rect x="89" y="330.6" class="st2" width="7.2" height="7.2"/>
	<rect x="89" y="323.4" class="st3" width="7.2" height="7.2"/>
	<rect x="89" y="316.2" class="st5" width="7.2" height="7.2"/>
	<rect x="89" y="309" class="st5" width="7.2" height="7.2"/>
	<rect x="89" y="301.9" class="st6" width="7.2" height="7.2"/>
	<rect x="89" y="294.7" class="st6" width="7.2" height="7.2"/>
	<rect x="89" y="287.5" class="st4" width="7.2" height="7.2"/>
	<rect x="89" y="280.3" class="st4" width="7.2" height="7.2"/>
	<rect x="89" y="273.2" class="st4" width="7.2" height="7.2"/>
	<rect x="89" y="266" class="st4" width="7.2" height="7.2"/>
	<rect x="89" y="258.8" class="st3" width="7.2" height="7.2"/>
	<rect x="89" y="251.6" class="st3" width="7.2" height="7.2"/>
	<rect x="89" y="244.4" class="st3" width="7.2" height="7.2"/>
	<rect x="89" y="237.3" class="st3" width="7.2" height="7.2"/>
	<rect x="89" y="230.1" class="st3" width="7.2" height="7.2"/>
	<rect x="89" y="222.9" class="st3" width="7.2" height="7.2"/>
	<rect x="89" y="215.7" class="st3" width="7.2" height="7.2"/>
	<rect x="89" y="208.6" class="st1" width="7.2" height="7.2"/>
	<rect x="89" y="201.4" class="st1" width="7.2" height="7.2"/>
	<rect x="89" y="194.2" class="st1" width="7.2" height="7.2"/>
	<rect x="89" y="187" class="st1" width="7.2" height="7.2"/>
	<rect x="89" y="179.8" class="st7" width="7.2" height="7.2"/>
	<rect x="89" y="172.7" class="st1" width="7.2" height="7.2"/>
	<rect x="89" y="158.3" class="st1" width="7.2" height="7.2"/>
	<rect x="81.8" y="330.6" class="st2" width="7.2" height="7.2"/>
	<rect x="81.8" y="323.4" class="st3" width="7.2" height="7.2"/>
	<rect x="81.8" y="316.2" class="st5" width="7.2" height="7.2"/>
	<rect x="81.8" y="309" class="st6" width="7.2" height="7.2"/>
	<rect x="81.8" y="301.9" class="st6" width="7.2" height="7.2"/>
	<rect x="81.8" y="294.7" class="st6" width="7.2" height="7.2"/>
	<rect x="81.8" y="287.5" class="st6" width="7.2" height="7.2"/>
	<rect x="81.8" y="280.3" class="st4" width="7.2" height="7.2"/>
	<rect x="81.8" y="273.2" class="st4" width="7.2" height="7.2"/>
	<rect x="81.8" y="266" class="st4" width="7.2" height="7.2"/>
	<rect x="81.8" y="258.8" class="st4" width="7.2" height="7.2"/>
	<rect x="81.8" y="251.6" class="st3" width="7.2" height="7.2"/>
	<rect x="81.8" y="244.4" class="st3" width="7.2" height="7.2"/>
	<rect x="81.8" y="237.3" class="st3" width="7.2" height="7.2"/>
	<rect x="81.8" y="230.1" class="st3" width="7.2" height="7.2"/>
	<rect x="81.8" y="222.9" class="st3" width="7.2" height="7.2"/>
	<rect x="81.8" y="215.7" class="st1" width="7.2" height="7.2"/>
	<rect x="81.8" y="208.6" class="st1" width="7.2" height="7.2"/>
	<rect x="81.8" y="201.4" class="st1" width="7.2" height="7.2"/>
	<rect x="81.8" y="194.2" class="st1" width="7.2" height="7.2"/>
	<rect x="81.8" y="187" class="st1" width="7.2" height="7.2"/>
	<rect x="81.8" y="179.8" class="st7" width="7.2" height="7.2"/>
	<rect x="81.8" y="172.7" class="st1" width="7.2" height="7.2"/>
	<rect x="74.6" y="330.6" class="st2" width="7.2" height="7.2"/>
	<rect x="74.6" y="323.4" class="st3" width="7.2" height="7.2"/>
	<rect x="74.6" y="316.2" class="st5" width="7.2" height="7.2"/>
	<rect x="74.6" y="309" class="st6" width="7.2" height="7.2"/>
	<rect x="74.6" y="301.9" class="st6" width="7.2" height="7.2"/>
	<rect x="74.6" y="294.7" class="st6" width="7.2" height="7.2"/>
	<rect x="74.6" y="287.5" class="st3" width="7.2" height="7.2"/>
	<rect x="74.6" y="280.3" class="st4" width="7.2" height="7.2"/>
	<rect x="74.6" y="273.2" class="st4" width="7.2" height="7.2"/>
	<rect x="74.6" y="266" class="st4" width="7.2" height="7.2"/>
	<rect x="74.6" y="258.8" class="st4" width="7.2" height="7.2"/>
	<rect x="74.6" y="251.6" class="st3" width="7.2" height="7.2"/>
	<rect x="74.6" y="244.4" class="st3" width="7.2" height="7.2"/>
	<rect x="74.6" y="237.3" class="st3" width="7.2" height="7.2"/>
	<rect x="74.6" y="230.1" class="st1" width="7.2" height="7.2"/>
	<rect x="74.6" y="222.9" class="st1" width="7.2" height="7.2"/>
	<rect x="74.6" y="215.7" class="st1" width="7.2" height="7.2"/>
	<rect x="74.6" y="208.6" class="st1" width="7.2" height="7.2"/>
	<rect x="74.6" y="201.4" class="st1" width="7.2" height="7.2"/>
	<rect x="74.6" y="194.2" class="st1" width="7.2" height="7.2"/>
	<rect x="74.6" y="187" class="st7" width="7.2" height="7.2"/>
	<rect x="74.6" y="179.8" class="st1" width="7.2" height="7.2"/>
	<rect x="74.6" y="172.7" class="st1" width="7.2" height="7.2"/>
	<rect x="74.6" y="165.5" class="st1" width="7.2" height="7.2"/>
	<rect x="67.4" y="309" class="st3" width="7.2" height="7.2"/>
	<rect x="67.4" y="301.9" class="st3" width="7.2" height="7.2"/>
	<rect x="67.4" y="294.7" class="st3" width="7.2" height="7.2"/>
	<rect x="67.4" y="287.5" class="st4" width="7.2" height="7.2"/>
	<rect x="67.4" y="280.3" class="st4" width="7.2" height="7.2"/>
	<rect x="67.4" y="273.2" class="st4" width="7.2" height="7.2"/>
	<rect x="67.4" y="266" class="st4" width="7.2" height="7.2"/>
	<rect x="67.4" y="244.4" class="st1" width="7.2" height="7.2"/>
	<rect x="67.4" y="237.3" class="st1" width="7.2" height="7.2"/>
	<rect x="67.4" y="230.1" class="st1" width="7.2" height="7.2"/>
	<rect x="67.4" y="222.9" class="st1" width="7.2" height="7.2"/>
	<rect x="67.4" y="215.7" class="st1" width="7.2" height="7.2"/>
	<rect x="67.4" y="208.6" class="st1" width="7.2" height="7.2"/>
	<rect x="67.4" y="201.4" class="st1" width="7.2" height="7.2"/>
	<rect x="67.4" y="194.2" class="st7" width="7.2" height="7.2"/>
	<rect x="67.4" y="187" class="st1" width="7.2" height="7.2"/>
	<rect x="67.4" y="179.8" class="st1" width="7.2" height="7.2"/>
	<rect x="67.4" y="172.7" class="st1" width="7.2" height="7.2"/>
	<rect x="67.4" y="158.3" class="st1" width="7.2" height="7.2"/>
	<rect x="60.3" y="309" class="st3" width="7.2" height="7.2"/>
	<rect x="60.3" y="301.9" class="st3" width="7.2" height="7.2"/>
	<rect x="60.3" y="294.7" class="st3" width="7.2" height="7.2"/>
	<rect x="60.3" y="287.5" class="st4" width="7.2" height="7.2"/>
	<rect x="60.3" y="280.3" class="st4" width="7.2" height="7.2"/>
	<rect x="60.3" y="273.2" class="st4" width="7.2" height="7.2"/>
	<rect x="60.3" y="230.1" class="st1" width="7.2" height="7.2"/>
	<rect x="60.3" y="222.9" class="st1" width="7.2" height="7.2"/>
	<rect x="60.3" y="215.7" class="st1" width="7.2" height="7.2"/>
	<rect x="60.3" y="208.6" class="st1" width="7.2" height="7.2"/>
	<rect x="60.3" y="201.4" class="st1" width="7.2" height="7.2"/>
	<rect x="60.3" y="194.2" class="st1" width="7.2" height="7.2"/>
	<rect x="60.3" y="187" class="st1" width="7.2" height="7.2"/>
	<rect x="53.1" y="294.7" class="st4" width="7.2" height="7.2"/>
	<rect x="53.1" y="287.5" class="st4" width="7.2" height="7.2"/>
	<rect x="53.1" y="280.3" class="st4" width="7.2" height="7.2"/>
	<rect x="53.1" y="222.9" class="st1" width="7.2" height="7.2"/>
	<rect x="53.1" y="215.7" class="st1" width="7.2" height="7.2"/>
	<rect x="53.1" y="208.6" class="st1" width="7.2" height="7.2"/>
	<rect x="53.1" y="201.4" class="st1" width="7.2" height="7.2"/>
</g>
</svg>
