<?xml version="1.0" encoding="utf-8"?>
<!-- Generator: Adobe Illustrator 19.2.0, SVG Export Plug-In . SVG Version: 6.00 Build 0)  -->
<svg version="1.1" id="Layer_1" xmlns="http://www.w3.org/2000/svg" xmlns:xlink="http://www.w3.org/1999/xlink" x="0px" y="0px"
	 viewBox="0 0 200 350" style="enable-background:new 0 0 200 350;" xml:space="preserve">
<style type="text/css">
	.st0{fill:none;stroke:#E0277F;stroke-width:5;stroke-miterlimit:10;}
	.st1{fill:#F9A825;}
	.st2{fill:#009688;}
	.st3{fill:#FFCCBC;}
	.st4{fill:#4A148C;}
	.st5{fill:#37474F;}
	.st6{fill:#263238;}
	.st7{fill:#E91E63;}
	.st8{fill:#FBCB7C;}
</style>
<line class="st0" x1="99.7" y1="22" x2="99.7" y2="132.8"/>
<g>
	<rect x="145.9" y="229.6" class="st1" width="6.2" height="6.2"/>
	<rect x="145.9" y="205" class="st1" width="6.2" height="6.2"/>
	<rect x="139.8" y="266.5" class="st2" width="6.1" height="6.1"/>
	<rect x="139.8" y="223.4" class="st1" width="6.1" height="6.2"/>
	<rect x="139.8" y="205" class="st1" width="6.1" height="6.2"/>
	<rect x="139.8" y="198.8" class="st1" width="6.1" height="6.1"/>
	<rect x="139.8" y="192.7" class="st1" width="6.1" height="6.2"/>
	<rect x="133.6" y="291.1" class="st3" width="6.2" height="6.2"/>
	<rect x="133.6" y="285" class="st3" width="6.2" height="6.1"/>
	<rect x="133.6" y="278.8" class="st4" width="6.2" height="6.2"/>
	<rect x="133.6" y="272.7" class="st4" width="6.2" height="6.2"/>
	<rect x="133.6" y="266.5" class="st2" width="6.2" height="6.1"/>
	<rect x="133.6" y="260.4" class="st2" width="6.2" height="6.2"/>
	<rect x="133.6" y="235.7" class="st3" width="6.2" height="6.1"/>
	<rect x="133.6" y="229.6" class="st3" width="6.2" height="6.2"/>
	<rect x="133.6" y="223.4" class="st3" width="6.2" height="6.2"/>
	<rect x="133.6" y="217.3" class="st1" width="6.2" height="6.1"/>
	<rect x="133.6" y="211.1" class="st1" width="6.2" height="6.2"/>
	<rect x="133.6" y="205" class="st1" width="6.2" height="6.2"/>
	<rect x="133.6" y="198.8" class="st1" width="6.2" height="6.1"/>
	<rect x="133.6" y="192.7" class="st1" width="6.2" height="6.2"/>
	<rect x="133.6" y="186.5" class="st1" width="6.2" height="6.2"/>
	<rect x="127.4" y="321.9" class="st2" width="6.2" height="6.1"/>
	<rect x="127.4" y="291.1" class="st3" width="6.2" height="6.2"/>
	<rect x="127.4" y="285" class="st3" width="6.2" height="6.1"/>
	<rect x="127.4" y="278.8" class="st4" width="6.2" height="6.2"/>
	<rect x="127.4" y="272.7" class="st4" width="6.2" height="6.2"/>
	<rect x="127.4" y="266.5" class="st2" width="6.2" height="6.1"/>
	<rect x="127.4" y="260.4" class="st2" width="6.2" height="6.2"/>
	<rect x="127.4" y="254.2" class="st2" width="6.2" height="6.2"/>
	<rect x="127.4" y="248.1" class="st1" width="6.2" height="6.1"/>
	<rect x="127.4" y="241.9" class="st3" width="6.2" height="6.2"/>
	<rect x="127.4" y="235.7" class="st3" width="6.2" height="6.1"/>
	<rect x="127.4" y="229.6" class="st3" width="6.2" height="6.2"/>
	<rect x="127.4" y="223.4" class="st3" width="6.2" height="6.2"/>
	<rect x="127.4" y="217.3" class="st3" width="6.2" height="6.1"/>
	<rect x="127.4" y="211.1" class="st3" width="6.2" height="6.2"/>
	<rect x="127.4" y="205" class="st1" width="6.2" height="6.2"/>
	<rect x="127.4" y="198.8" class="st1" width="6.2" height="6.1"/>
	<rect x="127.4" y="192.7" class="st1" width="6.2" height="6.2"/>
	<rect x="127.4" y="186.5" class="st1" width="6.2" height="6.2"/>
	<rect x="127.4" y="180.4" class="st1" width="6.2" height="6.1"/>
	<rect x="121.3" y="321.9" class="st2" width="6.1" height="6.1"/>
	<rect x="121.3" y="315.7" class="st3" width="6.1" height="6.2"/>
	<rect x="121.3" y="309.6" class="st3" width="6.1" height="6.2"/>
	<rect x="121.3" y="303.4" class="st4" width="6.1" height="6.1"/>
	<rect x="121.3" y="297.3" class="st4" width="6.1" height="6.2"/>
	<rect x="121.3" y="291.1" class="st5" width="6.1" height="6.2"/>
	<rect x="121.3" y="285" class="st3" width="6.1" height="6.1"/>
	<rect x="121.3" y="278.8" class="st4" width="6.1" height="6.2"/>
	<rect x="121.3" y="272.7" class="st4" width="6.1" height="6.2"/>
	<rect x="121.3" y="266.5" class="st4" width="6.1" height="6.1"/>
	<rect x="121.3" y="260.4" class="st2" width="6.1" height="6.2"/>
	<rect x="121.3" y="254.2" class="st2" width="6.1" height="6.2"/>
	<rect x="121.3" y="248.1" class="st2" width="6.1" height="6.1"/>
	<rect x="121.3" y="241.9" class="st3" width="6.1" height="6.2"/>
	<rect x="121.3" y="235.7" class="st3" width="6.1" height="6.1"/>
	<rect x="121.3" y="229.6" class="st3" width="6.1" height="6.2"/>
	<rect x="121.3" y="223.4" class="st3" width="6.1" height="6.2"/>
	<rect x="121.3" y="217.3" class="st6" width="6.1" height="6.1"/>
	<rect x="121.3" y="211.1" class="st6" width="6.1" height="6.2"/>
	<rect x="121.3" y="205" class="st1" width="6.1" height="6.2"/>
	<rect x="121.3" y="198.8" class="st1" width="6.1" height="6.1"/>
	<rect x="121.3" y="192.7" class="st1" width="6.1" height="6.2"/>
	<rect x="121.3" y="186.5" class="st1" width="6.1" height="6.2"/>
	<rect x="121.3" y="180.4" class="st1" width="6.1" height="6.1"/>
	<rect x="121.3" y="174.2" class="st1" width="6.1" height="6.2"/>
	<rect x="115.1" y="321.9" class="st2" width="6.2" height="6.1"/>
	<rect x="115.1" y="315.7" class="st3" width="6.2" height="6.2"/>
	<rect x="115.1" y="309.6" class="st3" width="6.2" height="6.2"/>
	<rect x="115.1" y="303.4" class="st4" width="6.2" height="6.1"/>
	<rect x="115.1" y="297.3" class="st4" width="6.2" height="6.2"/>
	<rect x="115.1" y="291.1" class="st5" width="6.2" height="6.2"/>
	<rect x="115.1" y="285" class="st4" width="6.2" height="6.1"/>
	<rect x="115.1" y="278.8" class="st4" width="6.2" height="6.2"/>
	<rect x="115.1" y="272.7" class="st4" width="6.2" height="6.2"/>
	<rect x="115.1" y="266.5" class="st4" width="6.2" height="6.1"/>
	<rect x="115.1" y="260.4" class="st2" width="6.2" height="6.2"/>
	<rect x="115.1" y="254.2" class="st2" width="6.2" height="6.2"/>
	<rect x="115.1" y="248.1" class="st2" width="6.2" height="6.1"/>
	<rect x="115.1" y="241.9" class="st3" width="6.2" height="6.2"/>
	<rect x="115.1" y="235.7" class="st7" width="6.2" height="6.1"/>
	<rect x="115.1" y="229.6" class="st3" width="6.2" height="6.2"/>
	<rect x="115.1" y="223.4" class="st3" width="6.2" height="6.2"/>
	<rect x="115.1" y="217.3" class="st3" width="6.2" height="6.1"/>
	<rect x="115.1" y="211.1" class="st3" width="6.2" height="6.2"/>
	<rect x="115.1" y="205" class="st3" width="6.2" height="6.2"/>
	<rect x="115.1" y="198.8" class="st1" width="6.2" height="6.1"/>
	<rect x="115.1" y="192.7" class="st1" width="6.2" height="6.2"/>
	<rect x="115.1" y="186.5" class="st1" width="6.2" height="6.2"/>
	<rect x="115.1" y="180.4" class="st1" width="6.2" height="6.1"/>
	<rect x="115.1" y="174.2" class="st1" width="6.2" height="6.2"/>
	<rect x="115.1" y="168.1" class="st1" width="6.2" height="6.2"/>
	<rect x="109" y="303.4" class="st4" width="6.2" height="6.1"/>
	<rect x="109" y="297.3" class="st4" width="6.2" height="6.2"/>
	<rect x="109" y="291.1" class="st5" width="6.2" height="6.2"/>
	<rect x="109" y="285" class="st4" width="6.2" height="6.1"/>
	<rect x="109" y="278.8" class="st4" width="6.2" height="6.2"/>
	<rect x="109" y="272.7" class="st4" width="6.2" height="6.2"/>
	<rect x="109" y="266.5" class="st2" width="6.2" height="6.1"/>
	<rect x="109" y="260.4" class="st2" width="6.2" height="6.2"/>
	<rect x="109" y="254.2" class="st2" width="6.2" height="6.2"/>
	<rect x="109" y="248.1" class="st2" width="6.2" height="6.1"/>
	<rect x="109" y="241.9" class="st3" width="6.2" height="6.2"/>
	<rect x="109" y="235.7" class="st7" width="6.2" height="6.1"/>
	<rect x="109" y="229.6" class="st3" width="6.2" height="6.2"/>
	<rect x="109" y="223.4" class="st3" width="6.2" height="6.2"/>
	<rect x="109" y="217.3" class="st3" width="6.2" height="6.1"/>
	<rect x="109" y="211.1" class="st3" width="6.2" height="6.2"/>
	<rect x="109" y="205" class="st3" width="6.2" height="6.2"/>
	<rect x="109" y="198.8" class="st1" width="6.2" height="6.1"/>
	<rect x="109" y="192.7" class="st1" width="6.2" height="6.2"/>
	<rect x="109" y="186.5" class="st1" width="6.2" height="6.2"/>
	<rect x="109" y="180.4" class="st1" width="6.2" height="6.1"/>
	<rect x="109" y="174.2" class="st1" width="6.2" height="6.2"/>
	<rect x="109" y="168.1" class="st1" width="6.2" height="6.2"/>
	<rect x="102.8" y="303.4" class="st4" width="6.1" height="6.1"/>
	<rect x="102.8" y="297.3" class="st4" width="6.1" height="6.2"/>
	<rect x="102.8" y="291.1" class="st5" width="6.1" height="6.2"/>
	<rect x="102.8" y="285" class="st4" width="6.1" height="6.1"/>
	<rect x="102.8" y="278.8" class="st4" width="6.1" height="6.2"/>
	<rect x="102.8" y="272.7" class="st4" width="6.1" height="6.2"/>
	<rect x="102.8" y="266.5" class="st2" width="6.1" height="6.1"/>
	<rect x="102.8" y="260.4" class="st2" width="6.1" height="6.2"/>
	<rect x="102.8" y="254.2" class="st2" width="6.1" height="6.2"/>
	<rect x="102.8" y="248.1" class="st2" width="6.1" height="6.1"/>
	<rect x="102.8" y="241.9" class="st3" width="6.1" height="6.2"/>
	<rect x="102.8" y="235.7" class="st3" width="6.1" height="6.1"/>
	<rect x="102.8" y="229.6" class="st7" width="6.1" height="6.2"/>
	<rect x="102.8" y="223.4" class="st3" width="6.1" height="6.2"/>
	<rect x="102.8" y="217.3" class="st6" width="6.1" height="6.1"/>
	<rect x="102.8" y="211.1" class="st6" width="6.1" height="6.2"/>
	<rect x="102.8" y="205" class="st1" width="6.1" height="6.2"/>
	<rect x="102.8" y="198.8" class="st1" width="6.1" height="6.1"/>
	<rect x="102.8" y="192.7" class="st1" width="6.1" height="6.2"/>
	<rect x="102.8" y="186.5" class="st1" width="6.1" height="6.2"/>
	<rect x="102.8" y="180.4" class="st1" width="6.1" height="6.1"/>
	<rect x="102.8" y="174.2" class="st1" width="6.1" height="6.2"/>
	<rect x="102.8" y="168.1" class="st1" width="6.1" height="6.2"/>
	<rect x="96.7" y="303.4" class="st4" width="6.2" height="6.1"/>
	<rect x="96.7" y="297.3" class="st4" width="6.2" height="6.2"/>
	<rect x="96.7" y="291.1" class="st5" width="6.2" height="6.2"/>
	<rect x="96.7" y="285" class="st3" width="6.2" height="6.1"/>
	<rect x="96.7" y="278.8" class="st4" width="6.2" height="6.2"/>
	<rect x="96.7" y="272.7" class="st2" width="6.2" height="6.2"/>
	<rect x="96.7" y="266.5" class="st4" width="6.2" height="6.1"/>
	<rect x="96.7" y="260.4" class="st2" width="6.2" height="6.2"/>
	<rect x="96.7" y="254.2" class="st2" width="6.2" height="6.2"/>
	<rect x="96.7" y="248.1" class="st2" width="6.2" height="6.1"/>
	<rect x="96.7" y="241.9" class="st3" width="6.2" height="6.2"/>
	<rect x="96.7" y="235.7" class="st3" width="6.2" height="6.1"/>
	<rect x="96.7" y="229.6" class="st3" width="6.2" height="6.2"/>
	<rect x="96.7" y="223.4" class="st3" width="6.2" height="6.2"/>
	<rect x="96.7" y="217.3" class="st3" width="6.2" height="6.1"/>
	<rect x="96.7" y="211.1" class="st3" width="6.2" height="6.2"/>
	<rect x="96.7" y="205" class="st1" width="6.2" height="6.2"/>
	<rect x="96.7" y="198.8" class="st1" width="6.2" height="6.1"/>
	<rect x="96.7" y="192.7" class="st1" width="6.2" height="6.2"/>
	<rect x="96.7" y="186.5" class="st1" width="6.2" height="6.2"/>
	<rect x="96.7" y="180.4" class="st1" width="6.2" height="6.1"/>
	<rect x="96.7" y="174.2" class="st1" width="6.2" height="6.2"/>
	<rect x="96.7" y="168.1" class="st1" width="6.2" height="6.2"/>
	<rect x="90.5" y="309.6" class="st3" width="6.2" height="6.2"/>
	<rect x="90.5" y="303.4" class="st4" width="6.2" height="6.1"/>
	<rect x="90.5" y="297.3" class="st4" width="6.2" height="6.2"/>
	<rect x="90.5" y="291.1" class="st3" width="6.2" height="6.2"/>
	<rect x="90.5" y="285" class="st3" width="6.2" height="6.1"/>
	<rect x="90.5" y="278.8" class="st4" width="6.2" height="6.2"/>
	<rect x="90.5" y="272.7" class="st4" width="6.2" height="6.2"/>
	<rect x="90.5" y="266.5" class="st4" width="6.2" height="6.1"/>
	<rect x="90.5" y="260.4" class="st2" width="6.2" height="6.2"/>
	<rect x="90.5" y="254.2" class="st1" width="6.2" height="6.2"/>
	<rect x="90.5" y="248.1" class="st1" width="6.2" height="6.1"/>
	<rect x="90.5" y="241.9" class="st3" width="6.2" height="6.2"/>
	<rect x="90.5" y="235.7" class="st3" width="6.2" height="6.1"/>
	<rect x="90.5" y="229.6" class="st1" width="6.2" height="6.2"/>
	<rect x="90.5" y="223.4" class="st3" width="6.2" height="6.2"/>
	<rect x="90.5" y="217.3" class="st3" width="6.2" height="6.1"/>
	<rect x="90.5" y="211.1" class="st1" width="6.2" height="6.2"/>
	<rect x="90.5" y="205" class="st1" width="6.2" height="6.2"/>
	<rect x="90.5" y="198.8" class="st1" width="6.2" height="6.1"/>
	<rect x="90.5" y="192.7" class="st1" width="6.2" height="6.2"/>
	<rect x="90.5" y="186.5" class="st1" width="6.2" height="6.2"/>
	<rect x="90.5" y="180.4" class="st1" width="6.2" height="6.1"/>
	<rect x="90.5" y="174.2" class="st1" width="6.2" height="6.2"/>
	<rect x="90.5" y="168.1" class="st1" width="6.2" height="6.2"/>
	<rect x="84.4" y="321.9" class="st2" width="6.1" height="6.1"/>
	<rect x="84.4" y="315.7" class="st3" width="6.1" height="6.2"/>
	<rect x="84.4" y="309.6" class="st3" width="6.1" height="6.2"/>
	<rect x="84.4" y="303.4" class="st4" width="6.1" height="6.1"/>
	<rect x="84.4" y="297.3" class="st4" width="6.1" height="6.2"/>
	<rect x="84.4" y="291.1" class="st3" width="6.1" height="6.2"/>
	<rect x="84.4" y="285" class="st3" width="6.1" height="6.1"/>
	<rect x="84.4" y="278.8" class="st4" width="6.1" height="6.2"/>
	<rect x="84.4" y="272.7" class="st4" width="6.1" height="6.2"/>
	<rect x="84.4" y="266.5" class="st2" width="6.1" height="6.1"/>
	<rect x="84.4" y="260.4" class="st1" width="6.1" height="6.2"/>
	<rect x="84.4" y="254.2" class="st1" width="6.1" height="6.2"/>
	<rect x="84.4" y="248.1" class="st1" width="6.1" height="6.1"/>
	<rect x="84.4" y="241.9" class="st1" width="6.1" height="6.2"/>
	<rect x="84.4" y="235.7" class="st3" width="6.1" height="6.1"/>
	<rect x="84.4" y="229.6" class="st3" width="6.1" height="6.2"/>
	<rect x="84.4" y="223.4" class="st1" width="6.1" height="6.2"/>
	<rect x="84.4" y="217.3" class="st3" width="6.1" height="6.1"/>
	<rect x="84.4" y="211.1" class="st1" width="6.1" height="6.2"/>
	<rect x="84.4" y="205" class="st1" width="6.1" height="6.2"/>
	<rect x="84.4" y="198.8" class="st1" width="6.1" height="6.1"/>
	<rect x="84.4" y="192.7" class="st1" width="6.1" height="6.2"/>
	<rect x="84.4" y="186.5" class="st1" width="6.1" height="6.2"/>
	<rect x="84.4" y="180.4" class="st8" width="6.1" height="6.1"/>
	<rect x="84.4" y="174.2" class="st1" width="6.1" height="6.2"/>
	<rect x="84.4" y="168.1" class="st1" width="6.1" height="6.2"/>
	<rect x="78.2" y="321.9" class="st2" width="6.2" height="6.1"/>
	<rect x="78.2" y="315.7" class="st3" width="6.2" height="6.2"/>
	<rect x="78.2" y="309.6" class="st3" width="6.2" height="6.2"/>
	<rect x="78.2" y="303.4" class="st4" width="6.2" height="6.1"/>
	<rect x="78.2" y="297.3" class="st4" width="6.2" height="6.2"/>
	<rect x="78.2" y="291.1" class="st3" width="6.2" height="6.2"/>
	<rect x="78.2" y="285" class="st3" width="6.2" height="6.1"/>
	<rect x="78.2" y="278.8" class="st4" width="6.2" height="6.2"/>
	<rect x="78.2" y="272.7" class="st4" width="6.2" height="6.2"/>
	<rect x="78.2" y="266.5" class="st4" width="6.2" height="6.1"/>
	<rect x="78.2" y="260.4" class="st1" width="6.2" height="6.2"/>
	<rect x="78.2" y="254.2" class="st1" width="6.2" height="6.2"/>
	<rect x="78.2" y="248.1" class="st1" width="6.2" height="6.1"/>
	<rect x="78.2" y="241.9" class="st1" width="6.2" height="6.2"/>
	<rect x="78.2" y="235.7" class="st1" width="6.2" height="6.1"/>
	<rect x="78.2" y="229.6" class="st3" width="6.2" height="6.2"/>
	<rect x="78.2" y="223.4" class="st3" width="6.2" height="6.2"/>
	<rect x="78.2" y="217.3" class="st1" width="6.2" height="6.1"/>
	<rect x="78.2" y="211.1" class="st1" width="6.2" height="6.2"/>
	<rect x="78.2" y="205" class="st1" width="6.2" height="6.2"/>
	<rect x="78.2" y="198.8" class="st1" width="6.2" height="6.1"/>
	<rect x="78.2" y="192.7" class="st1" width="6.2" height="6.2"/>
	<rect x="78.2" y="186.5" class="st1" width="6.2" height="6.2"/>
	<rect x="78.2" y="180.4" class="st8" width="6.2" height="6.1"/>
	<rect x="78.2" y="174.2" class="st1" width="6.2" height="6.2"/>
	<rect x="78.2" y="168.1" class="st1" width="6.2" height="6.2"/>
	<rect x="72.1" y="321.9" class="st2" width="6.2" height="6.1"/>
	<rect x="72.1" y="303.4" class="st4" width="6.2" height="6.1"/>
	<rect x="72.1" y="297.3" class="st4" width="6.2" height="6.2"/>
	<rect x="72.1" y="291.1" class="st4" width="6.2" height="6.2"/>
	<rect x="72.1" y="285" class="st4" width="6.2" height="6.1"/>
	<rect x="72.1" y="278.8" class="st4" width="6.2" height="6.2"/>
	<rect x="72.1" y="272.7" class="st1" width="6.2" height="6.2"/>
	<rect x="72.1" y="266.5" class="st1" width="6.2" height="6.1"/>
	<rect x="72.1" y="260.4" class="st1" width="6.2" height="6.2"/>
	<rect x="72.1" y="254.2" class="st1" width="6.2" height="6.2"/>
	<rect x="72.1" y="248.1" class="st1" width="6.2" height="6.1"/>
	<rect x="72.1" y="241.9" class="st1" width="6.2" height="6.2"/>
	<rect x="72.1" y="235.7" class="st1" width="6.2" height="6.1"/>
	<rect x="72.1" y="229.6" class="st3" width="6.2" height="6.2"/>
	<rect x="72.1" y="223.4" class="st3" width="6.2" height="6.2"/>
	<rect x="72.1" y="217.3" class="st3" width="6.2" height="6.1"/>
	<rect x="72.1" y="211.1" class="st3" width="6.2" height="6.2"/>
	<rect x="72.1" y="205" class="st1" width="6.2" height="6.2"/>
	<rect x="72.1" y="198.8" class="st1" width="6.2" height="6.1"/>
	<rect x="72.1" y="192.7" class="st1" width="6.2" height="6.2"/>
	<rect x="72.1" y="186.5" class="st1" width="6.2" height="6.2"/>
	<rect x="72.1" y="180.4" class="st8" width="6.2" height="6.1"/>
	<rect x="72.1" y="174.2" class="st1" width="6.2" height="6.2"/>
	<rect x="72.1" y="168.1" class="st1" width="6.2" height="6.2"/>
	<rect x="65.9" y="291.1" class="st1" width="6.1" height="6.2"/>
	<rect x="65.9" y="285" class="st1" width="6.1" height="6.1"/>
	<rect x="65.9" y="278.8" class="st1" width="6.1" height="6.2"/>
	<rect x="65.9" y="272.7" class="st1" width="6.1" height="6.2"/>
	<rect x="65.9" y="266.5" class="st1" width="6.1" height="6.1"/>
	<rect x="65.9" y="260.4" class="st1" width="6.1" height="6.2"/>
	<rect x="65.9" y="254.2" class="st1" width="6.1" height="6.2"/>
	<rect x="65.9" y="248.1" class="st1" width="6.1" height="6.1"/>
	<rect x="65.9" y="241.9" class="st1" width="6.1" height="6.2"/>
	<rect x="65.9" y="235.7" class="st1" width="6.1" height="6.1"/>
	<rect x="65.9" y="229.6" class="st3" width="6.1" height="6.2"/>
	<rect x="65.9" y="223.4" class="st3" width="6.1" height="6.2"/>
	<rect x="65.9" y="217.3" class="st3" width="6.1" height="6.1"/>
	<rect x="65.9" y="211.1" class="st3" width="6.1" height="6.2"/>
	<rect x="65.9" y="205" class="st1" width="6.1" height="6.2"/>
	<rect x="65.9" y="198.8" class="st1" width="6.1" height="6.1"/>
	<rect x="65.9" y="192.7" class="st1" width="6.1" height="6.2"/>
	<rect x="65.9" y="186.5" class="st8" width="6.1" height="6.2"/>
	<rect x="65.9" y="180.4" class="st1" width="6.1" height="6.1"/>
	<rect x="65.9" y="174.2" class="st1" width="6.1" height="6.2"/>
	<rect x="59.7" y="291.1" class="st1" width="6.2" height="6.2"/>
	<rect x="59.7" y="285" class="st1" width="6.2" height="6.1"/>
	<rect x="59.7" y="272.7" class="st1" width="6.2" height="6.2"/>
	<rect x="59.7" y="266.5" class="st1" width="6.2" height="6.1"/>
	<rect x="59.7" y="260.4" class="st1" width="6.2" height="6.2"/>
	<rect x="59.7" y="254.2" class="st1" width="6.2" height="6.2"/>
	<rect x="59.7" y="248.1" class="st1" width="6.2" height="6.1"/>
	<rect x="59.7" y="241.9" class="st1" width="6.2" height="6.2"/>
	<rect x="59.7" y="235.7" class="st1" width="6.2" height="6.1"/>
	<rect x="59.7" y="229.6" class="st1" width="6.2" height="6.2"/>
	<rect x="59.7" y="223.4" class="st1" width="6.2" height="6.2"/>
	<rect x="59.7" y="217.3" class="st1" width="6.2" height="6.1"/>
	<rect x="59.7" y="211.1" class="st1" width="6.2" height="6.2"/>
	<rect x="59.7" y="205" class="st1" width="6.2" height="6.2"/>
	<rect x="59.7" y="198.8" class="st1" width="6.2" height="6.1"/>
	<rect x="59.7" y="192.7" class="st8" width="6.2" height="6.2"/>
	<rect x="59.7" y="186.5" class="st1" width="6.2" height="6.2"/>
	<rect x="59.7" y="180.4" class="st1" width="6.2" height="6.1"/>
	<rect x="53.6" y="285" class="st1" width="6.2" height="6.1"/>
	<rect x="53.6" y="248.1" class="st1" width="6.2" height="6.1"/>
	<rect x="53.6" y="241.9" class="st1" width="6.2" height="6.2"/>
	<rect x="53.6" y="235.7" class="st1" width="6.2" height="6.1"/>
	<rect x="53.6" y="229.6" class="st1" width="6.2" height="6.2"/>
	<rect x="53.6" y="223.4" class="st1" width="6.2" height="6.2"/>
	<rect x="53.6" y="217.3" class="st1" width="6.2" height="6.1"/>
	<rect x="53.6" y="211.1" class="st1" width="6.2" height="6.2"/>
	<rect x="53.6" y="205" class="st1" width="6.2" height="6.2"/>
	<rect x="53.6" y="198.8" class="st1" width="6.2" height="6.1"/>
	<rect x="53.6" y="192.7" class="st1" width="6.2" height="6.2"/>
	<rect x="53.6" y="186.5" class="st1" width="6.2" height="6.2"/>
	<rect x="47.4" y="278.8" class="st1" width="6.1" height="6.2"/>
	<rect x="47.4" y="241.9" class="st1" width="6.1" height="6.2"/>
	<rect x="47.4" y="235.7" class="st1" width="6.1" height="6.1"/>
	<rect x="47.4" y="229.6" class="st1" width="6.1" height="6.2"/>
	<rect x="47.4" y="223.4" class="st1" width="6.1" height="6.2"/>
	<rect x="47.4" y="217.3" class="st1" width="6.1" height="6.1"/>
	<rect x="47.4" y="211.1" class="st1" width="6.1" height="6.2"/>
	<rect x="47.4" y="205" class="st1" width="6.1" height="6.2"/>
	<rect x="47.4" y="198.8" class="st1" width="6.1" height="6.1"/>
	<rect x="47.4" y="192.7" class="st1" width="6.1" height="6.2"/>
</g>
</svg>
