<?xml version="1.0" encoding="utf-8"?>
<!-- Generator: Adobe Illustrator 19.2.0, SVG Export Plug-In . SVG Version: 6.00 Build 0)  -->
<svg version="1.1" id="Layer_1" xmlns="http://www.w3.org/2000/svg" xmlns:xlink="http://www.w3.org/1999/xlink" x="0px" y="0px"
	 viewBox="0 0 200 400" style="enable-background:new 0 0 200 400;" xml:space="preserve">
<style type="text/css">
	.st0{fill:#F9A825;}
	.st1{fill:#263238;}
	.st2{fill:#FFCCBC;}
	.st3{fill:#00BCD4;}
	.st4{fill:#009688;}
	.st5{fill:#FAFAFA;}
	.st6{fill:#FBCB7C;}
	.st7{fill:none;stroke:#3399CC;stroke-width:5;stroke-miterlimit:10;}
</style>
<g>
	<rect x="136.2" y="257.6" class="st0" width="7.2" height="7.2"/>
	<rect x="136.2" y="250.4" class="st0" width="7.2" height="7.2"/>
	<rect x="136.2" y="243.2" class="st0" width="7.2" height="7.2"/>
	<rect x="136.2" y="236" class="st0" width="7.2" height="7.2"/>
	<rect x="136.2" y="228.8" class="st0" width="7.2" height="7.2"/>
	<rect x="129.1" y="379.6" class="st1" width="7.2" height="7.2"/>
	<rect x="129.1" y="350.9" class="st2" width="7.2" height="7.2"/>
	<rect x="129.1" y="343.7" class="st2" width="7.2" height="7.2"/>
	<rect x="129.1" y="336.5" class="st3" width="7.2" height="7.2"/>
	<rect x="129.1" y="329.3" class="st3" width="7.2" height="7.2"/>
	<rect x="129.1" y="322.2" class="st3" width="7.2" height="7.2"/>
	<rect x="129.1" y="315" class="st3" width="7.2" height="7.2"/>
	<rect x="129.1" y="307.8" class="st2" width="7.2" height="7.2"/>
	<rect x="129.1" y="300.6" class="st2" width="7.2" height="7.2"/>
	<rect x="129.1" y="293.4" class="st2" width="7.2" height="7.2"/>
	<rect x="129.1" y="286.3" class="st2" width="7.2" height="7.2"/>
	<rect x="129.1" y="279.1" class="st2" width="7.2" height="7.2"/>
	<rect x="129.1" y="271.9" class="st2" width="7.2" height="7.2"/>
	<rect x="129.1" y="264.7" class="st2" width="7.2" height="7.2"/>
	<rect x="129.1" y="257.6" class="st2" width="7.2" height="7.2"/>
	<rect x="129.1" y="250.4" class="st0" width="7.2" height="7.2"/>
	<rect x="129.1" y="243.2" class="st0" width="7.2" height="7.2"/>
	<rect x="129.1" y="236" class="st0" width="7.2" height="7.2"/>
	<rect x="121.9" y="379.6" class="st1" width="7.2" height="7.2"/>
	<rect x="121.9" y="372.4" class="st2" width="7.2" height="7.2"/>
	<rect x="121.9" y="365.2" class="st4" width="7.2" height="7.2"/>
	<rect x="121.9" y="358" class="st4" width="7.2" height="7.2"/>
	<rect x="121.9" y="350.9" class="st2" width="7.2" height="7.2"/>
	<rect x="121.9" y="343.7" class="st2" width="7.2" height="7.2"/>
	<rect x="121.9" y="336.5" class="st3" width="7.2" height="7.2"/>
	<rect x="121.9" y="329.3" class="st3" width="7.2" height="7.2"/>
	<rect x="121.9" y="322.2" class="st3" width="7.2" height="7.2"/>
	<rect x="121.9" y="315" class="st3" width="7.2" height="7.2"/>
	<rect x="121.9" y="307.8" class="st2" width="7.2" height="7.2"/>
	<rect x="121.9" y="300.6" class="st2" width="7.2" height="7.2"/>
	<rect x="121.9" y="293.4" class="st2" width="7.2" height="7.2"/>
	<rect x="121.9" y="286.3" class="st1" width="7.2" height="7.2"/>
	<rect x="121.9" y="279.1" class="st1" width="7.2" height="7.2"/>
	<rect x="121.9" y="271.9" class="st2" width="7.2" height="7.2"/>
	<rect x="121.9" y="264.7" class="st2" width="7.2" height="7.2"/>
	<rect x="121.9" y="257.6" class="st2" width="7.2" height="7.2"/>
	<rect x="121.9" y="250.4" class="st0" width="7.2" height="7.2"/>
	<rect x="121.9" y="243.2" class="st0" width="7.2" height="7.2"/>
	<rect x="121.9" y="236" class="st0" width="7.2" height="7.2"/>
	<rect x="121.9" y="228.8" class="st0" width="7.2" height="7.2"/>
	<rect x="121.9" y="221.7" class="st0" width="7.2" height="7.2"/>
	<rect x="114.7" y="379.6" class="st1" width="7.2" height="7.2"/>
	<rect x="114.7" y="372.4" class="st2" width="7.2" height="7.2"/>
	<rect x="114.7" y="365.2" class="st4" width="7.2" height="7.2"/>
	<rect x="114.7" y="358" class="st4" width="7.2" height="7.2"/>
	<rect x="114.7" y="350.9" class="st3" width="7.2" height="7.2"/>
	<rect x="114.7" y="343.7" class="st2" width="7.2" height="7.2"/>
	<rect x="114.7" y="336.5" class="st3" width="7.2" height="7.2"/>
	<rect x="114.7" y="329.3" class="st3" width="7.2" height="7.2"/>
	<rect x="114.7" y="322.2" class="st3" width="7.2" height="7.2"/>
	<rect x="114.7" y="315" class="st2" width="7.2" height="7.2"/>
	<rect x="114.7" y="307.8" class="st2" width="7.2" height="7.2"/>
	<rect x="114.7" y="300.6" class="st1" width="7.2" height="7.2"/>
	<rect x="114.7" y="293.4" class="st2" width="7.2" height="7.2"/>
	<rect x="114.7" y="286.3" class="st2" width="7.2" height="7.2"/>
	<rect x="114.7" y="279.1" class="st2" width="7.2" height="7.2"/>
	<rect x="114.7" y="271.9" class="st2" width="7.2" height="7.2"/>
	<rect x="114.7" y="264.7" class="st0" width="7.2" height="7.2"/>
	<rect x="114.7" y="257.6" class="st0" width="7.2" height="7.2"/>
	<rect x="114.7" y="250.4" class="st0" width="7.2" height="7.2"/>
	<rect x="114.7" y="243.2" class="st0" width="7.2" height="7.2"/>
	<rect x="114.7" y="236" class="st0" width="7.2" height="7.2"/>
	<rect x="114.7" y="228.8" class="st0" width="7.2" height="7.2"/>
	<rect x="107.5" y="365.2" class="st4" width="7.2" height="7.2"/>
	<rect x="107.5" y="358" class="st4" width="7.2" height="7.2"/>
	<rect x="107.5" y="350.9" class="st3" width="7.2" height="7.2"/>
	<rect x="107.5" y="343.7" class="st3" width="7.2" height="7.2"/>
	<rect x="107.5" y="336.5" class="st3" width="7.2" height="7.2"/>
	<rect x="107.5" y="329.3" class="st3" width="7.2" height="7.2"/>
	<rect x="107.5" y="322.2" class="st3" width="7.2" height="7.2"/>
	<rect x="107.5" y="315" class="st2" width="7.2" height="7.2"/>
	<rect x="107.5" y="307.8" class="st2" width="7.2" height="7.2"/>
	<rect x="107.5" y="300.6" class="st2" width="7.2" height="7.2"/>
	<rect x="107.5" y="293.4" class="st2" width="7.2" height="7.2"/>
	<rect x="107.5" y="286.3" class="st2" width="7.2" height="7.2"/>
	<rect x="107.5" y="279.1" class="st2" width="7.2" height="7.2"/>
	<rect x="107.5" y="271.9" class="st2" width="7.2" height="7.2"/>
	<rect x="107.5" y="264.7" class="st2" width="7.2" height="7.2"/>
	<rect x="107.5" y="257.6" class="st0" width="7.2" height="7.2"/>
	<rect x="107.5" y="250.4" class="st0" width="7.2" height="7.2"/>
	<rect x="107.5" y="243.2" class="st0" width="7.2" height="7.2"/>
	<rect x="107.5" y="236" class="st0" width="7.2" height="7.2"/>
	<rect x="107.5" y="228.8" class="st0" width="7.2" height="7.2"/>
	<rect x="107.5" y="221.7" class="st0" width="7.2" height="7.2"/>
	<rect x="107.5" y="214.5" class="st0" width="7.2" height="7.2"/>
	<rect x="100.3" y="358" class="st4" width="7.2" height="7.2"/>
	<rect x="100.3" y="350.9" class="st3" width="7.2" height="7.2"/>
	<rect x="100.3" y="343.7" class="st3" width="7.2" height="7.2"/>
	<rect x="100.3" y="336.5" class="st3" width="7.2" height="7.2"/>
	<rect x="100.3" y="329.3" class="st3" width="7.2" height="7.2"/>
	<rect x="100.3" y="322.2" class="st3" width="7.2" height="7.2"/>
	<rect x="100.3" y="315" class="st3" width="7.2" height="7.2"/>
	<rect x="100.3" y="307.8" class="st2" width="7.2" height="7.2"/>
	<rect x="100.3" y="300.6" class="st2" width="7.2" height="7.2"/>
	<rect x="100.3" y="293.4" class="st2" width="7.2" height="7.2"/>
	<rect x="100.3" y="286.3" class="st1" width="7.2" height="7.2"/>
	<rect x="100.3" y="279.1" class="st1" width="7.2" height="7.2"/>
	<rect x="100.3" y="271.9" class="st2" width="7.2" height="7.2"/>
	<rect x="100.3" y="264.7" class="st2" width="7.2" height="7.2"/>
	<rect x="100.3" y="257.6" class="st2" width="7.2" height="7.2"/>
	<rect x="100.3" y="250.4" class="st0" width="7.2" height="7.2"/>
	<rect x="100.3" y="243.2" class="st0" width="7.2" height="7.2"/>
	<rect x="100.3" y="236" class="st0" width="7.2" height="7.2"/>
	<rect x="100.3" y="228.8" class="st0" width="7.2" height="7.2"/>
	<rect x="100.3" y="221.7" class="st0" width="7.2" height="7.2"/>
	<rect x="93.2" y="365.2" class="st4" width="7.2" height="7.2"/>
	<rect x="93.2" y="358" class="st4" width="7.2" height="7.2"/>
	<rect x="93.2" y="350.9" class="st3" width="7.2" height="7.2"/>
	<rect x="93.2" y="343.7" class="st3" width="7.2" height="7.2"/>
	<rect x="93.2" y="336.5" class="st3" width="7.2" height="7.2"/>
	<rect x="93.2" y="329.3" class="st3" width="7.2" height="7.2"/>
	<rect x="93.2" y="322.2" class="st3" width="7.2" height="7.2"/>
	<rect x="93.2" y="315" class="st3" width="7.2" height="7.2"/>
	<rect x="93.2" y="307.8" class="st2" width="7.2" height="7.2"/>
	<rect x="93.2" y="300.6" class="st2" width="7.2" height="7.2"/>
	<rect x="93.2" y="293.4" class="st2" width="7.2" height="7.2"/>
	<rect x="93.2" y="286.3" class="st2" width="7.2" height="7.2"/>
	<rect x="93.2" y="279.1" class="st2" width="7.2" height="7.2"/>
	<rect x="93.2" y="271.9" class="st2" width="7.2" height="7.2"/>
	<rect x="93.2" y="264.7" class="st2" width="7.2" height="7.2"/>
	<rect x="93.2" y="257.6" class="st2" width="7.2" height="7.2"/>
	<rect x="93.2" y="250.4" class="st0" width="7.2" height="7.2"/>
	<rect x="93.2" y="243.2" class="st0" width="7.2" height="7.2"/>
	<rect x="93.2" y="236" class="st0" width="7.2" height="7.2"/>
	<rect x="93.2" y="228.8" class="st0" width="7.2" height="7.2"/>
	<rect x="93.2" y="221.7" class="st0" width="7.2" height="7.2"/>
	<rect x="93.2" y="214.5" class="st0" width="7.2" height="7.2"/>
	<rect x="86" y="379.6" class="st1" width="7.2" height="7.2"/>
	<rect x="86" y="372.4" class="st2" width="7.2" height="7.2"/>
	<rect x="86" y="365.2" class="st4" width="7.2" height="7.2"/>
	<rect x="86" y="358" class="st4" width="7.2" height="7.2"/>
	<rect x="86" y="350.9" class="st5" width="7.2" height="7.2"/>
	<rect x="86" y="343.7" class="st5" width="7.2" height="7.2"/>
	<rect x="86" y="336.5" class="st3" width="7.2" height="7.2"/>
	<rect x="86" y="329.3" class="st3" width="7.2" height="7.2"/>
	<rect x="86" y="322.2" class="st3" width="7.2" height="7.2"/>
	<rect x="86" y="315" class="st3" width="7.2" height="7.2"/>
	<rect x="86" y="307.8" class="st2" width="7.2" height="7.2"/>
	<rect x="86" y="300.6" class="st2" width="7.2" height="7.2"/>
	<rect x="86" y="293.4" class="st2" width="7.2" height="7.2"/>
	<rect x="86" y="286.3" class="st2" width="7.2" height="7.2"/>
	<rect x="86" y="279.1" class="st2" width="7.2" height="7.2"/>
	<rect x="86" y="271.9" class="st2" width="7.2" height="7.2"/>
	<rect x="86" y="264.7" class="st2" width="7.2" height="7.2"/>
	<rect x="86" y="257.6" class="st0" width="7.2" height="7.2"/>
	<rect x="86" y="250.4" class="st0" width="7.2" height="7.2"/>
	<rect x="86" y="243.2" class="st0" width="7.2" height="7.2"/>
	<rect x="86" y="236" class="st0" width="7.2" height="7.2"/>
	<rect x="86" y="228.8" class="st6" width="7.2" height="7.2"/>
	<rect x="86" y="221.7" class="st0" width="7.2" height="7.2"/>
	<rect x="86" y="207.3" class="st0" width="7.2" height="7.2"/>
	<rect x="78.8" y="379.6" class="st1" width="7.2" height="7.2"/>
	<rect x="78.8" y="372.4" class="st2" width="7.2" height="7.2"/>
	<rect x="78.8" y="365.2" class="st4" width="7.2" height="7.2"/>
	<rect x="78.8" y="358" class="st5" width="7.2" height="7.2"/>
	<rect x="78.8" y="350.9" class="st5" width="7.2" height="7.2"/>
	<rect x="78.8" y="343.7" class="st5" width="7.2" height="7.2"/>
	<rect x="78.8" y="336.5" class="st5" width="7.2" height="7.2"/>
	<rect x="78.8" y="329.3" class="st3" width="7.2" height="7.2"/>
	<rect x="78.8" y="322.2" class="st3" width="7.2" height="7.2"/>
	<rect x="78.8" y="315" class="st3" width="7.2" height="7.2"/>
	<rect x="78.8" y="307.8" class="st3" width="7.2" height="7.2"/>
	<rect x="78.8" y="300.6" class="st2" width="7.2" height="7.2"/>
	<rect x="78.8" y="293.4" class="st2" width="7.2" height="7.2"/>
	<rect x="78.8" y="286.3" class="st2" width="7.2" height="7.2"/>
	<rect x="78.8" y="279.1" class="st2" width="7.2" height="7.2"/>
	<rect x="78.8" y="271.9" class="st2" width="7.2" height="7.2"/>
	<rect x="78.8" y="264.7" class="st0" width="7.2" height="7.2"/>
	<rect x="78.8" y="257.6" class="st0" width="7.2" height="7.2"/>
	<rect x="78.8" y="250.4" class="st0" width="7.2" height="7.2"/>
	<rect x="78.8" y="243.2" class="st0" width="7.2" height="7.2"/>
	<rect x="78.8" y="236" class="st0" width="7.2" height="7.2"/>
	<rect x="78.8" y="228.8" class="st6" width="7.2" height="7.2"/>
	<rect x="78.8" y="221.7" class="st0" width="7.2" height="7.2"/>
	<rect x="71.6" y="379.6" class="st1" width="7.2" height="7.2"/>
	<rect x="71.6" y="372.4" class="st2" width="7.2" height="7.2"/>
	<rect x="71.6" y="365.2" class="st4" width="7.2" height="7.2"/>
	<rect x="71.6" y="358" class="st5" width="7.2" height="7.2"/>
	<rect x="71.6" y="350.9" class="st5" width="7.2" height="7.2"/>
	<rect x="71.6" y="343.7" class="st5" width="7.2" height="7.2"/>
	<rect x="71.6" y="336.5" class="st2" width="7.2" height="7.2"/>
	<rect x="71.6" y="329.3" class="st3" width="7.2" height="7.2"/>
	<rect x="71.6" y="322.2" class="st3" width="7.2" height="7.2"/>
	<rect x="71.6" y="315" class="st3" width="7.2" height="7.2"/>
	<rect x="71.6" y="307.8" class="st3" width="7.2" height="7.2"/>
	<rect x="71.6" y="300.6" class="st2" width="7.2" height="7.2"/>
	<rect x="71.6" y="293.4" class="st2" width="7.2" height="7.2"/>
	<rect x="71.6" y="286.3" class="st2" width="7.2" height="7.2"/>
	<rect x="71.6" y="279.1" class="st0" width="7.2" height="7.2"/>
	<rect x="71.6" y="271.9" class="st0" width="7.2" height="7.2"/>
	<rect x="71.6" y="264.7" class="st0" width="7.2" height="7.2"/>
	<rect x="71.6" y="257.6" class="st0" width="7.2" height="7.2"/>
	<rect x="71.6" y="250.4" class="st0" width="7.2" height="7.2"/>
	<rect x="71.6" y="243.2" class="st0" width="7.2" height="7.2"/>
	<rect x="71.6" y="236" class="st6" width="7.2" height="7.2"/>
	<rect x="71.6" y="228.8" class="st0" width="7.2" height="7.2"/>
	<rect x="71.6" y="221.7" class="st0" width="7.2" height="7.2"/>
	<rect x="71.6" y="214.5" class="st0" width="7.2" height="7.2"/>
	<rect x="64.4" y="358" class="st2" width="7.2" height="7.2"/>
	<rect x="64.4" y="350.9" class="st2" width="7.2" height="7.2"/>
	<rect x="64.4" y="343.7" class="st2" width="7.2" height="7.2"/>
	<rect x="64.4" y="336.5" class="st3" width="7.2" height="7.2"/>
	<rect x="64.4" y="329.3" class="st3" width="7.2" height="7.2"/>
	<rect x="64.4" y="322.2" class="st3" width="7.2" height="7.2"/>
	<rect x="64.4" y="315" class="st3" width="7.2" height="7.2"/>
	<rect x="64.4" y="293.4" class="st0" width="7.2" height="7.2"/>
	<rect x="64.4" y="286.3" class="st0" width="7.2" height="7.2"/>
	<rect x="64.4" y="279.1" class="st0" width="7.2" height="7.2"/>
	<rect x="64.4" y="271.9" class="st0" width="7.2" height="7.2"/>
	<rect x="64.4" y="264.7" class="st0" width="7.2" height="7.2"/>
	<rect x="64.4" y="257.6" class="st0" width="7.2" height="7.2"/>
	<rect x="64.4" y="250.4" class="st0" width="7.2" height="7.2"/>
	<rect x="64.4" y="243.2" class="st6" width="7.2" height="7.2"/>
	<rect x="64.4" y="236" class="st0" width="7.2" height="7.2"/>
	<rect x="64.4" y="228.8" class="st0" width="7.2" height="7.2"/>
	<rect x="64.4" y="221.7" class="st0" width="7.2" height="7.2"/>
	<rect x="64.4" y="207.3" class="st0" width="7.2" height="7.2"/>
	<rect x="57.3" y="358" class="st2" width="7.2" height="7.2"/>
	<rect x="57.3" y="350.9" class="st2" width="7.2" height="7.2"/>
	<rect x="57.3" y="343.7" class="st2" width="7.2" height="7.2"/>
	<rect x="57.3" y="336.5" class="st3" width="7.2" height="7.2"/>
	<rect x="57.3" y="329.3" class="st3" width="7.2" height="7.2"/>
	<rect x="57.3" y="322.2" class="st3" width="7.2" height="7.2"/>
	<rect x="57.3" y="279.1" class="st0" width="7.2" height="7.2"/>
	<rect x="57.3" y="271.9" class="st0" width="7.2" height="7.2"/>
	<rect x="57.3" y="264.7" class="st0" width="7.2" height="7.2"/>
	<rect x="57.3" y="257.6" class="st0" width="7.2" height="7.2"/>
	<rect x="57.3" y="250.4" class="st0" width="7.2" height="7.2"/>
	<rect x="57.3" y="243.2" class="st0" width="7.2" height="7.2"/>
	<rect x="57.3" y="236" class="st0" width="7.2" height="7.2"/>
	<rect x="50.1" y="343.7" class="st3" width="7.2" height="7.2"/>
	<rect x="50.1" y="336.5" class="st3" width="7.2" height="7.2"/>
	<rect x="50.1" y="329.3" class="st3" width="7.2" height="7.2"/>
	<rect x="50.1" y="271.9" class="st0" width="7.2" height="7.2"/>
	<rect x="50.1" y="264.7" class="st0" width="7.2" height="7.2"/>
	<rect x="50.1" y="257.6" class="st0" width="7.2" height="7.2"/>
	<rect x="50.1" y="250.4" class="st0" width="7.2" height="7.2"/>
</g>
<line class="st7" x1="96.7" y1="6.9" x2="96.7" y2="181.8"/>
</svg>
