<?xml version="1.0" encoding="utf-8"?>
<!-- Generator: Adobe Illustrator 19.2.0, SVG Export Plug-In . SVG Version: 6.00 Build 0)  -->
<svg version="1.1" id="Layer_1" xmlns="http://www.w3.org/2000/svg" xmlns:xlink="http://www.w3.org/1999/xlink" x="0px" y="0px"
	 viewBox="0 0 200 200" style="enable-background:new 0 0 200 200;" xml:space="preserve">
<style type="text/css">
	.st0{fill:#F9A825;}
	.st1{fill:#263238;}
	.st2{fill:#FFCCBC;}
	.st3{fill:#00BCD4;}
	.st4{fill:#009688;}
	.st5{fill:#FAFAFA;}
	.st6{fill:#FBCB7C;}
</style>
<g>
	<rect x="138.8" y="59.7" class="st0" width="7.2" height="7.2"/>
	<rect x="138.8" y="52.5" class="st0" width="7.2" height="7.2"/>
	<rect x="138.8" y="45.3" class="st0" width="7.2" height="7.2"/>
	<rect x="138.8" y="38.1" class="st0" width="7.2" height="7.2"/>
	<rect x="138.8" y="30.9" class="st0" width="7.2" height="7.2"/>
	<rect x="131.6" y="181.7" class="st1" width="7.2" height="7.2"/>
	<rect x="131.6" y="153" class="st2" width="7.2" height="7.2"/>
	<rect x="131.6" y="145.8" class="st2" width="7.2" height="7.2"/>
	<rect x="131.6" y="138.6" class="st3" width="7.2" height="7.2"/>
	<rect x="131.6" y="131.4" class="st3" width="7.2" height="7.2"/>
	<rect x="131.6" y="124.3" class="st3" width="7.2" height="7.2"/>
	<rect x="131.6" y="117.1" class="st3" width="7.2" height="7.2"/>
	<rect x="131.6" y="109.9" class="st2" width="7.2" height="7.2"/>
	<rect x="131.6" y="102.7" class="st2" width="7.2" height="7.2"/>
	<rect x="131.6" y="95.5" class="st2" width="7.2" height="7.2"/>
	<rect x="131.6" y="88.4" class="st2" width="7.2" height="7.2"/>
	<rect x="131.6" y="81.2" class="st2" width="7.2" height="7.2"/>
	<rect x="131.6" y="74" class="st2" width="7.2" height="7.2"/>
	<rect x="131.6" y="66.8" class="st2" width="7.2" height="7.2"/>
	<rect x="131.6" y="59.7" class="st2" width="7.2" height="7.2"/>
	<rect x="131.6" y="52.5" class="st0" width="7.2" height="7.2"/>
	<rect x="131.6" y="45.3" class="st0" width="7.2" height="7.2"/>
	<rect x="131.6" y="38.1" class="st0" width="7.2" height="7.2"/>
	<rect x="124.5" y="181.7" class="st1" width="7.2" height="7.2"/>
	<rect x="124.5" y="174.5" class="st2" width="7.2" height="7.2"/>
	<rect x="124.5" y="167.3" class="st4" width="7.2" height="7.2"/>
	<rect x="124.5" y="160.1" class="st4" width="7.2" height="7.2"/>
	<rect x="124.5" y="153" class="st2" width="7.2" height="7.2"/>
	<rect x="124.5" y="145.8" class="st2" width="7.2" height="7.2"/>
	<rect x="124.5" y="138.6" class="st3" width="7.2" height="7.2"/>
	<rect x="124.5" y="131.4" class="st3" width="7.2" height="7.2"/>
	<rect x="124.5" y="124.3" class="st3" width="7.2" height="7.2"/>
	<rect x="124.5" y="117.1" class="st3" width="7.2" height="7.2"/>
	<rect x="124.5" y="109.9" class="st2" width="7.2" height="7.2"/>
	<rect x="124.5" y="102.7" class="st2" width="7.2" height="7.2"/>
	<rect x="124.5" y="95.5" class="st2" width="7.2" height="7.2"/>
	<rect x="124.5" y="88.4" class="st1" width="7.2" height="7.2"/>
	<rect x="124.5" y="81.2" class="st1" width="7.2" height="7.2"/>
	<rect x="124.5" y="74" class="st2" width="7.2" height="7.2"/>
	<rect x="124.5" y="66.8" class="st2" width="7.2" height="7.2"/>
	<rect x="124.5" y="59.7" class="st2" width="7.2" height="7.2"/>
	<rect x="124.5" y="52.5" class="st0" width="7.2" height="7.2"/>
	<rect x="124.5" y="45.3" class="st0" width="7.2" height="7.2"/>
	<rect x="124.5" y="38.1" class="st0" width="7.2" height="7.2"/>
	<rect x="124.5" y="30.9" class="st0" width="7.2" height="7.2"/>
	<rect x="124.5" y="23.8" class="st0" width="7.2" height="7.2"/>
	<rect x="117.3" y="181.7" class="st1" width="7.2" height="7.2"/>
	<rect x="117.3" y="174.5" class="st2" width="7.2" height="7.2"/>
	<rect x="117.3" y="167.3" class="st4" width="7.2" height="7.2"/>
	<rect x="117.3" y="160.1" class="st4" width="7.2" height="7.2"/>
	<rect x="117.3" y="153" class="st3" width="7.2" height="7.2"/>
	<rect x="117.3" y="145.8" class="st2" width="7.2" height="7.2"/>
	<rect x="117.3" y="138.6" class="st3" width="7.2" height="7.2"/>
	<rect x="117.3" y="131.4" class="st3" width="7.2" height="7.2"/>
	<rect x="117.3" y="124.3" class="st3" width="7.2" height="7.2"/>
	<rect x="117.3" y="117.1" class="st2" width="7.2" height="7.2"/>
	<rect x="117.3" y="109.9" class="st2" width="7.2" height="7.2"/>
	<rect x="117.3" y="102.7" class="st1" width="7.2" height="7.2"/>
	<rect x="117.3" y="95.5" class="st2" width="7.2" height="7.2"/>
	<rect x="117.3" y="88.4" class="st2" width="7.2" height="7.2"/>
	<rect x="117.3" y="81.2" class="st2" width="7.2" height="7.2"/>
	<rect x="117.3" y="74" class="st2" width="7.2" height="7.2"/>
	<rect x="117.3" y="66.8" class="st0" width="7.2" height="7.2"/>
	<rect x="117.3" y="59.7" class="st0" width="7.2" height="7.2"/>
	<rect x="117.3" y="52.5" class="st0" width="7.2" height="7.2"/>
	<rect x="117.3" y="45.3" class="st0" width="7.2" height="7.2"/>
	<rect x="117.3" y="38.1" class="st0" width="7.2" height="7.2"/>
	<rect x="117.3" y="30.9" class="st0" width="7.2" height="7.2"/>
	<rect x="110.1" y="167.3" class="st4" width="7.2" height="7.2"/>
	<rect x="110.1" y="160.1" class="st4" width="7.2" height="7.2"/>
	<rect x="110.1" y="153" class="st3" width="7.2" height="7.2"/>
	<rect x="110.1" y="145.8" class="st3" width="7.2" height="7.2"/>
	<rect x="110.1" y="138.6" class="st3" width="7.2" height="7.2"/>
	<rect x="110.1" y="131.4" class="st3" width="7.2" height="7.2"/>
	<rect x="110.1" y="124.3" class="st3" width="7.2" height="7.2"/>
	<rect x="110.1" y="117.1" class="st2" width="7.2" height="7.2"/>
	<rect x="110.1" y="109.9" class="st2" width="7.2" height="7.2"/>
	<rect x="110.1" y="102.7" class="st2" width="7.2" height="7.2"/>
	<rect x="110.1" y="95.5" class="st2" width="7.2" height="7.2"/>
	<rect x="110.1" y="88.4" class="st2" width="7.2" height="7.2"/>
	<rect x="110.1" y="81.2" class="st2" width="7.2" height="7.2"/>
	<rect x="110.1" y="74" class="st2" width="7.2" height="7.2"/>
	<rect x="110.1" y="66.8" class="st2" width="7.2" height="7.2"/>
	<rect x="110.1" y="59.7" class="st0" width="7.2" height="7.2"/>
	<rect x="110.1" y="52.5" class="st0" width="7.2" height="7.2"/>
	<rect x="110.1" y="45.3" class="st0" width="7.2" height="7.2"/>
	<rect x="110.1" y="38.1" class="st0" width="7.2" height="7.2"/>
	<rect x="110.1" y="30.9" class="st0" width="7.2" height="7.2"/>
	<rect x="110.1" y="23.8" class="st0" width="7.2" height="7.2"/>
	<rect x="110.1" y="16.6" class="st0" width="7.2" height="7.2"/>
	<rect x="102.9" y="160.1" class="st4" width="7.2" height="7.2"/>
	<rect x="102.9" y="153" class="st3" width="7.2" height="7.2"/>
	<rect x="102.9" y="145.8" class="st3" width="7.2" height="7.2"/>
	<rect x="102.9" y="138.6" class="st3" width="7.2" height="7.2"/>
	<rect x="102.9" y="131.4" class="st3" width="7.2" height="7.2"/>
	<rect x="102.9" y="124.3" class="st3" width="7.2" height="7.2"/>
	<rect x="102.9" y="117.1" class="st3" width="7.2" height="7.2"/>
	<rect x="102.9" y="109.9" class="st2" width="7.2" height="7.2"/>
	<rect x="102.9" y="102.7" class="st2" width="7.2" height="7.2"/>
	<rect x="102.9" y="95.5" class="st2" width="7.2" height="7.2"/>
	<rect x="102.9" y="88.4" class="st1" width="7.2" height="7.2"/>
	<rect x="102.9" y="81.2" class="st1" width="7.2" height="7.2"/>
	<rect x="102.9" y="74" class="st2" width="7.2" height="7.2"/>
	<rect x="102.9" y="66.8" class="st2" width="7.2" height="7.2"/>
	<rect x="102.9" y="59.7" class="st2" width="7.2" height="7.2"/>
	<rect x="102.9" y="52.5" class="st0" width="7.2" height="7.2"/>
	<rect x="102.9" y="45.3" class="st0" width="7.2" height="7.2"/>
	<rect x="102.9" y="38.1" class="st0" width="7.2" height="7.2"/>
	<rect x="102.9" y="30.9" class="st0" width="7.2" height="7.2"/>
	<rect x="102.9" y="23.8" class="st0" width="7.2" height="7.2"/>
	<rect x="95.7" y="167.3" class="st4" width="7.2" height="7.2"/>
	<rect x="95.7" y="160.1" class="st4" width="7.2" height="7.2"/>
	<rect x="95.7" y="153" class="st3" width="7.2" height="7.2"/>
	<rect x="95.7" y="145.8" class="st3" width="7.2" height="7.2"/>
	<rect x="95.7" y="138.6" class="st3" width="7.2" height="7.2"/>
	<rect x="95.7" y="131.4" class="st3" width="7.2" height="7.2"/>
	<rect x="95.7" y="124.3" class="st3" width="7.2" height="7.2"/>
	<rect x="95.7" y="117.1" class="st3" width="7.2" height="7.2"/>
	<rect x="95.7" y="109.9" class="st2" width="7.2" height="7.2"/>
	<rect x="95.7" y="102.7" class="st2" width="7.2" height="7.2"/>
	<rect x="95.7" y="95.5" class="st2" width="7.2" height="7.2"/>
	<rect x="95.7" y="88.4" class="st2" width="7.2" height="7.2"/>
	<rect x="95.7" y="81.2" class="st2" width="7.2" height="7.2"/>
	<rect x="95.7" y="74" class="st2" width="7.2" height="7.2"/>
	<rect x="95.7" y="66.8" class="st2" width="7.2" height="7.2"/>
	<rect x="95.7" y="59.7" class="st2" width="7.2" height="7.2"/>
	<rect x="95.7" y="52.5" class="st0" width="7.2" height="7.2"/>
	<rect x="95.7" y="45.3" class="st0" width="7.2" height="7.2"/>
	<rect x="95.7" y="38.1" class="st0" width="7.2" height="7.2"/>
	<rect x="95.7" y="30.9" class="st0" width="7.2" height="7.2"/>
	<rect x="95.7" y="23.8" class="st0" width="7.2" height="7.2"/>
	<rect x="95.7" y="16.6" class="st0" width="7.2" height="7.2"/>
	<rect x="88.6" y="181.7" class="st1" width="7.2" height="7.2"/>
	<rect x="88.6" y="174.5" class="st2" width="7.2" height="7.2"/>
	<rect x="88.6" y="167.3" class="st4" width="7.2" height="7.2"/>
	<rect x="88.6" y="160.1" class="st4" width="7.2" height="7.2"/>
	<rect x="88.6" y="153" class="st5" width="7.2" height="7.2"/>
	<rect x="88.6" y="145.8" class="st5" width="7.2" height="7.2"/>
	<rect x="88.6" y="138.6" class="st3" width="7.2" height="7.2"/>
	<rect x="88.6" y="131.4" class="st3" width="7.2" height="7.2"/>
	<rect x="88.6" y="124.3" class="st3" width="7.2" height="7.2"/>
	<rect x="88.6" y="117.1" class="st3" width="7.2" height="7.2"/>
	<rect x="88.6" y="109.9" class="st2" width="7.2" height="7.2"/>
	<rect x="88.6" y="102.7" class="st2" width="7.2" height="7.2"/>
	<rect x="88.6" y="95.5" class="st2" width="7.2" height="7.2"/>
	<rect x="88.6" y="88.4" class="st2" width="7.2" height="7.2"/>
	<rect x="88.6" y="81.2" class="st2" width="7.2" height="7.2"/>
	<rect x="88.6" y="74" class="st2" width="7.2" height="7.2"/>
	<rect x="88.6" y="66.8" class="st2" width="7.2" height="7.2"/>
	<rect x="88.6" y="59.7" class="st0" width="7.2" height="7.2"/>
	<rect x="88.6" y="52.5" class="st0" width="7.2" height="7.2"/>
	<rect x="88.6" y="45.3" class="st0" width="7.2" height="7.2"/>
	<rect x="88.6" y="38.1" class="st0" width="7.2" height="7.2"/>
	<rect x="88.6" y="30.9" class="st6" width="7.2" height="7.2"/>
	<rect x="88.6" y="23.8" class="st0" width="7.2" height="7.2"/>
	<rect x="88.6" y="9.4" class="st0" width="7.2" height="7.2"/>
	<rect x="81.4" y="181.7" class="st1" width="7.2" height="7.2"/>
	<rect x="81.4" y="174.5" class="st2" width="7.2" height="7.2"/>
	<rect x="81.4" y="167.3" class="st4" width="7.2" height="7.2"/>
	<rect x="81.4" y="160.1" class="st5" width="7.2" height="7.2"/>
	<rect x="81.4" y="153" class="st5" width="7.2" height="7.2"/>
	<rect x="81.4" y="145.8" class="st5" width="7.2" height="7.2"/>
	<rect x="81.4" y="138.6" class="st5" width="7.2" height="7.2"/>
	<rect x="81.4" y="131.4" class="st3" width="7.2" height="7.2"/>
	<rect x="81.4" y="124.3" class="st3" width="7.2" height="7.2"/>
	<rect x="81.4" y="117.1" class="st3" width="7.2" height="7.2"/>
	<rect x="81.4" y="109.9" class="st3" width="7.2" height="7.2"/>
	<rect x="81.4" y="102.7" class="st2" width="7.2" height="7.2"/>
	<rect x="81.4" y="95.5" class="st2" width="7.2" height="7.2"/>
	<rect x="81.4" y="88.4" class="st2" width="7.2" height="7.2"/>
	<rect x="81.4" y="81.2" class="st2" width="7.2" height="7.2"/>
	<rect x="81.4" y="74" class="st2" width="7.2" height="7.2"/>
	<rect x="81.4" y="66.8" class="st0" width="7.2" height="7.2"/>
	<rect x="81.4" y="59.7" class="st0" width="7.2" height="7.2"/>
	<rect x="81.4" y="52.5" class="st0" width="7.2" height="7.2"/>
	<rect x="81.4" y="45.3" class="st0" width="7.2" height="7.2"/>
	<rect x="81.4" y="38.1" class="st0" width="7.2" height="7.2"/>
	<rect x="81.4" y="30.9" class="st6" width="7.2" height="7.2"/>
	<rect x="81.4" y="23.8" class="st0" width="7.2" height="7.2"/>
	<rect x="74.2" y="181.7" class="st1" width="7.2" height="7.2"/>
	<rect x="74.2" y="174.5" class="st2" width="7.2" height="7.2"/>
	<rect x="74.2" y="167.3" class="st4" width="7.2" height="7.2"/>
	<rect x="74.2" y="160.1" class="st5" width="7.2" height="7.2"/>
	<rect x="74.2" y="153" class="st5" width="7.2" height="7.2"/>
	<rect x="74.2" y="145.8" class="st5" width="7.2" height="7.2"/>
	<rect x="74.2" y="138.6" class="st2" width="7.2" height="7.2"/>
	<rect x="74.2" y="131.4" class="st3" width="7.2" height="7.2"/>
	<rect x="74.2" y="124.3" class="st3" width="7.2" height="7.2"/>
	<rect x="74.2" y="117.1" class="st3" width="7.2" height="7.2"/>
	<rect x="74.2" y="109.9" class="st3" width="7.2" height="7.2"/>
	<rect x="74.2" y="102.7" class="st2" width="7.2" height="7.2"/>
	<rect x="74.2" y="95.5" class="st2" width="7.2" height="7.2"/>
	<rect x="74.2" y="88.4" class="st2" width="7.2" height="7.2"/>
	<rect x="74.2" y="81.2" class="st0" width="7.2" height="7.2"/>
	<rect x="74.2" y="74" class="st0" width="7.2" height="7.2"/>
	<rect x="74.2" y="66.8" class="st0" width="7.2" height="7.2"/>
	<rect x="74.2" y="59.7" class="st0" width="7.2" height="7.2"/>
	<rect x="74.2" y="52.5" class="st0" width="7.2" height="7.2"/>
	<rect x="74.2" y="45.3" class="st0" width="7.2" height="7.2"/>
	<rect x="74.2" y="38.1" class="st6" width="7.2" height="7.2"/>
	<rect x="74.2" y="30.9" class="st0" width="7.2" height="7.2"/>
	<rect x="74.2" y="23.8" class="st0" width="7.2" height="7.2"/>
	<rect x="74.2" y="16.6" class="st0" width="7.2" height="7.2"/>
	<rect x="67" y="160.1" class="st2" width="7.2" height="7.2"/>
	<rect x="67" y="153" class="st2" width="7.2" height="7.2"/>
	<rect x="67" y="145.8" class="st2" width="7.2" height="7.2"/>
	<rect x="67" y="138.6" class="st3" width="7.2" height="7.2"/>
	<rect x="67" y="131.4" class="st3" width="7.2" height="7.2"/>
	<rect x="67" y="124.3" class="st3" width="7.2" height="7.2"/>
	<rect x="67" y="117.1" class="st3" width="7.2" height="7.2"/>
	<rect x="67" y="95.5" class="st0" width="7.2" height="7.2"/>
	<rect x="67" y="88.4" class="st0" width="7.2" height="7.2"/>
	<rect x="67" y="81.2" class="st0" width="7.2" height="7.2"/>
	<rect x="67" y="74" class="st0" width="7.2" height="7.2"/>
	<rect x="67" y="66.8" class="st0" width="7.2" height="7.2"/>
	<rect x="67" y="59.7" class="st0" width="7.2" height="7.2"/>
	<rect x="67" y="52.5" class="st0" width="7.2" height="7.2"/>
	<rect x="67" y="45.3" class="st6" width="7.2" height="7.2"/>
	<rect x="67" y="38.1" class="st0" width="7.2" height="7.2"/>
	<rect x="67" y="30.9" class="st0" width="7.2" height="7.2"/>
	<rect x="67" y="23.8" class="st0" width="7.2" height="7.2"/>
	<rect x="67" y="9.4" class="st0" width="7.2" height="7.2"/>
	<rect x="59.9" y="160.1" class="st2" width="7.2" height="7.2"/>
	<rect x="59.9" y="153" class="st2" width="7.2" height="7.2"/>
	<rect x="59.9" y="145.8" class="st2" width="7.2" height="7.2"/>
	<rect x="59.9" y="138.6" class="st3" width="7.2" height="7.2"/>
	<rect x="59.9" y="131.4" class="st3" width="7.2" height="7.2"/>
	<rect x="59.9" y="124.3" class="st3" width="7.2" height="7.2"/>
	<rect x="59.9" y="81.2" class="st0" width="7.2" height="7.2"/>
	<rect x="59.9" y="74" class="st0" width="7.2" height="7.2"/>
	<rect x="59.9" y="66.8" class="st0" width="7.2" height="7.2"/>
	<rect x="59.9" y="59.7" class="st0" width="7.2" height="7.2"/>
	<rect x="59.9" y="52.5" class="st0" width="7.2" height="7.2"/>
	<rect x="59.9" y="45.3" class="st0" width="7.2" height="7.2"/>
	<rect x="59.9" y="38.1" class="st0" width="7.2" height="7.2"/>
	<rect x="52.7" y="145.8" class="st3" width="7.2" height="7.2"/>
	<rect x="52.7" y="138.6" class="st3" width="7.2" height="7.2"/>
	<rect x="52.7" y="131.4" class="st3" width="7.2" height="7.2"/>
	<rect x="52.7" y="74" class="st0" width="7.2" height="7.2"/>
	<rect x="52.7" y="66.8" class="st0" width="7.2" height="7.2"/>
	<rect x="52.7" y="59.7" class="st0" width="7.2" height="7.2"/>
	<rect x="52.7" y="52.5" class="st0" width="7.2" height="7.2"/>
</g>
</svg>
