<?xml version="1.0" encoding="utf-8"?>
<!-- Generator: Adobe Illustrator 19.2.0, SVG Export Plug-In . SVG Version: 6.00 Build 0)  -->
<svg version="1.1" id="Layer_1" xmlns="http://www.w3.org/2000/svg" xmlns:xlink="http://www.w3.org/1999/xlink" x="0px" y="0px"
	 viewBox="0 0 200 400" style="enable-background:new 0 0 200 400;" xml:space="preserve">
<style type="text/css">
	.st0{fill:none;stroke:#E0277F;stroke-width:5;stroke-miterlimit:10;}
	.st1{fill:#4E342E;}
	.st2{fill:#E91E63;}
	.st3{fill:#263238;}
	.st4{fill:#FFCCBC;}
	.st5{fill:#F9A825;}
	.st6{fill:#FAFAFA;}
	.st7{fill:#8D6E63;}
	.st8{fill:#009688;}
</style>
<line class="st0" x1="96.7" y1="6.9" x2="96.7" y2="181.8"/>
<g>
	<rect x="152.7" y="270.7" class="st1" width="6.6" height="6.6"/>
	<rect x="152.7" y="264.2" class="st1" width="6.6" height="6.6"/>
	<rect x="146.1" y="264.2" class="st1" width="6.6" height="6.6"/>
	<rect x="146.1" y="257.6" class="st1" width="6.6" height="6.6"/>
	<rect x="146.1" y="251" class="st1" width="6.6" height="6.6"/>
	<rect x="139.5" y="264.2" class="st1" width="6.6" height="6.6"/>
	<rect x="139.5" y="257.6" class="st1" width="6.6" height="6.6"/>
	<rect x="139.5" y="251" class="st1" width="6.6" height="6.6"/>
	<rect x="139.5" y="244.4" class="st1" width="6.6" height="6.6"/>
	<rect x="132.9" y="264.2" class="st2" width="6.6" height="6.6"/>
	<rect x="132.9" y="257.6" class="st2" width="6.6" height="6.6"/>
	<rect x="132.9" y="251" class="st2" width="6.6" height="6.6"/>
	<rect x="132.9" y="244.4" class="st2" width="6.6" height="6.6"/>
	<rect x="126.4" y="362.8" class="st3" width="6.6" height="6.6"/>
	<rect x="126.4" y="336.5" class="st4" width="6.6" height="6.6"/>
	<rect x="126.4" y="329.9" class="st4" width="6.6" height="6.6"/>
	<rect x="126.4" y="323.4" class="st5" width="6.6" height="6.6"/>
	<rect x="126.4" y="316.8" class="st5" width="6.6" height="6.6"/>
	<rect x="126.4" y="310.2" class="st5" width="6.6" height="6.6"/>
	<rect x="126.4" y="297" class="st4" width="6.6" height="6.6"/>
	<rect x="126.4" y="290.5" class="st4" width="6.6" height="6.6"/>
	<rect x="126.4" y="283.9" class="st4" width="6.6" height="6.6"/>
	<rect x="126.4" y="277.3" class="st4" width="6.6" height="6.6"/>
	<rect x="126.4" y="270.7" class="st1" width="6.6" height="6.6"/>
	<rect x="126.4" y="264.2" class="st1" width="6.6" height="6.6"/>
	<rect x="126.4" y="257.6" class="st1" width="6.6" height="6.6"/>
	<rect x="126.4" y="251" class="st1" width="6.6" height="6.6"/>
	<rect x="126.4" y="244.4" class="st1" width="6.6" height="6.6"/>
	<rect x="126.4" y="237.8" class="st1" width="6.6" height="6.6"/>
	<rect x="126.4" y="231.3" class="st1" width="6.6" height="6.6"/>
	<rect x="119.8" y="362.8" class="st3" width="6.6" height="6.6"/>
	<rect x="119.8" y="356.3" class="st4" width="6.6" height="6.6"/>
	<rect x="119.8" y="349.7" class="st5" width="6.6" height="6.6"/>
	<rect x="119.8" y="343.1" class="st5" width="6.6" height="6.6"/>
	<rect x="119.8" y="336.5" class="st6" width="6.6" height="6.6"/>
	<rect x="119.8" y="329.9" class="st4" width="6.6" height="6.6"/>
	<rect x="119.8" y="323.4" class="st5" width="6.6" height="6.6"/>
	<rect x="119.8" y="316.8" class="st5" width="6.6" height="6.6"/>
	<rect x="119.8" y="310.2" class="st2" width="6.6" height="6.6"/>
	<rect x="119.8" y="303.6" class="st4" width="6.6" height="6.6"/>
	<rect x="119.8" y="297" class="st4" width="6.6" height="6.6"/>
	<rect x="119.8" y="290.5" class="st4" width="6.6" height="6.6"/>
	<rect x="119.8" y="283.9" class="st4" width="6.6" height="6.6"/>
	<rect x="119.8" y="277.3" class="st3" width="6.6" height="6.6"/>
	<rect x="119.8" y="270.7" class="st3" width="6.6" height="6.6"/>
	<rect x="119.8" y="264.2" class="st4" width="6.6" height="6.6"/>
	<rect x="119.8" y="257.6" class="st1" width="6.6" height="6.6"/>
	<rect x="119.8" y="251" class="st1" width="6.6" height="6.6"/>
	<rect x="119.8" y="244.4" class="st1" width="6.6" height="6.6"/>
	<rect x="119.8" y="237.8" class="st1" width="6.6" height="6.6"/>
	<rect x="119.8" y="231.3" class="st1" width="6.6" height="6.6"/>
	<rect x="119.8" y="224.7" class="st1" width="6.6" height="6.6"/>
	<rect x="113.2" y="362.8" class="st3" width="6.6" height="6.6"/>
	<rect x="113.2" y="356.3" class="st4" width="6.6" height="6.6"/>
	<rect x="113.2" y="349.7" class="st5" width="6.6" height="6.6"/>
	<rect x="113.2" y="343.1" class="st5" width="6.6" height="6.6"/>
	<rect x="113.2" y="336.5" class="st6" width="6.6" height="6.6"/>
	<rect x="113.2" y="329.9" class="st5" width="6.6" height="6.6"/>
	<rect x="113.2" y="323.4" class="st5" width="6.6" height="6.6"/>
	<rect x="113.2" y="316.8" class="st2" width="6.6" height="6.6"/>
	<rect x="113.2" y="310.2" class="st2" width="6.6" height="6.6"/>
	<rect x="113.2" y="303.6" class="st4" width="6.6" height="6.6"/>
	<rect x="113.2" y="297" class="st4" width="6.6" height="6.6"/>
	<rect x="113.2" y="290.5" class="st2" width="6.6" height="6.6"/>
	<rect x="113.2" y="283.9" class="st4" width="6.6" height="6.6"/>
	<rect x="113.2" y="277.3" class="st4" width="6.6" height="6.6"/>
	<rect x="113.2" y="270.7" class="st4" width="6.6" height="6.6"/>
	<rect x="113.2" y="264.2" class="st4" width="6.6" height="6.6"/>
	<rect x="113.2" y="257.6" class="st4" width="6.6" height="6.6"/>
	<rect x="113.2" y="251" class="st1" width="6.6" height="6.6"/>
	<rect x="113.2" y="244.4" class="st1" width="6.6" height="6.6"/>
	<rect x="113.2" y="237.8" class="st1" width="6.6" height="6.6"/>
	<rect x="113.2" y="231.3" class="st1" width="6.6" height="6.6"/>
	<rect x="113.2" y="224.7" class="st1" width="6.6" height="6.6"/>
	<rect x="106.6" y="349.7" class="st5" width="6.6" height="6.6"/>
	<rect x="106.6" y="343.1" class="st5" width="6.6" height="6.6"/>
	<rect x="106.6" y="336.5" class="st6" width="6.6" height="6.6"/>
	<rect x="106.6" y="329.9" class="st5" width="6.6" height="6.6"/>
	<rect x="106.6" y="323.4" class="st2" width="6.6" height="6.6"/>
	<rect x="106.6" y="316.8" class="st2" width="6.6" height="6.6"/>
	<rect x="106.6" y="310.2" class="st5" width="6.6" height="6.6"/>
	<rect x="106.6" y="303.6" class="st4" width="6.6" height="6.6"/>
	<rect x="106.6" y="297" class="st4" width="6.6" height="6.6"/>
	<rect x="106.6" y="290.5" class="st4" width="6.6" height="6.6"/>
	<rect x="106.6" y="283.9" class="st4" width="6.6" height="6.6"/>
	<rect x="106.6" y="277.3" class="st4" width="6.6" height="6.6"/>
	<rect x="106.6" y="270.7" class="st4" width="6.6" height="6.6"/>
	<rect x="106.6" y="264.2" class="st4" width="6.6" height="6.6"/>
	<rect x="106.6" y="257.6" class="st1" width="6.6" height="6.6"/>
	<rect x="106.6" y="251" class="st1" width="6.6" height="6.6"/>
	<rect x="106.6" y="244.4" class="st1" width="6.6" height="6.6"/>
	<rect x="106.6" y="237.8" class="st1" width="6.6" height="6.6"/>
	<rect x="106.6" y="231.3" class="st1" width="6.6" height="6.6"/>
	<rect x="106.6" y="224.7" class="st1" width="6.6" height="6.6"/>
	<rect x="100" y="349.7" class="st5" width="6.6" height="6.6"/>
	<rect x="100" y="343.1" class="st5" width="6.6" height="6.6"/>
	<rect x="100" y="336.5" class="st6" width="6.6" height="6.6"/>
	<rect x="100" y="329.9" class="st5" width="6.6" height="6.6"/>
	<rect x="100" y="323.4" class="st5" width="6.6" height="6.6"/>
	<rect x="100" y="316.8" class="st2" width="6.6" height="6.6"/>
	<rect x="100" y="310.2" class="st2" width="6.6" height="6.6"/>
	<rect x="100" y="303.6" class="st4" width="6.6" height="6.6"/>
	<rect x="100" y="297" class="st4" width="6.6" height="6.6"/>
	<rect x="100" y="290.5" class="st4" width="6.6" height="6.6"/>
	<rect x="100" y="283.9" class="st4" width="6.6" height="6.6"/>
	<rect x="100" y="277.3" class="st3" width="6.6" height="6.6"/>
	<rect x="100" y="270.7" class="st3" width="6.6" height="6.6"/>
	<rect x="100" y="264.2" class="st4" width="6.6" height="6.6"/>
	<rect x="100" y="257.6" class="st1" width="6.6" height="6.6"/>
	<rect x="100" y="251" class="st1" width="6.6" height="6.6"/>
	<rect x="100" y="244.4" class="st1" width="6.6" height="6.6"/>
	<rect x="100" y="237.8" class="st1" width="6.6" height="6.6"/>
	<rect x="100" y="231.3" class="st1" width="6.6" height="6.6"/>
	<rect x="100" y="224.7" class="st1" width="6.6" height="6.6"/>
	<rect x="93.5" y="349.7" class="st5" width="6.6" height="6.6"/>
	<rect x="93.5" y="343.1" class="st5" width="6.6" height="6.6"/>
	<rect x="93.5" y="336.5" class="st6" width="6.6" height="6.6"/>
	<rect x="93.5" y="329.9" class="st5" width="6.6" height="6.6"/>
	<rect x="93.5" y="323.4" class="st5" width="6.6" height="6.6"/>
	<rect x="93.5" y="316.8" class="st5" width="6.6" height="6.6"/>
	<rect x="93.5" y="310.2" class="st2" width="6.6" height="6.6"/>
	<rect x="93.5" y="303.6" class="st4" width="6.6" height="6.6"/>
	<rect x="93.5" y="297" class="st4" width="6.6" height="6.6"/>
	<rect x="93.5" y="290.5" class="st4" width="6.6" height="6.6"/>
	<rect x="93.5" y="283.9" class="st4" width="6.6" height="6.6"/>
	<rect x="93.5" y="277.3" class="st4" width="6.6" height="6.6"/>
	<rect x="93.5" y="270.7" class="st4" width="6.6" height="6.6"/>
	<rect x="93.5" y="264.2" class="st1" width="6.6" height="6.6"/>
	<rect x="93.5" y="257.6" class="st1" width="6.6" height="6.6"/>
	<rect x="93.5" y="251" class="st1" width="6.6" height="6.6"/>
	<rect x="93.5" y="244.4" class="st1" width="6.6" height="6.6"/>
	<rect x="93.5" y="237.8" class="st1" width="6.6" height="6.6"/>
	<rect x="93.5" y="231.3" class="st7" width="6.6" height="6.6"/>
	<rect x="93.5" y="224.7" class="st1" width="6.6" height="6.6"/>
	<rect x="86.9" y="362.8" class="st3" width="6.6" height="6.6"/>
	<rect x="86.9" y="356.3" class="st4" width="6.6" height="6.6"/>
	<rect x="86.9" y="349.7" class="st5" width="6.6" height="6.6"/>
	<rect x="86.9" y="343.1" class="st5" width="6.6" height="6.6"/>
	<rect x="86.9" y="336.5" class="st6" width="6.6" height="6.6"/>
	<rect x="86.9" y="329.9" class="st4" width="6.6" height="6.6"/>
	<rect x="86.9" y="323.4" class="st8" width="6.6" height="6.6"/>
	<rect x="86.9" y="316.8" class="st8" width="6.6" height="6.6"/>
	<rect x="86.9" y="310.2" class="st8" width="6.6" height="6.6"/>
	<rect x="86.9" y="303.6" class="st4" width="6.6" height="6.6"/>
	<rect x="86.9" y="297" class="st4" width="6.6" height="6.6"/>
	<rect x="86.9" y="290.5" class="st4" width="6.6" height="6.6"/>
	<rect x="86.9" y="283.9" class="st4" width="6.6" height="6.6"/>
	<rect x="86.9" y="277.3" class="st4" width="6.6" height="6.6"/>
	<rect x="86.9" y="270.7" class="st1" width="6.6" height="6.6"/>
	<rect x="86.9" y="264.2" class="st1" width="6.6" height="6.6"/>
	<rect x="86.9" y="257.6" class="st1" width="6.6" height="6.6"/>
	<rect x="86.9" y="251" class="st1" width="6.6" height="6.6"/>
	<rect x="86.9" y="244.4" class="st1" width="6.6" height="6.6"/>
	<rect x="86.9" y="237.8" class="st1" width="6.6" height="6.6"/>
	<rect x="86.9" y="231.3" class="st7" width="6.6" height="6.6"/>
	<rect x="86.9" y="224.7" class="st1" width="6.6" height="6.6"/>
	<rect x="80.3" y="362.8" class="st3" width="6.6" height="6.6"/>
	<rect x="80.3" y="356.3" class="st4" width="6.6" height="6.6"/>
	<rect x="80.3" y="349.7" class="st5" width="6.6" height="6.6"/>
	<rect x="80.3" y="343.1" class="st5" width="6.6" height="6.6"/>
	<rect x="80.3" y="336.5" class="st4" width="6.6" height="6.6"/>
	<rect x="80.3" y="329.9" class="st4" width="6.6" height="6.6"/>
	<rect x="80.3" y="323.4" class="st5" width="6.6" height="6.6"/>
	<rect x="80.3" y="316.8" class="st5" width="6.6" height="6.6"/>
	<rect x="80.3" y="310.2" class="st5" width="6.6" height="6.6"/>
	<rect x="80.3" y="303.6" class="st1" width="6.6" height="6.6"/>
	<rect x="80.3" y="297" class="st1" width="6.6" height="6.6"/>
	<rect x="80.3" y="290.5" class="st1" width="6.6" height="6.6"/>
	<rect x="80.3" y="283.9" class="st1" width="6.6" height="6.6"/>
	<rect x="80.3" y="277.3" class="st1" width="6.6" height="6.6"/>
	<rect x="80.3" y="270.7" class="st1" width="6.6" height="6.6"/>
	<rect x="80.3" y="264.2" class="st1" width="6.6" height="6.6"/>
	<rect x="80.3" y="257.6" class="st1" width="6.6" height="6.6"/>
	<rect x="80.3" y="251" class="st1" width="6.6" height="6.6"/>
	<rect x="80.3" y="244.4" class="st1" width="6.6" height="6.6"/>
	<rect x="80.3" y="237.8" class="st7" width="6.6" height="6.6"/>
	<rect x="80.3" y="231.3" class="st1" width="6.6" height="6.6"/>
	<rect x="80.3" y="224.7" class="st1" width="6.6" height="6.6"/>
	<rect x="73.7" y="362.8" class="st3" width="6.6" height="6.6"/>
	<rect x="73.7" y="356.3" class="st4" width="6.6" height="6.6"/>
	<rect x="73.7" y="349.7" class="st5" width="6.6" height="6.6"/>
	<rect x="73.7" y="343.1" class="st5" width="6.6" height="6.6"/>
	<rect x="73.7" y="336.5" class="st4" width="6.6" height="6.6"/>
	<rect x="73.7" y="329.9" class="st4" width="6.6" height="6.6"/>
	<rect x="73.7" y="323.4" class="st5" width="6.6" height="6.6"/>
	<rect x="73.7" y="316.8" class="st5" width="6.6" height="6.6"/>
	<rect x="73.7" y="310.2" class="st5" width="6.6" height="6.6"/>
	<rect x="73.7" y="303.6" class="st5" width="6.6" height="6.6"/>
	<rect x="73.7" y="297" class="st4" width="6.6" height="6.6"/>
	<rect x="73.7" y="290.5" class="st4" width="6.6" height="6.6"/>
	<rect x="73.7" y="283.9" class="st4" width="6.6" height="6.6"/>
	<rect x="73.7" y="277.3" class="st4" width="6.6" height="6.6"/>
	<rect x="73.7" y="270.7" class="st1" width="6.6" height="6.6"/>
	<rect x="73.7" y="264.2" class="st1" width="6.6" height="6.6"/>
	<rect x="73.7" y="257.6" class="st1" width="6.6" height="6.6"/>
	<rect x="73.7" y="251" class="st1" width="6.6" height="6.6"/>
	<rect x="73.7" y="244.4" class="st1" width="6.6" height="6.6"/>
	<rect x="73.7" y="237.8" class="st1" width="6.6" height="6.6"/>
	<rect x="73.7" y="231.3" class="st1" width="6.6" height="6.6"/>
	<rect x="73.7" y="224.7" class="st1" width="6.6" height="6.6"/>
	<rect x="67.1" y="349.7" class="st5" width="6.6" height="6.6"/>
	<rect x="67.1" y="343.1" class="st5" width="6.6" height="6.6"/>
	<rect x="67.1" y="336.5" class="st6" width="6.6" height="6.6"/>
	<rect x="67.1" y="329.9" class="st8" width="6.6" height="6.6"/>
	<rect x="67.1" y="323.4" class="st8" width="6.6" height="6.6"/>
	<rect x="67.1" y="316.8" class="st8" width="6.6" height="6.6"/>
	<rect x="67.1" y="310.2" class="st8" width="6.6" height="6.6"/>
	<rect x="67.1" y="303.6" class="st8" width="6.6" height="6.6"/>
	<rect x="67.1" y="297" class="st1" width="6.6" height="6.6"/>
	<rect x="67.1" y="290.5" class="st4" width="6.6" height="6.6"/>
	<rect x="67.1" y="283.9" class="st4" width="6.6" height="6.6"/>
	<rect x="67.1" y="277.3" class="st4" width="6.6" height="6.6"/>
	<rect x="67.1" y="270.7" class="st1" width="6.6" height="6.6"/>
	<rect x="67.1" y="264.2" class="st2" width="6.6" height="6.6"/>
	<rect x="67.1" y="257.6" class="st2" width="6.6" height="6.6"/>
	<rect x="67.1" y="251" class="st2" width="6.6" height="6.6"/>
	<rect x="67.1" y="244.4" class="st2" width="6.6" height="6.6"/>
	<rect x="67.1" y="237.8" class="st1" width="6.6" height="6.6"/>
	<rect x="67.1" y="231.3" class="st1" width="6.6" height="6.6"/>
	<rect x="60.6" y="329.9" class="st8" width="6.6" height="6.6"/>
	<rect x="60.6" y="323.4" class="st8" width="6.6" height="6.6"/>
	<rect x="60.6" y="316.8" class="st8" width="6.6" height="6.6"/>
	<rect x="60.6" y="310.2" class="st8" width="6.6" height="6.6"/>
	<rect x="60.6" y="303.6" class="st8" width="6.6" height="6.6"/>
	<rect x="60.6" y="297" class="st1" width="6.6" height="6.6"/>
	<rect x="60.6" y="290.5" class="st1" width="6.6" height="6.6"/>
	<rect x="60.6" y="283.9" class="st1" width="6.6" height="6.6"/>
	<rect x="60.6" y="277.3" class="st1" width="6.6" height="6.6"/>
	<rect x="60.6" y="270.7" class="st2" width="6.6" height="6.6"/>
	<rect x="60.6" y="264.2" class="st1" width="6.6" height="6.6"/>
	<rect x="60.6" y="257.6" class="st1" width="6.6" height="6.6"/>
	<rect x="60.6" y="251" class="st1" width="6.6" height="6.6"/>
	<rect x="60.6" y="244.4" class="st1" width="6.6" height="6.6"/>
	<rect x="60.6" y="237.8" class="st2" width="6.6" height="6.6"/>
	<rect x="54" y="329.9" class="st8" width="6.6" height="6.6"/>
	<rect x="54" y="323.4" class="st8" width="6.6" height="6.6"/>
	<rect x="54" y="264.2" class="st1" width="6.6" height="6.6"/>
	<rect x="54" y="257.6" class="st1" width="6.6" height="6.6"/>
	<rect x="54" y="251" class="st1" width="6.6" height="6.6"/>
	<rect x="54" y="244.4" class="st1" width="6.6" height="6.6"/>
	<rect x="47.4" y="257.6" class="st1" width="6.6" height="6.6"/>
	<rect x="47.4" y="251" class="st1" width="6.6" height="6.6"/>
	<rect x="47.4" y="244.4" class="st1" width="6.6" height="6.6"/>
	<rect x="40.8" y="257.6" class="st1" width="6.6" height="6.6"/>
	<rect x="40.8" y="251" class="st1" width="6.6" height="6.6"/>
	<rect x="34.2" y="270.7" class="st1" width="6.6" height="6.6"/>
	<rect x="34.2" y="264.2" class="st1" width="6.6" height="6.6"/>
</g>
</svg>
