<?xml version="1.0" encoding="utf-8"?>
<!-- Generator: Adobe Illustrator 19.2.0, SVG Export Plug-In . SVG Version: 6.00 Build 0)  -->
<svg version="1.1" id="Layer_1" xmlns="http://www.w3.org/2000/svg" xmlns:xlink="http://www.w3.org/1999/xlink" x="0px" y="0px"
	 viewBox="0 0 200 400" style="enable-background:new 0 0 200 400;" xml:space="preserve">
<style type="text/css">
	.st0{fill:none;stroke:#3399CC;stroke-width:5;stroke-miterlimit:10;}
	.st1{fill:#FFCCBC;}
	.st2{fill:#00BCD4;}
	.st3{fill:#424242;}
	.st4{fill:#5D4037;}
	.st5{fill:#263238;}
	.st6{fill:#37474F;}
	.st7{fill:#E91E63;}
	.st8{fill:#4E342E;}
	.st9{fill:#8D6E63;}
</style>
<line class="st0" x1="96.7" y1="6.9" x2="96.7" y2="181.8"/>
<g>
	<rect x="140.5" y="334.6" class="st1" width="6.2" height="6.2"/>
	<rect x="140.5" y="328.3" class="st2" width="6.2" height="6.3"/>
	<rect x="140.5" y="322" class="st2" width="6.2" height="6.3"/>
	<rect x="134.3" y="372.1" class="st3" width="6.3" height="6.2"/>
	<rect x="134.3" y="340.8" class="st1" width="6.3" height="6.3"/>
	<rect x="134.3" y="334.6" class="st1" width="6.3" height="6.2"/>
	<rect x="134.3" y="328.3" class="st1" width="6.3" height="6.3"/>
	<rect x="134.3" y="322" class="st2" width="6.3" height="6.3"/>
	<rect x="134.3" y="315.8" class="st2" width="6.3" height="6.2"/>
	<rect x="134.3" y="309.6" class="st2" width="6.3" height="6.3"/>
	<rect x="134.3" y="228.3" class="st4" width="6.3" height="6.2"/>
	<rect x="128" y="372.1" class="st3" width="6.2" height="6.2"/>
	<rect x="128" y="365.8" class="st5" width="6.2" height="6.3"/>
	<rect x="128" y="359.6" class="st5" width="6.2" height="6.3"/>
	<rect x="128" y="340.8" class="st1" width="6.2" height="6.3"/>
	<rect x="128" y="334.6" class="st1" width="6.2" height="6.2"/>
	<rect x="128" y="328.3" class="st1" width="6.2" height="6.3"/>
	<rect x="128" y="322" class="st2" width="6.2" height="6.3"/>
	<rect x="128" y="315.8" class="st2" width="6.2" height="6.2"/>
	<rect x="128" y="309.6" class="st2" width="6.2" height="6.3"/>
	<rect x="128" y="303.3" class="st2" width="6.2" height="6.3"/>
	<rect x="128" y="297.1" class="st2" width="6.2" height="6.2"/>
	<rect x="128" y="284.6" class="st1" width="6.2" height="6.2"/>
	<rect x="128" y="278.3" class="st1" width="6.2" height="6.3"/>
	<rect x="128" y="272.1" class="st1" width="6.2" height="6.3"/>
	<rect x="128" y="265.8" class="st1" width="6.2" height="6.2"/>
	<rect x="128" y="247.1" class="st4" width="6.2" height="6.2"/>
	<rect x="128" y="240.8" class="st4" width="6.2" height="6.3"/>
	<rect x="128" y="234.5" class="st4" width="6.2" height="6.3"/>
	<rect x="121.8" y="372.1" class="st3" width="6.3" height="6.2"/>
	<rect x="121.8" y="365.8" class="st5" width="6.3" height="6.3"/>
	<rect x="121.8" y="359.6" class="st5" width="6.3" height="6.3"/>
	<rect x="121.8" y="353.3" class="st5" width="6.3" height="6.2"/>
	<rect x="121.8" y="347.1" class="st5" width="6.3" height="6.3"/>
	<rect x="121.8" y="340.8" class="st5" width="6.3" height="6.3"/>
	<rect x="121.8" y="334.6" class="st6" width="6.3" height="6.2"/>
	<rect x="121.8" y="328.3" class="st2" width="6.3" height="6.3"/>
	<rect x="121.8" y="322" class="st2" width="6.3" height="6.3"/>
	<rect x="121.8" y="315.8" class="st2" width="6.3" height="6.2"/>
	<rect x="121.8" y="309.6" class="st2" width="6.3" height="6.3"/>
	<rect x="121.8" y="303.3" class="st2" width="6.3" height="6.3"/>
	<rect x="121.8" y="297.1" class="st2" width="6.3" height="6.2"/>
	<rect x="121.8" y="290.8" class="st1" width="6.3" height="6.3"/>
	<rect x="121.8" y="284.6" class="st1" width="6.3" height="6.2"/>
	<rect x="121.8" y="278.3" class="st1" width="6.3" height="6.3"/>
	<rect x="121.8" y="272.1" class="st1" width="6.3" height="6.3"/>
	<rect x="121.8" y="265.8" class="st1" width="6.3" height="6.2"/>
	<rect x="121.8" y="259.6" class="st1" width="6.3" height="6.3"/>
	<rect x="121.8" y="253.3" class="st1" width="6.3" height="6.3"/>
	<rect x="121.8" y="247.1" class="st4" width="6.3" height="6.2"/>
	<rect x="121.8" y="240.8" class="st4" width="6.3" height="6.3"/>
	<rect x="121.8" y="234.5" class="st4" width="6.3" height="6.3"/>
	<rect x="121.8" y="228.3" class="st4" width="6.3" height="6.2"/>
	<rect x="115.5" y="372.1" class="st3" width="6.3" height="6.2"/>
	<rect x="115.5" y="365.8" class="st5" width="6.3" height="6.3"/>
	<rect x="115.5" y="359.6" class="st5" width="6.3" height="6.3"/>
	<rect x="115.5" y="353.3" class="st5" width="6.3" height="6.2"/>
	<rect x="115.5" y="347.1" class="st5" width="6.3" height="6.3"/>
	<rect x="115.5" y="340.8" class="st5" width="6.3" height="6.3"/>
	<rect x="115.5" y="334.6" class="st6" width="6.3" height="6.2"/>
	<rect x="115.5" y="328.3" class="st2" width="6.3" height="6.3"/>
	<rect x="115.5" y="322" class="st2" width="6.3" height="6.3"/>
	<rect x="115.5" y="315.8" class="st2" width="6.3" height="6.2"/>
	<rect x="115.5" y="309.6" class="st2" width="6.3" height="6.3"/>
	<rect x="115.5" y="303.3" class="st2" width="6.3" height="6.3"/>
	<rect x="115.5" y="297.1" class="st2" width="6.3" height="6.2"/>
	<rect x="115.5" y="290.8" class="st1" width="6.3" height="6.3"/>
	<rect x="115.5" y="284.6" class="st1" width="6.3" height="6.2"/>
	<rect x="115.5" y="278.3" class="st1" width="6.3" height="6.3"/>
	<rect x="115.5" y="272.1" class="st1" width="6.3" height="6.3"/>
	<rect x="115.5" y="265.8" class="st5" width="6.3" height="6.2"/>
	<rect x="115.5" y="259.6" class="st5" width="6.3" height="6.3"/>
	<rect x="115.5" y="253.3" class="st1" width="6.3" height="6.3"/>
	<rect x="115.5" y="247.1" class="st4" width="6.3" height="6.2"/>
	<rect x="115.5" y="240.8" class="st4" width="6.3" height="6.3"/>
	<rect x="115.5" y="234.5" class="st4" width="6.3" height="6.3"/>
	<rect x="115.5" y="228.3" class="st4" width="6.3" height="6.2"/>
	<rect x="115.5" y="222.1" class="st4" width="6.3" height="6.3"/>
	<rect x="109.3" y="372.1" class="st3" width="6.2" height="6.2"/>
	<rect x="109.3" y="365.8" class="st5" width="6.2" height="6.3"/>
	<rect x="109.3" y="359.6" class="st5" width="6.2" height="6.3"/>
	<rect x="109.3" y="353.3" class="st5" width="6.2" height="6.2"/>
	<rect x="109.3" y="347.1" class="st5" width="6.2" height="6.3"/>
	<rect x="109.3" y="340.8" class="st5" width="6.2" height="6.3"/>
	<rect x="109.3" y="334.6" class="st7" width="6.2" height="6.2"/>
	<rect x="109.3" y="328.3" class="st7" width="6.2" height="6.3"/>
	<rect x="109.3" y="322" class="st7" width="6.2" height="6.3"/>
	<rect x="109.3" y="315.8" class="st2" width="6.2" height="6.2"/>
	<rect x="109.3" y="309.6" class="st2" width="6.2" height="6.3"/>
	<rect x="109.3" y="303.3" class="st2" width="6.2" height="6.3"/>
	<rect x="109.3" y="297.1" class="st2" width="6.2" height="6.2"/>
	<rect x="109.3" y="290.8" class="st1" width="6.2" height="6.3"/>
	<rect x="109.3" y="284.6" class="st1" width="6.2" height="6.2"/>
	<rect x="109.3" y="278.3" class="st8" width="6.2" height="6.3"/>
	<rect x="109.3" y="272.1" class="st1" width="6.2" height="6.3"/>
	<rect x="109.3" y="265.8" class="st1" width="6.2" height="6.2"/>
	<rect x="109.3" y="259.6" class="st1" width="6.2" height="6.3"/>
	<rect x="109.3" y="253.3" class="st1" width="6.2" height="6.3"/>
	<rect x="109.3" y="247.1" class="st4" width="6.2" height="6.2"/>
	<rect x="109.3" y="240.8" class="st4" width="6.2" height="6.3"/>
	<rect x="109.3" y="234.5" class="st4" width="6.2" height="6.3"/>
	<rect x="109.3" y="228.3" class="st4" width="6.2" height="6.2"/>
	<rect x="109.3" y="222.1" class="st4" width="6.2" height="6.3"/>
	<rect x="109.3" y="215.8" class="st4" width="6.2" height="6.3"/>
	<rect x="103" y="347.1" class="st5" width="6.3" height="6.3"/>
	<rect x="103" y="340.8" class="st5" width="6.3" height="6.3"/>
	<rect x="103" y="334.6" class="st6" width="6.3" height="6.2"/>
	<rect x="103" y="328.3" class="st7" width="6.3" height="6.3"/>
	<rect x="103" y="322" class="st7" width="6.3" height="6.3"/>
	<rect x="103" y="315.8" class="st7" width="6.3" height="6.2"/>
	<rect x="103" y="309.6" class="st7" width="6.3" height="6.3"/>
	<rect x="103" y="303.3" class="st7" width="6.3" height="6.3"/>
	<rect x="103" y="297.1" class="st7" width="6.3" height="6.2"/>
	<rect x="103" y="290.8" class="st1" width="6.3" height="6.3"/>
	<rect x="103" y="284.6" class="st8" width="6.3" height="6.2"/>
	<rect x="103" y="278.3" class="st8" width="6.3" height="6.3"/>
	<rect x="103" y="272.1" class="st1" width="6.3" height="6.3"/>
	<rect x="103" y="265.8" class="st1" width="6.3" height="6.2"/>
	<rect x="103" y="259.6" class="st1" width="6.3" height="6.3"/>
	<rect x="103" y="253.3" class="st1" width="6.3" height="6.3"/>
	<rect x="103" y="247.1" class="st4" width="6.3" height="6.2"/>
	<rect x="103" y="240.8" class="st4" width="6.3" height="6.3"/>
	<rect x="103" y="234.5" class="st4" width="6.3" height="6.3"/>
	<rect x="103" y="228.3" class="st4" width="6.3" height="6.2"/>
	<rect x="103" y="222.1" class="st4" width="6.3" height="6.3"/>
	<rect x="103" y="215.8" class="st4" width="6.3" height="6.3"/>
	<rect x="96.7" y="353.3" class="st5" width="6.3" height="6.2"/>
	<rect x="96.7" y="347.1" class="st5" width="6.3" height="6.3"/>
	<rect x="96.7" y="340.8" class="st5" width="6.3" height="6.3"/>
	<rect x="96.7" y="334.6" class="st6" width="6.3" height="6.2"/>
	<rect x="96.7" y="328.3" class="st2" width="6.3" height="6.3"/>
	<rect x="96.7" y="322" class="st2" width="6.3" height="6.3"/>
	<rect x="96.7" y="315.8" class="st7" width="6.3" height="6.2"/>
	<rect x="96.7" y="309.6" class="st7" width="6.3" height="6.3"/>
	<rect x="96.7" y="303.3" class="st7" width="6.3" height="6.3"/>
	<rect x="96.7" y="297.1" class="st7" width="6.3" height="6.2"/>
	<rect x="96.7" y="290.8" class="st1" width="6.3" height="6.3"/>
	<rect x="96.7" y="284.6" class="st8" width="6.3" height="6.2"/>
	<rect x="96.7" y="278.3" class="st8" width="6.3" height="6.3"/>
	<rect x="96.7" y="272.1" class="st1" width="6.3" height="6.3"/>
	<rect x="96.7" y="265.8" class="st5" width="6.3" height="6.2"/>
	<rect x="96.7" y="259.6" class="st5" width="6.3" height="6.3"/>
	<rect x="96.7" y="253.3" class="st1" width="6.3" height="6.3"/>
	<rect x="96.7" y="247.1" class="st1" width="6.3" height="6.2"/>
	<rect x="96.7" y="240.8" class="st4" width="6.3" height="6.3"/>
	<rect x="96.7" y="234.5" class="st4" width="6.3" height="6.3"/>
	<rect x="96.7" y="228.3" class="st4" width="6.3" height="6.2"/>
	<rect x="96.7" y="222.1" class="st4" width="6.3" height="6.3"/>
	<rect x="96.7" y="215.8" class="st4" width="6.3" height="6.3"/>
	<rect x="90.5" y="359.6" class="st5" width="6.2" height="6.3"/>
	<rect x="90.5" y="353.3" class="st5" width="6.2" height="6.2"/>
	<rect x="90.5" y="347.1" class="st5" width="6.2" height="6.3"/>
	<rect x="90.5" y="340.8" class="st5" width="6.2" height="6.3"/>
	<rect x="90.5" y="334.6" class="st6" width="6.2" height="6.2"/>
	<rect x="90.5" y="328.3" class="st2" width="6.2" height="6.3"/>
	<rect x="90.5" y="322" class="st2" width="6.2" height="6.3"/>
	<rect x="90.5" y="315.8" class="st2" width="6.2" height="6.2"/>
	<rect x="90.5" y="309.6" class="st2" width="6.2" height="6.3"/>
	<rect x="90.5" y="303.3" class="st2" width="6.2" height="6.3"/>
	<rect x="90.5" y="297.1" class="st2" width="6.2" height="6.2"/>
	<rect x="90.5" y="290.8" class="st1" width="6.2" height="6.3"/>
	<rect x="90.5" y="284.6" class="st1" width="6.2" height="6.2"/>
	<rect x="90.5" y="278.3" class="st1" width="6.2" height="6.3"/>
	<rect x="90.5" y="272.1" class="st1" width="6.2" height="6.3"/>
	<rect x="90.5" y="265.8" class="st1" width="6.2" height="6.2"/>
	<rect x="90.5" y="259.6" class="st1" width="6.2" height="6.3"/>
	<rect x="90.5" y="253.3" class="st1" width="6.2" height="6.3"/>
	<rect x="90.5" y="247.1" class="st1" width="6.2" height="6.2"/>
	<rect x="90.5" y="240.8" class="st1" width="6.2" height="6.3"/>
	<rect x="90.5" y="234.5" class="st4" width="6.2" height="6.3"/>
	<rect x="90.5" y="228.3" class="st4" width="6.2" height="6.2"/>
	<rect x="90.5" y="222.1" class="st4" width="6.2" height="6.3"/>
	<rect x="90.5" y="215.8" class="st4" width="6.2" height="6.3"/>
	<rect x="84.3" y="372.1" class="st3" width="6.3" height="6.2"/>
	<rect x="84.3" y="365.8" class="st5" width="6.3" height="6.3"/>
	<rect x="84.3" y="359.6" class="st5" width="6.3" height="6.3"/>
	<rect x="84.3" y="353.3" class="st5" width="6.3" height="6.2"/>
	<rect x="84.3" y="347.1" class="st5" width="6.3" height="6.3"/>
	<rect x="84.3" y="340.8" class="st5" width="6.3" height="6.3"/>
	<rect x="84.3" y="334.6" class="st6" width="6.3" height="6.2"/>
	<rect x="84.3" y="328.3" class="st2" width="6.3" height="6.3"/>
	<rect x="84.3" y="322" class="st2" width="6.3" height="6.3"/>
	<rect x="84.3" y="315.8" class="st2" width="6.3" height="6.2"/>
	<rect x="84.3" y="309.6" class="st2" width="6.3" height="6.3"/>
	<rect x="84.3" y="303.3" class="st2" width="6.3" height="6.3"/>
	<rect x="84.3" y="297.1" class="st2" width="6.3" height="6.2"/>
	<rect x="84.3" y="290.8" class="st1" width="6.3" height="6.3"/>
	<rect x="84.3" y="284.6" class="st1" width="6.3" height="6.2"/>
	<rect x="84.3" y="278.3" class="st1" width="6.3" height="6.3"/>
	<rect x="84.3" y="272.1" class="st1" width="6.3" height="6.3"/>
	<rect x="84.3" y="265.8" class="st1" width="6.3" height="6.2"/>
	<rect x="84.3" y="259.6" class="st1" width="6.3" height="6.3"/>
	<rect x="84.3" y="253.3" class="st1" width="6.3" height="6.3"/>
	<rect x="84.3" y="247.1" class="st1" width="6.3" height="6.2"/>
	<rect x="84.3" y="240.8" class="st4" width="6.3" height="6.3"/>
	<rect x="84.3" y="234.5" class="st4" width="6.3" height="6.3"/>
	<rect x="84.3" y="228.3" class="st4" width="6.3" height="6.2"/>
	<rect x="84.3" y="222.1" class="st9" width="6.3" height="6.3"/>
	<rect x="84.3" y="215.8" class="st4" width="6.3" height="6.3"/>
	<rect x="78" y="372.1" class="st3" width="6.3" height="6.2"/>
	<rect x="78" y="365.8" class="st5" width="6.3" height="6.3"/>
	<rect x="78" y="359.6" class="st5" width="6.3" height="6.3"/>
	<rect x="78" y="353.3" class="st5" width="6.3" height="6.2"/>
	<rect x="78" y="347.1" class="st5" width="6.3" height="6.3"/>
	<rect x="78" y="340.8" class="st5" width="6.3" height="6.3"/>
	<rect x="78" y="334.6" class="st6" width="6.3" height="6.2"/>
	<rect x="78" y="328.3" class="st2" width="6.3" height="6.3"/>
	<rect x="78" y="322" class="st2" width="6.3" height="6.3"/>
	<rect x="78" y="315.8" class="st2" width="6.3" height="6.2"/>
	<rect x="78" y="309.6" class="st2" width="6.3" height="6.3"/>
	<rect x="78" y="303.3" class="st2" width="6.3" height="6.3"/>
	<rect x="78" y="297.1" class="st2" width="6.3" height="6.2"/>
	<rect x="78" y="290.8" class="st2" width="6.3" height="6.3"/>
	<rect x="78" y="284.6" class="st1" width="6.3" height="6.2"/>
	<rect x="78" y="278.3" class="st1" width="6.3" height="6.3"/>
	<rect x="78" y="272.1" class="st1" width="6.3" height="6.3"/>
	<rect x="78" y="265.8" class="st1" width="6.3" height="6.2"/>
	<rect x="78" y="259.6" class="st4" width="6.3" height="6.3"/>
	<rect x="78" y="253.3" class="st4" width="6.3" height="6.3"/>
	<rect x="78" y="247.1" class="st4" width="6.3" height="6.2"/>
	<rect x="78" y="240.8" class="st4" width="6.3" height="6.3"/>
	<rect x="78" y="234.5" class="st4" width="6.3" height="6.3"/>
	<rect x="78" y="228.3" class="st4" width="6.3" height="6.2"/>
	<rect x="78" y="222.1" class="st9" width="6.3" height="6.3"/>
	<rect x="78" y="215.8" class="st4" width="6.3" height="6.3"/>
	<rect x="71.8" y="372.1" class="st3" width="6.2" height="6.2"/>
	<rect x="71.8" y="365.8" class="st5" width="6.2" height="6.3"/>
	<rect x="71.8" y="359.6" class="st5" width="6.2" height="6.3"/>
	<rect x="71.8" y="353.3" class="st5" width="6.2" height="6.2"/>
	<rect x="71.8" y="347.1" class="st5" width="6.2" height="6.3"/>
	<rect x="71.8" y="340.8" class="st5" width="6.2" height="6.3"/>
	<rect x="71.8" y="334.6" class="st1" width="6.2" height="6.2"/>
	<rect x="71.8" y="328.3" class="st2" width="6.2" height="6.3"/>
	<rect x="71.8" y="322" class="st2" width="6.2" height="6.3"/>
	<rect x="71.8" y="315.8" class="st2" width="6.2" height="6.2"/>
	<rect x="71.8" y="309.6" class="st2" width="6.2" height="6.3"/>
	<rect x="71.8" y="303.3" class="st2" width="6.2" height="6.3"/>
	<rect x="71.8" y="297.1" class="st2" width="6.2" height="6.2"/>
	<rect x="71.8" y="290.8" class="st2" width="6.2" height="6.3"/>
	<rect x="71.8" y="284.6" class="st1" width="6.2" height="6.2"/>
	<rect x="71.8" y="278.3" class="st1" width="6.2" height="6.3"/>
	<rect x="71.8" y="272.1" class="st1" width="6.2" height="6.3"/>
	<rect x="71.8" y="265.8" class="st1" width="6.2" height="6.2"/>
	<rect x="71.8" y="259.6" class="st1" width="6.2" height="6.3"/>
	<rect x="71.8" y="253.3" class="st4" width="6.2" height="6.3"/>
	<rect x="71.8" y="247.1" class="st4" width="6.2" height="6.2"/>
	<rect x="71.8" y="240.8" class="st4" width="6.2" height="6.3"/>
	<rect x="71.8" y="234.5" class="st4" width="6.2" height="6.3"/>
	<rect x="71.8" y="228.3" class="st9" width="6.2" height="6.2"/>
	<rect x="71.8" y="222.1" class="st4" width="6.2" height="6.3"/>
	<rect x="71.8" y="215.8" class="st4" width="6.2" height="6.3"/>
	<rect x="65.5" y="372.1" class="st3" width="6.3" height="6.2"/>
	<rect x="65.5" y="365.8" class="st5" width="6.3" height="6.3"/>
	<rect x="65.5" y="359.6" class="st5" width="6.3" height="6.3"/>
	<rect x="65.5" y="353.3" class="st5" width="6.3" height="6.2"/>
	<rect x="65.5" y="347.1" class="st5" width="6.3" height="6.3"/>
	<rect x="65.5" y="340.8" class="st1" width="6.3" height="6.3"/>
	<rect x="65.5" y="334.6" class="st1" width="6.3" height="6.2"/>
	<rect x="65.5" y="328.3" class="st1" width="6.3" height="6.3"/>
	<rect x="65.5" y="322" class="st2" width="6.3" height="6.3"/>
	<rect x="65.5" y="315.8" class="st2" width="6.3" height="6.2"/>
	<rect x="65.5" y="309.6" class="st2" width="6.3" height="6.3"/>
	<rect x="65.5" y="303.3" class="st2" width="6.3" height="6.3"/>
	<rect x="65.5" y="297.1" class="st2" width="6.3" height="6.2"/>
	<rect x="65.5" y="290.8" class="st2" width="6.3" height="6.3"/>
	<rect x="65.5" y="284.6" class="st4" width="6.3" height="6.2"/>
	<rect x="65.5" y="278.3" class="st1" width="6.3" height="6.3"/>
	<rect x="65.5" y="272.1" class="st1" width="6.3" height="6.3"/>
	<rect x="65.5" y="265.8" class="st1" width="6.3" height="6.2"/>
	<rect x="65.5" y="259.6" class="st1" width="6.3" height="6.3"/>
	<rect x="65.5" y="253.3" class="st4" width="6.3" height="6.3"/>
	<rect x="65.5" y="247.1" class="st4" width="6.3" height="6.2"/>
	<rect x="65.5" y="240.8" class="st4" width="6.3" height="6.3"/>
	<rect x="65.5" y="234.5" class="st9" width="6.3" height="6.3"/>
	<rect x="65.5" y="228.3" class="st4" width="6.3" height="6.2"/>
	<rect x="65.5" y="222.1" class="st4" width="6.3" height="6.3"/>
	<rect x="59.2" y="340.8" class="st1" width="6.3" height="6.3"/>
	<rect x="59.2" y="334.6" class="st1" width="6.3" height="6.2"/>
	<rect x="59.2" y="328.3" class="st1" width="6.3" height="6.3"/>
	<rect x="59.2" y="322" class="st2" width="6.3" height="6.3"/>
	<rect x="59.2" y="315.8" class="st2" width="6.3" height="6.2"/>
	<rect x="59.2" y="309.6" class="st2" width="6.3" height="6.3"/>
	<rect x="59.2" y="303.3" class="st2" width="6.3" height="6.3"/>
	<rect x="59.2" y="297.1" class="st2" width="6.3" height="6.2"/>
	<rect x="59.2" y="278.3" class="st4" width="6.3" height="6.3"/>
	<rect x="59.2" y="272.1" class="st4" width="6.3" height="6.3"/>
	<rect x="59.2" y="265.8" class="st4" width="6.3" height="6.2"/>
	<rect x="59.2" y="259.6" class="st4" width="6.3" height="6.3"/>
	<rect x="59.2" y="253.3" class="st4" width="6.3" height="6.3"/>
	<rect x="59.2" y="247.1" class="st4" width="6.3" height="6.2"/>
	<rect x="59.2" y="240.8" class="st4" width="6.3" height="6.3"/>
	<rect x="59.2" y="234.5" class="st4" width="6.3" height="6.3"/>
	<rect x="59.2" y="228.3" class="st4" width="6.3" height="6.2"/>
	<rect x="53" y="340.8" class="st1" width="6.2" height="6.3"/>
	<rect x="53" y="334.6" class="st1" width="6.2" height="6.2"/>
	<rect x="53" y="328.3" class="st1" width="6.2" height="6.3"/>
	<rect x="53" y="322" class="st2" width="6.2" height="6.3"/>
	<rect x="53" y="315.8" class="st2" width="6.2" height="6.2"/>
	<rect x="53" y="309.6" class="st2" width="6.2" height="6.3"/>
	<rect x="53" y="303.3" class="st2" width="6.2" height="6.3"/>
	<rect x="53" y="272.1" class="st4" width="6.2" height="6.3"/>
	<rect x="53" y="265.8" class="st4" width="6.2" height="6.2"/>
	<rect x="53" y="259.6" class="st4" width="6.2" height="6.3"/>
	<rect x="53" y="253.3" class="st4" width="6.2" height="6.3"/>
	<rect x="53" y="247.1" class="st4" width="6.2" height="6.2"/>
	<rect x="53" y="240.8" class="st4" width="6.2" height="6.3"/>
	<rect x="46.8" y="334.6" class="st1" width="6.3" height="6.2"/>
	<rect x="46.8" y="328.3" class="st2" width="6.3" height="6.3"/>
	<rect x="46.8" y="322" class="st2" width="6.3" height="6.3"/>
	<rect x="46.8" y="315.8" class="st2" width="6.3" height="6.2"/>
	<rect x="46.8" y="309.6" class="st2" width="6.3" height="6.3"/>
</g>
</svg>
