<?xml version="1.0" encoding="utf-8"?>
<!-- Generator: Adobe Illustrator 19.2.0, SVG Export Plug-In . SVG Version: 6.00 Build 0)  -->
<svg version="1.1" id="Layer_1" xmlns="http://www.w3.org/2000/svg" xmlns:xlink="http://www.w3.org/1999/xlink" x="0px" y="0px"
	 viewBox="0 0 1024 768" style="enable-background:new 0 0 1024 768;" xml:space="preserve">
<style type="text/css">
	.st0{fill:#DCF0FB;}
	.st1{fill:#336699;}
	.st2{fill:#EFEFEF;}
	.st3{fill:#FFFFFF;}
	.st4{fill:#D2EAF7;}
	.st5{fill:#233267;}
</style>
<rect class="st0" width="1024" height="768"/>
<g>
	<path class="st1" d="M97.4,240.6v4.1h-27v18.1h23.9v4.1H70.5v23.8h-4.8v-50H97.4z"/>
	<path class="st1" d="M125.1,255c2.1,1,3.9,2.4,5.4,4.1c1.4,1.7,2.5,3.7,3.3,6.1c0.7,2.3,1.1,4.8,1.1,7.4s-0.4,5.1-1.1,7.4
		c-0.7,2.3-1.8,4.3-3.3,6.1c-1.4,1.7-3.2,3.1-5.4,4.1c-2.1,1-4.6,1.5-7.3,1.5c-2.8,0-5.2-0.5-7.3-1.5c-2.1-1-3.9-2.4-5.4-4.1
		c-1.4-1.7-2.5-3.7-3.3-6.1c-0.7-2.3-1.1-4.8-1.1-7.4s0.4-5.1,1.1-7.4c0.7-2.3,1.8-4.3,3.3-6.1c1.4-1.7,3.2-3.1,5.4-4.1
		c2.1-1,4.6-1.5,7.3-1.5C120.5,253.4,122.9,253.9,125.1,255z M112.2,258.5c-1.6,0.9-2.9,2.1-4,3.5c-1.1,1.4-1.8,3.1-2.4,4.9
		c-0.5,1.8-0.8,3.7-0.8,5.6c0,1.9,0.3,3.8,0.8,5.6c0.5,1.8,1.3,3.5,2.4,4.9c1,1.4,2.4,2.6,4,3.5c1.6,0.9,3.4,1.3,5.5,1.3
		s3.9-0.4,5.5-1.3c1.6-0.9,2.9-2.1,4-3.5c1.1-1.4,1.8-3.1,2.4-4.9c0.5-1.8,0.8-3.7,0.8-5.6c0-1.9-0.3-3.8-0.8-5.6
		c-0.5-1.8-1.3-3.5-2.4-4.9c-1-1.4-2.4-2.6-4-3.5c-1.6-0.9-3.4-1.3-5.5-1.3S113.8,257.6,112.2,258.5z"/>
	<path class="st1" d="M145.5,254.5v8.5h0.1c1.1-2.9,2.9-5.2,5.2-6.8c2.4-1.6,5.2-2.3,8.4-2.2v4.4c-2-0.1-3.8,0.2-5.5,0.8
		c-1.6,0.6-3,1.5-4.2,2.7c-1.2,1.2-2.1,2.6-2.8,4.2c-0.7,1.6-1,3.4-1,5.3v19.2h-4.4v-36.1H145.5z"/>
	<path class="st1" d="M187.4,240.6v7.1H183v-7.1H187.4z M187.4,254.5v36.1H183v-36.1H187.4z"/>
	<path class="st1" d="M200.2,254.5v6.2h0.1c0.8-2.2,2.3-4,4.5-5.3c2.1-1.3,4.5-2,7.1-2c2.5,0,4.6,0.3,6.3,1c1.7,0.7,3.1,1.6,4.1,2.8
		c1,1.2,1.8,2.6,2.2,4.4s0.6,3.7,0.6,5.8v23.2h-4.4V268c0-1.5-0.1-3-0.4-4.3c-0.3-1.3-0.8-2.5-1.5-3.5c-0.7-1-1.6-1.8-2.8-2.3
		c-1.2-0.6-2.7-0.8-4.4-0.8c-1.8,0-3.3,0.3-4.7,0.9c-1.4,0.6-2.5,1.5-3.5,2.6c-1,1.1-1.7,2.4-2.2,3.9c-0.5,1.5-0.8,3.2-0.9,4.9v21.1
		h-4.4v-36.1H200.2z"/>
	<path class="st1" d="M254.2,261.5c-0.5-1-1.2-1.8-2.1-2.5c-0.9-0.7-1.9-1.1-3-1.4c-1.1-0.3-2.3-0.5-3.6-0.5c-1,0-2,0.1-3,0.3
		c-1,0.2-1.9,0.6-2.8,1c-0.8,0.5-1.5,1.1-2,1.9c-0.5,0.8-0.8,1.8-0.8,2.9c0,1,0.2,1.8,0.7,2.5c0.5,0.7,1.1,1.2,1.9,1.7
		c0.7,0.5,1.6,0.9,2.4,1.2c0.9,0.3,1.7,0.5,2.5,0.7l5.9,1.3c1.3,0.2,2.5,0.5,3.7,1c1.2,0.5,2.3,1.1,3.3,1.9c1,0.8,1.7,1.8,2.3,2.9
		c0.6,1.2,0.9,2.5,0.9,4.1c0,2-0.4,3.6-1.3,5c-0.9,1.4-2,2.5-3.4,3.4c-1.4,0.9-2.9,1.5-4.7,1.9c-1.7,0.4-3.4,0.6-5.1,0.6
		c-4.2,0-7.7-1-10.3-3c-2.6-2-4.1-5.2-4.5-9.7h4.4c0.2,3,1.3,5.2,3.3,6.8c2,1.5,4.4,2.3,7.4,2.3c1.1,0,2.2-0.1,3.3-0.3
		c1.1-0.2,2.2-0.6,3.2-1.2c1-0.6,1.8-1.3,2.4-2.1c0.6-0.9,0.9-1.9,0.9-3.2c0-1.1-0.2-2-0.7-2.7c-0.4-0.7-1-1.3-1.8-1.8
		c-0.7-0.5-1.6-0.9-2.6-1.2c-1-0.3-1.9-0.6-2.9-0.8l-5.7-1.3c-1.4-0.4-2.8-0.8-4-1.3c-1.2-0.5-2.3-1.1-3.2-1.8s-1.6-1.6-2.1-2.7
		c-0.5-1-0.8-2.3-0.8-3.9c0-1.8,0.4-3.4,1.2-4.7c0.8-1.3,1.9-2.4,3.2-3.2c1.3-0.8,2.8-1.4,4.4-1.8c1.6-0.4,3.2-0.6,4.8-0.6
		c1.8,0,3.5,0.2,5.1,0.7c1.6,0.5,2.9,1.2,4.1,2.2c1.2,1,2.1,2.2,2.8,3.6c0.7,1.4,1.1,3.2,1.2,5.1h-4.4
		C255,263.7,254.7,262.5,254.2,261.5z"/>
	<path class="st1" d="M281.5,254.5v3.7h-7.3v24.4c0,1.4,0.2,2.6,0.6,3.4c0.4,0.8,1.4,1.3,3,1.4c1.3,0,2.5-0.1,3.8-0.2v3.7
		c-0.7,0-1.3,0-2,0.1c-0.7,0-1.3,0.1-2,0.1c-2.9,0-5-0.6-6.2-1.7c-1.2-1.1-1.7-3.3-1.7-6.3v-24.7h-6.3v-3.7h6.3v-10.8h4.4v10.8
		H281.5z"/>
	<path class="st1" d="M288.7,260.1c0.7-1.5,1.8-2.8,3-3.8c1.3-1,2.8-1.7,4.5-2.2c1.7-0.5,3.6-0.7,5.7-0.7c1.6,0,3.2,0.2,4.8,0.5
		c1.6,0.3,3,0.9,4.3,1.7c1.3,0.8,2.3,2,3.1,3.5c0.8,1.5,1.2,3.5,1.2,5.9v19.2c0,1.8,0.9,2.7,2.6,2.7c0.5,0,1-0.1,1.4-0.3v3.7
		c-0.5,0.1-1,0.2-1.4,0.2c-0.4,0-0.9,0.1-1.5,0.1c-1.1,0-2-0.2-2.7-0.5c-0.7-0.3-1.2-0.7-1.6-1.3c-0.4-0.6-0.6-1.2-0.7-2
		c-0.1-0.8-0.2-1.6-0.2-2.6h-0.1c-0.8,1.2-1.6,2.2-2.4,3.1c-0.8,0.9-1.7,1.7-2.7,2.3c-1,0.6-2.1,1.1-3.4,1.4
		c-1.3,0.3-2.8,0.5-4.6,0.5c-1.7,0-3.3-0.2-4.7-0.6c-1.5-0.4-2.8-1-3.9-1.9c-1.1-0.9-2-2-2.6-3.3s-0.9-2.9-0.9-4.7
		c0-2.5,0.6-4.5,1.7-5.9s2.6-2.5,4.4-3.3c1.8-0.7,3.9-1.3,6.2-1.6c2.3-0.3,4.7-0.6,7-0.9c0.9-0.1,1.8-0.2,2.5-0.4
		c0.7-0.1,1.3-0.4,1.8-0.7c0.5-0.4,0.8-0.8,1.1-1.4c0.3-0.6,0.4-1.4,0.4-2.4c0-1.5-0.2-2.7-0.7-3.7c-0.5-1-1.2-1.7-2-2.3
		c-0.9-0.6-1.9-0.9-3-1.2c-1.1-0.2-2.4-0.3-3.7-0.3c-2.8,0-5.1,0.7-6.9,2c-1.8,1.3-2.7,3.5-2.8,6.4h-4.4
		C287.6,263.4,288,261.6,288.7,260.1z M310.8,270.8c-0.3,0.5-0.8,0.9-1.6,1.1c-0.8,0.2-1.5,0.4-2.1,0.5c-1.9,0.3-3.8,0.6-5.8,0.9
		c-2,0.3-3.8,0.6-5.4,1.2c-1.6,0.5-3,1.2-4,2.2c-1.1,1-1.6,2.3-1.6,4.1c0,1.1,0.2,2.1,0.7,3c0.4,0.9,1,1.6,1.8,2.2
		c0.7,0.6,1.6,1.1,2.6,1.4c1,0.3,2,0.5,3,0.5c1.7,0,3.3-0.3,4.8-0.8c1.5-0.5,2.9-1.3,4-2.2c1.1-1,2.1-2.2,2.7-3.6c0.7-1.4,1-3,1-4.8
		v-5.7H310.8z"/>
	<path class="st1" d="M328.5,254.5v6.2h0.1c0.8-2.2,2.3-4,4.5-5.3c2.1-1.3,4.5-2,7.1-2c2.5,0,4.6,0.3,6.3,1c1.7,0.7,3.1,1.6,4.1,2.8
		c1,1.2,1.8,2.6,2.2,4.4s0.6,3.7,0.6,5.8v23.2H349V268c0-1.5-0.1-3-0.4-4.3c-0.3-1.3-0.8-2.5-1.5-3.5c-0.7-1-1.6-1.8-2.8-2.3
		c-1.2-0.6-2.7-0.8-4.4-0.8c-1.8,0-3.3,0.3-4.7,0.9c-1.4,0.6-2.5,1.5-3.5,2.6c-1,1.1-1.7,2.4-2.2,3.9c-0.5,1.5-0.8,3.2-0.9,4.9v21.1
		h-4.4v-36.1H328.5z"/>
	<path class="st1" d="M383.9,259.4c-1.6-1.5-3.9-2.3-6.9-2.3c-2.1,0-3.9,0.4-5.5,1.3c-1.6,0.9-2.9,2.1-4,3.5
		c-1.1,1.4-1.8,3.1-2.4,4.9c-0.5,1.8-0.8,3.7-0.8,5.6c0,1.9,0.3,3.8,0.8,5.6c0.5,1.8,1.3,3.5,2.4,4.9c1,1.4,2.4,2.6,4,3.5
		c1.6,0.9,3.4,1.3,5.5,1.3c1.4,0,2.6-0.3,3.9-0.8c1.2-0.5,2.3-1.2,3.2-2.1c0.9-0.9,1.7-2,2.3-3.3c0.6-1.3,1-2.6,1.1-4.1h4.4
		c-0.6,4.4-2.2,7.8-4.8,10.3c-2.6,2.5-6,3.7-10.1,3.7c-2.8,0-5.2-0.5-7.3-1.5c-2.1-1-3.9-2.4-5.4-4.1c-1.4-1.7-2.5-3.7-3.3-6.1
		c-0.7-2.3-1.1-4.8-1.1-7.4s0.4-5.1,1.1-7.4c0.7-2.3,1.8-4.3,3.3-6.1c1.4-1.7,3.2-3.1,5.4-4.1c2.1-1,4.6-1.5,7.3-1.5
		c3.9,0,7.2,1,9.8,3.1c2.7,2.1,4.3,5.2,4.8,9.3h-4.4C386.6,263.1,385.5,261,383.9,259.4z"/>
	<path class="st1" d="M401.3,278.6c0.4,1.7,1.2,3.2,2.1,4.6s2.2,2.5,3.7,3.4c1.5,0.9,3.3,1.3,5.4,1.3c3.2,0,5.7-0.8,7.6-2.5
		c1.8-1.7,3.1-3.9,3.8-6.7h4.4c-0.9,4.1-2.6,7.3-5.1,9.5c-2.5,2.2-6,3.4-10.6,3.4c-2.8,0-5.3-0.5-7.4-1.5c-2.1-1-3.8-2.4-5.1-4.1
		c-1.3-1.8-2.3-3.8-2.9-6.1c-0.6-2.3-0.9-4.7-0.9-7.3c0-2.4,0.3-4.7,0.9-7c0.6-2.3,1.6-4.3,2.9-6.1c1.3-1.8,3-3.2,5.1-4.3
		c2.1-1.1,4.5-1.6,7.4-1.6c2.9,0,5.4,0.6,7.4,1.8c2.1,1.2,3.7,2.7,5,4.6c1.3,1.9,2.2,4.1,2.8,6.5s0.8,4.9,0.7,7.5h-27.8
		C400.7,275.3,400.9,276.9,401.3,278.6z M423.2,265.2c-0.5-1.5-1.3-2.9-2.3-4.1c-1-1.2-2.2-2.1-3.6-2.9c-1.4-0.7-3-1.1-4.8-1.1
		c-1.8,0-3.4,0.4-4.8,1.1c-1.4,0.7-2.6,1.7-3.6,2.9c-1,1.2-1.8,2.6-2.3,4.1c-0.6,1.6-1,3.2-1.2,4.8h23.4
		C424,268.3,423.7,266.7,423.2,265.2z"/>
	<path class="st1" d="M442.9,290.6c0,1-0.1,2-0.4,3c-0.3,1-0.6,1.9-1.2,2.8c-0.5,0.9-1.2,1.6-1.9,2.3c-0.8,0.7-1.7,1.1-2.7,1.4v-3
		c0.6-0.2,1.1-0.5,1.5-1c0.4-0.5,0.8-1.1,1-1.7c0.3-0.6,0.5-1.3,0.6-2c0.1-0.7,0.2-1.3,0.1-1.8H437v-7.4h5.9V290.6z"/>
	<path class="st1" d="M474.4,254.5l9.2,30.9h0.1l8.8-30.9h5l8.8,30.9h0.1l9.2-30.9h4.7l-11.6,36.1H504l-8.9-30.4H495l-8.8,30.4h-4.8
		l-11.6-36.1H474.4z"/>
	<path class="st1" d="M529.5,240.6v20.1h0.1c0.8-2.2,2.3-4,4.5-5.3c2.1-1.3,4.5-2,7.1-2c2.5,0,4.6,0.3,6.3,1
		c1.7,0.7,3.1,1.6,4.1,2.8c1,1.2,1.8,2.6,2.2,4.4s0.6,3.7,0.6,5.8v23.2h-4.4V268c0-1.5-0.1-3-0.4-4.3s-0.8-2.5-1.5-3.5
		c-0.7-1-1.6-1.8-2.8-2.3c-1.2-0.6-2.7-0.8-4.4-0.8c-1.8,0-3.3,0.3-4.7,0.9c-1.4,0.6-2.5,1.5-3.5,2.6c-1,1.1-1.7,2.4-2.2,3.9
		c-0.5,1.5-0.8,3.2-0.9,4.9v21.1h-4.4v-50H529.5z"/>
	<path class="st1" d="M566,278.6c0.4,1.7,1.2,3.2,2.1,4.6c1,1.4,2.2,2.5,3.7,3.4c1.5,0.9,3.3,1.3,5.4,1.3c3.2,0,5.7-0.8,7.6-2.5
		c1.8-1.7,3.1-3.9,3.8-6.7h4.4c-0.9,4.1-2.6,7.3-5.1,9.5c-2.5,2.2-6,3.4-10.6,3.4c-2.8,0-5.3-0.5-7.4-1.5c-2.1-1-3.8-2.4-5.1-4.1
		c-1.3-1.8-2.3-3.8-2.9-6.1c-0.6-2.3-0.9-4.7-0.9-7.3c0-2.4,0.3-4.7,0.9-7s1.6-4.3,2.9-6.1c1.3-1.8,3-3.2,5.1-4.3
		c2.1-1.1,4.5-1.6,7.4-1.6c2.9,0,5.4,0.6,7.4,1.8c2.1,1.2,3.7,2.7,5,4.6c1.3,1.9,2.2,4.1,2.8,6.5c0.6,2.5,0.8,4.9,0.7,7.5h-27.8
		C565.4,275.3,565.6,276.9,566,278.6z M587.9,265.2c-0.5-1.5-1.3-2.9-2.3-4.1c-1-1.2-2.2-2.1-3.6-2.9c-1.4-0.7-3-1.1-4.8-1.1
		c-1.8,0-3.4,0.4-4.8,1.1c-1.4,0.7-2.6,1.7-3.6,2.9c-1,1.2-1.8,2.6-2.3,4.1c-0.6,1.6-1,3.2-1.2,4.8h23.4
		C588.7,268.3,588.4,266.7,587.9,265.2z"/>
	<path class="st1" d="M603.5,254.5v6.2h0.1c0.8-2.2,2.3-4,4.5-5.3c2.1-1.3,4.5-2,7.1-2c2.5,0,4.6,0.3,6.3,1c1.7,0.7,3.1,1.6,4.1,2.8
		c1,1.2,1.8,2.6,2.2,4.4s0.6,3.7,0.6,5.8v23.2H624V268c0-1.5-0.1-3-0.4-4.3s-0.8-2.5-1.5-3.5c-0.7-1-1.6-1.8-2.8-2.3
		c-1.2-0.6-2.7-0.8-4.4-0.8c-1.8,0-3.3,0.3-4.7,0.9c-1.4,0.6-2.5,1.5-3.5,2.6c-1,1.1-1.7,2.4-2.2,3.9c-0.5,1.5-0.8,3.2-0.9,4.9v21.1
		h-4.4v-36.1H603.5z"/>
	<path class="st1" d="M656.8,254.5l11.9,30.8l11.1-30.8h4.4L668.6,296c-0.7,1.5-1.3,2.8-1.8,3.8c-0.6,1-1.2,1.8-1.9,2.4
		c-0.7,0.6-1.5,1-2.4,1.3c-0.9,0.3-2.1,0.4-3.5,0.4c-0.9,0-1.6-0.1-2.1-0.1c-0.5,0-0.9-0.1-1.3-0.2v-3.7c0.5,0.1,1,0.2,1.5,0.2
		c0.5,0.1,1,0.1,1.5,0.1c1,0,1.8-0.1,2.4-0.4s1.2-0.7,1.6-1.2c0.5-0.5,0.9-1.1,1.2-1.8c0.3-0.7,0.7-1.5,1-2.3l1.5-4.1l-14.4-36
		H656.8z"/>
	<path class="st1" d="M711.2,255c2.1,1,3.9,2.4,5.4,4.1c1.4,1.7,2.5,3.7,3.3,6.1c0.7,2.3,1.1,4.8,1.1,7.4s-0.4,5.1-1.1,7.4
		c-0.7,2.3-1.8,4.3-3.3,6.1c-1.4,1.7-3.2,3.1-5.4,4.1c-2.1,1-4.6,1.5-7.3,1.5c-2.8,0-5.2-0.5-7.3-1.5c-2.1-1-3.9-2.4-5.4-4.1
		c-1.4-1.7-2.5-3.7-3.3-6.1c-0.7-2.3-1.1-4.8-1.1-7.4s0.4-5.1,1.1-7.4c0.7-2.3,1.8-4.3,3.3-6.1c1.4-1.7,3.2-3.1,5.4-4.1
		c2.1-1,4.6-1.5,7.3-1.5C706.6,253.4,709,253.9,711.2,255z M698.3,258.5c-1.6,0.9-2.9,2.1-4,3.5c-1,1.4-1.8,3.1-2.4,4.9
		c-0.5,1.8-0.8,3.7-0.8,5.6c0,1.9,0.3,3.8,0.8,5.6c0.5,1.8,1.3,3.5,2.4,4.9c1.1,1.4,2.4,2.6,4,3.5c1.6,0.9,3.4,1.3,5.5,1.3
		s3.9-0.4,5.5-1.3c1.6-0.9,2.9-2.1,4-3.5c1-1.4,1.8-3.1,2.4-4.9c0.5-1.8,0.8-3.7,0.8-5.6c0-1.9-0.3-3.8-0.8-5.6
		c-0.5-1.8-1.3-3.5-2.4-4.9c-1.1-1.4-2.4-2.6-4-3.5c-1.6-0.9-3.4-1.3-5.5-1.3S699.9,257.6,698.3,258.5z"/>
	<path class="st1" d="M752.7,290.6v-6.5h-0.1c-1.2,2.4-2.9,4.3-5.1,5.6c-2.2,1.3-4.7,1.9-7.4,1.9c-2.3,0-4.2-0.3-5.8-0.9
		s-2.9-1.5-3.9-2.7c-1-1.2-1.7-2.6-2.2-4.3c-0.5-1.7-0.7-3.6-0.7-5.7v-23.5h4.4V278c0.1,3.3,0.9,5.7,2.3,7.4
		c1.4,1.7,3.9,2.5,7.4,2.5c1.9,0,3.5-0.4,4.9-1.2s2.5-1.9,3.4-3.3c0.9-1.4,1.5-2.9,2-4.7s0.6-3.5,0.6-5.4v-19h4.4v36.1H752.7z"/>
	<path class="st1" d="M69.3,324.6v20.7h0.1c0.5-1.3,1.1-2.5,2-3.4c0.9-1,1.9-1.8,3-2.5c1.1-0.7,2.3-1.2,3.6-1.5
		c1.3-0.3,2.6-0.5,3.9-0.5c2.8,0,5.1,0.5,7.2,1.5c2,1,3.7,2.4,5.1,4.2c1.4,1.8,2.4,3.8,3,6.1c0.7,2.3,1,4.7,1,7.3s-0.3,5-1,7.3
		c-0.7,2.3-1.7,4.3-3,6.1c-1.4,1.8-3,3.1-5.1,4.1c-2,1-4.4,1.5-7.2,1.5c-2.9,0-5.6-0.7-7.9-2c-2.3-1.4-4-3.3-5-5.8h-0.1v6.9h-4.1
		v-50H69.3z M93.1,351c-0.4-1.8-1.1-3.5-2.1-4.9c-1-1.4-2.2-2.6-3.7-3.5c-1.5-0.9-3.3-1.4-5.4-1.4c-2.3,0-4.3,0.5-5.9,1.4
		c-1.6,0.9-2.9,2.1-3.9,3.5c-1,1.4-1.7,3.1-2.2,4.9c-0.4,1.8-0.7,3.7-0.7,5.6s0.2,3.7,0.7,5.6c0.4,1.8,1.2,3.5,2.2,4.9
		c1,1.4,2.3,2.6,3.9,3.5c1.6,0.9,3.6,1.4,5.9,1.4c2.1,0,3.9-0.5,5.4-1.4c1.5-0.9,2.7-2.1,3.7-3.5c1-1.4,1.7-3.1,2.1-4.9
		c0.4-1.8,0.7-3.7,0.7-5.6S93.6,352.8,93.1,351z"/>
	<path class="st1" d="M130.3,374.6v-6.5h-0.1c-1.2,2.4-2.9,4.3-5.1,5.6c-2.2,1.3-4.7,1.9-7.4,1.9c-2.3,0-4.2-0.3-5.8-0.9
		s-2.9-1.5-3.9-2.7c-1-1.2-1.7-2.6-2.2-4.3c-0.5-1.7-0.7-3.6-0.7-5.7v-23.5h4.4V362c0.1,3.3,0.9,5.7,2.3,7.4
		c1.4,1.7,3.9,2.5,7.4,2.5c1.9,0,3.5-0.4,4.9-1.2c1.4-0.8,2.5-1.9,3.4-3.3c0.9-1.4,1.5-2.9,2-4.7s0.6-3.5,0.6-5.4v-19h4.4v36.1
		H130.3z"/>
	<path class="st1" d="M143.3,338.5l11.9,30.8l11.1-30.8h4.4L155,380c-0.7,1.5-1.3,2.8-1.8,3.8c-0.6,1-1.2,1.8-1.9,2.4
		c-0.7,0.6-1.5,1-2.4,1.3c-0.9,0.3-2.1,0.4-3.5,0.4c-0.9,0-1.6-0.1-2.1-0.1c-0.5,0-0.9-0.1-1.3-0.2v-3.7c0.5,0.1,1,0.2,1.5,0.2
		c0.5,0.1,1,0.1,1.5,0.1c1,0,1.8-0.1,2.4-0.4c0.6-0.3,1.2-0.7,1.6-1.2c0.5-0.5,0.9-1.1,1.2-1.8c0.3-0.7,0.7-1.5,1-2.3l1.5-4.1
		l-14.4-36H143.3z"/>
	<path class="st1" d="M217.1,339c2.1,1,3.9,2.4,5.4,4.1c1.4,1.7,2.5,3.7,3.3,6.1c0.7,2.3,1.1,4.8,1.1,7.4s-0.4,5.1-1.1,7.4
		c-0.7,2.3-1.8,4.3-3.3,6.1c-1.4,1.7-3.2,3.1-5.4,4.1c-2.1,1-4.6,1.5-7.3,1.5c-2.8,0-5.2-0.5-7.3-1.5c-2.1-1-3.9-2.4-5.4-4.1
		c-1.4-1.7-2.5-3.7-3.3-6.1c-0.7-2.3-1.1-4.8-1.1-7.4s0.4-5.1,1.1-7.4c0.7-2.3,1.8-4.3,3.3-6.1c1.4-1.7,3.2-3.1,5.4-4.1
		c2.1-1,4.6-1.5,7.3-1.5C212.5,337.4,215,337.9,217.1,339z M204.3,342.5c-1.6,0.9-2.9,2.1-4,3.5c-1.1,1.4-1.8,3.1-2.4,4.9
		c-0.5,1.8-0.8,3.7-0.8,5.6c0,1.9,0.3,3.8,0.8,5.6c0.5,1.8,1.3,3.5,2.4,4.9c1,1.4,2.4,2.6,4,3.5c1.6,0.9,3.4,1.3,5.5,1.3
		s3.9-0.4,5.5-1.3c1.6-0.9,2.9-2.1,4-3.5c1.1-1.4,1.8-3.1,2.4-4.9c0.5-1.8,0.8-3.7,0.8-5.6c0-1.9-0.3-3.8-0.8-5.6
		c-0.5-1.8-1.3-3.5-2.4-4.9c-1-1.4-2.4-2.6-4-3.5c-1.6-0.9-3.4-1.3-5.5-1.3S205.8,341.6,204.3,342.5z"/>
	<path class="st1" d="M237.8,338.5v6.2h0.1c0.8-2.2,2.3-4,4.5-5.3c2.1-1.3,4.5-2,7.1-2c2.5,0,4.6,0.3,6.3,1c1.7,0.7,3.1,1.6,4.1,2.8
		c1,1.2,1.8,2.6,2.2,4.4s0.6,3.7,0.6,5.8v23.2h-4.4V352c0-1.5-0.1-3-0.4-4.3c-0.3-1.3-0.8-2.5-1.5-3.5c-0.7-1-1.6-1.8-2.8-2.3
		c-1.2-0.6-2.7-0.8-4.4-0.8c-1.8,0-3.3,0.3-4.7,0.9c-1.4,0.6-2.5,1.5-3.5,2.6c-1,1.1-1.7,2.4-2.2,3.9c-0.5,1.5-0.8,3.2-0.9,4.9v21.1
		h-4.4v-36.1H237.8z"/>
	<path class="st1" d="M274.3,362.6c0.4,1.7,1.2,3.2,2.1,4.6s2.2,2.5,3.7,3.4c1.5,0.9,3.3,1.3,5.4,1.3c3.2,0,5.7-0.8,7.6-2.5
		c1.8-1.7,3.1-3.9,3.8-6.7h4.4c-0.9,4.1-2.6,7.3-5.1,9.5c-2.5,2.2-6,3.4-10.6,3.4c-2.8,0-5.3-0.5-7.4-1.5c-2.1-1-3.8-2.4-5.1-4.1
		c-1.3-1.8-2.3-3.8-2.9-6.1c-0.6-2.3-0.9-4.7-0.9-7.3c0-2.4,0.3-4.7,0.9-7c0.6-2.3,1.6-4.3,2.9-6.1c1.3-1.8,3-3.2,5.1-4.3
		c2.1-1.1,4.5-1.6,7.4-1.6c2.9,0,5.4,0.6,7.4,1.8c2.1,1.2,3.7,2.7,5,4.6c1.3,1.9,2.2,4.1,2.8,6.5s0.8,4.9,0.7,7.5h-27.8
		C273.6,359.3,273.8,360.9,274.3,362.6z M296.1,349.2c-0.5-1.5-1.3-2.9-2.3-4.1c-1-1.2-2.2-2.1-3.6-2.9c-1.4-0.7-3-1.1-4.8-1.1
		c-1.8,0-3.4,0.4-4.8,1.1c-1.4,0.7-2.6,1.7-3.6,2.9c-1,1.2-1.8,2.6-2.3,4.1c-0.6,1.6-1,3.2-1.2,4.8H297
		C297,352.3,296.7,350.7,296.1,349.2z"/>
	<path class="st1" d="M347.6,345.5c-0.5-1-1.2-1.8-2.1-2.5c-0.9-0.7-1.9-1.1-3-1.4c-1.1-0.3-2.3-0.5-3.6-0.5c-1,0-2,0.1-3,0.3
		c-1,0.2-1.9,0.6-2.8,1c-0.8,0.5-1.5,1.1-2,1.9c-0.5,0.8-0.8,1.8-0.8,2.9c0,1,0.2,1.8,0.7,2.5c0.5,0.7,1.1,1.2,1.9,1.7
		c0.7,0.5,1.6,0.9,2.4,1.2c0.9,0.3,1.7,0.5,2.5,0.7l5.9,1.3c1.3,0.2,2.5,0.5,3.7,1c1.2,0.5,2.3,1.1,3.3,1.9c1,0.8,1.7,1.8,2.3,2.9
		c0.6,1.2,0.9,2.5,0.9,4.1c0,2-0.4,3.6-1.3,5c-0.9,1.4-2,2.5-3.4,3.4c-1.4,0.9-2.9,1.5-4.7,1.9c-1.7,0.4-3.4,0.6-5.1,0.6
		c-4.2,0-7.7-1-10.3-3c-2.6-2-4.1-5.2-4.5-9.7h4.4c0.2,3,1.3,5.2,3.3,6.8c2,1.5,4.4,2.3,7.4,2.3c1.1,0,2.2-0.1,3.3-0.3
		c1.1-0.2,2.2-0.6,3.2-1.2c1-0.6,1.8-1.3,2.4-2.1c0.6-0.9,0.9-1.9,0.9-3.2c0-1.1-0.2-2-0.7-2.7c-0.4-0.7-1-1.3-1.8-1.8
		c-0.7-0.5-1.6-0.9-2.6-1.2c-1-0.3-1.9-0.6-2.9-0.8l-5.7-1.3c-1.4-0.4-2.8-0.8-4-1.3c-1.2-0.5-2.3-1.1-3.2-1.8s-1.6-1.6-2.1-2.7
		c-0.5-1-0.8-2.3-0.8-3.9c0-1.8,0.4-3.4,1.2-4.7c0.8-1.3,1.9-2.4,3.2-3.2c1.3-0.8,2.8-1.4,4.4-1.8c1.6-0.4,3.2-0.6,4.8-0.6
		c1.8,0,3.5,0.2,5.1,0.7c1.6,0.5,2.9,1.2,4.1,2.2c1.2,1,2.1,2.2,2.8,3.6c0.7,1.4,1.1,3.2,1.2,5.1h-4.4
		C348.4,347.7,348.1,346.5,347.6,345.5z"/>
	<path class="st1" d="M374.8,338.5v3.7h-7.3v24.4c0,1.4,0.2,2.6,0.6,3.4c0.4,0.8,1.4,1.3,3,1.4c1.3,0,2.5-0.1,3.8-0.2v3.7
		c-0.7,0-1.3,0-2,0.1c-0.7,0-1.3,0.1-2,0.1c-2.9,0-5-0.6-6.2-1.7c-1.2-1.1-1.7-3.3-1.7-6.3v-24.7h-6.3v-3.7h6.3v-10.8h4.4v10.8
		H374.8z"/>
	<path class="st1" d="M403.8,339c2.1,1,3.9,2.4,5.4,4.1c1.4,1.7,2.5,3.7,3.3,6.1c0.7,2.3,1.1,4.8,1.1,7.4s-0.4,5.1-1.1,7.4
		c-0.7,2.3-1.8,4.3-3.3,6.1c-1.4,1.7-3.2,3.1-5.4,4.1c-2.1,1-4.6,1.5-7.3,1.5c-2.8,0-5.2-0.5-7.3-1.5c-2.1-1-3.9-2.4-5.4-4.1
		c-1.4-1.7-2.5-3.7-3.3-6.1c-0.7-2.3-1.1-4.8-1.1-7.4s0.4-5.1,1.1-7.4c0.7-2.3,1.8-4.3,3.3-6.1c1.4-1.7,3.2-3.1,5.4-4.1
		c2.1-1,4.6-1.5,7.3-1.5C399.2,337.4,401.7,337.9,403.8,339z M390.9,342.5c-1.6,0.9-2.9,2.1-4,3.5c-1.1,1.4-1.8,3.1-2.4,4.9
		c-0.5,1.8-0.8,3.7-0.8,5.6c0,1.9,0.3,3.8,0.8,5.6c0.5,1.8,1.3,3.5,2.4,4.9c1,1.4,2.4,2.6,4,3.5c1.6,0.9,3.4,1.3,5.5,1.3
		s3.9-0.4,5.5-1.3c1.6-0.9,2.9-2.1,4-3.5c1.1-1.4,1.8-3.1,2.4-4.9c0.5-1.8,0.8-3.7,0.8-5.6c0-1.9-0.3-3.8-0.8-5.6
		c-0.5-1.8-1.3-3.5-2.4-4.9c-1-1.4-2.4-2.6-4-3.5c-1.6-0.9-3.4-1.3-5.5-1.3S392.5,341.6,390.9,342.5z"/>
	<path class="st1" d="M442.3,343.4c-1.6-1.5-3.9-2.3-6.9-2.3c-2.1,0-3.9,0.4-5.5,1.3c-1.6,0.9-2.9,2.1-4,3.5
		c-1.1,1.4-1.8,3.1-2.4,4.9c-0.5,1.8-0.8,3.7-0.8,5.6c0,1.9,0.3,3.8,0.8,5.6c0.5,1.8,1.3,3.5,2.4,4.9c1,1.4,2.4,2.6,4,3.5
		c1.6,0.9,3.4,1.3,5.5,1.3c1.4,0,2.6-0.3,3.9-0.8c1.2-0.5,2.3-1.2,3.2-2.1c0.9-0.9,1.7-2,2.3-3.3c0.6-1.3,1-2.6,1.1-4.1h4.4
		c-0.6,4.4-2.2,7.8-4.8,10.3c-2.6,2.5-6,3.7-10.1,3.7c-2.8,0-5.2-0.5-7.3-1.5c-2.1-1-3.9-2.4-5.4-4.1c-1.4-1.7-2.5-3.7-3.3-6.1
		c-0.7-2.3-1.1-4.8-1.1-7.4s0.4-5.1,1.1-7.4c0.7-2.3,1.8-4.3,3.3-6.1c1.4-1.7,3.2-3.1,5.4-4.1c2.1-1,4.6-1.5,7.3-1.5
		c3.9,0,7.2,1,9.8,3.1c2.7,2.1,4.3,5.2,4.8,9.3h-4.4C445,347.1,443.9,345,442.3,343.4z"/>
	<path class="st1" d="M460.9,324.6V356l20-17.5h5.9l-15.4,13.4l16.5,22.8h-5.5L468,354.9l-7.1,6v13.7h-4.4v-50H460.9z"/>
	<path class="st1" d="M69.4,408.6v7.1H65v-7.1H69.4z M69.4,422.5v36.1H65v-36.1H69.4z"/>
	<path class="st1" d="M82.2,422.5v6.2h0.1c0.8-2.2,2.3-4,4.5-5.3c2.1-1.3,4.5-2,7.1-2c2.5,0,4.6,0.3,6.3,1c1.7,0.7,3.1,1.6,4.1,2.8
		c1,1.2,1.8,2.6,2.2,4.4s0.6,3.7,0.6,5.8v23.2h-4.4V436c0-1.5-0.1-3-0.4-4.3c-0.3-1.3-0.8-2.5-1.5-3.5c-0.7-1-1.6-1.8-2.8-2.3
		c-1.2-0.6-2.7-0.8-4.4-0.8c-1.8,0-3.3,0.3-4.7,0.9c-1.4,0.6-2.5,1.5-3.5,2.6c-1,1.1-1.7,2.4-2.2,3.9c-0.5,1.5-0.8,3.2-0.9,4.9v21.1
		h-4.4v-36.1H82.2z"/>
	<path class="st1" d="M135.8,428.1c0.7-1.5,1.8-2.8,3-3.8c1.3-1,2.8-1.7,4.5-2.2c1.7-0.5,3.6-0.7,5.7-0.7c1.6,0,3.2,0.2,4.8,0.5
		c1.6,0.3,3,0.9,4.3,1.7c1.3,0.8,2.3,2,3.1,3.5c0.8,1.5,1.2,3.5,1.2,5.9v19.2c0,1.8,0.9,2.7,2.6,2.7c0.5,0,1-0.1,1.4-0.3v3.7
		c-0.5,0.1-1,0.2-1.4,0.2c-0.4,0-0.9,0.1-1.5,0.1c-1.1,0-2-0.2-2.7-0.5c-0.7-0.3-1.2-0.7-1.6-1.3c-0.4-0.6-0.6-1.2-0.7-2
		c-0.1-0.8-0.2-1.6-0.2-2.6h-0.1c-0.8,1.2-1.6,2.2-2.4,3.1c-0.8,0.9-1.7,1.7-2.7,2.3c-1,0.6-2.1,1.1-3.4,1.4
		c-1.3,0.3-2.8,0.5-4.6,0.5c-1.7,0-3.3-0.2-4.7-0.6c-1.5-0.4-2.8-1-3.9-1.9c-1.1-0.9-2-2-2.6-3.3s-0.9-2.9-0.9-4.7
		c0-2.5,0.6-4.5,1.7-5.9s2.6-2.5,4.4-3.3c1.8-0.7,3.9-1.3,6.2-1.6c2.3-0.3,4.7-0.6,7-0.9c0.9-0.1,1.8-0.2,2.5-0.4
		c0.7-0.1,1.3-0.4,1.8-0.7c0.5-0.4,0.8-0.8,1.1-1.4c0.3-0.6,0.4-1.4,0.4-2.4c0-1.5-0.2-2.7-0.7-3.7c-0.5-1-1.2-1.7-2-2.3
		c-0.9-0.6-1.9-0.9-3-1.2c-1.1-0.2-2.4-0.3-3.7-0.3c-2.8,0-5.1,0.7-6.9,2c-1.8,1.3-2.7,3.5-2.8,6.4h-4.4
		C134.6,431.4,135.1,429.6,135.8,428.1z M157.8,438.8c-0.3,0.5-0.8,0.9-1.6,1.1c-0.8,0.2-1.5,0.4-2.1,0.5c-1.9,0.3-3.8,0.6-5.8,0.9
		c-2,0.3-3.8,0.6-5.4,1.2c-1.6,0.5-3,1.2-4,2.2c-1.1,1-1.6,2.3-1.6,4.1c0,1.1,0.2,2.1,0.7,3c0.4,0.9,1,1.6,1.8,2.2
		c0.7,0.6,1.6,1.1,2.6,1.4c1,0.3,2,0.5,3,0.5c1.7,0,3.3-0.3,4.8-0.8c1.5-0.5,2.9-1.3,4-2.2c1.1-1,2.1-2.2,2.7-3.6c0.7-1.4,1-3,1-4.8
		v-5.7H157.8z"/>
	<path class="st1" d="M212.8,427.4c-1.6-1.5-3.9-2.3-6.9-2.3c-2.1,0-3.9,0.4-5.5,1.3c-1.6,0.9-2.9,2.1-4,3.5
		c-1.1,1.4-1.8,3.1-2.4,4.9c-0.5,1.8-0.8,3.7-0.8,5.6c0,1.9,0.3,3.8,0.8,5.6c0.5,1.8,1.3,3.5,2.4,4.9c1,1.4,2.4,2.6,4,3.5
		c1.6,0.9,3.4,1.3,5.5,1.3c1.4,0,2.6-0.3,3.9-0.8c1.2-0.5,2.3-1.2,3.2-2.1c0.9-0.9,1.7-2,2.3-3.3c0.6-1.3,1-2.6,1.1-4.1h4.4
		c-0.6,4.4-2.2,7.8-4.8,10.3c-2.6,2.5-6,3.7-10.1,3.7c-2.8,0-5.2-0.5-7.3-1.5c-2.1-1-3.9-2.4-5.4-4.1c-1.4-1.7-2.5-3.7-3.3-6.1
		c-0.7-2.3-1.1-4.8-1.1-7.4s0.4-5.1,1.1-7.4c0.7-2.3,1.8-4.3,3.3-6.1c1.4-1.7,3.2-3.1,5.4-4.1c2.1-1,4.6-1.5,7.3-1.5
		c3.9,0,7.2,1,9.8,3.1c2.7,2.1,4.3,5.2,4.8,9.3h-4.4C215.5,431.1,214.4,429,212.8,427.4z"/>
	<path class="st1" d="M249.6,423c2.1,1,3.9,2.4,5.4,4.1c1.4,1.7,2.5,3.7,3.3,6.1c0.7,2.3,1.1,4.8,1.1,7.4s-0.4,5.1-1.1,7.4
		c-0.7,2.3-1.8,4.3-3.3,6.1c-1.4,1.7-3.2,3.1-5.4,4.1c-2.1,1-4.6,1.5-7.3,1.5c-2.8,0-5.2-0.5-7.3-1.5c-2.1-1-3.9-2.4-5.4-4.1
		c-1.4-1.7-2.5-3.7-3.3-6.1c-0.7-2.3-1.1-4.8-1.1-7.4s0.4-5.1,1.1-7.4c0.7-2.3,1.8-4.3,3.3-6.1c1.4-1.7,3.2-3.1,5.4-4.1
		c2.1-1,4.6-1.5,7.3-1.5C245,421.4,247.5,421.9,249.6,423z M236.7,426.5c-1.6,0.9-2.9,2.1-4,3.5c-1.1,1.4-1.8,3.1-2.4,4.9
		c-0.5,1.8-0.8,3.7-0.8,5.6c0,1.9,0.3,3.8,0.8,5.6c0.5,1.8,1.3,3.5,2.4,4.9c1,1.4,2.4,2.6,4,3.5c1.6,0.9,3.4,1.3,5.5,1.3
		s3.9-0.4,5.5-1.3c1.6-0.9,2.9-2.1,4-3.5c1.1-1.4,1.8-3.1,2.4-4.9c0.5-1.8,0.8-3.7,0.8-5.6c0-1.9-0.3-3.8-0.8-5.6
		c-0.5-1.8-1.3-3.5-2.4-4.9c-1-1.4-2.4-2.6-4-3.5c-1.6-0.9-3.4-1.3-5.5-1.3S238.3,425.6,236.7,426.5z"/>
	<path class="st1" d="M270,422.5v6.1h0.2c1.2-2.2,2.7-4,4.6-5.2c1.9-1.3,4.3-1.9,7.2-1.9c2.4,0,4.5,0.6,6.5,1.8
		c1.9,1.2,3.2,2.9,3.9,5.3c1.1-2.4,2.7-4.2,4.8-5.3c2.1-1.2,4.3-1.8,6.7-1.8c8,0,12,4.2,12,12.7v24.5h-4.4v-24.3
		c0-3-0.6-5.3-1.9-6.8c-1.3-1.6-3.5-2.3-6.6-2.3c-1.9,0-3.5,0.4-4.8,1.1c-1.3,0.7-2.3,1.7-3,2.9c-0.7,1.2-1.3,2.6-1.6,4.2
		c-0.3,1.6-0.5,3.2-0.5,4.9v20.4h-4.4v-24.5c0-1.2-0.1-2.4-0.4-3.5c-0.3-1.1-0.7-2.1-1.3-2.9c-0.6-0.8-1.4-1.5-2.3-1.9
		c-1-0.5-2.2-0.7-3.6-0.7c-1.9,0-3.5,0.3-4.9,1c-1.4,0.7-2.5,1.6-3.4,2.8c-0.9,1.2-1.5,2.6-1.9,4.2c-0.4,1.6-0.6,3.4-0.6,5.3v20.2
		h-4.4v-36.1H270z"/>
	<path class="st1" d="M328.3,422.5v6.9h0.1c1-2.5,2.7-4.5,5-5.8c2.3-1.4,4.9-2.1,7.9-2.1c2.8,0,5.1,0.5,7.2,1.5c2,1,3.7,2.4,5.1,4.2
		c1.4,1.8,2.4,3.8,3,6.1c0.7,2.3,1,4.7,1,7.3s-0.3,5-1,7.3c-0.7,2.3-1.7,4.3-3,6.1c-1.4,1.8-3,3.1-5.1,4.1c-2,1-4.4,1.5-7.2,1.5
		c-1.3,0-2.6-0.2-3.9-0.5c-1.3-0.3-2.5-0.8-3.6-1.5c-1.1-0.7-2.1-1.5-3-2.4c-0.9-1-1.5-2.1-2-3.4h-0.1v20.2h-4.4v-49.4H328.3z
		 M352.5,435c-0.4-1.8-1.1-3.5-2.1-4.9c-1-1.4-2.2-2.6-3.7-3.5c-1.5-0.9-3.3-1.4-5.4-1.4c-2.4,0-4.5,0.4-6.1,1.3
		c-1.6,0.8-2.9,2-3.9,3.4c-1,1.4-1.7,3-2.1,4.9c-0.4,1.9-0.6,3.8-0.6,5.9c0,1.9,0.2,3.7,0.7,5.6c0.4,1.8,1.2,3.5,2.2,4.9
		c1,1.4,2.3,2.6,3.9,3.5c1.6,0.9,3.6,1.4,5.9,1.4c2.1,0,3.9-0.5,5.4-1.4c1.5-0.9,2.7-2.1,3.7-3.5c1-1.4,1.7-3.1,2.1-4.9
		c0.4-1.8,0.7-3.7,0.7-5.6S352.9,436.8,352.5,435z"/>
	<path class="st1" d="M365.3,428.1c0.7-1.5,1.8-2.8,3-3.8c1.3-1,2.8-1.7,4.5-2.2c1.7-0.5,3.6-0.7,5.7-0.7c1.6,0,3.2,0.2,4.8,0.5
		c1.6,0.3,3,0.9,4.3,1.7c1.3,0.8,2.3,2,3.1,3.5c0.8,1.5,1.2,3.5,1.2,5.9v19.2c0,1.8,0.9,2.7,2.6,2.7c0.5,0,1-0.1,1.4-0.3v3.7
		c-0.5,0.1-1,0.2-1.4,0.2c-0.4,0-0.9,0.1-1.5,0.1c-1.1,0-2-0.2-2.7-0.5c-0.7-0.3-1.2-0.7-1.6-1.3c-0.4-0.6-0.6-1.2-0.7-2
		c-0.1-0.8-0.2-1.6-0.2-2.6h-0.1c-0.8,1.2-1.6,2.2-2.4,3.1c-0.8,0.9-1.7,1.7-2.7,2.3c-1,0.6-2.1,1.1-3.4,1.4
		c-1.3,0.3-2.8,0.5-4.6,0.5c-1.7,0-3.3-0.2-4.7-0.6c-1.5-0.4-2.8-1-3.9-1.9c-1.1-0.9-2-2-2.6-3.3s-0.9-2.9-0.9-4.7
		c0-2.5,0.6-4.5,1.7-5.9s2.6-2.5,4.4-3.3c1.8-0.7,3.9-1.3,6.2-1.6c2.3-0.3,4.7-0.6,7-0.9c0.9-0.1,1.8-0.2,2.5-0.4
		c0.7-0.1,1.3-0.4,1.8-0.7c0.5-0.4,0.8-0.8,1.1-1.4c0.3-0.6,0.4-1.4,0.4-2.4c0-1.5-0.2-2.7-0.7-3.7c-0.5-1-1.2-1.7-2-2.3
		c-0.9-0.6-1.9-0.9-3-1.2c-1.1-0.2-2.4-0.3-3.7-0.3c-2.8,0-5.1,0.7-6.9,2c-1.8,1.3-2.7,3.5-2.8,6.4H364
		C364.1,431.4,364.6,429.6,365.3,428.1z M387.4,438.8c-0.3,0.5-0.8,0.9-1.6,1.1c-0.8,0.2-1.5,0.4-2.1,0.5c-1.9,0.3-3.8,0.6-5.8,0.9
		c-2,0.3-3.8,0.6-5.4,1.2c-1.6,0.5-3,1.2-4,2.2c-1.1,1-1.6,2.3-1.6,4.1c0,1.1,0.2,2.1,0.7,3c0.4,0.9,1,1.6,1.8,2.2
		c0.7,0.6,1.6,1.1,2.6,1.4c1,0.3,2,0.5,3,0.5c1.7,0,3.3-0.3,4.8-0.8c1.5-0.5,2.9-1.3,4-2.2c1.1-1,2.1-2.2,2.7-3.6c0.7-1.4,1-3,1-4.8
		v-5.7H387.4z"/>
	<path class="st1" d="M405.1,422.5v6.2h0.1c0.8-2.2,2.3-4,4.5-5.3c2.1-1.3,4.5-2,7.1-2c2.5,0,4.6,0.3,6.3,1c1.7,0.7,3.1,1.6,4.1,2.8
		c1,1.2,1.8,2.6,2.2,4.4s0.6,3.7,0.6,5.8v23.2h-4.4V436c0-1.5-0.1-3-0.4-4.3c-0.3-1.3-0.8-2.5-1.5-3.5c-0.7-1-1.6-1.8-2.8-2.3
		c-1.2-0.6-2.7-0.8-4.4-0.8c-1.8,0-3.3,0.3-4.7,0.9c-1.4,0.6-2.5,1.5-3.5,2.6c-1,1.1-1.7,2.4-2.2,3.9c-0.5,1.5-0.8,3.2-0.9,4.9v21.1
		h-4.4v-36.1H405.1z"/>
	<path class="st1" d="M439,422.5l11.9,30.8l11.1-30.8h4.4L450.7,464c-0.7,1.5-1.3,2.8-1.8,3.8c-0.6,1-1.2,1.8-1.9,2.4
		c-0.7,0.6-1.5,1-2.4,1.3c-0.9,0.3-2.1,0.4-3.5,0.4c-0.9,0-1.6-0.1-2.1-0.1c-0.5,0-0.9-0.1-1.3-0.2v-3.7c0.5,0.1,1,0.2,1.5,0.2
		c0.5,0.1,1,0.1,1.5,0.1c1,0,1.8-0.1,2.4-0.4c0.6-0.3,1.2-0.7,1.6-1.2c0.5-0.5,0.9-1.1,1.2-1.8c0.3-0.7,0.7-1.5,1-2.3l1.5-4.1
		l-14.4-36H439z"/>
	<path class="st1" d="M472.8,458.6c0,1-0.1,2-0.4,3c-0.3,1-0.6,1.9-1.2,2.8c-0.5,0.9-1.2,1.6-1.9,2.3c-0.8,0.7-1.7,1.1-2.7,1.4v-3
		c0.6-0.2,1.1-0.5,1.5-1c0.4-0.5,0.8-1.1,1-1.7c0.3-0.6,0.5-1.3,0.6-2c0.1-0.7,0.2-1.3,0.1-1.8h-2.9v-7.4h5.9V458.6z"/>
	<path class="st1" d="M503.9,422.5l11.9,30.8l11.1-30.8h4.4L515.6,464c-0.7,1.5-1.3,2.8-1.8,3.8c-0.6,1-1.2,1.8-1.9,2.4
		c-0.7,0.6-1.5,1-2.4,1.3c-0.9,0.3-2.1,0.4-3.5,0.4c-0.9,0-1.6-0.1-2.1-0.1c-0.5,0-0.9-0.1-1.3-0.2v-3.7c0.5,0.1,1,0.2,1.5,0.2
		c0.5,0.1,1,0.1,1.5,0.1c1,0,1.8-0.1,2.4-0.4c0.6-0.3,1.2-0.7,1.6-1.2c0.5-0.5,0.9-1.1,1.2-1.8c0.3-0.7,0.7-1.5,1-2.3l1.5-4.1
		l-14.4-36H503.9z"/>
	<path class="st1" d="M558.2,423c2.1,1,3.9,2.4,5.4,4.1c1.4,1.7,2.5,3.7,3.3,6.1c0.7,2.3,1.1,4.8,1.1,7.4s-0.4,5.1-1.1,7.4
		c-0.7,2.3-1.8,4.3-3.3,6.1c-1.4,1.7-3.2,3.1-5.4,4.1c-2.1,1-4.6,1.5-7.3,1.5c-2.8,0-5.2-0.5-7.3-1.5c-2.1-1-3.9-2.4-5.4-4.1
		c-1.4-1.7-2.5-3.7-3.3-6.1c-0.7-2.3-1.1-4.8-1.1-7.4s0.4-5.1,1.1-7.4c0.7-2.3,1.8-4.3,3.3-6.1c1.4-1.7,3.2-3.1,5.4-4.1
		c2.1-1,4.6-1.5,7.3-1.5C553.6,421.4,556.1,421.9,558.2,423z M545.4,426.5c-1.6,0.9-2.9,2.1-4,3.5c-1,1.4-1.8,3.1-2.4,4.9
		c-0.5,1.8-0.8,3.7-0.8,5.6c0,1.9,0.3,3.8,0.8,5.6c0.5,1.8,1.3,3.5,2.4,4.9c1.1,1.4,2.4,2.6,4,3.5c1.6,0.9,3.4,1.3,5.5,1.3
		s3.9-0.4,5.5-1.3c1.6-0.9,2.9-2.1,4-3.5c1-1.4,1.8-3.1,2.4-4.9c0.5-1.8,0.8-3.7,0.8-5.6c0-1.9-0.3-3.8-0.8-5.6
		c-0.5-1.8-1.3-3.5-2.4-4.9c-1.1-1.4-2.4-2.6-4-3.5c-1.6-0.9-3.4-1.3-5.5-1.3S547,425.6,545.4,426.5z"/>
	<path class="st1" d="M599.8,458.6v-6.5h-0.1c-1.2,2.4-2.9,4.3-5.1,5.6c-2.2,1.3-4.7,1.9-7.4,1.9c-2.3,0-4.2-0.3-5.8-0.9
		s-2.9-1.5-3.9-2.7c-1-1.2-1.7-2.6-2.2-4.3c-0.5-1.7-0.7-3.6-0.7-5.7v-23.5h4.4V446c0.1,3.3,0.9,5.7,2.3,7.4
		c1.4,1.7,3.9,2.5,7.4,2.5c1.9,0,3.5-0.4,4.9-1.2s2.5-1.9,3.4-3.3c0.9-1.4,1.5-2.9,2-4.7s0.6-3.5,0.6-5.4v-19h4.4v36.1H599.8z"/>
	<path class="st1" d="M654.2,423c2.1,1,3.9,2.4,5.4,4.1c1.4,1.7,2.5,3.7,3.3,6.1c0.7,2.3,1.1,4.8,1.1,7.4s-0.4,5.1-1.1,7.4
		c-0.7,2.3-1.8,4.3-3.3,6.1c-1.4,1.7-3.2,3.1-5.4,4.1c-2.1,1-4.6,1.5-7.3,1.5c-2.8,0-5.2-0.5-7.3-1.5c-2.1-1-3.9-2.4-5.4-4.1
		c-1.4-1.7-2.5-3.7-3.3-6.1c-0.7-2.3-1.1-4.8-1.1-7.4s0.4-5.1,1.1-7.4c0.7-2.3,1.8-4.3,3.3-6.1c1.4-1.7,3.2-3.1,5.4-4.1
		c2.1-1,4.6-1.5,7.3-1.5C649.6,421.4,652.1,421.9,654.2,423z M641.3,426.5c-1.6,0.9-2.9,2.1-4,3.5c-1,1.4-1.8,3.1-2.4,4.9
		c-0.5,1.8-0.8,3.7-0.8,5.6c0,1.9,0.3,3.8,0.8,5.6c0.5,1.8,1.3,3.5,2.4,4.9c1.1,1.4,2.4,2.6,4,3.5c1.6,0.9,3.4,1.3,5.5,1.3
		s3.9-0.4,5.5-1.3c1.6-0.9,2.9-2.1,4-3.5c1-1.4,1.8-3.1,2.4-4.9c0.5-1.8,0.8-3.7,0.8-5.6c0-1.9-0.3-3.8-0.8-5.6
		c-0.5-1.8-1.3-3.5-2.4-4.9c-1.1-1.4-2.4-2.6-4-3.5c-1.6-0.9-3.4-1.3-5.5-1.3S642.9,425.6,641.3,426.5z"/>
	<path class="st1" d="M671.6,422.5l9.2,30.9h0.1l8.8-30.9h5l8.8,30.9h0.1l9.2-30.9h4.7L706,458.6h-4.8l-8.9-30.4h-0.1l-8.8,30.4
		h-4.8l-11.6-36.1H671.6z"/>
	<path class="st1" d="M726.7,422.5v6.2h0.1c0.8-2.2,2.3-4,4.5-5.3c2.1-1.3,4.5-2,7.1-2c2.5,0,4.6,0.3,6.3,1c1.7,0.7,3.1,1.6,4.1,2.8
		c1,1.2,1.8,2.6,2.2,4.4s0.6,3.7,0.6,5.8v23.2h-4.4V436c0-1.5-0.1-3-0.4-4.3s-0.8-2.5-1.5-3.5c-0.7-1-1.6-1.8-2.8-2.3
		c-1.2-0.6-2.7-0.8-4.4-0.8c-1.8,0-3.3,0.3-4.7,0.9c-1.4,0.6-2.5,1.5-3.5,2.6c-1,1.1-1.7,2.4-2.2,3.9c-0.5,1.5-0.8,3.2-0.9,4.9v21.1
		h-4.4v-36.1H726.7z"/>
	<path class="st1" d="M65.8,512.1c0.7-1.5,1.8-2.8,3-3.8c1.3-1,2.8-1.7,4.5-2.2c1.7-0.5,3.6-0.7,5.7-0.7c1.6,0,3.2,0.2,4.8,0.5
		c1.6,0.3,3,0.9,4.3,1.7c1.3,0.8,2.3,2,3.1,3.5c0.8,1.5,1.2,3.5,1.2,5.9v19.2c0,1.8,0.9,2.7,2.6,2.7c0.5,0,1-0.1,1.4-0.3v3.7
		c-0.5,0.1-1,0.2-1.4,0.2c-0.4,0-0.9,0.1-1.5,0.1c-1.1,0-2-0.2-2.7-0.5c-0.7-0.3-1.2-0.7-1.6-1.3c-0.4-0.6-0.6-1.2-0.7-2
		c-0.1-0.8-0.2-1.6-0.2-2.6h-0.1c-0.8,1.2-1.6,2.2-2.4,3.1c-0.8,0.9-1.7,1.7-2.7,2.3c-1,0.6-2.1,1.1-3.4,1.4
		c-1.3,0.3-2.8,0.5-4.6,0.5c-1.7,0-3.3-0.2-4.7-0.6c-1.5-0.4-2.8-1-3.9-1.9c-1.1-0.9-2-2-2.6-3.3s-0.9-2.9-0.9-4.7
		c0-2.5,0.6-4.5,1.7-5.9s2.6-2.5,4.4-3.3c1.8-0.7,3.9-1.3,6.2-1.6c2.3-0.3,4.7-0.6,7-0.9c0.9-0.1,1.8-0.2,2.5-0.4
		c0.7-0.1,1.3-0.4,1.8-0.7c0.5-0.4,0.8-0.8,1.1-1.4c0.3-0.6,0.4-1.4,0.4-2.4c0-1.5-0.2-2.7-0.7-3.7c-0.5-1-1.2-1.7-2-2.3
		c-0.9-0.6-1.9-0.9-3-1.2c-1.1-0.2-2.4-0.3-3.7-0.3c-2.8,0-5.1,0.7-6.9,2c-1.8,1.3-2.7,3.5-2.8,6.4h-4.4
		C64.6,515.4,65.1,513.6,65.8,512.1z M87.8,522.8c-0.3,0.5-0.8,0.9-1.6,1.1c-0.8,0.2-1.5,0.4-2.1,0.5c-1.9,0.3-3.8,0.6-5.8,0.9
		c-2,0.3-3.8,0.6-5.4,1.2c-1.6,0.5-3,1.2-4,2.2c-1.1,1-1.6,2.3-1.6,4.1c0,1.1,0.2,2.1,0.7,3c0.4,0.9,1,1.6,1.8,2.2
		c0.7,0.6,1.6,1.1,2.6,1.4c1,0.3,2,0.5,3,0.5c1.7,0,3.3-0.3,4.8-0.8c1.5-0.5,2.9-1.3,4-2.2c1.1-1,2.1-2.2,2.7-3.6c0.7-1.4,1-3,1-4.8
		v-5.7H87.8z"/>
	<path class="st1" d="M141.5,513.5c-0.5-1-1.2-1.8-2.1-2.5c-0.9-0.7-1.9-1.1-3-1.4c-1.1-0.3-2.3-0.5-3.6-0.5c-1,0-2,0.1-3,0.3
		c-1,0.2-1.9,0.6-2.8,1c-0.8,0.5-1.5,1.1-2,1.9c-0.5,0.8-0.8,1.8-0.8,2.9c0,1,0.2,1.8,0.7,2.5c0.5,0.7,1.1,1.2,1.9,1.7
		c0.7,0.5,1.6,0.9,2.4,1.2c0.9,0.3,1.7,0.5,2.5,0.7l5.9,1.3c1.3,0.2,2.5,0.5,3.7,1c1.2,0.5,2.3,1.1,3.3,1.9c1,0.8,1.7,1.8,2.3,2.9
		c0.6,1.2,0.9,2.5,0.9,4.1c0,2-0.4,3.6-1.3,5c-0.9,1.4-2,2.5-3.4,3.4c-1.4,0.9-2.9,1.5-4.7,1.9c-1.7,0.4-3.4,0.6-5.1,0.6
		c-4.2,0-7.7-1-10.3-3c-2.6-2-4.1-5.2-4.5-9.7h4.4c0.2,3,1.3,5.2,3.3,6.8c2,1.5,4.4,2.3,7.4,2.3c1.1,0,2.2-0.1,3.3-0.3
		c1.1-0.2,2.2-0.6,3.2-1.2c1-0.6,1.8-1.3,2.4-2.1c0.6-0.9,0.9-1.9,0.9-3.2c0-1.1-0.2-2-0.7-2.7c-0.4-0.7-1-1.3-1.8-1.8
		c-0.7-0.5-1.6-0.9-2.6-1.2c-1-0.3-1.9-0.6-2.9-0.8l-5.7-1.3c-1.4-0.4-2.8-0.8-4-1.3c-1.2-0.5-2.3-1.1-3.2-1.8s-1.6-1.6-2.1-2.7
		c-0.5-1-0.8-2.3-0.8-3.9c0-1.8,0.4-3.4,1.2-4.7c0.8-1.3,1.9-2.4,3.2-3.2c1.3-0.8,2.8-1.4,4.4-1.8c1.6-0.4,3.2-0.6,4.8-0.6
		c1.8,0,3.5,0.2,5.1,0.7c1.6,0.5,2.9,1.2,4.1,2.2c1.2,1,2.1,2.2,2.8,3.6c0.7,1.4,1.1,3.2,1.2,5.1h-4.4
		C142.3,515.7,142,514.5,141.5,513.5z"/>
	<path class="st1" d="M158.4,506.5v6.1h0.2c1.2-2.2,2.7-4,4.6-5.2c1.9-1.3,4.3-1.9,7.2-1.9c2.4,0,4.5,0.6,6.5,1.8
		c1.9,1.2,3.2,2.9,3.9,5.3c1.1-2.4,2.7-4.2,4.8-5.3c2.1-1.2,4.3-1.8,6.7-1.8c8,0,12,4.2,12,12.7v24.5h-4.4v-24.3
		c0-3-0.6-5.3-1.9-6.8c-1.3-1.6-3.5-2.3-6.6-2.3c-1.9,0-3.5,0.4-4.8,1.1c-1.3,0.7-2.3,1.7-3,2.9c-0.7,1.2-1.3,2.6-1.6,4.2
		c-0.3,1.6-0.5,3.2-0.5,4.9v20.4h-4.4v-24.5c0-1.2-0.1-2.4-0.4-3.5c-0.3-1.1-0.7-2.1-1.3-2.9c-0.6-0.8-1.4-1.5-2.3-1.9
		c-1-0.5-2.2-0.7-3.6-0.7c-1.9,0-3.5,0.3-4.9,1c-1.4,0.7-2.5,1.6-3.4,2.8c-0.9,1.2-1.5,2.6-1.9,4.2c-0.4,1.6-0.6,3.4-0.6,5.3v20.2
		h-4.4v-36.1H158.4z"/>
	<path class="st1" d="M213.6,512.1c0.7-1.5,1.8-2.8,3-3.8c1.3-1,2.8-1.7,4.5-2.2c1.7-0.5,3.6-0.7,5.7-0.7c1.6,0,3.2,0.2,4.8,0.5
		c1.6,0.3,3,0.9,4.3,1.7c1.3,0.8,2.3,2,3.1,3.5c0.8,1.5,1.2,3.5,1.2,5.9v19.2c0,1.8,0.9,2.7,2.6,2.7c0.5,0,1-0.1,1.4-0.3v3.7
		c-0.5,0.1-1,0.2-1.4,0.2c-0.4,0-0.9,0.1-1.5,0.1c-1.1,0-2-0.2-2.7-0.5c-0.7-0.3-1.2-0.7-1.6-1.3c-0.4-0.6-0.6-1.2-0.7-2
		c-0.1-0.8-0.2-1.6-0.2-2.6H236c-0.8,1.2-1.6,2.2-2.4,3.1c-0.8,0.9-1.7,1.7-2.7,2.3c-1,0.6-2.1,1.1-3.4,1.4
		c-1.3,0.3-2.8,0.5-4.6,0.5c-1.7,0-3.3-0.2-4.7-0.6c-1.5-0.4-2.8-1-3.9-1.9c-1.1-0.9-2-2-2.6-3.3s-0.9-2.9-0.9-4.7
		c0-2.5,0.6-4.5,1.7-5.9s2.6-2.5,4.4-3.3c1.8-0.7,3.9-1.3,6.2-1.6c2.3-0.3,4.7-0.6,7-0.9c0.9-0.1,1.8-0.2,2.5-0.4
		c0.7-0.1,1.3-0.4,1.8-0.7c0.5-0.4,0.8-0.8,1.1-1.4c0.3-0.6,0.4-1.4,0.4-2.4c0-1.5-0.2-2.7-0.7-3.7c-0.5-1-1.2-1.7-2-2.3
		c-0.9-0.6-1.9-0.9-3-1.2c-1.1-0.2-2.4-0.3-3.7-0.3c-2.8,0-5.1,0.7-6.9,2c-1.8,1.3-2.7,3.5-2.8,6.4h-4.4
		C212.4,515.4,212.8,513.6,213.6,512.1z M235.6,522.8c-0.3,0.5-0.8,0.9-1.6,1.1c-0.8,0.2-1.5,0.4-2.1,0.5c-1.9,0.3-3.8,0.6-5.8,0.9
		c-2,0.3-3.8,0.6-5.4,1.2c-1.6,0.5-3,1.2-4,2.2c-1.1,1-1.6,2.3-1.6,4.1c0,1.1,0.2,2.1,0.7,3c0.4,0.9,1,1.6,1.8,2.2
		c0.7,0.6,1.6,1.1,2.6,1.4c1,0.3,2,0.5,3,0.5c1.7,0,3.3-0.3,4.8-0.8c1.5-0.5,2.9-1.3,4-2.2c1.1-1,2.1-2.2,2.7-3.6c0.7-1.4,1-3,1-4.8
		v-5.7H235.6z"/>
	<path class="st1" d="M253.5,492.6v50h-4.4v-50H253.5z"/>
	<path class="st1" d="M266.4,492.6v50H262v-50H266.4z"/>
	<path class="st1" d="M298.4,506.5v6.9h0.1c1-2.5,2.7-4.5,5-5.8c2.3-1.4,4.9-2.1,7.9-2.1c2.8,0,5.1,0.5,7.2,1.5c2,1,3.7,2.4,5.1,4.2
		c1.4,1.8,2.4,3.8,3,6.1c0.7,2.3,1,4.7,1,7.3s-0.3,5-1,7.3c-0.7,2.3-1.7,4.3-3,6.1c-1.4,1.8-3,3.1-5.1,4.1c-2,1-4.4,1.5-7.2,1.5
		c-1.3,0-2.6-0.2-3.9-0.5c-1.3-0.3-2.5-0.8-3.6-1.5c-1.1-0.7-2.1-1.5-3-2.4c-0.9-1-1.5-2.1-2-3.4h-0.1v20.2h-4.4v-49.4H298.4z
		 M322.6,519c-0.4-1.8-1.1-3.5-2.1-4.9c-1-1.4-2.2-2.6-3.7-3.5c-1.5-0.9-3.3-1.4-5.4-1.4c-2.4,0-4.5,0.4-6.1,1.3
		c-1.6,0.8-2.9,2-3.9,3.4c-1,1.4-1.7,3-2.1,4.9c-0.4,1.9-0.6,3.8-0.6,5.9c0,1.9,0.2,3.7,0.7,5.6c0.4,1.8,1.2,3.5,2.2,4.9
		c1,1.4,2.3,2.6,3.9,3.5c1.6,0.9,3.6,1.4,5.9,1.4c2.1,0,3.9-0.5,5.4-1.4c1.5-0.9,2.7-2.1,3.7-3.5c1-1.4,1.7-3.1,2.1-4.9
		c0.4-1.8,0.7-3.7,0.7-5.6S323,520.8,322.6,519z"/>
	<path class="st1" d="M339,492.6v7.1h-4.4v-7.1H339z M339,506.5v36.1h-4.4v-36.1H339z"/>
	<path class="st1" d="M350.7,530.6c0.4,1.7,1.2,3.2,2.1,4.6s2.2,2.5,3.7,3.4c1.5,0.9,3.3,1.3,5.4,1.3c3.2,0,5.7-0.8,7.6-2.5
		c1.8-1.7,3.1-3.9,3.8-6.7h4.4c-0.9,4.1-2.6,7.3-5.1,9.5c-2.5,2.2-6,3.4-10.6,3.4c-2.8,0-5.3-0.5-7.4-1.5c-2.1-1-3.8-2.4-5.1-4.1
		c-1.3-1.8-2.3-3.8-2.9-6.1c-0.6-2.3-0.9-4.7-0.9-7.3c0-2.4,0.3-4.7,0.9-7c0.6-2.3,1.6-4.3,2.9-6.1c1.3-1.8,3-3.2,5.1-4.3
		c2.1-1.1,4.5-1.6,7.4-1.6c2.9,0,5.4,0.6,7.4,1.8c2.1,1.2,3.7,2.7,5,4.6c1.3,1.9,2.2,4.1,2.8,6.5s0.8,4.9,0.7,7.5h-27.8
		C350.1,527.3,350.3,528.9,350.7,530.6z M372.6,517.2c-0.5-1.5-1.3-2.9-2.3-4.1c-1-1.2-2.2-2.1-3.6-2.9c-1.4-0.7-3-1.1-4.8-1.1
		c-1.8,0-3.4,0.4-4.8,1.1c-1.4,0.7-2.6,1.7-3.6,2.9c-1,1.2-1.8,2.6-2.3,4.1c-0.6,1.6-1,3.2-1.2,4.8h23.4
		C373.4,520.3,373.1,518.7,372.6,517.2z"/>
	<path class="st1" d="M405.9,511.4c-1.6-1.5-3.9-2.3-6.9-2.3c-2.1,0-3.9,0.4-5.5,1.3c-1.6,0.9-2.9,2.1-4,3.5
		c-1.1,1.4-1.8,3.1-2.4,4.9c-0.5,1.8-0.8,3.7-0.8,5.6c0,1.9,0.3,3.8,0.8,5.6c0.5,1.8,1.3,3.5,2.4,4.9c1,1.4,2.4,2.6,4,3.5
		c1.6,0.9,3.4,1.3,5.5,1.3c1.4,0,2.6-0.3,3.9-0.8c1.2-0.5,2.3-1.2,3.2-2.1c0.9-0.9,1.7-2,2.3-3.3c0.6-1.3,1-2.6,1.1-4.1h4.4
		c-0.6,4.4-2.2,7.8-4.8,10.3c-2.6,2.5-6,3.7-10.1,3.7c-2.8,0-5.2-0.5-7.3-1.5c-2.1-1-3.9-2.4-5.4-4.1c-1.4-1.7-2.5-3.7-3.3-6.1
		c-0.7-2.3-1.1-4.8-1.1-7.4s0.4-5.1,1.1-7.4c0.7-2.3,1.8-4.3,3.3-6.1c1.4-1.7,3.2-3.1,5.4-4.1c2.1-1,4.6-1.5,7.3-1.5
		c3.9,0,7.2,1,9.8,3.1c2.7,2.1,4.3,5.2,4.8,9.3h-4.4C408.7,515.1,407.6,513,405.9,511.4z"/>
	<path class="st1" d="M423.4,530.6c0.4,1.7,1.2,3.2,2.1,4.6s2.2,2.5,3.7,3.4c1.5,0.9,3.3,1.3,5.4,1.3c3.2,0,5.7-0.8,7.6-2.5
		c1.8-1.7,3.1-3.9,3.8-6.7h4.4c-0.9,4.1-2.6,7.3-5.1,9.5c-2.5,2.2-6,3.4-10.6,3.4c-2.8,0-5.3-0.5-7.4-1.5c-2.1-1-3.8-2.4-5.1-4.1
		c-1.3-1.8-2.3-3.8-2.9-6.1c-0.6-2.3-0.9-4.7-0.9-7.3c0-2.4,0.3-4.7,0.9-7c0.6-2.3,1.6-4.3,2.9-6.1c1.3-1.8,3-3.2,5.1-4.3
		c2.1-1.1,4.5-1.6,7.4-1.6c2.9,0,5.4,0.6,7.4,1.8c2.1,1.2,3.7,2.7,5,4.6c1.3,1.9,2.2,4.1,2.8,6.5s0.8,4.9,0.7,7.5h-27.8
		C422.7,527.3,422.9,528.9,423.4,530.6z M445.2,517.2c-0.5-1.5-1.3-2.9-2.3-4.1c-1-1.2-2.2-2.1-3.6-2.9c-1.4-0.7-3-1.1-4.8-1.1
		c-1.8,0-3.4,0.4-4.8,1.1c-1.4,0.7-2.6,1.7-3.6,2.9c-1,1.2-1.8,2.6-2.3,4.1c-0.6,1.6-1,3.2-1.2,4.8h23.4
		C446.1,520.3,445.8,518.7,445.2,517.2z"/>
	<path class="st1" d="M498.5,507c2.1,1,3.9,2.4,5.4,4.1c1.4,1.7,2.5,3.7,3.3,6.1c0.7,2.3,1.1,4.8,1.1,7.4s-0.4,5.1-1.1,7.4
		c-0.7,2.3-1.8,4.3-3.3,6.1c-1.4,1.7-3.2,3.1-5.4,4.1c-2.1,1-4.6,1.5-7.3,1.5c-2.8,0-5.2-0.5-7.3-1.5c-2.1-1-3.9-2.4-5.4-4.1
		c-1.4-1.7-2.5-3.7-3.3-6.1c-0.7-2.3-1.1-4.8-1.1-7.4s0.4-5.1,1.1-7.4c0.7-2.3,1.8-4.3,3.3-6.1c1.4-1.7,3.2-3.1,5.4-4.1
		c2.1-1,4.6-1.5,7.3-1.5C493.9,505.4,496.4,505.9,498.5,507z M485.7,510.5c-1.6,0.9-2.9,2.1-4,3.5c-1.1,1.4-1.8,3.1-2.4,4.9
		c-0.5,1.8-0.8,3.7-0.8,5.6c0,1.9,0.3,3.8,0.8,5.6c0.5,1.8,1.3,3.5,2.4,4.9c1,1.4,2.4,2.6,4,3.5c1.6,0.9,3.4,1.3,5.5,1.3
		s3.9-0.4,5.5-1.3c1.6-0.9,2.9-2.1,4-3.5c1.1-1.4,1.8-3.1,2.4-4.9c0.5-1.8,0.8-3.7,0.8-5.6c0-1.9-0.3-3.8-0.8-5.6
		c-0.5-1.8-1.3-3.5-2.4-4.9c-1-1.4-2.4-2.6-4-3.5c-1.6-0.9-3.4-1.3-5.5-1.3S487.2,509.6,485.7,510.5z"/>
	<path class="st1" d="M521.6,510.2v32.4h-4.4v-32.4h-6.2v-3.7h6.2v-3.3c0-1.5,0.1-3,0.3-4.3c0.2-1.3,0.7-2.4,1.3-3.4
		c0.7-0.9,1.6-1.7,2.7-2.2c1.1-0.5,2.6-0.8,4.4-0.8c0.7,0,1.3,0,1.8,0.1c0.6,0,1.2,0.1,1.9,0.2v3.8c-0.6-0.1-1.2-0.2-1.7-0.2
		s-1-0.1-1.5-0.1c-1.2,0-2.1,0.2-2.8,0.6c-0.7,0.4-1.1,0.9-1.4,1.5s-0.5,1.4-0.5,2.2s-0.1,1.8-0.1,2.7v3.1h7.1v3.7H521.6z"/>
	<path class="st1" d="M556.9,492.6v7.1h-4.4v-7.1H556.9z M556.9,506.5v36.1h-4.4v-36.1H556.9z"/>
	<path class="st1" d="M579.7,506.5v3.7h-7.3v24.4c0,1.4,0.2,2.6,0.6,3.4c0.4,0.8,1.4,1.3,3,1.4c1.3,0,2.5-0.1,3.8-0.2v3.7
		c-0.7,0-1.3,0-2,0.1c-0.7,0-1.3,0.1-2,0.1c-2.9,0-5-0.6-6.2-1.7c-1.2-1.1-1.7-3.3-1.7-6.3v-24.7h-6.3v-3.7h6.3v-10.8h4.4v10.8
		H579.7z"/>
	<path class="st1" d="M588.7,535.2h5.9v7.4h-5.9V535.2z"/>
</g>
<g>
	<ellipse class="st2" cx="823" cy="709.9" rx="132" ry="21.7"/>
	<path class="st3" d="M855.6,106.9l-53.2,21.7l-10.5,74.4l18.9,18.7c0,0,14.5,11.1,17.1,12.1c2.5,1,8.4,2.7,8.4,2.7s2.3,2.3,2.2,6.6
		c-0.2,4.3-5.4,22.5-5.4,22.5s-7.9-1.8-13.5-1.8c-5.6-0.1-22.1,3.1-22.1,3.1l-9.9,5.9l-3.7,5.6l-3.5,9.5l-0.6,12.1l-3.3,28l1.4,1.2
		l-0.1,10.1l-0.6,19.3c0,0-1.5,3.9-0.9,9.1c0.6,5.2,1.6,11.5,3.9,13.8c2.2,2.3,6.1,2.9,6.1,2.9l3.2-1.3l0.9,3.6
		c0,0-10.7,41.8-12,64.9c-1.3,23.1-1.3,59.4,2.3,62.1c0,0,14.2,9.6,17.1,11.8c2.8,2.2-2.5,26.7-1.5,35.3c1,8.6,1,42.9,1,42.9v46.7
		l2.5,28.1l-5.4,9.7l-15.7,10.9l-9.9,5.1l9,5.5l13.2-2.7l20.3-24.9l1.8-2.8l-0.1-38.9l1.7-22.2l1.6-22.6l1.3-34.7l0.5-31.8l13.8-2.2
		l16.6,3.3l-0.6,5.6l1.9,30.5l0.4,38.3l1.2,28.8l0.6,33.8l0,13.3l-1,11.2l-3.1,11.3l2.3,4.3l10.5,1.2l5-3.5l-1.5-10.1l-5.1-15.2
		l7.8-151.1l-6.2-93.5c0,0,3.5-28.6,3.5-28.6c0,0,3.7-17.8,3.7-17.8s5.8,0.8,8.8-2.3c3-3.1,11.8-16.6,11.8-16.6l5.7-11.2l2.3-10.7
		l3.9-20c0,0,1.1-38-3.6-43.4c-4.7-5.3-27.5-10.7-27.5-10.7l-12.2-5.6v-9.5l2.1-12.8l2.1-11.4l4.2-6.2l25.7-64.5l3.1-27.9
		L855.6,106.9z"/>
	<g>
		<path class="st4" d="M927.6,151.6c-0.1-6.6-0.5-13.4-2.3-19.8c-0.6-2.2-2.7-7-5.5-8.4c-0.2-0.3-0.4-0.5-0.7-0.8
			c-4.3-4.1-11.8-7.9-17.8-7.9c-0.6,0-1.2,0.2-1.7,0.4c-0.3-0.7-0.5-1.3-0.8-1.9c0,0,0-0.1-0.1-0.1c-0.3-0.7-0.6-1.3-0.9-2
			c-1.6-3.6-4.1-6.3-7.2-8.4c-2.3-2-4.9-3.7-7.7-4.9c-4.6-2-14.3-3.3-18.8,0.7c-0.4-0.5-1-1-1.7-1.4c-2.1-1.2-4.6-1.4-6.9-2.2
			c-2.3-0.8-4.4-1.9-6.6-2.9c-4.6-2.2-9.3-4-14.2-5.5c-10-3-20.7-4.3-30.5-0.1c-9.7,4.2-18.7,13.5-21.8,23.8c-1.6,1.7-2.6,4.1-3.1,6
			c-1,3.9,0.6,7.8,4.3,9.6c0.1,0.1,0.2,0.1,0.3,0.1c0,0.1,0.1,0.1,0.1,0.2c0.7,1.5,1.6,2.6,2.7,3.6c-0.6,3.3,0.6,7,0.8,10.2
			c0.3,4.6,0,9.4-0.4,14c-0.7,8.9-2.7,17.2-5.7,25.6c-3,8.2-6.4,16.3-8.8,24.7c-1.2,4-2,8.1-2.6,12.2c-0.6,4.4,0.2,8.8,0.1,13.1
			c-0.3,0.8-0.4,1.5-0.4,2.4c0,0.3,0.1,0.5,0.2,0.6c0.3,1,1.8,1.3,2.2,0.1c0.1-0.2,0.1-0.4,0.2-0.6c0.6-0.4,1.2-0.8,1.8-1.2
			c0,0.1,0,0.2,0,0.3c0,0.8,0.9,1.1,1.4,0.6c2.5-2.5,6-3.3,9.3-4.3c2.1-0.7,5.1-1.1,7.1-2.5c4.7-0.5,9.7-0.6,13.7-2.8
			c0.2-0.1,0.3-0.2,0.4-0.3c0.4,0,0.8,0,1.1,0c1.5,0,1.5-2.2,0.2-2.4c0.1-1.6-0.8-3.3-2.5-3.8c-0.6-0.2-1.3-0.3-1.9-0.3
			c-1.3-3.3-2.8-6.3-3.9-9.6c-0.3-2.3-0.3-5.1-1.3-7c-0.4-6,0.5-12.1,1.8-17.9c1.8-8.2,1.1-16.5,2.6-24.7c0.7-3.9,1.8-7.8,2.9-11.7
			c0.8-2.8,2.2-6.4,2.2-9.4c4.8-0.6,9.8-2.1,14.1-3.4c7.9-2.4,15.6-5.3,23-8.9c4.4-2.1,8.6-4.6,12.5-7.4c0.7,4.8,2.9,9,6.6,12.5
			c4,3.9,9.4,5.6,14.7,6.4c1.5,0.2,3.1,0.4,4.7,0.6c-0.3,2.1-0.2,4.2,0.1,6.1c0.3,1.6,0.7,3.2,1.2,4.8c-0.3-0.3-0.8-0.1-0.8,0.3
			c0.2,7.2,1.4,14.2,0.9,21.5c-0.5,7.7-2,15.1-3.9,22.5c-2.7,10.4-7.2,20.6-13.3,29.6c-3.1,4-6.6,7.8-9.1,12.1
			c-0.3,0.5,0.3,1.1,0.8,0.8c1.5-1,3-2,4.5-3.1c3.4,0.7,6.6-1.7,9.2-3.6c3.7-2.8,6.8-6.4,9.7-10.1c3.1-4,5.7-8.1,8.2-12.5
			c1.7-3,4-6.3,4.9-9.7c0-0.1,0.1-0.1,0.1-0.2c0.6-1.2,1.1-2.4,1.4-3.7c0.4-1.1,0.7-2.1,0.9-3.2c0.6-0.5,1.1-1.3,1.2-2.3
			c0.4-3.7-1.1-8-2.3-11.4c2.4,5.1,4.5,10.3,6,15.7c0.4,1.3,0.7,2.5,1.1,3.8c-0.2,0-0.4,0-0.6,0c0-2.1-0.5-4-1.7-5.7
			c-0.4-0.6-1.2-0.5-1.4,0.2c-0.5,1.3-0.8,2.7-1.1,4.1c-1.2,1.6-2.5,3.2-3.3,5.1c-1.3,2.9-2.8,5.7-4.2,8.6c-1,2.1-2.2,4.1-3.3,6.1
			c-1.5,1.7-3.1,3.3-4.6,4.9c-1.6,1.6-4.6,3.8-5.3,6.2c-0.5,0.2-1,0.5-1.4,0.9c-0.6,0.5-0.3,1.3,0.2,1.7c2,1.4,4.2,1.2,6.5,1.7
			c2.6,0.6,4.9,2,7.1,3.5c2.5,1.8,4.6,3.9,6.8,6.2c1.5,1.6,3,4.1,5.2,4.8c0.4,0.1,0.9,0,1.1-0.3c1.1-1.1,1.4-2.4,1.2-3.7
			c2.1,2.3,5.1-3.9,6.1-6.4c2.2-2.6,3.8-7.4,4.4-9.1c0.1-0.3,0.2-0.6,0.3-1c0.2-0.5,0.4-0.9,0.6-1.4c2.7-6.3,4.4-12.9,5.9-19.5
			c1.2-5.5,2.6-10.9,3.2-16.4c0.3-3.1,0.6-6.3,0-9.2C926.7,166.5,927.7,159,927.6,151.6z M902.3,123.6c0,0.1,0,0.1,0,0.2
			C902.2,123.7,902.2,123.6,902.3,123.6C902.2,123.6,902.2,123.6,902.3,123.6z M803.1,112.8c-0.3,0.3-0.6,0.7-0.9,1
			c0.2-0.3,0.3-0.7,0.5-1C802.8,112.8,803,112.8,803.1,112.8z M884.4,116.5C884.4,116.6,884.4,116.6,884.4,116.5L884.4,116.5z
			 M820.4,105.4c0.2-0.4,0.5-0.8,0.7-1.2c0.2,0.2,0.4,0.3,0.5,0.5C821.2,104.9,820.8,105.1,820.4,105.4z M875.4,118.4
			c0,0.1,0,0.1,0.1,0.2c-0.1,0-0.1,0-0.2-0.1C875.3,118.5,875.3,118.5,875.4,118.4z M783.1,198.2c-0.1,0.3-0.3,0.5-0.4,0.8
			c0.2-0.6,0.5-1.2,0.7-1.9C783.3,197.5,783.2,197.8,783.1,198.2z M889,157.8c-0.4-0.3-0.7-0.6-1.2-0.8c-0.4-1-1-2-1.7-2.9
			c-0.1-0.2-0.3-0.2-0.5-0.2c-0.2-2.2-0.6-4.4-1.1-6.5C885.8,151.1,887.3,154.5,889,157.8z M892.2,165.5c-0.2-0.8-0.4-1.7-0.7-2.7
			c0.2,0.3,0.3,0.6,0.5,1c0.7,1.4,1.4,2.7,2.1,4.1C893.6,167,893,166.2,892.2,165.5z"/>
		<path class="st4" d="M856.9,232.8c-0.1,0-0.1,0.2,0,0.2C857,233,857,232.8,856.9,232.8z"/>
		<path class="st4" d="M881.5,515.3c0.3-5.5-0.5-11.4-1.2-17c0-0.1,0.1-0.1,0.1-0.2c1.2-3,0.8-7.4,0.8-10.7
			c0.1-4.9-0.3-9.8-0.9-14.7c-0.3-2.4-0.9-7.8-2.5-12c0-0.4-0.1-0.8-0.1-1.2c-0.5-4.9-2.1-9.3-3.6-14c0,0,0,0,0,0
			c-1.1-7-2.3-13.9-3.8-20.8c-1.3-6.2-2.6-12.4-3.2-18.7c0.3-2.5,0.3-5.2,0.4-7.7c0.1-1.7-0.1-3.4-0.6-4.9c0.2-0.9,0.4-1.8,0.5-2.7
			c0.2-1.1-0.5-1.9-1.6-2c-1.1-0.9-2.8-1.4-4.1-2.1c-0.5-0.3-1-0.6-1.5-0.8c-0.4-0.5-0.8-0.9-1.2-1.2c-0.4-0.4-0.9-0.7-1.4-0.8
			c-1.1-1.7-2-3.6-3.1-5.3c-0.2-0.2-0.4-0.3-0.6-0.4c-0.5-1.1-1-2.2-1.7-3.2c-0.3-0.4-1.2-0.3-1.1,0.3c0.7,5.4,1.2,10.5,1,16
			c-0.3,6.5-1.4,12.9-2,19.4c-1.1,14.5,0.8,29.3,1.8,43.8c0.9,13.5,1.2,26.8,0.1,40.3c-0.7,8.7-1.9,18.5-6.4,26.2
			c-5.7,1.3-11.4,2.6-17.3,3.3c-15.8,2-35.9,0.3-47.3-12c-0.6-0.6-1.7,0.2-1.2,0.9c7.3,11.1,20.1,14.2,32.8,15.2
			c-0.6,0-1.1,0.4-1,1.1c0.2,1.8,0.3,3.6,0.3,5.3c-2.5,8.9-1.4,19.5-1,28.2c0.7,13.1,0,26-0.9,39.1c-1,13.4-2.3,26.9-2.3,40.3
			c0,6.3,0.4,12.6,0.7,18.9c0.2,5.9-0.4,11.9,0.1,17.7c0.1,1.7,2.5,2.2,3,0.4c1.3-4.9,0.7-10.4,0.6-15.4c-0.2-6.3-0.6-12.6-0.7-19
			c-0.3-13.3,1.3-26.7,2.7-39.9c1.3-12.6,2.7-25.3,2.1-38c-0.3-6.3-0.8-12.6-1.1-18.9c-0.1-1.9-0.1-3.9,0-5.8c0.6-1,0.4-2.7,0.2-4
			c0.2-2.6,0.4-5.2,0.6-7.8c0.1-1-1.3-1.6-2-0.9c-0.1-0.2-0.2-0.5-0.3-0.7c-0.1-0.3-0.4-0.4-0.7-0.5c3.1,0.2,6.1,0.4,9,0.4
			c0.1,0.2,0.3,0.3,0.5,0.3c0.8-0.1,1.5-0.1,2.2-0.2c0.9,0,1.7,0,2.6,0.1c4.3,0.1,8.7,0.1,13,0c0.5,1.2,2.1,2,3.3,0.8
			c0.3-0.3,0.6-0.6,0.9-1c4.2-0.2,8.4-0.5,12.6-0.9c4.6-0.5,9.3-1.3,13.8-2.2c2.1-0.4,4.7-0.9,6.8-1.9c0.7,1,2.2,1.3,3.4,1
			c0.7-0.1,1.2-0.9,1.2-1.6c0-2.5-0.5-4.9-1.3-7.1C881.5,515.9,881.5,515.6,881.5,515.3z M855.9,384.2c0,0,0-0.1,0-0.2
			C855.9,384.1,855.9,384.2,855.9,384.2C855.9,384.2,855.9,384.2,855.9,384.2z M880.7,521.8C880.7,521.7,880.7,521.7,880.7,521.8
			C880.8,521.9,880.8,522,880.7,521.8z"/>
		<path class="st4" d="M867.5,528c-0.4-0.6-1.2-0.6-1.6,0c-0.1,0.1-0.1,0.2-0.2,0.3c-0.5-0.3-1.2-0.3-1.7,0.1c0,0-0.1,0.1-0.1,0.1
			c-0.3-0.1-0.7-0.1-1,0.2c-0.8-0.2-1.8,0.4-1.8,1.4c0,0.6,0.1,1.2,0.1,1.8c-1.5,24-2.2,48.3-1.9,72.4c0.2,12.6-0.3,25.2-0.8,37.8
			c-0.5,12.5,0.6,25.1-0.9,37.5c-0.1,0.7,0.5,1.1,1.1,1.2c0.6,1,2.5,0.8,2.5-0.7c-0.4-13.8,1.2-27.6,1.6-41.5
			c0.5-14.5,1.2-28.9,2.2-43.4c0.8-12.1,1.2-24.2,2.2-36.3c0.4-5.6,0.6-11.1,0.2-16.7c0-0.3-0.1-0.7-0.1-1c0.4-0.5,0.7-1.1,0.7-1.9
			c0,0,0-0.1,0-0.1c0,0,0,0,0,0c0-1,0-2,0-2.9c0.2-0.3,0.4-0.6,0.4-1.1c0.1-1.2-0.1-2.4-0.2-3.6C868.2,530.3,868.2,529.1,867.5,528z
			"/>
		<path class="st4" d="M902.1,301.4c-0.3-2.8-0.8-5.8-1.5-8.7c0.1-0.1,0.1-0.2,0.2-0.2c1-2.1-0.2-4.9-1.5-6.7c-0.7-1-2.5-2.5-3.8-2
			c-4-4.9-9.5-8-15.9-10.6c-7.5-3.1-21.3-8-27.3-0.1c-0.5,0.6,0.2,1.3,0.8,1.4c8.4,0.6,16.5,3.5,24.4,6.4c8.2,3.1,15.7,5.8,18.4,15
			c2.4,8,1.4,17,0.7,25.2c-0.4,4.4-0.7,8.7-1.2,13.1c-0.1,1-0.3,2-0.4,2.9c-5.3-3.1-14.3-3.6-18-0.1c0-0.2,0-0.4,0-0.6
			c0-2.7,0.3-5.3,0-8c0-0.3-0.2-0.4-0.4-0.5c-0.1-2.4-0.5-4.7-1.1-6.8c0-0.1-0.1-0.2-0.1-0.2c0.1-0.7,0.1-1.5,0.2-2.2
			c0.1-0.6-0.6-0.8-1-0.6c0,0,0,0,0,0c0,0-0.1,0-0.1,0.1c0,0-0.1,0-0.1,0.1c-1,0.8-1.1,2.4-1.4,3.6c-0.1,0.2-0.1,0.4-0.2,0.7
			c-1.9,4.6-2.6,9.5-3.7,14.3c-0.8,3.4-2,6.9-3,10.2c-0.9,2.8-2.4,5.4-3.4,8.2c-0.9-0.4-1.9-0.6-2.8-0.4c-0.2,0-0.3,0.2-0.3,0.4
			c0.2,1.7,1.8,3,2.9,4.1c1.2,1.1,2.6,2,4.1,2.7c0,0,0,0.1,0,0.1c0,0,0-0.1,0-0.1c0,0,0,0,0,0c0,0-0.1,0.1-0.1,0.1
			c-0.2,0.4-0.2,0.9,0.1,1.3c0.1,0.1,0.3,0.4,0.3,0.4c0.1,0.2,0.3,0.4,0.5,0.6c0.3,0.3,0.6,0.5,0.8,0.8c0.1,0.1,0.3,0.3,0.4,0.4
			c-0.2-0.3-0.1-0.2,0.2,0.2c0.2,0.2,0.5,0.4,0.9,0.5c0.9,0.2,1.6-0.2,1.9-0.9c0.9-0.7,1.7-1.5,2.1-2.7c0.5-1.2,0.9-2.3,0.6-3.5
			c0.5-0.8,0.8-1.7,0.8-2.6c0.6-1.2,1-2.6,1.3-3.8c0.5-1.9,1.4-3.9,1.2-5.9c-0.1-0.5-0.3-0.8-0.8-1c-0.1,0-0.1,0-0.2,0
			c-0.3,0-0.5,0.1-0.7,0.2c-0.1-0.3-0.3-0.5-0.6-0.6c0-0.2,0.1-0.5,0.1-0.7c2.8,1.3,6.3,1.1,9.4,1.1c0.6,0,1.3,0,2.1,0
			c1.1,1.3,2.8,1.6,4.4,1.8c0.4,0.1,0.8,0.1,1.3,0.1c0.5,1.1,1.9,1.8,3.1,1.9c1.3,0.1,2.6-0.7,3.3-1.8c0.6-1,0.8-2.3,0.8-3.5
			c0-0.6,0.1-1.4,0-2.1c0.8-1.6,1-3.5,1.3-5.2c0.1-0.4,0.1-0.9,0.2-1.3c1.1-2.4,0.8-5.4,1-8c0.2-3.3,0.5-6.7-0.1-9.9
			C904.1,313.1,902.7,306.1,902.1,301.4z"/>
		<path class="st4" d="M827.1,318c0.1,2.6,0.2,5.3,0.3,7.9c0.1,1.8-0.2,2.7,1,4c0.2,0.2,0.5,0.2,0.7,0c1.4-1.7,1.3-4.4,1-7
			c0.6,0,1.2-0.4,1.2-1.2c0,0,0,0,0,0c0.8,0.7,1.7,1.3,2.6,1.3c0.4,0,0.7-0.2,1-0.5c0,0,0.1,0,0.1,0.1c0,0.2,0,0.4,0,0.6
			c0,0.6,0.7,0.8,1.1,0.4c0.1-0.1,0.2-0.2,0.2-0.2c0.4-0.1,0.7-0.4,0.8-0.7c0.1-0.2,0.1-0.5,0.1-0.7c0.1-0.4-0.1-0.9-0.4-1.1
			c0,0,0,0,0,0c-0.4-0.7-1-1.4-1.4-1.9c-0.6-0.9-1.2-1.6-2.2-2c0-0.1,0.1-0.1,0.1-0.2c0.7-1.7,0.2-4.1,0.6-6
			c0.1-0.6,0.4-1.2,0.7-1.8c1.9-0.3,3.5-1.6,5.4-2.2c2.9-1,6.4,0.1,8.1,2.7c1.5,2.4,0.7,5.4,1.3,7.9c-0.1,0.2-0.2,0.4-0.3,0.6
			c-0.3,0.5-0.6,0.9-1,1.4c-0.4,0.4-0.5,0.9-0.9,1.4c-0.1,0.2,0,0.4,0.2,0.4c0.6-0.2,1.1-0.3,1.7-0.5c0.3-0.1,0.6-0.3,0.9-0.6
			c0.2,0,0.4,0,0.6,0c0.3-0.1,0.6-0.1,0.9,0c0.7,0.3,1,1,1.3,1.7c0.1,0.2,0.2,0.4,0.4,0.5c-0.2,1.1-0.3,2.3,0.4,3.1
			c0.1,0.2,0.4,0.1,0.5,0.1c1.3-0.6,1.3-2.6,1.3-3.9c0.2-0.2,0.3-0.5,0.3-0.8c0.1-1.4,0.1-2.8-0.1-4.2c-0.1-1-0.5-2-0.7-3
			c0.5-2.5,0.8-5.1,0.7-7.6c0-0.7-0.5-1.4-1.2-1.6c-1.3-0.3-4.5-0.8-5.9,0.2c-1.8-1.2-3.9-1.5-6.3-1.2c-0.3,0-0.7,0.1-1.1,0.2
			c-0.3-0.2-0.6-0.3-0.9-0.2c-0.9,0.1-2.7,0.2-3.8,0.8c-1.3-0.4-3-0.4-4.3-0.4c-1.2,0-3.4,0.1-4.2,1.1c-0.3,0.4-0.4,1.1,0,1.5
			c-0.1,0.4-0.1,0.7-0.2,1.1c-0.2,0.8-0.3,1.7-0.3,2.6C827,312.6,827,315.2,827.1,318z M850.7,306.6
			C850.6,306.6,850.6,306.6,850.7,306.6C850.6,306.6,850.7,306.6,850.7,306.6C850.7,306.6,850.7,306.6,850.7,306.6z"/>
		<path class="st4" d="M842.2,302.7c0.7-0.1,1.8,0.1,2.5-0.1c1.1-0.3,1.2-2.2,0-2.4c0,0-0.1,0-0.1,0c0.5-0.5,0.6-1.1,0.8-1.9
			c0.1-0.4,0.2-0.7,0.3-1.1c1.4-0.1,2.8-0.4,4.1-0.5c1.9,0,3.8-0.1,5.7-0.4c0.9-0.1,1.4-1.1,1.5-1.9c0.1-1.1,0-2.1-0.2-3.2
			c-0.2-0.8-1-1.3-1.8-1.4c-3.5-0.2-10.2-0.2-12.5,3c-1.3,1.8-1.4,4.2-1.2,6.4c0,0.2,0.1,0.9,0.4,1.6c0,0,0,0,0,0
			C840.4,301.3,840.9,302.9,842.2,302.7z"/>
		<path class="st4" d="M810.5,303.5c-0.2-1.3-1.2-2.3-1.9-3.4c-0.8-1.2-1.5-2.4-2.5-3.4c-0.3-0.3-1-0.6-1.4-0.4
			c-1.3,0.5-2.3,1.4-2.7,2.6c-0.3,0.2-0.6,0.4-0.9,0.6c-1.2,0.7-2.2,1.4-3,2.5c-0.2-0.1-0.4-0.2-0.7-0.1c-0.3-0.1-0.5-0.1-0.8,0.1
			c0,0,0,0-0.1,0.1c-1.5,0.4-2.8,1.1-3.9,2.2c-0.5,0.5-1,1.1-1.1,1.7c-0.3,0-0.7,0.1-1,0.3c-2.9,2.6-1.4,5.9,0.5,8.5
			c0.1,0.2,0.2,0.3,0.3,0.5c0,0.1,0.1,0.1,0.1,0.2c0.3,0.3,0.6,0.5,1,0.5c0,0.1,0,0.1,0,0.2c-0.2,0.8,0.3,1.4,0.9,1.6
			c0,0.3,0,0.5-0.1,0.8c0,0.2,0.1,0.4,0.3,0.5c0.1,0.1,0.2,0.2,0.3,0.2c0.1,0,0.2,0,0.3,0c0.1,0,0.1,0,0.2-0.1
			c0.1,0.2,0.3,0.4,0.4,0.6c0.3,0.7,0.8,1.5,1.4,1.9c0.4,0.6,0.8,1.2,1.1,1.8c0.5,0.9,1.8,0.1,1.4-0.8c-0.1-0.1-0.1-0.3-0.2-0.4
			c0,0,0.1,0,0.1-0.1c0.7,0.2,1.5,0.1,2-0.3c0.4-0.4,0.4-1.2-0.2-1.5c-0.6-0.3-1-0.1-1.6-0.1c-0.1,0-0.2,0-0.4,0.1
			c-0.7-1.1-1.6-2.2-2.5-3.1c-0.2-0.7-0.4-1.4-0.5-2.1c0.2-1.8,0.3-3.6,0.4-5.3c0.1-1.4,0.1-2.8-0.1-4.1c0.2-0.2,0.4-0.4,0.7-0.6
			c0.2-0.2,0.4-0.3,0.6-0.5c0.2-0.2,0.5-0.3,0.7-0.5c0,0,0.1,0,0.1,0c1.2,1.1,3.1,1.3,4.6,1.8c2.8,0.9,5.7,1.6,8.5,2.4
			c0.1,0,0.2,0,0.3,0.1c0.3,0.4,0.5,0.9,0.8,1.3c0.6,0.9,1,1.9,1.6,2.9c-1.8,1.3-3.6,2.7-5.5,4c-1.4,0.9-3.6,1.7-3.2,3.7
			c0,0,0,0,0,0c0,0,0,0,0,0c0,0,0,0,0,0c0,0.1-0.1,0.1-0.1,0.2c-0.5,0.7,0.5,1.7,1.2,1.2c1-0.7,2-1.1,3-1.6c0.2-0.1,0.4-0.2,0.7-0.4
			c0.2,0.5,0.4,0.9,0.8,1.4c0.5,0.5,1.3,0.5,1.8,0c0.2,0.2,0.6,0.2,0.9-0.1c0.3-0.2,0.7-0.5,1-0.6c0.3,0,0.2,0,0.4,0.3
			c0.4,1.2,2,1.5,2.7,0.4c0.3-0.5,0.6-1.1,0.8-1.8c0.2-0.2,0.4-0.4,0.5-0.7c0.5-1.3-0.2-2.7-0.8-3.8c-0.1-0.3-0.8-1-1.3-1.2
			c0-0.2,0-0.4,0-0.6c-0.2-1-0.9-1.9-1.5-2.7c-0.2-0.3-0.3-0.5-0.5-0.8c-0.1-0.1-0.2-0.2-0.4-0.3c0,0,0,0,0,0
			c-0.4-0.5-0.9-1.2-1.4-1.9c0.3-0.6,0.2-1.5-0.6-1.9c-0.3-0.2-0.7-0.4-1-0.5c-0.1-0.2-0.3-0.4-0.4-0.6
			C810.5,304.1,810.6,303.8,810.5,303.5z M811.8,318c0,0-0.1,0-0.1,0C811.7,318,811.7,318,811.8,318C811.8,318,811.8,318,811.8,318
			C811.8,318,811.8,318,811.8,318z"/>
		<path class="st4" d="M866.4,362C866.4,362,866.4,362,866.4,362C866.4,361.9,866.4,361.9,866.4,362
			C866.4,361.9,866.4,362,866.4,362z"/>
		<path class="st4" d="M866.4,362C866.4,362,866.4,362,866.4,362C866.4,362,866.4,362,866.4,362z"/>
		<path class="st4" d="M786.6,335.6c-0.2,2.4,0,4.7,0.2,7.1c0.3,4-0.4,8.1-0.1,12.1c0,0.5,0.6,0.6,0.9,0.2c0.1-0.1,0.2-0.3,0.2-0.4
			c0.1-0.1,0.2-0.2,0.3-0.3c0.1-0.2,0.2-0.4,0.3-0.6c0,0,0,0,0,0c1.6-0.8,3.1-2.8,3.6-4.4c0.2-0.6-0.1-1-0.5-1.2
			c0.3-4.2,0.1-8.4-0.1-12.6c0.2-0.2,0.3-0.4,0.5-0.6c0.5-0.9,0.4-1.5,0-2.4c-0.1-0.3-0.4-0.5-0.6-0.7c0-0.2,0-0.4,0-0.5
			c-0.1-2.2-0.4-4.4-1-6.6c-0.7-2.6-0.4-5.6-1.3-8.1c0-0.1-0.2-0.1-0.3,0c-0.9,1.5-0.8,3-0.8,4.7c-0.1,3-0.1,5.9,0,8.8
			c0,0.4,0,0.7,0.1,1.1c-2.4-0.2-4.8-0.6-7.3-0.9c-0.4-0.1-0.8,0.2-0.9,0.5c0,0-0.1,0-0.1,0c-0.9-0.3-1.4,0.7-1.1,1.4
			c0.8,1.7,3.2,2.4,4.9,2.8C784.4,335.1,785.5,335.4,786.6,335.6z"/>
	</g>
	<g>
		<path class="st5" d="M816.6,695.3c-0.2-2.1-0.7-4.2-1.3-6.2c-0.5-1.7-0.6-2.8-1.3-4.4c-0.1-0.1-0.1-0.8-0.2-0.9
			c0.7-1.7-2.2-4.2-4.7-3.8c-2.4,0.4-4.8-0.6-7.2-0.7c-1.9,0-3.9,1.1-5.3,2.2c-3.4,2.7-6,6.4-8.6,9.9c-0.7,0.9-0.6,1.8-0.1,2.6
			c-0.5,0.2-1,0.6-1.3,1c-1.5-1.3-4,0.2-3.1,2.2c0.2,1,0.9,2.1,1.3,2.9c0.4,0.7,0.8,1.6,0.9,2.4c0.1,0.7-0.3,1.1-0.7,1.5
			c0-0.1,0-0.2-0.1-0.2c-0.7-2.4-2.7-4-4.3-5.8c-0.2-0.2-0.5,0.1-0.4,0.3c0.8,1.4,1.5,2.8,2.2,4.2c0.9,1.8,1,3.1-1,4
			c-0.1,0-0.1,0.1-0.1,0.1c-0.3-1.2-0.8-2.4-1.3-3.5c-0.5-1-1-2.7-2.1-3.2c-0.2-0.1-0.5,0-0.5,0.3c0,0.7,0.4,1.3,0.7,2
			c0.4,1,0.8,2.1,1.1,3.2c0.2,0.6,0.3,1.3,0.4,2c-0.3,0.3-0.6,0.5-0.9,0.7c-0.1,0-0.1,0.1-0.2,0.1c-0.7-1.8-1.6-3.5-2.3-5.3
			c-0.4-1.1-1.3-1.6-2.4-1.4c-2.4,0.4-4.7,1.2-7.1,1.9c-2.4,0.8-5,0.5-7.4,1.2c-0.4,0.1-0.6,0.5-0.5,0.8c-0.1,0-0.2,0.1-0.2,0.2
			c-0.2,0.3-0.5,0.5-0.6,0.9c-0.1,0.5-0.1,1.1-0.1,1.6c0,0.5,0.3,1.3,0.8,1.5c0.3,0.1,0.6,0.2,0.9,0.3c0.5,0.4,1.2,0.6,1.8,0.8
			c1,2.5,4.6,3.7,7,4.3c3.7,0.9,7.5,0.7,11.2,0c2-0.3,4.3-1.1,6.6-2.1c2.4-0.2,4.6-0.7,7-1.6c2-0.7,4.3-0.6,6.3-1.6
			c0.8,0.4,1.4-0.2,2.4,0c1.5,0.3,3,0.5,4.5,0.7c3.1,0.4,5.8,0.3,8.2-1.8c0.9-0.8,1.1-1.8,0.8-2.7
			C816.9,702.5,817,698.9,816.6,695.3z"/>
		<path class="st5" d="M871.3,706c-0.3-0.6-1-0.9-1.6-0.9c-0.1-0.5-0.3-1.1-0.5-1.6c0,0,0,0,0,0c0.8-1.1-0.2-2.4-1.3-2.6
			c0.7-1.3,0.6-3.2-0.6-4.3c0.5-2.3-1-5.9-1.5-7.6c-0.6-2-1.7-5.8-3.9-7.1c0-0.4,0-0.9,0-1.2c0.2-1.5-2.3-1.6-2.4,0
			c0,0.1,0,0.2,0,0.2c-1.3-1.1-4-1.1-5.4-1.2c-0.5,0-1.3,0.3-1.5,0.9c-1,2.4-3.6,7-2.2,9.8c0,0.1-0.1,0.1-0.1,0.2
			c-0.1,0.3-0.1,0.6,0.1,0.8c-0.1-0.1,0,0,0,0.1c-0.7,0.7-1.4,1.6-1.5,2.4c-0.1,0.1-0.2,0.2-0.3,0.3c-0.1,0.1,0.1,0.3,0.2,0.2
			c0,0,0.1,0,0.1-0.1c0,0.1,0.1,0.2,0.3,0.2c1.4-0.4,2.4-2,3.5-3c0.1-0.1,0.2-0.2,0.3-0.3c0.6-0.1,1.2-0.2,1.8-0.4
			c0.9-0.3,1.8-0.4,2.7-0.5c-0.5,0.8-1.1,1.6-1.6,2.5c-2.7-0.1-5.3,1.1-6.8,3.3c-0.8,0.8-1.5,1.6-2.1,2.4c-0.3,0.3-0.5,0.8-0.3,1.3
			c0,0,0,0.1,0,0.1c-1,1.8-1.9,5-1.4,7.2c-0.1,0.7,0,1.5,0.5,2.1c0.8,1.2,2.5,1.9,3.9,1.6c4.3,2,10.3,2.1,13.9,0.9
			c1.1-0.3,2.2-0.9,3.2-1.5c0.3,0.1,0.7,0.2,1,0.1c0.3-0.1,0.5-0.2,0.7-0.4c0.5,0.1,1.1-0.1,1.5-0.5c0.3-0.3,0.5-0.6,0.7-1.1
			c0-0.1,0.1-0.1,0.1-0.2c0.1-0.1,0.2-0.2,0.3-0.2C871.6,707.6,871.7,706.6,871.3,706z M850.7,705.2c-0.1-0.3-0.2-0.6-0.2-0.9
			c-0.1-0.4-0.2-1-0.4-1.4c3.9,2.6,9.9,1.2,14.6,0.5C860.8,706.4,855.2,707.5,850.7,705.2z"/>
	</g>
	<g>
		<path class="st5" d="M841.4,322.5c-4.7,0-8.6-3.8-8.6-8.6c0-4.7,3.8-8.6,8.6-8.6c4.7,0,8.6,3.8,8.6,8.6
			C850,318.6,846.2,322.5,841.4,322.5z M841.4,306.9c-3.9,0-7,3.1-7,7c0,3.9,3.1,7,7,7c3.9,0,7-3.1,7-7
			C848.5,310,845.3,306.9,841.4,306.9z"/>
	</g>
	<path class="st5" d="M841.4,313.9V308c-3.3,0-5.9,2.7-5.9,5.9c0,0,0,0,0,0L841.4,313.9l0,5.9c3.3,0,5.9-2.7,5.9-5.9v0H841.4z"/>
	<g>
		<path class="st5" d="M830.3,332.3c-3.6,2.5-8.9,1.2-12.9,3.1c-1.1,0.5-0.1,2.2,1,1.7c0.2-0.1,0.4-0.2,0.6-0.3c0,0.2,0,0.3,0.1,0.5
			c1.3,2.4,3.5,4.3,5.4,6.3c1.5,1.6,3.3-0.2,4.5-1.2c1-0.8-0.4-2.2-1.4-1.4c-0.2,0.2-1.6,1.3-1.5,1.4c-0.4-0.2-0.8-0.8-1.1-1.2
			c-1.4-1.6-3.1-2.9-4.2-4.9c0,0,0,0,0,0c3.5-0.7,7.5-0.2,10.5-2.3C832.3,333.3,831.3,331.5,830.3,332.3z"/>
		<path class="st5" d="M830.5,293.5c-0.6,0.3-1.2,0.6-1.9,0.7c-0.5-0.6-1.3-0.9-2.2-0.9c-1.7,0-3,1.3-3,2.9c0,0.2,0,0.5,0.1,0.7
			c-2.5-0.1-4.7-1.3-6.2-3.1c-0.3,0.4-0.4,0.9-0.4,1.5c0,1,0.5,1.9,1.3,2.4c-0.5,0-1-0.1-1.4-0.4c0,0,0,0,0,0c0,0.4,0.1,0.7,0.2,1.1
			c0.4,0.9,1.2,1.6,2.2,1.8c-0.3,0.1-0.5,0.1-0.8,0.1c-0.2,0-0.4,0-0.6-0.1c0.4,1.2,1.5,2,2.8,2c-1,0.8-2.3,1.3-3.7,1.3
			c-0.2,0-0.5,0-0.7,0c1.3,0.8,2.9,1.3,4.6,1.3c4.7,0,7.5-3.2,8.3-6.6c0.1-0.6,0.2-1.2,0.2-1.8c0-0.1,0-0.3,0-0.4
			c0.6-0.4,1.1-0.9,1.5-1.5c-0.5,0.2-1.1,0.4-1.7,0.5C829.8,294.7,830.3,294.2,830.5,293.5z"/>
		<path class="st5" d="M811.8,312c-2.2,1.4-4.4,3-6.5,4.5c-1.8,1.3-4.1,2.5-5.5,4.2c-0.8,1,0.6,2.4,1.4,1.4c1.3-1.7,3.4-2.7,5.1-3.9
			c2.2-1.5,4.3-3.1,6.5-4.5C813.9,313,812.9,311.3,811.8,312z"/>
		<path class="st5" d="M799.6,311.5c-1.2-0.3-1.8,1.6-0.5,1.9c2,0.4,3.6,1.6,5.6,2.1c1.2,0.3,1.8-1.6,0.5-1.9
			C803.2,313.1,801.5,312,799.6,311.5z"/>
		<path class="st5" d="M809.3,311.2c-3.5-1.2-6.8-2.8-10.1-4.3c-1.1-0.5-2.1,1.2-1,1.7c3.5,1.6,7,3.2,10.6,4.5
			C810,313.6,810.5,311.7,809.3,311.2z"/>
		<path class="st5" d="M798.2,317.8c0.4,0.2,0.9,0.4,1.3,0.6c0.1,0.2,0.3,0.3,0.6,0.3c0.4,0.1,0.9-0.1,1.2-0.4
			c0.3-0.5,0.1-1-0.4-1.3c-0.5-0.4-1.1-0.5-1.7-0.9C798.1,315.4,797.1,317.1,798.2,317.8z"/>
		<path class="st5" d="M872.1,313.3c-2.6-3.1-5.6-5.9-8.4-8.9c-0.2-0.2-0.4-0.3-0.6-0.3c0-2.4,0-4.8-0.1-7.1c0-0.5-0.4-1-1-1
			c-1.4,0.1-2.9,0-4.3,0c0-0.1,0.1-0.1,0.1-0.2c0.5-2.1,0.3-4.3-0.2-6.4c-0.1-0.4-0.5-0.7-1-0.7c-4.8-0.1-9.5,1.6-14.3,1.7
			c-0.4,0-0.8,0.3-0.9,0.7c-1,3.7-1.6,7.3-1.5,11.1c-1.4,0-2.9,0.1-4.3,0.2c0-0.1,0-0.3,0-0.4c-0.6-3.8,0.1-7.8,0.8-11.5
			c0.1-0.5-0.1-1.1-0.7-1.2c-4.1-1-8.6-1.5-12.7-1.3c-1.4,0-2.7,0.3-4.1,0.4c-1.3,0.1-3.9,0.7-4.9-0.3c-0.7-0.6-1.6-0.1-1.7,0.6
			c-0.2,0.2-0.3,0.4-0.3,0.7c0,4.5-0.7,9-0.4,13.5c-1-1.7-2-3.5-3.1-5.2c-3.2-4.5-6.8-0.6-9.9,1.8c-3.8,2.9-9.4,3.9-11.8,8.5
			c-0.1,0.3-0.2,0.5-0.1,0.8c-0.1,0.2-0.1,0.4,0,0.7c2.4,5.9,6.2,11.4,10.3,16.2c0.8,1,2.2-0.4,1.4-1.4c-3.9-4.6-7.6-9.7-9.8-15.3
			c0,0,0,0,0-0.1c1.8-3.3,6.2-5,9.3-6.7c1.3-0.7,2.5-1.6,3.6-2.5c0.9-0.7,1.8-1.4,2.8-2c1.4-0.8,2.5,1.1,3.1,2
			c1,1.6,1.8,3.2,2.8,4.8c1.5,2.2,3.1,4.3,4.6,6.5c1.4,2.1,2.4,4.3,3.1,6.6c0.5,1.4-1.2,2.4-2.3,3.4c0,0-0.1,0.1-0.1,0.1
			c-0.1,0.1-0.1,0.1-0.2,0.2c-0.1,0.1-0.1,0.1-0.2,0.2c-0.5,0.5-0.3,1.5,0.4,1.6c0.7,0.1,1.5-0.5,1.8-1.1c0,0,0,0,0,0
			c1-0.9,2-1.7,2.5-2.9c0.3-0.6,0.2-1.4,0-2.3c1.9-0.4,3.9,0,5.9-0.1c0,4.5,0,9,0.1,13.5c0,0.6,0.4,1,1,1c0.9,0.1,1.7,0.2,2.6,0.3
			c1.3,0.1,1.3-1.9,0-2c-0.6-0.1-1.1-0.1-1.7-0.2c-0.2-8.2,0-16.3,0-24.5c8.9-0.9,17.8-1.1,26.7-0.3c0.5,3.5,0.4,7.1,0.4,10.6
			c0,2.2-0.2,4.5-0.5,6.7c-0.1,0.9-0.4,3.6-1.5,3.8c-1.2,0.2-0.7,2.1,0.5,1.9c2.6-0.5,3.1-4.6,3.3-7.5c1.9,0,3.6-0.1,5.3-0.8
			c0.4-0.2,0.7-0.5,0.7-0.9c0.1-3.9,0.3-7.9,0.3-11.8c2.3,2.5,4.7,4.8,7,7.3c-5.3,5.5-10.8,10.9-15.5,17c-0.2-0.2-0.4-0.5-0.6-0.7
			c-0.7-1.1-2.4-0.1-1.7,1c0.5,0.7,1,1.3,1.6,1.9c0.5,0.5,1.2,0.3,1.5-0.2c4.9-6.6,10.9-12.3,16.6-18.3
			C872.5,314.2,872.4,313.7,872.1,313.3z M833.7,302.5c-2.3,0.2-4.5,0.3-6.8,0.6c-0.6,0.1-0.9,0.6-0.9,1.1c0,0.1,0,0.1,0,0.2
			c0,3.5-0.1,7-0.1,10.5c-2.2,0.1-4.4-0.4-6.6,0.2c-0.4-0.9-0.9-1.7-1.1-2.2c-1.2-2.5-2.9-4.8-4.6-7c0.2-0.2,0.3-0.5,0.2-0.8
			c-0.7-4.8,0-9.8,0.2-14.6c2.2,0.8,5.2,0.1,7.2-0.2c4.2-0.5,9-0.1,13.2,0.9C833.6,294.8,833,298.7,833.7,302.5z M844.8,301.9
			c0,0.1,0,0.2,0.1,0.2c-1,0-2,0-3,0c-0.1-3.4,0.5-6.6,1.3-9.9c4.3-0.2,8.4-1.6,12.7-1.7c0.3,1.5,0.5,3.1,0.1,4.6
			c-0.1,0.3,0,0.5,0.1,0.7c-3-0.1-5.9-0.2-8.7,0.4C844.5,297,844.6,299.6,844.8,301.9z M860.8,317.6c-1.3,0.4-2.6,0.5-4,0.5
			c0-0.1,0-0.2,0-0.3c0.3-4.7,0.3-9.7-0.4-14.4c-0.1-0.5-0.5-0.7-1-0.7c-2.9-0.3-5.8-0.5-8.7-0.5c0-0.1,0-0.2,0-0.3
			c-0.1-0.9-0.2-1.9,0-2.8c0.2-1.1,2.4-1.1,3.2-1.1c3.7-0.3,7.4,0.1,11.1,0C861.2,304.5,861.1,311.1,860.8,317.6z"/>
	</g>
	<g>
		<path class="st5" d="M901,111.6c-1.7-3.9-12-23.4-38.7-15.4c-3.9-2.9-26.5-18.4-49.5-13.8c-12.7,2.6-23.2,10.9-31.1,24.8
			c-7.4,13-1.5,20.4,2.7,23.6c0.4,0.3,0.7,0.6,1.1,0.8c0,0,0,0.1,0,0.1c0,0.3,3.5,31.1-6.6,51.1c-12.6,25-11,52.3-11,52.6
			c0,0.5,0.3,0.9,0.7,1.1c0.2,0.1,0.5,0.2,0.7,0.2c0.2,0,0.4,0,0.6-0.1c9.4-4.5,35.4-15.2,42.5-11.5c0.5,0.5,1.1,0.9,1.6,1.4
			c0.2,0.1,0.4,0.3,0.7,0.6c8.7,7.4,18,11.2,27.8,11.2c3.6,0,7.2-0.5,11-1.5c8-2.2,14.9-5.5,20.7-9.8c0.1,0,0.2,0,0.2,0
			c0.2,0,18.4,1,26.4,18.5c0,0,0,0,0,0c0,0.1,0.1,0.2,0.2,0.3c0,0,0,0,0,0.1c0.1,0.1,0.1,0.1,0.2,0.2c0,0,0,0,0,0
			c0.1,0.1,0.2,0.1,0.3,0.1c0,0,0.1,0,0.1,0c0.1,0,0.3,0.1,0.4,0.1c0,0,0.1,0,0.1,0c0.1,0,0.1,0,0.2,0c0,0,0.1,0,0.1,0
			c0.1,0,0.1,0,0.2-0.1c0,0,0,0,0,0c0,0,0.1,0,0.1-0.1c0,0,0.1,0,0.1-0.1c0.1,0,0.1-0.1,0.1-0.1c0,0,0,0,0.1,0c0,0,0,0,0,0
			c0,0,0,0,0,0c0.4-0.5,22.6-24.7,24.9-69.3c0.2-3.4,0.4-6.7,0.5-9.7C930.6,130.2,931.2,120.2,901,111.6z M770.7,233.2
			c-0.1-6.7,0.5-28.7,10.8-49.1c9.1-18.1,7.7-43.7,7-50.8c5.5,2.7,12.3,3.9,18.5,3.8c-1.4,2.7-3.5,7.7-4.2,13.5
			c-0.6,4.1-1.2,10.2-1.8,15.5c-0.6,5.3-1.1,10.4-1.4,12c0,0.3-0.2,0.8-0.4,1.5c-2,6.3-7.7,24.3,9.7,42.1
			C797.6,221.3,777.4,230.1,770.7,233.2z M901.9,241.5c-7.2-12.7-19.5-16.2-24.8-17.1c2.9-2.6,5.5-5.5,7.8-8.8
			c0.2-0.2,0.3-0.4,0.4-0.6c0.1-0.2,0.3-0.4,0.5-0.7c7.7-10.3,12.4-18.9,14.2-25.8C905.3,205.8,908.1,225,901.9,241.5z M925.7,166.5
			c-0.2,3-0.4,6.3-0.5,9.7c-1.6,30.2-12.4,50.8-19,60.8c7.9-30.4-9.8-67.1-18.6-85.5c-5.2-10.9-4.8-17.4-3.5-20.8c1.4-3.7,4-5,4.1-5
			c0.7-0.3,1-1.1,0.7-1.8c-0.3-0.7-1.1-1-1.8-0.7c-0.2,0.1-3.7,1.6-5.6,6.5c-2.2,5.8-1,13.5,3.6,23.1c3.6,7.5,8.7,18.1,12.9,30.1
			c0.1,4.8-2.3,13.9-14.4,30c-0.2,0.3-0.4,0.6-0.6,0.8c-0.1,0.2-0.3,0.4-0.4,0.6c-6.7,9.7-16.7,16.4-29.8,19.9
			c-13,3.5-25.2,0.4-36.3-9.1c-0.3-0.2-0.5-0.4-0.7-0.6c-22.2-18.1-16.1-37.6-14-44c0.3-0.8,0.5-1.4,0.5-1.9
			c0.3-1.7,0.8-6.5,1.4-12.1c0.6-5.3,1.2-11.3,1.8-15.4c0.9-6.6,3.7-12.2,4.7-14.1c4.9-0.5,9.1-2,11.4-4.3c0.5-0.5,0.5-1.4,0-1.9
			c-0.5-0.5-1.4-0.5-1.9,0c-2,1.9-5.8,3.1-10.2,3.5c-0.1,0-0.3,0-0.4,0c-7.6,0.6-17.1-1.1-22.9-5.5c-6.1-4.7-6.8-11.7-2-20.1
			c7.5-13.2,17.4-21,29.3-23.4c23.5-4.7,47.6,13.5,47.9,13.7c0,0,0,0,0,0c0,0,0,0,0,0c0.9,0.7,5.2,4.7,7.8,7.3
			c0.3,0.3,0.6,0.4,1,0.4c0.4,0,0.7-0.1,1-0.4c0.5-0.5,0.5-1.4,0-1.9c-0.5-0.5-3.8-3.7-6.1-5.8c25.6-6.7,33.6,13.9,33.9,14.8
			c0,0,0,0,0,0c0,0,0,0,0,0c1.8,4.3,0.9,8.8,0.9,8.9c-0.2,0.7,0.3,1.5,1.1,1.6c0.1,0,0.2,0,0.3,0c0.6,0,1.2-0.4,1.3-1.1
			c0-0.2,0.7-3.7-0.3-7.9C928.3,122.6,927.8,130.8,925.7,166.5z"/>
		<path class="st5" d="M810.4,155.3c0,0,2.2-3.1,5.7-3.4c2.4-0.2,4.9,1,7.4,3.5c0.5,0.5,1.4,0.5,1.9,0c0.5-0.5,0.5-1.4,0-1.9
			c-3.1-3.1-6.3-4.6-9.6-4.3c-4.7,0.4-7.6,4.3-7.7,4.5c-0.4,0.6-0.3,1.5,0.3,1.9c0.2,0.2,0.5,0.3,0.8,0.3
			C809.7,155.9,810.1,155.7,810.4,155.3z"/>
		<path class="st5" d="M852.5,149.9c-0.7,0.1-1.2,0.8-1.1,1.6c0.1,0.7,0.8,1.2,1.6,1.1c5.1-0.9,20.1-2.2,22.1,3.1
			c0.2,0.5,0.7,0.9,1.3,0.9c0.2,0,0.3,0,0.5-0.1c0.7-0.3,1-1.1,0.8-1.8C874.4,146.4,854.8,149.5,852.5,149.9z"/>
		<path class="st5" d="M826.7,173.1c0.3,0.3,0.7,0.5,1.1,0.5c0.3,0,0.6-0.1,0.9-0.3c0.6-0.5,0.7-1.3,0.2-1.9c-3.2-4-6.6-5.9-10-5.7
			c-5.3,0.3-8.5,5.6-8.6,5.8c-0.4,0.6-0.2,1.5,0.5,1.9c0.6,0.4,1.5,0.2,1.9-0.5c0,0,2.7-4.3,6.5-4.5
			C821.5,168.3,824.1,169.9,826.7,173.1z"/>
		<path class="st5" d="M859.7,166.5c-5,0.4-8,5.5-8.2,5.8c-0.4,0.7-0.1,1.5,0.5,1.9c0.7,0.4,1.5,0.2,1.9-0.5c0,0,2.4-4.1,6-4.4
			c2.4-0.2,4.9,1.4,7.5,4.6c0.3,0.3,0.7,0.5,1.1,0.5c0.3,0,0.6-0.1,0.9-0.3c0.6-0.5,0.7-1.3,0.2-1.9
			C866.4,168.1,863.1,166.2,859.7,166.5z"/>
		<path class="st5" d="M862.8,200.7c-0.6-0.5-1.4-0.4-1.9,0.2c-3.6,4.5-12.1,5.4-22.9,2.5c-12.1-3.2-19.4,3.6-19.7,3.9
			c-0.5,0.5-0.6,1.4,0,1.9c0.3,0.3,0.6,0.4,1,0.4c0.3,0,0.6-0.1,0.9-0.3c3.8,6.7,8.6,10.4,14,10.8c0.4,0,0.7,0,1.1,0
			c10.2,0,19.4-11.1,21.1-13.3c2.8-0.9,5.1-2.3,6.7-4.3C863.5,202.1,863.4,201.2,862.8,200.7z M834.4,217.5c-4.6-0.4-8.6-3.6-12-9.7
			c2.7-1.6,7.9-3.6,14.9-1.7c5.6,1.5,10.6,2,14.7,1.6C848.5,211.6,841.5,218,834.4,217.5z"/>
	</g>
	<g>
		<path class="st5" d="M902.9,291.2c-2.9-17.9-40.3-23.7-45.5-24.4c0.5-14.8,5.7-34,5.8-34.2c0.2-0.7-0.2-1.5-1-1.7
			c-0.7-0.2-1.5,0.2-1.7,1c-0.3,0.9-6.1,22.5-5.9,38c-3.4,1-15,3.7-19.5-2c1.2-3.8,6.6-21.8,3.7-31c-0.2-0.7-1-1.1-1.7-0.9
			c-0.7,0.2-1.1,1-0.9,1.7c2.2,6.9-1.1,20.2-2.9,26.5c0,0-0.1,0-0.1,0c-1.1-0.3-27.1-6.7-43.2,5.2c-7.4,5.4-11.4,13.8-12,24.8
			c0,0.3-2.9,32-3,33.7c-0.1,1.5,1.5,2.3,3.2,3c1.9,0.8,6.6,2,10.3,2c0.8,0,1.6-0.1,2.3-0.2c0.3,4.5,0.6,10.7,0.7,17.3
			c0,0.7,0.6,1.3,1.4,1.3c0,0,0,0,0,0c0.8,0,1.4-0.6,1.3-1.4c-0.2-13.4-1.2-24.9-1.3-25.1c-0.1-0.8-0.7-1.3-1.5-1.2
			c-0.7,0.1-1.3,0.7-1.2,1.5c0,0,0.2,1.8,0.4,4.8c-0.3,0.1-0.9,0.3-2.1,0.2c-3.9,0-9.4-1.6-10.7-2.5c0.4-4.3,3-32.9,3-33.2
			c0.6-10.2,4.2-17.9,10.9-22.8c14.9-11,40.3-4.9,40.9-4.7c-0.2,0.5-0.3,0.9-0.3,0.9c-0.1,0.4-0.1,0.8,0.2,1.2
			c2.7,4.1,7.6,5.2,12.2,5.2c5.8,0,11.3-1.8,11.7-1.9c0.6-0.2,0.9-0.7,0.9-1.3c0-0.4,0-0.8,0-1.2c5.8,0.8,40.3,6.6,42.8,22.1
			c1.2,7.5,3.3,27.9-2.9,56.6l-22.7-4.7c0.7-4.7,3-20.4,2.4-25.4c-0.1-0.7-0.8-1.3-1.5-1.2c-0.7,0.1-1.3,0.8-1.2,1.5
			c0.6,5.3-2.6,25.7-2.6,25.9c-0.1,0.7,0.4,1.4,1.1,1.5l25.3,5.3c0.1,0,0.2,0,0.3,0c0.6,0,1.2-0.4,1.3-1.1
			C906.4,320.3,904.2,299,902.9,291.2z"/>
		<path class="st5" d="M870.8,388.6c0.2-0.7-0.3-1.5-1-1.6c-0.7-0.2-1.5,0.3-1.6,1c-0.2,0.7-3.8,17,3.3,43.7
			c8.6,32.1,10.5,83.3,10.8,91.5c-41.1,8.7-66.3,5.5-80.1,1.3c-13.7-4.2-19.3-10.2-20.3-11.3c-0.9-3.6-9.2-40.8,3.8-96.3
			c2.6-10.9,4.6-21.7,6.1-32.1c0.1-0.7-0.4-1.4-1.2-1.5c-0.7-0.1-1.4,0.4-1.5,1.2c-1.4,10.3-3.5,21-6,31.9
			c-13.8,58.8-3.8,97.5-3.7,97.9c0,0.2,0.1,0.3,0.2,0.5c0.2,0.3,5.7,7.5,21.5,12.4c7.7,2.4,18.7,4.5,33.9,4.5
			c13.1,0,29.3-1.6,49.1-5.8c0.6-0.1,1.1-0.7,1.1-1.4c0-0.6-1.5-58.1-10.9-93.2C867.2,405,870.7,388.8,870.8,388.6z"/>
	</g>
	<g>
		<path class="st5" d="M817.8,527.7C817.8,527.7,817.8,527.7,817.8,527.7c-0.8,0-1.4,0.6-1.4,1.4c0,0.6-0.5,59.8-3.4,88.9
			c-1.6,16.1-1.7,55-1.7,60.6c-2.1,1.3-7.2,0.2-10.6-1c-3.7-20.6-1.8-150.6-1.8-152c0-0.8-0.6-1.4-1.3-1.4c0,0,0,0,0,0
			c-0.7,0-1.4,0.6-1.4,1.3c-0.1,5.5-1.9,135,2,153.3c0.1,0.4,0.4,0.8,0.8,1c0.7,0.3,5.3,2.1,9.4,2.1c2,0,3.9-0.4,5.2-1.7
			c0.3-0.3,0.4-0.6,0.4-1c0-0.4-0.1-43.8,1.7-60.9c3-29.3,3.4-88.6,3.4-89.2C819.1,528.3,818.5,527.7,817.8,527.7z"/>
		<path class="st5" d="M869.2,525.5c-0.8,0-1.4,0.6-1.4,1.4c0,24.5-3.2,80-5.3,116.8c-1.1,18.3-1.8,31.6-1.9,35.3
			c-0.9,0.4-4.2,0.3-7.7-0.2c0.9-17-3.2-143.1-3.4-148.6c0-0.8-0.7-1.4-1.4-1.3c-0.8,0-1.3,0.7-1.3,1.4c0,1.4,4.6,139.9,3.3,149.5
			c-0.1,0.7,0.4,1.4,1.1,1.5c1.5,0.3,4.4,0.7,6.9,0.7c1.8,0,3.5-0.2,4.4-1c0.5-0.5,0.8-1.1,0.9-1.8c0-3.3,0.8-17.5,1.9-35.4
			c2.1-36.8,5.3-92.3,5.3-116.9C870.5,526.1,869.9,525.5,869.2,525.5z"/>
	</g>
	<g>
		<path class="st5" d="M814,678.8c-0.2-0.7-0.9-1.2-1.6-1c-0.7,0.2-1.2,0.9-1,1.6c0,0.1,1.8,7.6,3.5,16.7c1.4,7.9,0,10-1.3,11.8
			c-0.1,0.2-0.3,0.4-0.4,0.6c-1.1,1.1-8.9,0.5-11.4,0.3c-1.3-0.1-2.3-0.2-3-0.2c0,0,0,0,0,0c-1,0-2.5,0.5-5.5,1.6
			c-6.6,2.3-17.6,6.2-26,3.2c-4.2-1.5-6.9-3.4-7.8-5.6c-0.4-1.1-0.3-2-0.2-2.6c19.2-1.6,27.5-9.4,30.1-12.8
			c3.4-4.2,11.2-13,11.3-13.1c0.5-0.6,0.4-1.4-0.1-1.9c-0.6-0.5-1.4-0.4-1.9,0.1c-0.1,0.1-7.9,8.9-11.3,13.2
			c-2.5,3.1-10.3,10.5-29.1,11.8c-0.5,0-0.9,0.3-1.1,0.7c-0.1,0.1-1.4,2.5-0.2,5.5c1.2,3,4.3,5.5,9.5,7.3c2.5,0.9,5.1,1.2,7.8,1.2
			c7.4,0,14.9-2.7,20-4.4c2-0.7,4-1.4,4.6-1.4c0,0,0,0,0,0c0.6,0,1.7,0.1,2.9,0.2c8.2,0.6,12.6,0.5,13.9-1.5
			c0.1-0.2,0.2-0.4,0.4-0.6c1.5-2.2,3.3-4.9,1.7-13.9C815.9,686.5,814,678.9,814,678.8z"/>
		<path class="st5" d="M868,694.8c-0.9-1.7-1.6-3.1-1.9-4c-1.3-3.7-2.7-11.1-2.8-11.2c-0.1-0.7-0.9-1.2-1.6-1.1
			c-0.7,0.1-1.2,0.9-1.1,1.6c0.1,0.3,1.5,7.7,2.9,11.6c0.4,1.1,1.1,2.6,2,4.4c2,3.9,5.7,11.1,3.9,13.1c-2.3,2.7-20.2,1.7-22.5,0.4
			c-1.9-1.3-0.3-8.3,2.4-13.7c2.4-4.8,3.5-14.8,3.6-15.2c0.1-0.7-0.5-1.4-1.2-1.5c-0.8-0.1-1.4,0.5-1.5,1.2c0,0.1-1.2,10-3.3,14.3
			c-0.3,0.6-6.7,13.6-1.5,17.2c1.3,0.9,7.6,1.8,13.7,1.8c5.4,0,10.6-0.7,12.4-2.7C874.4,707.5,870.8,700.5,868,694.8z"/>
	</g>
	<path class="st5" d="M820.2,324.2c-0.7-1.1-1.6-1.4-2.2-1.4c-0.4,0-0.8,0.1-1.1,0.2c0-0.7-0.1-1.3-0.3-1.7c-0.4-0.7-1-1.1-1.8-1.2
		c-1-0.1-2.1,0.6-3,1.3c-0.1-1-0.5-1.3-0.7-1.5c-1.8-1.5-4.2,0.3-5.4,1.5c-0.1-0.3-0.2-0.6-0.3-0.8c-0.4-0.8-1-1.3-1.9-1.6
		c-3.6-1.1-5.9,5.8-8.4,13.2c-0.4,1.1-0.7,2.2-1.1,3.2c-0.7,1.9-0.6,3.7,0.2,5.3c0.9,1.7,2.6,2.8,3.9,3.4c-1.1,1.5-2.4,2.5-3.5,3.3
		c-0.6,0.4-1.2,0.8-1.6,1.3c-15.6,14.8-14.1,23.6-14,23.9c0.1,0.6,0.7,1.1,1.3,1.1c0.1,0,0.2,0,0.3,0c0.7-0.1,1.2-0.9,1.1-1.6
		c0-0.1-1.1-7.8,13.2-21.4c0.3-0.3,0.8-0.7,1.4-1.1c1.5-1.1,3.6-2.6,5.1-5.4c0,0,0,0,0,0c0,0,0-0.1,0.1-0.1c0.1-0.1,0.1-0.2,0.1-0.3
		c0,0,0,0,0,0c0,0,0-0.1,0-0.1c0,0,0-0.1,0-0.1c0,0,0-0.1,0-0.1c0,0,0-0.1,0-0.1c0,0,0-0.1,0-0.1c0,0,0-0.1,0-0.1c0,0,0-0.1-0.1-0.1
		c0,0,0-0.1-0.1-0.1c0,0,0-0.1-0.1-0.1c0,0,0-0.1-0.1-0.1c0,0-0.1-0.1-0.1-0.1c0,0-0.1-0.1-0.1-0.1c0,0-0.1-0.1-0.1-0.1
		c0,0,0,0-0.1,0c0,0,0,0,0,0c0,0-0.1,0-0.1-0.1c0,0-0.1,0-0.1,0c0,0,0,0,0,0c0,0-2.9-0.8-3.9-2.7c-0.5-0.9-0.5-1.9-0.1-3.1
		c0.3-1,0.7-2.1,1.1-3.2c1.2-3.5,3.6-10.8,5-11.4c0.1,0.1,0.2,0.1,0.2,0.2c0.4,0.8,0.3,3.3-2.4,10.9c-0.3,0.7,0.1,1.5,0.8,1.7
		c0.7,0.3,1.5-0.1,1.7-0.8c1.5-4.3,2.3-7.2,2.6-9.2c0.4,0.1,0.9-0.1,1.2-0.4c0.7-0.8,1.7-1.5,2.2-1.8c0.1,1.9-1.2,7.5-2.6,12.2
		c-0.2,0.7,0.2,1.5,0.9,1.7c0.1,0,0.3,0.1,0.4,0.1c0.6,0,1.1-0.4,1.3-1c1.3-4.6,2-7.7,2.4-9.9c0.2-0.1,0.5-0.2,0.7-0.4
		c0.6-0.8,1.5-1.5,2-1.8c0.1,1.8-1.2,7.4-2.7,12.1c-0.2,0.7,0.2,1.5,0.9,1.7c0.1,0,0.3,0.1,0.4,0.1c0.6,0,1.1-0.4,1.3-1
		c0.9-3,1.9-6.5,2.4-9.3c0.2-0.1,0.4-0.2,0.6-0.4c0.2-0.2,0.5-0.5,0.7-0.6c0,0,0,0,0,0.1c0.6,1.8-3,13-4.6,16.4
		c-0.8,1.6-4,1.5-5.1,1.3c-0.7-0.1-1.4,0.4-1.6,1.1c-0.1,0.7,0.4,1.4,1.1,1.6c0.1,0,0.8,0.1,1.8,0.1c0.2,0,0.4,0,0.6,0
		c-2.4,5.9-12.6,29.6-21.5,35.9c-2.9,2.1-4.5,1.3-5.6,0.6c-4.4-3.2-6-14.8-5.2-17.2c1.3-3.9,1.4-33,1.5-36.3c0-0.8-0.6-1.4-1.4-1.4
		c0,0,0,0,0,0c-0.7,0-1.4,0.6-1.4,1.4c-0.1,12.8-0.5,32.8-1.3,35.5c-1,3.1,0.6,16.1,6.2,20.2c0.9,0.7,2.2,1.3,3.8,1.3
		c1.4,0,3.1-0.5,5-1.8c10.8-7.7,22.5-37.2,23-38.5c0-0.1,0.1-0.2,0.1-0.4c1-0.4,1.9-1.2,2.4-2.3C816.2,342,822,327.3,820.2,324.2z"
		/>
	<path class="st5" d="M895.5,348.2c-0.7,0-1.4,0.5-1.4,1.3c-0.5,8-6.5,20.6-15.8,32.9c-2.6,3.5-5.7,5.1-9,4.8
		c-5.8-0.5-11.3-6.7-12.6-9.1c-2.1-4.1-18.4-26.3-23.9-32.1c-3.5-3.7-3.5-5.5-3.2-5.9c0.3-0.2,0.4-0.6,0.5-0.9
		c0.7-0.7,2.2-2.6,2.1-6.1c0-0.6,0-1.2-0.1-1.9c-0.1-1.9-0.2-6.1,0.3-7.4c1.2,1.2,3,7.1,2.6,10.8c-0.1,0.7,0.5,1.4,1.2,1.5
		c0.7,0.1,1.4-0.5,1.5-1.2c0.2-1.4,0-3.2-0.3-5.1c0.2-0.2,0.3-0.6,0.3-0.9c-0.1-2.4,0.5-4.8,1.4-5.6c0.2-0.2,0.5-0.3,0.7-0.3
		c0.7,1,0.8,5.6,0.3,10.1c-0.1,0.7,0.5,1.4,1.2,1.5c0.1,0,0.1,0,0.2,0c0.7,0,1.3-0.5,1.4-1.2c0.1-1,0.3-3.1,0.3-5.4
		c0.1-0.1,0.1-0.3,0.2-0.4c0.5-2.4,1.5-4.6,2.1-5.2c0.5,1.4,0.5,5.7,0,9.8c-0.1,0.7,0.5,1.4,1.2,1.5c0.1,0,0.1,0,0.2,0
		c0.7,0,1.3-0.5,1.4-1.2c0.2-1.8,0.5-4.9,0.3-7.7c0.2-0.2,0.4-0.4,0.5-0.7c0.2-0.7,0.9-1.8,1.6-2c0.9,1.7,0.6,9.3-0.8,11.7
		c-1.6,2.9-6.5,6.5-13.5,7.6c-0.7,0.1-1.3,0.8-1.1,1.6c0.1,0.7,0.7,1.2,1.3,1.2c0.1,0,0.1,0,0.2,0c2.3-0.4,4.4-1,6.3-1.7
		c1.6,2.2,8,10.2,14.5,14.9c7.8,5.5,14.2,14.7,14.3,14.8c0.3,0.4,0.7,0.6,1.1,0.6c0.3,0,0.5-0.1,0.8-0.2c0.6-0.4,0.8-1.3,0.3-1.9
		c-0.1-0.1-0.8-1.1-1.9-2.5c4.7-5.7,8.5-21,8.7-21.7c0.2-0.7-0.3-1.5-1-1.7c-0.7-0.2-1.5,0.3-1.7,1c0,0.2-3.7,14.6-7.8,20.2
		c-2.7-3.2-6.7-7.5-11.3-10.7c-5.8-4.1-11.6-11.3-13.6-13.8c3.2-1.8,5.5-4,6.7-6.1c1.6-2.8,2.3-11.2,0.8-14.3
		c-0.5-1.1-1.2-1.4-1.8-1.5c-1.4-0.2-2.6,0.5-3.5,1.5c-0.1-0.3-0.3-0.6-0.5-0.8c-0.4-0.5-1-0.7-1.6-0.7c0,0,0,0,0,0
		c-1.4,0-2.5,1.1-3.3,2.5c-0.1-0.4-0.3-0.7-0.5-0.9c-0.6-0.7-1.2-0.9-1.7-0.9c-1.1-0.1-2.1,0.3-2.9,1.1c-0.7,0.7-1.2,1.6-1.6,2.7
		c-0.4-0.8-0.8-1.5-1.3-2c-0.8-0.9-1.6-1-2.2-1c-3.2,0.2-3,5.3-2.8,10.3c0,0.7,0.1,1.3,0.1,1.9c0.1,2.9-1.3,4.1-1.4,4.2
		c-0.3,0.2-0.5,0.6-0.5,0.9c-0.3,0.3-0.7,0.9-0.8,1.9c-0.2,2.1,1.2,4.7,4.1,7.7c5.8,6.1,21.6,27.8,23.5,31.4
		c1.3,2.5,7.3,10,14.7,10.6c0.4,0,0.7,0,1.1,0c3.9,0,7.4-2,10.4-6c9.7-12.9,15.8-25.8,16.4-34.4
		C896.8,348.9,896.3,348.2,895.5,348.2z"/>
</g>
</svg>
