<?xml version="1.0" encoding="utf-8"?>
<!-- Generator: Adobe Illustrator 19.2.0, SVG Export Plug-In . SVG Version: 6.00 Build 0)  -->
<svg version="1.1" id="Layer_1" xmlns="http://www.w3.org/2000/svg" xmlns:xlink="http://www.w3.org/1999/xlink" x="0px" y="0px"
	 viewBox="0 0 1024 768" style="enable-background:new 0 0 1024 768;" xml:space="preserve">
<style type="text/css">
	.st0{fill:#DCF0FB;}
	.st1{fill:#336699;}
	.st2{fill:#F2F2F2;}
	.st3{fill:#233267;}
	.st4{fill:#E4EFF4;stroke:#233267;stroke-width:3;stroke-miterlimit:10;}
	.st5{fill:#FFFFFF;}
	.st6{fill:#D2EAF7;}
	.st7{fill:#B7DAEA;}
	.st8{fill:#E4EFF4;}
	.st9{fill:none;stroke:#233267;stroke-width:3;stroke-miterlimit:10;}
	.st10{filter:url(#Adobe_OpacityMaskFilter);}
	.st11{opacity:0.3;mask:url(#SVGID_1_);}
	.st12{fill:#190C0C;}
	.st13{fill:none;stroke:#190C0C;stroke-width:3;stroke-miterlimit:10;}
</style>
<rect class="st0" width="1024" height="768"/>
<g>
	<path class="st1" d="M93.5,298.5v50h-4.8v-50H93.5z"/>
	<path class="st1" d="M107.4,312.4v6.2h0.1c0.8-2.2,2.3-4,4.5-5.3c2.1-1.3,4.5-2,7.1-2c2.5,0,4.6,0.3,6.3,1c1.7,0.7,3.1,1.6,4.1,2.8
		c1,1.2,1.8,2.6,2.2,4.4s0.6,3.7,0.6,5.8v23.2h-4.4v-22.5c0-1.5-0.1-3-0.4-4.3c-0.3-1.3-0.8-2.5-1.5-3.5c-0.7-1-1.6-1.8-2.8-2.3
		c-1.2-0.6-2.7-0.8-4.4-0.8c-1.8,0-3.3,0.3-4.7,0.9c-1.4,0.6-2.5,1.5-3.5,2.6c-1,1.1-1.7,2.4-2.2,3.9c-0.5,1.5-0.8,3.2-0.9,4.9v21.1
		H103v-36.1H107.4z"/>
	<path class="st1" d="M141.5,312.4l11.3,31.7h0.1l11.2-31.7h4.5l-13.5,36.1h-4.7l-13.9-36.1H141.5z"/>
	<path class="st1" d="M176.3,336.6c0.4,1.7,1.2,3.2,2.1,4.6s2.2,2.5,3.7,3.4c1.5,0.9,3.3,1.3,5.4,1.3c3.2,0,5.7-0.8,7.6-2.5
		c1.8-1.7,3.1-3.9,3.8-6.7h4.4c-0.9,4.1-2.6,7.3-5.1,9.5c-2.5,2.2-6,3.4-10.6,3.4c-2.8,0-5.3-0.5-7.4-1.5c-2.1-1-3.8-2.4-5.1-4.1
		c-1.3-1.8-2.3-3.8-2.9-6.1c-0.6-2.3-0.9-4.7-0.9-7.3c0-2.4,0.3-4.7,0.9-7c0.6-2.3,1.6-4.3,2.9-6.1c1.3-1.8,3-3.2,5.1-4.3
		c2.1-1.1,4.5-1.6,7.4-1.6c2.9,0,5.4,0.6,7.4,1.8c2.1,1.2,3.7,2.7,5,4.6c1.3,1.9,2.2,4.1,2.8,6.5s0.8,4.9,0.7,7.5h-27.8
		C175.7,333.2,175.9,334.8,176.3,336.6z M198.2,323.1c-0.5-1.5-1.3-2.9-2.3-4.1c-1-1.2-2.2-2.1-3.6-2.9c-1.4-0.7-3-1.1-4.8-1.1
		c-1.8,0-3.4,0.4-4.8,1.1c-1.4,0.7-2.6,1.7-3.6,2.9c-1,1.2-1.8,2.6-2.3,4.1c-0.6,1.6-1,3.2-1.2,4.8H199
		C199,326.2,198.7,324.6,198.2,323.1z"/>
	<path class="st1" d="M230.2,319.4c-0.5-1-1.2-1.8-2.1-2.5c-0.9-0.7-1.9-1.1-3-1.4c-1.1-0.3-2.3-0.5-3.6-0.5c-1,0-2,0.1-3,0.3
		c-1,0.2-1.9,0.6-2.8,1c-0.8,0.5-1.5,1.1-2,1.9c-0.5,0.8-0.8,1.8-0.8,2.9c0,1,0.2,1.8,0.7,2.5c0.5,0.7,1.1,1.2,1.9,1.7
		c0.7,0.5,1.6,0.9,2.4,1.2c0.9,0.3,1.7,0.5,2.5,0.7l5.9,1.3c1.3,0.2,2.5,0.5,3.7,1c1.2,0.5,2.3,1.1,3.3,1.9c1,0.8,1.7,1.8,2.3,2.9
		c0.6,1.2,0.9,2.5,0.9,4.1c0,2-0.4,3.6-1.3,5c-0.9,1.4-2,2.5-3.4,3.4c-1.4,0.9-2.9,1.5-4.7,1.9c-1.7,0.4-3.4,0.6-5.1,0.6
		c-4.2,0-7.7-1-10.3-3c-2.6-2-4.1-5.2-4.5-9.7h4.4c0.2,3,1.3,5.2,3.3,6.8c2,1.5,4.4,2.3,7.4,2.3c1.1,0,2.2-0.1,3.3-0.3
		c1.1-0.2,2.2-0.6,3.2-1.2c1-0.6,1.8-1.3,2.4-2.1c0.6-0.9,0.9-1.9,0.9-3.2c0-1.1-0.2-2-0.7-2.7c-0.4-0.7-1-1.3-1.8-1.8
		c-0.7-0.5-1.6-0.9-2.6-1.2c-1-0.3-1.9-0.6-2.9-0.8l-5.7-1.3c-1.4-0.4-2.8-0.8-4-1.3c-1.2-0.5-2.3-1.1-3.2-1.8s-1.6-1.6-2.1-2.7
		c-0.5-1-0.8-2.3-0.8-3.9c0-1.8,0.4-3.4,1.2-4.7c0.8-1.3,1.9-2.4,3.2-3.2c1.3-0.8,2.8-1.4,4.4-1.8c1.6-0.4,3.2-0.6,4.8-0.6
		c1.8,0,3.5,0.2,5.1,0.7c1.6,0.5,2.9,1.2,4.1,2.2c1.2,1,2.1,2.2,2.8,3.6c0.7,1.4,1.1,3.2,1.2,5.1H231
		C231,321.6,230.7,320.4,230.2,319.4z"/>
	<path class="st1" d="M257.4,312.4v3.7h-7.3v24.4c0,1.4,0.2,2.6,0.6,3.4c0.4,0.8,1.4,1.3,3,1.4c1.3,0,2.5-0.1,3.8-0.2v3.7
		c-0.7,0-1.3,0-2,0.1c-0.7,0-1.3,0.1-2,0.1c-2.9,0-5-0.6-6.2-1.7c-1.2-1.1-1.7-3.3-1.7-6.3v-24.7h-6.3v-3.7h6.3v-10.8h4.4v10.8
		H257.4z"/>
	<path class="st1" d="M268.3,298.5v7.1h-4.4v-7.1H268.3z M268.3,312.4v36.1h-4.4v-36.1H268.3z"/>
	<path class="st1" d="M281.1,312.4v6.2h0.1c0.8-2.2,2.3-4,4.5-5.3c2.1-1.3,4.5-2,7.1-2c2.5,0,4.6,0.3,6.3,1c1.7,0.7,3.1,1.6,4.1,2.8
		c1,1.2,1.8,2.6,2.2,4.4s0.6,3.7,0.6,5.8v23.2h-4.4v-22.5c0-1.5-0.1-3-0.4-4.3c-0.3-1.3-0.8-2.5-1.5-3.5c-0.7-1-1.6-1.8-2.8-2.3
		c-1.2-0.6-2.7-0.8-4.4-0.8c-1.8,0-3.3,0.3-4.7,0.9c-1.4,0.6-2.5,1.5-3.5,2.6c-1,1.1-1.7,2.4-2.2,3.9c-0.5,1.5-0.8,3.2-0.9,4.9v21.1
		h-4.4v-36.1H281.1z"/>
	<path class="st1" d="M344,352.8c-0.6,2.1-1.5,4-2.8,5.5c-1.3,1.5-2.9,2.6-4.9,3.4c-2,0.8-4.5,1.2-7.5,1.2c-1.8,0-3.6-0.2-5.3-0.6
		c-1.7-0.4-3.3-1.1-4.7-2c-1.4-0.9-2.5-2-3.4-3.4c-0.9-1.4-1.4-3-1.6-4.9h4.4c0.2,1.4,0.7,2.5,1.4,3.4c0.7,0.9,1.5,1.6,2.5,2.2
		c1,0.6,2,1,3.2,1.2c1.2,0.3,2.4,0.4,3.6,0.4c4.1,0,7.1-1.2,8.9-3.5c1.8-2.3,2.7-5.7,2.7-10.1v-4.9h-0.1c-1,2.2-2.5,4-4.5,5.4
		c-2,1.4-4.3,2-7,2c-2.9,0-5.4-0.5-7.4-1.4c-2.1-1-3.7-2.3-5.1-4c-1.3-1.7-2.3-3.7-2.9-5.9c-0.6-2.3-0.9-4.7-0.9-7.2
		c0-2.5,0.4-4.8,1.1-7c0.7-2.2,1.8-4.2,3.2-5.8c1.4-1.7,3.1-3,5.1-3.9c2-1,4.4-1.4,7-1.4c1.4,0,2.6,0.2,3.8,0.6
		c1.2,0.4,2.3,0.9,3.3,1.6c1,0.7,1.9,1.5,2.6,2.3c0.8,0.9,1.4,1.8,1.8,2.8h0.1v-6.2h4.4v33.2C344.9,348.2,344.6,350.6,344,352.8z
		 M333.9,343.1c1.4-0.8,2.7-1.9,3.6-3.2s1.7-2.9,2.2-4.6c0.5-1.7,0.7-3.5,0.7-5.3c0-1.8-0.2-3.5-0.6-5.3c-0.4-1.8-1.1-3.4-2-4.8
		c-0.9-1.4-2.1-2.6-3.6-3.5c-1.5-0.9-3.3-1.3-5.4-1.3s-3.9,0.4-5.4,1.3c-1.5,0.9-2.7,2-3.7,3.4c-1,1.4-1.7,3-2.1,4.8
		c-0.4,1.8-0.7,3.6-0.7,5.5c0,1.8,0.2,3.6,0.7,5.3c0.5,1.7,1.2,3.3,2.2,4.6s2.2,2.4,3.7,3.2c1.5,0.8,3.3,1.2,5.3,1.2
		C330.7,344.4,332.4,343.9,333.9,343.1z"/>
	<path class="st1" d="M377.2,298.5v7.1h-4.4v-7.1H377.2z M377.2,312.4v36.1h-4.4v-36.1H377.2z"/>
	<path class="st1" d="M406.5,319.4c-0.5-1-1.2-1.8-2.1-2.5c-0.9-0.7-1.9-1.1-3-1.4c-1.1-0.3-2.3-0.5-3.6-0.5c-1,0-2,0.1-3,0.3
		c-1,0.2-1.9,0.6-2.8,1c-0.8,0.5-1.5,1.1-2,1.9c-0.5,0.8-0.8,1.8-0.8,2.9c0,1,0.2,1.8,0.7,2.5c0.5,0.7,1.1,1.2,1.9,1.7
		c0.7,0.5,1.6,0.9,2.4,1.2c0.9,0.3,1.7,0.5,2.5,0.7l5.9,1.3c1.3,0.2,2.5,0.5,3.7,1c1.2,0.5,2.3,1.1,3.3,1.9c1,0.8,1.7,1.8,2.3,2.9
		c0.6,1.2,0.9,2.5,0.9,4.1c0,2-0.4,3.6-1.3,5c-0.9,1.4-2,2.5-3.4,3.4c-1.4,0.9-2.9,1.5-4.7,1.9c-1.7,0.4-3.4,0.6-5.1,0.6
		c-4.2,0-7.7-1-10.3-3c-2.6-2-4.1-5.2-4.5-9.7h4.4c0.2,3,1.3,5.2,3.3,6.8c2,1.5,4.4,2.3,7.4,2.3c1.1,0,2.2-0.1,3.3-0.3
		c1.1-0.2,2.2-0.6,3.2-1.2c1-0.6,1.8-1.3,2.4-2.1c0.6-0.9,0.9-1.9,0.9-3.2c0-1.1-0.2-2-0.7-2.7c-0.4-0.7-1-1.3-1.8-1.8
		c-0.7-0.5-1.6-0.9-2.6-1.2c-1-0.3-1.9-0.6-2.9-0.8l-5.7-1.3c-1.4-0.4-2.8-0.8-4-1.3c-1.2-0.5-2.3-1.1-3.2-1.8s-1.6-1.6-2.1-2.7
		c-0.5-1-0.8-2.3-0.8-3.9c0-1.8,0.4-3.4,1.2-4.7c0.8-1.3,1.9-2.4,3.2-3.2c1.3-0.8,2.8-1.4,4.4-1.8c1.6-0.4,3.2-0.6,4.8-0.6
		c1.8,0,3.5,0.2,5.1,0.7c1.6,0.5,2.9,1.2,4.1,2.2c1.2,1,2.1,2.2,2.8,3.6c0.7,1.4,1.1,3.2,1.2,5.1h-4.4
		C407.2,321.6,407,320.4,406.5,319.4z"/>
	<path class="st1" d="M91.6,396.4v6.9h0.1c1-2.5,2.7-4.5,5-5.8c2.3-1.4,4.9-2.1,7.9-2.1c2.8,0,5.1,0.5,7.2,1.5c2,1,3.7,2.4,5.1,4.2
		c1.4,1.8,2.4,3.8,3,6.1c0.7,2.3,1,4.7,1,7.3s-0.3,5-1,7.3c-0.7,2.3-1.7,4.3-3,6.1c-1.4,1.8-3,3.1-5.1,4.1c-2,1-4.4,1.5-7.2,1.5
		c-1.3,0-2.6-0.2-3.9-0.5c-1.3-0.3-2.5-0.8-3.6-1.5c-1.1-0.7-2.1-1.5-3-2.4c-0.9-1-1.5-2.1-2-3.4h-0.1v20.2h-4.4v-49.4H91.6z
		 M115.8,408.9c-0.4-1.8-1.1-3.5-2.1-4.9c-1-1.4-2.2-2.6-3.7-3.5c-1.5-0.9-3.3-1.4-5.4-1.4c-2.4,0-4.5,0.4-6.1,1.3
		c-1.6,0.8-2.9,2-3.9,3.4c-1,1.4-1.7,3-2.1,4.9c-0.4,1.9-0.6,3.8-0.6,5.9c0,1.9,0.2,3.7,0.7,5.6c0.4,1.8,1.2,3.5,2.2,4.9
		c1,1.4,2.3,2.6,3.9,3.5c1.6,0.9,3.6,1.4,5.9,1.4c2.1,0,3.9-0.5,5.4-1.4c1.5-0.9,2.7-2.1,3.7-3.5c1-1.4,1.7-3.1,2.1-4.9
		c0.4-1.8,0.7-3.7,0.7-5.6S116.2,410.7,115.8,408.9z"/>
	<path class="st1" d="M152.9,432.5V426h-0.1c-1.2,2.4-2.9,4.3-5.1,5.6c-2.2,1.3-4.7,1.9-7.4,1.9c-2.3,0-4.2-0.3-5.8-0.9
		s-2.9-1.5-3.9-2.7c-1-1.2-1.7-2.6-2.2-4.3c-0.5-1.7-0.7-3.6-0.7-5.7v-23.5h4.4v23.5c0.1,3.3,0.9,5.7,2.3,7.4
		c1.4,1.7,3.9,2.5,7.4,2.5c1.9,0,3.5-0.4,4.9-1.2c1.4-0.8,2.5-1.9,3.4-3.3c0.9-1.4,1.5-2.9,2-4.7s0.6-3.5,0.6-5.4v-19h4.4v36.1
		H152.9z"/>
	<path class="st1" d="M179.7,396.4v3.7h-7.3v24.4c0,1.4,0.2,2.6,0.6,3.4c0.4,0.8,1.4,1.3,3,1.4c1.3,0,2.5-0.1,3.8-0.2v3.7
		c-0.7,0-1.3,0-2,0.1c-0.7,0-1.3,0.1-2,0.1c-2.9,0-5-0.6-6.2-1.7c-1.2-1.1-1.7-3.3-1.7-6.3v-24.7h-6.3v-3.7h6.3v-10.8h4.4v10.8
		H179.7z"/>
	<path class="st1" d="M200.4,396.4v3.7H193v24.4c0,1.4,0.2,2.6,0.6,3.4c0.4,0.8,1.4,1.3,3,1.4c1.3,0,2.5-0.1,3.8-0.2v3.7
		c-0.7,0-1.3,0-2,0.1c-0.7,0-1.3,0.1-2,0.1c-2.9,0-5-0.6-6.2-1.7c-1.2-1.1-1.7-3.3-1.7-6.3v-24.7h-6.3v-3.7h6.3v-10.8h4.4v10.8
		H200.4z"/>
	<path class="st1" d="M211.2,382.5v7.1h-4.4v-7.1H211.2z M211.2,396.4v36.1h-4.4v-36.1H211.2z"/>
	<path class="st1" d="M224,396.4v6.2h0.1c0.8-2.2,2.3-4,4.5-5.3c2.1-1.3,4.5-2,7.1-2c2.5,0,4.6,0.3,6.3,1c1.7,0.7,3.1,1.6,4.1,2.8
		c1,1.2,1.8,2.6,2.2,4.4s0.6,3.7,0.6,5.8v23.2h-4.4v-22.5c0-1.5-0.1-3-0.4-4.3c-0.3-1.3-0.8-2.5-1.5-3.5c-0.7-1-1.6-1.8-2.8-2.3
		c-1.2-0.6-2.7-0.8-4.4-0.8c-1.8,0-3.3,0.3-4.7,0.9c-1.4,0.6-2.5,1.5-3.5,2.6c-1,1.1-1.7,2.4-2.2,3.9c-0.5,1.5-0.8,3.2-0.9,4.9v21.1
		h-4.4v-36.1H224z"/>
	<path class="st1" d="M286.9,436.8c-0.6,2.1-1.5,4-2.8,5.5c-1.3,1.5-2.9,2.6-4.9,3.4c-2,0.8-4.5,1.2-7.5,1.2c-1.8,0-3.6-0.2-5.3-0.6
		c-1.7-0.4-3.3-1.1-4.7-2c-1.4-0.9-2.5-2-3.4-3.4c-0.9-1.4-1.4-3-1.6-4.9h4.4c0.2,1.4,0.7,2.5,1.4,3.4c0.7,0.9,1.5,1.6,2.5,2.2
		c1,0.6,2,1,3.2,1.2c1.2,0.3,2.4,0.4,3.6,0.4c4.1,0,7.1-1.2,8.9-3.5c1.8-2.3,2.7-5.7,2.7-10.1v-4.9h-0.1c-1,2.2-2.5,4-4.5,5.4
		c-2,1.4-4.3,2-7,2c-2.9,0-5.4-0.5-7.4-1.4c-2.1-1-3.7-2.3-5.1-4c-1.3-1.7-2.3-3.7-2.9-5.9c-0.6-2.3-0.9-4.7-0.9-7.2
		c0-2.5,0.4-4.8,1.1-7c0.7-2.2,1.8-4.2,3.2-5.8c1.4-1.7,3.1-3,5.1-3.9c2-1,4.4-1.4,7-1.4c1.4,0,2.6,0.2,3.8,0.6
		c1.2,0.4,2.3,0.9,3.3,1.6c1,0.7,1.9,1.5,2.6,2.3c0.8,0.9,1.4,1.8,1.8,2.8h0.1v-6.2h4.4v33.2C287.8,432.2,287.5,434.6,286.9,436.8z
		 M276.8,427.1c1.4-0.8,2.7-1.9,3.6-3.2s1.7-2.9,2.2-4.6c0.5-1.7,0.7-3.5,0.7-5.3c0-1.8-0.2-3.5-0.6-5.3c-0.4-1.8-1.1-3.4-2-4.8
		c-0.9-1.4-2.1-2.6-3.6-3.5c-1.5-0.9-3.3-1.3-5.4-1.3s-3.9,0.4-5.4,1.3c-1.5,0.9-2.7,2-3.7,3.4c-1,1.4-1.7,3-2.1,4.8
		c-0.4,1.8-0.7,3.6-0.7,5.5c0,1.8,0.2,3.6,0.7,5.3c0.5,1.7,1.2,3.3,2.2,4.6s2.2,2.4,3.7,3.2c1.5,0.8,3.3,1.2,5.3,1.2
		C273.7,428.4,275.4,427.9,276.8,427.1z"/>
	<path class="st1" d="M319.7,396.4v6.1h0.2c1.2-2.2,2.7-4,4.6-5.2c1.9-1.3,4.3-1.9,7.2-1.9c2.4,0,4.5,0.6,6.5,1.8
		c1.9,1.2,3.2,2.9,3.9,5.3c1.1-2.4,2.7-4.2,4.8-5.3c2.1-1.2,4.3-1.8,6.7-1.8c8,0,12,4.2,12,12.7v24.5h-4.4v-24.3
		c0-3-0.6-5.3-1.9-6.8c-1.3-1.6-3.5-2.3-6.6-2.3c-1.9,0-3.5,0.4-4.8,1.1c-1.3,0.7-2.3,1.7-3,2.9c-0.7,1.2-1.3,2.6-1.6,4.2
		c-0.3,1.6-0.5,3.2-0.5,4.9v20.4h-4.4V408c0-1.2-0.1-2.4-0.4-3.5c-0.3-1.1-0.7-2.1-1.3-2.9c-0.6-0.8-1.4-1.5-2.3-1.9
		c-1-0.5-2.2-0.7-3.6-0.7c-1.9,0-3.5,0.3-4.9,1c-1.4,0.7-2.5,1.6-3.4,2.8c-0.9,1.2-1.5,2.6-1.9,4.2c-0.4,1.6-0.6,3.4-0.6,5.3v20.2
		h-4.4v-36.1H319.7z"/>
	<path class="st1" d="M396.5,396.9c2.1,1,3.9,2.4,5.4,4.1c1.4,1.7,2.5,3.7,3.3,6.1c0.7,2.3,1.1,4.8,1.1,7.4s-0.4,5.1-1.1,7.4
		c-0.7,2.3-1.8,4.3-3.3,6.1c-1.4,1.7-3.2,3.1-5.4,4.1c-2.1,1-4.6,1.5-7.3,1.5c-2.8,0-5.2-0.5-7.3-1.5c-2.1-1-3.9-2.4-5.4-4.1
		c-1.4-1.7-2.5-3.7-3.3-6.1c-0.7-2.3-1.1-4.8-1.1-7.4s0.4-5.1,1.1-7.4c0.7-2.3,1.8-4.3,3.3-6.1c1.4-1.7,3.2-3.1,5.4-4.1
		c2.1-1,4.6-1.5,7.3-1.5C392,395.3,394.4,395.8,396.5,396.9z M383.7,400.4c-1.6,0.9-2.9,2.1-4,3.5c-1.1,1.4-1.8,3.1-2.4,4.9
		c-0.5,1.8-0.8,3.7-0.8,5.6c0,1.9,0.3,3.8,0.8,5.6c0.5,1.8,1.3,3.5,2.4,4.9c1,1.4,2.4,2.6,4,3.5c1.6,0.9,3.4,1.3,5.5,1.3
		s3.9-0.4,5.5-1.3c1.6-0.9,2.9-2.1,4-3.5c1.1-1.4,1.8-3.1,2.4-4.9c0.5-1.8,0.8-3.7,0.8-5.6c0-1.9-0.3-3.8-0.8-5.6
		c-0.5-1.8-1.3-3.5-2.4-4.9c-1-1.4-2.4-2.6-4-3.5c-1.6-0.9-3.4-1.3-5.5-1.3S385.3,399.5,383.7,400.4z"/>
	<path class="st1" d="M417.2,396.4v6.2h0.1c0.8-2.2,2.3-4,4.5-5.3c2.1-1.3,4.5-2,7.1-2c2.5,0,4.6,0.3,6.3,1c1.7,0.7,3.1,1.6,4.1,2.8
		c1,1.2,1.8,2.6,2.2,4.4s0.6,3.7,0.6,5.8v23.2h-4.4v-22.5c0-1.5-0.1-3-0.4-4.3c-0.3-1.3-0.8-2.5-1.5-3.5c-0.7-1-1.6-1.8-2.8-2.3
		c-1.2-0.6-2.7-0.8-4.4-0.8c-1.8,0-3.3,0.3-4.7,0.9c-1.4,0.6-2.5,1.5-3.5,2.6c-1,1.1-1.7,2.4-2.2,3.9c-0.5,1.5-0.8,3.2-0.9,4.9v21.1
		h-4.4v-36.1H417.2z"/>
	<path class="st1" d="M453.7,420.5c0.4,1.7,1.2,3.2,2.1,4.6s2.2,2.5,3.7,3.4c1.5,0.9,3.3,1.3,5.4,1.3c3.2,0,5.7-0.8,7.6-2.5
		c1.8-1.7,3.1-3.9,3.8-6.7h4.4c-0.9,4.1-2.6,7.3-5.1,9.5c-2.5,2.2-6,3.4-10.6,3.4c-2.8,0-5.3-0.5-7.4-1.5c-2.1-1-3.8-2.4-5.1-4.1
		c-1.3-1.8-2.3-3.8-2.9-6.1c-0.6-2.3-0.9-4.7-0.9-7.3c0-2.4,0.3-4.7,0.9-7c0.6-2.3,1.6-4.3,2.9-6.1c1.3-1.8,3-3.2,5.1-4.3
		c2.1-1.1,4.5-1.6,7.4-1.6c2.9,0,5.4,0.6,7.4,1.8c2.1,1.2,3.7,2.7,5,4.6c1.3,1.9,2.2,4.1,2.8,6.5s0.8,4.9,0.7,7.5h-27.8
		C453.1,417.2,453.3,418.8,453.7,420.5z M475.6,407.1c-0.5-1.5-1.3-2.9-2.3-4.1c-1-1.2-2.2-2.1-3.6-2.9c-1.4-0.7-3-1.1-4.8-1.1
		c-1.8,0-3.4,0.4-4.8,1.1c-1.4,0.7-2.6,1.7-3.6,2.9c-1,1.2-1.8,2.6-2.3,4.1c-0.6,1.6-1,3.2-1.2,4.8h23.4
		C476.4,410.2,476.1,408.6,475.6,407.1z"/>
	<path class="st1" d="M487.4,396.4l11.9,30.8l11.1-30.8h4.4l-15.7,41.6c-0.7,1.5-1.3,2.8-1.8,3.8c-0.6,1-1.2,1.8-1.9,2.4
		c-0.7,0.6-1.5,1-2.4,1.3c-0.9,0.3-2.1,0.4-3.5,0.4c-0.9,0-1.6-0.1-2.1-0.1c-0.5,0-0.9-0.1-1.3-0.2v-3.7c0.5,0.1,1,0.2,1.5,0.2
		c0.5,0.1,1,0.1,1.5,0.1c1,0,1.8-0.1,2.4-0.4c0.6-0.3,1.2-0.7,1.6-1.2c0.5-0.5,0.9-1.1,1.2-1.8c0.3-0.7,0.7-1.5,1-2.3l1.5-4.1
		l-14.4-36H487.4z"/>
	<path class="st1" d="M92,466.5v7.1h-4.4v-7.1H92z M92,480.4v36.1h-4.4v-36.1H92z"/>
	<path class="st1" d="M104.8,480.4v6.2h0.1c0.8-2.2,2.3-4,4.5-5.3c2.1-1.3,4.5-2,7.1-2c2.5,0,4.6,0.3,6.3,1c1.7,0.7,3.1,1.6,4.1,2.8
		c1,1.2,1.8,2.6,2.2,4.4s0.6,3.7,0.6,5.8v23.2h-4.4v-22.5c0-1.5-0.1-3-0.4-4.3c-0.3-1.3-0.8-2.5-1.5-3.5c-0.7-1-1.6-1.8-2.8-2.3
		c-1.2-0.6-2.7-0.8-4.4-0.8c-1.8,0-3.3,0.3-4.7,0.9c-1.4,0.6-2.5,1.5-3.5,2.6c-1,1.1-1.7,2.4-2.2,3.9c-0.5,1.5-0.8,3.2-0.9,4.9v21.1
		h-4.4v-36.1H104.8z"/>
	<path class="st1" d="M152.4,480.4v3.7h-7.3v24.4c0,1.4,0.2,2.6,0.6,3.4c0.4,0.8,1.4,1.3,3,1.4c1.3,0,2.5-0.1,3.8-0.2v3.7
		c-0.7,0-1.3,0-2,0.1c-0.7,0-1.3,0.1-2,0.1c-2.9,0-5-0.6-6.2-1.7c-1.2-1.1-1.7-3.3-1.7-6.3v-24.7h-6.3v-3.7h6.3v-10.8h4.4v10.8
		H152.4z"/>
	<path class="st1" d="M181.4,480.9c2.1,1,3.9,2.4,5.4,4.1c1.4,1.7,2.5,3.7,3.3,6.1c0.7,2.3,1.1,4.8,1.1,7.4s-0.4,5.1-1.1,7.4
		c-0.7,2.3-1.8,4.3-3.3,6.1c-1.4,1.7-3.2,3.1-5.4,4.1c-2.1,1-4.6,1.5-7.3,1.5c-2.8,0-5.2-0.5-7.3-1.5c-2.1-1-3.9-2.4-5.4-4.1
		c-1.4-1.7-2.5-3.7-3.3-6.1c-0.7-2.3-1.1-4.8-1.1-7.4s0.4-5.1,1.1-7.4c0.7-2.3,1.8-4.3,3.3-6.1c1.4-1.7,3.2-3.1,5.4-4.1
		c2.1-1,4.6-1.5,7.3-1.5C176.8,479.3,179.2,479.8,181.4,480.9z M168.5,484.4c-1.6,0.9-2.9,2.1-4,3.5c-1.1,1.4-1.8,3.1-2.4,4.9
		c-0.5,1.8-0.8,3.7-0.8,5.6c0,1.9,0.3,3.8,0.8,5.6c0.5,1.8,1.3,3.5,2.4,4.9c1,1.4,2.4,2.6,4,3.5c1.6,0.9,3.4,1.3,5.5,1.3
		s3.9-0.4,5.5-1.3c1.6-0.9,2.9-2.1,4-3.5c1.1-1.4,1.8-3.1,2.4-4.9c0.5-1.8,0.8-3.7,0.8-5.6c0-1.9-0.3-3.8-0.8-5.6
		c-0.5-1.8-1.3-3.5-2.4-4.9c-1-1.4-2.4-2.6-4-3.5c-1.6-0.9-3.4-1.3-5.5-1.3S170.1,483.5,168.5,484.4z"/>
	<path class="st1" d="M238,487.4c-0.5-1-1.2-1.8-2.1-2.5c-0.9-0.7-1.9-1.1-3-1.4c-1.1-0.3-2.3-0.5-3.6-0.5c-1,0-2,0.1-3,0.3
		c-1,0.2-1.9,0.6-2.8,1c-0.8,0.5-1.5,1.1-2,1.9c-0.5,0.8-0.8,1.8-0.8,2.9c0,1,0.2,1.8,0.7,2.5c0.5,0.7,1.1,1.2,1.9,1.7
		c0.7,0.5,1.6,0.9,2.4,1.2c0.9,0.3,1.7,0.5,2.5,0.7l5.9,1.3c1.3,0.2,2.5,0.5,3.7,1c1.2,0.5,2.3,1.1,3.3,1.9c1,0.8,1.7,1.8,2.3,2.9
		c0.6,1.2,0.9,2.5,0.9,4.1c0,2-0.4,3.6-1.3,5c-0.9,1.4-2,2.5-3.4,3.4c-1.4,0.9-2.9,1.5-4.7,1.9c-1.7,0.4-3.4,0.6-5.1,0.6
		c-4.2,0-7.7-1-10.3-3c-2.6-2-4.1-5.2-4.5-9.7h4.4c0.2,3,1.3,5.2,3.3,6.8c2,1.5,4.4,2.3,7.4,2.3c1.1,0,2.2-0.1,3.3-0.3
		c1.1-0.2,2.2-0.6,3.2-1.2c1-0.6,1.8-1.3,2.4-2.1c0.6-0.9,0.9-1.9,0.9-3.2c0-1.1-0.2-2-0.7-2.7c-0.4-0.7-1-1.3-1.8-1.8
		c-0.7-0.5-1.6-0.9-2.6-1.2c-1-0.3-1.9-0.6-2.9-0.8l-5.7-1.3c-1.4-0.4-2.8-0.8-4-1.3c-1.2-0.5-2.3-1.1-3.2-1.8s-1.6-1.6-2.1-2.7
		c-0.5-1-0.8-2.3-0.8-3.9c0-1.8,0.4-3.4,1.2-4.7c0.8-1.3,1.9-2.4,3.2-3.2c1.3-0.8,2.8-1.4,4.4-1.8c1.6-0.4,3.2-0.6,4.8-0.6
		c1.8,0,3.5,0.2,5.1,0.7c1.6,0.5,2.9,1.2,4.1,2.2c1.2,1,2.1,2.2,2.8,3.6c0.7,1.4,1.1,3.2,1.2,5.1h-4.4
		C238.8,489.6,238.5,488.4,238,487.4z"/>
	<path class="st1" d="M273.4,480.9c2.1,1,3.9,2.4,5.4,4.1c1.4,1.7,2.5,3.7,3.3,6.1c0.7,2.3,1.1,4.8,1.1,7.4s-0.4,5.1-1.1,7.4
		c-0.7,2.3-1.8,4.3-3.3,6.1c-1.4,1.7-3.2,3.1-5.4,4.1c-2.1,1-4.6,1.5-7.3,1.5c-2.8,0-5.2-0.5-7.3-1.5c-2.1-1-3.9-2.4-5.4-4.1
		c-1.4-1.7-2.5-3.7-3.3-6.1c-0.7-2.3-1.1-4.8-1.1-7.4s0.4-5.1,1.1-7.4c0.7-2.3,1.8-4.3,3.3-6.1c1.4-1.7,3.2-3.1,5.4-4.1
		c2.1-1,4.6-1.5,7.3-1.5C268.9,479.3,271.3,479.8,273.4,480.9z M260.6,484.4c-1.6,0.9-2.9,2.1-4,3.5c-1.1,1.4-1.8,3.1-2.4,4.9
		c-0.5,1.8-0.8,3.7-0.8,5.6c0,1.9,0.3,3.8,0.8,5.6c0.5,1.8,1.3,3.5,2.4,4.9c1,1.4,2.4,2.6,4,3.5c1.6,0.9,3.4,1.3,5.5,1.3
		s3.9-0.4,5.5-1.3c1.6-0.9,2.9-2.1,4-3.5c1.1-1.4,1.8-3.1,2.4-4.9c0.5-1.8,0.8-3.7,0.8-5.6c0-1.9-0.3-3.8-0.8-5.6
		c-0.5-1.8-1.3-3.5-2.4-4.9c-1-1.4-2.4-2.6-4-3.5c-1.6-0.9-3.4-1.3-5.5-1.3S262.2,483.5,260.6,484.4z"/>
	<path class="st1" d="M293.8,480.4v6.1h0.2c1.2-2.2,2.7-4,4.6-5.2c1.9-1.3,4.3-1.9,7.2-1.9c2.4,0,4.5,0.6,6.5,1.8
		c1.9,1.2,3.2,2.9,3.9,5.3c1.1-2.4,2.7-4.2,4.8-5.3c2.1-1.2,4.3-1.8,6.7-1.8c8,0,12,4.2,12,12.7v24.5h-4.4v-24.3
		c0-3-0.6-5.3-1.9-6.8c-1.3-1.6-3.5-2.3-6.6-2.3c-1.9,0-3.5,0.4-4.8,1.1c-1.3,0.7-2.3,1.7-3,2.9c-0.7,1.2-1.3,2.6-1.6,4.2
		c-0.3,1.6-0.5,3.2-0.5,4.9v20.4h-4.4V492c0-1.2-0.1-2.4-0.4-3.5c-0.3-1.1-0.7-2.1-1.3-2.9c-0.6-0.8-1.4-1.5-2.3-1.9
		c-1-0.5-2.2-0.7-3.6-0.7c-1.9,0-3.5,0.3-4.9,1c-1.4,0.7-2.5,1.6-3.4,2.8c-0.9,1.2-1.5,2.6-1.9,4.2c-0.4,1.6-0.6,3.4-0.6,5.3v20.2
		h-4.4v-36.1H293.8z"/>
	<path class="st1" d="M351.3,504.5c0.4,1.7,1.2,3.2,2.1,4.6s2.2,2.5,3.7,3.4c1.5,0.9,3.3,1.3,5.4,1.3c3.2,0,5.7-0.8,7.6-2.5
		c1.8-1.7,3.1-3.9,3.8-6.7h4.4c-0.9,4.1-2.6,7.3-5.1,9.5c-2.5,2.2-6,3.4-10.6,3.4c-2.8,0-5.3-0.5-7.4-1.5c-2.1-1-3.8-2.4-5.1-4.1
		c-1.3-1.8-2.3-3.8-2.9-6.1c-0.6-2.3-0.9-4.7-0.9-7.3c0-2.4,0.3-4.7,0.9-7c0.6-2.3,1.6-4.3,2.9-6.1c1.3-1.8,3-3.2,5.1-4.3
		c2.1-1.1,4.5-1.6,7.4-1.6c2.9,0,5.4,0.6,7.4,1.8c2.1,1.2,3.7,2.7,5,4.6c1.3,1.9,2.2,4.1,2.8,6.5s0.8,4.9,0.7,7.5h-27.8
		C350.7,501.2,350.9,502.8,351.3,504.5z M373.2,491.1c-0.5-1.5-1.3-2.9-2.3-4.1c-1-1.2-2.2-2.1-3.6-2.9c-1.4-0.7-3-1.1-4.8-1.1
		c-1.8,0-3.4,0.4-4.8,1.1c-1.4,0.7-2.6,1.7-3.6,2.9c-1,1.2-1.8,2.6-2.3,4.1c-0.6,1.6-1,3.2-1.2,4.8H374
		C374,494.2,373.7,492.6,373.2,491.1z"/>
	<path class="st1" d="M398.8,480.4v3.7h-7.3v24.4c0,1.4,0.2,2.6,0.6,3.4c0.4,0.8,1.4,1.3,3,1.4c1.3,0,2.5-0.1,3.8-0.2v3.7
		c-0.7,0-1.3,0-2,0.1c-0.7,0-1.3,0.1-2,0.1c-2.9,0-5-0.6-6.2-1.7c-1.2-1.1-1.7-3.3-1.7-6.3v-24.7h-6.3v-3.7h6.3v-10.8h4.4v10.8
		H398.8z"/>
	<path class="st1" d="M409.5,466.5v20.1h0.1c0.8-2.2,2.3-4,4.5-5.3c2.1-1.3,4.5-2,7.1-2c2.5,0,4.6,0.3,6.3,1
		c1.7,0.7,3.1,1.6,4.1,2.8c1,1.2,1.8,2.6,2.2,4.4s0.6,3.7,0.6,5.8v23.2H430v-22.5c0-1.5-0.1-3-0.4-4.3c-0.3-1.3-0.8-2.5-1.5-3.5
		c-0.7-1-1.6-1.8-2.8-2.3c-1.2-0.6-2.7-0.8-4.4-0.8c-1.8,0-3.3,0.3-4.7,0.9c-1.4,0.6-2.5,1.5-3.5,2.6c-1,1.1-1.7,2.4-2.2,3.9
		c-0.5,1.5-0.8,3.2-0.9,4.9v21.1h-4.4v-50H409.5z"/>
	<path class="st1" d="M447.2,466.5v7.1h-4.4v-7.1H447.2z M447.2,480.4v36.1h-4.4v-36.1H447.2z"/>
	<path class="st1" d="M460,480.4v6.2h0.1c0.8-2.2,2.3-4,4.5-5.3c2.1-1.3,4.5-2,7.1-2c2.5,0,4.6,0.3,6.3,1c1.7,0.7,3.1,1.6,4.1,2.8
		c1,1.2,1.8,2.6,2.2,4.4s0.6,3.7,0.6,5.8v23.2h-4.4v-22.5c0-1.5-0.1-3-0.4-4.3c-0.3-1.3-0.8-2.5-1.5-3.5c-0.7-1-1.6-1.8-2.8-2.3
		c-1.2-0.6-2.7-0.8-4.4-0.8c-1.8,0-3.3,0.3-4.7,0.9c-1.4,0.6-2.5,1.5-3.5,2.6c-1,1.1-1.7,2.4-2.2,3.9c-0.5,1.5-0.8,3.2-0.9,4.9v21.1
		h-4.4v-36.1H460z"/>
	<path class="st1" d="M522.9,520.8c-0.6,2.1-1.5,4-2.8,5.5c-1.3,1.5-2.9,2.6-4.9,3.4c-2,0.8-4.5,1.2-7.5,1.2c-1.8,0-3.6-0.2-5.3-0.6
		c-1.7-0.4-3.3-1.1-4.7-2c-1.4-0.9-2.5-2-3.4-3.4c-0.9-1.4-1.4-3-1.6-4.9h4.4c0.2,1.4,0.7,2.5,1.4,3.4c0.7,0.9,1.5,1.6,2.5,2.2
		c1,0.6,2,1,3.2,1.2c1.2,0.3,2.4,0.4,3.6,0.4c4.1,0,7.1-1.2,8.9-3.5c1.8-2.3,2.7-5.7,2.7-10.1v-4.9h-0.1c-1,2.2-2.5,4-4.5,5.4
		c-2,1.4-4.3,2-7,2c-2.9,0-5.4-0.5-7.4-1.4c-2.1-1-3.7-2.3-5.1-4c-1.3-1.7-2.3-3.7-2.9-5.9c-0.6-2.3-0.9-4.7-0.9-7.2
		c0-2.5,0.4-4.8,1.1-7c0.7-2.2,1.8-4.2,3.2-5.8c1.4-1.7,3.1-3,5.1-3.9c2-1,4.4-1.4,7-1.4c1.4,0,2.6,0.2,3.8,0.6
		c1.2,0.4,2.3,0.9,3.3,1.6c1,0.7,1.9,1.5,2.6,2.3c0.8,0.9,1.4,1.8,1.8,2.8h0.1v-6.2h4.4v33.2C523.8,516.2,523.5,518.6,522.9,520.8z
		 M512.8,511.1c1.4-0.8,2.7-1.9,3.6-3.2c1-1.3,1.7-2.9,2.2-4.6c0.5-1.7,0.7-3.5,0.7-5.3c0-1.8-0.2-3.5-0.6-5.3
		c-0.4-1.8-1.1-3.4-2-4.8c-0.9-1.4-2.1-2.6-3.6-3.5c-1.5-0.9-3.3-1.3-5.4-1.3s-3.9,0.4-5.4,1.3c-1.5,0.9-2.7,2-3.7,3.4
		c-1,1.4-1.7,3-2.1,4.8c-0.4,1.8-0.7,3.6-0.7,5.5c0,1.8,0.2,3.6,0.7,5.3c0.5,1.7,1.2,3.3,2.2,4.6s2.2,2.4,3.7,3.2
		c1.5,0.8,3.3,1.2,5.3,1.2C509.7,512.4,511.3,511.9,512.8,511.1z"/>
	<path class="st1" d="M88.6,564.4l9.2,30.9H98l8.8-30.9h5l8.8,30.9h0.1l9.2-30.9h4.7L123,600.5h-4.8l-8.9-30.4h-0.1l-8.8,30.4h-4.8
		l-11.6-36.1H88.6z"/>
	<path class="st1" d="M143.9,550.5v7.1h-4.4v-7.1H143.9z M143.9,564.4v36.1h-4.4v-36.1H143.9z"/>
	<path class="st1" d="M166.7,564.4v3.7h-7.3v24.4c0,1.4,0.2,2.6,0.6,3.4c0.4,0.8,1.4,1.3,3,1.4c1.3,0,2.5-0.1,3.8-0.2v3.7
		c-0.7,0-1.3,0-2,0.1c-0.7,0-1.3,0.1-2,0.1c-2.9,0-5-0.6-6.2-1.7c-1.2-1.1-1.7-3.3-1.7-6.3v-24.7h-6.3v-3.7h6.3v-10.8h4.4v10.8
		H166.7z"/>
	<path class="st1" d="M177.4,550.5v20.1h0.1c0.8-2.2,2.3-4,4.5-5.3c2.1-1.3,4.5-2,7.1-2c2.5,0,4.6,0.3,6.3,1
		c1.7,0.7,3.1,1.6,4.1,2.8c1,1.2,1.8,2.6,2.2,4.4s0.6,3.7,0.6,5.8v23.2h-4.4v-22.5c0-1.5-0.1-3-0.4-4.3c-0.3-1.3-0.8-2.5-1.5-3.5
		c-0.7-1-1.6-1.8-2.8-2.3c-1.2-0.6-2.7-0.8-4.4-0.8c-1.8,0-3.3,0.3-4.7,0.9c-1.4,0.6-2.5,1.5-3.5,2.6c-1,1.1-1.7,2.4-2.2,3.9
		c-0.5,1.5-0.8,3.2-0.9,4.9v21.1H173v-50H177.4z"/>
	<path class="st1" d="M244.5,564.4v3.7h-7.3v24.4c0,1.4,0.2,2.6,0.6,3.4c0.4,0.8,1.4,1.3,3,1.4c1.3,0,2.5-0.1,3.8-0.2v3.7
		c-0.7,0-1.3,0-2,0.1c-0.7,0-1.3,0.1-2,0.1c-2.9,0-5-0.6-6.2-1.7c-1.2-1.1-1.7-3.3-1.7-6.3v-24.7h-6.3v-3.7h6.3v-10.8h4.4v10.8
		H244.5z"/>
	<path class="st1" d="M255.2,550.5v20.1h0.1c0.8-2.2,2.3-4,4.5-5.3c2.1-1.3,4.5-2,7.1-2c2.5,0,4.6,0.3,6.3,1
		c1.7,0.7,3.1,1.6,4.1,2.8c1,1.2,1.8,2.6,2.2,4.4s0.6,3.7,0.6,5.8v23.2h-4.4v-22.5c0-1.5-0.1-3-0.4-4.3c-0.3-1.3-0.8-2.5-1.5-3.5
		c-0.7-1-1.6-1.8-2.8-2.3c-1.2-0.6-2.7-0.8-4.4-0.8c-1.8,0-3.3,0.3-4.7,0.9c-1.4,0.6-2.5,1.5-3.5,2.6c-1,1.1-1.7,2.4-2.2,3.9
		c-0.5,1.5-0.8,3.2-0.9,4.9v21.1h-4.4v-50H255.2z"/>
	<path class="st1" d="M291.7,588.5c0.4,1.7,1.2,3.2,2.1,4.6s2.2,2.5,3.7,3.4c1.5,0.9,3.3,1.3,5.4,1.3c3.2,0,5.7-0.8,7.6-2.5
		c1.8-1.7,3.1-3.9,3.8-6.7h4.4c-0.9,4.1-2.6,7.3-5.1,9.5c-2.5,2.2-6,3.4-10.6,3.4c-2.8,0-5.3-0.5-7.4-1.5c-2.1-1-3.8-2.4-5.1-4.1
		c-1.3-1.8-2.3-3.8-2.9-6.1c-0.6-2.3-0.9-4.7-0.9-7.3c0-2.4,0.3-4.7,0.9-7c0.6-2.3,1.6-4.3,2.9-6.1c1.3-1.8,3-3.2,5.1-4.3
		c2.1-1.1,4.5-1.6,7.4-1.6c2.9,0,5.4,0.6,7.4,1.8c2.1,1.2,3.7,2.7,5,4.6c1.3,1.9,2.2,4.1,2.8,6.5s0.8,4.9,0.7,7.5H291
		C291,585.2,291.2,586.8,291.7,588.5z M313.5,575.1c-0.5-1.5-1.3-2.9-2.3-4.1c-1-1.2-2.2-2.1-3.6-2.9c-1.4-0.7-3-1.1-4.8-1.1
		c-1.8,0-3.4,0.4-4.8,1.1c-1.4,0.7-2.6,1.7-3.6,2.9c-1,1.2-1.8,2.6-2.3,4.1c-0.6,1.6-1,3.2-1.2,4.8h23.4
		C314.4,578.2,314.1,576.6,313.5,575.1z"/>
	<path class="st1" d="M117.2,688.8c-0.6,2.1-1.5,4-2.8,5.5c-1.3,1.5-2.9,2.6-4.9,3.4c-2,0.8-4.5,1.2-7.5,1.2c-1.8,0-3.6-0.2-5.3-0.6
		c-1.7-0.4-3.3-1.1-4.7-2c-1.4-0.9-2.5-2-3.4-3.4c-0.9-1.4-1.4-3-1.6-4.9h4.4c0.2,1.4,0.7,2.5,1.4,3.4c0.7,0.9,1.5,1.6,2.5,2.2
		c1,0.6,2,1,3.2,1.2c1.2,0.3,2.4,0.4,3.6,0.4c4.1,0,7.1-1.2,8.9-3.5c1.8-2.3,2.7-5.7,2.7-10.1v-4.9h-0.1c-1,2.2-2.5,4-4.5,5.4
		c-2,1.4-4.3,2-7,2c-2.9,0-5.4-0.5-7.4-1.4c-2.1-1-3.7-2.3-5.1-4c-1.3-1.7-2.3-3.7-2.9-5.9c-0.6-2.3-0.9-4.7-0.9-7.2
		c0-2.5,0.4-4.8,1.1-7c0.7-2.2,1.8-4.2,3.2-5.8c1.4-1.7,3.1-3,5.1-3.9c2-1,4.4-1.4,7-1.4c1.4,0,2.6,0.2,3.8,0.6
		c1.2,0.4,2.3,0.9,3.3,1.6c1,0.7,1.9,1.5,2.6,2.3c0.8,0.9,1.4,1.8,1.8,2.8h0.1v-6.2h4.4v33.2C118.1,684.2,117.8,686.6,117.2,688.8z
		 M107.1,679.1c1.4-0.8,2.7-1.9,3.6-3.2s1.7-2.9,2.2-4.6c0.5-1.7,0.7-3.5,0.7-5.3c0-1.8-0.2-3.5-0.6-5.3c-0.4-1.8-1.1-3.4-2-4.8
		c-0.9-1.4-2.1-2.6-3.6-3.5c-1.5-0.9-3.3-1.3-5.4-1.3s-3.9,0.4-5.4,1.3c-1.5,0.9-2.7,2-3.7,3.4c-1,1.4-1.7,3-2.1,4.8
		c-0.4,1.8-0.7,3.6-0.7,5.5c0,1.8,0.2,3.6,0.7,5.3c0.5,1.7,1.2,3.3,2.2,4.6s2.2,2.4,3.7,3.2c1.5,0.8,3.3,1.2,5.3,1.2
		C103.9,680.4,105.6,679.9,107.1,679.1z"/>
	<path class="st1" d="M149,648.9c2.1,1,3.9,2.4,5.4,4.1c1.4,1.7,2.5,3.7,3.3,6.1c0.7,2.3,1.1,4.8,1.1,7.4s-0.4,5.1-1.1,7.4
		c-0.7,2.3-1.8,4.3-3.3,6.1c-1.4,1.7-3.2,3.1-5.4,4.1c-2.1,1-4.6,1.5-7.3,1.5c-2.8,0-5.2-0.5-7.3-1.5c-2.1-1-3.9-2.4-5.4-4.1
		c-1.4-1.7-2.5-3.7-3.3-6.1c-0.7-2.3-1.1-4.8-1.1-7.4s0.4-5.1,1.1-7.4c0.7-2.3,1.8-4.3,3.3-6.1c1.4-1.7,3.2-3.1,5.4-4.1
		c2.1-1,4.6-1.5,7.3-1.5C144.5,647.3,146.9,647.8,149,648.9z M136.2,652.4c-1.6,0.9-2.9,2.1-4,3.5c-1.1,1.4-1.8,3.1-2.4,4.9
		c-0.5,1.8-0.8,3.7-0.8,5.6c0,1.9,0.3,3.8,0.8,5.6c0.5,1.8,1.3,3.5,2.4,4.9c1,1.4,2.4,2.6,4,3.5c1.6,0.9,3.4,1.3,5.5,1.3
		s3.9-0.4,5.5-1.3c1.6-0.9,2.9-2.1,4-3.5c1.1-1.4,1.8-3.1,2.4-4.9c0.5-1.8,0.8-3.7,0.8-5.6c0-1.9-0.3-3.8-0.8-5.6
		c-0.5-1.8-1.3-3.5-2.4-4.9c-1-1.4-2.4-2.6-4-3.5c-1.6-0.9-3.4-1.3-5.5-1.3S137.8,651.5,136.2,652.4z"/>
	<path class="st1" d="M166.3,654c0.7-1.5,1.8-2.8,3-3.8c1.3-1,2.8-1.7,4.5-2.2c1.7-0.5,3.6-0.7,5.7-0.7c1.6,0,3.2,0.2,4.8,0.5
		c1.6,0.3,3,0.9,4.3,1.7c1.3,0.8,2.3,2,3.1,3.5c0.8,1.5,1.2,3.5,1.2,5.9v19.2c0,1.8,0.9,2.7,2.6,2.7c0.5,0,1-0.1,1.4-0.3v3.7
		c-0.5,0.1-1,0.2-1.4,0.2c-0.4,0-0.9,0.1-1.5,0.1c-1.1,0-2-0.2-2.7-0.5c-0.7-0.3-1.2-0.7-1.6-1.3c-0.4-0.6-0.6-1.2-0.7-2
		c-0.1-0.8-0.2-1.6-0.2-2.6h-0.1c-0.8,1.2-1.6,2.2-2.4,3.1c-0.8,0.9-1.7,1.7-2.7,2.3c-1,0.6-2.1,1.1-3.4,1.4
		c-1.3,0.3-2.8,0.5-4.6,0.5c-1.7,0-3.3-0.2-4.7-0.6c-1.5-0.4-2.8-1-3.9-1.9c-1.1-0.9-2-2-2.6-3.3s-0.9-2.9-0.9-4.7
		c0-2.5,0.6-4.5,1.7-5.9s2.6-2.5,4.4-3.3c1.8-0.7,3.9-1.3,6.2-1.6c2.3-0.3,4.7-0.6,7-0.9c0.9-0.1,1.8-0.2,2.5-0.4
		c0.7-0.1,1.3-0.4,1.8-0.7c0.5-0.4,0.8-0.8,1.1-1.4c0.3-0.6,0.4-1.4,0.4-2.4c0-1.5-0.2-2.7-0.7-3.7c-0.5-1-1.2-1.7-2-2.3
		c-0.9-0.6-1.9-0.9-3-1.2c-1.1-0.2-2.4-0.3-3.7-0.3c-2.8,0-5.1,0.7-6.9,2c-1.8,1.3-2.7,3.5-2.8,6.4H165
		C165.1,657.3,165.5,655.5,166.3,654z M188.3,664.7c-0.3,0.5-0.8,0.9-1.6,1.1c-0.8,0.2-1.5,0.4-2.1,0.5c-1.9,0.3-3.8,0.6-5.8,0.9
		c-2,0.3-3.8,0.6-5.4,1.2c-1.6,0.5-3,1.2-4,2.2c-1.1,1-1.6,2.3-1.6,4.1c0,1.1,0.2,2.1,0.7,3c0.4,0.9,1,1.6,1.8,2.2
		c0.7,0.6,1.6,1.1,2.6,1.4c1,0.3,2,0.5,3,0.5c1.7,0,3.3-0.3,4.8-0.8c1.5-0.5,2.9-1.3,4-2.2c1.1-1,2.1-2.2,2.7-3.6c0.7-1.4,1-3,1-4.8
		v-5.7H188.3z"/>
	<path class="st1" d="M206.2,634.5v50h-4.4v-50H206.2z"/>
	<path class="st1" d="M256.7,648.9c2.1,1,3.9,2.4,5.4,4.1c1.4,1.7,2.5,3.7,3.3,6.1c0.7,2.3,1.1,4.8,1.1,7.4s-0.4,5.1-1.1,7.4
		c-0.7,2.3-1.8,4.3-3.3,6.1c-1.4,1.7-3.2,3.1-5.4,4.1c-2.1,1-4.6,1.5-7.3,1.5c-2.8,0-5.2-0.5-7.3-1.5c-2.1-1-3.9-2.4-5.4-4.1
		c-1.4-1.7-2.5-3.7-3.3-6.1c-0.7-2.3-1.1-4.8-1.1-7.4s0.4-5.1,1.1-7.4c0.7-2.3,1.8-4.3,3.3-6.1c1.4-1.7,3.2-3.1,5.4-4.1
		c2.1-1,4.6-1.5,7.3-1.5C252.1,647.3,254.6,647.8,256.7,648.9z M243.8,652.4c-1.6,0.9-2.9,2.1-4,3.5c-1.1,1.4-1.8,3.1-2.4,4.9
		c-0.5,1.8-0.8,3.7-0.8,5.6c0,1.9,0.3,3.8,0.8,5.6c0.5,1.8,1.3,3.5,2.4,4.9c1,1.4,2.4,2.6,4,3.5c1.6,0.9,3.4,1.3,5.5,1.3
		s3.9-0.4,5.5-1.3c1.6-0.9,2.9-2.1,4-3.5c1.1-1.4,1.8-3.1,2.4-4.9c0.5-1.8,0.8-3.7,0.8-5.6c0-1.9-0.3-3.8-0.8-5.6
		c-0.5-1.8-1.3-3.5-2.4-4.9c-1-1.4-2.4-2.6-4-3.5c-1.6-0.9-3.4-1.3-5.5-1.3S245.4,651.5,243.8,652.4z"/>
	<path class="st1" d="M279.8,652.1v32.4h-4.4v-32.4h-6.2v-3.7h6.2v-3.3c0-1.5,0.1-3,0.4-4.3c0.2-1.3,0.7-2.4,1.3-3.4
		c0.7-0.9,1.6-1.7,2.7-2.2c1.1-0.5,2.6-0.8,4.4-0.8c0.7,0,1.3,0,1.8,0.1c0.6,0,1.2,0.1,1.9,0.2v3.8c-0.6-0.1-1.2-0.2-1.7-0.2
		c-0.5-0.1-1-0.1-1.5-0.1c-1.2,0-2.1,0.2-2.8,0.6c-0.7,0.4-1.1,0.9-1.4,1.5c-0.3,0.6-0.5,1.4-0.5,2.2c0,0.8-0.1,1.8-0.1,2.7v3.1h7.1
		v3.7H279.8z"/>
	<path class="st1" d="M314.7,648.4v6.1h0.2c1.2-2.2,2.7-4,4.6-5.2c1.9-1.3,4.3-1.9,7.2-1.9c2.4,0,4.5,0.6,6.5,1.8
		c1.9,1.2,3.2,2.9,3.9,5.3c1.1-2.4,2.7-4.2,4.8-5.3c2.1-1.2,4.3-1.8,6.7-1.8c8,0,12,4.2,12,12.7v24.5h-4.4v-24.3
		c0-3-0.6-5.3-1.9-6.8c-1.3-1.6-3.5-2.3-6.6-2.3c-1.9,0-3.5,0.4-4.8,1.1c-1.3,0.7-2.3,1.7-3,2.9c-0.7,1.2-1.3,2.6-1.6,4.2
		c-0.3,1.6-0.5,3.2-0.5,4.9v20.4h-4.4V660c0-1.2-0.1-2.4-0.4-3.5c-0.3-1.1-0.7-2.1-1.3-2.9c-0.6-0.8-1.4-1.5-2.3-1.9
		c-1-0.5-2.2-0.7-3.6-0.7c-1.9,0-3.5,0.3-4.9,1c-1.4,0.7-2.5,1.6-3.4,2.8c-0.9,1.2-1.5,2.6-1.9,4.2c-0.4,1.6-0.6,3.4-0.6,5.3v20.2
		h-4.4v-36.1H314.7z"/>
	<path class="st1" d="M394.1,684.5V678H394c-1.2,2.4-2.9,4.3-5.1,5.6c-2.2,1.3-4.7,1.9-7.4,1.9c-2.3,0-4.2-0.3-5.8-0.9
		s-2.9-1.5-3.9-2.7c-1-1.2-1.7-2.6-2.2-4.3c-0.5-1.7-0.7-3.6-0.7-5.7v-23.5h4.4v23.5c0.1,3.3,0.9,5.7,2.3,7.4
		c1.4,1.7,3.9,2.5,7.4,2.5c1.9,0,3.5-0.4,4.9-1.2c1.4-0.8,2.5-1.9,3.4-3.3c0.9-1.4,1.5-2.9,2-4.7s0.6-3.5,0.6-5.4v-19h4.4v36.1
		H394.1z"/>
	<path class="st1" d="M411,634.5v50h-4.4v-50H411z"/>
	<path class="st1" d="M433.8,648.4v3.7h-7.3v24.4c0,1.4,0.2,2.6,0.6,3.4c0.4,0.8,1.4,1.3,3,1.4c1.3,0,2.5-0.1,3.8-0.2v3.7
		c-0.7,0-1.3,0-2,0.1c-0.7,0-1.3,0.1-2,0.1c-2.9,0-5-0.6-6.2-1.7c-1.2-1.1-1.7-3.3-1.7-6.3v-24.7h-6.3v-3.7h6.3v-10.8h4.4v10.8
		H433.8z"/>
	<path class="st1" d="M444.7,634.5v7.1h-4.4v-7.1H444.7z M444.7,648.4v36.1h-4.4v-36.1H444.7z"/>
	<path class="st1" d="M457.2,648.4v6.9h0.1c1-2.5,2.7-4.5,5-5.8c2.3-1.4,4.9-2.1,7.9-2.1c2.8,0,5.1,0.5,7.2,1.5c2,1,3.7,2.4,5.1,4.2
		c1.4,1.8,2.4,3.8,3,6.1c0.7,2.3,1,4.7,1,7.3s-0.3,5-1,7.3c-0.7,2.3-1.7,4.3-3,6.1c-1.4,1.8-3,3.1-5.1,4.1c-2,1-4.4,1.5-7.2,1.5
		c-1.3,0-2.6-0.2-3.9-0.5c-1.3-0.3-2.5-0.8-3.6-1.5c-1.1-0.7-2.1-1.5-3-2.4c-0.9-1-1.5-2.1-2-3.4h-0.1v20.2h-4.4v-49.4H457.2z
		 M481.4,660.9c-0.4-1.8-1.1-3.5-2.1-4.9c-1-1.4-2.2-2.6-3.7-3.5c-1.5-0.9-3.3-1.4-5.4-1.4c-2.4,0-4.5,0.4-6.1,1.3
		c-1.6,0.8-2.9,2-3.9,3.4c-1,1.4-1.7,3-2.1,4.9c-0.4,1.9-0.6,3.8-0.6,5.9c0,1.9,0.2,3.7,0.7,5.6c0.4,1.8,1.2,3.5,2.2,4.9
		c1,1.4,2.3,2.6,3.9,3.5c1.6,0.9,3.6,1.4,5.9,1.4c2.1,0,3.9-0.5,5.4-1.4c1.5-0.9,2.7-2.1,3.7-3.5c1-1.4,1.7-3.1,2.1-4.9
		c0.4-1.8,0.7-3.7,0.7-5.6S481.8,662.7,481.4,660.9z"/>
	<path class="st1" d="M497.8,634.5v50h-4.4v-50H497.8z"/>
	<path class="st1" d="M506.9,648.4l11.9,30.8l11.1-30.8h4.4l-15.7,41.6c-0.7,1.5-1.3,2.8-1.8,3.8c-0.6,1-1.2,1.8-1.9,2.4
		c-0.7,0.6-1.5,1-2.4,1.3c-0.9,0.3-2.1,0.4-3.5,0.4c-0.9,0-1.6-0.1-2.1-0.1c-0.5,0-0.9-0.1-1.3-0.2v-3.7c0.5,0.1,1,0.2,1.5,0.2
		c0.5,0.1,1,0.1,1.5,0.1c1,0,1.8-0.1,2.4-0.4c0.6-0.3,1.2-0.7,1.6-1.2c0.5-0.5,0.9-1.1,1.2-1.8c0.3-0.7,0.7-1.5,1-2.3l1.5-4.1
		l-14.4-36H506.9z"/>
	<path class="st1" d="M543.2,634.5v7.1h-4.4v-7.1H543.2z M543.2,648.4v36.1h-4.4v-36.1H543.2z"/>
	<path class="st1" d="M556,648.4v6.2h0.1c0.8-2.2,2.3-4,4.5-5.3c2.1-1.3,4.5-2,7.1-2c2.5,0,4.6,0.3,6.3,1c1.7,0.7,3.1,1.6,4.1,2.8
		c1,1.2,1.8,2.6,2.2,4.4s0.6,3.7,0.6,5.8v23.2h-4.4v-22.5c0-1.5-0.1-3-0.4-4.3s-0.8-2.5-1.5-3.5c-0.7-1-1.6-1.8-2.8-2.3
		c-1.2-0.6-2.7-0.8-4.4-0.8c-1.8,0-3.3,0.3-4.7,0.9c-1.4,0.6-2.5,1.5-3.5,2.6c-1,1.1-1.7,2.4-2.2,3.9c-0.5,1.5-0.8,3.2-0.9,4.9v21.1
		h-4.4v-36.1H556z"/>
	<path class="st1" d="M618.9,688.8c-0.6,2.1-1.5,4-2.8,5.5c-1.3,1.5-2.9,2.6-4.9,3.4c-2,0.8-4.5,1.2-7.5,1.2c-1.8,0-3.6-0.2-5.3-0.6
		c-1.7-0.4-3.3-1.1-4.7-2c-1.4-0.9-2.5-2-3.4-3.4c-0.9-1.4-1.4-3-1.6-4.9h4.4c0.2,1.4,0.7,2.5,1.4,3.4c0.7,0.9,1.5,1.6,2.4,2.2
		c1,0.6,2,1,3.2,1.2c1.2,0.3,2.4,0.4,3.6,0.4c4.1,0,7.1-1.2,8.9-3.5c1.8-2.3,2.7-5.7,2.7-10.1v-4.9h-0.1c-1,2.2-2.5,4-4.5,5.4
		c-2,1.4-4.3,2-7,2c-2.9,0-5.4-0.5-7.4-1.4c-2.1-1-3.7-2.3-5.1-4c-1.3-1.7-2.3-3.7-2.9-5.9c-0.6-2.3-0.9-4.7-0.9-7.2
		c0-2.5,0.4-4.8,1.1-7c0.7-2.2,1.8-4.2,3.2-5.8c1.4-1.7,3.1-3,5.1-3.9c2-1,4.4-1.4,7-1.4c1.4,0,2.6,0.2,3.8,0.6
		c1.2,0.4,2.3,0.9,3.3,1.6c1,0.7,1.9,1.5,2.6,2.3c0.8,0.9,1.4,1.8,1.8,2.8h0.1v-6.2h4.4v33.2C619.7,684.2,619.4,686.6,618.9,688.8z
		 M608.8,679.1c1.4-0.8,2.7-1.9,3.6-3.2c1-1.3,1.7-2.9,2.2-4.6c0.5-1.7,0.7-3.5,0.7-5.3c0-1.8-0.2-3.5-0.6-5.3s-1.1-3.4-2-4.8
		c-0.9-1.4-2.1-2.6-3.6-3.5c-1.5-0.9-3.3-1.3-5.4-1.3c-2.1,0-3.9,0.4-5.4,1.3c-1.5,0.9-2.7,2-3.7,3.4c-1,1.4-1.7,3-2.1,4.8
		c-0.4,1.8-0.7,3.6-0.7,5.5c0,1.8,0.2,3.6,0.7,5.3c0.5,1.7,1.2,3.3,2.2,4.6c1,1.3,2.2,2.4,3.7,3.2c1.5,0.8,3.3,1.2,5.3,1.2
		C605.6,680.4,607.3,679.9,608.8,679.1z"/>
	<path class="st1" d="M652.1,634.5v7.1h-4.4v-7.1H652.1z M652.1,648.4v36.1h-4.4v-36.1H652.1z"/>
	<path class="st1" d="M674.9,648.4v3.7h-7.3v24.4c0,1.4,0.2,2.6,0.6,3.4c0.4,0.8,1.4,1.3,3,1.4c1.3,0,2.5-0.1,3.8-0.2v3.7
		c-0.7,0-1.3,0-2,0.1c-0.7,0-1.3,0.1-2,0.1c-2.9,0-5-0.6-6.2-1.7c-1.2-1.1-1.7-3.3-1.7-6.3v-24.7h-6.3v-3.7h6.3v-10.8h4.4v10.8
		H674.9z"/>
</g>
<g>
	<ellipse class="st2" cx="727.4" cy="595.5" rx="250.2" ry="30"/>
	<g>
		<g>
			<rect x="573.1" y="509.4" class="st3" width="15.5" height="78.5"/>
			<rect x="880.9" y="509.4" class="st3" width="15.5" height="78.5"/>
		</g>
		<g>
			<rect x="601.9" y="393.9" class="st3" width="12.3" height="182.6"/>
			<rect x="855.3" y="393.9" class="st3" width="12.3" height="182.6"/>
		</g>
		<path class="st4" d="M918.5,512.3c0,2.2-1.8,4-4,4H555c-2.2,0-4-1.8-4-4v-0.7c0-2.2,1.8-4,4-4h359.4c2.2,0,4,1.8,4,4V512.3z"/>
		<g>
			<path class="st4" d="M900.5,418.9c0,2.2-1.8,4-4,4H573c-2.2,0-4-1.8-4-4v-9.2c0-2.2,1.8-4,4-4h323.5c2.2,0,4,1.8,4,4V418.9z"/>
		</g>
		<g>
			<path class="st4" d="M900.5,442.9c0,2.2-1.8,4-4,4H573c-2.2,0-4-1.8-4-4v-9.2c0-2.2,1.8-4,4-4h323.5c2.2,0,4,1.8,4,4V442.9z"/>
		</g>
		<g>
			<path class="st4" d="M900.5,466.9c0,2.2-1.8,4-4,4H573c-2.2,0-4-1.8-4-4v-9.2c0-2.2,1.8-4,4-4h323.5c2.2,0,4,1.8,4,4V466.9z"/>
		</g>
		<path class="st4" d="M904.4,495.4c0,1.4-1,2.5-2.2,2.5H567.3c-1.2,0-2.2-1.1-2.2-2.5l0,0c0-1.4,1-2.5,2.2-2.5h334.9
			C903.4,493,904.4,494,904.4,495.4L904.4,495.4z"/>
		<path class="st4" d="M911.8,502.7c0,1.4-1,2.5-2.2,2.5H559.9c-1.2,0-2.2-1.1-2.2-2.5l0,0c0-1.4,1-2.5,2.2-2.5h349.6
			C910.8,500.2,911.8,501.3,911.8,502.7L911.8,502.7z"/>
	</g>
	<path class="st5" d="M604.4,599.8c0,0,5.4-2.1,7.3-2c1.9,0.1,8.6-1.2,8.8-1.2s6.3-1.2,6.3-1.2l4.7-1.4l4.7-2.6l2.3-1.3l7.5-0.4
		l4.8,0.4l5,0.1l2.6-0.3l0.5,0.2l0.3,2.9l0.4,3.2l0.2,4.1c0,0-1.7,4-2.1,3.8c-0.4-0.2-5.6,1.7-5.6,1.7l-5,0.3h-5.1
		c0,0-4.5,0.1-4.5,0c0-0.1-6.7,1.5-6.7,1.5l-7.9,1l-8.9-0.5c0,0-8.5-2.3-8.8-2.4c-0.3-0.1-2.8-1.8-2.8-1.8l-0.5-2L604.4,599.8z"/>
	<path class="st5" d="M799.5,590.8l9.7,0.6c0,0,1.8,1.1,2,1.5c0.2,0.4,0.9,3.1,1.2,3.2c0.2,0.2,0.2,3.9,0.7,4
		c0.5,0.1,0.9,3.8,0.9,4.2c0,0.4,0,2.4,0,2.4s-0.5,1.6-0.9,1.4c-0.4-0.2-6.8,0.8-6.8,0.8H800h-6.2l-4.2-1l-0.9-2.1
		c0,0,0.1-4,0.1-4.2c0-0.2,1.3-4.3,1.3-4.3l1.2-1.5c0,0,1.4-1.9,1.6-2.1c0.2-0.1,4.4-2.1,4.4-2.1L799.5,590.8z"/>
	<path class="st5" d="M702.9,456.9c0,0,1.7-42.1-8.3-75.7l-2.6,10c0,0-8.1-5.3-11.8-6.5c-3.7-1.2-14.6-2.3-14.6-2.3l3.9-20.6l2.3-17
		c0,0,10.5-9.7,18.2-12c8.3-2.4,29.4-6.2,29.4-6.2c1.7-0.1-2.4-4.1-5.2-8.5c-2.8-4.4-10.9-18-10.1-19.2c0.8-1.2-2-13.7-2-13.7h-3.6
		l-5.3-3.9v-4.4l2.8-2.5l5.4-1.8l1-19l22.1-11.8c0,0,12.9,0.3,16,2c3.1,1.6,22.2,5.2,22.2,5.2s5.9,9.8,6.4,12.7
		c0.5,2.9,1,20.5,0.4,24.1c-0.7,3.7-4.4,19.9-4.2,21.6c0.3,1.8-4.6,15-4.6,15s10.4,5.7,11.4,6.5c1,0.8,23.4,6,24,7.2
		c0.7,1.1,9.8,5.1,11.3,7.4c1.6,2.3,3.8,8,3.8,8c1,1.4,3.5,4.7,3.5,4.7l6.5,8.5l7,6.6l5.2,5.8l-4.7,6.8c0,0,9.5,13.6,10.3,14.9
		c0.8,1.3,10.4,17.4,10.4,17.4c-0.9,1.8-2.5,6.8-2.5,6.8s-3.8,8.1-4.6,9.5c-0.8,1.5-11.1,16.8-11.1,16.8l-14.1,14.6l-5.1,4
		c0,0,1.1,3.7,0.3,6.3c-0.8,2.7-3.1,6.9-3.1,6.9l-2.4,3.7l-0.9,3.3l-0.2,4.5l-0.8,1.4l-2.6,0.1l-0.9,1.2l-2.3-1l-1.1,1.4l-1.6-1.4
		h-1.5l-1.6-1c0,0-0.7-8.1-0.1-10.2c0.6-2.1,2.6-7.1,2.6-7.1l3.9-6.2c0,0-3.8-0.2-4.8,0c-1,0.2-6.7-1.3-6.7-1.3s-0.7-2.3,0-2.4
		c0.7,0,3.7-0.6,3.7-0.6l5.2-0.1l3-1.6l7.4-2.7l3-3.7l4-5.1c0,0,6-13,6.5-17.6c0.5-4.6,7.6-18.8,7.6-18.8l-5-9.7l-18.3-21.2
		l-19.7-7.8c0,0-4.7,11-4.1,12.4c0.6,1.4-0.9,53.4-0.9,53.4l-1.1,19.4L702.9,456.9z"/>
	<g>
		<path class="st6" d="M772.3,332.4c13,1.9,26.2,6.4,35.9,15c0.5,0.5,1.5-0.2,1-0.8c-7.6-11-19.2-16.4-31.7-18.6
			c-1.5-0.7-3.1-1-4.6-1.3c-2-0.5-3.8-0.6-5.7-0.6c0-0.1-0.1-0.2-0.1-0.2c-0.5-0.8-0.7-1.4-0.3,0.1c-0.3-1-1.3-1.4-1.9-2.2
			c-0.4-0.5-1-0.6-1.6-0.6c0.7-0.9,1.4-1.7,1.9-2.4c3-3.9,5.2-8.2,6.9-12.8c1.8-4.5,3.1-9.5,3.6-14.3c0.3-3.6,1.4-8.8,0-12.4
			c0.3,0.2,0.7,0.2,1.2,0c0.4-0.2,0.8-0.4,1.1-0.6c0.9,0.1,1.6-0.4,2.2-1.1c1.9-2.6,3.2-5.4,1.9-8.6c-0.3-0.8-0.9-1.4-1.7-1.6
			c-0.3-0.6-0.7-1.1-1.3-1.4c-0.6-0.3-1.4-0.4-2,0c-0.3,0.3-0.6,0.5-0.8,0.8c0-1.9-0.2-3.8-0.2-5.5c0-4-0.1-8-0.6-12
			c-0.2-1.3-1.3-2.1-2.6-1.5c-0.3,0.2-0.6,0.3-0.9,0.5c0-0.2-0.1-0.3-0.1-0.5c1.6-0.9,3.3-2.1,4.8-3.4c3.5-1.8,6.3-5.5,8.4-8.7
			c1.8-2.8,3-5.8,4.1-8.9c0.7-2.1,2.1-5.5,1-7.5c-0.1-0.3-0.5-0.3-0.7-0.2c-0.7,0.4-1.3,1-1.8,1.7c-0.1-0.8-0.3-1.5-0.7-2.1
			c0.1-1.1,0-2.2-0.3-3.2c0.4-1.4,0.8-2.8,1.1-4.1c0.2-0.9-0.8-1.8-1.6-1.2c-0.3,0.2-0.5,0.4-0.7,0.6c-3.3,1.1-5.8,3.1-8.8,5
			c-2.3,1.4-4.9,2.2-7.4,3.2c-10.2,0.4-20.5-0.9-30.6-1.3c-9.5-0.4-19.8-1.4-28.7,2.7c-4.2,1.9-7.5,4.9-9.7,8.9
			c-1.6,2.9-1.8,6.8-2.1,10.1c-0.4,3.7-0.7,7.8,0.4,11.4c0.1,0.5,0.4,1.1,0.8,1.7c-0.2,0.6-0.4,1.2-0.5,1.9c-0.1,0.3-0.1,0.7,0,1
			c-0.4,2.6,0,5.9,0.6,7.9c-0.1,0.9-0.2,1.7-0.2,2.6c-0.1,1.5-0.2,4.9,2,4.9c1.9,0,1.5-2.7,1.4-4c1.7-6.4,5.9-11.4,10.1-16.5
			c2-0.7,4-1.3,6-1.6c2.8-0.5,5.6-0.2,8.4-0.1c3.4,0.2,6.7,0.1,10.1,0.6c4.6,0.6,8.9,0.5,13.1-0.9c0,0,0.1,0.1,0.1,0.1
			c3.3,2.5,7.4,3.3,11.4,3c0.3,0.4,0.6,0.7,0.8,1c0.5,0.6,1,1.3,1.5,2c2.1,14.6,2.2,29.3-2.2,43.6c-2.1,7-5.4,13.7-9.2,19.9
			c-1.9,3.1-4,6.1-6.4,8.9c-1.7,2.1-5.5,4.3-6,7c-0.1,0.6,0.3,1.2,1,1.2c1.9,0,3.7-1.6,5.2-3.2c0.1,0,0.3,0,0.4-0.1
			c0.4-0.2,0.8-0.5,1.1-0.7c0.8-0.1,1.7-0.4,2.5-0.8c5.7,0.7,11.7,0.2,17.4,0.4C769.4,332.2,770.8,332.3,772.3,332.4z M758.2,328
			c-1.2,0.2-2.5,0.5-3.7,0.9c0.4-0.4,0.8-0.7,1.2-1c0,0,0.1-0.1,0.1-0.1c0,0,0.1,0,0.1,0c1,0.1,2.1-0.2,3-0.8
			C758.8,327.3,758.5,327.6,758.2,328z M762.9,241.2c1-0.4,2-0.9,3-1.3c-0.4,0.4-0.8,0.8-1.2,1.2c-0.6,0.6-1.2,1.2-1.8,1.8
			c-0.7,0.4-1.4,0.8-2.1,1.1c-0.1,0.1-0.2,0.1-0.3,0.2C761.5,243.3,762.4,242.3,762.9,241.2z M753.7,248.5c0,0.1-0.1,0.2-0.1,0.3
			c-0.2,0-0.5,0-0.7,0.1C753.2,248.7,753.4,248.6,753.7,248.5z M718.4,245.9c0.1,0,0.2-0.1,0.3-0.2c0.1,0,0.2,0,0.3,0.1
			C718.8,245.9,718.6,245.9,718.4,245.9z"/>
		<path class="st6" d="M839.6,415.4c-3.4-1.9-13.5-12.2-15-14c-2.3-2.7-4.9-4.9-7.4-7.3c0.4-0.2,0.7-0.4,1.1-0.7
			c1.1-0.7,1.4-2.2,0.4-3.1c-3.8-3.6-7.4-8.1-11.4-11.9c-1.9-2-4.2-3.6-6.2-4.7c-0.2-0.1-0.4-0.2-0.6-0.3c-0.1-0.1-0.3-0.1-0.4-0.2
			c0,0-0.1,0-0.1,0c-4.9-2.2-10.5-2.5-15.7-1c-9.6,2.8-17.3,13.1-15.9,23.2c-0.5,3.2-0.7,6.5-0.7,9.4c0,2.1,0.1,4.2,0.2,6.3
			c0,0.5,0,0.9,0,1.4c-0.4,15.6,2.2,31.1,2,46.6c0,1.2,1.2,2.2,2.4,1.8c3.8-1.3,8.8-1.6,12.1-3.9c0.8-0.6,0.9-1.4,0.6-2.1
			c0.2-0.2,0.3-0.4,0.3-0.7c0-0.1,0-0.2,0-0.4c0,0,0,0,0,0c0,0,0-0.1,0-0.1c0.1-0.5,0.1-1,0.2-1.5c0-0.5,0.1-1,0.1-1.5
			c0.1-2,0.2-4,0.3-6c0.8-1.4,1.1-3.4,1.2-5.2c0.5-1.5,0.6-3.8,0.5-5.3c0.3-3,0.6-6,0.5-9c0-0.8-0.3-4.2-1.2-5.4
			c0.1-0.6,0.2-1.1,0.2-1.7c0.3-2.6,0.3-5.4,0.4-8c0.2-6,0.3-12.2-0.1-18.2c-0.1-1.1-0.1-2.4-0.1-3.7c0.1-2.3,0.1-4.6-0.2-6.8
			c0.1,0.1,0.2,0.1,0.4,0.2c2.1,1.1,4.6,2.6,7.1,3.3c3.7,3.6,13.1,14.2,13.3,14.3c0.6,0.3,3.6-1.2,3.7-1.1c1.7,2.7,3.7,3.9,6,6.1
			c1.3,1.3,2.6,2.5,4,3.8c0.5,0.5,7.2,7.3,7.2,7.4C830.6,417.4,837.1,416.1,839.6,415.4"/>
		<path class="st6" d="M847.7,419.4c0.3-0.3,0.3-0.7,0.3-1.2c-0.1-0.9-0.3-1.8-0.6-2.7c0.2-1.8-0.1-3.4-1.1-4.6
			c-0.3-0.4-0.9-0.4-1.3-0.2c-0.1,0.1-0.3,0.2-0.4,0.3c-0.1-0.2-0.1-0.5-0.2-0.7c-0.1-0.3-0.5-0.2-0.5,0.1c0,0.5-0.1,1-0.2,1.5
			c-0.7,0.9-1,2.1-1.4,3.4c-0.8,2.7-1.6,5.4-2.7,8.1c-1.9,5.1-4.6,10-7.5,14.7c-2.9,4.8-6.2,9.5-9.7,13.9c-3.2,4.2-6.8,8.2-9.6,12.6
			c-0.2,0.2-0.4,0.5-0.5,0.8c-0.3,0.4,0.3,0.9,0.7,0.7c2.1-1.2,3.6-3.4,5.6-4.8c2.3-1.6,4.2-3.9,6-6c4-4.5,7.7-9.2,10.9-14.3
			c0,0,0,0,0,0c0.1-0.2,0.3-0.4,0.4-0.6c2-2.9,3.8-5.9,5.4-9c1.2-1.8,2.2-3.8,3.2-5.7C845.4,424.3,847.1,421.5,847.7,419.4z"/>
		<path class="st6" d="M692.9,365.3c-5.8,4.4-11.6,11.5-12.6,18.9c-0.1,0.5,0.5,0.8,0.8,0.3c0.1-0.2,0.3-0.4,0.4-0.6
			c1.2,1.2,3.7,3.1,5.9,3.6c0.7,0.7,1.3,1.5,1.8,2.5c0.6,1.3,3.1,1.1,3.3-0.4c0.4-2.3,1.4-5.7,1.3-8.5c0.6-1.8,0.5-3.9,0.5-5.8
			c0-3.1-0.2-6.1,0-9.2C694.3,365.4,693.4,364.8,692.9,365.3z"/>
	</g>
	<g>
		<path class="st7" d="M659.4,462.6c0.1,0,0.2,0.1,0.2,0.1C659.6,462.7,659.5,462.6,659.4,462.6z"/>
		<path class="st7" d="M819.8,489.3c0.2-0.9-0.3-1.6-1-2c0.1-1.3,0.3-2.6,0.5-3.9c0.3-1.8,0.8-4.1,0.4-6c-0.3-1.3-1.5-2.2-2.1-3.4
			c-0.3-0.5-0.7-0.7-1.2-0.8c-0.4-0.6-0.8-1.2-1.2-1.8c-0.3-0.4-0.8-0.8-1.3-0.7c-0.1,0-0.1,0-0.2,0c-1-0.1-1.5,0.7-1.4,1.5
			c0,0.4,0.1,0.8,0.3,1.1c0,0,0,0,0,0c-0.5,1.3-0.6,2.7-1.1,4c-0.9,2.3-1.9,4.2-3.4,6.1c-0.8,1-1.1,2.2-1.2,3.5
			c-0.1,1.3-0.2,2.6-0.4,3.8c0,0-0.1,0.1-0.1,0.1c-0.5,0.7-0.8,1.5-1.1,2.4c-0.1,0.3-0.1,0.5-0.2,0.6c-0.6-0.3-1.4-0.3-2,0.3
			c-0.6,0.6-1.1,1.2-2,0.8c-0.8-0.4-1.8-0.2-2.3,0.6c-0.1,0.1-0.2,0.2-0.3,0.3c-0.2,0.1-0.5,0.1-0.7,0.2c0.1-0.1,0.1-0.3,0-0.6
			c-0.3-1.3-2.2-1.5-2.8-0.4c-0.1,0.1-0.1,0.2-0.2,0.2c-0.4-0.6-0.7-1.1-1-1.7c-0.2-0.4-0.5-0.6-0.9-0.7c-0.2-1.3-0.4-2.7-0.5-4.1
			c0-0.7,0-1.3,0.1-2c0-0.6,0-1.2,0-1.8c0.1-0.4,0.1-0.9,0.2-1.3c0.2-0.2,0.3-0.4,0.4-0.6c1.1-3.5,3.5-6.5,4.9-9.8
			c0.2-0.1,0.4-0.3,0.5-0.4c0.6-0.6,0.5-1.6-0.3-2c-1.9-1.1-4.6,0.1-6.7-0.2c-1.3-0.2-2.1-0.1-2.7-1.4c-0.2-0.5-0.5-0.8-0.9-1.1
			c0.8-0.6,1.8-1,2.7-1c0.9,0,2.4-0.7,3.2-0.5c0.7,0.1,1.2,0.2,1.8-0.1c0.6-0.2,1-0.6,1.2-1.1c0.6,0.2,1.3,0.3,1.9,0.1
			c0.4-0.1,0.7-0.5,0.8-0.9c0,0,0,0,0,0c0,0,0-0.1,0-0.1c0.1-0.8-0.2-1.5-1-1.7c-3.3-1-6.8-2.2-9.9-3.8c-1.6-0.8-2.8-1.5-4.7-1.2
			c-0.1,0-0.2,0-0.3,0c-0.2-0.1-0.4-0.1-0.6-0.1c-0.9-0.1-1.5,0.4-2.3,0.5c-2.1,0.4-4,0.7-6,1.3c-2.1,0.6-5.6,1.5-7.8,1.2
			c-2.4-0.4-5.4-0.3-7.7,0.6c-0.3,0-0.5,0.1-0.6,0.3c0,0,0,0,0,0.1c-0.9-0.1-1-0.1-0.3,0c-0.8-0.1-1.6-0.2-2.4-0.3
			c-0.2-0.1-0.4-0.2-0.6-0.3c-1.6-0.4-3-0.6-4.6-0.2c-0.6,0.1-1.1,0.3-1.7,0.6c1.2-0.6,0.3-0.1-1.1-0.2c-1.5-0.1-3.1-0.8-4.7-0.8
			c-1.5,0-2.3-0.3-3.9-0.3c-0.5,0-0.9,0-1.4,0c-0.3,0-1.1,0-1.7-0.1c0.6-0.1-0.1-0.2-2-0.3c1.3,0-1.4-0.3-1.4-0.3
			c-2.2-0.5-4.1-0.4-6.3-0.1c-0.1,0-0.2,0.1-0.3,0.1c-0.8-0.1-0.9,0-0.5,0.1c-1.8-0.4-3.5-1.2-5.3-1.2c-1.2,0-2.2,0-3.3-0.4
			c-1.2-0.4-2.4-0.3-3.5,0c-1-0.1-2-0.2-3-0.2c-1.1,0-3.3-0.3-4.9-0.2c-1.5,0.1-2.9-0.4-4.4-0.4c-1.3,0-2.5,0.3-3.7,0.8
			c-1,0-2.1,0-3.1-0.1c-1.2,0-2.4,0.3-3.6,0.7c-1,0-1.9,0.1-2.9,0.2c-0.3,0-0.7-0.1-1.3-0.1c-0.9,0-1.8,0.2-2.6,0.5
			c-1.8,0.3-3.6,0.7-5.4,1c-1.1,0.2-2.1,0.4-3.1,0.6c-0.9,0.1-2.5,0.9-3.2,0.9c0,0-2.5-0.2-3.3-0.2c-1.6,0.1-3,0-4.6,0.4
			c-1.6,0.7-1.8,0.8-0.8,0.2c-0.8-0.1-2.1,0.3-2.9,0.5c-0.3-0.1-0.5,0-0.7,0.2c-1.4,0.2-1.7-0.7-0.7-0.1c-1.3-0.8-2.8-1.1-4.3-0.7
			c-0.7,0.2-1.3,0.4-1.9,0.7c0,0-0.1,0.1-0.1,0.1c-0.2,0-0.3,0-0.6,0c-1.1,0-2.1,0-3.2,0.1c-0.7,0.1-1.4,0.2-2.2,0.3
			c-0.2,0-0.3,0.1-0.4,0.1c0,0,0,0-0.1,0c-1.9-0.5-4.3,0.1-6.3,1c-0.6,0-1.2,0-1.8,0.3c-1.8-0.4-3.8,0.4-4.8,2
			c-0.3,0.5-0.6,1.1-0.8,1.6c0,0,0,0,0,0c-1.9,1.8-1.9,3.9-1,5.9c-0.4,1.7-0.7,3.4-1,5c-0.3,1.9-0.8,9.6,0.9,13.2
			c-0.2,2.1-0.2,4.1-0.3,6.1c-0.2,11.7,1.9,23.3,4.5,34.6c0.3,1.4,0.7,2.8,1,4.2c0,1,0.2,2,0.3,3c0.2,1.7,0.8,3.7,0.7,5.4
			c-0.1,4.3,0.2,8.5,0.3,12.9c0.1,4.9,0.8,9.8,0.9,14.7c0.1,4.5-0.4,9.1-0.9,13.6c-0.3,3,2.3,3.3,4.6,3.4c0.9,0.6,1.9,0.7,3,0.5
			c0.5-0.1,0.9-0.3,1.2-0.6c1.3,0.6,2.3,0.7,3.5,0.1c0.4,0.1,0.7,0.1,1.1-0.1c0.1,0,0.2,0,0.3,0c0.5,0.1,0.9,0.1,1.4,0
			c0.4-0.1,0.7-0.2,1.1-0.3c0.5,0.1,1,0.1,1.8,0.1c0.5,0,1-0.2,1.3-0.5c0.3,0.3,0.7,0.5,1.1,0.2c0.5-0.3,0.6-0.9,0.2-1.3
			c-0.1-0.1-0.3-0.3-0.4-0.4c0,0,0,0,0,0c1.4-4.5,0.1-9.8,1-14.5c0.9-4.5,0.3-9.4,0.8-13.9c0.5-4.8-0.1-9.7,0.5-14.5
			c0.3-2.4,0-4.9-0.2-7.3c-0.1-1.7-0.3-3.4-0.9-4.9c0.1-0.9,0.2-1.8,0.5-2.6c0.6-2.4,0.6-5.4,0.6-7.9c0-3.5,0.4-7,0.4-10.5
			c0-1.7-0.1-3.6-0.6-5.3c-0.1-2.9,0.1-5.8,0.2-8.7c0-0.6-0.3-1-0.8-1.3c0-0.1,0-0.3,0-0.4c1.5,0.3,3.1,0.4,4.6,0.2
			c0.4-0.1,0.7-0.1,1.1-0.1c1.8,0.4,3.6,0.7,5.4,0.9c3.8,0.5,7.7,0.5,11.5,0.7c2.8,0.2,5.5,0.7,8.3,0.8c0.3,0,0.7,0,1,0
			c2.5,0.9,5.4,0.8,8.1,1.2c4.1,0.6,8.4-0.1,12.4-0.8c2-0.3,4.1-0.6,6.1-0.5c1.9,0,4.6-1.1,6.4-1.5c2.4-0.6,5.2-1.4,7.9-2.4
			c1.8,0.8,4.1,1,5.9,1.3c2,0.3,3.9,0.3,5.9,0.3c0.2,0,0.4,0.1,0.6,0.1c1.3,0.1,2.7,0.1,4,0.1c1.9,0.3,3.8,0.6,5.8,0.9
			c2.2,0.3,4.9,0.2,7.1-0.1c1.1-0.2,2.2-0.1,3.3-0.2c0.2,0.5,0.7,0.9,1.4,0.7c2-0.5,4.1-0.6,6.2-0.8c1.2,0.5,2.4,0.8,3.7,0.8
			c0.6,0,1.1-0.1,1.6-0.2c0,0.1,0.1,0.1,0.2,0.2c0.8,0.6,1.6,1.1,2.6,1.1c1,0.1,1.9,0.1,2.9,0c1.6-0.1,1.7,0.6,1.6-1
			c0.2,1.7,2,2.2,3,1.5c-0.6,2.2-0.3,5-0.1,7.1c0.1,1.9,0.4,3.8,0.6,5.7c-0.1,0.3-0.1,0.5-0.2,0.7c-0.3,1.6-0.1,3.2-0.2,4.8
			c-0.3,3.9,1.2,7.8,1.3,11.7c0.1,3.8,0.8,7.6,1.2,11.3c0.4,3.7,0.7,7.5,1.1,11.2c0.3,3.4,0.4,7,0.5,10.4c0,1.8,0.4,3.6,0.4,5.4
			c0,2-0.4,3.6,0,5.5c0.2,1.2,0.3,2.4,0.4,3.6c-0.2,0.1-0.4,0.2-0.6,0.4c-1.2,1.3-1.1,3-1.1,4.7c0,1.5-0.1,3.1-0.2,4.6
			c-0.1,1.4-0.1,2.9-0.1,4.1c0,0.4,0.2,0.8,0.4,1c-0.1,0.3-0.2,0.6-0.4,0.9c0,0,0,0,0,0.1c-0.4,0.2-0.6,0.7-0.3,1.1
			c0.1,0.1,0.2,0.2,0.3,0.4c0.4,0.6,1.5,0.6,1.7-0.2c0-0.2,0.2-0.5,0.3-0.7c0.4,0.5,1.2,0.8,1.8,0.4c0.2-0.1,0.4-0.3,0.6-0.6
			c0.4,0.1,0.8,0,1.2-0.2c2.5-1.3,4.1-1.5,7-1.4c1.1,0,2.2-0.2,3.2-0.4c0.6-0.1,2,0.6,2.8,0.7c3,0.3,0.9-4.5,0.3-5.7
			c0.4-0.2,0.7-0.6,0.7-1.2c0-0.4,0-0.8,0-1.3c0.4-0.2,0.8-0.7,0.8-1.3c0.2-4.4-0.1-8.9-0.2-13.3c0-0.5,0-0.9,0-1.4
			c0.1-2,0.3-4.1,0.4-6.1c0.1-0.2,0.2-0.4,0.3-0.7c0.7-6.3,1.6-12.6,1.6-18.9c0-0.4-0.1-0.6-0.3-0.8c0.1-0.5,0.1-1,0.2-1.4
			c0.7,0,1.3-0.6,1.3-1.3c0-0.2,0-0.4,0-0.7c0-0.5-0.2-0.8-0.5-1c0-0.4,0.2-1,0.3-1.5c0.3-0.3,0.5-0.6,0.5-1.1
			c0.3-7.5,1.7-15,1.9-22.6c0.9-0.2,1.7-0.8,1.8-2c0.1-3,0.2-6,0.4-9.1c0.1-1.6,0.2-3.1,0.3-4.7
			C819.7,493.2,819.2,491.1,819.8,489.3C819.9,489.3,819.9,489.3,819.8,489.3z"/>
	</g>
	<g>
		<path class="st3" d="M778,266.7C777.9,266.7,777.9,266.7,778,266.7c-0.1-7.6-1-17.6-1-17.7c0-0.2-0.1-0.4-0.2-0.5
			c13.5-9.8,15.5-29.5,15.6-29.8c0-0.4-0.2-0.9-0.6-1.1c-0.4-0.2-0.9-0.1-1.2,0.2l-1.9,1.7c0.8-5.5,0.5-10,0.5-10.4
			c0-0.4-0.3-0.8-0.6-0.9c-0.4-0.2-0.8-0.1-1.1,0.2c-14.2,11.6-19.1,11.2-32.1,10.2c-6.8-0.5-16.1-1.2-30.1-0.3
			c-13,0.9-21.8,4.9-26.1,12.1c-5.6,9.4-1.5,20.8-0.5,23.4c-2.8,5-1.1,13.6,0.3,18.7c-1.5,0.2-4.1,0.9-5.7,2.8
			c-1.2,1.5-1.6,3.4-1.1,5.6c0.5,2.3,1.6,4,3.3,4.9c1.9,1.1,4.2,0.9,5.6,0.6c1.8,22.3,11.6,34.8,19.7,41.4c9,7.4,17.9,9.5,19.7,9.5
			c0.1,0,0.1,0,0.2,0c2-0.3,3.5-1,3.6-1c13.8-6.8,30.5-18.8,31.4-37.7l0-0.4c0.1-2.1,0.9-10.2,1.4-15.1c5.1-0.5,5.8-4.1,6.6-7.9
			c0.1-0.5,0.2-1,0.3-1.5c0.3-1.5,0.1-2.8-0.7-4C781.6,267.3,778.1,266.7,778,266.7z M781.8,273.2c-0.1,0.5-0.2,1.1-0.3,1.6
			c-0.8,3.9-1.3,5.7-4.2,6.1c0.1-1.1,0.2-1.7,0.2-1.7c0.1-0.6-0.4-1.1-1-1.2c-0.6-0.1-1.1,0.4-1.2,1c-0.1,0.7-1.6,16-1.8,19.2l0,0.4
			c-0.8,17.8-16.9,29.3-30.2,35.8c0,0-1.3,0.6-2.9,0.8c0,0,0,0,0,0c-0.4,0-34.5-6.2-37.3-50.2c0-0.3-0.2-0.7-0.5-0.8
			c-0.3-0.2-0.6-0.2-1-0.1c0,0-3,1.1-5.1-0.1c-1.1-0.6-1.9-1.8-2.2-3.5c-0.3-1.6-0.1-2.9,0.6-3.8c1.2-1.5,3.5-1.9,4.6-2.1
			c0.4,1.2,0.7,2,0.7,2.1c0.1,0.2,0.2,0.3,0.3,0.4c0.2,0.4,0.5,0.6,0.9,0.6c0,0,0,0,0,0c0.6,0,1.1-0.5,1.1-1.1
			c0-0.3,1-26.2,20.4-26.5c0.6,0,1.1-0.5,1.1-1.1c0-0.6-0.5-1.1-1.1-1.1c-15.9,0.2-20.6,15.6-22,23.7c-1.4-5-3-13.2-0.2-17.3
			c0.2-0.3,0.2-0.7,0.1-1.1c-0.1-0.1-5.5-12.5,0.1-21.9c3.9-6.5,12.1-10.2,24.3-11c13.8-0.9,23-0.2,29.8,0.3
			c12.8,1,18.3,1.4,31.9-9.3c0,6.3-1.2,24.6-13.8,27.9c-0.6,0.2-0.9,0.8-0.8,1.3c0.2,0.6,0.8,0.9,1.3,0.8c9-2.4,12.8-11.1,14.3-18.8
			c0.2,0,0.5-0.1,0.6-0.3l1-0.9c-1.3,7-6.2,24.4-22,29.1c-0.6,0.2-0.9,0.8-0.7,1.4c0.1,0.5,0.6,0.8,1,0.8c0.1,0,0.2,0,0.3,0
			c2.4-0.7,4.6-1.7,6.5-2.9c0.2,2.6,1,13,0.9,19.6c0,0.6,0.5,1.1,1.1,1.1c0,0,0,0,0,0c0.6,0,1.1-0.5,1.1-1.1c0-0.2,0-0.4,0-0.5
			c0.7,0.2,2.6,0.7,3.5,2C781.9,271.6,782,272.3,781.8,273.2z"/>
		<path class="st3" d="M741.4,252c0.8,0.1,1.5,0.1,2.2,0.1c13.6,0,21.3-11.7,21.7-12.2c0.3-0.5,0.2-1.2-0.3-1.5
			c-0.5-0.3-1.2-0.2-1.5,0.3c-0.1,0.1-8.2,12.4-21.8,11.1c-0.6-0.1-1.1,0.4-1.2,1C740.4,251.4,740.8,252,741.4,252z"/>
	</g>
	<g>
		<path class="st5" d="M742.4,349.8c-0.5-1.4-1.8-2.6-3-3.4c-0.6-0.4-1.2-0.6-1.9-0.7c-0.1-0.1-0.1-0.1-0.2-0.2
			c0.1-0.5,0-1.1-0.4-1.6c-0.6-0.8-2.1-0.5-2.9-0.3c-1,0.2-1.9,0.6-2.9,1.1c-0.2-0.4-0.9-0.7-1.4-0.4c0.6-1.2,0.9-2.6,1.1-4
			c0.4-1.9,0.6-3.9,1-5.9c0.2-0.5,0.4-1,0.8-1.4c0.3-0.4,0.2-0.9-0.1-1.1c0.2-0.6,0.4-1.3,0.5-1.9c0.1-0.5-0.1-0.9-0.4-1.1
			c0,0,0,0,0,0c0.4-0.9-0.5-1.6-1.1-1.5c-0.4-0.2-0.9-0.1-1.2,0.4c-2.5,4.4-3.3,9.6-3.8,14.5c-0.2,0.5-0.3,1-0.4,1.6
			c-0.7,0.5-1.1,1.3-1.2,2.2c-0.4,3.5-0.8,7.1-1.6,10.6c-0.8,3.7-2.2,7.1-3.8,10.4c-3.2,6.5-7.4,12.4-11.9,18.1
			c-4.8,6.2-9.5,12.4-14.2,18.8c-2.3,3.2-4.6,6.4-6.7,9.6c-0.2,0.4-0.5,0.7-0.7,1.1c1-6.5,1.8-13.1,3.3-19.6
			c0.4-1.7,0.7-3.6-0.2-5.1c-1-1.7-2.6-2.5-4.3-3.4c-2.9-1.7-5.3-4.2-9-3.7c-0.4,0.1-0.8,0.3-1.1,0.6c-0.6-0.2-1.1-0.1-1.6,0.2
			c0,0,0,0,0-0.1c-0.6-1.3-2.5-1.6-3.6-0.9c-1.3,0.8-1.5,2.3-0.9,3.6c0.7,1.7,0.7,4.1,0.6,6.2c-0.6,0.3-1.1,0.9-1.2,1.6
			c-0.8,6.1,0.1,12,0.8,18.1c0.7,5.9,0.8,11.8,2.3,17.6c0.6,2.3,1.5,4.5,2.4,6.6c0.8,2,2.2,3.7,4.3,4.3c1.8,0.6,3.7-0.4,5.2-1.3
			c0.6-0.3,1.2-0.7,1.8-1.1c2-0.5,4-1.5,5.7-2.4c3.4-1.7,6.4-4.2,9-6.9c5.3-5.5,9.1-12.5,12.3-19.4c4-8.6,7.8-17.2,12.5-25.4
			c2.9-5.1,6.8-9.6,9.5-14.8c1.2-0.7,2.4-1.5,3.3-2.6c0.9-1,1.4-2.2,1.7-3.5c0,0,0-0.1,0.1-0.1c0.4-1.5,0.6-3,0.7-4.6
			c0.1-0.1,0.1-0.1,0.2-0.2v0c0,1,1.3,1.3,1.8,0.5C743.2,356.3,743.4,352.6,742.4,349.8z"/>
	</g>
	<g>
		<path class="st3" d="M723.2,282.7c4.2,0,4.2-6.5,0-6.5C719,276.2,719,282.7,723.2,282.7z"/>
		<path class="st3" d="M754.5,282.7c4.2,0,4.2-6.5,0-6.5C750.3,276.2,750.3,282.7,754.5,282.7z"/>
		<path class="st3" d="M716.4,272.6c1.7-2.5,4.3-3.7,7.2-4.1c1.2-0.2,0.7-2.1-0.5-1.9c-3.4,0.5-6.4,2.2-8.4,5
			C714,272.6,715.7,273.6,716.4,272.6z"/>
		<path class="st3" d="M751.8,261.3c4.7,1.1,8.1,4.6,10.1,8.9c0.5,1.2,2.2,0.2,1.7-1c-2.1-4.8-6.1-8.5-11.2-9.8
			C751.1,259.1,750.6,261,751.8,261.3z"/>
		<path class="st3" d="M729.1,311.6c6.1-3.4,13-5.9,19.9-6.4c1.3-0.1,1.3-2.1,0-2c-7.3,0.5-14.6,3.1-20.9,6.7
			C727,310.6,728,312.3,729.1,311.6z"/>
		<path class="st3" d="M849,414.7c-5.6-10.6-11.8-21-19.1-30.5c-0.1-0.1-0.2-0.2-0.3-0.2c1.4-1.8,2.7-3.7,3.9-5.7
			c0.7-0.1,1.2-1,0.6-1.6c-8.2-7.8-15.5-16.3-22-25.5c-0.1-0.2-0.2-0.3-0.4-0.3c0.1-0.2,0.1-0.4,0-0.6c-2.4-9.3-11.3-14.7-19.6-18.3
			c-9.2-4-18.9-6.1-28.4-9.1c-1.2-0.4-1.7,1.5-0.5,1.9c9,2.9,18.3,5,27.1,8.5c8.1,3.3,17.2,8.4,19.6,17.5c0.1,0.3,0.2,0.5,0.4,0.6
			c-0.1,0.2-0.1,0.5,0.1,0.8c6.4,9,13.6,17.4,21.5,25.1c-5,8.5-12.4,15.3-20.9,20c-0.4-0.1-0.9,0.2-1.1,0.6c-0.7,0.4-1.4,0.7-2.1,1
			c-5.5-7.8-12.6-14.3-20.5-19.7c-1-0.7-2,1-1,1.7c0.2,0.1,0.3,0.2,0.5,0.4c0,0.1-0.1,0.2-0.1,0.3c-0.3,12.8-0.4,25.5-0.6,38.3
			c-0.2,12.3-0.4,24.6-1.5,36.8c-0.4,0.1-0.9,0.2-1.3,0.3c-0.1,0-0.2,0-0.3,0.1c-12.6,3-25.9,3-38.7,2.6
			c-13.5-0.4-26.9-1.8-40.3-3.5c0.5-4.8,0.5-9.6,0.4-14.4c-0.1-5.2-0.2-10.4-0.8-15.5c1.1-1.4,2.2-2.9,3.2-4.3
			c7.1-10.6,11.3-22.7,16.8-34.1c2.8-5.7,5.9-11.4,9.8-16.4c0,0,0,0,0-0.1c1.3-0.4,2.5-1,3.5-2c1.1-1.1,1.7-2.5,2.4-3.8c0,0,0,0,0,0
			c0.1-0.1,0.1-0.3,0.1-0.5c0-1.3,0.2-2.5,0.3-3.8c0.6,0,1.1-0.3,1.6-0.6c0.2-0.1,0.3-0.3,0.4-0.4c0.2-0.1,0.3-0.2,0.5-0.4
			c1.4-2.5,2.2-5.3,2.3-8.1c0-0.3-0.1-0.5-0.3-0.7c0-0.1,0-0.2-0.1-0.3c-0.6-1.1-1.3-2.2-1.9-3.3c-0.2-0.4-0.5-0.5-0.8-0.5
			c0,0,0-0.1,0-0.1c-0.1-0.7-0.3-1.4-0.9-1.8c-0.6-0.5-1.3-0.8-2-0.8c0,0,0-0.1,0-0.1c0-1.2-1-2.2-2.1-2.4c-0.1,0-0.2,0-0.3,0
			c-1.8,0-3.5,0.5-5,1.3c0.5-2.9,1.6-5.8,2.2-8.7c0.5-2.1,1.6-6-0.3-7.7c-0.1-0.1-0.2-0.1-0.2-0.1c-0.1,0-0.1-0.1-0.2-0.1
			c-1-0.4-2,0.3-2.7,0.9c-0.9,0.9-1.6,2.1-1.9,3.4c0,0,0,0,0,0c-2.2,5.1-3.4,10.6-3.8,16.1c0,0,0,0.1,0,0.1
			c-1.5,7.4-3.5,14.7-6.1,21.7c-6.1,9.5-12.9,18.6-19.6,27.6c-0.6-5.6-1.3-11.3-2.9-16.7c-0.3-1.1-1.8-0.8-1.9,0.1
			c-0.1,0.1-0.2,0.2-0.2,0.4c-0.8,3.4-1.5,6.9-2.2,10.3c-7-5.4-15.6-9.1-24.5-8.3c2.7-12,4.4-24.2,6-36.4
			c5.2-6.9,13.7-10.4,21.7-12.7c8.4-2.4,17.2-3.6,25.9-4.7c1.2-0.2,1.2-2.1,0-2c-9.2,1.1-18.4,2.4-27.3,5
			c-8.3,2.5-16.8,6.3-22.1,13.5c-0.2,0.2-0.2,0.5-0.2,0.7c-1.6,12.4-3.3,24.8-6.1,37c0,0.2,0,0.4,0,0.6c-0.1,0.5,0.2,1.1,0.9,1
			c0.8-0.1,1.5-0.2,2.3-0.2c-1,19.8-3.4,41.5,8,59.1c0.5,0.8,1.7,0.4,1.8-0.4c6.1-1.2,11.9-3.7,17-7.4c2.6-1.9,5-4.2,7.2-6.6
			c0.4,4.3,0.5,8.7,0.6,13c0.1,4.9,0.1,9.9-0.4,14.8c-20.5,1.9-40.7,6.8-61.3,6.4c-0.1,0-0.2,0-0.3,0c-2.5,0.4-5,1-7,2.6
			c-2.8,2.3-3.2,6.3-3.3,9.6c-0.3,19,2.6,38,4.8,56.9c1.1,9.7,2.1,19.5,2.5,29.3c0.4,9.3,0.6,19-0.7,28.3c-1.4,2.2-4.3,3.3-6.7,4.1
			c-3.2,1.1-6.6,1.7-9.9,2.3c-2.9,0.5-5.9,0.8-8.9,1.2c-2.9,0.4-6.3,1.1-8.7,2.9c-1.7,1.2-2.1,3-0.8,4.6c0.8,1,2.2,1.7,3.4,2.2
			c2,0.9,4.2,1.5,6.3,2c4.4,1,9,1.2,13.4,0.9c4.2-0.3,8-1.6,12-2.4c4.2-0.8,8.6,0.1,12.8,0c3.3-0.1,7.2-1,9.5-3.5
			c3.3-3.4,0.7-8.8,0.9-13c0.1,0,0.3-0.1,0.4-0.2c0,0,0,0,0.1,0c0,0,0,0,0,0c0.1-0.2,0.2-0.4,0.2-0.6c-1.7-17.3-0.6-34.6,0.4-51.8
			c0.5-8.6,0.9-17.3,1-25.9c0-4.4-0.1-8.9-0.4-13.3c0-0.4,0-0.7-0.1-1.1c12.5,0.5,24.9,2.7,37.4,3.2c10.7,0.5,22.3,0,32.1-4.8
			c0.1,0.1,0.3,0.2,0.5,0.2c18.2,3.1,36.8,1.7,55.1,3.1c-0.3,13.2,1,26.4,2.4,39.5c0.9,9.1,1.8,18.3,2.2,27.5c0.2,4.7,0.2,9.3,0,14
			c-0.2,4.8-0.9,9.5-1.7,14.3c-0.2,0.3-0.1,0.6,0,0.9c-1.8,1.9-2.2,5.6-2.3,7.9c0,1.9-0.3,4.8,2,5.5c1,0.3,2.2,0.3,3.3,0.5
			c2.2,0.3,4.4,0.5,6.6,0.5c4,0,8-0.4,12-0.9c0.2,0.1,0.5,0.1,0.8,0c0.1,0,0.1-0.1,0.2-0.1c0.3,0,0.6-0.1,1-0.1
			c0.5-0.1,0.8-0.4,0.9-0.7c0.4-0.1,0.8-0.5,0.8-0.9c0-4.9-0.5-10.1-2.9-14.5c0.1-0.1,0.1-0.3,0.1-0.4c0-8.4-0.2-16.7,0.3-25.1
			c0.6-10.1,1.9-20.2,3.3-30.3c2.6-19.9,5.6-39.8,4.7-60c0.1-0.2,0.1-0.5-0.1-0.8c-2-2.6-4.3-4.8-6.8-6.7c-0.1-0.1-0.1-0.1-0.2-0.1
			c0-0.1,0-0.2-0.1-0.3c17.2-13.8,30.6-31.8,37.1-53C850.6,415,849.7,414.5,849,414.7z M692.5,392.2c0.3-0.1,0.5-0.3,0.5-0.7
			c0.5-2.8,1-5.5,1.6-8.2c1.1,4.8,1.6,9.7,2.1,14.5c0,0.1,0,0.2,0.1,0.3c-2.8,3.7-5.5,7.5-8.1,11.3c0.7-5.8,1.4-11.5,2.1-17.3
			c0.1,0.1,0.2,0.1,0.2,0.2C691.5,392.7,692.1,392.5,692.5,392.2z M693.4,433.4c-4.9,3.6-10.6,5.9-16.6,7c-10.3-17-8-37.9-7-56.9
			c6.9,0.2,13.5,3.1,19.2,7.2c-0.9,7.4-1.8,14.7-2.7,22.1c-1.8,2.6-3.5,5.2-5.1,7.9c-0.7,1.1,1,2.1,1.7,1
			c11.2-18.3,25.5-34.5,37-52.6c0.1-0.1,0.1-0.2,0.1-0.3c2.6-6.8,4.5-13.9,6-21.1c0.1-0.1,0.2-0.3,0.2-0.6
			c0.3-5.5,1.4-11.1,3.6-16.1c0.1-0.1,0.1-0.2,0.1-0.3c0.2-0.8,0.5-1.6,1.1-2.3c0.2-0.2,0.4-0.4,0.7-0.6c0.1,0,0.1-0.1,0.1-0.1
			c0.4,0.6,0.2,1.7,0.2,2.3c-0.1,1.6-0.6,3.2-0.9,4.8c-0.7,2.9-1.7,5.9-2.1,8.9c0,0,0,0.1,0,0.1c-1,0.7,0,2.4,1,1.7
			c1.8-1.3,3.9-2.2,6.2-2.2c0,0,0,0,0,0c0,0,0,0,0,0c0,0,0,0,0,0c0,0,0,0,0,0c0,0,0.1,0,0.1,0.1c0,0,0.1,0.1,0.1,0.1
			c-0.2-0.2,0.1,0.2,0.1,0.1c0,0,0,0.1,0,0.1c0,0,0,0,0,0c0,0.1,0,0.3,0.1,0.4c-0.9,0.3-1.7,0.7-2.5,1.1c-1.1,0.6-0.1,2.3,1,1.7
			c0.9-0.5,3.4-2,4.2-0.7c0.1,0.2,0.1,0.3,0.1,0.5c-0.9,0.2-1.7,0.5-2.5,0.9c-1.1,0.5-0.1,2.2,1,1.7c0.9-0.4,1.8-0.7,2.8-0.8
			c0.5,0.9,1.1,1.8,1.6,2.8c0,0,0.1,0.1,0.1,0.1c-0.1,2.5-0.8,4.8-2,7c0,0,0,0.1,0,0.1c0,0-0.1,0-0.1,0c-0.1,0.1-0.3,0.2-0.4,0.2
			c0-0.4,0.1-0.9,0.1-1.3c0-0.1,0-0.2,0-0.2c0.1-1.1,0.3-2.2,0.7-3.1c0.5-1.1-1.2-2.1-1.7-1c-0.7,1.5-1,3.3-1,5c0,0.1,0,0.2,0,0.3
			c0,0.1,0,0.2,0,0.4c0,0.2,0,0.4,0,0.6c0,0,0,0,0,0c-0.2,1.7-0.4,3.3-0.5,5c-0.5,1-1,2-1.7,2.8c-0.8,1-2,1.6-3.2,2
			c-0.2,0.1-0.4,0.2-0.5,0.3c-0.1,0-0.1,0.1-0.2,0.2c-7.8,10-12.4,21.9-17.6,33.3C709.4,414.4,703.6,426,693.4,433.4z M788.2,419.8
			c0.3-12.4,0.3-24.8,0.6-37.2c6.6,4.8,12.6,10.5,17.3,17.2c-0.7,0.6,0.2,1.9,1.2,1.5c0.6,0.2,1.3-0.1,1.4-0.6c0.7-0.3,1.4-0.7,2-1
			c5.6,5.6,11.3,11.3,16.7,17.2c0.1,0.1,0.2,0.1,0.3,0.2c-4.8,7.9-6.8,17.2-9.8,25.8c-1.6,4.7-3.6,9.4-6.7,13.4
			c-2.5,3.3-5.8,5.7-9.5,7.3c-0.1,0-0.1-0.1-0.2-0.1c-5-2-10.1-3.8-15.2-5.5c0-0.1,0.1-0.2,0.1-0.3c0-0.1,0-0.1,0-0.2
			C787.7,444.9,787.9,432.3,788.2,419.8z M656.4,603.3c-4.1,2.4-9,1.7-13.5,1.5c-3.8-0.2-7.2,0.4-10.8,1.4c-4.6,1.3-9.3,1.6-14,1.3
			c-4.4-0.3-9.2-1.2-13.2-3.2c-0.6-0.3-2.2-1.1-2.1-2c0.2-1,1.7-1.6,2.5-1.9c2.9-1.3,6.2-1.6,9.3-2c4.7-0.6,9.4-1.3,14-2.5
			c3.3-0.9,7.3-2.3,9.5-5.2c6.7,0.8,13.4,1.1,20.1,0.2C658.2,595.1,660.9,600.7,656.4,603.3z M792.4,607.2c-0.7-0.1-1.7,0-2.4-0.4
			c-0.5-0.2-0.4-1.4-0.4-1.9c-0.1-1.5,0-3,0.3-4.5c0.3-1.2,0.7-3.4,1.8-4.1c0.5-0.3,0.5-0.8,0.4-1.2c5.4-3.9,11.6-4.5,17.8-2.6
			c0,0,0,0,0,0c2.5,4,3.1,8.9,3.1,13.6c-0.4,0.2-0.8,0.4-1.2,0.6C805.4,607.6,799,608.1,792.4,607.2z M818.5,476.9
			c0.9,20.1-2.1,40-4.7,59.9c-1.3,10.1-2.6,20.1-3.3,30.3c-0.5,7.9-0.3,15.8-0.3,23.7c-6.3-1.9-12.6-1.3-18.1,2.2
			c0.6-3.6,1.1-7.2,1.3-10.8c0.3-4.7,0.2-9.3,0.1-14c-0.3-9.4-1.2-18.7-2.2-28.1c-1.9-18.3-4-36.8-1.4-55.1c0.2-1.2-1.7-1.8-1.9-0.5
			c-0.6,4.3-1,8.6-1.1,12.9c-17.6-1.3-35.5-0.1-53-2.7c0.1-0.1,0.2-0.1,0.4-0.2c1.1-0.7,0.1-2.3-1-1.7c-10.4,6.3-23.3,6.7-35.1,6.1
			c-12.2-0.6-24.3-2.7-36.6-3.2c0,0,0,0,0,0c-0.3-3.3-0.8-6.6-0.8-9.9c0-1.3-2-1.3-2,0c0,4.1,0.7,8.2,1,12.3
			c0.3,4.4,0.4,8.8,0.4,13.3c0,8.6-0.4,17.3-0.9,25.9c-1,17.2-2.1,34.5-0.5,51.7c-6.6,1.1-13.4,0.7-20.1,0c1.1-8.6,0.9-17.4,0.7-26
			c-0.3-10-1.3-19.9-2.4-29.9c-2.2-19.3-5.2-38.6-4.9-58.1c0-2.9,0.4-6.2,2.7-8.2c1.6-1.4,3.9-1.7,5.9-2.1
			c20.9,0.4,41.4-4.7,62.1-6.5c13.9,1.8,27.9,3.2,41.9,3.7c12.8,0.4,26,0.3,38.5-2.6c5.3,1.7,10.5,3.5,15.7,5.5
			c-0.3,0.1-0.5,0.2-0.8,0.2c-2.2,0.6-13.7-1-10.9,4.5c0.9,1.9,4,2,5.8,2.1c1.6,0.1,3.3,0,4.9-0.1c-2,3.3-4,6.7-5.3,10.4
			c-0.7,2.1-0.7,4.3-0.7,6.6c0.1,2.1,0.1,4.4,1,6.3c0.7,1.5,1.8,1.3,2.8,0.6c0.4,0.6,0.9,1.2,1.5,1.7c0.3,0.3,0.8,0.4,1.2,0.2
			c0.4-0.3,0.6-0.6,0.9-0.9c0.9,0.5,2,0.9,2.8,0.4c0.5-0.3,0.7-0.8,0.8-1.4c1.8,0.7,3.3,0.1,3.7-1.9c0.5-2.5-0.2-4.9,0.9-7.3
			c0.7-1.5,1.8-2.7,2.6-4.1c0.9-1.3,1.6-2.7,2.2-4.2c0.8-1.8,1.1-3.8,1-5.7C815.4,473.3,817.1,475,818.5,476.9z M812.1,467.3
			c-0.5,0.1-1.1,0.5-0.9,1.2c0.7,2.6,0.7,5.1-0.2,7.6c-0.8,2.6-2.6,4.9-4.1,7.2c-1.3,1.9-1.8,3.9-1.9,6.1c0,0.8,0,1.7,0,2.5
			c0,0.9-0.1,1.8-1.1,1.3c-0.2-0.1-0.4-0.1-0.6-0.1c0-1.6-0.2-3.2-0.2-4.9c0.1-2.5,2.2-4.4,3.6-6.4c0.7-1-1-2-1.7-1
			c-1.9,2.6-3.9,4.7-3.9,8.1c0,1.3,0.1,2.7,0.2,4c0,0.5,0,1,0,1.6c-0.3-0.1-0.6-0.2-0.9-0.3c0.3-1.2,0.1-2.5-0.1-3.8
			c-0.2-1.6-0.4-3,0.1-4.6c0.4-1.7,1.7-3.1,2.6-4.5c0.7-1.1-1-2-1.7-1c-1.5,2.4-2.9,4.4-3.2,7.2c-0.2,1.8,1.1,4.9,0.3,6.7
			c0,0.1-0.1,0.2-0.1,0.2c0,0.1-0.1,0.1-0.1,0.2c-0.3-0.4-0.6-0.8-0.7-1.3c0-0.2-0.1-0.4-0.2-0.5c0.9-3.9-1-8.3,1.6-11.8
			c0.7-1-1-2-1.7-1c-1.3,1.7-1.7,3.7-1.7,5.8c0,2.4,0.7,4.9-0.3,7.3c-0.1,0.1-0.2,0.2-0.2,0.3c-0.3-0.5-0.4-1.2-0.5-1.8
			c-0.3-1.9-0.3-3.8-0.3-5.7c0.1-5.6,3.8-10.7,6.6-15.3c0.2-0.4,0.2-0.7,0-1c-0.1-0.3-0.4-0.5-0.8-0.5c-3.2,0-7.5,1.1-10.4-0.7
			c-2-1.2,2.7-1.6,3.2-1.6c2-0.1,4.2,0.2,6.2-0.3c23.4-6.3,20.4-35,32.3-51.3c0.7-1-1-2-1.7-1c-0.2,0.3-0.5,0.7-0.7,1
			c-5.3-5.7-10.8-11.2-16.2-16.7c6-3.4,11.4-7.8,15.9-13.1c7.4,9.7,13.7,20.2,19.4,31c0.1,0.1,0.1,0.2,0.2,0.3
			C841.4,437,828.5,454,812.1,467.3z"/>
	</g>
	<g>
		<g>
			<g>
				<path class="st8" d="M908.8,37.1l-78-11.2c-13.9-2-26.8,7.7-28.9,21.6l-9.4,64.9c-2,13.9,7.7,26.8,21.6,28.9l12.3,1.8
					c-2.2,8.6-8.4,25.3-24.1,34.7c0,0,30.7,1.9,44.2-31.8l45.7,6.6c13.9,2,26.8-7.7,28.9-21.6l9.4-64.9
					C932.4,52,922.7,39.1,908.8,37.1z M866.2,115.5c-0.7,5.1-5.5,8.7-12.1,7.8c-5.9-0.8-9.6-6.1-9-10.8c0.6-4.5,5.2-9,11.7-8.1
					C863.2,105.3,866.9,110.4,866.2,115.5z M883.9,80.5c-1.7,11.7-16.4,12.6-17.2,18l-0.7,5l-16.8-2.4l1-7.2
					c1.2-8.3,16.2-11,16.9-15.9c0.5-3.4-2.9-4.7-6.1-5.2c-3.9-0.6-9.2,2.6-12.8,5.7l-8.4-11.2c7.4-6.4,16.1-9.6,25.1-8.3
					C877,60.6,885.6,68.3,883.9,80.5z"/>
			</g>
			<g>
				<path class="st9" d="M908.8,37.1l-78-11.2c-13.9-2-26.8,7.7-28.9,21.6l-9.4,64.9c-2,13.9,7.7,26.8,21.6,28.9l12.3,1.8
					c-2.2,8.6-8.4,25.3-24.1,34.7c0,0,30.7,1.9,44.2-31.8l45.7,6.6c13.9,2,26.8-7.7,28.9-21.6l9.4-64.9
					C932.4,52,922.7,39.1,908.8,37.1z M866.2,115.5c-0.7,5.1-5.5,8.7-12.1,7.8c-5.9-0.8-9.6-6.1-9-10.8c0.6-4.5,5.2-9,11.7-8.1
					C863.2,105.3,866.9,110.4,866.2,115.5z M883.9,80.5c-1.7,11.7-16.4,12.6-17.2,18l-0.7,5l-16.8-2.4l1-7.2
					c1.2-8.3,16.2-11,16.9-15.9c0.5-3.4-2.9-4.7-6.1-5.2c-3.9-0.6-9.2,2.6-12.8,5.7l-8.4-11.2c7.4-6.4,16.1-9.6,25.1-8.3
					C877,60.6,885.6,68.3,883.9,80.5z"/>
			</g>
		</g>
		<defs>
			<filter id="Adobe_OpacityMaskFilter" filterUnits="userSpaceOnUse" x="790.8" y="24.1" width="141.3" height="155.1">
				
					<feColorMatrix  type="matrix" values="-1 0 0 0 1  0 -1 0 0 1  0 0 -1 0 1  0 0 0 1 0" color-interpolation-filters="sRGB" result="source"/>
			</filter>
		</defs>
		<mask maskUnits="userSpaceOnUse" x="790.8" y="24.1" width="141.3" height="155.1" id="SVGID_1_">
			<g class="st10">
				
					<image style="overflow:visible;" width="606" height="663" xlink:href="F91C35D887A961C9.jpg"  transform="matrix(0.24 0 0 0.24 788.7939 22.0575)">
				</image>
			</g>
		</mask>
		<g class="st11">
			<g>
				<path class="st12" d="M908.8,37.1l-78-11.2c-13.9-2-26.8,7.7-28.9,21.6l-9.4,64.9c-2,13.9,7.7,26.8,21.6,28.9l12.3,1.8
					c-2.2,8.6-8.4,25.3-24.1,34.7c0,0,30.7,1.9,44.2-31.8l45.7,6.6c13.9,2,26.8-7.7,28.9-21.6l9.4-64.9
					C932.4,52,922.7,39.1,908.8,37.1z M866.2,115.5c-0.7,5.1-5.5,8.7-12.1,7.8c-5.9-0.8-9.6-6.1-9-10.8c0.6-4.5,5.2-9,11.7-8.1
					C863.2,105.3,866.9,110.4,866.2,115.5z M883.9,80.5c-1.7,11.7-16.4,12.6-17.2,18l-0.7,5l-16.8-2.4l1-7.2
					c1.2-8.3,16.2-11,16.9-15.9c0.5-3.4-2.9-4.7-6.1-5.2c-3.9-0.6-9.2,2.6-12.8,5.7l-8.4-11.2c7.4-6.4,16.1-9.6,25.1-8.3
					C877,60.6,885.6,68.3,883.9,80.5z"/>
			</g>
			<g>
				<path class="st13" d="M908.8,37.1l-78-11.2c-13.9-2-26.8,7.7-28.9,21.6l-9.4,64.9c-2,13.9,7.7,26.8,21.6,28.9l12.3,1.8
					c-2.2,8.6-8.4,25.3-24.1,34.7c0,0,30.7,1.9,44.2-31.8l45.7,6.6c13.9,2,26.8-7.7,28.9-21.6l9.4-64.9
					C932.4,52,922.7,39.1,908.8,37.1z M866.2,115.5c-0.7,5.1-5.5,8.7-12.1,7.8c-5.9-0.8-9.6-6.1-9-10.8c0.6-4.5,5.2-9,11.7-8.1
					C863.2,105.3,866.9,110.4,866.2,115.5z M883.9,80.5c-1.7,11.7-16.4,12.6-17.2,18l-0.7,5l-16.8-2.4l1-7.2
					c1.2-8.3,16.2-11,16.9-15.9c0.5-3.4-2.9-4.7-6.1-5.2c-3.9-0.6-9.2,2.6-12.8,5.7l-8.4-11.2c7.4-6.4,16.1-9.6,25.1-8.3
					C877,60.6,885.6,68.3,883.9,80.5z"/>
			</g>
		</g>
	</g>
</g>
</svg>
