<?xml version="1.0" encoding="utf-8"?>
<!-- Generator: Adobe Illustrator 19.2.0, SVG Export Plug-In . SVG Version: 6.00 Build 0)  -->
<svg version="1.1" id="Layer_1" xmlns="http://www.w3.org/2000/svg" xmlns:xlink="http://www.w3.org/1999/xlink" x="0px" y="0px"
	 viewBox="0 0 1024 768" style="enable-background:new 0 0 1024 768;" xml:space="preserve">
<style type="text/css">
	.st0{fill:#DCF0FB;}
	.st1{fill:#336699;}
	.st2{fill:#D1E9F6;}
	.st3{fill:#223367;}
</style>
<rect class="st0" width="1024" height="768"/>
<g>
	<path class="st1" d="M57.2,182.6L78,212.8h0.1v-30.2h3.4v35.7h-3.8l-20.8-30.2h-0.1v30.2h-3.4v-35.7H57.2z"/>
	<path class="st1" d="M104.2,192.9c1.5,0.7,2.8,1.7,3.8,3c1,1.2,1.8,2.7,2.3,4.3c0.5,1.6,0.8,3.4,0.8,5.3c0,1.9-0.3,3.6-0.8,5.3
		s-1.3,3.1-2.3,4.3c-1,1.2-2.3,2.2-3.8,2.9c-1.5,0.7-3.3,1.1-5.2,1.1c-2,0-3.7-0.4-5.2-1.1c-1.5-0.7-2.8-1.7-3.8-2.9
		c-1-1.2-1.8-2.7-2.4-4.3c-0.5-1.7-0.8-3.4-0.8-5.3c0-1.9,0.3-3.6,0.8-5.3c0.5-1.7,1.3-3.1,2.4-4.3c1-1.2,2.3-2.2,3.8-3
		c1.5-0.7,3.3-1.1,5.2-1.1C100.9,191.8,102.6,192.2,104.2,192.9z M95,195.4c-1.1,0.6-2.1,1.5-2.8,2.5c-0.8,1-1.3,2.2-1.7,3.5
		c-0.4,1.3-0.6,2.7-0.6,4c0,1.4,0.2,2.7,0.6,4c0.4,1.3,1,2.5,1.7,3.5s1.7,1.9,2.8,2.5c1.1,0.6,2.4,0.9,3.9,0.9s2.8-0.3,4-0.9
		c1.1-0.6,2.1-1.5,2.8-2.5s1.3-2.2,1.7-3.5c0.4-1.3,0.6-2.7,0.6-4c0-1.4-0.2-2.7-0.6-4c-0.4-1.3-1-2.5-1.7-3.5
		c-0.8-1-1.7-1.9-2.8-2.5c-1.1-0.6-2.5-1-4-1S96.1,194.8,95,195.4z"/>
	<path class="st1" d="M119,182.6v14.8h0.1c0.3-0.9,0.8-1.8,1.4-2.4c0.6-0.7,1.3-1.3,2.1-1.8c0.8-0.5,1.7-0.8,2.6-1.1
		c0.9-0.2,1.9-0.3,2.8-0.3c2,0,3.7,0.4,5.1,1.1c1.4,0.7,2.7,1.7,3.6,3c1,1.2,1.7,2.7,2.1,4.3c0.5,1.7,0.7,3.4,0.7,5.2
		c0,1.8-0.2,3.6-0.7,5.2c-0.5,1.6-1.2,3.1-2.1,4.3c-1,1.2-2.2,2.2-3.6,3c-1.5,0.7-3.2,1.1-5.1,1.1c-2.1,0-4-0.5-5.6-1.5
		c-1.7-1-2.8-2.3-3.6-4.2h-0.1v4.9h-2.9v-35.7H119z M136,201.5c-0.3-1.3-0.8-2.5-1.5-3.5c-0.7-1-1.6-1.9-2.6-2.5
		c-1.1-0.7-2.3-1-3.8-1c-1.7,0-3.1,0.3-4.2,1c-1.1,0.6-2.1,1.5-2.8,2.5c-0.7,1-1.2,2.2-1.5,3.5c-0.3,1.3-0.5,2.6-0.5,4
		c0,1.3,0.2,2.7,0.5,4c0.3,1.3,0.8,2.5,1.5,3.5c0.7,1,1.7,1.9,2.8,2.5s2.6,1,4.2,1c1.5,0,2.8-0.3,3.8-1c1.1-0.7,1.9-1.5,2.6-2.5
		c0.7-1,1.2-2.2,1.5-3.5c0.3-1.3,0.5-2.6,0.5-4C136.5,204.1,136.3,202.8,136,201.5z"/>
	<path class="st1" d="M160.7,192.9c1.5,0.7,2.8,1.7,3.8,3c1,1.2,1.8,2.7,2.3,4.3c0.5,1.6,0.8,3.4,0.8,5.3c0,1.9-0.3,3.6-0.8,5.3
		s-1.3,3.1-2.3,4.3c-1,1.2-2.3,2.2-3.8,2.9c-1.5,0.7-3.3,1.1-5.2,1.1c-2,0-3.7-0.4-5.2-1.1c-1.5-0.7-2.8-1.7-3.8-2.9
		c-1-1.2-1.8-2.7-2.4-4.3c-0.5-1.7-0.8-3.4-0.8-5.3c0-1.9,0.3-3.6,0.8-5.3c0.5-1.7,1.3-3.1,2.4-4.3c1-1.2,2.3-2.2,3.8-3
		c1.5-0.7,3.3-1.1,5.2-1.1C157.4,191.8,159.1,192.2,160.7,192.9z M151.5,195.4c-1.1,0.6-2.1,1.5-2.8,2.5c-0.8,1-1.3,2.2-1.7,3.5
		c-0.4,1.3-0.6,2.7-0.6,4c0,1.4,0.2,2.7,0.6,4c0.4,1.3,1,2.5,1.7,3.5s1.7,1.9,2.8,2.5c1.1,0.6,2.4,0.9,3.9,0.9s2.8-0.3,4-0.9
		c1.1-0.6,2.1-1.5,2.8-2.5s1.3-2.2,1.7-3.5c0.4-1.3,0.6-2.7,0.6-4c0-1.4-0.2-2.7-0.6-4c-0.4-1.3-1-2.5-1.7-3.5
		c-0.8-1-1.7-1.9-2.8-2.5c-1.1-0.6-2.5-1-4-1S152.6,194.8,151.5,195.4z"/>
	<path class="st1" d="M192.1,218.3v-4.9H192c-0.3,0.8-0.8,1.6-1.5,2.3c-0.6,0.7-1.4,1.3-2.2,1.8c-0.8,0.5-1.7,0.9-2.7,1.1
		c-1,0.3-1.9,0.4-2.8,0.4c-2,0-3.7-0.4-5.1-1.1s-2.7-1.7-3.6-3c-1-1.2-1.7-2.7-2.1-4.3c-0.5-1.7-0.7-3.4-0.7-5.2
		c0-1.8,0.2-3.6,0.7-5.2c0.5-1.7,1.2-3.1,2.1-4.3c1-1.2,2.2-2.2,3.6-3c1.5-0.7,3.2-1.1,5.1-1.1c1,0,1.9,0.1,2.8,0.3
		c0.9,0.2,1.8,0.6,2.6,1.1c0.8,0.5,1.5,1.1,2.1,1.8c0.6,0.7,1.1,1.5,1.4,2.4h0.1v-14.8h3.2v35.7H192.1z M174.9,209.4
		c0.3,1.3,0.8,2.5,1.5,3.5c0.7,1,1.6,1.9,2.6,2.5c1.1,0.7,2.4,1,3.9,1c1.7,0,3.1-0.3,4.2-1s2.1-1.5,2.8-2.5c0.7-1,1.2-2.2,1.6-3.5
		c0.3-1.3,0.5-2.6,0.5-4c0-1.3-0.2-2.7-0.5-4c-0.3-1.3-0.8-2.5-1.6-3.5c-0.7-1-1.6-1.9-2.8-2.5c-1.1-0.7-2.6-1-4.2-1
		c-1.5,0-2.8,0.3-3.9,1c-1.1,0.6-1.9,1.5-2.6,2.5c-0.7,1-1.2,2.2-1.5,3.5c-0.3,1.3-0.5,2.6-0.5,4
		C174.4,206.8,174.5,208.1,174.9,209.4z"/>
	<path class="st1" d="M201.5,192.5l8.5,22l7.9-22h3.1l-11.2,29.7c-0.5,1.1-0.9,2-1.3,2.7c-0.4,0.7-0.8,1.3-1.3,1.7
		c-0.5,0.4-1.1,0.7-1.7,0.9s-1.5,0.3-2.5,0.3c-0.6,0-1.1-0.1-1.5-0.1c-0.4,0-0.7-0.1-0.9-0.2v-2.7c0.4,0.1,0.7,0.1,1.1,0.2
		c0.4,0,0.7,0.1,1.1,0.1c0.7,0,1.3-0.1,1.7-0.3c0.5-0.2,0.8-0.5,1.2-0.8c0.3-0.3,0.6-0.8,0.8-1.3c0.2-0.5,0.5-1,0.8-1.7l1.1-2.9
		l-10.3-25.7H201.5z"/>
	<path class="st1" d="M241.2,182.6V205l14.3-12.5h4.2l-11,9.5l11.8,16.2h-3.9l-10.2-14l-5.1,4.2v9.8h-3.1v-35.7H241.2z"/>
	<path class="st1" d="M266.2,192.5v4.5h0.1c0.6-1.6,1.7-2.8,3.2-3.8c1.5-1,3.2-1.4,5.1-1.4c1.8,0,3.3,0.2,4.5,0.7
		c1.2,0.5,2.2,1.1,2.9,2c0.7,0.8,1.2,1.9,1.6,3.1c0.3,1.2,0.4,2.6,0.4,4.2v16.6h-3.1v-16.1c0-1.1-0.1-2.1-0.3-3.1
		c-0.2-1-0.6-1.8-1.1-2.5c-0.5-0.7-1.2-1.2-2-1.6c-0.9-0.4-1.9-0.6-3.2-0.6c-1.3,0-2.4,0.2-3.4,0.7c-1,0.4-1.8,1.1-2.5,1.8
		c-0.7,0.8-1.2,1.7-1.6,2.8c-0.4,1.1-0.6,2.3-0.6,3.5v15H263v-25.8H266.2z"/>
	<path class="st1" d="M306.1,192.9c1.5,0.7,2.8,1.7,3.8,3c1,1.2,1.8,2.7,2.3,4.3c0.5,1.6,0.8,3.4,0.8,5.3c0,1.9-0.3,3.6-0.8,5.3
		s-1.3,3.1-2.3,4.3c-1,1.2-2.3,2.2-3.8,2.9c-1.5,0.7-3.3,1.1-5.2,1.1c-2,0-3.7-0.4-5.2-1.1c-1.5-0.7-2.8-1.7-3.8-2.9
		c-1-1.2-1.8-2.7-2.4-4.3c-0.5-1.7-0.8-3.4-0.8-5.3c0-1.9,0.3-3.6,0.8-5.3c0.5-1.7,1.3-3.1,2.4-4.3c1-1.2,2.3-2.2,3.8-3
		c1.5-0.7,3.3-1.1,5.2-1.1C302.8,191.8,304.5,192.2,306.1,192.9z M296.9,195.4c-1.1,0.6-2.1,1.5-2.8,2.5c-0.8,1-1.3,2.2-1.7,3.5
		c-0.4,1.3-0.6,2.7-0.6,4c0,1.4,0.2,2.7,0.6,4c0.4,1.3,1,2.5,1.7,3.5s1.7,1.9,2.8,2.5c1.1,0.6,2.4,0.9,3.9,0.9s2.8-0.3,4-0.9
		c1.1-0.6,2.1-1.5,2.8-2.5s1.3-2.2,1.7-3.5c0.4-1.3,0.6-2.7,0.6-4c0-1.4-0.2-2.7-0.6-4c-0.4-1.3-1-2.5-1.7-3.5
		c-0.8-1-1.7-1.9-2.8-2.5c-1.1-0.6-2.5-1-4-1S298,194.8,296.9,195.4z"/>
	<path class="st1" d="M318.5,192.5l6.6,22.1h0.1l6.3-22.1h3.5l6.3,22.1h0.1l6.6-22.1h3.4l-8.3,25.8h-3.5l-6.4-21.7h-0.1l-6.3,21.7
		h-3.4l-8.3-25.8H318.5z"/>
	<path class="st1" d="M369.6,197.6c-0.4-0.7-0.9-1.3-1.5-1.8c-0.6-0.5-1.3-0.8-2.1-1c-0.8-0.2-1.6-0.3-2.5-0.3
		c-0.7,0-1.4,0.1-2.1,0.2c-0.7,0.1-1.4,0.4-2,0.8c-0.6,0.3-1.1,0.8-1.5,1.4c-0.4,0.6-0.5,1.3-0.5,2.1c0,0.7,0.2,1.3,0.5,1.8
		s0.8,0.9,1.3,1.2c0.5,0.3,1.1,0.6,1.8,0.8c0.6,0.2,1.2,0.4,1.8,0.5l4.2,0.9c0.9,0.1,1.8,0.4,2.7,0.7c0.9,0.3,1.7,0.8,2.3,1.4
		c0.7,0.6,1.2,1.3,1.7,2.1c0.4,0.8,0.6,1.8,0.6,3c0,1.4-0.3,2.6-1,3.6c-0.6,1-1.4,1.8-2.4,2.4c-1,0.6-2.1,1.1-3.3,1.3
		c-1.2,0.3-2.4,0.4-3.6,0.4c-3,0-5.5-0.7-7.4-2.2c-1.9-1.4-3-3.7-3.2-6.9h3.2c0.1,2.1,0.9,3.7,2.3,4.8c1.4,1.1,3.2,1.6,5.3,1.6
		c0.8,0,1.6-0.1,2.4-0.2c0.8-0.2,1.6-0.4,2.3-0.8c0.7-0.4,1.3-0.9,1.7-1.5c0.5-0.6,0.7-1.4,0.7-2.3c0-0.8-0.2-1.4-0.5-1.9
		c-0.3-0.5-0.7-1-1.3-1.3c-0.5-0.3-1.1-0.6-1.8-0.9c-0.7-0.2-1.4-0.4-2.1-0.6l-4.1-0.9c-1-0.3-2-0.6-2.9-0.9
		c-0.9-0.3-1.6-0.8-2.3-1.3c-0.6-0.5-1.2-1.2-1.5-1.9c-0.4-0.8-0.5-1.7-0.5-2.8c0-1.3,0.3-2.4,0.9-3.4c0.6-0.9,1.3-1.7,2.3-2.2
		c0.9-0.6,2-1,3.1-1.2c1.1-0.3,2.3-0.4,3.4-0.4c1.3,0,2.5,0.2,3.6,0.5c1.1,0.3,2.1,0.8,3,1.5s1.5,1.6,2,2.6c0.5,1,0.8,2.2,0.9,3.7
		h-3.1C370.2,199.1,370,198.3,369.6,197.6z"/>
	<path class="st1" d="M393.5,192.5l6.6,22.1h0.1l6.3-22.1h3.5l6.3,22.1h0.1l6.6-22.1h3.4l-8.3,25.8h-3.5l-6.4-21.7h-0.1l-6.3,21.7
		h-3.4l-8.3-25.8H393.5z"/>
	<path class="st1" d="M432.9,182.6V197h0.1c0.6-1.6,1.7-2.8,3.2-3.8c1.5-1,3.2-1.4,5.1-1.4c1.8,0,3.3,0.2,4.5,0.7
		c1.2,0.5,2.2,1.1,2.9,2c0.7,0.8,1.2,1.9,1.6,3.1c0.3,1.2,0.4,2.6,0.4,4.2v16.6h-3.1v-16.1c0-1.1-0.1-2.1-0.3-3.1
		c-0.2-1-0.6-1.8-1.1-2.5c-0.5-0.7-1.2-1.2-2-1.6c-0.9-0.4-1.9-0.6-3.2-0.6c-1.3,0-2.4,0.2-3.4,0.7c-1,0.4-1.8,1.1-2.5,1.8
		c-0.7,0.8-1.2,1.7-1.6,2.8c-0.4,1.1-0.6,2.3-0.6,3.5v15h-3.1v-35.7H432.9z"/>
	<path class="st1" d="M457.1,192.5l8.5,22l7.9-22h3.1l-11.2,29.7c-0.5,1.1-0.9,2-1.3,2.7c-0.4,0.7-0.8,1.3-1.3,1.7
		c-0.5,0.4-1.1,0.7-1.7,0.9s-1.5,0.3-2.5,0.3c-0.6,0-1.1-0.1-1.5-0.1c-0.4,0-0.7-0.1-0.9-0.2v-2.7c0.4,0.1,0.7,0.1,1.1,0.2
		c0.4,0,0.7,0.1,1.1,0.1c0.7,0,1.3-0.1,1.7-0.3c0.5-0.2,0.8-0.5,1.2-0.8c0.3-0.3,0.6-0.8,0.8-1.3c0.2-0.5,0.5-1,0.8-1.7l1.1-2.9
		l-10.3-25.7H457.1z"/>
	<path class="st1" d="M509.8,192.9c1.5,0.7,2.8,1.7,3.8,3c1,1.2,1.8,2.7,2.3,4.3c0.5,1.6,0.8,3.4,0.8,5.3c0,1.9-0.3,3.6-0.8,5.3
		s-1.3,3.1-2.3,4.3c-1,1.2-2.3,2.2-3.8,2.9s-3.3,1.1-5.2,1.1s-3.7-0.4-5.2-1.1c-1.5-0.7-2.8-1.7-3.8-2.9c-1-1.2-1.8-2.7-2.4-4.3
		c-0.5-1.7-0.8-3.4-0.8-5.3c0-1.9,0.3-3.6,0.8-5.3c0.5-1.7,1.3-3.1,2.4-4.3c1-1.2,2.3-2.2,3.8-3c1.5-0.7,3.3-1.1,5.2-1.1
		S508.3,192.2,509.8,192.9z M500.6,195.4c-1.1,0.6-2.1,1.5-2.8,2.5c-0.8,1-1.3,2.2-1.7,3.5c-0.4,1.3-0.6,2.7-0.6,4
		c0,1.4,0.2,2.7,0.6,4c0.4,1.3,1,2.5,1.7,3.5s1.7,1.9,2.8,2.5c1.1,0.6,2.4,0.9,3.9,0.9s2.8-0.3,3.9-0.9s2.1-1.5,2.8-2.5
		s1.3-2.2,1.7-3.5c0.4-1.3,0.6-2.7,0.6-4c0-1.4-0.2-2.7-0.6-4c-0.4-1.3-0.9-2.5-1.7-3.5c-0.8-1-1.7-1.9-2.8-2.5
		c-1.1-0.6-2.4-1-3.9-1S501.8,194.8,500.6,195.4z"/>
	<path class="st1" d="M539.5,218.3v-4.7h-0.1c-0.8,1.7-2,3.1-3.6,4c-1.6,0.9-3.3,1.4-5.3,1.4c-1.6,0-3-0.2-4.2-0.7
		c-1.2-0.5-2.1-1.1-2.8-1.9c-0.7-0.8-1.2-1.8-1.6-3c-0.3-1.2-0.5-2.6-0.5-4.1v-16.8h3.1v16.8c0.1,2.3,0.6,4.1,1.6,5.3
		s2.8,1.8,5.3,1.8c1.4,0,2.5-0.3,3.5-0.9c1-0.6,1.8-1.4,2.4-2.3c0.6-1,1.1-2.1,1.4-3.3s0.5-2.5,0.5-3.8v-13.5h3.2v25.8H539.5z"/>
	<path class="st1" d="M551.2,192.5v6h0.1c0.8-2.1,2-3.7,3.7-4.8s3.7-1.7,6-1.6v3.2c-1.4-0.1-2.7,0.1-3.9,0.6s-2.2,1.1-3,1.9
		c-0.9,0.8-1.5,1.8-2,3c-0.5,1.2-0.7,2.4-0.7,3.8v13.8h-3.2v-25.8H551.2z"/>
	<path class="st1" d="M74,281.4c-0.4,1.5-1.1,2.8-2,3.9c-0.9,1.1-2.1,1.9-3.5,2.5c-1.4,0.6-3.2,0.8-5.3,0.8c-1.3,0-2.6-0.2-3.8-0.5
		c-1.2-0.3-2.3-0.8-3.3-1.4c-1-0.6-1.8-1.4-2.5-2.4s-1-2.2-1.1-3.5h3.1c0.2,1,0.5,1.8,1,2.4c0.5,0.7,1.1,1.2,1.8,1.6
		c0.7,0.4,1.4,0.7,2.3,0.9c0.8,0.2,1.7,0.3,2.6,0.3c2.9,0,5-0.8,6.4-2.5c1.3-1.7,1.9-4.1,1.9-7.2v-3.5h-0.1
		c-0.7,1.6-1.8,2.9-3.2,3.8c-1.4,1-3.1,1.5-5,1.5c-2.1,0-3.8-0.3-5.3-1c-1.5-0.7-2.7-1.6-3.6-2.8c-0.9-1.2-1.6-2.6-2.1-4.2
		c-0.4-1.6-0.6-3.3-0.6-5.2c0-1.8,0.3-3.4,0.8-5c0.5-1.6,1.3-3,2.2-4.1c1-1.2,2.2-2.1,3.6-2.8c1.5-0.7,3.1-1,5-1
		c1,0,1.9,0.1,2.7,0.4c0.8,0.3,1.6,0.6,2.3,1.1c0.7,0.5,1.3,1,1.9,1.7c0.6,0.6,1,1.3,1.3,2h0.1v-4.5h3.1v23.7
		C74.6,278.1,74.4,279.9,74,281.4z M66.8,274.5c1-0.6,1.9-1.3,2.6-2.3c0.7-1,1.2-2,1.6-3.3c0.4-1.2,0.5-2.5,0.5-3.8
		c0-1.3-0.1-2.5-0.4-3.8c-0.3-1.3-0.8-2.4-1.5-3.5c-0.7-1-1.5-1.9-2.6-2.5c-1-0.6-2.3-1-3.8-1s-2.8,0.3-3.9,0.9
		c-1.1,0.6-2,1.4-2.6,2.4c-0.7,1-1.2,2.1-1.5,3.4c-0.3,1.3-0.5,2.6-0.5,3.9c0,1.3,0.2,2.6,0.5,3.8c0.3,1.2,0.9,2.3,1.5,3.3
		c0.7,1,1.6,1.7,2.6,2.3c1.1,0.6,2.3,0.9,3.8,0.9C64.6,275.4,65.8,275.1,66.8,274.5z"/>
	<path class="st1" d="M83,269.8c0.3,1.2,0.8,2.3,1.5,3.3c0.7,1,1.6,1.8,2.6,2.4c1.1,0.6,2.4,0.9,3.9,0.9c2.3,0,4.1-0.6,5.4-1.8
		s2.2-2.8,2.7-4.8h3.1c-0.7,2.9-1.9,5.2-3.7,6.8c-1.8,1.6-4.3,2.4-7.6,2.4c-2,0-3.8-0.4-5.3-1.1c-1.5-0.7-2.7-1.7-3.6-3
		c-0.9-1.2-1.6-2.7-2.1-4.3c-0.5-1.7-0.7-3.4-0.7-5.2c0-1.7,0.2-3.4,0.7-5c0.5-1.6,1.1-3.1,2.1-4.4c0.9-1.3,2.1-2.3,3.6-3.1
		c1.5-0.8,3.2-1.2,5.3-1.2c2.1,0,3.8,0.4,5.3,1.2c1.5,0.8,2.7,1.9,3.6,3.3c0.9,1.4,1.6,2.9,2,4.7c0.4,1.8,0.6,3.5,0.5,5.3H82.5
		C82.5,267.4,82.6,268.6,83,269.8z M98.6,260.2c-0.4-1.1-0.9-2.1-1.6-2.9c-0.7-0.8-1.5-1.5-2.5-2c-1-0.5-2.1-0.8-3.4-0.8
		c-1.3,0-2.5,0.3-3.5,0.8c-1,0.5-1.9,1.2-2.5,2c-0.7,0.9-1.3,1.8-1.7,3c-0.4,1.1-0.7,2.3-0.8,3.4h16.7
		C99.2,262.4,98.9,261.3,98.6,260.2z"/>
	<path class="st1" d="M109.7,252.5v4.5h0.1c0.6-1.6,1.7-2.8,3.2-3.8c1.5-1,3.2-1.4,5.1-1.4c1.8,0,3.3,0.2,4.5,0.7
		c1.2,0.5,2.2,1.1,2.9,2c0.7,0.8,1.2,1.9,1.6,3.1c0.3,1.2,0.4,2.6,0.4,4.2v16.6h-3.1v-16.1c0-1.1-0.1-2.1-0.3-3.1
		c-0.2-1-0.6-1.8-1.1-2.5c-0.5-0.7-1.2-1.2-2-1.6c-0.9-0.4-1.9-0.6-3.2-0.6c-1.3,0-2.4,0.2-3.4,0.7c-1,0.4-1.8,1.1-2.5,1.8
		c-0.7,0.8-1.2,1.7-1.6,2.8c-0.4,1.1-0.6,2.3-0.6,3.5v15h-3.1v-25.8H109.7z"/>
	<path class="st1" d="M135.8,269.8c0.3,1.2,0.8,2.3,1.5,3.3c0.7,1,1.6,1.8,2.6,2.4c1.1,0.6,2.4,0.9,3.9,0.9c2.3,0,4.1-0.6,5.4-1.8
		s2.2-2.8,2.7-4.8h3.1c-0.7,2.9-1.9,5.2-3.7,6.8c-1.8,1.6-4.3,2.4-7.6,2.4c-2,0-3.8-0.4-5.3-1.1c-1.5-0.7-2.7-1.7-3.6-3
		c-0.9-1.2-1.6-2.7-2.1-4.3c-0.5-1.7-0.7-3.4-0.7-5.2c0-1.7,0.2-3.4,0.7-5c0.5-1.6,1.1-3.1,2.1-4.4c0.9-1.3,2.1-2.3,3.6-3.1
		c1.5-0.8,3.2-1.2,5.3-1.2c2.1,0,3.8,0.4,5.3,1.2c1.5,0.8,2.7,1.9,3.6,3.3c0.9,1.4,1.6,2.9,2,4.7c0.4,1.8,0.6,3.5,0.5,5.3h-19.9
		C135.3,267.4,135.4,268.6,135.8,269.8z M151.4,260.2c-0.4-1.1-0.9-2.1-1.6-2.9c-0.7-0.8-1.5-1.5-2.5-2c-1-0.5-2.1-0.8-3.4-0.8
		c-1.3,0-2.5,0.3-3.5,0.8c-1,0.5-1.9,1.2-2.5,2c-0.7,0.9-1.3,1.8-1.7,3c-0.4,1.1-0.7,2.3-0.8,3.4H152
		C152,262.4,151.7,261.3,151.4,260.2z"/>
	<path class="st1" d="M162.3,252.5v6h0.1c0.8-2.1,2-3.7,3.7-4.8c1.7-1.1,3.7-1.7,6-1.6v3.2c-1.4-0.1-2.7,0.1-3.9,0.6
		c-1.2,0.5-2.2,1.1-3,1.9c-0.9,0.8-1.5,1.8-2,3c-0.5,1.2-0.7,2.4-0.7,3.8v13.8h-3.1v-25.8H162.3z"/>
	<path class="st1" d="M175.8,256.5c0.5-1.1,1.3-2,2.2-2.7c0.9-0.7,2-1.2,3.2-1.5c1.2-0.3,2.6-0.5,4.1-0.5c1.1,0,2.3,0.1,3.4,0.3
		c1.1,0.2,2.2,0.6,3.1,1.2s1.6,1.4,2.2,2.5c0.6,1.1,0.9,2.5,0.9,4.2v13.7c0,1.3,0.6,1.9,1.9,1.9c0.4,0,0.7-0.1,1-0.2v2.6
		c-0.4,0.1-0.7,0.1-1,0.2c-0.3,0-0.6,0-1.1,0c-0.8,0-1.4-0.1-1.9-0.3c-0.5-0.2-0.9-0.5-1.1-0.9c-0.3-0.4-0.4-0.9-0.5-1.4
		c-0.1-0.5-0.1-1.2-0.1-1.8h-0.1c-0.6,0.8-1.1,1.6-1.7,2.2c-0.6,0.7-1.2,1.2-1.9,1.6c-0.7,0.4-1.5,0.8-2.5,1c-0.9,0.2-2,0.4-3.3,0.4
		c-1.2,0-2.3-0.1-3.4-0.4c-1-0.3-2-0.7-2.8-1.4c-0.8-0.6-1.4-1.4-1.9-2.3c-0.4-1-0.7-2.1-0.7-3.4c0-1.8,0.4-3.2,1.2-4.2
		c0.8-1,1.9-1.8,3.2-2.3c1.3-0.5,2.8-0.9,4.4-1.1c1.7-0.2,3.3-0.4,5-0.6c0.7-0.1,1.2-0.2,1.8-0.2c0.5-0.1,0.9-0.3,1.2-0.5
		c0.3-0.2,0.6-0.6,0.8-1c0.2-0.4,0.3-1,0.3-1.7c0-1.1-0.2-1.9-0.5-2.6s-0.8-1.2-1.5-1.6c-0.6-0.4-1.3-0.7-2.1-0.8
		c-0.8-0.2-1.7-0.2-2.6-0.2c-2,0-3.6,0.5-4.9,1.4c-1.3,0.9-1.9,2.5-2,4.6h-3.1C174.9,258.9,175.3,257.6,175.8,256.5z M191.5,264.2
		c-0.2,0.4-0.6,0.6-1.1,0.8c-0.6,0.2-1.1,0.3-1.5,0.3c-1.3,0.2-2.7,0.4-4.1,0.6c-1.4,0.2-2.7,0.5-3.9,0.8c-1.2,0.4-2.1,0.9-2.9,1.6
		c-0.8,0.7-1.1,1.7-1.1,2.9c0,0.8,0.2,1.5,0.5,2.1c0.3,0.6,0.7,1.2,1.3,1.6c0.5,0.5,1.1,0.8,1.9,1c0.7,0.2,1.4,0.3,2.1,0.3
		c1.2,0,2.4-0.2,3.5-0.5c1.1-0.4,2.1-0.9,2.9-1.6c0.8-0.7,1.5-1.5,1.9-2.5c0.5-1,0.7-2.1,0.7-3.4v-4.1H191.5z"/>
	<path class="st1" d="M211.3,252.5v2.6h-5.2v17.4c0,1,0.1,1.8,0.4,2.4c0.3,0.6,1,0.9,2.1,1c0.9,0,1.8-0.1,2.7-0.2v2.7
		c-0.5,0-0.9,0-1.4,0c-0.5,0-0.9,0-1.4,0c-2.1,0-3.6-0.4-4.4-1.2c-0.8-0.8-1.2-2.3-1.2-4.5v-17.7h-4.5v-2.6h4.5v-7.8h3.1v7.8H211.3z
		"/>
	<path class="st1" d="M219.1,242.6v5h-3.2v-5H219.1z M219.1,252.5v25.8h-3.2v-25.8H219.1z"/>
	<path class="st1" d="M241.3,252.9c1.5,0.7,2.8,1.7,3.8,3c1,1.2,1.8,2.7,2.3,4.3c0.5,1.6,0.8,3.4,0.8,5.3c0,1.9-0.3,3.6-0.8,5.3
		s-1.3,3.1-2.3,4.3c-1,1.2-2.3,2.2-3.8,2.9c-1.5,0.7-3.3,1.1-5.2,1.1c-2,0-3.7-0.4-5.2-1.1c-1.5-0.7-2.8-1.7-3.8-2.9
		c-1-1.2-1.8-2.7-2.4-4.3c-0.5-1.7-0.8-3.4-0.8-5.3c0-1.9,0.3-3.6,0.8-5.3c0.5-1.7,1.3-3.1,2.4-4.3c1-1.2,2.3-2.2,3.8-3
		c1.5-0.7,3.3-1.1,5.2-1.1C238,251.8,239.7,252.2,241.3,252.9z M232.1,255.4c-1.1,0.6-2.1,1.5-2.8,2.5c-0.8,1-1.3,2.2-1.7,3.5
		c-0.4,1.3-0.6,2.7-0.6,4c0,1.4,0.2,2.7,0.6,4c0.4,1.3,1,2.5,1.7,3.5s1.7,1.9,2.8,2.5c1.1,0.6,2.4,0.9,3.9,0.9s2.8-0.3,4-0.9
		c1.1-0.6,2.1-1.5,2.8-2.5s1.3-2.2,1.7-3.5c0.4-1.3,0.6-2.7,0.6-4c0-1.4-0.2-2.7-0.6-4c-0.4-1.3-1-2.5-1.7-3.5
		c-0.8-1-1.7-1.9-2.8-2.5c-1.1-0.6-2.5-1-4-1S233.2,254.8,232.1,255.4z"/>
	<path class="st1" d="M256,252.5v4.5h0.1c0.6-1.6,1.7-2.8,3.2-3.8c1.5-1,3.2-1.4,5.1-1.4c1.8,0,3.3,0.2,4.5,0.7
		c1.2,0.5,2.2,1.1,2.9,2c0.7,0.8,1.2,1.9,1.6,3.1c0.3,1.2,0.4,2.6,0.4,4.2v16.6h-3.1v-16.1c0-1.1-0.1-2.1-0.3-3.1
		c-0.2-1-0.6-1.8-1.1-2.5c-0.5-0.7-1.2-1.2-2-1.6c-0.9-0.4-1.9-0.6-3.2-0.6c-1.3,0-2.4,0.2-3.4,0.7c-1,0.4-1.8,1.1-2.5,1.8
		c-0.7,0.8-1.2,1.7-1.6,2.8c-0.4,1.1-0.6,2.3-0.6,3.5v15h-3.1v-25.8H256z"/>
	<path class="st1" d="M303.9,252.5v2.6h-5.2v17.4c0,1,0.1,1.8,0.4,2.4c0.3,0.6,1,0.9,2.1,1c0.9,0,1.8-0.1,2.7-0.2v2.7
		c-0.5,0-0.9,0-1.4,0c-0.5,0-0.9,0-1.4,0c-2.1,0-3.6-0.4-4.4-1.2c-0.8-0.8-1.2-2.3-1.2-4.5v-17.7H291v-2.6h4.5v-7.8h3.1v7.8H303.9z"
		/>
	<path class="st1" d="M311.6,242.6V257h0.1c0.6-1.6,1.7-2.8,3.2-3.8c1.5-1,3.2-1.4,5.1-1.4c1.8,0,3.3,0.2,4.5,0.7
		c1.2,0.5,2.2,1.1,2.9,2c0.7,0.8,1.2,1.9,1.6,3.1c0.3,1.2,0.4,2.6,0.4,4.2v16.6h-3.1v-16.1c0-1.1-0.1-2.1-0.3-3.1
		c-0.2-1-0.6-1.8-1.1-2.5c-0.5-0.7-1.2-1.2-2-1.6c-0.9-0.4-1.9-0.6-3.2-0.6c-1.3,0-2.4,0.2-3.4,0.7c-1,0.4-1.8,1.1-2.5,1.8
		c-0.7,0.8-1.2,1.7-1.6,2.8c-0.4,1.1-0.6,2.3-0.6,3.5v15h-3.1v-35.7H311.6z"/>
	<path class="st1" d="M338.5,242.6v5h-3.2v-5H338.5z M338.5,252.5v25.8h-3.2v-25.8H338.5z"/>
	<path class="st1" d="M347.7,252.5v4.5h0.1c0.6-1.6,1.7-2.8,3.2-3.8c1.5-1,3.2-1.4,5.1-1.4c1.8,0,3.3,0.2,4.5,0.7
		c1.2,0.5,2.2,1.1,2.9,2c0.7,0.8,1.2,1.9,1.6,3.1c0.3,1.2,0.4,2.6,0.4,4.2v16.6h-3.1v-16.1c0-1.1-0.1-2.1-0.3-3.1
		c-0.2-1-0.6-1.8-1.1-2.5c-0.5-0.7-1.2-1.2-2-1.6c-0.9-0.4-1.9-0.6-3.2-0.6c-1.3,0-2.4,0.2-3.4,0.7c-1,0.4-1.8,1.1-2.5,1.8
		c-0.7,0.8-1.2,1.7-1.6,2.8c-0.4,1.1-0.6,2.3-0.6,3.5v15h-3.1v-25.8H347.7z"/>
	<path class="st1" d="M374.6,242.6V265l14.3-12.5h4.2l-11,9.5l11.8,16.2h-3.9l-10.2-14l-5.1,4.2v9.8h-3.1v-35.7H374.6z"/>
	<path class="st1" d="M411.3,257.6c-0.4-0.7-0.9-1.3-1.5-1.8c-0.6-0.5-1.3-0.8-2.1-1c-0.8-0.2-1.6-0.3-2.5-0.3
		c-0.7,0-1.4,0.1-2.1,0.2c-0.7,0.1-1.4,0.4-2,0.8c-0.6,0.3-1.1,0.8-1.5,1.4c-0.4,0.6-0.5,1.3-0.5,2.1c0,0.7,0.2,1.3,0.5,1.8
		s0.8,0.9,1.3,1.2c0.5,0.3,1.1,0.6,1.8,0.8c0.6,0.2,1.2,0.4,1.8,0.5l4.2,0.9c0.9,0.1,1.8,0.4,2.7,0.7c0.9,0.3,1.7,0.8,2.3,1.4
		c0.7,0.6,1.2,1.3,1.7,2.1c0.4,0.8,0.6,1.8,0.6,3c0,1.4-0.3,2.6-1,3.6c-0.6,1-1.4,1.8-2.4,2.4c-1,0.6-2.1,1.1-3.3,1.3
		c-1.2,0.3-2.4,0.4-3.6,0.4c-3,0-5.5-0.7-7.4-2.2c-1.9-1.4-3-3.7-3.2-6.9h3.2c0.1,2.1,0.9,3.7,2.3,4.8c1.4,1.1,3.2,1.6,5.3,1.6
		c0.8,0,1.6-0.1,2.4-0.2c0.8-0.2,1.6-0.4,2.3-0.8c0.7-0.4,1.3-0.9,1.7-1.5c0.5-0.6,0.7-1.4,0.7-2.3c0-0.8-0.2-1.4-0.5-1.9
		c-0.3-0.5-0.7-1-1.3-1.3c-0.5-0.3-1.1-0.6-1.8-0.9c-0.7-0.2-1.4-0.4-2.1-0.6l-4.1-0.9c-1-0.3-2-0.6-2.9-0.9
		c-0.9-0.3-1.6-0.8-2.3-1.3c-0.6-0.5-1.2-1.2-1.5-1.9c-0.4-0.8-0.5-1.7-0.5-2.8c0-1.3,0.3-2.4,0.9-3.4c0.6-0.9,1.3-1.7,2.3-2.2
		c0.9-0.6,2-1,3.1-1.2c1.1-0.3,2.3-0.4,3.4-0.4c1.3,0,2.5,0.2,3.6,0.5c1.1,0.3,2.1,0.8,3,1.5s1.5,1.6,2,2.6c0.5,1,0.8,2.2,0.9,3.7
		h-3.1C411.8,259.1,411.6,258.3,411.3,257.6z"/>
	<path class="st1" d="M437.6,242.6v5h-3.2v-5H437.6z M437.6,252.5v25.8h-3.2v-25.8H437.6z"/>
	<path class="st1" d="M446.7,252.5v4.5h0.1c0.6-1.6,1.7-2.8,3.2-3.8c1.5-1,3.2-1.4,5.1-1.4c1.8,0,3.3,0.2,4.5,0.7
		c1.2,0.5,2.2,1.1,2.9,2c0.7,0.8,1.2,1.9,1.6,3.1c0.3,1.2,0.4,2.6,0.4,4.2v16.6h-3.1v-16.1c0-1.1-0.1-2.1-0.3-3.1
		c-0.2-1-0.6-1.8-1.1-2.5c-0.5-0.7-1.2-1.2-2-1.6c-0.9-0.4-1.9-0.6-3.2-0.6c-1.3,0-2.4,0.2-3.4,0.7c-1,0.4-1.8,1.1-2.5,1.8
		c-0.7,0.8-1.2,1.7-1.6,2.8c-0.4,1.1-0.6,2.3-0.6,3.5v15h-3.1v-25.8H446.7z"/>
	<path class="st1" d="M471.1,252.5l8.1,22.6h0.1l8-22.6h3.2l-9.6,25.8h-3.4l-9.9-25.8H471.1z"/>
	<path class="st1" d="M496,269.8c0.3,1.2,0.8,2.3,1.5,3.3c0.7,1,1.6,1.8,2.6,2.4c1.1,0.6,2.3,0.9,3.8,0.9c2.3,0,4.1-0.6,5.4-1.8
		c1.3-1.2,2.2-2.8,2.7-4.8h3.1c-0.7,2.9-1.9,5.2-3.7,6.8c-1.8,1.6-4.3,2.4-7.6,2.4c-2,0-3.8-0.4-5.3-1.1c-1.5-0.7-2.7-1.7-3.6-3
		c-0.9-1.2-1.6-2.7-2.1-4.3c-0.5-1.7-0.7-3.4-0.7-5.2c0-1.7,0.2-3.4,0.7-5c0.5-1.6,1.1-3.1,2.1-4.4c0.9-1.3,2.1-2.3,3.6-3.1
		c1.5-0.8,3.2-1.2,5.3-1.2c2.1,0,3.8,0.4,5.3,1.2s2.7,1.9,3.6,3.3c0.9,1.4,1.6,2.9,2,4.7c0.4,1.8,0.6,3.5,0.5,5.3h-19.9
		C495.5,267.4,495.6,268.6,496,269.8z M511.6,260.2c-0.4-1.1-0.9-2.1-1.6-2.9c-0.7-0.8-1.6-1.5-2.6-2c-1-0.5-2.1-0.8-3.4-0.8
		c-1.3,0-2.4,0.3-3.4,0.8c-1,0.5-1.9,1.2-2.5,2c-0.7,0.9-1.3,1.8-1.7,3c-0.4,1.1-0.7,2.3-0.8,3.4h16.7
		C512.1,262.4,511.9,261.3,511.6,260.2z"/>
	<path class="st1" d="M534.4,257.6c-0.4-0.7-0.9-1.3-1.5-1.8c-0.6-0.5-1.3-0.8-2.1-1c-0.8-0.2-1.7-0.3-2.5-0.3
		c-0.7,0-1.4,0.1-2.1,0.2c-0.7,0.1-1.4,0.4-2,0.8c-0.6,0.3-1.1,0.8-1.4,1.4c-0.4,0.6-0.6,1.3-0.6,2.1c0,0.7,0.2,1.3,0.5,1.8
		s0.8,0.9,1.3,1.2c0.5,0.3,1.1,0.6,1.8,0.8c0.6,0.2,1.2,0.4,1.8,0.5l4.2,0.9c0.9,0.1,1.8,0.4,2.7,0.7c0.9,0.3,1.7,0.8,2.3,1.4
		c0.7,0.6,1.2,1.3,1.7,2.1c0.4,0.8,0.7,1.8,0.7,3c0,1.4-0.3,2.6-1,3.6c-0.6,1-1.4,1.8-2.4,2.4c-1,0.6-2.1,1.1-3.3,1.3
		s-2.5,0.4-3.6,0.4c-3,0-5.5-0.7-7.4-2.2c-1.9-1.4-3-3.7-3.2-6.9h3.2c0.1,2.1,0.9,3.7,2.3,4.8c1.4,1.1,3.2,1.6,5.3,1.6
		c0.8,0,1.6-0.1,2.4-0.2c0.8-0.2,1.6-0.4,2.3-0.8s1.3-0.9,1.7-1.5c0.5-0.6,0.7-1.4,0.7-2.3c0-0.8-0.2-1.4-0.5-1.9
		c-0.3-0.5-0.7-1-1.3-1.3c-0.5-0.3-1.1-0.6-1.8-0.9c-0.7-0.2-1.4-0.4-2.1-0.6l-4-0.9c-1-0.3-2-0.6-2.9-0.9c-0.9-0.3-1.6-0.8-2.3-1.3
		c-0.7-0.5-1.2-1.2-1.5-1.9c-0.4-0.8-0.5-1.7-0.5-2.8c0-1.3,0.3-2.4,0.9-3.4c0.6-0.9,1.3-1.7,2.3-2.2c0.9-0.6,2-1,3.1-1.2
		c1.2-0.3,2.3-0.4,3.4-0.4c1.3,0,2.5,0.2,3.6,0.5c1.1,0.3,2.1,0.8,2.9,1.5c0.9,0.7,1.5,1.6,2,2.6c0.5,1,0.8,2.2,0.8,3.7H535
		C535,259.1,534.8,258.3,534.4,257.6z"/>
	<path class="st1" d="M553.9,252.5v2.6h-5.2v17.4c0,1,0.1,1.8,0.4,2.4c0.3,0.6,1,0.9,2.1,1c0.9,0,1.8-0.1,2.7-0.2v2.7
		c-0.5,0-0.9,0-1.4,0c-0.5,0-0.9,0-1.4,0c-2.1,0-3.6-0.4-4.4-1.2s-1.2-2.3-1.2-4.5v-17.7H541v-2.6h4.5v-7.8h3.2v7.8H553.9z"/>
	<path class="st1" d="M561.6,242.6v5h-3.2v-5H561.6z M561.6,252.5v25.8h-3.2v-25.8H561.6z"/>
	<path class="st1" d="M570.8,252.5v4.5h0.1c0.6-1.6,1.7-2.8,3.2-3.8c1.5-1,3.2-1.4,5-1.4c1.8,0,3.3,0.2,4.5,0.7s2.2,1.1,2.9,2
		c0.7,0.8,1.2,1.9,1.5,3.1c0.3,1.2,0.5,2.6,0.5,4.2v16.6h-3.2v-16.1c0-1.1-0.1-2.1-0.3-3.1s-0.5-1.8-1-2.5c-0.5-0.7-1.2-1.2-2-1.6
		c-0.8-0.4-1.9-0.6-3.2-0.6c-1.3,0-2.4,0.2-3.4,0.7c-1,0.4-1.8,1.1-2.5,1.8c-0.7,0.8-1.2,1.7-1.6,2.8c-0.4,1.1-0.6,2.3-0.6,3.5v15
		h-3.1v-25.8H570.8z"/>
	<path class="st1" d="M615.7,281.4c-0.4,1.5-1.1,2.8-2,3.9c-0.9,1.1-2.1,1.9-3.5,2.5c-1.5,0.6-3.2,0.8-5.3,0.8
		c-1.3,0-2.6-0.2-3.8-0.5s-2.3-0.8-3.3-1.4c-1-0.6-1.8-1.4-2.4-2.4c-0.7-1-1-2.2-1.1-3.5h3.1c0.2,1,0.5,1.8,1,2.4
		c0.5,0.7,1.1,1.2,1.8,1.6c0.7,0.4,1.4,0.7,2.3,0.9c0.8,0.2,1.7,0.3,2.5,0.3c2.9,0,5.1-0.8,6.4-2.5s2-4.1,2-7.2v-3.5h-0.1
		c-0.7,1.6-1.8,2.9-3.2,3.8c-1.4,1-3.1,1.5-5,1.5c-2.1,0-3.8-0.3-5.3-1c-1.5-0.7-2.7-1.6-3.6-2.8c-1-1.2-1.6-2.6-2.1-4.2
		c-0.4-1.6-0.6-3.3-0.6-5.2c0-1.8,0.3-3.4,0.8-5c0.5-1.6,1.3-3,2.2-4.1s2.2-2.1,3.7-2.8c1.5-0.7,3.1-1,5-1c1,0,1.9,0.1,2.7,0.4
		c0.8,0.3,1.6,0.6,2.3,1.1c0.7,0.5,1.3,1,1.9,1.7c0.5,0.6,1,1.3,1.3,2h0.1v-4.5h3.1v23.7C616.3,278.1,616.1,279.9,615.7,281.4z
		 M608.5,274.5c1-0.6,1.9-1.3,2.6-2.3s1.2-2,1.6-3.3c0.3-1.2,0.5-2.5,0.5-3.8c0-1.3-0.2-2.5-0.5-3.8c-0.3-1.3-0.8-2.4-1.5-3.5
		c-0.7-1-1.5-1.9-2.6-2.5c-1-0.6-2.3-1-3.8-1s-2.8,0.3-3.8,0.9c-1.1,0.6-2,1.4-2.7,2.4c-0.7,1-1.2,2.1-1.5,3.4
		c-0.3,1.3-0.5,2.6-0.5,3.9c0,1.3,0.2,2.6,0.5,3.8c0.3,1.2,0.9,2.3,1.6,3.3c0.7,1,1.6,1.7,2.6,2.3c1.1,0.6,2.3,0.9,3.8,0.9
		C606.2,275.4,607.4,275.1,608.5,274.5z"/>
	<path class="st1" d="M56,302.6v5h-3.2v-5H56z M56,312.5v25.8h-3.2v-25.8H56z"/>
	<path class="st1" d="M76.9,317.6c-0.4-0.7-0.9-1.3-1.5-1.8c-0.6-0.5-1.3-0.8-2.1-1c-0.8-0.2-1.6-0.3-2.5-0.3
		c-0.7,0-1.4,0.1-2.1,0.2c-0.7,0.1-1.4,0.4-2,0.8c-0.6,0.3-1.1,0.8-1.5,1.4c-0.4,0.6-0.5,1.3-0.5,2.1c0,0.7,0.2,1.3,0.5,1.8
		s0.8,0.9,1.3,1.2c0.5,0.3,1.1,0.6,1.8,0.8c0.6,0.2,1.2,0.4,1.8,0.5l4.2,0.9c0.9,0.1,1.8,0.4,2.7,0.7c0.9,0.3,1.7,0.8,2.3,1.4
		c0.7,0.6,1.2,1.3,1.7,2.1c0.4,0.8,0.6,1.8,0.6,3c0,1.4-0.3,2.6-1,3.6c-0.6,1-1.4,1.8-2.4,2.4c-1,0.6-2.1,1.1-3.3,1.3
		c-1.2,0.3-2.4,0.4-3.6,0.4c-3,0-5.5-0.7-7.4-2.2c-1.9-1.4-3-3.7-3.2-6.9h3.2c0.1,2.1,0.9,3.7,2.3,4.8c1.4,1.1,3.2,1.6,5.3,1.6
		c0.8,0,1.6-0.1,2.4-0.2c0.8-0.2,1.6-0.4,2.3-0.8c0.7-0.4,1.3-0.9,1.7-1.5c0.5-0.6,0.7-1.4,0.7-2.3c0-0.8-0.2-1.4-0.5-1.9
		c-0.3-0.5-0.7-1-1.3-1.3c-0.5-0.3-1.1-0.6-1.8-0.9c-0.7-0.2-1.4-0.4-2.1-0.6l-4.1-0.9c-1-0.3-2-0.6-2.9-0.9
		c-0.9-0.3-1.6-0.8-2.3-1.3c-0.6-0.5-1.2-1.2-1.5-1.9c-0.4-0.8-0.5-1.7-0.5-2.8c0-1.3,0.3-2.4,0.9-3.4c0.6-0.9,1.3-1.7,2.3-2.2
		c0.9-0.6,2-1,3.1-1.2c1.1-0.3,2.3-0.4,3.4-0.4c1.3,0,2.5,0.2,3.6,0.5c1.1,0.3,2.1,0.8,3,1.5s1.5,1.6,2,2.6c0.5,1,0.8,2.2,0.9,3.7
		h-3.1C77.5,319.1,77.3,318.3,76.9,317.6z"/>
	<path class="st1" d="M116.2,312.9c1.5,0.7,2.8,1.7,3.8,3c1,1.2,1.8,2.7,2.3,4.3c0.5,1.6,0.8,3.4,0.8,5.3c0,1.9-0.3,3.6-0.8,5.3
		s-1.3,3.1-2.3,4.3c-1,1.2-2.3,2.2-3.8,2.9c-1.5,0.7-3.3,1.1-5.2,1.1c-2,0-3.7-0.4-5.2-1.1c-1.5-0.7-2.8-1.7-3.8-2.9
		c-1-1.2-1.8-2.7-2.4-4.3c-0.5-1.7-0.8-3.4-0.8-5.3c0-1.9,0.3-3.6,0.8-5.3c0.5-1.7,1.3-3.1,2.4-4.3c1-1.2,2.3-2.2,3.8-3
		c1.5-0.7,3.3-1.1,5.2-1.1C112.9,311.8,114.6,312.2,116.2,312.9z M107,315.4c-1.1,0.6-2.1,1.5-2.8,2.5c-0.8,1-1.3,2.2-1.7,3.5
		c-0.4,1.3-0.6,2.7-0.6,4c0,1.4,0.2,2.7,0.6,4c0.4,1.3,1,2.5,1.7,3.5s1.7,1.9,2.8,2.5c1.1,0.6,2.4,0.9,3.9,0.9s2.8-0.3,4-0.9
		c1.1-0.6,2.1-1.5,2.8-2.5s1.3-2.2,1.7-3.5c0.4-1.3,0.6-2.7,0.6-4c0-1.4-0.2-2.7-0.6-4c-0.4-1.3-1-2.5-1.7-3.5
		c-0.8-1-1.7-1.9-2.8-2.5c-1.1-0.6-2.5-1-4-1S108.1,314.8,107,315.4z"/>
	<path class="st1" d="M130.9,312.5v4.5h0.1c0.6-1.6,1.7-2.8,3.2-3.8c1.5-1,3.2-1.4,5.1-1.4c1.8,0,3.3,0.2,4.5,0.7
		c1.2,0.5,2.2,1.1,2.9,2c0.7,0.8,1.2,1.9,1.6,3.1c0.3,1.2,0.4,2.6,0.4,4.2v16.6h-3.1v-16.1c0-1.1-0.1-2.1-0.3-3.1
		c-0.2-1-0.6-1.8-1.1-2.5c-0.5-0.7-1.2-1.2-2-1.6c-0.9-0.4-1.9-0.6-3.2-0.6c-1.3,0-2.4,0.2-3.4,0.7c-1,0.4-1.8,1.1-2.5,1.8
		c-0.7,0.8-1.2,1.7-1.6,2.8c-0.4,1.1-0.6,2.3-0.6,3.5v15h-3.1v-25.8H130.9z"/>
	<path class="st1" d="M157.9,302.6v35.7h-3.2v-35.7H157.9z"/>
	<path class="st1" d="M164.4,312.5l8.5,22l7.9-22h3.1l-11.2,29.7c-0.5,1.1-0.9,2-1.3,2.7c-0.4,0.7-0.8,1.3-1.3,1.7
		c-0.5,0.4-1.1,0.7-1.7,0.9s-1.5,0.3-2.5,0.3c-0.6,0-1.1-0.1-1.5-0.1c-0.4,0-0.7-0.1-0.9-0.2v-2.7c0.4,0.1,0.7,0.1,1.1,0.2
		c0.4,0,0.7,0.1,1.1,0.1c0.7,0,1.3-0.1,1.7-0.3c0.5-0.2,0.8-0.5,1.2-0.8c0.3-0.3,0.6-0.8,0.8-1.3c0.2-0.5,0.5-1,0.8-1.7l1.1-2.9
		L161,312.5H164.4z"/>
	<path class="st1" d="M205.8,315.2v23.2h-3.1v-23.2h-4.4v-2.6h4.4v-2.4c0-1.1,0.1-2.1,0.2-3c0.2-0.9,0.5-1.7,0.9-2.4
		c0.5-0.7,1.1-1.2,1.9-1.6c0.8-0.4,1.9-0.5,3.1-0.5c0.5,0,0.9,0,1.3,0c0.4,0,0.9,0.1,1.4,0.2v2.7c-0.4-0.1-0.8-0.1-1.2-0.2
		c-0.4-0.1-0.7-0.1-1.1-0.1c-0.9,0-1.5,0.1-2,0.4c-0.5,0.3-0.8,0.6-1,1.1c-0.2,0.5-0.3,1-0.4,1.6c0,0.6,0,1.2,0,2v2.2h5.1v2.6H205.8
		z"/>
	<path class="st1" d="M230.1,312.9c1.5,0.7,2.8,1.7,3.8,3c1,1.2,1.8,2.7,2.3,4.3c0.5,1.6,0.8,3.4,0.8,5.3c0,1.9-0.3,3.6-0.8,5.3
		s-1.3,3.1-2.3,4.3c-1,1.2-2.3,2.2-3.8,2.9c-1.5,0.7-3.3,1.1-5.2,1.1c-2,0-3.7-0.4-5.2-1.1c-1.5-0.7-2.8-1.7-3.8-2.9
		c-1-1.2-1.8-2.7-2.4-4.3c-0.5-1.7-0.8-3.4-0.8-5.3c0-1.9,0.3-3.6,0.8-5.3c0.5-1.7,1.3-3.1,2.4-4.3c1-1.2,2.3-2.2,3.8-3
		c1.5-0.7,3.3-1.1,5.2-1.1C226.8,311.8,228.5,312.2,230.1,312.9z M220.9,315.4c-1.1,0.6-2.1,1.5-2.8,2.5c-0.8,1-1.3,2.2-1.7,3.5
		c-0.4,1.3-0.6,2.7-0.6,4c0,1.4,0.2,2.7,0.6,4c0.4,1.3,1,2.5,1.7,3.5s1.7,1.9,2.8,2.5c1.1,0.6,2.4,0.9,3.9,0.9s2.8-0.3,4-0.9
		c1.1-0.6,2.1-1.5,2.8-2.5s1.3-2.2,1.7-3.5c0.4-1.3,0.6-2.7,0.6-4c0-1.4-0.2-2.7-0.6-4c-0.4-1.3-1-2.5-1.7-3.5
		c-0.8-1-1.7-1.9-2.8-2.5c-1.1-0.6-2.5-1-4-1S222,314.8,220.9,315.4z"/>
	<path class="st1" d="M244.6,312.5v6h0.1c0.8-2.1,2-3.7,3.7-4.8c1.7-1.1,3.7-1.7,6-1.6v3.2c-1.4-0.1-2.7,0.1-3.9,0.6
		c-1.2,0.5-2.2,1.1-3,1.9c-0.9,0.8-1.5,1.8-2,3c-0.5,1.2-0.7,2.4-0.7,3.8v13.8h-3.1v-25.8H244.6z"/>
	<path class="st1" d="M281.6,312.5v2.6h-5.2v17.4c0,1,0.1,1.8,0.4,2.4c0.3,0.6,1,0.9,2.1,1c0.9,0,1.8-0.1,2.7-0.2v2.7
		c-0.5,0-0.9,0-1.4,0c-0.5,0-0.9,0-1.4,0c-2.1,0-3.6-0.4-4.4-1.2c-0.8-0.8-1.2-2.3-1.2-4.5v-17.7h-4.5v-2.6h4.5v-7.8h3.1v7.8H281.6z
		"/>
	<path class="st1" d="M289.3,302.6V317h0.1c0.6-1.6,1.7-2.8,3.2-3.8c1.5-1,3.2-1.4,5.1-1.4c1.8,0,3.3,0.2,4.5,0.7
		c1.2,0.5,2.2,1.1,2.9,2c0.7,0.8,1.2,1.9,1.6,3.1c0.3,1.2,0.4,2.6,0.4,4.2v16.6h-3.1v-16.1c0-1.1-0.1-2.1-0.3-3.1
		c-0.2-1-0.6-1.8-1.1-2.5c-0.5-0.7-1.2-1.2-2-1.6c-0.9-0.4-1.9-0.6-3.2-0.6c-1.3,0-2.4,0.2-3.4,0.7c-1,0.4-1.8,1.1-2.5,1.8
		c-0.7,0.8-1.2,1.7-1.6,2.8c-0.4,1.1-0.6,2.3-0.6,3.5v15h-3.1v-35.7H289.3z"/>
	<path class="st1" d="M315.4,329.8c0.3,1.2,0.8,2.3,1.5,3.3c0.7,1,1.6,1.8,2.6,2.4c1.1,0.6,2.4,0.9,3.9,0.9c2.3,0,4.1-0.6,5.4-1.8
		s2.2-2.8,2.7-4.8h3.1c-0.7,2.9-1.9,5.2-3.7,6.8c-1.8,1.6-4.3,2.4-7.6,2.4c-2,0-3.8-0.4-5.3-1.1c-1.5-0.7-2.7-1.7-3.6-3
		c-0.9-1.2-1.6-2.7-2.1-4.3c-0.5-1.7-0.7-3.4-0.7-5.2c0-1.7,0.2-3.4,0.7-5c0.5-1.6,1.1-3.1,2.1-4.4c0.9-1.3,2.1-2.3,3.6-3.1
		c1.5-0.8,3.2-1.2,5.3-1.2c2.1,0,3.8,0.4,5.3,1.2c1.5,0.8,2.7,1.9,3.6,3.3c0.9,1.4,1.6,2.9,2,4.7c0.4,1.8,0.6,3.5,0.5,5.3h-19.9
		C314.9,327.4,315,328.6,315.4,329.8z M331,320.2c-0.4-1.1-0.9-2.1-1.6-2.9c-0.7-0.8-1.5-1.5-2.5-2c-1-0.5-2.1-0.8-3.4-0.8
		c-1.3,0-2.5,0.3-3.5,0.8c-1,0.5-1.9,1.2-2.5,2c-0.7,0.9-1.3,1.8-1.7,3c-0.4,1.1-0.7,2.3-0.8,3.4h16.7
		C331.5,322.4,331.3,321.3,331,320.2z"/>
	<path class="st1" d="M358.5,309.9c1.1-0.1,2.1-0.4,2.9-0.8c0.8-0.4,1.5-1.1,2-2c0.6-0.9,0.9-2.1,1.2-3.7h2.5v35H364v-26h-9.2v-2.2
		C356.1,310.1,357.3,310,358.5,309.9z"/>
	<path class="st1" d="M392.7,303.8c1,0.5,1.8,1.2,2.5,2c0.6,0.9,1.1,1.9,1.4,3c0.3,1.2,0.5,2.4,0.5,3.7s-0.1,2.6-0.5,3.7
		c-0.3,1.2-0.8,2.2-1.4,3c-0.6,0.8-1.5,1.5-2.5,2c-1,0.5-2.2,0.7-3.6,0.7s-2.6-0.2-3.6-0.7c-1-0.5-1.8-1.2-2.5-2
		c-0.6-0.8-1.1-1.8-1.4-3c-0.3-1.2-0.4-2.4-0.4-3.7s0.1-2.6,0.4-3.7c0.3-1.1,0.8-2.1,1.4-3c0.6-0.8,1.5-1.5,2.5-2
		c1-0.5,2.2-0.7,3.6-0.7S391.7,303.3,392.7,303.8z M386.5,306c-0.7,0.5-1.2,1-1.6,1.8s-0.7,1.5-0.8,2.3c-0.2,0.9-0.2,1.7-0.2,2.5
		s0.1,1.6,0.2,2.5c0.1,0.8,0.4,1.6,0.8,2.3s0.9,1.3,1.6,1.7c0.7,0.5,1.6,0.7,2.6,0.7c1,0,1.9-0.2,2.6-0.7c0.7-0.5,1.2-1,1.6-1.7
		s0.7-1.5,0.9-2.3c0.2-0.8,0.2-1.7,0.2-2.5s-0.1-1.6-0.2-2.5c-0.2-0.8-0.5-1.6-0.9-2.3s-0.9-1.3-1.6-1.8c-0.7-0.5-1.5-0.7-2.6-0.7
		C388,305.3,387.1,305.5,386.5,306z M412.2,302.1L389.6,340h-2.4l22.6-37.9H412.2z M414.7,320.9c1,0.5,1.8,1.1,2.5,2
		c0.6,0.8,1.1,1.8,1.4,3c0.3,1.1,0.4,2.4,0.4,3.7c0,1.3-0.1,2.6-0.4,3.7c-0.3,1.1-0.8,2.1-1.4,3c-0.6,0.8-1.5,1.5-2.5,2
		c-1,0.5-2.2,0.7-3.6,0.7s-2.6-0.2-3.6-0.7c-1-0.5-1.8-1.1-2.5-2c-0.6-0.9-1.1-1.9-1.4-3c-0.3-1.2-0.5-2.4-0.5-3.7
		c0-1.3,0.1-2.6,0.5-3.7c0.3-1.2,0.8-2.2,1.4-3c0.6-0.9,1.5-1.5,2.5-2c1-0.5,2.2-0.7,3.6-0.7S413.6,320.4,414.7,320.9z M408.4,323.1
		c-0.7,0.4-1.2,1-1.6,1.8s-0.7,1.5-0.8,2.3s-0.2,1.7-0.2,2.5c0,0.8,0.1,1.6,0.2,2.5c0.1,0.8,0.4,1.6,0.8,2.3
		c0.4,0.7,0.9,1.3,1.6,1.7c0.7,0.5,1.6,0.7,2.6,0.7c1,0,1.9-0.2,2.6-0.7c0.7-0.5,1.2-1,1.6-1.7c0.4-0.7,0.7-1.5,0.9-2.3
		c0.2-0.8,0.2-1.6,0.2-2.5c0-0.8-0.1-1.6-0.2-2.5c-0.2-0.8-0.4-1.6-0.9-2.3c-0.4-0.7-0.9-1.3-1.6-1.8c-0.7-0.5-1.5-0.7-2.6-0.7
		C410,322.4,409.1,322.7,408.4,323.1z"/>
	<path class="st1" d="M442.2,302.6v35.7h-3.2v-35.7H442.2z"/>
	<path class="st1" d="M451.5,302.6v5h-3.2v-5H451.5z M451.5,312.5v25.8h-3.2v-25.8H451.5z"/>
	<path class="st1" d="M460.7,302.6V325l14.3-12.5h4.2l-11,9.5l11.8,16.2H476l-10.2-14l-5.1,4.2v9.8h-3.1v-35.7H460.7z"/>
	<path class="st1" d="M484.9,329.8c0.3,1.2,0.8,2.3,1.5,3.3c0.7,1,1.6,1.8,2.6,2.4c1.1,0.6,2.4,0.9,3.9,0.9c2.3,0,4.1-0.6,5.4-1.8
		s2.2-2.8,2.7-4.8h3.1c-0.7,2.9-1.9,5.2-3.7,6.8c-1.8,1.6-4.3,2.4-7.6,2.4c-2,0-3.8-0.4-5.3-1.1c-1.5-0.7-2.7-1.7-3.6-3
		c-0.9-1.2-1.6-2.7-2.1-4.3c-0.5-1.7-0.7-3.4-0.7-5.2c0-1.7,0.2-3.4,0.7-5c0.5-1.6,1.1-3.1,2.1-4.4c0.9-1.3,2.1-2.3,3.6-3.1
		c1.5-0.8,3.2-1.2,5.3-1.2c2.1,0,3.8,0.4,5.3,1.2c1.5,0.8,2.7,1.9,3.6,3.3c0.9,1.4,1.6,2.9,2,4.7c0.4,1.8,0.6,3.5,0.5,5.3h-19.9
		C484.4,327.4,484.5,328.6,484.9,329.8z M500.5,320.2c-0.4-1.1-0.9-2.1-1.6-2.9c-0.7-0.8-1.5-1.5-2.5-2c-1-0.5-2.1-0.8-3.4-0.8
		c-1.3,0-2.5,0.3-3.5,0.8c-1,0.5-1.9,1.2-2.5,2c-0.7,0.9-1.3,1.8-1.7,3c-0.4,1.1-0.7,2.3-0.8,3.4h16.7
		C501,322.4,500.8,321.3,500.5,320.2z"/>
	<path class="st1" d="M53.5,362.6l8.1,31.2h0.1l8.7-31.2h4.2l8.8,31.2h0.1l8.1-31.2H95l-9.9,35.7h-3.6l-9-32h-0.1l-9,32h-3.7
		l-9.9-35.7H53.5z"/>
	<path class="st1" d="M97,376.5c0.5-1.1,1.3-2,2.2-2.7c0.9-0.7,2-1.2,3.2-1.5c1.2-0.3,2.6-0.5,4.1-0.5c1.1,0,2.3,0.1,3.4,0.3
		c1.1,0.2,2.2,0.6,3.1,1.2s1.6,1.4,2.2,2.5c0.6,1.1,0.9,2.5,0.9,4.2v13.7c0,1.3,0.6,1.9,1.9,1.9c0.4,0,0.7-0.1,1-0.2v2.6
		c-0.4,0.1-0.7,0.1-1,0.2c-0.3,0-0.6,0-1.1,0c-0.8,0-1.4-0.1-1.9-0.3c-0.5-0.2-0.9-0.5-1.1-0.9c-0.3-0.4-0.4-0.9-0.5-1.4
		c-0.1-0.5-0.1-1.2-0.1-1.8H113c-0.6,0.8-1.1,1.6-1.7,2.2c-0.6,0.7-1.2,1.2-1.9,1.6c-0.7,0.4-1.5,0.8-2.5,1c-0.9,0.2-2,0.4-3.3,0.4
		c-1.2,0-2.3-0.1-3.4-0.4c-1-0.3-2-0.7-2.8-1.4c-0.8-0.6-1.4-1.4-1.9-2.3c-0.4-1-0.7-2.1-0.7-3.4c0-1.8,0.4-3.2,1.2-4.2
		c0.8-1,1.9-1.8,3.2-2.3c1.3-0.5,2.8-0.9,4.4-1.1c1.7-0.2,3.3-0.4,5-0.6c0.7-0.1,1.2-0.2,1.8-0.2c0.5-0.1,0.9-0.3,1.2-0.5
		c0.3-0.2,0.6-0.6,0.8-1c0.2-0.4,0.3-1,0.3-1.7c0-1.1-0.2-1.9-0.5-2.6s-0.8-1.2-1.5-1.6c-0.6-0.4-1.3-0.7-2.1-0.8
		c-0.8-0.2-1.7-0.2-2.6-0.2c-2,0-3.6,0.5-4.9,1.4c-1.3,0.9-1.9,2.5-2,4.6H96C96.1,378.9,96.5,377.6,97,376.5z M112.7,384.2
		c-0.2,0.4-0.6,0.6-1.1,0.8c-0.6,0.2-1.1,0.3-1.5,0.3c-1.3,0.2-2.7,0.4-4.1,0.6c-1.4,0.2-2.7,0.5-3.9,0.8c-1.2,0.4-2.1,0.9-2.9,1.6
		c-0.8,0.7-1.1,1.7-1.1,2.9c0,0.8,0.2,1.5,0.5,2.1c0.3,0.6,0.7,1.2,1.3,1.6c0.5,0.5,1.1,0.8,1.9,1c0.7,0.2,1.4,0.3,2.1,0.3
		c1.2,0,2.4-0.2,3.5-0.5c1.1-0.4,2.1-0.9,2.9-1.6c0.8-0.7,1.5-1.5,1.9-2.5c0.5-1,0.7-2.1,0.7-3.4v-4.1H112.7z"/>
	<path class="st1" d="M125.2,372.5v6h0.1c0.8-2.1,2-3.7,3.7-4.8c1.7-1.1,3.7-1.7,6-1.6v3.2c-1.4-0.1-2.7,0.1-3.9,0.6
		c-1.2,0.5-2.2,1.1-3,1.9c-0.9,0.8-1.5,1.8-2,3c-0.5,1.2-0.7,2.4-0.7,3.8v13.8h-3.1v-25.8H125.2z"/>
	<path class="st1" d="M140.9,372.5v6h0.1c0.8-2.1,2-3.7,3.7-4.8c1.7-1.1,3.7-1.7,6-1.6v3.2c-1.4-0.1-2.7,0.1-3.9,0.6
		c-1.2,0.5-2.2,1.1-3,1.9c-0.9,0.8-1.5,1.8-2,3c-0.5,1.2-0.7,2.4-0.7,3.8v13.8H138v-25.8H140.9z"/>
	<path class="st1" d="M155.2,389.8c0.3,1.2,0.8,2.3,1.5,3.3c0.7,1,1.6,1.8,2.6,2.4c1.1,0.6,2.4,0.9,3.9,0.9c2.3,0,4.1-0.6,5.4-1.8
		s2.2-2.8,2.7-4.8h3.1c-0.7,2.9-1.9,5.2-3.7,6.8c-1.8,1.6-4.3,2.4-7.6,2.4c-2,0-3.8-0.4-5.3-1.1c-1.5-0.7-2.7-1.7-3.6-3
		c-0.9-1.2-1.6-2.7-2.1-4.3c-0.5-1.7-0.7-3.4-0.7-5.2c0-1.7,0.2-3.4,0.7-5c0.5-1.6,1.1-3.1,2.1-4.4c0.9-1.3,2.1-2.3,3.6-3.1
		c1.5-0.8,3.2-1.2,5.3-1.2c2.1,0,3.8,0.4,5.3,1.2c1.5,0.8,2.7,1.9,3.6,3.3c0.9,1.4,1.6,2.9,2,4.7c0.4,1.8,0.6,3.5,0.5,5.3h-19.9
		C154.7,387.4,154.9,388.6,155.2,389.8z M170.8,380.2c-0.4-1.1-0.9-2.1-1.6-2.9c-0.7-0.8-1.5-1.5-2.5-2c-1-0.5-2.1-0.8-3.4-0.8
		c-1.3,0-2.5,0.3-3.5,0.8c-1,0.5-1.9,1.2-2.5,2c-0.7,0.9-1.3,1.8-1.7,3c-0.4,1.1-0.7,2.3-0.8,3.4h16.7
		C171.4,382.4,171.2,381.3,170.8,380.2z"/>
	<path class="st1" d="M181.9,372.5v4.5h0.1c0.6-1.6,1.7-2.8,3.2-3.8c1.5-1,3.2-1.4,5.1-1.4c1.8,0,3.3,0.2,4.5,0.7
		c1.2,0.5,2.2,1.1,2.9,2c0.7,0.8,1.2,1.9,1.6,3.1c0.3,1.2,0.4,2.6,0.4,4.2v16.6h-3.1v-16.1c0-1.1-0.1-2.1-0.3-3.1
		c-0.2-1-0.6-1.8-1.1-2.5c-0.5-0.7-1.2-1.2-2-1.6c-0.9-0.4-1.9-0.6-3.2-0.6c-1.3,0-2.4,0.2-3.4,0.7c-1,0.4-1.8,1.1-2.5,1.8
		c-0.7,0.8-1.2,1.7-1.6,2.8c-0.4,1.1-0.6,2.3-0.6,3.5v15h-3.1v-25.8H181.9z"/>
	<path class="st1" d="M235.3,362.6c1.5,0,2.9,0.1,4.3,0.4c1.4,0.3,2.6,0.8,3.6,1.5c1.1,0.7,1.9,1.6,2.5,2.7c0.6,1.1,0.9,2.5,0.9,4.2
		c0,0.9-0.1,1.8-0.4,2.7c-0.3,0.9-0.7,1.7-1.3,2.4c-0.5,0.7-1.2,1.3-1.9,1.8s-1.6,0.8-2.5,1v0.1c2.3,0.3,4.1,1.2,5.5,2.8
		c1.4,1.6,2,3.5,2,5.9c0,0.6,0,1.2-0.1,1.9s-0.3,1.4-0.6,2.2s-0.7,1.5-1.3,2.2c-0.6,0.7-1.3,1.4-2.3,1.9c-0.9,0.5-2.1,1-3.5,1.3
		c-1.4,0.4-3,0.5-5,0.5h-15.1v-35.7H235.3z M235.3,378.3c1.4,0,2.5-0.2,3.5-0.5c1-0.3,1.8-0.8,2.5-1.3c0.7-0.5,1.2-1.2,1.5-1.9
		c0.3-0.7,0.5-1.5,0.5-2.3c0-4.5-2.7-6.7-8-6.7h-11.7v12.8H235.3z M235.3,395.4c1.3,0,2.5-0.1,3.6-0.3c1.1-0.2,2.1-0.6,3-1.2
		c0.9-0.6,1.6-1.3,2.1-2.3s0.8-2.1,0.8-3.6c0-2.3-0.8-4-2.4-5.2c-1.6-1.2-3.9-1.7-7-1.7h-11.7v14.2H235.3z"/>
	<path class="st1" d="M270.9,398.3v-4.7h-0.1c-0.8,1.7-2,3.1-3.6,4c-1.6,0.9-3.3,1.4-5.3,1.4c-1.6,0-3-0.2-4.2-0.7
		c-1.2-0.5-2.1-1.1-2.8-1.9c-0.7-0.8-1.2-1.8-1.6-3c-0.3-1.2-0.5-2.6-0.5-4.1v-16.8h3.1v16.8c0.1,2.3,0.6,4.1,1.6,5.3
		c1,1.2,2.8,1.8,5.3,1.8c1.4,0,2.5-0.3,3.5-0.9c1-0.6,1.8-1.4,2.4-2.3c0.6-1,1.1-2.1,1.4-3.3c0.3-1.2,0.5-2.5,0.5-3.8v-13.5h3.1
		v25.8H270.9z"/>
	<path class="st1" d="M284.6,375.2v23.2h-3.1v-23.2h-4.4v-2.6h4.4v-2.4c0-1.1,0.1-2.1,0.2-3c0.2-0.9,0.5-1.7,0.9-2.4
		c0.5-0.7,1.1-1.2,1.9-1.6c0.8-0.4,1.9-0.5,3.1-0.5c0.5,0,0.9,0,1.3,0c0.4,0,0.9,0.1,1.4,0.2v2.7c-0.4-0.1-0.8-0.1-1.2-0.2
		c-0.4-0.1-0.7-0.1-1.1-0.1c-0.9,0-1.5,0.1-2,0.4c-0.5,0.3-0.8,0.6-1,1.1c-0.2,0.5-0.3,1-0.4,1.6c0,0.6,0,1.2,0,2v2.2h5.1v2.6H284.6
		z"/>
	<path class="st1" d="M296.7,375.2v23.2h-3.1v-23.2h-4.4v-2.6h4.4v-2.4c0-1.1,0.1-2.1,0.2-3c0.2-0.9,0.5-1.7,0.9-2.4
		c0.5-0.7,1.1-1.2,1.9-1.6c0.8-0.4,1.9-0.5,3.1-0.5c0.5,0,0.9,0,1.3,0c0.4,0,0.9,0.1,1.4,0.2v2.7c-0.4-0.1-0.8-0.1-1.2-0.2
		c-0.4-0.1-0.7-0.1-1.1-0.1c-0.9,0-1.5,0.1-2,0.4c-0.5,0.3-0.8,0.6-1,1.1c-0.2,0.5-0.3,1-0.4,1.6c0,0.6,0,1.2,0,2v2.2h5.1v2.6H296.7
		z"/>
	<path class="st1" d="M307.1,389.8c0.3,1.2,0.8,2.3,1.5,3.3c0.7,1,1.6,1.8,2.6,2.4c1.1,0.6,2.4,0.9,3.9,0.9c2.3,0,4.1-0.6,5.4-1.8
		s2.2-2.8,2.7-4.8h3.1c-0.7,2.9-1.9,5.2-3.7,6.8c-1.8,1.6-4.3,2.4-7.6,2.4c-2,0-3.8-0.4-5.3-1.1c-1.5-0.7-2.7-1.7-3.6-3
		c-0.9-1.2-1.6-2.7-2.1-4.3c-0.5-1.7-0.7-3.4-0.7-5.2c0-1.7,0.2-3.4,0.7-5c0.5-1.6,1.1-3.1,2.1-4.4c0.9-1.3,2.1-2.3,3.6-3.1
		c1.5-0.8,3.2-1.2,5.3-1.2c2.1,0,3.8,0.4,5.3,1.2c1.5,0.8,2.7,1.9,3.6,3.3c0.9,1.4,1.6,2.9,2,4.7c0.4,1.8,0.6,3.5,0.5,5.3h-19.9
		C306.6,387.4,306.8,388.6,307.1,389.8z M322.7,380.2c-0.4-1.1-0.9-2.1-1.6-2.9c-0.7-0.8-1.5-1.5-2.5-2c-1-0.5-2.1-0.8-3.4-0.8
		c-1.3,0-2.5,0.3-3.5,0.8c-1,0.5-1.9,1.2-2.5,2c-0.7,0.9-1.3,1.8-1.7,3c-0.4,1.1-0.7,2.3-0.8,3.4h16.7
		C323.3,382.4,323.1,381.3,322.7,380.2z"/>
	<path class="st1" d="M341,372.5v2.6h-5.2v17.4c0,1,0.1,1.8,0.4,2.4c0.3,0.6,1,0.9,2.1,1c0.9,0,1.8-0.1,2.7-0.2v2.7
		c-0.5,0-0.9,0-1.4,0c-0.5,0-0.9,0-1.4,0c-2.1,0-3.6-0.4-4.4-1.2c-0.8-0.8-1.2-2.3-1.2-4.5v-17.7h-4.5v-2.6h4.5v-7.8h3.1v7.8H341z"
		/>
	<path class="st1" d="M351.6,398.3c0,0.7-0.1,1.5-0.3,2.2c-0.2,0.7-0.5,1.4-0.8,2c-0.4,0.6-0.8,1.2-1.4,1.6c-0.6,0.5-1.2,0.8-1.9,1
		V403c0.4-0.1,0.8-0.4,1.1-0.8c0.3-0.4,0.5-0.8,0.8-1.2c0.2-0.5,0.3-0.9,0.4-1.4c0.1-0.5,0.1-0.9,0.1-1.3h-2.1V393h4.2V398.3z"/>
	<path class="st1" d="M56,422.6v14.8h0.1c0.3-0.9,0.8-1.8,1.4-2.4c0.6-0.7,1.3-1.3,2.1-1.8c0.8-0.5,1.7-0.8,2.6-1.1
		c0.9-0.2,1.9-0.3,2.8-0.3c2,0,3.7,0.4,5.1,1.1c1.4,0.7,2.7,1.7,3.6,3c1,1.2,1.7,2.7,2.1,4.3c0.5,1.7,0.7,3.4,0.7,5.2
		c0,1.8-0.2,3.6-0.7,5.2c-0.5,1.6-1.2,3.1-2.1,4.3c-1,1.2-2.2,2.2-3.6,3c-1.5,0.7-3.2,1.1-5.1,1.1c-2.1,0-4-0.5-5.6-1.5
		c-1.7-1-2.8-2.3-3.6-4.2h-0.1v4.9h-2.9v-35.7H56z M73,441.5c-0.3-1.3-0.8-2.5-1.5-3.5c-0.7-1-1.6-1.9-2.6-2.5c-1.1-0.7-2.3-1-3.8-1
		c-1.7,0-3.1,0.3-4.2,1c-1.1,0.6-2.1,1.5-2.8,2.5c-0.7,1-1.2,2.2-1.5,3.5c-0.3,1.3-0.5,2.6-0.5,4c0,1.3,0.2,2.7,0.5,4
		c0.3,1.3,0.8,2.5,1.5,3.5c0.7,1,1.7,1.9,2.8,2.5s2.6,1,4.2,1c1.5,0,2.8-0.3,3.8-1c1.1-0.7,1.9-1.5,2.6-2.5c0.7-1,1.2-2.2,1.5-3.5
		c0.3-1.3,0.5-2.6,0.5-4C73.5,444.1,73.3,442.8,73,441.5z"/>
	<path class="st1" d="M99.5,458.3v-4.7h-0.1c-0.8,1.7-2,3.1-3.6,4c-1.6,0.9-3.3,1.4-5.3,1.4c-1.6,0-3-0.2-4.2-0.7
		c-1.2-0.5-2.1-1.1-2.8-1.9c-0.7-0.8-1.2-1.8-1.6-3c-0.3-1.2-0.5-2.6-0.5-4.1v-16.8h3.1v16.8c0.1,2.3,0.6,4.1,1.6,5.3
		c1,1.2,2.8,1.8,5.3,1.8c1.4,0,2.5-0.3,3.5-0.9c1-0.6,1.8-1.4,2.4-2.3c0.6-1,1.1-2.1,1.4-3.3c0.3-1.2,0.5-2.5,0.5-3.8v-13.5h3.1
		v25.8H99.5z"/>
	<path class="st1" d="M118.6,432.5v2.6h-5.2v17.4c0,1,0.1,1.8,0.4,2.4c0.3,0.6,1,0.9,2.1,1c0.9,0,1.8-0.1,2.7-0.2v2.7
		c-0.5,0-0.9,0-1.4,0c-0.5,0-0.9,0-1.4,0c-2.1,0-3.6-0.4-4.4-1.2c-0.8-0.8-1.2-2.3-1.2-4.5v-17.7h-4.5v-2.6h4.5v-7.8h3.1v7.8H118.6z
		"/>
	<path class="st1" d="M140.3,422.6v5h-3.2v-5H140.3z M140.3,432.5v25.8h-3.2v-25.8H140.3z"/>
	<path class="st1" d="M149.4,432.5v4.5h0.1c0.6-1.6,1.7-2.8,3.2-3.8c1.5-1,3.2-1.4,5.1-1.4c1.8,0,3.3,0.2,4.5,0.7
		c1.2,0.5,2.2,1.1,2.9,2c0.7,0.8,1.2,1.9,1.6,3.1c0.3,1.2,0.4,2.6,0.4,4.2v16.6h-3.1v-16.1c0-1.1-0.1-2.1-0.3-3.1
		c-0.2-1-0.6-1.8-1.1-2.5c-0.5-0.7-1.2-1.2-2-1.6c-0.9-0.4-1.9-0.6-3.2-0.6c-1.3,0-2.4,0.2-3.4,0.7c-1,0.4-1.8,1.1-2.5,1.8
		c-0.7,0.8-1.2,1.7-1.6,2.8c-0.4,1.1-0.6,2.3-0.6,3.5v15h-3.1v-25.8H149.4z"/>
	<path class="st1" d="M190,432.5v6h0.1c0.8-2.1,2-3.7,3.7-4.8c1.7-1.1,3.7-1.7,6-1.6v3.2c-1.4-0.1-2.7,0.1-3.9,0.6
		c-1.2,0.5-2.2,1.1-3,1.9c-0.9,0.8-1.5,1.8-2,3c-0.5,1.2-0.7,2.4-0.7,3.8v13.8h-3.1v-25.8H190z"/>
	<path class="st1" d="M204.3,449.8c0.3,1.2,0.8,2.3,1.5,3.3c0.7,1,1.6,1.8,2.6,2.4c1.1,0.6,2.4,0.9,3.9,0.9c2.3,0,4.1-0.6,5.4-1.8
		s2.2-2.8,2.7-4.8h3.1c-0.7,2.9-1.9,5.2-3.7,6.8c-1.8,1.6-4.3,2.4-7.6,2.4c-2,0-3.8-0.4-5.3-1.1c-1.5-0.7-2.7-1.7-3.6-3
		c-0.9-1.2-1.6-2.7-2.1-4.3c-0.5-1.7-0.7-3.4-0.7-5.2c0-1.7,0.2-3.4,0.7-5c0.5-1.6,1.1-3.1,2.1-4.4c0.9-1.3,2.1-2.3,3.6-3.1
		c1.5-0.8,3.2-1.2,5.3-1.2c2.1,0,3.8,0.4,5.3,1.2c1.5,0.8,2.7,1.9,3.6,3.3c0.9,1.4,1.6,2.9,2,4.7c0.4,1.8,0.6,3.5,0.5,5.3h-19.9
		C203.8,447.4,203.9,448.6,204.3,449.8z M219.9,440.2c-0.4-1.1-0.9-2.1-1.6-2.9c-0.7-0.8-1.5-1.5-2.5-2c-1-0.5-2.1-0.8-3.4-0.8
		c-1.3,0-2.5,0.3-3.5,0.8c-1,0.5-1.9,1.2-2.5,2c-0.7,0.9-1.3,1.8-1.7,3c-0.4,1.1-0.7,2.3-0.8,3.4h16.7
		C220.5,442.4,220.2,441.3,219.9,440.2z"/>
	<path class="st1" d="M228.5,436.5c0.5-1.1,1.3-2,2.2-2.7c0.9-0.7,2-1.2,3.2-1.5c1.2-0.3,2.6-0.5,4.1-0.5c1.1,0,2.3,0.1,3.4,0.3
		c1.1,0.2,2.2,0.6,3.1,1.2s1.6,1.4,2.2,2.5c0.6,1.1,0.9,2.5,0.9,4.2v13.7c0,1.3,0.6,1.9,1.9,1.9c0.4,0,0.7-0.1,1-0.2v2.6
		c-0.4,0.1-0.7,0.1-1,0.2c-0.3,0-0.6,0-1.1,0c-0.8,0-1.4-0.1-1.9-0.3c-0.5-0.2-0.9-0.5-1.1-0.9c-0.3-0.4-0.4-0.9-0.5-1.4
		c-0.1-0.5-0.1-1.2-0.1-1.8h-0.1c-0.6,0.8-1.1,1.6-1.7,2.2c-0.6,0.7-1.2,1.2-1.9,1.6c-0.7,0.4-1.5,0.8-2.5,1c-0.9,0.2-2,0.4-3.3,0.4
		c-1.2,0-2.3-0.1-3.4-0.4c-1-0.3-2-0.7-2.8-1.4c-0.8-0.6-1.4-1.4-1.9-2.3c-0.4-1-0.7-2.1-0.7-3.4c0-1.8,0.4-3.2,1.2-4.2
		c0.8-1,1.9-1.8,3.2-2.3c1.3-0.5,2.8-0.9,4.4-1.1c1.7-0.2,3.3-0.4,5-0.6c0.7-0.1,1.2-0.2,1.8-0.2c0.5-0.1,0.9-0.3,1.2-0.5
		c0.3-0.2,0.6-0.6,0.8-1c0.2-0.4,0.3-1,0.3-1.7c0-1.1-0.2-1.9-0.5-2.6s-0.8-1.2-1.5-1.6c-0.6-0.4-1.3-0.7-2.1-0.8
		c-0.8-0.2-1.7-0.2-2.6-0.2c-2,0-3.6,0.5-4.9,1.4c-1.3,0.9-1.9,2.5-2,4.6h-3.1C227.7,438.9,228,437.6,228.5,436.5z M244.3,444.2
		c-0.2,0.4-0.6,0.6-1.1,0.8c-0.6,0.2-1.1,0.3-1.5,0.3c-1.3,0.2-2.7,0.4-4.1,0.6c-1.4,0.2-2.7,0.5-3.9,0.8c-1.2,0.4-2.1,0.9-2.9,1.6
		c-0.8,0.7-1.1,1.7-1.1,2.9c0,0.8,0.2,1.5,0.5,2.1c0.3,0.6,0.7,1.2,1.3,1.6c0.5,0.5,1.1,0.8,1.9,1c0.7,0.2,1.4,0.3,2.1,0.3
		c1.2,0,2.4-0.2,3.5-0.5c1.1-0.4,2.1-0.9,2.9-1.6c0.8-0.7,1.5-1.5,1.9-2.5c0.5-1,0.7-2.1,0.7-3.4v-4.1H244.3z"/>
	<path class="st1" d="M257,422.6v35.7h-3.2v-35.7H257z"/>
	<path class="st1" d="M266.3,422.6v5h-3.2v-5H266.3z M266.3,432.5v25.8h-3.2v-25.8H266.3z"/>
	<path class="st1" d="M282.6,432.5v2.6h-5.2v17.4c0,1,0.1,1.8,0.4,2.4c0.3,0.6,1,0.9,2.1,1c0.9,0,1.8-0.1,2.7-0.2v2.7
		c-0.5,0-0.9,0-1.4,0c-0.5,0-0.9,0-1.4,0c-2.1,0-3.6-0.4-4.4-1.2c-0.8-0.8-1.2-2.3-1.2-4.5v-17.7h-4.5v-2.6h4.5v-7.8h3.1v7.8H282.6z
		"/>
	<path class="st1" d="M287.6,432.5l8.5,22l7.9-22h3.1L296,462.2c-0.5,1.1-0.9,2-1.3,2.7c-0.4,0.7-0.8,1.3-1.3,1.7
		c-0.5,0.4-1.1,0.7-1.7,0.9s-1.5,0.3-2.5,0.3c-0.6,0-1.1-0.1-1.5-0.1c-0.4,0-0.7-0.1-0.9-0.2v-2.7c0.4,0.1,0.7,0.1,1.1,0.2
		c0.4,0,0.7,0.1,1.1,0.1c0.7,0,1.3-0.1,1.7-0.3c0.5-0.2,0.8-0.5,1.2-0.8c0.3-0.3,0.6-0.8,0.8-1.3c0.2-0.5,0.5-1,0.8-1.7l1.1-2.9
		l-10.3-25.7H287.6z"/>
	<path class="st1" d="M324.8,436.5c0.5-1.1,1.3-2,2.2-2.7c0.9-0.7,2-1.2,3.2-1.5c1.2-0.3,2.6-0.5,4.1-0.5c1.1,0,2.3,0.1,3.4,0.3
		c1.1,0.2,2.2,0.6,3.1,1.2s1.6,1.4,2.2,2.5c0.6,1.1,0.9,2.5,0.9,4.2v13.7c0,1.3,0.6,1.9,1.9,1.9c0.4,0,0.7-0.1,1-0.2v2.6
		c-0.4,0.1-0.7,0.1-1,0.2c-0.3,0-0.6,0-1.1,0c-0.8,0-1.4-0.1-1.9-0.3c-0.5-0.2-0.9-0.5-1.1-0.9c-0.3-0.4-0.4-0.9-0.5-1.4
		c-0.1-0.5-0.1-1.2-0.1-1.8h-0.1c-0.6,0.8-1.1,1.6-1.7,2.2c-0.6,0.7-1.2,1.2-1.9,1.6c-0.7,0.4-1.5,0.8-2.5,1c-0.9,0.2-2,0.4-3.3,0.4
		c-1.2,0-2.3-0.1-3.4-0.4c-1-0.3-2-0.7-2.8-1.4c-0.8-0.6-1.4-1.4-1.9-2.3c-0.4-1-0.7-2.1-0.7-3.4c0-1.8,0.4-3.2,1.2-4.2
		c0.8-1,1.9-1.8,3.2-2.3c1.3-0.5,2.8-0.9,4.4-1.1c1.7-0.2,3.3-0.4,5-0.6c0.7-0.1,1.2-0.2,1.8-0.2c0.5-0.1,0.9-0.3,1.2-0.5
		c0.3-0.2,0.6-0.6,0.8-1c0.2-0.4,0.3-1,0.3-1.7c0-1.1-0.2-1.9-0.5-2.6s-0.8-1.2-1.5-1.6c-0.6-0.4-1.3-0.7-2.1-0.8
		c-0.8-0.2-1.7-0.2-2.6-0.2c-2,0-3.6,0.5-4.9,1.4c-1.3,0.9-1.9,2.5-2,4.6h-3.1C324,438.9,324.3,437.6,324.8,436.5z M340.6,444.2
		c-0.2,0.4-0.6,0.6-1.1,0.8c-0.6,0.2-1.1,0.3-1.5,0.3c-1.3,0.2-2.7,0.4-4.1,0.6c-1.4,0.2-2.7,0.5-3.9,0.8c-1.2,0.4-2.1,0.9-2.9,1.6
		c-0.8,0.7-1.1,1.7-1.1,2.9c0,0.8,0.2,1.5,0.5,2.1c0.3,0.6,0.7,1.2,1.3,1.6c0.5,0.5,1.1,0.8,1.9,1c0.7,0.2,1.4,0.3,2.1,0.3
		c1.2,0,2.4-0.2,3.5-0.5c1.1-0.4,2.1-0.9,2.9-1.6c0.8-0.7,1.5-1.5,1.9-2.5c0.5-1,0.7-2.1,0.7-3.4v-4.1H340.6z"/>
	<path class="st1" d="M353.2,432.5v4.5h0.1c0.6-1.6,1.7-2.8,3.2-3.8c1.5-1,3.2-1.4,5.1-1.4c1.8,0,3.3,0.2,4.5,0.7
		c1.2,0.5,2.2,1.1,2.9,2c0.7,0.8,1.2,1.9,1.6,3.1c0.3,1.2,0.4,2.6,0.4,4.2v16.6h-3.1v-16.1c0-1.1-0.1-2.1-0.3-3.1
		c-0.2-1-0.6-1.8-1.1-2.5c-0.5-0.7-1.2-1.2-2-1.6c-0.9-0.4-1.9-0.6-3.2-0.6c-1.3,0-2.4,0.2-3.4,0.7c-1,0.4-1.8,1.1-2.5,1.8
		c-0.7,0.8-1.2,1.7-1.6,2.8c-0.4,1.1-0.6,2.3-0.6,3.5v15h-3.1v-25.8H353.2z"/>
	<path class="st1" d="M377.4,432.5l8.5,22l7.9-22h3.1l-11.2,29.7c-0.5,1.1-0.9,2-1.3,2.7c-0.4,0.7-0.8,1.3-1.3,1.7
		c-0.5,0.4-1.1,0.7-1.7,0.9s-1.5,0.3-2.5,0.3c-0.6,0-1.1-0.1-1.5-0.1c-0.4,0-0.7-0.1-0.9-0.2v-2.7c0.4,0.1,0.7,0.1,1.1,0.2
		c0.4,0,0.7,0.1,1.1,0.1c0.7,0,1.3-0.1,1.7-0.3c0.5-0.2,0.8-0.5,1.2-0.8c0.3-0.3,0.6-0.8,0.8-1.3c0.2-0.5,0.5-1,0.8-1.7l1.1-2.9
		l-10.3-25.7H377.4z"/>
	<path class="st1" d="M416.3,432.9c1.5,0.7,2.8,1.7,3.8,3c1,1.2,1.8,2.7,2.3,4.3c0.5,1.6,0.8,3.4,0.8,5.3c0,1.9-0.3,3.6-0.8,5.3
		s-1.3,3.1-2.3,4.3c-1,1.2-2.3,2.2-3.8,2.9c-1.5,0.7-3.3,1.1-5.2,1.1c-2,0-3.7-0.4-5.2-1.1c-1.5-0.7-2.8-1.7-3.8-2.9
		c-1-1.2-1.8-2.7-2.4-4.3c-0.5-1.7-0.8-3.4-0.8-5.3c0-1.9,0.3-3.6,0.8-5.3c0.5-1.7,1.3-3.1,2.4-4.3c1-1.2,2.3-2.2,3.8-3
		c1.5-0.7,3.3-1.1,5.2-1.1C413,431.8,414.7,432.2,416.3,432.9z M407.1,435.4c-1.1,0.6-2.1,1.5-2.8,2.5c-0.8,1-1.3,2.2-1.7,3.5
		c-0.4,1.3-0.6,2.7-0.6,4c0,1.4,0.2,2.7,0.6,4c0.4,1.3,1,2.5,1.7,3.5s1.7,1.9,2.8,2.5c1.1,0.6,2.4,0.9,3.9,0.9s2.8-0.3,4-0.9
		c1.1-0.6,2.1-1.5,2.8-2.5s1.3-2.2,1.7-3.5c0.4-1.3,0.6-2.7,0.6-4c0-1.4-0.2-2.7-0.6-4c-0.4-1.3-1-2.5-1.7-3.5
		c-0.8-1-1.7-1.9-2.8-2.5c-1.1-0.6-2.5-1-4-1S408.2,434.8,407.1,435.4z"/>
	<path class="st1" d="M431,432.5v4.5h0.1c0.6-1.6,1.7-2.8,3.2-3.8c1.5-1,3.2-1.4,5.1-1.4c1.8,0,3.3,0.2,4.5,0.7
		c1.2,0.5,2.2,1.1,2.9,2c0.7,0.8,1.2,1.9,1.6,3.1c0.3,1.2,0.4,2.6,0.4,4.2v16.6h-3.1v-16.1c0-1.1-0.1-2.1-0.3-3.1
		c-0.2-1-0.6-1.8-1.1-2.5c-0.5-0.7-1.2-1.2-2-1.6c-0.9-0.4-1.9-0.6-3.2-0.6c-1.3,0-2.4,0.2-3.4,0.7c-1,0.4-1.8,1.1-2.5,1.8
		c-0.7,0.8-1.2,1.7-1.6,2.8c-0.4,1.1-0.6,2.3-0.6,3.5v15h-3.1v-25.8H431z"/>
	<path class="st1" d="M457.1,449.8c0.3,1.2,0.8,2.3,1.5,3.3c0.7,1,1.6,1.8,2.6,2.4c1.1,0.6,2.4,0.9,3.9,0.9c2.3,0,4.1-0.6,5.4-1.8
		s2.2-2.8,2.7-4.8h3.1c-0.7,2.9-1.9,5.2-3.7,6.8c-1.8,1.6-4.3,2.4-7.6,2.4c-2,0-3.8-0.4-5.3-1.1c-1.5-0.7-2.7-1.7-3.6-3
		c-0.9-1.2-1.6-2.7-2.1-4.3c-0.5-1.7-0.7-3.4-0.7-5.2c0-1.7,0.2-3.4,0.7-5c0.5-1.6,1.1-3.1,2.1-4.4c0.9-1.3,2.1-2.3,3.6-3.1
		c1.5-0.8,3.2-1.2,5.3-1.2c2.1,0,3.8,0.4,5.3,1.2c1.5,0.8,2.7,1.9,3.6,3.3c0.9,1.4,1.6,2.9,2,4.7c0.4,1.8,0.6,3.5,0.5,5.3h-19.9
		C456.6,447.4,456.8,448.6,457.1,449.8z M472.7,440.2c-0.4-1.1-0.9-2.1-1.6-2.9c-0.7-0.8-1.5-1.5-2.5-2c-1-0.5-2.1-0.8-3.4-0.8
		c-1.3,0-2.5,0.3-3.5,0.8c-1,0.5-1.9,1.2-2.5,2c-0.7,0.9-1.3,1.8-1.7,3c-0.4,1.1-0.7,2.3-0.8,3.4h16.7
		C473.3,442.4,473.1,441.3,472.7,440.2z"/>
	<path class="st1" d="M55.9,482.6V497H56c0.6-1.6,1.7-2.8,3.2-3.8c1.5-1,3.2-1.4,5.1-1.4c1.8,0,3.3,0.2,4.5,0.7
		c1.2,0.5,2.2,1.1,2.9,2c0.7,0.8,1.2,1.9,1.6,3.1c0.3,1.2,0.4,2.6,0.4,4.2v16.6h-3.1v-16.1c0-1.1-0.1-2.1-0.3-3.1
		c-0.2-1-0.6-1.8-1.1-2.5c-0.5-0.7-1.2-1.2-2-1.6c-0.9-0.4-1.9-0.6-3.2-0.6c-1.3,0-2.4,0.2-3.4,0.7c-1,0.4-1.8,1.1-2.5,1.8
		c-0.7,0.8-1.2,1.7-1.6,2.8c-0.4,1.1-0.6,2.3-0.6,3.5v15h-3.1v-35.7H55.9z"/>
	<path class="st1" d="M80.3,496.5c0.5-1.1,1.3-2,2.2-2.7c0.9-0.7,2-1.2,3.2-1.5c1.2-0.3,2.6-0.5,4.1-0.5c1.1,0,2.3,0.1,3.4,0.3
		c1.1,0.2,2.2,0.6,3.1,1.2s1.6,1.4,2.2,2.5c0.6,1.1,0.9,2.5,0.9,4.2v13.7c0,1.3,0.6,1.9,1.9,1.9c0.4,0,0.7-0.1,1-0.2v2.6
		c-0.4,0.1-0.7,0.1-1,0.2c-0.3,0-0.6,0-1.1,0c-0.8,0-1.4-0.1-1.9-0.3c-0.5-0.2-0.9-0.5-1.1-0.9c-0.3-0.4-0.4-0.9-0.5-1.4
		c-0.1-0.5-0.1-1.2-0.1-1.8h-0.1c-0.6,0.8-1.1,1.6-1.7,2.2c-0.6,0.7-1.2,1.2-1.9,1.6c-0.7,0.4-1.5,0.8-2.5,1c-0.9,0.2-2,0.4-3.3,0.4
		c-1.2,0-2.3-0.1-3.4-0.4c-1-0.3-2-0.7-2.8-1.4c-0.8-0.6-1.4-1.4-1.9-2.3c-0.4-1-0.7-2.1-0.7-3.4c0-1.8,0.4-3.2,1.2-4.2
		c0.8-1,1.9-1.8,3.2-2.3c1.3-0.5,2.8-0.9,4.4-1.1c1.7-0.2,3.3-0.4,5-0.6c0.7-0.1,1.2-0.2,1.8-0.2c0.5-0.1,0.9-0.3,1.2-0.5
		c0.3-0.2,0.6-0.6,0.8-1c0.2-0.4,0.3-1,0.3-1.7c0-1.1-0.2-1.9-0.5-2.6s-0.8-1.2-1.5-1.6c-0.6-0.4-1.3-0.7-2.1-0.8
		c-0.8-0.2-1.7-0.2-2.6-0.2c-2,0-3.6,0.5-4.9,1.4c-1.3,0.9-1.9,2.5-2,4.6h-3.1C79.5,498.9,79.8,497.6,80.3,496.5z M96.1,504.2
		c-0.2,0.4-0.6,0.6-1.1,0.8c-0.6,0.2-1.1,0.3-1.5,0.3c-1.3,0.2-2.7,0.4-4.1,0.6c-1.4,0.2-2.7,0.5-3.9,0.8c-1.2,0.4-2.1,0.9-2.9,1.6
		c-0.8,0.7-1.1,1.7-1.1,2.9c0,0.8,0.2,1.5,0.5,2.1c0.3,0.6,0.7,1.2,1.3,1.6c0.5,0.5,1.1,0.8,1.9,1c0.7,0.2,1.4,0.3,2.1,0.3
		c1.2,0,2.4-0.2,3.5-0.5c1.1-0.4,2.1-0.9,2.9-1.6c0.8-0.7,1.5-1.5,1.9-2.5c0.5-1,0.7-2.1,0.7-3.4v-4.1H96.1z"/>
	<path class="st1" d="M120.5,497.6c-0.4-0.7-0.9-1.3-1.5-1.8c-0.6-0.5-1.3-0.8-2.1-1c-0.8-0.2-1.6-0.3-2.5-0.3
		c-0.7,0-1.4,0.1-2.1,0.2c-0.7,0.1-1.4,0.4-2,0.8c-0.6,0.3-1.1,0.8-1.5,1.4c-0.4,0.6-0.5,1.3-0.5,2.1c0,0.7,0.2,1.3,0.5,1.8
		s0.8,0.9,1.3,1.2c0.5,0.3,1.1,0.6,1.8,0.8c0.6,0.2,1.2,0.4,1.8,0.5l4.2,0.9c0.9,0.1,1.8,0.4,2.7,0.7c0.9,0.3,1.7,0.8,2.3,1.4
		c0.7,0.6,1.2,1.3,1.7,2.1c0.4,0.8,0.6,1.8,0.6,3c0,1.4-0.3,2.6-1,3.6c-0.6,1-1.4,1.8-2.4,2.4c-1,0.6-2.1,1.1-3.3,1.3
		c-1.2,0.3-2.4,0.4-3.6,0.4c-3,0-5.5-0.7-7.4-2.2c-1.9-1.4-3-3.7-3.2-6.9h3.2c0.1,2.1,0.9,3.7,2.3,4.8c1.4,1.1,3.2,1.6,5.3,1.6
		c0.8,0,1.6-0.1,2.4-0.2c0.8-0.2,1.6-0.4,2.3-0.8c0.7-0.4,1.3-0.9,1.7-1.5c0.5-0.6,0.7-1.4,0.7-2.3c0-0.8-0.2-1.4-0.5-1.9
		c-0.3-0.5-0.7-1-1.3-1.3c-0.5-0.3-1.1-0.6-1.8-0.9c-0.7-0.2-1.4-0.4-2.1-0.6l-4.1-0.9c-1-0.3-2-0.6-2.9-0.9
		c-0.9-0.3-1.6-0.8-2.3-1.3c-0.6-0.5-1.2-1.2-1.5-1.9c-0.4-0.8-0.5-1.7-0.5-2.8c0-1.3,0.3-2.4,0.9-3.4c0.6-0.9,1.3-1.7,2.3-2.2
		c0.9-0.6,2-1,3.1-1.2c1.1-0.3,2.3-0.4,3.4-0.4c1.3,0,2.5,0.2,3.6,0.5c1.1,0.3,2.1,0.8,3,1.5s1.5,1.6,2,2.6c0.5,1,0.8,2.2,0.9,3.7
		h-3.1C121.1,499.1,120.9,498.3,120.5,497.6z"/>
	<path class="st1" d="M144.2,496.5c0.5-1.1,1.3-2,2.2-2.7c0.9-0.7,2-1.2,3.2-1.5c1.2-0.3,2.6-0.5,4.1-0.5c1.1,0,2.3,0.1,3.4,0.3
		c1.1,0.2,2.2,0.6,3.1,1.2s1.6,1.4,2.2,2.5c0.6,1.1,0.9,2.5,0.9,4.2v13.7c0,1.3,0.6,1.9,1.9,1.9c0.4,0,0.7-0.1,1-0.2v2.6
		c-0.4,0.1-0.7,0.1-1,0.2c-0.3,0-0.6,0-1.1,0c-0.8,0-1.4-0.1-1.9-0.3c-0.5-0.2-0.9-0.5-1.1-0.9c-0.3-0.4-0.4-0.9-0.5-1.4
		c-0.1-0.5-0.1-1.2-0.1-1.8h-0.1c-0.6,0.8-1.1,1.6-1.7,2.2c-0.6,0.7-1.2,1.2-1.9,1.6c-0.7,0.4-1.5,0.8-2.5,1c-0.9,0.2-2,0.4-3.3,0.4
		c-1.2,0-2.3-0.1-3.4-0.4c-1-0.3-2-0.7-2.8-1.4c-0.8-0.6-1.4-1.4-1.9-2.3c-0.4-1-0.7-2.1-0.7-3.4c0-1.8,0.4-3.2,1.2-4.2
		c0.8-1,1.9-1.8,3.2-2.3c1.3-0.5,2.8-0.9,4.4-1.1c1.7-0.2,3.3-0.4,5-0.6c0.7-0.1,1.2-0.2,1.8-0.2c0.5-0.1,0.9-0.3,1.2-0.5
		c0.3-0.2,0.6-0.6,0.8-1c0.2-0.4,0.3-1,0.3-1.7c0-1.1-0.2-1.9-0.5-2.6s-0.8-1.2-1.5-1.6c-0.6-0.4-1.3-0.7-2.1-0.8
		c-0.8-0.2-1.7-0.2-2.6-0.2c-2,0-3.6,0.5-4.9,1.4c-1.3,0.9-1.9,2.5-2,4.6h-3.1C143.4,498.9,143.7,497.6,144.2,496.5z M160,504.2
		c-0.2,0.4-0.6,0.6-1.1,0.8c-0.6,0.2-1.1,0.3-1.5,0.3c-1.3,0.2-2.7,0.4-4.1,0.6c-1.4,0.2-2.7,0.5-3.9,0.8c-1.2,0.4-2.1,0.9-2.9,1.6
		c-0.8,0.7-1.1,1.7-1.1,2.9c0,0.8,0.2,1.5,0.5,2.1c0.3,0.6,0.7,1.2,1.3,1.6c0.5,0.5,1.1,0.8,1.9,1c0.7,0.2,1.4,0.3,2.1,0.3
		c1.2,0,2.4-0.2,3.5-0.5c1.1-0.4,2.1-0.9,2.9-1.6c0.8-0.7,1.5-1.5,1.9-2.5c0.5-1,0.7-2.1,0.7-3.4v-4.1H160z"/>
	<path class="st1" d="M172.6,492.5v4.5h0.1c0.6-1.6,1.7-2.8,3.2-3.8c1.5-1,3.2-1.4,5.1-1.4c1.8,0,3.3,0.2,4.5,0.7
		c1.2,0.5,2.2,1.1,2.9,2c0.7,0.8,1.2,1.9,1.6,3.1c0.3,1.2,0.4,2.6,0.4,4.2v16.6h-3.1v-16.1c0-1.1-0.1-2.1-0.3-3.1
		c-0.2-1-0.6-1.8-1.1-2.5c-0.5-0.7-1.2-1.2-2-1.6c-0.9-0.4-1.9-0.6-3.2-0.6c-1.3,0-2.4,0.2-3.4,0.7c-1,0.4-1.8,1.1-2.5,1.8
		c-0.7,0.8-1.2,1.7-1.6,2.8c-0.4,1.1-0.6,2.3-0.6,3.5v15h-3.1v-25.8H172.6z"/>
	<path class="st1" d="M216.2,518.3v-4.9h-0.1c-0.3,0.8-0.8,1.6-1.5,2.3c-0.6,0.7-1.4,1.3-2.2,1.8c-0.8,0.5-1.7,0.9-2.7,1.1
		c-1,0.3-1.9,0.4-2.8,0.4c-2,0-3.7-0.4-5.1-1.1s-2.7-1.7-3.6-3c-1-1.2-1.7-2.7-2.1-4.3c-0.5-1.7-0.7-3.4-0.7-5.2
		c0-1.8,0.2-3.6,0.7-5.2c0.5-1.7,1.2-3.1,2.1-4.3c1-1.2,2.2-2.2,3.6-3c1.5-0.7,3.2-1.1,5.1-1.1c1,0,1.9,0.1,2.8,0.3
		c0.9,0.2,1.8,0.6,2.6,1.1c0.8,0.5,1.5,1.1,2.1,1.8c0.6,0.7,1.1,1.5,1.4,2.4h0.1v-14.8h3.2v35.7H216.2z M198.9,509.4
		c0.3,1.3,0.8,2.5,1.5,3.5c0.7,1,1.6,1.9,2.6,2.5c1.1,0.7,2.4,1,3.9,1c1.7,0,3.1-0.3,4.2-1s2.1-1.5,2.8-2.5c0.7-1,1.2-2.2,1.6-3.5
		c0.3-1.3,0.5-2.6,0.5-4c0-1.3-0.2-2.7-0.5-4c-0.3-1.3-0.8-2.5-1.6-3.5c-0.7-1-1.6-1.9-2.8-2.5c-1.1-0.7-2.6-1-4.2-1
		c-1.5,0-2.8,0.3-3.9,1c-1.1,0.6-1.9,1.5-2.6,2.5c-0.7,1-1.2,2.2-1.5,3.5c-0.3,1.3-0.5,2.6-0.5,4
		C198.4,506.8,198.6,508.1,198.9,509.4z"/>
	<path class="st1" d="M236.8,481.9h2.5L224.1,519h-2.6L236.8,481.9z"/>
	<path class="st1" d="M257.9,492.9c1.5,0.7,2.8,1.7,3.8,3c1,1.2,1.8,2.7,2.3,4.3c0.5,1.6,0.8,3.4,0.8,5.3c0,1.9-0.3,3.6-0.8,5.3
		s-1.3,3.1-2.3,4.3c-1,1.2-2.3,2.2-3.8,2.9c-1.5,0.7-3.3,1.1-5.2,1.1c-2,0-3.7-0.4-5.2-1.1c-1.5-0.7-2.8-1.7-3.8-2.9
		c-1-1.2-1.8-2.7-2.4-4.3c-0.5-1.7-0.8-3.4-0.8-5.3c0-1.9,0.3-3.6,0.8-5.3c0.5-1.7,1.3-3.1,2.4-4.3c1-1.2,2.3-2.2,3.8-3
		c1.5-0.7,3.3-1.1,5.2-1.1C254.6,491.8,256.3,492.2,257.9,492.9z M248.7,495.4c-1.1,0.6-2.1,1.5-2.8,2.5c-0.8,1-1.3,2.2-1.7,3.5
		c-0.4,1.3-0.6,2.7-0.6,4c0,1.4,0.2,2.7,0.6,4c0.4,1.3,1,2.5,1.7,3.5s1.7,1.9,2.8,2.5c1.1,0.6,2.4,0.9,3.9,0.9s2.8-0.3,4-0.9
		c1.1-0.6,2.1-1.5,2.8-2.5s1.3-2.2,1.7-3.5c0.4-1.3,0.6-2.7,0.6-4c0-1.4-0.2-2.7-0.6-4c-0.4-1.3-1-2.5-1.7-3.5
		c-0.8-1-1.7-1.9-2.8-2.5c-1.1-0.6-2.5-1-4-1S249.8,494.8,248.7,495.4z"/>
	<path class="st1" d="M272.4,492.5v6h0.1c0.8-2.1,2-3.7,3.7-4.8c1.7-1.1,3.7-1.7,6-1.6v3.2c-1.4-0.1-2.7,0.1-3.9,0.6
		c-1.2,0.5-2.2,1.1-3,1.9c-0.9,0.8-1.5,1.8-2,3c-0.5,1.2-0.7,2.4-0.7,3.8v13.8h-3.1v-25.8H272.4z"/>
	<path class="st1" d="M299.9,492.5l6.6,22.1h0.1l6.3-22.1h3.5l6.3,22.1h0.1l6.6-22.1h3.4l-8.3,25.8h-3.5l-6.4-21.7h-0.1l-6.3,21.7
		h-3.4l-8.3-25.8H299.9z"/>
	<path class="st1" d="M339.4,482.6v5h-3.2v-5H339.4z M339.4,492.5v25.8h-3.2v-25.8H339.4z"/>
	<path class="st1" d="M348.7,482.6v35.7h-3.2v-35.7H348.7z"/>
	<path class="st1" d="M357.9,482.6v35.7h-3.2v-35.7H357.9z"/>
	<path class="st1" d="M381.1,482.6v5h-3.2v-5H381.1z M381.1,492.5v25.8h-3.2v-25.8H381.1z"/>
	<path class="st1" d="M390.2,492.5v4.5h0.1c0.6-1.6,1.7-2.8,3.2-3.8c1.5-1,3.2-1.4,5.1-1.4c1.8,0,3.3,0.2,4.5,0.7
		c1.2,0.5,2.2,1.1,2.9,2c0.7,0.8,1.2,1.9,1.6,3.1c0.3,1.2,0.4,2.6,0.4,4.2v16.6h-3.1v-16.1c0-1.1-0.1-2.1-0.3-3.1
		c-0.2-1-0.6-1.8-1.1-2.5c-0.5-0.7-1.2-1.2-2-1.6c-0.9-0.4-1.9-0.6-3.2-0.6c-1.3,0-2.4,0.2-3.4,0.7c-1,0.4-1.8,1.1-2.5,1.8
		c-0.7,0.8-1.2,1.7-1.6,2.8c-0.4,1.1-0.6,2.3-0.6,3.5v15h-3.1v-25.8H390.2z"/>
	<path class="st1" d="M414.6,492.5l8.1,22.6h0.1l8-22.6h3.2l-9.6,25.8H421l-9.9-25.8H414.6z"/>
	<path class="st1" d="M439.5,509.8c0.3,1.2,0.8,2.3,1.5,3.3c0.7,1,1.6,1.8,2.6,2.4c1.1,0.6,2.4,0.9,3.9,0.9c2.3,0,4.1-0.6,5.4-1.8
		s2.2-2.8,2.7-4.8h3.1c-0.7,2.9-1.9,5.2-3.7,6.8c-1.8,1.6-4.3,2.4-7.6,2.4c-2,0-3.8-0.4-5.3-1.1c-1.5-0.7-2.7-1.7-3.6-3
		c-0.9-1.2-1.6-2.7-2.1-4.3c-0.5-1.7-0.7-3.4-0.7-5.2c0-1.7,0.2-3.4,0.7-5c0.5-1.6,1.1-3.1,2.1-4.4c0.9-1.3,2.1-2.3,3.6-3.1
		c1.5-0.8,3.2-1.2,5.3-1.2c2.1,0,3.8,0.4,5.3,1.2c1.5,0.8,2.7,1.9,3.6,3.3c0.9,1.4,1.6,2.9,2,4.7c0.4,1.8,0.6,3.5,0.5,5.3H439
		C439,507.4,439.1,508.6,439.5,509.8z M455.1,500.2c-0.4-1.1-0.9-2.1-1.6-2.9c-0.7-0.8-1.5-1.5-2.5-2c-1-0.5-2.1-0.8-3.4-0.8
		c-1.3,0-2.5,0.3-3.5,0.8c-1,0.5-1.9,1.2-2.5,2c-0.7,0.9-1.3,1.8-1.7,3c-0.4,1.1-0.7,2.3-0.8,3.4h16.7
		C455.6,502.4,455.4,501.3,455.1,500.2z"/>
	<path class="st1" d="M477.9,497.6c-0.4-0.7-0.9-1.3-1.5-1.8c-0.6-0.5-1.3-0.8-2.1-1c-0.8-0.2-1.6-0.3-2.5-0.3
		c-0.7,0-1.4,0.1-2.1,0.2c-0.7,0.1-1.4,0.4-2,0.8c-0.6,0.3-1.1,0.8-1.5,1.4c-0.4,0.6-0.5,1.3-0.5,2.1c0,0.7,0.2,1.3,0.5,1.8
		s0.8,0.9,1.3,1.2c0.5,0.3,1.1,0.6,1.8,0.8c0.6,0.2,1.2,0.4,1.8,0.5l4.2,0.9c0.9,0.1,1.8,0.4,2.7,0.7c0.9,0.3,1.7,0.8,2.3,1.4
		c0.7,0.6,1.2,1.3,1.7,2.1c0.4,0.8,0.6,1.8,0.6,3c0,1.4-0.3,2.6-1,3.6c-0.6,1-1.4,1.8-2.4,2.4c-1,0.6-2.1,1.1-3.3,1.3
		c-1.2,0.3-2.4,0.4-3.6,0.4c-3,0-5.5-0.7-7.4-2.2c-1.9-1.4-3-3.7-3.2-6.9h3.2c0.1,2.1,0.9,3.7,2.3,4.8c1.4,1.1,3.2,1.6,5.3,1.6
		c0.8,0,1.6-0.1,2.4-0.2c0.8-0.2,1.6-0.4,2.3-0.8c0.7-0.4,1.3-0.9,1.7-1.5c0.5-0.6,0.7-1.4,0.7-2.3c0-0.8-0.2-1.4-0.5-1.9
		c-0.3-0.5-0.7-1-1.3-1.3c-0.5-0.3-1.1-0.6-1.8-0.9c-0.7-0.2-1.4-0.4-2.1-0.6l-4.1-0.9c-1-0.3-2-0.6-2.9-0.9
		c-0.9-0.3-1.6-0.8-2.3-1.3c-0.6-0.5-1.2-1.2-1.5-1.9c-0.4-0.8-0.5-1.7-0.5-2.8c0-1.3,0.3-2.4,0.9-3.4c0.6-0.9,1.3-1.7,2.3-2.2
		c0.9-0.6,2-1,3.1-1.2c1.1-0.3,2.3-0.4,3.4-0.4c1.3,0,2.5,0.2,3.6,0.5c1.1,0.3,2.1,0.8,3,1.5s1.5,1.6,2,2.6c0.5,1,0.8,2.2,0.9,3.7
		h-3.1C478.5,499.1,478.3,498.3,477.9,497.6z"/>
	<path class="st1" d="M497.4,492.5v2.6h-5.2v17.4c0,1,0.1,1.8,0.4,2.4c0.3,0.6,1,0.9,2.1,1c0.9,0,1.8-0.1,2.7-0.2v2.7
		c-0.5,0-0.9,0-1.4,0c-0.5,0-0.9,0-1.4,0c-2.1,0-3.6-0.4-4.4-1.2c-0.8-0.8-1.2-2.3-1.2-4.5v-17.7h-4.5v-2.6h4.5v-7.8h3.1v7.8H497.4z
		"/>
	<path class="st1" d="M519,482.6v5h-3.2v-5H519z M519,492.5v25.8h-3.2v-25.8H519z"/>
	<path class="st1" d="M528.2,492.5v4.5h0.1c0.6-1.6,1.7-2.8,3.2-3.8c1.5-1,3.2-1.4,5-1.4c1.8,0,3.3,0.2,4.5,0.7s2.2,1.1,2.9,2
		c0.7,0.8,1.2,1.9,1.5,3.1c0.3,1.2,0.5,2.6,0.5,4.2v16.6h-3.2v-16.1c0-1.1-0.1-2.1-0.3-3.1s-0.5-1.8-1-2.5c-0.5-0.7-1.2-1.2-2-1.6
		c-0.8-0.4-1.9-0.6-3.2-0.6c-1.3,0-2.4,0.2-3.4,0.7c-1,0.4-1.8,1.1-2.5,1.8c-0.7,0.8-1.2,1.7-1.6,2.8c-0.4,1.1-0.6,2.3-0.6,3.5v15
		H525v-25.8H528.2z"/>
	<path class="st1" d="M63.1,552.5v2.6h-5.2v17.4c0,1,0.1,1.8,0.4,2.4c0.3,0.6,1,0.9,2.1,1c0.9,0,1.8-0.1,2.7-0.2v2.7
		c-0.5,0-0.9,0-1.4,0c-0.5,0-0.9,0-1.4,0c-2.1,0-3.6-0.4-4.4-1.2c-0.8-0.8-1.2-2.3-1.2-4.5v-17.7h-4.5v-2.6h4.5v-7.8h3.1v7.8H63.1z"
		/>
	<path class="st1" d="M70.7,542.6V557h0.1c0.6-1.6,1.7-2.8,3.2-3.8c1.5-1,3.2-1.4,5.1-1.4c1.8,0,3.3,0.2,4.5,0.7
		c1.2,0.5,2.2,1.1,2.9,2c0.7,0.8,1.2,1.9,1.6,3.1c0.3,1.2,0.4,2.6,0.4,4.2v16.6h-3.1v-16.1c0-1.1-0.1-2.1-0.3-3.1
		c-0.2-1-0.6-1.8-1.1-2.5c-0.5-0.7-1.2-1.2-2-1.6c-0.9-0.4-1.9-0.6-3.2-0.6c-1.3,0-2.4,0.2-3.4,0.7c-1,0.4-1.8,1.1-2.5,1.8
		c-0.7,0.8-1.2,1.7-1.6,2.8c-0.4,1.1-0.6,2.3-0.6,3.5v15h-3.1v-35.7H70.7z"/>
	<path class="st1" d="M96.8,569.8c0.3,1.2,0.8,2.3,1.5,3.3c0.7,1,1.6,1.8,2.6,2.4c1.1,0.6,2.4,0.9,3.9,0.9c2.3,0,4.1-0.6,5.4-1.8
		s2.2-2.8,2.7-4.8h3.1c-0.7,2.9-1.9,5.2-3.7,6.8c-1.8,1.6-4.3,2.4-7.6,2.4c-2,0-3.8-0.4-5.3-1.1c-1.5-0.7-2.7-1.7-3.6-3
		c-0.9-1.2-1.6-2.7-2.1-4.3c-0.5-1.7-0.7-3.4-0.7-5.2c0-1.7,0.2-3.4,0.7-5c0.5-1.6,1.1-3.1,2.1-4.4c0.9-1.3,2.1-2.3,3.6-3.1
		c1.5-0.8,3.2-1.2,5.3-1.2c2.1,0,3.8,0.4,5.3,1.2c1.5,0.8,2.7,1.9,3.6,3.3c0.9,1.4,1.6,2.9,2,4.7c0.4,1.8,0.6,3.5,0.5,5.3H96.3
		C96.3,567.4,96.5,568.6,96.8,569.8z M112.4,560.2c-0.4-1.1-0.9-2.1-1.6-2.9c-0.7-0.8-1.5-1.5-2.5-2c-1-0.5-2.1-0.8-3.4-0.8
		c-1.3,0-2.5,0.3-3.5,0.8c-1,0.5-1.9,1.2-2.5,2c-0.7,0.9-1.3,1.8-1.7,3c-0.4,1.1-0.7,2.3-0.8,3.4H113
		C113,562.4,112.8,561.3,112.4,560.2z"/>
	<path class="st1" d="M139.2,555.2v23.2H136v-23.2h-4.4v-2.6h4.4v-2.4c0-1.1,0.1-2.1,0.2-3c0.2-0.9,0.5-1.7,0.9-2.4
		c0.5-0.7,1.1-1.2,1.9-1.6c0.8-0.4,1.9-0.5,3.1-0.5c0.5,0,0.9,0,1.3,0c0.4,0,0.9,0.1,1.4,0.2v2.7c-0.4-0.1-0.8-0.1-1.2-0.2
		c-0.4-0.1-0.7-0.1-1.1-0.1c-0.9,0-1.5,0.1-2,0.4c-0.5,0.3-0.8,0.6-1,1.1c-0.2,0.5-0.3,1-0.4,1.6c0,0.6,0,1.2,0,2v2.2h5.1v2.6H139.2
		z"/>
	<path class="st1" d="M150.5,542.6v5h-3.2v-5H150.5z M150.5,552.5v25.8h-3.2v-25.8H150.5z"/>
	<path class="st1" d="M159.6,552.5v4.5h0.1c0.6-1.6,1.7-2.8,3.2-3.8c1.5-1,3.2-1.4,5.1-1.4c1.8,0,3.3,0.2,4.5,0.7
		c1.2,0.5,2.2,1.1,2.9,2c0.7,0.8,1.2,1.9,1.6,3.1c0.3,1.2,0.4,2.6,0.4,4.2v16.6h-3.1v-16.1c0-1.1-0.1-2.1-0.3-3.1
		c-0.2-1-0.6-1.8-1.1-2.5c-0.5-0.7-1.2-1.2-2-1.6c-0.9-0.4-1.9-0.6-3.2-0.6c-1.3,0-2.4,0.2-3.4,0.7c-1,0.4-1.8,1.1-2.5,1.8
		c-0.7,0.8-1.2,1.7-1.6,2.8c-0.4,1.1-0.6,2.3-0.6,3.5v15h-3.1v-25.8H159.6z"/>
	<path class="st1" d="M184,556.5c0.5-1.1,1.3-2,2.2-2.7c0.9-0.7,2-1.2,3.2-1.5c1.2-0.3,2.6-0.5,4.1-0.5c1.1,0,2.3,0.1,3.4,0.3
		c1.1,0.2,2.2,0.6,3.1,1.2s1.6,1.4,2.2,2.5c0.6,1.1,0.9,2.5,0.9,4.2v13.7c0,1.3,0.6,1.9,1.9,1.9c0.4,0,0.7-0.1,1-0.2v2.6
		c-0.4,0.1-0.7,0.1-1,0.2c-0.3,0-0.6,0-1.1,0c-0.8,0-1.4-0.1-1.9-0.3c-0.5-0.2-0.9-0.5-1.1-0.9c-0.3-0.4-0.4-0.9-0.5-1.4
		c-0.1-0.5-0.1-1.2-0.1-1.8H200c-0.6,0.8-1.1,1.6-1.7,2.2c-0.6,0.7-1.2,1.2-1.9,1.6c-0.7,0.4-1.5,0.8-2.5,1c-0.9,0.2-2,0.4-3.3,0.4
		c-1.2,0-2.3-0.1-3.4-0.4c-1-0.3-2-0.7-2.8-1.4c-0.8-0.6-1.4-1.4-1.9-2.3c-0.4-1-0.7-2.1-0.7-3.4c0-1.8,0.4-3.2,1.2-4.2
		c0.8-1,1.9-1.8,3.2-2.3c1.3-0.5,2.8-0.9,4.4-1.1c1.7-0.2,3.3-0.4,5-0.6c0.7-0.1,1.2-0.2,1.8-0.2c0.5-0.1,0.9-0.3,1.2-0.5
		c0.3-0.2,0.6-0.6,0.8-1c0.2-0.4,0.3-1,0.3-1.7c0-1.1-0.2-1.9-0.5-2.6s-0.8-1.2-1.5-1.6c-0.6-0.4-1.3-0.7-2.1-0.8
		c-0.8-0.2-1.7-0.2-2.6-0.2c-2,0-3.6,0.5-4.9,1.4c-1.3,0.9-1.9,2.5-2,4.6h-3.1C183.2,558.9,183.5,557.6,184,556.5z M199.8,564.2
		c-0.2,0.4-0.6,0.6-1.1,0.8c-0.6,0.2-1.1,0.3-1.5,0.3c-1.3,0.2-2.7,0.4-4.1,0.6c-1.4,0.2-2.7,0.5-3.9,0.8c-1.2,0.4-2.1,0.9-2.9,1.6
		c-0.8,0.7-1.1,1.7-1.1,2.9c0,0.8,0.2,1.5,0.5,2.1c0.3,0.6,0.7,1.2,1.3,1.6c0.5,0.5,1.1,0.8,1.9,1c0.7,0.2,1.4,0.3,2.1,0.3
		c1.2,0,2.4-0.2,3.5-0.5c1.1-0.4,2.1-0.9,2.9-1.6c0.8-0.7,1.5-1.5,1.9-2.5c0.5-1,0.7-2.1,0.7-3.4v-4.1H199.8z"/>
	<path class="st1" d="M212.4,552.5v4.5h0.1c0.6-1.6,1.7-2.8,3.2-3.8c1.5-1,3.2-1.4,5.1-1.4c1.8,0,3.3,0.2,4.5,0.7
		c1.2,0.5,2.2,1.1,2.9,2c0.7,0.8,1.2,1.9,1.6,3.1c0.3,1.2,0.4,2.6,0.4,4.2v16.6h-3.1v-16.1c0-1.1-0.1-2.1-0.3-3.1
		c-0.2-1-0.6-1.8-1.1-2.5c-0.5-0.7-1.2-1.2-2-1.6c-0.9-0.4-1.9-0.6-3.2-0.6c-1.3,0-2.4,0.2-3.4,0.7c-1,0.4-1.8,1.1-2.5,1.8
		c-0.7,0.8-1.2,1.7-1.6,2.8c-0.4,1.1-0.6,2.3-0.6,3.5v15h-3.1v-25.8H212.4z"/>
	<path class="st1" d="M252,556.1c-1.2-1.1-2.8-1.7-4.9-1.7c-1.5,0-2.8,0.3-3.9,1c-1.1,0.6-2.1,1.5-2.8,2.5c-0.8,1-1.3,2.2-1.7,3.5
		c-0.4,1.3-0.6,2.7-0.6,4c0,1.4,0.2,2.7,0.6,4c0.4,1.3,1,2.5,1.7,3.5s1.7,1.9,2.8,2.5c1.1,0.6,2.4,0.9,3.9,0.9c1,0,1.9-0.2,2.8-0.5
		c0.9-0.4,1.6-0.9,2.3-1.5c0.7-0.7,1.2-1.4,1.6-2.3c0.4-0.9,0.7-1.9,0.8-3h3.1c-0.4,3.1-1.6,5.6-3.4,7.3c-1.9,1.8-4.3,2.6-7.2,2.6
		c-2,0-3.7-0.4-5.2-1.1c-1.5-0.7-2.8-1.7-3.8-2.9c-1-1.2-1.8-2.7-2.4-4.3c-0.5-1.7-0.8-3.4-0.8-5.3c0-1.9,0.3-3.6,0.8-5.3
		c0.5-1.7,1.3-3.1,2.4-4.3c1-1.2,2.3-2.2,3.8-3c1.5-0.7,3.3-1.1,5.2-1.1c2.8,0,5.1,0.7,7,2.2c1.9,1.5,3.1,3.7,3.4,6.6h-3.1
		C253.9,558.7,253.1,557.2,252,556.1z"/>
	<path class="st1" d="M265.3,542.6v5h-3.2v-5H265.3z M265.3,552.5v25.8h-3.2v-25.8H265.3z"/>
	<path class="st1" d="M272,556.5c0.5-1.1,1.3-2,2.2-2.7c0.9-0.7,2-1.2,3.2-1.5c1.2-0.3,2.6-0.5,4.1-0.5c1.1,0,2.3,0.1,3.4,0.3
		c1.1,0.2,2.2,0.6,3.1,1.2s1.6,1.4,2.2,2.5c0.6,1.1,0.9,2.5,0.9,4.2v13.7c0,1.3,0.6,1.9,1.9,1.9c0.4,0,0.7-0.1,1-0.2v2.6
		c-0.4,0.1-0.7,0.1-1,0.2c-0.3,0-0.6,0-1.1,0c-0.8,0-1.4-0.1-1.9-0.3c-0.5-0.2-0.9-0.5-1.1-0.9c-0.3-0.4-0.4-0.9-0.5-1.4
		c-0.1-0.5-0.1-1.2-0.1-1.8H288c-0.6,0.8-1.1,1.6-1.7,2.2c-0.6,0.7-1.2,1.2-1.9,1.6c-0.7,0.4-1.5,0.8-2.5,1c-0.9,0.2-2,0.4-3.3,0.4
		c-1.2,0-2.3-0.1-3.4-0.4c-1-0.3-2-0.7-2.8-1.4c-0.8-0.6-1.4-1.4-1.9-2.3c-0.4-1-0.7-2.1-0.7-3.4c0-1.8,0.4-3.2,1.2-4.2
		c0.8-1,1.9-1.8,3.2-2.3c1.3-0.5,2.8-0.9,4.4-1.1c1.7-0.2,3.3-0.4,5-0.6c0.7-0.1,1.2-0.2,1.8-0.2c0.5-0.1,0.9-0.3,1.2-0.5
		c0.3-0.2,0.6-0.6,0.8-1c0.2-0.4,0.3-1,0.3-1.7c0-1.1-0.2-1.9-0.5-2.6s-0.8-1.2-1.5-1.6c-0.6-0.4-1.3-0.7-2.1-0.8
		c-0.8-0.2-1.7-0.2-2.6-0.2c-2,0-3.6,0.5-4.9,1.4c-1.3,0.9-1.9,2.5-2,4.6h-3.1C271.2,558.9,271.5,557.6,272,556.5z M287.8,564.2
		c-0.2,0.4-0.6,0.6-1.1,0.8c-0.6,0.2-1.1,0.3-1.5,0.3c-1.3,0.2-2.7,0.4-4.1,0.6c-1.4,0.2-2.7,0.5-3.9,0.8c-1.2,0.4-2.1,0.9-2.9,1.6
		c-0.8,0.7-1.1,1.7-1.1,2.9c0,0.8,0.2,1.5,0.5,2.1c0.3,0.6,0.7,1.2,1.3,1.6c0.5,0.5,1.1,0.8,1.9,1c0.7,0.2,1.4,0.3,2.1,0.3
		c1.2,0,2.4-0.2,3.5-0.5c1.1-0.4,2.1-0.9,2.9-1.6c0.8-0.7,1.5-1.5,1.9-2.5c0.5-1,0.7-2.1,0.7-3.4v-4.1H287.8z"/>
	<path class="st1" d="M300.5,542.6v35.7h-3.2v-35.7H300.5z"/>
	<path class="st1" d="M323.4,552.5v4.3h0.1c0.8-1.6,1.9-2.8,3.3-3.8c1.3-0.9,3.1-1.3,5.2-1.3c1.7,0,3.2,0.4,4.6,1.2
		c1.4,0.8,2.3,2.1,2.8,3.8c0.8-1.7,1.9-3,3.4-3.8s3.1-1.2,4.8-1.2c5.7,0,8.5,3,8.5,9v17.5H353V561c0-2.1-0.5-3.8-1.4-4.9
		s-2.5-1.7-4.8-1.7c-1.4,0-2.5,0.3-3.4,0.8c-0.9,0.5-1.6,1.2-2.1,2.1c-0.5,0.9-0.9,1.9-1.1,3c-0.2,1.1-0.3,2.3-0.3,3.5v14.6h-3.1
		v-17.5c0-0.9-0.1-1.7-0.3-2.5c-0.2-0.8-0.5-1.5-0.9-2.1c-0.4-0.6-1-1-1.7-1.4c-0.7-0.3-1.5-0.5-2.5-0.5c-1.3,0-2.5,0.2-3.5,0.7
		c-1,0.5-1.8,1.1-2.4,2c-0.6,0.8-1.1,1.8-1.4,3c-0.3,1.1-0.5,2.4-0.5,3.8v14.4h-3.1v-25.8H323.4z"/>
	<path class="st1" d="M362.8,556.5c0.5-1.1,1.3-2,2.2-2.7c0.9-0.7,2-1.2,3.2-1.5c1.2-0.3,2.6-0.5,4.1-0.5c1.1,0,2.3,0.1,3.4,0.3
		c1.1,0.2,2.2,0.6,3.1,1.2s1.6,1.4,2.2,2.5c0.6,1.1,0.9,2.5,0.9,4.2v13.7c0,1.3,0.6,1.9,1.9,1.9c0.4,0,0.7-0.1,1-0.2v2.6
		c-0.4,0.1-0.7,0.1-1,0.2c-0.3,0-0.6,0-1.1,0c-0.8,0-1.4-0.1-1.9-0.3c-0.5-0.2-0.9-0.5-1.1-0.9c-0.3-0.4-0.4-0.9-0.5-1.4
		c-0.1-0.5-0.1-1.2-0.1-1.8h-0.1c-0.6,0.8-1.1,1.6-1.7,2.2c-0.6,0.7-1.2,1.2-1.9,1.6c-0.7,0.4-1.5,0.8-2.5,1c-0.9,0.2-2,0.4-3.3,0.4
		c-1.2,0-2.3-0.1-3.4-0.4c-1-0.3-2-0.7-2.8-1.4c-0.8-0.6-1.4-1.4-1.9-2.3c-0.4-1-0.7-2.1-0.7-3.4c0-1.8,0.4-3.2,1.2-4.2
		c0.8-1,1.9-1.8,3.2-2.3c1.3-0.5,2.8-0.9,4.4-1.1c1.7-0.2,3.3-0.4,5-0.6c0.7-0.1,1.2-0.2,1.8-0.2c0.5-0.1,0.9-0.3,1.2-0.5
		c0.3-0.2,0.6-0.6,0.8-1c0.2-0.4,0.3-1,0.3-1.7c0-1.1-0.2-1.9-0.5-2.6s-0.8-1.2-1.5-1.6c-0.6-0.4-1.3-0.7-2.1-0.8
		c-0.8-0.2-1.7-0.2-2.6-0.2c-2,0-3.6,0.5-4.9,1.4c-1.3,0.9-1.9,2.5-2,4.6h-3.1C361.9,558.9,362.2,557.6,362.8,556.5z M378.5,564.2
		c-0.2,0.4-0.6,0.6-1.1,0.8c-0.6,0.2-1.1,0.3-1.5,0.3c-1.3,0.2-2.7,0.4-4.1,0.6c-1.4,0.2-2.7,0.5-3.9,0.8c-1.2,0.4-2.1,0.9-2.9,1.6
		c-0.8,0.7-1.1,1.7-1.1,2.9c0,0.8,0.2,1.5,0.5,2.1c0.3,0.6,0.7,1.2,1.3,1.6c0.5,0.5,1.1,0.8,1.9,1c0.7,0.2,1.4,0.3,2.1,0.3
		c1.2,0,2.4-0.2,3.5-0.5c1.1-0.4,2.1-0.9,2.9-1.6c0.8-0.7,1.5-1.5,1.9-2.5c0.5-1,0.7-2.1,0.7-3.4v-4.1H378.5z"/>
	<path class="st1" d="M391,552.5v6h0.1c0.8-2.1,2-3.7,3.7-4.8c1.7-1.1,3.7-1.7,6-1.6v3.2c-1.4-0.1-2.7,0.1-3.9,0.6
		c-1.2,0.5-2.2,1.1-3,1.9c-0.9,0.8-1.5,1.8-2,3c-0.5,1.2-0.7,2.4-0.7,3.8v13.8h-3.1v-25.8H391z"/>
	<path class="st1" d="M407,542.6V565l14.3-12.5h4.2l-11,9.5l11.8,16.2h-3.9l-10.2-14l-5.1,4.2v9.8h-3.1v-35.7H407z"/>
	<path class="st1" d="M431.2,569.8c0.3,1.2,0.8,2.3,1.5,3.3c0.7,1,1.6,1.8,2.6,2.4c1.1,0.6,2.4,0.9,3.9,0.9c2.3,0,4.1-0.6,5.4-1.8
		s2.2-2.8,2.7-4.8h3.1c-0.7,2.9-1.9,5.2-3.7,6.8c-1.8,1.6-4.3,2.4-7.6,2.4c-2,0-3.8-0.4-5.3-1.1c-1.5-0.7-2.7-1.7-3.6-3
		c-0.9-1.2-1.6-2.7-2.1-4.3c-0.5-1.7-0.7-3.4-0.7-5.2c0-1.7,0.2-3.4,0.7-5c0.5-1.6,1.1-3.1,2.1-4.4c0.9-1.3,2.1-2.3,3.6-3.1
		c1.5-0.8,3.2-1.2,5.3-1.2c2.1,0,3.8,0.4,5.3,1.2c1.5,0.8,2.7,1.9,3.6,3.3c0.9,1.4,1.6,2.9,2,4.7c0.4,1.8,0.6,3.5,0.5,5.3h-19.9
		C430.7,567.4,430.8,568.6,431.2,569.8z M446.8,560.2c-0.4-1.1-0.9-2.1-1.6-2.9c-0.7-0.8-1.5-1.5-2.5-2c-1-0.5-2.1-0.8-3.4-0.8
		c-1.3,0-2.5,0.3-3.5,0.8c-1,0.5-1.9,1.2-2.5,2c-0.7,0.9-1.3,1.8-1.7,3c-0.4,1.1-0.7,2.3-0.8,3.4h16.7
		C447.3,562.4,447.1,561.3,446.8,560.2z"/>
	<path class="st1" d="M465,552.5v2.6h-5.2v17.4c0,1,0.1,1.8,0.4,2.4c0.3,0.6,1,0.9,2.1,1c0.9,0,1.8-0.1,2.7-0.2v2.7
		c-0.5,0-0.9,0-1.4,0c-0.5,0-0.9,0-1.4,0c-2.1,0-3.6-0.4-4.4-1.2c-0.8-0.8-1.2-2.3-1.2-4.5v-17.7h-4.5v-2.6h4.5v-7.8h3.1v7.8H465z"
		/>
	<path class="st1" d="M471.4,573h4.2v5.3h-4.2V573z"/>
</g>
<g>
	<g>
		<path class="st2" d="M692.7,160.8c0,0.4,0,0.7,0.1,1c-1.7,1.2-1.2,4.6,1.4,4.6c2.1,0,2.8-2.1,2.2-3.6c0.7-0.4,1.2-1.1,1.3-2
			c0-0.2,0-0.5,0-0.7c1-0.2,1.9-0.8,2.3-2c2.5-1.9,4.7-4.6,7.1-6.7c3.7-3.2,8.1-5.5,12.7-7c4.6-1.5,9.5-2.2,14.3-2.2
			c0.7,0,1.4,0,2.1,0c4.3,1.8,9.1,2.5,13.7,3.4c5.5,1,11.2,3,16.9,3.4c0.1,0,0.1,0.1,0.2,0.1c5.2,6.3,10.5,12.6,14.2,20
			c2,4.1,3.9,8.4,5.7,12.5c0,0,0,0,0,0c-0.6,1-1.1,1.9-1.5,2.7c-1.9,3.1-4.8,5.8-7,8.7c-2.5,3.3-4.5,7.2-4.9,11.4
			c-0.5,4.9,1,9.9,1.6,14.7c0,0.3,0.5,0.5,0.7,0.2c0.9-1.3,1.5-2.8,2.1-4.2c0.3,0,0.5-0.2,0.6-0.5c3.5-8.1,10.4-9.9,18.3-7.2
			c5.1,1.8,7.5,5.5,9.1,9.8c-0.3,4.2-0.8,8.1-2.6,12.1c-1.9,4.3-4.5,8.2-6.7,12.4c-0.3,0.1-0.6,0.3-0.8,0.5c-1.8,1.9-2.2,4.6-1.5,7
			c-0.3-0.1-0.6-0.2-0.8-0.1c-0.7,0.1-1.2,0.5-1.3,1.3c-0.1,1.2,1.1,2,2,2.6c1,0.7,2.2,1.1,3.4,1.2c1.1,0.1,2-1,2-2
			c0-0.9-0.5-1.5-1.2-1.8c-0.3-0.8-0.5-1.6-0.3-2.4c0.2-1.3,1.2-2.4,1.6-3.6c0.3-0.7,0.1-1.3-0.2-1.8c1-1.4,2-2.8,3-4.2
			c0.3,0.1,0.6,0.1,0.9,0c2.2-1.3,3.7-3.9,5.2-6.3c2.8-2,4.5-5.3,6.3-8.2c2.4-3.7,4.2-8.2,5.5-12.4c1.2-4.1,1.8-8.5,1.5-12.8
			c-0.1-2.1-0.6-4.1-1.4-6.1c-0.2-0.6-0.5-1-0.7-1.4c-0.8-2.3-1.9-4.6-3.2-6.6c-0.2-0.3-0.8-1.3-1.6-2.2c-0.3-0.6-0.7-1.2-1.1-1.9
			c-2.2-3.2-5.5-6.4-8.8-8.6c-1.9-1.2-3.4-2.8-5.7-2.1c-0.1,0-0.2,0.1-0.3,0.2c-0.1-0.1-0.3-0.2-0.4-0.4c-1-0.9-2.2-2.3-3.6-2.5
			c0,0,0,0-0.1,0c-1.6-1.2-3.3-2.4-4.8-3.8c-2.8-2.5-5.2-4.3-8.7-5.5c-0.2-0.1-0.4-0.1-0.5-0.1c-0.2-0.1-0.3-0.1-0.5-0.2
			c0,0-0.1,0-0.1,0c-0.2-0.2-0.4-0.4-0.6-0.6c-0.4-0.4-0.7-0.8-1.1-1.1c0,0,0-0.1,0-0.1c-0.9-3.1-3.7-5.5-6.9-7.2
			c-0.7-0.7-1.4-1.4-2-2c-0.6-0.7-1.2-1.3-1.9-1.8c0,0-0.1-0.1-0.1-0.1c-5.2-5.1-11-10.1-17.3-13.8c0-0.1-0.1-0.2-0.1-0.3
			c-1.4-2.9-5.1-5.1-7.6-7c-3.5-2.7-7.2-5-11.1-7c-3.6-1.8-7.7-3.6-11.8-3.7c-2-0.1-3.8,0.3-5.6,1c-7.8-0.4-15.7,2.2-20.9,8.4
			c-4,4.8-6.1,10.5-6.2,16.7c0,5.4,2.3,10.1,4.9,14.6C692.6,155.8,692.9,158.2,692.7,160.8z"/>
		<path class="st2" d="M961.2,301.2c0,0-0.1,0-0.1,0c-0.2-0.1-0.4-0.2-0.7-0.3c-1.6-0.4-3.3-0.8-4.9-1.1c-0.8-0.1-1.7-0.4-2.5-0.6
			c-0.7-1-2.3-1.3-3.3-0.3c-2.7,2.8-4.3,6.8-5.9,10.3c-2.1,4.7-4.3,9.3-6.5,14c-4.6,9.9-9.6,19.6-15.4,28.8c-5,8-11,16.1-18.7,21.7
			c-3.2,2.4-6.7,3.9-10.5,4.8c-1.7,0.1-3.4,0.2-5.2,0.2c-8.9,0.3-18-0.5-26.8-2.2c-8.3-1.7-16.5-4.5-24-8.5c-3.8-2-7.3-4.6-11.1-6.6
			c-1.9-1-3.6-2-5.1-3.5c-1.5-1.4-3.1-2.6-4.5-3.9c-0.1-0.1-0.3-0.1-0.4-0.1c-1.7-1.7-3.5-3.3-5.4-4.8c-0.7-0.5-1.9-0.1-1.6,0.9
			c0.2,0.6,0.4,1.3,0.7,1.9c-0.2-0.1-0.5,0.1-0.5,0.3c0.1,1.1,0.2,2.2,0.4,3.2c-0.3,0.2-0.6,0.5-0.5,1c0.8,4.5,0.5,9.9-0.1,14.4
			c-0.7,5-2.2,9.9-3.9,14.6c-3.8,10.6-9,20.9-14,31c-4.6,9.2-9.3,18.4-12.7,28.1c-2.2,6.2-3.6,12.7-4.7,19.2
			c-0.6,3.5-0.8,7.1-0.9,10.7c-0.2,4,0.6,8.1,0.3,12c-0.1,1,0.3,1.9,0.8,2.7c0,0.4,0,0.9-0.1,1.3c0,0,0,0.1,0,0.1
			c-2.2,0.2-4.5,0.2-6.7,0.2c-5.1,0-10.2-0.5-15.3-1c-4.6-0.5-9.2-1-13.8-1.1c-2.3,0-4.7-0.2-7.1,0.1c-2.3-0.7-4-1.1-6.1-2.6
			c-2.1-1.5-3.1-4.6-5.4-5.7c-0.8-0.4-2.1-0.3-2.5,0.7c-0.5,1-0.5,2-0.3,3.1c-1.1,0.7-2.1,1.6-3,2.3c-1.8,1.5-3.7,2.7-5.7,3.8
			c-1.5,0.8-3,1.5-4.6,2.1c-0.6,0-1.2,0.1-1.8,0.1c-3.7,0.3-7.4,0.3-11,0.4c-3.9,0.1-10-0.7-13.9,1.2c-2.5-0.8-4.9-1.8-7.5-2.1
			c-0.9-1.1-2-2.1-3.5-2.6c-0.8-0.3-2,0.3-2.1,1.2c-0.5,3,0.9,5.3,2,8c1.2,3,2.6,5.9,4,8.8c0.3,0.8,0.6,1.5,0.8,2.2
			c1.5,4.7,3.1,9.4,4.8,14.1c2.1,5.9,4.4,11.7,6.8,17.5c-0.4,2.7,0,5.5,0.9,8.3c1.9,6,4.4,11.8,7.3,17.4c3.1,6.1,6.6,12.1,10.3,17.9
			c1,1.5,2.1,3.4,3.4,5.3c0.7,1.5,1.6,3.3,2.6,4.9c1.4,3.7,2.8,7.4,4.2,11.1c4.7,12.5,7.3,26,14.4,37.5c1.6,2.7,5.4,3.9,8.2,2.1
			c1.2-0.7,2.3-1.6,3.3-2.5c0,0.1,0.1,0.1,0.1,0.2c0.2,0.4,0.8,0.5,1.2,0.3c3.2-1.6,3.5-5.3,4-8.6c0.6-4.2,0.1-8.6-0.3-12.8
			c-1-8.6-2.6-17.2-2.9-25.9c-0.4-10.9-0.1-21.8,1.2-32.6c0.6-4.9,1.4-9.6,2.3-14.4c0.6,0.6,1.3,1,2.1,1.3c0.7,4.7,1.9,9.3,2.5,13.7
			c1.2,8,2.5,16.1,3.7,24.1c0.8,5.8,1.7,11.7,2.6,17.5c0.1,5.2,0.1,10.4,0.2,15.5c0.1,4.3,0.3,8.7,0.7,13c0.2,2.1,0,5.4,1.2,7.3
			c0.8,1.3,1.7,2.3,3.2,2.8c0.3,0,0.5,0.1,0.6,0.1c0.1,0,0.1,0,0.1,0c0.8,1,2.1,0.8,2.6-0.4c0,0,0,0,0,0c0.1-0.1,0.2-0.1,0.3-0.2
			c0.2-0.1,0.4-0.3,0.6-0.4c1.2,0.2,2.3,0.2,3.5-0.3c0.3,1.1,1,2,2.3,2.7c3.9,1.9,6.1-2.4,6.6-5.6c3-17.6,3.9-35.4,6.5-53.1
			c2.5-16.3,6.6-32.3,10.8-48.2c2-7.7,4-15.4,5.7-23.3c0.8-3.5,1.2-7.2,1.7-10.7c0.2-1.7,0.4-3.3,0.5-5c0.5-1.1,0.5-2.5,0.1-3.7
			c0.6-2.1,1.1-4.2,1.8-6.3c0.5-0.1,1-0.1,1.6-0.2c3.6-0.6,4.1-4.9,2.3-7.4c1.8-3.5,2-8.6,2.4-11.8c1.1-9.2,1.5-18.4,2.2-27.6
			c0.7-8.6,1.3-17.1,2.2-25.7c0.4-3.6,0.6-5.5,1.1-8.3c1.3-6.8,4.4-15,3.1-22c0.2-0.6,0.4-1.2,0.6-1.8c0.1-0.1,0.2-0.1,0.3-0.2
			c1.7-1.8,2.9-4.4,3.2-6.9c1.7,0.7,3.8-0.4,3.9-2.3c0.7,0.4,1.5,0.7,2.4,0.7c0,0,0,0,0.1,0c0.6,0.3,1.2,0.5,1.9,0.8
			c2,0.8,5,1.6,7.7,1.7c7.3,4.2,15.5,6.9,23.7,8.8c10.1,2.3,20.6,2.8,30.9,2c4.9-0.4,9.8-1.1,14.3-3.2c1.4-0.6,2.9-1.5,4.3-2.5
			c2.9-0.9,5.6-3.2,7.9-5c3-2.4,5.8-5.1,8.4-8c5.9-6.5,10.7-14,14.8-21.7c4.2-8,7.9-16.2,11.6-24.5c1.7-3.7,3.1-7.5,4.6-11.3
			c1-2.6,2.6-5.9,2.9-8.9c1.7,0.3,2.7-1.2,2.6-2.6C962.2,302.1,962,301.4,961.2,301.2z M817.1,375.4
			C817.1,375.4,817.1,375.4,817.1,375.4C817.1,375.4,817.1,375.4,817.1,375.4L817.1,375.4z M794.5,492.2c-1.7-0.4-3.6-0.6-5.5-0.6
			c1.9-0.1,3.8-0.2,5.8-0.4C794.7,491.5,794.6,491.8,794.5,492.2z M782.4,491.7c1.1,0,2.1,0,3.2-0.1c-1,0.1-2,0.1-2.9,0.2
			C782.6,491.9,782.5,491.8,782.4,491.7z M953.2,303.2c0.1,0,0.2,0.1,0.3,0.1c-0.1,0.1-0.2,0.2-0.4,0.2
			C953.1,303.4,953.2,303.3,953.2,303.2z"/>
		<path class="st2" d="M663.3,343.5c-2.1,1.4-3.1,4.3-4.2,6.4c-1.6,3.4-3,6.9-4.4,10.4c-3.5,9-6.9,18-10.4,26.9
			c-3.2,8.3-6.6,16.8-11.4,24.4c-0.9,1.4-1.8,2.7-2.9,4c-3.8-2.9-8.2-5.3-11.6-8.3c-3.6-3-6.7-6.5-9.4-10.3
			c-0.2-0.4-0.4-0.8-0.5-1.2c-6.4-14.4-13.8-29.8-15.3-45.7c0-0.5-0.4-0.7-0.8-0.7c0-1-0.1-1.9-0.2-2.9c-0.1-0.6-0.9-0.6-1.2-0.2
			c-1,1.6-1,3.4-1.1,5.3c-0.1,1.5-0.3,3.6,0.7,4.9c0.2,13.9,4.7,28,10.1,40.5c2.3,5.3,5.1,10.5,8.4,15.3c2.7,4.5,5.8,8.8,9.5,12.2
			c3.2,3,8.8,7.1,14,7.6c0.2,0.1,0.5,0.3,0.7,0.4c1.2,0.5,2.4,0.3,3.6,0.1c0.9-0.1,2-0.5,2.9-1.1c0.8,0.4,2.1,0,2.2-1.2c0,0,0,0,0,0
			c0.9-0.9,1-2.8,1.3-4c0.5-1.9,1.5-4.3,0.1-6c-0.1-0.1-0.3-0.3-0.4-0.3c0.1-0.8,0.1-1.6,0.2-2.4c0.8-1.9,1.1-4,1.4-5.8
			c0.7-4.3,1.3-8.4,1.7-12.8c0-0.3-0.1-0.5-0.2-0.7c0.5-1.3,0.9-2.6,1.4-3.9c3.3-9.7,5.7-19.7,8.6-29.5c1.2-4.1,2.5-8.2,4-12.3
			c1.1-3,2.9-5.7,3.9-8.6C664.3,343.6,663.7,343.2,663.3,343.5z"/>
	</g>
	<g>
		<path class="st3" d="M751.7,217.3c0-0.1,0-0.2-0.1-0.2c1.6-1.4,2.7-3,3.6-4.9c0-0.1,0.1-0.2,0.1-0.3c0.7-1.2,1.3-2.6,1.7-4
			c0.3,0.1,0.6,0.2,0.9,0.1c0.1,0,0.2-0.1,0.3-0.1c0.3,0.1,0.7-0.1,0.9-0.4c0-0.1,0.1-0.2,0.1-0.2c0,0,0,0,0-0.1
			c0.3,0.2,0.7,0.3,1,0.1c0.3,0.2,0.6,0.2,1,0c0.3,0.4,0.8,0.6,1.3,0.2c0.2-0.2,0.4-0.3,0.7-0.5c0.2,0.1,0.5,0.2,0.8,0.1
			c0.1,0,0.2-0.1,0.4-0.1c0.2,0.3,0.6,0.5,1.1,0.4c0.4-0.1,0.9-0.3,1.3-0.4c0.2,0.2,0.5,0.3,0.9,0.2c1.5-0.3,2.6-0.2,4,0.4
			c1,0.4,1.6-1.2,0.7-1.7c-1.4-0.9-2.8-1-4.4-0.8c-0.3-0.3-0.7-0.5-1-0.3c-0.2,0.1-0.4,0.1-0.5,0.2c-0.2-0.4-0.7-0.6-1.1-0.5
			c-0.3-0.5-0.8-0.7-1.4-0.4c-0.1,0-0.1,0.1-0.2,0.1c-0.2-0.2-0.6-0.3-0.9-0.2c-0.3-0.2-0.6-0.3-1-0.1c-0.2-0.2-0.6-0.3-0.9-0.3
			c-0.2-0.5-0.7-0.7-1.2-0.5c-0.1-0.2-0.3-0.3-0.5-0.4c0-0.1,0-0.1-0.1-0.2c-0.3-0.7-1.1-0.8-1.5-0.1c-0.5-1.7-1.6-3.4-2.7-4.6
			c-3-3.4-7.9-5.3-12.2-6c-8-1.3-23.3,1.6-26.2,10.4c-0.1,0.2,0.1,0.4,0.2,0.5c0,0.1,0,0.1-0.1,0.2c-0.2-0.4-0.5-0.5-0.9-0.5
			c-0.2-0.9-1.4-0.9-1.9-0.2c-0.1,0-0.2,0-0.4,0c-0.4-0.6-1.1-0.6-1.6-0.3c-0.2-0.1-0.4-0.2-0.5-0.2c-0.4-0.6-1.5-0.7-1.9,0
			c-0.1,0-0.2,0-0.2,0c-0.5-0.2-1.2,0.1-1.4,0.7c0,0,0,0,0,0c0,0,0,0.1,0,0.1c-1.3-3.9-6.4-6.8-9.8-8.1c-7.1-2.7-17.4-1.1-23.6,3.4
			c0,0,0,0-0.1,0c-0.3-0.4-0.9-0.6-1.5,0c-0.2,0.2-0.4,0.3-0.5,0.5c-0.1,0-0.2-0.1-0.3-0.1c-0.1,0-0.2,0-0.3,0
			c-0.1-0.1-0.3-0.1-0.5,0c-1,1.1-0.9,3.4,0.1,4.5c0.1,0.1,0.1,0.1,0.2,0.2c0.1,0.4,0.2,0.8,0.4,1.2c0,0,0,0,0,0c0,0,0,0,0,0
			c0,0.1,0.1,0.2,0.1,0.2c0,0.1,0.1,0.2,0.2,0.2c0.6,7.6,5.5,17.2,13.7,17.1c0.8,0,1-1,0.4-1.4c-3.5-2.4-6.7-3.4-9.2-7.2
			c-1.7-2.6-2.4-5.6-3.3-8.5c0.2-0.5,0.1-1.2,0-1.8c0.9-0.7,1.1-2.8,1.2-3.8c2.1-0.4,4.1-1.2,6.2-1.8c3.6-1.1,7.3-1.5,11.1-1.3
			c5.9,0.4,12.6,3.9,13.5,10.1c0.2,1.1,1.8,1,2.1,0c0-0.1,0-0.2,0-0.2c0.1-0.1,0.1-0.1,0.2-0.2c0.2,0.2,0.4,0.3,0.7,0.3
			c0.4,0.5,1.3,0.5,1.7,0c0.3,0.2,0.7,0.2,1,0c0.4,0.4,1,0.4,1.4,0.1c0.2,0.1,0.4,0.1,0.6,0.1c0.2,0.4,0.7,0.6,1.1,0.6
			c0,0.1,0.1,0.2,0.1,0.3c0.2,0.5,0.6,0.8,1.1,0.8c0.2,0.5,0.5,0.9,0.8,1.3c0,0,0.1,0.1,0.1,0.1c0.6,2.4,1.8,4.7,2.9,6.5
			c3,4.7,7.9,7.3,13.4,7.7c6.4,0.5,13.1-1.8,17.9-6.1c0.1,0,0.1,0,0.2,0c0,0,0,0,0,0c0,0-0.2,0.2-0.2,0.1c-0.1,0-0.1,0.2,0,0.2
			C751.3,217.7,751.6,217.6,751.7,217.3z M748.6,215.8c-3.7,3.4-8.6,4.9-13.5,5.1c-5.4,0.2-10.1-2.1-13.3-6.5
			c-2.8-3.9-2.5-8.2-3.9-12.5c3.1-2.4,5.8-4.6,9.8-5.9c4-1.3,8.4-1.7,12.5-1.8c3.5,0,7,1.5,9.8,3.3c1.6,1,2.9,2.4,3.9,4
			c1,1.6,0.9,3.2,0.9,4.9c-0.6,1.3-1.1,2.7-1.8,4C751.9,212.5,750.3,214.2,748.6,215.8z"/>
		<path class="st3" d="M742.9,648.9c-0.6-2.3-2.3-4.1-4.4-5.3c-0.9-0.5-1.9,0.4-1.6,1.3c-6.5-1.9-13.7-1-20.4-1.3
			c-7.6-0.3-15.1-1.7-22.6,0.3c-2.4,0.7-4.6,1.8-6.4,3.5c0,0,0,0,0,0c-3.8,1.4-6.8,9.2-4.9,12.8c0,0,0,0,0.1,0c0,0,0,0.1,0,0.1
			c0,0.1,0.1,0.1,0.2,0.1c0,0,0,0,0,0c0,0,0,0,0,0c0.1,0,0.1-0.1,0.1-0.1c0,0,0-0.1,0-0.1c0.5-1.2,0.7-2.5,1.1-3.7
			c0,0.5,0.1,0.9,0.3,1.3c0,0-0.1,0.1,0,0.2c0,0.3,0.1,0.5,0.2,0.7c0,0,0,0.1,0,0.1c-0.1,0.4-0.1,0.8-0.2,1.2
			c-0.1,0.7,0.9,0.9,1.3,0.4c0.6,0.5,1.3,0.8,2.2,0.9c1,0.1,2-0.1,2.9-0.4c4.8,0.3,9.8-0.2,14.6-0.8c2.3-0.3,4.6-0.6,6.9-0.9
			c1.5,0.5,3.6,0,5.1-0.2c1-0.1,2.3-0.2,3.2-0.7c0.7,0,1.5-0.1,2.2-0.1c0.1,0,0.2,0.1,0.3,0.1c0.2,0,0.4,0,0.5,0.1
			c-1.3,0.1-2.6,0.3-3.8,0.6c-0.2,0.1-0.2,0.4,0.1,0.4c7.2,0.8,14.7,2.3,21.9,1.9c1.3-0.1,1.5-1.9,0.5-2.3
			C744.4,655.2,744.7,651.6,742.9,648.9z"/>
		<path class="st3" d="M787.5,649.9c-3-2.4-6.1-4.9-10-5.6c-1.3-0.2-2.5-0.2-3.7,0c-0.6-1-2-1.6-3-1.5c-4.4,0.2-8.8,1.6-13.2,1
			c-0.8-0.1-1.5-0.1-2.3,0.2c-0.2,0-0.4,0-0.6,0.1c-4,2.2-3.8,9.3-3.4,13.1c0.2,2.3,2.7,3.5,4.5,1.9c0.1-0.1,0.2-0.2,0.2-0.2
			c0.5,0.5,1.2,0.8,2,0.7c1.2-0.2,2.3-0.7,3.4-1.2c0.5,0.7,1.4,1.3,2.2,1.5c8.2,2.6,18.9,3,24.5-4.6
			C789.2,653.7,788.9,651,787.5,649.9z"/>
	</g>
	<g>
		<path class="st3" d="M962.1,280.7c1.3,0.4,1.9-1.7,0.6-2.1c-3.2-0.9-6.2,1.3-7.1,4.4c-0.4,1.3,1.7,1.9,2.1,0.6
			C958.2,281.7,960,280.1,962.1,280.7z"/>
		<path class="st3" d="M1009.1,269.8c-0.3-0.1-0.6-0.1-1,0c0-0.1,0-0.3-0.1-0.4c-0.5-1.2-1.3-2.1-2.7-2.1c-0.6,0-1.1,0.2-1.6,0.4
			c-0.1-0.8-0.3-1.5-0.7-2.1c0.2-1-1-2-1.8-1.1c-0.2,0.2-0.3,0.4-0.5,0.6c-0.2,0.1-0.4,0.1-0.6,0.2c-0.5-0.4-1.1-0.8-1.8-0.8
			c0,0,0,0-0.1,0c-0.4-0.3-1-0.4-1.4,0c-3.7,3.6-8.3,6.7-13.2,8.4c-0.3,0.1-0.5,0.3-0.7,0.6c-2.9,0.4-5.8,0.7-8.7,0.7
			c1.6-1.6,3.5-2.8,4.9-4.5c1.7-2,1.4-4.5,0.7-6.9c-0.3-0.8-1.2-1-1.8-0.5c-7.8,6.4-17.6,9.3-26.3,14.2c-0.2-0.7-1.1-1.2-1.7-0.5
			c-4.4,5.2-7.4,11.2-9.6,17.6c-0.5-0.2-1.1-0.4-1.6-0.7c-0.3-0.1-0.6-0.1-0.8,0c-0.4-0.1-0.8,0-1.1,0.5
			c-6.7,9.7-14.8,18.5-22.7,27.2c-8.4,9.3-16.9,18.7-26.1,27.2c-0.2,0.2-0.3,0.3-0.5,0.5c-0.1,0-0.1,0.1-0.2,0.2
			c-12.4-10.8-23.1-23.4-35.9-33.7c-0.2-0.1-0.4-0.2-0.6-0.2c-0.3-1.6-0.8-3.5-2.1-4.4c-0.3-0.2-0.5-0.3-0.8-0.3
			c-10.6-16.9-32.8-20.9-50.9-24.1c-0.1,0-0.3,0-0.4,0c0.1-0.2,0.2-0.4,0.3-0.6c0.3-0.6,0-1.1-0.4-1.4c0.1-0.9,0.2-1.7,0.1-2.6
			c-0.2-5-3.2-9.2-6.8-12.4c0.2-3.4,0.3-6.9,0.5-10.3c0-0.2,0-0.4-0.1-0.6c0.3-0.7,0.5-1.5,0.8-2.2c0.4-1,0.7-2,1-3
			c2.8,1.6,5.8,2.5,9.1,2.6c0.8,0,1.4-1,0.9-1.6c-4.4-5.8-0.6-11.7,3.9-16c0.3,0,0.6-0.1,0.8-0.4c0.3-0.4,0.7-0.8,1-1.2
			c0,0,0,0,0.1-0.1c11.3-14.2,21.5-33.5,11.1-51c-4.7-8-12.7-13.3-20.3-18.1c-4.1-2.6-8.2-5.1-12.2-8c-4.5-3.3-8.8-6.8-13-10.5
			c-7.3-6.2-14.3-12.7-21.4-19.1c-6.1-5.5-12.5-10.9-20-14.3c-14.8-6.7-34.3-2.9-43.8,11c-3.9,5.8-5,13.2-2.7,19.8
			c2.4,6.7,8.2,12.8,6.2,20.3c-0.2,0.6,0.1,1,0.5,1.2c-2.4,4.6-4.2,9.5-5.2,14.5c-0.8-0.5-1.5-1.1-2.1-1.8c-0.6-0.6-1.3-0.3-1.7,0.2
			c-0.7,0.1-1.3,0.8-0.8,1.5c0.1,0.2,0.2,0.3,0.3,0.5c-1-0.6-2-1.3-2.9-2c-0.7-0.6-2.3,0-1.8,1c1.7,4.1,3.2,8.3,6.5,11.3
			c-5.1,0.8-10.2,2.3-14.8,4.5c-0.5,0.2-0.6,0.6-0.5,1c-0.6,2.3-0.2,4.6,1.4,6.3c0.9,3.9,1.7,7.9,3.6,11.4c-0.2,0-0.4,0.1-0.6,0.3
			c-5.5,5.1-8.4,11.5-6.2,19c2.1,7.1,7.4,12.9,11.3,19c0,0.1,0.1,0.1,0.2,0.2c1.6,7,1.5,14.4,5.1,20.8c0.1,0.1,0.1,0.2,0.2,0.3
			c1.7,4.5,7.8,6.3,11.8,7.9c3.5,1.4,6.4,3.6,9.3,5.9c1.4,1.1,2.7,2.3,4,3.5c-1,1.1-1.9,2.2-2.8,3.4c0,0-0.1,0-0.1,0
			c-9.1,4.5-19.4,5.9-29,8.9c-8.2,2.5-16.8,6.3-21.7,13.6c-0.1,0.1-0.3,0.2-0.4,0.4c-8.7,13.9-15.1,29-23.5,43.1
			c0,0.1-0.1,0.1-0.1,0.2c0,0.1-0.1,0.2-0.1,0.2c-2.1,4.6-5,9.2-6.5,14.1c-1.8-6.7-4.1-13.4-6.7-19.8c-3.5-8.7-7.7-18-14.4-24.8
			c0,0,0,0,0-0.1c-0.8-4.9-1.3-10.1-2.8-14.9c-2.3-7-7.7-11.3-15-12.2c-1.1-0.8-1.9-1.9-3.1-2.7c-0.6-0.4-1.4-0.6-2.1-0.8
			c-1.3-0.3-1.7,0-2.6,1c-0.9,1.1-1.7,2.5-1,3.9c0.4,0.8,1.4,1.4,1.8,1.8c0.1,0,0.1,0.1,0.2,0.1c0,0,0,0,0.1,0
			c1.1,0.7,2.3,1.6,2.1,2.8c-5.5-1.8-10.7-4.9-15.4-8.2c-0.3-0.2-0.5-0.2-0.8-0.2c-1.2-0.1-2.3-0.4-3.4-0.6c-1.6-0.3-3.1-0.2-4.6,0
			c-0.4,0.1-0.6,0.4-0.8,0.8c-1,2.6,0.7,3.3,2.6,3.8c-0.6-0.1-1.2-0.1-1.8-0.2c-1.8-0.1-7.4-0.1-7.1,3c0.1,1.2,1.1,1.9,2.3,2.5
			c-1,0.9-2,2.8-1.4,3.8c0.9,1.7,2.8,2.3,4.8,2.6c-1.4,0.6-2,1.8-2.1,3.3c0,0.5,0.4,0.9,0.8,1c5.3,2.1,10.9,4,16.5,4.9
			c0.1,0.4,0.3,0.7,0.7,0.8c2.2,0.7,4.3,1,6.6,1.2c2.8,0.3,5,1.7,7.2,3.4c0.9,2.6,2.1,5.2,3.2,7.7c-0.2,0.1-0.4,0.3-0.4,0.7
			c-1.4,9.5,0.7,19.6,2.8,28.8c2.9,12.4,7.2,24.6,13,36c7,13.6,20.6,33.1,38.4,25.9c0,3.9,0.2,7.7,0.6,11.6
			c1.6,15.7,6.8,30.7,15.6,43.8c0,0.2,0,0.4,0.1,0.6c13.2,32.3,21.8,67,39.5,97.3c0,0.2,0,0.3,0,0.5c0.4,1.2,0.8,2.5,1.2,3.7
			c0.3,0.8,0.7,1.9,1.7,2.1c4.3,9.9,8.2,20.1,12.2,30.2c0,0.1,0.1,0.2,0.2,0.3c0.2,0.6,0.4,1.2,0.7,1.9c-0.2,0.3-0.2,0.6,0,1
			c0.5,1.1,1.1,2.2,1.6,3.3c0.6,1.5,1.1,3,1.7,4.5c1,2.6,2,5.3,2.9,8c0.3,0.7,0.4,1.4,0.6,2c0,0-0.1,0-0.1,0c-8.6-0.9-17.4-2.4-26-1
			c-3.7,0.6-7.4,2.1-9.8,5c-2.8,3.3-3.2,7.7-2.7,11.8c-1,0.3-0.8,2,0.4,2.1c6.4,0.5,12.9,0.3,19.3,0.1c6.6-0.2,13.3-0.6,19.9-1.4
			c6.2,0.6,12.5,0.5,18.7,0c-0.3,1.1,1.3,1.9,2,0.8c3.4-5.6,3.7-12.3-1.5-16.5c0.1-0.2,0.2-0.4,0.2-0.6c2.6-30.2-5.5-60.8,0.4-90.7
			c3.5,13.9,5.3,28.3,6.6,42.5c1.5,16.1,2.1,32.2,3.8,48.2c0,0.1,0,0.2,0.1,0.3c-3,4.7-3.6,10.6-1.5,15.8l0,0
			c-0.3,0.8,0.6,1.8,1.6,1.4c1.2-0.6,2.5-0.6,3.8-0.6c0.4,0,0.7-0.2,0.8-0.4c1.8-0.2,3.5-0.3,5.3-0.3c8.4,2.8,21.1,4,25.7-4.5
			c0.8,0.4,2-0.1,1.6-1.2c-1.6-4.2-4.1-9-8.6-10.7c-2.2-0.8-4.4-0.7-6.5,0c0-0.1,0-0.3,0-0.4c0,0,0,0,0,0
			c1.5-20.9,4.9-41.7,8.6-62.3c0.1-0.4,0-0.7-0.2-0.9c6.9-29.1,13.3-58.2,18.8-87.6c0.7,0,1.3,0,2,0c0.3,0,0.5-0.1,0.7-0.2
			c0.2-0.1,0.3-0.3,0.4-0.6c0.8-3.2,1.4-6.4,1.6-9.6c0.2-3.6-0.1-7.2-0.1-10.8c2.4-27.4,7.1-54.6,11.5-81.7c1.3-4.5,3.8-8.1,6.4-12
			c0-0.1,0.1-0.1,0.1-0.2c0,0,0.1,0,0.3,0c0.5,0.1,1,0.2,1.5,0.4c1.6,0.4,3.2,1,4.7,1.5c5,1.6,9.9,3.3,15,4.9
			c12.7,4,25.9,7.5,39.3,8.2c5.8,0.3,11.8,0.1,17.4-1.8c5.8-1.9,10.6-6,14.9-10.2c11.9-11.8,20.6-26.8,28.3-41.5
			c4.1-7.9,7.8-15.9,11-24.2c0.5,0.2,1.2,0,1.5-0.7c0.4-1.2,0.9-2.5,1.4-3.7c1.4-1.9,2.6-4,3.6-6.1c0.1-0.2,0.3-0.3,0.4-0.5
			c0.3-0.3,0.4-0.7,0.3-1c0.3-0.5,0.5-1.1,0.7-1.7c0.2-0.5-0.2-1.1-0.7-1.3c2.2-3.7,5.2-6.6,8.8-8.7c0.1,0,0.3,0,0.5,0
			c11.7-3.6,23.7-7.1,33.7-14.4c0.3,0,0.6-0.2,0.8-0.5c0-0.1,0.1-0.1,0.1-0.2c0.1-0.1,0.3-0.2,0.4-0.3c0.3-0.3,0.4-0.6,0.4-0.9
			C1009.9,272.9,1011.1,270.5,1009.1,269.8z M1001.5,267.9C1001.5,267.9,1001.5,267.9,1001.5,267.9
			C1001.5,267.9,1001.5,267.9,1001.5,267.9C1001.5,267.9,1001.5,267.9,1001.5,267.9z M995.7,268.4c0.5,0.2,1.1,0.2,1.4-0.4
			c0.1-0.3,0.6-1.4,1.1-1.4c0.2,0,0.4,0.2,0.5,0.3c-1.9,1.7-4.1,2.9-6.4,3.9C993.5,270.1,994.7,269.3,995.7,268.4z M942.5,294.4
			c1.7-4.9,3.8-9.6,6.8-13.8c9.2-6,20.1-8.9,28.9-15.6c0.2,1.4,0,2.7-1.2,3.9c-1,1-2.1,1.8-3.1,2.7c0,0-0.1,0.1-0.1,0.1
			c-1.4,1.4-3.2,2.3-4.8,3.4c-0.3,0.2-0.4,0.4-0.5,0.6c-0.2,0.1-0.4,0.2-0.5,0.3c-0.8,0.4-1.5,0.8-2.2,1.4c-1,0.9,0.5,2.5,1.5,1.5
			c0.5-0.5,1.2-0.9,1.9-1.2c1.3-0.1,2.5-0.6,3.8-0.7c0.6,0,0.9-0.4,1-0.8c9.2-0.3,19.2-1.8,26.2-7.9c0.2,0,0.3,0,0.5,0
			c-4.2,3.4-9,6-14.2,7.3c-1.3,0.3-0.8,2.4,0.6,2.1c5.1-1.3,9.8-3.8,14-6.9c0.4,0.5,1.1,0.7,1.6,0.2c0.5-0.5,2.7-2.7,3.2-1.2
			c0.1,0.2,0.2,0.4,0.4,0.5c-0.3,0.2-0.7,0.3-1,0.5c-0.4-0.2-0.9-0.2-1.3,0.1c-4.2,3.4-9.4,5.4-14.6,6.9c-1.3,0.4-0.8,2.5,0.6,2.1
			c4.6-1.3,9.2-3.1,13.2-5.7c0.2,0,0.5,0,0.7-0.1c1-0.6,2-1.1,3-1.6c0.2-0.1,0.6-0.3,0.8-0.4c-0.3,0.7-0.8,1.4-1.3,2.1
			c-7.7,5.8-16.8,9.2-25.9,12.1c-0.2-0.4-0.6-0.6-1.2-0.5c-2,0.6-3.9,1.3-5.6,2.1c-6.6,0.9-11.4,4.8-13,11.3
			c-6.3-0.5-12.3-2.5-18.2-4.8C942.5,294.5,942.5,294.4,942.5,294.4z M793.3,287.6c-1.4,2.3-2.8,4.5-4.3,6.7
			c-7.8,9-21.8,16.5-29.4,20.2c-7.2,3.5-14.9,6.9-22.7,8.7c-3.9-7-9.1-13.4-15.4-18.4c-0.1,0-0.1-0.1-0.2-0.1
			c9.4-8,22.4-9.9,34.4-12c13.1-2.2,27.3-5.1,34.5-17.5c0.1-0.1,0.1-0.2,0.2-0.4c0.4-0.7-0.1-1.4-0.6-1.6c0-0.6,0.1-1.1,0.1-1.7
			C795,277,795.5,282.4,793.3,287.6z M717.2,364.3c-7.3-11.7-11.8-25.4-12.8-39.4c0.4,0.6,1.4,0.7,1.8-0.1c3-5.4,6.6-10.3,10.4-15.1
			c0.1-0.1,0.2-0.3,0.2-0.4c0,0,0,0,0,0c0.9-1.1,1.8-2.2,2.8-3.2c0.1,0.1,0.1,0.1,0.2,0.2c6.5,5.1,11.7,11.7,15.7,19
			c0.4,0.8,1.4,0.6,1.8,0c9.2-2.1,18.2-6.3,26.6-10.6c5.7-2.9,11.5-6.1,16.9-10c-6.5,7.5-13.8,14.3-21.2,20.9
			c-13.8,12.3-28.5,23.8-41.2,37.3C718,363.3,717.6,363.8,717.2,364.3z M713.8,297.8c-0.1,0.3,0,0.6,0.2,0.9c0,0,0,0,0,0
			c0,0,0,0,0,0c1.6,1.7,3,3.8,3.9,6c-1,1-1.9,2-2.8,3.1c-0.1,0.1-0.2,0.3-0.2,0.4c0,0,0,0,0,0c-3.3,4.3-6.6,8.6-9.4,13.3
			c-0.6-2.7-1.1-5.4-1.3-8.2c0.3-3.7,0.8-7.4,1.6-11c1.2-2.8,3-5.4,5.1-7.7C712.1,295.6,713,296.7,713.8,297.8z M689.3,182.9
			c2.2-10.6,7.6-20.5,15.3-28c3.8-3.7,8.3-6.8,13.1-9c5.7-2.6,12.7-4.2,18.9-2.8c1.4,0.3,1.9-1.8,0.6-2.1
			c-11.9-2.7-24.8,3.7-33.3,11.6c-3.6,3.3-6.7,7.2-9.3,11.3c0.4-7.2-5-13.2-7.1-20c-2.6-8.5,1.8-17.2,8.3-22.6
			c6.8-5.6,16-8,24.7-7.2c8.4,0.7,15.9,5.1,22.5,10.2c6.8,5.3,12.8,11.6,19.4,17.3c8.1,7,16.1,14.2,24.8,20.4
			c7.7,5.5,16.4,9.7,23.4,16.2c7.6,6.9,11.7,16.3,10.6,26.6c-1.3,11.1-7.9,21.3-14.8,29.9c0,0,0,0-0.1,0c-5.5,4.5-10.5,11.4-7,18.2
			c-2.3-0.3-4.3-1.1-6.3-2.3c0.9-2.5,1.8-4.9,3.2-7.1c2.5-4,5.3-7.7,7.3-11.9c3.4-7,4.4-16.4-2.1-22c-4.2-3.6-12.3-6.3-17.5-3.4
			c-0.2-0.3-0.5-0.4-0.9-0.4c-0.5,0.1-1,0.1-1.4,0.1c-2.3-0.3-4.5-0.6-6.8-0.9c0-0.5,0-1,0-1.5c0-3.3,1.9-6.3,4.3-8.5
			c2-1.8,4.3-3.3,5.9-5.5c3.6-5,2.8-11.3,0.2-16.6c-2.8-5.9-7.6-10.6-11-16.2c-0.7-1.2-2.6-0.1-1.9,1.1c5.3,8.8,20,22.1,9.2,32.3
			c-1.9,1.8-4.1,3.2-5.8,5.3c-1.8,2.2-2.8,4.9-3.1,7.7c0,0.5,0,1.1,0,1.6c-5-0.9-10-2.2-14.6-4.2c-0.1,0-0.2-0.1-0.2-0.1
			c-1.3-2.4-2.7-4.8-4.6-6.6c4.3-1.4,7.2-5,9.1-9.1c0.5-1.1-0.7-2.1-1.7-1.3c-1.8,1.4-3.8,2.3-5.9,2.6c0.3-0.5,0.5-0.9,0.6-1.4
			c0.2-0.2,0.2-0.5,0.2-0.8c-0.1-0.8-1-1.2-1.6-0.8c0,0,0,0,0,0c-2.8,1.3-6.1,1.3-9.1,1.4c-3.7,0.1-7.5,0.1-11.2,0.5
			c-6.6,0.7-12.9,3.2-13.8,10.6c-1.8,1.3-3.2,2.9-4.1,5c-2.5-0.3-5.1-0.2-7.6,0.4c-0.2-0.5-0.4-1-0.7-1.4c0.1-0.1,0.2-0.2,0.2-0.3
			c1-2.3,0.8-5.2,0.1-7.5c-0.1-0.3-0.3-0.6-0.6-0.7C703.2,184.5,695.3,185.5,689.3,182.9C689.3,183,689.3,183,689.3,182.9z
			 M756.8,207.7c-0.7,0.2-0.9,0.8-0.7,1.3c-4.2,12.5-18.7,15.9-30.2,12c-0.1-0.3-0.3-0.5-0.6-0.7c-3.9-1.6-5-6.7-6.8-10.1
			c-2.2-4.2-5.9-5.6-10.3-4.9c-0.2-0.1-0.5-0.1-0.7-0.1c-0.2,0.1-0.3,0.1-0.5,0.2c-2.3-14.2-22.4-11.8-32.2-7
			c-0.2,0.1-0.3,0.2-0.4,0.3c-0.2,0.1-0.3,0.3-0.4,0.6c-1.8,7.4,1.7,19.4,10,21c-3.3-0.2-6-1.9-7.7-5.2c-1.8-3.3-2.5-7.1-3.3-10.8
			c0.1-0.3,0-0.5-0.2-0.8c0-0.1-0.1-0.3-0.1-0.4c-0.1-0.5-0.5-0.7-0.9-0.8c-0.6-1-0.7-2.2-0.4-3.5c5.7-2.6,12.1-4.1,18.3-4.5
			c6.3-0.4,14,0.9,16.4,7.6c0.2,0.6,0.8,0.8,1.3,0.7c0.2,0.1,0.4,0.1,0.7,0.1c2.2-0.6,4.6-0.7,6.9-0.4c0.4,0.8,1.8,1,2-0.1
			c0-0.1,0.1-0.2,0.1-0.3c0.1-0.2,0.2-0.4,0.2-0.6c1.9-5.4,8.6-7.3,13.7-8.1c2-0.3,4.1-0.5,6.2-0.6c-7.2,0.5-14.5,3.7-19.1,8.8
			c0,0,0,0,0,0c-0.5,0.2-0.9,0.6-0.8,1.3c1.5,6.3,2.8,13.2,8.2,17.5c0.2,0.2,0.5,0.3,0.7,0.3c3,1.6,6.6,1.9,10,1.9
			c3.7-0.1,7.8-0.9,11-2.9c0.4-0.2,0.5-0.6,0.5-1c3.6-2.6,6.4-6.3,7.2-10.7c0.8-4.6-1.2-8.6-4.3-11.7c0-0.3-0.2-0.6-0.5-0.8
			c-0.2-0.1-0.5-0.3-0.7-0.4c-0.2-0.2-0.5-0.4-0.7-0.6c-0.3-0.2-0.6-0.3-0.9-0.1c-1.7-0.7-3.6-1.1-5.5-1.4c2.3,0.2,4.6,0.6,6.7,1.3
			c0.3,0.1,0.6,0.1,0.8-0.1c3.1,1.6,4.7,5,6.3,7.9c0.3,0.6,0.9,0.6,1.3,0.4c4,1.7,8.2,2.9,12.5,3.8
			C765.5,206.4,761.1,206.7,756.8,207.7z M699,211.5c-0.1,0-0.2,0.1-0.3,0.1c-5.2-1.1-9,2.3-10.8,6.7c-0.2-0.1-0.3-0.1-0.6-0.1
			c-9,1.2-12.7-10.8-11.3-18c8.5-4.1,27.8-7,28.9,6.6c0,0.1,0,0.1,0,0.2C703.6,209.2,701.6,210.9,699,211.5z M751.6,186.3
			c-0.7,0.5-0.5,2,0.6,2c2.2,0,4.1-0.5,6-1.2c-1.8,2.6-4.3,4.7-7.7,5.1c0,0,0,0,0,0c-0.4-0.2-0.7-0.3-1.1-0.5
			c-0.4-0.1-0.7,0-0.9,0.1c-6-1.7-12.8-1.4-18.8-0.4c-2.5,0.4-5.3,1.2-7.7,2.4c1.7-5.9,8.8-6.8,14.3-7.2c5-0.3,10.8,0.4,15.8-1
			C751.9,185.9,751.8,186.1,751.6,186.3z M748.4,196.9c3.2,2.7,5.2,6.5,4.5,10.8c-0.8,4.6-4.5,8.2-8.3,10.5
			c-0.3,0.2-0.4,0.4-0.5,0.6c-2.4,1-5.1,1.4-7.7,1.5c-3.3,0.1-7-0.3-9.9-2.1c0,0-0.1,0-0.1-0.1c-4.1-3.9-5.4-9.6-6.6-14.9
			c0.2-0.1,0.4-0.3,0.5-0.6C726.9,195.6,739.6,192.5,748.4,196.9z M687.6,192.3c-3-1.9-4.5-5-5.9-8.1c1.3,0.8,2.6,1.5,3.8,2.3
			c0.9,0.6,2-0.6,1.5-1.5c-0.2-0.3-0.4-0.7-0.6-1c2.5,1.5,5.5,2.1,8.4,2.7c4.3,0.9,8.6,1.9,10.7,6.2c0,0.1,0.1,0.2,0.1,0.2
			c0.3,1.4,0.5,3,0.1,4.3c-3.5-3.8-9-5.1-14.4-5.1c-1.2,0-2.4,0.1-3.5,0.2C687.7,192.4,687.7,192.3,687.6,192.3z M699.8,282.9
			c-2.6-1.3-5.3-2.2-7.9-3.4c-2.4-1.1-5.2-2.7-5.6-5.6c-0.1-0.5-0.4-0.7-0.8-0.8c-3-6.3-2.8-13.4-4.5-20.1c-0.1-0.4-0.3-0.6-0.6-0.7
			c-0.1,0-0.2-0.1-0.3-0.1c-3.4-5.1-7.4-10-9.8-15.7c-1.2-2.8-1.7-5.8-1.2-8.8c0.7-3.9,3.4-7.2,6.2-9.8c0,0,0.1-0.1,0.1-0.1
			c2.6,3.9,6.8,5.1,11.3,4.5c-0.1,0.8-0.1,1.5-0.1,2.3c0.1,3.5,1.5,7,4.4,9.1c3.9,2.9,9.4,1.9,13.5,0.3c1.3-0.5,0.7-2.6-0.6-2.1
			c-3.6,1.3-8,2.3-11.5,0.2c-2.5-1.6-3.6-4.6-3.7-7.5c-0.2-5.5,3.5-12.5,9.9-10.7c0.5,0.1,0.9-0.1,1.1-0.4c3-0.9,5.5-3,7.1-5.7
			c0,0,0.1-0.1,0.1-0.2c0,0,0.1,0,0.1,0c0.1,0,0.3,0,0.5,0c2.3-0.5,4.6-0.6,6.6,0.8c1.6,1.1,2.5,3.1,3.2,4.8
			c0.8,1.8,1.6,3.7,2.7,5.3c-1.8-0.2-3.6,0.5-5.1,2c-1,1,0.6,2.5,1.5,1.5c1.7-1.8,3.7-1.9,5.6-0.6c0.2,0.1,0.4,0.2,0.5,0.2
			c0.1,0.3,0.3,0.6,0.7,0.7c0.3,0.1,0.7,0.3,1,0.4c2.8,3,2.3,8.4-2,10.3c-1.3,0.6-0.2,2.4,1.1,1.9c4.8-2.1,5.8-7.2,3.9-11.2
			c12.2,3.1,26.4-1.4,30.6-14.2c4.8-1.1,9.8-1.2,14.7-1.2c0.2,1.3,0.4,2.5,0.5,3.7c0.3,3.7,1,7.1-0.3,10.7c-0.5,1.3,1.6,1.9,2.1,0.6
			c1.7-4.9,0.6-10-0.1-15.1c2.2,0,4.3-0.1,6.5-0.3c0,0,0,0,0,0c-0.4,0.5-0.8,1.1-1.2,1.8c-0.6,1.2,1.3,2.3,1.9,1.1
			c0.6-1.1,1.3-2,2.2-2.6c0.1,0,0.2,0,0.3,0c0.6,0.1,0.9-0.3,1-0.7c4.1-1.7,10.1,0.5,13.5,2.9c8.2,5.8,4.3,16.9,0.2,24
			c-2.2,3.8-5.1,7.3-6.9,11.4c-1.8,4-2.8,8.2-4.4,12.2c-1.5,3.8-4,8.1-8.3,9.1c-3.4,0.8-6.1-2.3-6.5-5.4c-0.3-2.5,0.8-4.9,2.5-6.7
			c0.9-1-0.6-2.5-1.5-1.5c-2.4,2.6-3.6,5.8-3,9.3c0.5,2.9,2.6,5.3,5.3,6.3c3.3,1.2,6.7-0.6,9.1-2.8c1.1-1,1.9-2.2,2.7-3.5
			c-0.1,1.9-0.2,3.8-0.3,5.7c-0.3,0.3-0.4,0.8-0.1,1.2c-0.1,2-0.3,4-0.5,5.9c-7.5,11-21.6,13.2-34,15.3c-11.9,2-24.5,4.3-33.6,12.2
			c-0.7-1.6-1.7-3.1-2.7-4.5c0-0.2-0.1-0.4-0.2-0.6c-2.4-3.3-5.2-6.2-8.2-8.8C705.9,287,702.9,284.5,699.8,282.9z M573.5,327.1
			c-0.1-0.5-0.4-0.9-1-1c-5.5-0.7-10.9-2.6-16-4.6c0.4-0.8,1.5-1,2.7-1.3c0.2,0.1,0.4,0.1,0.7,0.1c3.9-0.6,7.4,0.2,10.5,2.6
			c1.1,0.8,2.6-0.7,1.5-1.5c-3.1-2.4-6.3-3.4-9.9-3.4c-0.1-0.2-0.4-0.4-0.6-0.5c-2.2-0.7-4.4-0.7-6.6-1.4c-1.4-0.5-1.4-1-0.4-2.1
			c0.9-0.9,2.6-0.5,3.6-0.2c0.2,0.1,0.4,0.1,0.5,0c2.9,0.6,6,1.1,8.8,2.1c1.3,0.5,1.9-1.6,0.6-2.1c-2.4-0.9-5-1.3-7.5-1.8
			c-2.4-0.5-5.3-0.9-7.5-2.2c0,0,0.1,0,0.1-0.1c0.3-0.4,1-0.5,1.4-0.6c1.5-0.3,3.1-0.2,4.6,0c3,0.3,6.1,1,8.9,2.2
			c1.3,0.5,1.8-1.6,0.6-2.1c-1.6-0.7-3.4-1.2-5.1-1.6c0.3-0.5,0.3-1.2-0.3-1.6c-0.8-0.5-1.6-0.7-2.5-1c-0.8-0.2-1.4-0.2-1.5-0.6
			c2.3-0.2,4.4,0.6,6.7,0.7c5.1,3.6,10.6,6.8,16.6,8.6c0.4,0.1,0.8,0,1-0.3c0.1-0.1,0.1-0.1,0.2-0.2c0.7-1.1,1-2.3,0.4-3.6
			c-0.6-1.3-1.8-2.1-2.9-2.9c-0.4-0.3-0.9-0.6-1.2-1c-0.4-0.5,0.4-1.4,1-2c0.8,0.2,1.6,0.4,2.2,1c0.9,0.8,1.7,1.6,2.7,2.4
			c0.3,0.2,0.6,0.3,0.8,0.2c6.4,0.7,11.1,4.6,13.1,10.7c1.5,4.7,2,9.9,2.8,14.8c-0.6,5.1-3.2,11.8-9,12.5c-1.8-4.2-3.8-8.3-5.3-12.5
			c0-0.3-0.1-0.5-0.4-0.7c-2.2-1.7-4.5-3.3-7.3-3.9C578,327.7,575.7,327.7,573.5,327.1z M652.9,381.5c4.3-15.2,9.8-30,15.5-44.7
			c0.5-1.3-1.6-1.9-2.1-0.6C654.6,366,643,398,642.9,430.5c-0.2,0-0.3,0-0.5,0.1c-9.2,4-17.9-0.8-24.3-7.5
			c-8.3-8.8-13.8-20.4-18-31.6c-3.4-9-6.1-18.4-7.9-27.8c-1.2-6.2-2.3-12.8-1.7-19.2c0.3,0.8,0.7,1.6,1,2.4c0,0,0,0.1,0.1,0.1
			c0.1,0.4,0.4,0.7,1,0.7c6.7-0.2,10.2-6.5,11.5-12.4c5.9,6.7,9.7,15.4,13,23.6c3.6,9,6.6,18.4,8.4,27.9c0.3,1.4,2.3,0.8,2.1-0.6
			c-0.3-1.6-0.6-3.1-1-4.6c0.1-0.1,0.1-0.3,0.2-0.4c1-6.1,4.7-11.7,7.2-17.2c8.1-13.5,14.3-28,22.5-41.4c0.2-0.1,0.3-0.2,0.4-0.4
			c4.6-8.7,14.3-12.3,23.2-15c8.1-2.4,16.5-3.9,24.3-7c-0.2,0.6-0.3,1.3-0.5,1.9c-0.7,1.7-1.1,3.4-1.4,5.2c-0.3,2.2-0.4,4.4-0.3,6.6
			c-1.2,18.2,3.8,37.1,13.5,52.4c-3.5,14.3-6.4,28.8-8,43.4c-1.8,16-2.1,32.5,1.3,48.3c1.5,6.9,3.8,13.6,7.2,19.7
			c-0.1,0.1-0.2,0.3-0.3,0.5c-2.3,11.4-13.9,14.5-24.1,14.8c-10.2,0.3-20.8-1.6-30.4-5.1c-10.3-14.9-15.5-32.4-16.3-50.5
			C644.3,418.4,647.9,399.6,652.9,381.5z M742.3,657.7C742.3,657.7,742.3,657.7,742.3,657.7c-6,0.6-12,0.8-18,0.3
			c-0.2-0.2-0.4-0.3-0.8-0.3c-0.3,0-0.7,0.1-1,0.1c-0.4,0-0.8-0.1-1.1-0.1c-0.4,0-0.7,0.1-0.8,0.3c-6,0.6-12,1-17.9,1.2
			c-5.8,0.2-11.7,0.4-17.6,0c-0.4-3.8-0.2-7.8,2.5-10.8c2.4-2.7,6.1-3.7,9.5-4.2c8-1.2,16.4,0.4,24.4,1.2c0.7,0.1,1-0.4,1-1
			c0.3,0.2,0.6,0.3,1,0.4c2.9,0.4,5.9,0.4,8.8,0.4c2.3,0,4.7,0,7-0.3c0.1,0.1,0.2,0.2,0.3,0.3C744.1,648.4,744.3,653.3,742.3,657.7z
			 M781,645.6c3,1.3,4.9,4.3,6.2,7.3c-2.9,8.4-13.8,7.7-21.7,5.6c-0.1-0.4-0.4-0.7-1-0.7c-0.5,0-0.9,0-1.4,0
			c-0.7-0.2-1.3-0.5-1.9-0.7c-0.7-0.3-1.2,0.2-1.3,0.8c-1.9,0.1-3.9,0.3-5.8,0.7c-0.2,0-0.3,0.1-0.4,0.2c-0.2,0-0.4,0.1-0.5,0.1
			c-1.7-4.7-1.2-9.6,1.5-13.8c0-0.1,0.1-0.1,0.1-0.2c3,0,6.1,0,9.1-0.2c2.9-0.1,6.1-0.3,8.8-1.3c0,0,0.1,0,0.1,0c0,0,0,0,0,0.1
			c0,0.3,0.1,0.7,0.1,1c-1.5,0.8-2.9,1.8-4.2,3c-1,0.9,0.5,2.5,1.5,1.5c1.1-1,2.4-2,3.8-2.7c0.6,0.3,1.3-0.1,1.5-0.6
			C777.3,644.9,779.1,644.8,781,645.6z M780,584.4c-0.1,0.5,0.1,0.9,0.5,1.2c-3.2,18.5-6.2,37-7.6,55.7c-0.2-0.1-0.5-0.1-0.8,0
			c-2.7,1-5.9,1.1-8.8,1.2c-2.9,0.1-5.8,0.2-8.7,0.2c-3.2-30.9-2.9-62.4-11-92.7c-4.1-15.5-10.8-31.3-23-42.3
			c-1-0.9-2.6,0.6-1.5,1.5c11,9.9,17.3,23.7,21.5,37.7c0.2,0.5,0.3,1,0.4,1.6c-7.5,31.1,1.2,62.9-1.3,94.3c-2.6,0.4-5.4,0.4-8,0.4
			c-2.6,0-5.5,0.1-8.1-0.4c-0.4-1.1-0.8-2.3-1.2-3.4c0-0.1,0-0.2,0-0.3c-1-3.8-2.5-7.5-4.2-11.1c-1.3-3.5-2.6-7-3.8-10.5
			c-0.1-0.3-0.3-0.5-0.5-0.6c-4-10.1-7.9-20.2-12.4-30.1c0-0.2-0.1-0.3-0.2-0.5c-0.1-0.2-0.2-0.3-0.3-0.5c-0.1-0.3-0.3-0.6-0.4-0.9
			c-0.1-0.2-0.2-0.3-0.4-0.4c-17-29.3-25.6-62.6-38.1-93.9c0.1-0.1,0.2-0.2,0.3-0.3c9.8,3.3,20.6,5,30.9,4.5
			c10.2-0.5,21.3-4.3,24.3-14.9c2,3.3,4.4,6.4,7.2,9.1c0.2,0.2,0.5,0.3,0.8,0.3c24.7,2.6,49.5,2.2,74.2,2.8
			C794.2,523.1,787.3,553.8,780,584.4z M824.6,377.1C824.6,377.1,824.6,377.1,824.6,377.1c0.1-0.1,0.1-0.1,0.2-0.1
			C824.6,377.1,824.6,377.1,824.6,377.1z M937.7,349.1c-4.3,7.5-9.1,14.8-14.5,21.5c-4.5,5.7-9.6,11.1-15.7,15.1
			c-4.7,3-10.2,4-15.7,4.3c-6.6,0.3-13.2-0.5-19.7-1.7c-12.5-2.3-24.6-6.1-36.6-10.1c-2.6-0.9-5.2-1.8-7.8-2.5
			c-1.1-0.3-2.9-1.1-4-0.5c-0.3,0.2-0.5,0.4-0.5,0.7c-0.2,0.1-0.4,0.2-0.6,0.4c-2.6,3.9-5.1,7.7-6.5,12.2c0,0.1-0.1,0.2-0.1,0.3
			c0,0.1,0,0.2,0,0.3c-4.4,27.2-9.1,54.5-11.5,82c0,0.1,0,0.2,0,0.2c0,3.4,0.2,6.8,0.1,10.2c-0.1,2.9-0.6,5.8-1.3,8.6
			c-25.7-0.7-51.5-0.1-77.1-2.8c-10.5-10.8-15-25.8-16.7-40.5c-1.9-16.3-0.5-33,2-49.2c1.6-10.3,3.8-20.6,6.3-30.8c0,0,0,0,0,0
			c22.6-25.1,53.2-43.1,72.7-71c0.5-0.6,1-1.2,1.5-1.9c1.4-1.8,2.7-3.8,3.5-6c0.1-0.2,0.2-0.4,0.3-0.6c0.1,0.2,0.3,0.4,0.7,0.5
			c17.3,3,38.9,6.7,49.3,22.6c-0.6,0.4-1.1,1-1.6,1.5c-0.9,1.1,0.6,2.6,1.5,1.5c0.3-0.4,1.4-1.9,2-1.4c0.9,0.8,1.1,2.7,1.2,3.8
			c0.1,0.7,0.7,0.9,1.3,0.7c12.4,10,22.8,22.2,34.7,32.7c-2.1,0.6-4.4,0.7-6.4,1.6c-1.3,0.6-0.2,2.4,1.1,1.9
			c1.5-0.7,3.1-0.9,4.8-1.2c-2.9,2.8-5.6,5.8-7.3,9.5c-0.6,1.3,1.3,2.4,1.9,1.1c1.6-3.6,4.3-6.5,7-9.2c-0.1,0.4-0.2,0.9-0.2,1.3
			c-0.5,2.7-0.9,5.4-0.9,8.1c0,1.4,2.1,1.4,2.2,0c0-2.4,0.3-4.7,0.7-7c0.3-1.7,0.5-3.7,1.2-5.3c0.2-0.2,0.4-0.4,0.6-0.6
			c9.2-8.5,17.7-17.9,26.1-27.2c7.8-8.7,15.9-17.5,22.6-27.1c7.7,3.2,15.3,6,23.7,6.4c0,0,0,0,0.1,0c-0.2,0.4-0.3,0.7-0.5,1.1
			c-0.8,0.9-1.4,1.9-2,2.9c-0.5-0.5-1.6-0.5-1.9,0.4C952.6,321,945.6,335.4,937.7,349.1z"/>
		<path class="st3" d="M784.5,224.6c-0.4-3.8,0.8-7.9,3.2-11c1-1.3,2.4-2.3,4-2.5c2.3-0.2,4.2,2,5.4,3.7c0.8,1.1,2.7,0,1.9-1.1
			c-2.9-4-7.1-6.3-11.5-3c-3.9,3-5.6,9.1-5.2,13.8C782.5,226,784.7,226,784.5,224.6z"/>
		<path class="st3" d="M715.8,234.2c1.2,0.7,2.3-1.1,1.1-1.9c-3.4-2.2-7.4-4.2-11.6-3.7c-1.4,0.1-1.4,2.3,0,2.2
			C709.1,230.3,712.6,232.2,715.8,234.2z"/>
		<path class="st3" d="M785.4,231c-1.4,0.1-1.4,2.3,0,2.2c1-0.1,5-0.8,5,1.1c0.1,1.9-1.7,4.1-2.7,5.5c-2.1,3.3-6.3,8.2-5.1,12.5
			c0.4,1.3,2.5,0.8,2.1-0.6c-0.6-2.2,1-4.7,2.1-6.5c1.4-2.4,3.1-4.7,4.4-7.1c0.9-1.6,1.8-3.7,0.9-5.5
			C790.9,230.4,787.4,230.8,785.4,231z"/>
		<path class="st3" d="M714.5,281.7c6.3-0.3,14.6-2.7,16.5-9.6c0.4-1.3-1.7-1.9-2.1-0.6c-1.7,5.9-9.1,7.7-14.5,8
			c-5.2,0.3-13-0.7-15.5-6.1c-0.6-1.3-2.4-0.2-1.9,1.1C699.9,280.7,708.5,281.9,714.5,281.7z"/>
		<path class="st3" d="M731.2,202.4c-0.9,1.1,0.6,2.6,1.5,1.5c4.2-5.1,13.1-4.5,16.3,1.5c0.7,1.2,2.5,0.1,1.9-1.1
			C747.1,197.3,736.2,196.3,731.2,202.4z"/>
		<path class="st3" d="M689.2,201.7c-0.9,1,0.6,2.6,1.5,1.5c3.1-3.5,8.4-2.3,9.7,2.2c0.4,1.3,2.5,0.8,2.1-0.6
			C700.8,198.9,693.4,197,689.2,201.7z"/>
		<path class="st3" d="M711.1,248.4c5.2,0.2,21.8,4.3,21.2-4.7c-0.1-1.4-2.3-1.4-2.2,0c0.3,3.9-5.6,3.6-8.1,3.5
			c-3.4-0.1-6.8-0.8-10.2-0.9c-0.1,0-0.2,0-0.3,0c-0.1,0-0.3,0-0.4,0c-0.1,0-0.2,0-0.3,0c-0.1,0-0.2,0-0.2,0
			c-5.2,0.2-11.6,1.3-16-1.8c-1.1-0.8-2.2,1.1-1.1,1.9C698.4,249.8,705.4,248.5,711.1,248.4z"/>
	</g>
</g>
</svg>
