<?xml version="1.0" encoding="utf-8"?>
<!-- Generator: Adobe Illustrator 19.2.0, SVG Export Plug-In . SVG Version: 6.00 Build 0)  -->
<svg version="1.1" id="Layer_1" xmlns="http://www.w3.org/2000/svg" xmlns:xlink="http://www.w3.org/1999/xlink" x="0px" y="0px"
	 viewBox="0 0 400 400" style="enable-background:new 0 0 400 400;" xml:space="preserve">
<style type="text/css">
	.st0{fill:#DCF0FB;}
	.st1{fill:#D2EAF7;}
	.st2{fill:#233267;}
	.st3{fill:#B7A25F;}
	.st4{fill:#CCE1EA;}
</style>
<rect y="0.2" class="st0" width="400" height="400"/>
<path class="st1" d="M104.5,125.4c0,0,7.6-5.1,9.1-5.7c0,0,9.1,7.3,14.1,20c0,0-4.9,4-10.6,6.2C117.1,145.9,115,136.3,104.5,125.4"
	/>
<path class="st2" d="M105.4,125.6c0,0,6.7-4.8,8.2-5.4c0,0,8.8,7.5,13.5,19.5c0,0-4.3,3.5-9.7,5.5
	C117.4,145.2,115.3,135.9,105.4,125.6"/>
<path class="st1" d="M115,122.6c0,0-1.7,1.2-3.1-0.5l-4.1,3c0,0,1.1,1,0,2.1c0,0,6.3,7.5,9.5,15.7c0,0,1.2-0.4,1.8,1
	c0,0,4.6-2.2,6.2-3.5c0,0-1.2-1.3,0.2-2.6C125.6,137.7,122.2,129.9,115,122.6"/>
<path class="st2" d="M115.4,139.1l1.1-0.4c0,0-2.7-5.9-4.6-7.7l-0.9,0.7C110.9,131.6,114,136.1,115.4,139.1"/>
<path class="st2" d="M123.8,138.3c0,0-1.7-3.3-2.4-4l-0.6,0.2c0,0,2,3.3,2.4,4.3L123.8,138.3z"/>
<path class="st2" d="M122.6,139c0,0-0.6-1.5-1-2.2L121,137l1.2,2.1L122.6,139z"/>
<path class="st2" d="M109.1,125.3c0,0,2,3.2,2.7,3.8l0.6-0.3c0,0-2.3-3.1-2.8-4L109.1,125.3z"/>
<path class="st2" d="M110.3,124.5c0,0,0.7,1.4,1.2,2.1l0.6-0.2l-1.3-2L110.3,124.5z"/>
<path class="st2" d="M114.5,133.3c0.6,1.7,2.5,2.7,4.2,2.1c1.7-0.6,2.7-2.5,2.1-4.2c-0.6-1.7-2.5-2.7-4.2-2.1
	C114.9,129.7,113.9,131.6,114.5,133.3"/>
<path class="st2" d="M249.5,220.8c0,0-9.3,3.4-10.9,4.5c0,0,1.4,13.8,10.2,26.6c0,0,6.4-1.9,12-5.9
	C260.8,245.9,253.1,237.5,249.5,220.8"/>
<path class="st1" d="M240.1,228.2c0,0,2.3-0.9,1.6-3.4l5.8-2c0,0,0.2,1.7,2.1,1.4c0,0,3.3,11.3,9.1,20c0,0-1.3,1-0.2,2.5
	c0,0-5.3,3.1-7.7,3.8c0,0-0.5-2.1-2.8-1.6C248,248.9,242.4,240.3,240.1,228.2"/>
<path class="st2" d="M256.1,239.8l-1.1,0.8c0,0-4.1-6.7-4.5-9.8l1.3-0.5C251.8,230.3,254.1,236.4,256.1,239.8"/>
<path class="st3" d="M249.7,247.6c0,0-2.2-3.9-2.4-5l0.6-0.5c0,0,1.9,4.2,2.6,5.2L249.7,247.6z"/>
<path class="st3" d="M251.3,246.8c0,0-1-1.6-1.5-2.4l0.6-0.4l1.4,2.6L251.3,246.8z"/>
<path class="st2" d="M246.8,224.2c0,0,1.8,4.1,1.9,5.2l-0.7,0.4c0,0-1.5-4.4-2.1-5.5L246.8,224.2z"/>
<path class="st2" d="M245.2,224.8c0,0,0.9,1.7,1.3,2.6l-0.6,0.4l-1.1-2.7L245.2,224.8z"/>
<path class="st2" d="M251,235c1.3,1.8,1,4.3-0.8,5.6c-1.8,1.3-4.3,1-5.6-0.8c-1.3-1.8-1-4.3,0.8-5.6
	C247.2,232.9,249.7,233.2,251,235"/>
<path class="st1" d="M256.1,26.8l-7.2,0.7c0,0-1.1,3.3-0.7,7.1c0.4,3.8,1.1,5.3,1.5,5.3c0.5-0.1,4.8-3.4,5.3-5
	C255.6,33.2,256.1,26.8,256.1,26.8"/>
<path class="st2" d="M250,39.3c0,0-2-4.5-0.8-11.5l0.4-0.2c0,0-1.2,3.9,0.7,11.3C250.3,38.8,250.2,39.8,250,39.3"/>
<path class="st1" d="M249.1,36.1l5.5-0.9l-0.4-8.2l-5.3,0.5C248.9,27.4,251.4,29.7,249.1,36.1"/>
<path class="st2" d="M254.2,34.7l-4,0.6c0,0,1.1-5.2-0.6-7.9l2.3-0.2C251.9,27.2,254.6,30.5,254.2,34.7"/>
<path class="st1" d="M249,24.9c0,0,2.6,2.9,2.4,7.4c-0.1,4.6-1.1,6.6-1.7,7.5c0,0,14.6-1.8,16.6-2.3c0,0,2.8-2,1.8-7.1
	c-1-5.1-4.7-6.5-4.7-6.5L249,24.9z"/>
<path class="st2" d="M250.1,25.2c0,0,2.2,2.7,2.1,7.3c-0.1,4.6-0.7,6.3-1.4,7.2c0,0,12.7-1.5,14.7-2c0,0,2.7-2.2,1.8-7.3
	c-0.8-4.4-3.8-5.6-3.8-5.6L250.1,25.2z"/>
<path class="st1" d="M252.2,39.6c0,0,2.1-4.4,0.5-11.6c0,0,1.5-0.9,1-2.1l8.4-0.3c0,0,0.9,1.9,3.2,1.2c0,0,3.9,5.3-0.2,11.1
	C265,37.8,257.3,39.1,252.2,39.6"/>
<path class="st2" d="M262.2,26.6c0,0,2,4.7,0.5,8l-1.1,0.3c0,0,1.3-4.1-0.8-8.4L262.2,26.6z"/>
<path class="st2" d="M259.9,26.7c0,0,1.1,1.4,1.2,3.9c0,0,0,0.1-0.8,0.3c-0.2-2.6-1.1-4.2-1.1-4.2L259.9,26.7z"/>
<path class="st2" d="M254,39.3c0,0,5-3.8,8.4-1.1L254,39.3z"/>
<path class="st4" d="M176.5,76.5l6.3,3.5c0,0,2.8-2.1,4.6-5.5c1.8-3.4,2.1-5,1.7-5.2c-0.4-0.2-5.9,0.1-7.2,1.2
	C180.6,71.5,176.5,76.5,176.5,76.5"/>
<path class="st2" d="M188.6,69.5c0,0-0.9,4.9-5.8,10l-0.5,0c0,0,3.2-2.5,5.8-9.7C188.1,69.8,188.7,69.1,188.6,69.5"/>
<path class="st1" d="M187.6,72.7l-5.1-2.3l-4.3,7l4.7,2.6C182.9,80,182.1,76.8,187.6,72.7"/>
<path class="st2" d="M182.5,71l3.6,1.7c0,0-3.8,3.7-4,6.9l-2-1.1C180.2,78.5,179.9,74.3,182.5,71"/>
<path class="st1" d="M181.3,82c0,0-0.5-3.8,2.2-7.5c2.7-3.7,4.6-4.8,5.7-5.2c0,0-13-6.8-15-7.4c0,0-3.4,0.1-5.5,4.8
	c-2.1,4.7,0.2,8,0.2,8L181.3,82z"/>
<path class="st2" d="M180.6,81.1c0,0-0.3-3.5,2.4-7.2c2.7-3.7,4.2-4.8,5.2-5.2c0,0-11.4-6-13.3-6.6c0,0-3.5,0.3-5.6,5
	c-1.8,4.1,0,6.7,0,6.7L180.6,81.1z"/>
<path class="st1" d="M187,68.1c0,0-4.2,2.4-7,9.3c0,0-1.7-0.1-2,1.2l-7.1-4.5c0,0,0.3-2.1-1.9-2.8c0,0-0.2-6.5,6.4-9
	C175.4,62.3,182.5,65.7,187,68.1"/>
<path class="st2" d="M171.4,73.2c0,0,1-5,4.1-6.9l1.1,0.4c0,0-3.4,2.7-4.1,7.4L171.4,73.2z"/>
<path class="st2" d="M173.3,74.4c0,0-0.1-1.7,1.2-3.9c0,0,0.1-0.1,0.8,0.2c-1.3,2.3-1.5,4.1-1.5,4.1L173.3,74.4z"/>
<path class="st2" d="M185.3,67.3c0,0-6.3,0.3-7.5-3.8L185.3,67.3z"/>
<path class="st1" d="M305.1,117l-2.1-6.9c0,0-3.5-0.4-7.1,0.7c-3.6,1.1-5,2.1-4.9,2.6c0.2,0.4,4.3,4,6,4.2
	C298.7,117.8,305.1,117,305.1,117"/>
<path class="st2" d="M291.6,113.6c0,0,4-2.9,11.1-3.2l0.3,0.4c0,0-4-0.4-10.9,2.9C292.1,113.8,291.2,113.9,291.6,113.6"/>
<path class="st1" d="M294.5,112.1l2,5.2l8-2.1l-1.5-5.1C303,110.1,301.3,113,294.5,112.1"/>
<path class="st2" d="M297,116.8l-1.4-3.8c0,0,5.3,0,7.6-2.2l0.7,2.2C303.9,113,301.2,116.3,297,116.8"/>
<path class="st1" d="M305.5,109.7c0,0-2.3,3.1-6.8,3.9c-4.5,0.8-6.7,0.3-7.7-0.2c0,0,4.7,13.9,5.6,15.7c0,0,2.5,2.3,7.3,0.3
	c4.8-2,5.4-5.9,5.4-5.9L305.5,109.7z"/>
<path class="st2" d="M305.4,110.8c0,0-2.2,2.7-6.7,3.5c-4.5,0.8-6.3,0.5-7.3,0.1c0,0,4,12.2,5,14c0,0,2.7,2.2,7.5,0.3
	c4.2-1.7,4.7-4.8,4.7-4.8L305.4,110.8z"/>
<path class="st1" d="M291.8,115.8c0,0,4.7,1.2,11.5-1.8c0,0,1.2,1.2,2.3,0.5l2,8.1c0,0-1.7,1.3-0.5,3.3c0,0-4.4,4.9-10.9,2.1
	C296.1,128,293.3,120.6,291.8,115.8"/>
<path class="st2" d="M306.5,122.9c0,0-4.2,2.9-7.7,2.2l-0.5-1c0,0,4.3,0.4,8.1-2.5L306.5,122.9z"/>
<path class="st2" d="M306,120.7c0,0-1.1,1.3-3.6,2c0,0-0.1,0-0.4-0.7c2.5-0.7,3.9-1.9,3.9-1.9L306,120.7z"/>
<path class="st2" d="M292.4,117.5c0,0,4.7,4.2,2.8,8L292.4,117.5z"/>
<path class="st1" d="M132,44.5c0,0-12.9-6.3-15.4-7c0,0-12.7,13.2-17.8,34c0,0,8.4,5.2,17.7,7.4C116.5,78.9,117.9,63.6,132,44.5"/>
<path class="st2" d="M130.5,45c0,0-11.5-6.1-13.8-6.7c0,0-12.2,13.4-17,33c0,0,7.4,4.5,16.2,6.6C115.9,77.9,117.3,63,130.5,45"/>
<path class="st1" d="M115.1,42.3c0,0,2.9,1.5,4.7-1.4l7,3.9c0,0-1.4,1.7,0.4,3.3c0,0-8.2,13-11.5,26.3c0,0-2-0.4-2.7,2
	c0,0-7.6-2.4-10.3-4.2c0,0,1.6-2.3-0.9-4.1C101.7,68,105.3,55.1,115.1,42.3"/>
<path class="st2" d="M117.8,68l-1.8-0.4c0,0,2.9-9.8,5.6-13l1.6,0.9C123.2,55.5,119.3,63.1,117.8,68"/>
<path class="st2" d="M104.6,68.6c0,0,2-5.5,2.8-6.7l1,0.2c0,0-2.5,5.6-2.8,7.1L104.6,68.6z"/>
<path class="st2" d="M106.7,69.4c0,0,0.6-2.4,1-3.6l0.9,0.2l-1.4,3.6L106.7,69.4z"/>
<path class="st2" d="M124.8,45.3c0,0-2.5,5.3-3.4,6.4l-1-0.3c0,0,3-5.3,3.5-6.8L124.8,45.3z"/>
<path class="st2" d="M122.8,44.3c0,0-0.8,2.3-1.4,3.5l-0.9-0.3l1.7-3.4L122.8,44.3z"/>
<path class="st2" d="M118,58.9c-0.6,2.8-3.3,4.7-6.2,4.1c-2.8-0.6-4.7-3.3-4.1-6.2c0.6-2.8,3.3-4.7,6.2-4.1
	C116.7,53.3,118.5,56,118,58.9"/>
<path class="st1" d="M221.2,41.9c0,0,12.8,2.4,14.9,3.3c0,0,2,16.4-5.6,34.3c0,0-9-0.8-16.9-4.3C213.6,75.2,220.9,63.4,221.2,41.9"
	/>
<path class="st2" d="M221.9,43c0,0,11.6,1.8,13.6,2.7c0,0,1.5,16.4-5.7,33.2c0,0-7.8-0.8-15.3-4.1C214.6,74.8,221.7,63.3,221.9,43"
	/>
<path class="st1" d="M234.6,49.5c0,0-2.9-0.5-2.6-3.6l-7.2-1c0,0,0.1,2-2.1,2.2c0,0-1.2,13.9-6,25.3c0,0,1.7,0.8,0.8,2.9
	c0,0,6.8,2.4,9.8,2.6c0,0,0.1-2.5,2.9-2.5C230.2,75.4,234.7,64.1,234.6,49.5"/>
<path class="st2" d="M218.6,66.6l1.5,0.7c0,0,3.2-8.7,3-12.5l-1.6-0.2C221.5,54.6,220.2,62.3,218.6,66.6"/>
<path class="st2" d="M227.8,74.3c0,0,1.6-5.1,1.6-6.4l-0.8-0.4c0,0-1.3,5.4-1.8,6.7L227.8,74.3z"/>
<path class="st2" d="M225.9,73.7c0,0,0.8-2.1,1.2-3.2l-0.8-0.4l-1,3.3L225.9,73.7z"/>
<path class="st2" d="M225.9,46.4c0,0-1.1,5.2-1,6.5l0.9,0.3c0,0,0.8-5.5,1.2-6.8L225.9,46.4z"/>
<path class="st2" d="M227.9,46.8c0,0-0.7,2.1-0.9,3.3l0.8,0.3l0.7-3.4L227.9,46.8z"/>
<path class="st2" d="M223.4,59.9c-1.1,2.4-0.1,5.2,2.2,6.3c2.4,1.1,5.2,0.1,6.3-2.2c1.1-2.4,0.1-5.2-2.2-6.3
	C227.4,56.6,224.6,57.6,223.4,59.9"/>
<path class="st2" d="M291.5,192.9c0,0,10,6,11.6,7.6c0,0-4.7,15.7-17.6,28.5c0,0-6.9-3.7-12.6-9.5
	C272.8,219.4,283.7,211.5,291.5,192.9"/>
<path class="st1" d="M300.8,203.5c0,0-2.5-1.5-1.1-4.3l-6.2-3.6c0,0-0.7,1.9-2.7,1.2c0,0-6.3,12.4-15,21.1c0,0,1.3,1.4-0.3,3
	c0,0,5.4,4.8,8,6.1c0,0,1-2.3,3.6-1.2C287,225.8,295.4,217.1,300.8,203.5"/>
<path class="st2" d="M279.6,213.4l1.1,1.2c0,0,6.2-6.8,7.4-10.4l-1.4-0.8C286.7,203.4,282.7,210,279.6,213.4"/>
<path class="st2" d="M285.3,223.9c0,0,3.4-4.1,3.9-5.3l-0.6-0.7c0,0-3.2,4.5-4.2,5.5L285.3,223.9z"/>
<path class="st2" d="M283.7,222.7c0,0,1.6-1.6,2.3-2.5l-0.6-0.6l-2.1,2.7L283.7,222.7z"/>
<path class="st2" d="M293.9,197.4c0,0-3,4.4-3.4,5.7l0.7,0.6c0,0,2.8-4.8,3.7-5.9L293.9,197.4z"/>
<path class="st2" d="M295.6,198.5c0,0-1.4,1.7-2.1,2.7l0.6,0.6l1.9-2.9L295.6,198.5z"/>
<path class="st2" d="M286.6,209c-1.9,1.8-2.1,4.7-0.3,6.7c1.8,1.9,4.7,2.1,6.7,0.3c1.9-1.8,2.1-4.7,0.3-6.7
	C291.5,207.4,288.5,207.2,286.6,209"/>
<path class="st2" d="M262,170.1c0,0,5.6,7.8,13.1,10.2c0,0,5.5,0.7,11-3.5c5.5-4.1,16.7-16.9,16.7-16.9l-15.1-6.3
	c0,0-7.4,11.3-12.7,14.8C269.5,172,262,170.1,262,170.1"/>
<path class="st1" d="M286.5,157.2c0,0,2.3,0.8,3.9-1.2l8.3,3.8c0,0-2,2.1-0.4,3.5c0,0-8.9,9.2-12.1,11.8c-3.2,2.6-5,3.7-7.5,3.9
	c0,0-0.2-2.6-5.2-0.9c0,0-5.3-2.3-7.5-5.4c0,0,1.9,0.4,1.8-1.2c0,0,3.4,0.4,8.1-2.5C279.4,167.1,286.5,157.2,286.5,157.2"/>
<path class="st2" d="M287.9,171c-0.9,2.3-3.5,3.5-5.9,2.6c-2.3-0.9-3.5-3.5-2.6-5.9s3.5-3.5,5.9-2.6
	C287.6,166,288.8,168.6,287.9,171"/>
<path class="st2" d="M287.3,163.9c0,0,3.5-3.9,4.5-5.5l1.2,0.5c0,0-4.2,5-5,5.7L287.3,163.9z"/>
<path class="st2" d="M290.4,163.1c0,0,2.8-3.5,3.1-3.7l0.6,0.3c0,0-2.9,3.5-3.2,3.8L290.4,163.1z"/>
<path class="st2" d="M270.4,174.8c0,0,3.7-1.2,5.2-2.3l0.5,0.5c0,0-3.8,1.9-5.3,2.2L270.4,174.8z"/>
<path class="st1" d="M148.5,96.1c0,0-10.2,4.1-14.4,12.9c0,0,8.5-3.1,14.7,1.7c6.2,4.8,12.4,15.2,12.4,15.2l17.1-7.8
	c0,0-11.1-12.1-17.4-17.4C154.7,95.4,148.5,96.1,148.5,96.1"/>
<path class="st2" d="M135.7,107.6c0,0,5.6-7.8,13.1-10.2c0,0,5.5-0.7,11,3.5c5.5,4.1,16.7,16.9,16.7,16.9l-15.1,6.3
	c0,0-7.4-11.3-12.7-14.8C143.2,105.8,135.7,107.6,135.7,107.6"/>
<path class="st1" d="M160.2,120.6c0,0,2.3-0.8,3.9,1.2l8.3-3.8c0,0-2-2.1-0.4-3.5c0,0-8.9-9.2-12.1-11.8c-3.2-2.6-5-3.7-7.5-3.9
	c0,0-0.2,2.6-5.2,0.9c0,0-5.3,2.3-7.5,5.4c0,0,1.9-0.4,1.8,1.2c0,0,3.4-0.4,8.1,2.5C153.1,110.7,160.2,120.6,160.2,120.6"/>
<path class="st2" d="M161.6,106.8c-0.9-2.3-3.5-3.5-5.9-2.6c-2.3,0.9-3.5,3.5-2.6,5.9c0.9,2.3,3.5,3.5,5.9,2.6
	C161.3,111.8,162.4,109.1,161.6,106.8"/>
<path class="st2" d="M161,113.9c0,0,3.5,3.9,4.5,5.5l1.2-0.5c0,0-4.2-5-5-5.7L161,113.9z"/>
<path class="st2" d="M164.1,114.7c0,0,2.8,3.5,3.1,3.7l0.6-0.3c0,0-2.9-3.5-3.2-3.8L164.1,114.7z"/>
<path class="st2" d="M144,103c0,0,3.7,1.2,5.2,2.3l0.5-0.5c0,0-3.8-1.9-5.3-2.2L144,103z"/>
<path class="st1" d="M145.9,36.7c0,0-0.6-9.3,4.5-15.8c0,0,0.8,7.7,6.8,10.6c6,3,16.3,3.8,16.3,3.8l0.5,16c0,0-13.4-4-19.8-6.8
	C147.7,41.7,145.9,36.7,145.9,36.7"/>
<path class="st2" d="M150,22.6c0,0-3.9,7.2-2.9,13.9c0,0,1.6,4.5,6.8,7.1c5.2,2.6,19.1,6.4,19.1,6.4l-0.8-13.9c0,0-11.5-1.5-16-4.2
	C151.3,29,150,22.6,150,22.6"/>
<path class="st1" d="M169.1,36.5c0,0,0.2,2,2.4,2.5l0.2,7.8c0,0-2.3-0.7-2.9,1c0,0-10.4-3.4-13.6-4.9c-3.2-1.5-4.7-2.5-5.8-4.3
	c0,0,1.9-1.1-1.3-4.3c0,0-0.2-4.9,1.3-7.8c0,0,0.4,1.6,1.6,1c0,0,0.9,2.7,4.9,5.3C158.8,34.7,169.1,36.5,169.1,36.5"/>
<path class="st2" d="M159,42.7c-2.1,0.2-4-1.4-4.2-3.5c-0.2-2.1,1.4-4,3.5-4.2c2.1-0.2,4,1.4,4.2,3.5
	C162.7,40.6,161.1,42.5,159,42.7"/>
<path class="st2" d="M164.3,39.6c0,0,4.3,1.2,5.9,1.4l0.1,1.1c0,0-5.4-1.3-6.2-1.7L164.3,39.6z"/>
<path class="st2" d="M166,41.7c0,0,3.7,0.8,4,1l0,0.6c0,0-3.8-0.9-4.1-1L166,41.7z"/>
<path class="st2" d="M149.6,30.7c0,0,2.3,2.4,3.7,3.1l-0.2,0.5c0,0-2.9-2.2-3.7-3.2L149.6,30.7z"/>
<path class="st1" d="M112.2,215.2c0,0-0.6-9.3,4.5-15.8c0,0,0.8,7.7,6.8,10.6c6,3,16.3,3.8,16.3,3.8l0.5,16c0,0-13.4-4-19.8-6.8
	C114,220.2,112.2,215.2,112.2,215.2"/>
<path class="st2" d="M116.2,201.1c0,0-3.9,7.2-2.9,13.9c0,0,1.6,4.5,6.8,7.1c5.2,2.6,19.1,6.4,19.1,6.4l-0.8-13.9
	c0,0-11.5-1.5-16-4.2C117.6,207.5,116.2,201.1,116.2,201.1"/>
<path class="st1" d="M135.3,215c0,0,0.2,2,2.4,2.5l0.2,7.8c0,0-2.3-0.7-2.9,1c0,0-10.4-3.4-13.6-4.9c-3.2-1.5-4.7-2.5-5.8-4.3
	c0,0,1.9-1.1-1.3-4.3c0,0-0.2-4.9,1.3-7.8c0,0,0.4,1.6,1.6,1c0,0,0.9,2.7,4.9,5.3C125,213.2,135.3,215,135.3,215"/>
<path class="st2" d="M125.2,221.2c-2.1,0.2-4-1.4-4.2-3.5c-0.2-2.1,1.4-4,3.5-4.2c2.1-0.2,4,1.4,4.2,3.5
	C128.9,219.1,127.4,221,125.2,221.2"/>
<path class="st2" d="M130.5,218.1c0,0,4.3,1.2,5.9,1.4l0.1,1.1c0,0-5.4-1.3-6.2-1.7L130.5,218.1z"/>
<path class="st2" d="M132.2,220.2c0,0,3.7,0.8,4,1l0,0.6c0,0-3.8-0.9-4.1-1L132.2,220.2z"/>
<path class="st2" d="M115.8,209.2c0,0,2.3,2.4,3.7,3.1l-0.2,0.5c0,0-2.9-2.2-3.7-3.2L115.8,209.2z"/>
<path class="st1" d="M208.2,122.3c0,0,8.5,3.8,10.7-6.5l12.5,3.8c0,0-4.4,8.2-10.7,8.7C216.7,128.8,210,124.7,208.2,122.3"/>
<path class="st2" d="M219.4,116.5c0,0-1.2,7.5-9.2,7.1c0,0,6.6,4.6,8.3,4.6c1.7-0.1,6.7,0,11.9-8.4
	C230.3,119.9,220.4,116.7,219.4,116.5"/>
<path class="st1" d="M210.9,124.5c0,0,5.7,0.1,8.2-5.4c0,0,1.6,0.7,2.4-1.1l5.9,1.8c0,0-1.5,1.4,0.2,2.5c0,0-4.5,6.5-10.5,5.5
	L210.9,124.5z"/>
<path class="st2" d="M223.4,119.9c0,0-0.8,2.2-1.9,3.2l0.7,0.2c0,0,1.4-2,1.7-3.3L223.4,119.9z"/>
<path class="st2" d="M224.4,120.3c0,0-0.5,1.6-1.2,2.4l0.7,0.2c0,0,0.8-1.5,1-2.4L224.4,120.3z"/>
<path class="st1" d="M202.6,111.8c0,0,9.5,3.9,12.8,3.9c0,0-1.8,12.9,6,12.6c0,0-5.5,1.5-16.2-4.5
	C205.2,123.9,199.9,119.8,202.6,111.8"/>
<path class="st2" d="M203,112.6c0,0,8.1,3.9,11.4,3.8c0,0-1.2,11.8,5.5,12.1c0,0-5.1,0.7-14.1-4.4
	C205.8,124.2,200.3,120.6,203,112.6"/>
<path class="st1" d="M218.9,128.6c0,0-5.4,0.3-5.8-9.4c0,0-2.2-0.2-1.7-2.5c0,0-4.3-0.8-6.7-2c0,0,0.2,1.6-1.8,1.3
	c0,0-0.9,5.3,3.3,8.4C206.2,124.4,213.3,128.6,218.9,128.6"/>
<path class="st2" d="M209.6,116.9c0,0-1.4,3.7,0.5,6.9l0.9,0.2c0,0-1.9-3.5-0.6-7L209.6,116.9z"/>
<path class="st2" d="M208.5,116.7c0,0-0.5,1.2-0.4,3.2c0,0,0,0.1,0.6,0.2c0-2,0.5-3.2,0.5-3.2L208.5,116.7z"/>
<path class="st2" d="M207.4,125.1c0,0,0.7-0.7,2.8-0.1c2.1,0.7,5.3,2.6,6.2,3.4C216.4,128.4,212.3,127.8,207.4,125.1"/>
<path class="st1" d="M269.9,69.4c0,0,12.7-1.6,7.8-15.1l17.3-4.5c0,0,0.7,12.7-6.3,17.9C284.4,70.9,273.7,70.9,269.9,69.4"/>
<path class="st2" d="M278.8,54.7c0,0,3.9,9.7-5.7,14.9c0,0,11.1,0.7,13-0.6c1.9-1.3,7.8-4.8,7.9-18.2
	C294,50.8,280.1,54.2,278.8,54.7"/>
<path class="st1" d="M274.6,70c0,0,6.7-3.9,5.8-12.2c0,0,2.4-0.3,2.1-3l8.2-2.1c0,0-0.8,2.8,2,2.8c0,0-0.6,10.8-8.4,13.9L274.6,70z"
	/>
<path class="st2" d="M286,55.8c0,0,0.7,3.1,0,5.1l1-0.3c0,0,0.2-3.3-0.4-5.1L286,55.8z"/>
<path class="st2" d="M287.4,55.5c0,0,0.5,2.3,0.2,3.6l1-0.3c0,0-0.2-2.3-0.6-3.6L287.4,55.5z"/>
<path class="st1" d="M255.8,61.1c0,0,13.9-2.2,17.7-4.6c0,0,7.1,16.4,16,10.5c0,0-5.3,5.7-22.1,6.3
	C267.4,73.4,258.4,72.4,255.8,61.1"/>
<path class="st2" d="M256.9,61.8c0,0,12.2-1.3,16-3.7c0,0,7,14.6,15,10.3c0,0-5.4,4.4-19.5,4.9C268.4,73.4,259.5,73.1,256.9,61.8"/>
<path class="st1" d="M286.9,69.1c0,0-6.1,4.2-13.4-6.8c0,0-2.7,1.3-3.8-1.7c0,0-5.6,2.1-9.2,2.4c0,0,1.3,1.7-1.2,2.8
	c0,0,2.7,6.9,9.8,7.5C269.1,73.3,280.3,73.2,286.9,69.1"/>
<path class="st2" d="M267.7,62.1c0,0,1.1,5.3,5.5,7.8l1.1-0.4c0,0-4.7-2.7-5.6-7.7L267.7,62.1z"/>
<path class="st2" d="M266.3,62.6c0,0,0.3,1.8,1.8,4.1c0,0,0.1,0.1,0.9-0.3c-1.5-2.4-1.7-4.1-1.7-4.1L266.3,62.6z"/>
<path class="st2" d="M270.9,73.2c0,0,0.3-1.3,3.2-2c2.9-0.7,8-0.8,9.7-0.5C283.7,70.7,278.5,72.9,270.9,73.2"/>
<path class="st1" d="M113.6,171.7l5.4-4.8c0,0-1.1-3.3-3.6-6.2c-2.6-2.8-4-3.7-4.4-3.4c-0.3,0.3-1.8,5.6-1.3,7.2
	C110.3,166.2,113.6,171.7,113.6,171.7"/>
<path class="st2" d="M111.1,158c0,0,4.3,2.5,7.5,8.8l-0.2,0.4c0,0-1.3-3.9-7.2-8.7C111.2,158.5,110.7,157.7,111.1,158"/>
<path class="st1" d="M113.7,160l-3.9,4l5.2,6.4l4-3.5C119.1,166.9,115.7,166.6,113.7,160"/>
<path class="st2" d="M110.5,164.2l2.8-2.9c0,0,2.2,4.8,5.2,6l-1.7,1.5C116.8,168.9,112.7,167.8,110.5,164.2"/>
<path class="st1" d="M111.1,157.3c0,0-10.7,10-12,11.6c0,0-1.1,3.3,2.7,6.8c3.8,3.6,7.6,2.5,7.6,2.5l11-9.3c0,0-3.8-0.8-6.4-4.6"/>
<path class="st2" d="M119.4,169.4c0,0-3.4-0.9-6-4.7c-2.6-3.8-3.1-5.5-3.1-6.6c0,0-9.4,8.7-10.7,10.3c0,0-0.9,3.4,2.8,6.9
	c3.2,3.1,6.3,2.3,6.3,2.3L119.4,169.4z"/>
<path class="st1" d="M109.2,159.1c0,0,0.9,4.8,6.4,9.7c0,0-0.6,1.6,0.5,2.3l-6.6,5.2c0,0-1.9-1-3.2,0.9c0,0-6.2-2-6.4-9
	C99.9,168,105.4,162.4,109.2,159.1"/>
<path class="st2" d="M108.8,175.4c0,0-4.4-2.6-5.2-6.1l0.7-0.9c0,0,1.4,4.1,5.6,6.3L108.8,175.4z"/>
<path class="st2" d="M110.6,174c0,0-1.7-0.5-3.3-2.4c0,0-0.1-0.1,0.5-0.7c1.7,2,3.4,2.7,3.4,2.7L110.6,174z"/>
<path class="st2" d="M107.9,160.4c0,0-1.8,6-6.1,5.8L107.9,160.4z"/>
<path class="st1" d="M245.9,236.2c0.2-0.1,0.4,0,0.5,0.2c0.1,0.3-0.4,0.8-0.2,1.4c0.1,0.2,0.2,0.3,0.4,0.2c0.6-0.3-0.5-1.9,1-2.5
	c0.8-0.3,1.6,0.3,1.8,0.7c0.1,0.1,0.1,0.1,0.3,0c0.3-0.1,0.3-0.1,0.4,0.2c0.1,0.3,0.2,0.3-0.1,0.5c-0.1,0-0.2,0.1-0.2,0.2
	c0.1,0.2,0.1,0.7,0.1,1c-0.1,0.3-0.6,0.6-0.9,0.7c-0.1,0.1-0.3,0.1-0.4-0.1c-0.2-0.4,0.8-0.7,0.4-1.6c-0.1-0.1-0.2-0.4-0.5-0.3
	c-0.2,0.1-0.2,0.1-0.2,0.9c0,0.6-0.2,1.4-0.9,1.6c-0.6,0.3-1.3,0-1.7-0.5c-0.1-0.1-0.1-0.1-0.3,0c-0.3,0.1-0.3,0.1-0.4-0.2
	c-0.1-0.3-0.2-0.3,0.1-0.5c0.1,0,0.2-0.1,0.2-0.2c0-0.1-0.1-0.4-0.1-0.4c0-0.1-0.1-0.1-0.2-0.2C245.2,236.9,245.5,236.3,245.9,236.2
	"/>
<path class="st1" d="M289.5,210.5c0.2,0.1,0.3,0.3,0.2,0.5c-0.2,0.3-0.9,0.2-1.2,0.7c-0.1,0.2-0.1,0.3,0.1,0.5
	c0.6,0.3,1.2-1.6,2.6-0.8c0.8,0.4,0.8,1.5,0.6,1.9c-0.1,0.1,0,0.2,0.1,0.2c0.3,0.2,0.3,0.2,0.1,0.5c-0.1,0.3-0.1,0.3-0.4,0.2
	c-0.1-0.1-0.2-0.1-0.3,0c-0.2,0.2-0.5,0.6-0.7,0.7c-0.3,0.1-0.9-0.1-1.1-0.2c-0.1-0.1-0.3-0.2-0.2-0.4c0.2-0.4,1,0.2,1.5-0.7
	c0.1-0.1,0.2-0.4,0-0.6c-0.2-0.1-0.2-0.1-0.8,0.4c-0.5,0.4-1.2,0.7-1.8,0.3c-0.6-0.3-0.8-1.1-0.6-1.7c0.1-0.2,0-0.2-0.1-0.2
	c-0.3-0.2-0.3-0.2-0.1-0.5c0.1-0.3,0.1-0.3,0.4-0.2c0.1,0,0.2,0.1,0.3,0.1c0.1-0.1,0.3-0.3,0.3-0.3c0-0.1,0-0.2,0.1-0.3
	C288.4,210.4,289.1,210.3,289.5,210.5"/>
<path class="st1" d="M283.3,167.4c0.2,0.1,0.3,0.3,0.2,0.5c-0.2,0.3-0.9,0.2-1.2,0.7c-0.1,0.2-0.1,0.3,0.1,0.5
	c0.6,0.3,1.2-1.6,2.6-0.8c0.8,0.5,0.7,1.5,0.5,1.9c-0.1,0.1,0,0.2,0.1,0.2c0.3,0.2,0.3,0.2,0.1,0.5c-0.1,0.3-0.1,0.3-0.4,0.2
	c-0.1-0.1-0.2-0.1-0.3,0c-0.2,0.2-0.5,0.6-0.7,0.7c-0.3,0.1-0.9-0.1-1.1-0.2c-0.1-0.1-0.2-0.2-0.2-0.4c0.2-0.4,1,0.2,1.5-0.7
	c0.1-0.1,0.2-0.4,0-0.6c-0.2-0.1-0.2-0.1-0.8,0.4c-0.5,0.4-1.2,0.7-1.8,0.3c-0.6-0.3-0.8-1.1-0.6-1.7c0.1-0.2,0-0.2-0.1-0.2
	c-0.3-0.2-0.3-0.2-0.1-0.5c0.2-0.3,0.1-0.3,0.4-0.2c0.1,0,0.2,0.1,0.3,0.1c0.1-0.1,0.3-0.3,0.3-0.3c0-0.1,0-0.2,0.1-0.3
	C282.3,167.2,282.9,167.2,283.3,167.4"/>
<path class="st1" d="M127.1,216.9c-0.1,0.2-0.3,0.3-0.5,0.3c-0.3-0.1-0.3-0.9-0.9-1.1c-0.2-0.1-0.4,0-0.4,0.2
	c-0.2,0.6,1.7,0.9,1.2,2.4c-0.3,0.8-1.3,1-1.8,0.9c-0.1,0-0.2,0-0.2,0.2c-0.1,0.3-0.1,0.3-0.4,0.2c-0.3-0.1-0.4-0.1-0.2-0.4
	c0-0.1,0.1-0.2,0-0.3c-0.2-0.1-0.6-0.4-0.8-0.6c-0.1-0.2,0-0.9,0-1.1c0.1-0.1,0.2-0.3,0.3-0.2c0.4,0.2,0,1,0.9,1.4
	c0.1,0,0.5,0.1,0.5-0.1c0.1-0.2,0-0.3-0.5-0.8c-0.5-0.4-0.9-1-0.6-1.7c0.2-0.6,0.9-1,1.5-0.9c0.2,0,0.2,0,0.2-0.2
	c0.1-0.3,0.1-0.3,0.4-0.2c0.3,0.1,0.4,0.1,0.2,0.4c0,0.1-0.1,0.2,0,0.3c0.1,0,0.3,0.2,0.4,0.3c0.1,0,0.2,0,0.3,0
	C127.1,215.8,127.3,216.5,127.1,216.9"/>
<path class="st1" d="M119.2,133c-0.1,0.1-0.3,0.1-0.4,0c-0.2-0.2,0.2-0.7-0.1-1c-0.1-0.1-0.2-0.2-0.4-0.1c-0.4,0.3,0.7,1.3-0.3,2.1
	c-0.6,0.4-1.3,0.1-1.5-0.2c-0.1-0.1-0.1-0.1-0.2,0c-0.2,0.2-0.2,0.1-0.4-0.1c-0.1-0.2-0.2-0.2,0-0.4c0.1-0.1,0.2-0.1,0.1-0.2
	c-0.1-0.2-0.2-0.5-0.2-0.7c0-0.2,0.3-0.6,0.5-0.7c0.1-0.1,0.2-0.1,0.3,0c0.2,0.3-0.4,0.7,0,1.3c0.1,0.1,0.3,0.3,0.4,0.2
	c0.1-0.1,0.1-0.1,0-0.7c-0.1-0.5-0.1-1,0.3-1.4c0.4-0.3,1-0.2,1.4,0.1c0.1,0.1,0.1,0.1,0.2,0c0.2-0.2,0.2-0.1,0.4,0.1
	c0.1,0.2,0.2,0.2,0,0.4c-0.1,0-0.2,0.1-0.1,0.2c0,0.1,0.1,0.3,0.1,0.3c0,0,0.1,0.1,0.2,0.1C119.6,132.3,119.4,132.8,119.2,133"/>
<path class="st1" d="M159.1,109.1c-0.2,0.1-0.4,0.2-0.5,0c-0.2-0.3,0.2-0.9-0.2-1.4c-0.1-0.1-0.3-0.2-0.5-0.1
	c-0.5,0.4,1,1.7-0.3,2.7c-0.7,0.5-1.7,0.1-2-0.2c-0.1-0.1-0.1-0.1-0.3,0c-0.3,0.2-0.3,0.2-0.5-0.1c-0.2-0.2-0.3-0.3,0-0.5
	c0.1-0.1,0.2-0.1,0.1-0.2c-0.1-0.2-0.3-0.7-0.3-0.9c0-0.3,0.4-0.8,0.6-0.9c0.1-0.1,0.3-0.1,0.4,0c0.3,0.4-0.6,0.9,0,1.7
	c0.1,0.1,0.3,0.3,0.5,0.2c0.2-0.1,0.2-0.2,0-0.9c-0.2-0.6-0.2-1.4,0.4-1.8c0.6-0.4,1.3-0.3,1.8,0.1c0.1,0.1,0.1,0.1,0.3,0
	c0.3-0.2,0.3-0.2,0.5,0.1c0.2,0.2,0.3,0.3,0,0.5c-0.1,0.1-0.2,0.1-0.2,0.2c0,0.1,0.2,0.4,0.2,0.4c0,0.1,0.2,0.1,0.2,0.2
	C159.7,108.2,159.5,108.8,159.1,109.1"/>
<path class="st1" d="M112.3,55.6c0.2,0.1,0.4,0.3,0.3,0.5c-0.1,0.4-1,0.3-1.2,1c-0.1,0.2,0,0.4,0.2,0.5c0.7,0.3,1.1-2,2.8-1.3
	c1,0.4,1.1,1.6,0.9,2.1c-0.1,0.2,0,0.2,0.2,0.2c0.4,0.1,0.3,0.2,0.2,0.5c-0.1,0.3-0.1,0.4-0.5,0.3c-0.1,0-0.2-0.1-0.3,0
	c-0.1,0.2-0.5,0.7-0.7,0.9c-0.3,0.2-1,0-1.3-0.1c-0.2-0.1-0.3-0.2-0.2-0.4c0.2-0.5,1.2,0,1.6-1c0.1-0.1,0.1-0.5-0.1-0.6
	c-0.2-0.1-0.3,0-0.9,0.6c-0.5,0.5-1.2,1-2,0.7c-0.7-0.3-1.1-1.1-1-1.8c0-0.2,0-0.2-0.2-0.3c-0.4-0.1-0.3-0.2-0.2-0.5
	c0.1-0.3,0.1-0.4,0.5-0.3c0.1,0,0.2,0.1,0.3,0c0.1-0.1,0.3-0.4,0.3-0.4c0-0.1,0-0.2,0.1-0.3C111.1,55.6,111.8,55.4,112.3,55.6"/>
<path class="st1" d="M160.8,38.4c-0.1,0.2-0.2,0.4-0.4,0.3c-0.3-0.1-0.4-0.8-1-1c-0.2,0-0.4,0-0.4,0.2c-0.2,0.6,1.8,0.7,1.5,2.3
	c-0.2,0.9-1.2,1.1-1.7,1.1c-0.2,0-0.1,0-0.2,0.2c-0.1,0.3-0.1,0.3-0.4,0.2c-0.3-0.1-0.4,0-0.3-0.4c0-0.1,0.1-0.2,0-0.3
	c-0.2-0.1-0.7-0.3-0.8-0.5c-0.2-0.2-0.2-0.9-0.1-1.1c0-0.2,0.1-0.3,0.3-0.3c0.4,0.1,0.1,1,1.1,1.3c0.1,0,0.5,0,0.5-0.2
	c0-0.2,0-0.3-0.6-0.7c-0.5-0.4-1-0.9-0.8-1.6c0.2-0.7,0.8-1.1,1.4-1.1c0.2,0,0.2,0,0.2-0.2c0.1-0.3,0.1-0.3,0.4-0.2
	c0.3,0.1,0.4,0,0.3,0.4c0,0.1-0.1,0.2,0,0.3c0.1,0,0.4,0.2,0.4,0.2c0.1,0,0.2,0,0.3,0C160.6,37.4,160.9,38,160.8,38.4"/>
<path class="st1" d="M226.7,60.3c0.2,0,0.4,0.2,0.3,0.4c-0.1,0.3-0.8,0.4-0.9,1c0,0.2,0,0.4,0.2,0.4c0.7,0.1,0.7-1.9,2.2-1.5
	c0.9,0.2,1.2,1.2,1.1,1.6c0,0.2,0,0.1,0.2,0.2c0.3,0.1,0.3,0.1,0.3,0.4c-0.1,0.3,0,0.4-0.4,0.3c-0.1,0-0.2-0.1-0.3,0
	c-0.1,0.2-0.3,0.7-0.5,0.9c-0.2,0.2-0.9,0.2-1.1,0.1c-0.2,0-0.3-0.1-0.3-0.3c0.1-0.4,1-0.1,1.2-1.1c0-0.1,0-0.5-0.2-0.5
	c-0.2,0-0.3,0-0.7,0.6c-0.3,0.5-0.9,1-1.6,0.9c-0.7-0.1-1.1-0.8-1.1-1.4c0-0.2,0-0.2-0.2-0.2c-0.3-0.1-0.3-0.1-0.3-0.4
	c0.1-0.3,0-0.4,0.4-0.3c0.1,0,0.2,0.1,0.3,0c0-0.1,0.2-0.4,0.2-0.4c0-0.1,0-0.2,0-0.3C225.7,60.4,226.3,60.2,226.7,60.3"/>
<g>
	<path class="st1" d="M173.1,195.5c-0.3-0.9-1.2-1.7-1.9-2.3c-0.6-0.6-1.4-1-2.3-1.2c-0.3-0.2-0.6-0.4-0.9-0.5c0,0-0.1,0-0.1,0
		c-1-1.2-2-2.3-3-3.5c-1-1.2-1.9-2.5-2.7-3.8c-0.4-1-1-2.1-1.4-2.9c-0.5-1.2-1.1-2.5-1.6-3.7c0-0.1-0.1-0.2-0.1-0.3
		c0-0.1-0.1-0.1-0.1-0.1c0,0,0-0.1,0-0.1c-0.1-1.3-0.4-2.6-0.5-3.9c-0.3-2.6-0.6-5.2-0.8-7.9c-0.1-0.8-0.2-1.6-0.2-2.4
		c-0.1-1.9-0.3-3.8-0.4-5.7c-0.2-2.8-0.4-5.7-1.1-8.5c0-0.1,0-0.2,0-0.2c0-1.5-0.4-3.2-0.5-4.7c-0.1-1.3-0.1-2.5-0.1-3.7
		c0.6-1.2,1.4-2.5,1.6-3.8c0.5-0.5,0.8-1.5,0.8-2.4c0.1-0.5,0.1-1,0.1-1.5c0.1-1.1,0.5-2.1,0.6-3.2c0,0,0,0-0.1,0
		c-0.8,0.5-1,1.6-1.2,2.5c-0.1,0.7-0.4,1.7-0.3,2.5c0,0.1-0.1,0.2-0.1,0.4c0,0,0,0.1,0,0.1c0,0,0,0,0,0c-0.1,0-0.1,0-0.2,0.1
		c-0.4,0.4-0.7,0.9-0.9,1.4c-0.1,0.1-0.3,0.3-0.4,0.4c-0.2,0.2-0.5,0.3-0.8,0.4c-0.1,0-0.1,0.1-0.2,0.1c0,0,0,0,0,0
		c-0.1,0-0.2,0-0.2,0.1c0,0,0,0.1,0,0.1c-0.3,0.3-0.5,0.6-0.6,1c-0.2,0.6-0.6,1-1.1,1.5c-0.7,0.9-2.5,1-3.6,1c-0.1,0-0.1,0.1,0,0.1
		c1.4,0.8,2.7,0.5,4.2,0.2c0,0,0,0,0,0c0.1,0,0.2,0,0.3,0.1c0,0.5,0,1,0.1,1.5c-0.3,2-0.3,4.2-0.2,6.3c-0.2,1.3-0.1,2.6-0.1,3.9
		c0,1.6,0,3.2,0,4.8c0.1,6.5,0.7,13,1.7,19.4c0.8,5.1,3,9.3,6.5,13.2c1.6,1.8,3.4,3.4,5.1,5.1c1.7,1.6,3.4,3.6,5.4,4.9
		c0.4,0.3,1-0.2,0.8-0.7c0-0.1,0-0.1-0.1-0.2c0.1-0.1,0.2-0.2,0.3-0.3c0.1-0.1,0.2-0.1,0.2-0.2c0.1-0.1,0.1-0.2,0.1-0.3
		c0.1-0.1,0.1-0.2,0.2-0.4c0.2-0.6,0.6-1.3,0.5-1.9C173.7,195.7,173.4,195.5,173.1,195.5z M154.5,142.6c0-0.1,0-0.1,0-0.2
		c0.1-0.3,0.1-0.6,0.2-1c0.1-0.2,0.1-0.5,0.2-0.8C154.8,141.3,154.6,142,154.5,142.6z"/>
	<path class="st1" d="M259.8,142c-0.2-2.2-0.4-4.3-0.8-6.4c-0.2-1.1-0.4-2.2-0.6-3.2c-0.1-0.5-0.2-1-0.3-1.5c0-0.6,0-1.3-0.2-1.9
		c0.2-1,0.3-2.2,0.4-3.2c0.2-1.8,0.2-3.6-0.1-5.4c0-0.1-0.1-0.1-0.1,0c-0.1,1.8-0.2,3.6-0.4,5.3c-0.2,1.2-0.5,2.3-0.7,3.5v0
		c-0.1,0-0.2,0-0.2,0.1c-0.1,0.1-0.3,0.3-0.4,0.4c-0.1,0.1-0.2,0.2-0.3,0.3c-0.2-0.1-0.5-0.1-0.7,0c0,0,0,0,0,0
		c-0.5,0-1.1,0.2-1.7,0.2c-0.8,0.1-1.8-0.2-2.5,0.1c-0.1,0-0.2,0.2-0.1,0.3c0.6,0.6,1.5,0.6,2.3,0.7c0.8,0.1,1.8,0.2,2.5-0.3
		c1.4,4.1,1.5,8.5,1.5,12.8c-0.1,5.9-0.3,11.8-0.9,17.6c-0.7,7-2.4,13.9-5.2,20.3c-2.6,6-6.4,10.8-11.1,15.3c-0.9,0.9,0,2.1,1,2
		c0.1,0.1,0.2,0.1,0.2,0.1c0.1,0.1,0.2,0.1,0.3,0.2c0,0.2,0.1,0.3,0.1,0.5c0.1,0.3,0.3,0.6,0.6,0.6c0.1,0,0.2,0,0.4,0.1
		c0.3,0.1,0.7,0,0.9-0.2c0.7-0.7,1.1-1.7,1.6-2.6c1-0.6,1.7-1.5,2.5-2.4c1.4-1.9,2.7-3.9,3.8-6c1.2-2.1,2.4-4.2,3.2-6.6
		c0.3-0.9,0.6-1.9,0.8-2.8c0.8-1.3,1.3-3,1.7-4.4c0.6-2.2,1-4.4,1.3-6.6c0.7-4.3,1-8.8,1.2-13.1C260.2,151.1,260.2,146.5,259.8,142z
		"/>
	<path class="st1" d="M247.3,207c-0.2-0.4-0.5-0.8-0.9-1.1c0,0-0.1-0.1-0.1-0.1c-0.1-0.1-0.2-0.3-0.3-0.4c-0.1-0.1-0.2-0.2-0.3-0.3
		c-0.1-0.2-0.3-0.3-0.5-0.4c0-0.5-0.4-0.9-0.9-0.9c0-0.3-0.1-0.5-0.2-0.7c-0.1-0.2-0.4-0.2-0.5,0.1c0,0.1-0.1,0.2-0.1,0.3
		c-0.2,0.2-0.3,0.5-0.4,0.7c-0.5,0.2-0.9,0.5-1.3,0.7c-0.9,0.5-1.8,0.8-2.6,1.3c-1.8,0.9-3.5,2-5.3,3.1c-0.5,0.3-0.9,0.6-1.4,0.8
		c-0.9,0.3-1.8,0.6-2.7,1c-2.8,1-5.5,2.2-8.2,3.2c-1.6,0.6-3.3,1.2-4.9,1.7c-1.7,0.5-3.5,0.8-5,1.7c-0.1,0.1-0.1,0.2-0.1,0.3
		c-0.7,1.3-0.9,3.1-1.2,4.6c-0.4,1.8-0.5,3.6-0.7,5.3c-0.5,3.6-1.1,7.2-1.6,10.8c-0.5,3.7-0.9,7.4-1.1,11.2
		c-0.1,0.9-0.1,1.8-0.2,2.8c-0.2,0.8-0.3,1.6-0.5,2.4c-0.4,1.8-0.8,3.6-1,5.4c-0.1,0.2-0.3,0.3-0.5,0.5c-0.7,0.8-1.4,1.6-2.1,2.4
		c-0.1,0.1-0.2,0.3-0.4,0.5c-1.2-0.1-2.4-0.1-3.6-0.2c-2.8-0.2-5.6-0.4-8.5-0.7c-1.6-0.2-3.3-0.3-4.9-0.4c-0.9-0.1-1.8-0.2-2.7-0.3
		c-0.6-0.1-1.2,0.1-1.9,0c-0.1,0-0.1,0.1,0,0.1c0.5,0.3,1,0.7,1.6,0.9c0.7,0.3,1.5,0.5,2.3,0.7c1.6,0.5,3.2,0.8,4.8,1.1
		c3.1,0.6,6.2,0.9,9.3,1.4c0.1,0,0.3,0,0.4,0.1c0,0.3,0.2,0.6,0.6,0.6c0.6,0,1.1-0.1,1.7-0.2c0.5,0.1,1,0.1,1.5,0.2
		c-0.2,0.5-0.5,1-0.8,1.4c-0.2,0.4,0.3,0.8,0.6,0.5c0.6-0.6,1.1-1.2,1.5-1.8c1.1,0.1,2.1,0.2,3.2,0.2c1.5,0.1,2.9-0.1,4.4-0.3
		c0.4-0.1,0.7-0.1,1-0.2c0.4,0,0.8,0,1.2,0c2.1,0.1,4.7,0,6.5-1.2c0.2,0,0.3-0.1,0.5-0.1c0.7-0.4,0.7-1.4,0.6-2.1
		c0-0.2-0.1-0.4-0.1-0.5c0.3-1.2-0.1-3.1-0.1-4c-0.1-1-0.1-2-0.3-3c-0.1-2.6-0.2-5.3-0.2-7.9c0-0.2,0-0.3,0-0.5
		c0.1-3.4,0.3-6.8,0.6-10.2c0.1-1.1,0.2-2.1,0.4-3.2c0.6-3.5,1.4-6.9,2.5-10.2c0.7-0.7,1.2-1.8,1.6-2.7c0.3-0.7,0.7-1.5,0.9-2.3
		c0.1,0,0.2-0.1,0.3-0.1c1.1-0.3,2.2-0.6,3.2-0.9c2.5-0.8,5-1.6,7.4-2.5c2.4-0.9,4.7-2.1,6.7-3.6c1.1-0.8,3.9-3,3.1-4.6
		C247.5,207.1,247.4,207,247.3,207z"/>
	<path class="st1" d="M210.8,218.3c0.1,0,0.1-0.1,0-0.1C210.8,218.2,210.8,218.3,210.8,218.3z"/>
</g>
<path class="st2" d="M244.1,380.9c-0.4,0-0.8,0.1-1.2,0.1c-0.2-0.2-0.4-0.3-0.7-0.5c-0.6-0.3-1.3-0.4-2-0.4c-0.4,0-0.8,0.1-1.1,0.4
	c-0.1-0.1-0.2-0.1-0.4-0.2c-0.4-0.2-0.9-0.2-1.4-0.1c0.1-1.2-0.4-2.6-1-3.8c0-1-0.2-2.1-0.4-3c-0.1-0.5-0.2-1-0.3-1.6
	c-0.1-1.1-0.3-2.2-0.5-3.2c-0.1-0.7-0.4-1.4-0.6-2.1c-0.4-3.3-0.9-6.6-1.4-9.8c-1.4-9.2-2.9-18.3-4.2-27.5
	c-0.6-4.6-1.2-9.2-1.9-13.8c-0.7-4.6-1.7-9.1-2.4-13.6c-1.5-9-2.6-18.1-4.4-27c-0.4-1.9-1-3.8-1.8-5.6c0.6-0.6,0.7-1.6-0.2-2.1
	c-1.2-0.6-2.6-0.6-3.9-0.5c-1.8,0.1-3.6,0.2-5.4,0.2c-4.1,0-8.2-0.4-12.3-1c-3.9-0.6-7.8-1.5-11.6-2.6c-2-0.6-4-1.2-6.1-1.8
	c-1.3-0.4-3.2-0.9-4.5-0.5c-0.2-0.2-0.6-0.1-0.6,0.2c-0.1,0-0.1,0.1-0.1,0.2c-0.4,1.9-0.2,3.8-0.1,5.7c0.1,2,0.3,4.1,0.5,6.1
	c0.4,3.6,1,7.1,1.2,10.7c0.1,3.2,0.1,6.4,0.3,9.5c0,0.8,0.1,3,0.5,4.6c-0.1,1-0.1,2.1-0.1,3.1c0.1,3.3,0.7,6.6,1,9.8
	c0.4,3.4,0.6,6.9,1,10.4c0.4,3.3,0.7,6.7,1,10c-0.3,2.6,0,5.3,0.2,7.9c0.1,1.6,0.2,3.2,0.2,4.9c-0.5,4.3-0.3,8.7-0.1,13.1
	c-0.2,1.2-0.3,2.5-0.4,3.7c-0.2,1.8-0.4,3.6-0.5,5.4c-0.3,3.2-0.9,6.9-0.3,10.1c-0.1,0.5-0.2,0.9-0.4,1.4c-0.5,0.4-1,0.8-1.5,1.1
	c-1.7,1-3.4,1.9-5.3,2.6c-1.8,0.7-3.5,1-5.4,1.1c-1.3,0.1-2.4,0.2-3.6,0.6c-0.5-0.1-0.9-0.1-1.4-0.1c0,0,0,0-0.1,0
	c-0.3-0.4-0.8-0.7-1.3-0.3c-0.1,0.1-0.2,0.2-0.3,0.3c-0.6-0.5-1.6-0.1-2.2,0.2c-0.3,0.1-0.4,0.5-0.3,0.8c0,0,0,0,0,0
	c-0.4,0.4-0.6,0.9-0.8,1.5c-0.1,0.3-0.2,0.6-0.2,1.1c-0.1,0.2-0.1,0.5,0,0.7c0,0.6,0.2,1.2,0.9,1.3c0.1,0,0.2,0,0.3,0
	c0.8,0.3,2,0.3,2.6,0.3c0.2,0,0.5,0,0.7,0c3,0.6,6.2,0.5,9.2,0.3c2.3-0.1,4.4-0.5,6.5-1.1c0.1,0,0.3-0.1,0.4-0.1c0,0,0,0.1,0.1,0.1
	c1.3,1.1,3.1,1.2,4.8,1.2c1.9,0,4.1,0,5.9-0.8c0.4-0.2,0.8-0.4,1.1-0.7c0.3,0.1,0.7-0.1,0.9-0.4c0.3-0.4,0.6-1.3,0.5-1.9
	c0.1-0.5,0.1-0.9,0.1-1.4c0-0.6-0.1-1.5-0.2-2.3c0.7-1.3,1-2.9,1.2-4.2c0.5-2.8,0.6-5.6,0.8-8.5c0.2-3.5,0.8-7,1.1-10.5
	c0.4-4.5,0.6-9.1,0.6-13.6c0-9.3,0.5-18.6,0.5-27.9c0.1-9.3-0.6-18.5-0.6-27.7c0-2.4,0-4.8,0-7.2c0-1.8-0.3-3.8-0.1-5.6
	c0,0,0.1-0.1,0.1-0.1c0.5-0.2,1-0.5,1.5-0.9c0.5,0.3,1,0.4,1.4,0.6c1.3,0.5,2.6,0.8,4,1.1c0.2,0,0.5,0.1,0.7,0.1
	c0.1,1.4,0.6,2.8,1,4.1c0.7,2.3,1.4,4.5,2.1,6.7c1.4,4.3,2.9,8.6,4.3,12.9c2.9,8.8,5.1,17.8,7.3,26.8c2.2,9.2,4.3,18.4,6.2,27.7
	c0.9,4.4,1.6,8.7,2,13.1c0.4,4.2,0.7,8.4,1.2,12.5c0.2,1.1,0.3,2.3,0.6,3.4c-0.5,0.6-0.4,1.5-0.3,2.4c0.3,1.5,1.9,1.7,3.2,1.8
	c1.3,0.1,3.4-0.1,5.1-0.8c0.4,0.3,0.9,0.4,1.4,0.5c0.3,0,0.6,0,1,0c1.5,0.5,3.7,0.3,5.2,0.2c0.4,0.1,0.8,0.1,1.2,0.1
	c0.7,0.2,1.8,0,2.4-0.2c0.6-0.1,1.2-0.4,1.9-0.7c0.2,0,0.3,0,0.5-0.1c0.4-0.2,1-0.3,1.4-0.7c0.3-0.3,0.4-0.7,0.3-1.1
	c0.1-0.1,0.1-0.2,0.1-0.4C249,382.9,246.6,381,244.1,380.9z M244.9,384.9C245,385,245,385.1,244.9,384.9L244.9,384.9z"/>
<g>
	<path class="st2" d="M207.3,168.2c1.1-0.9,2.5-1.4,3.9-1c1.5,0.4,2.2,1.9,2.5,3.3c0.1,0.5,0.9,0.3,0.8-0.2c-0.3-1.7-1.3-3.2-3-3.8
		c-1.7-0.6-3.5,0.1-4.9,1.1C206.2,167.9,206.8,168.5,207.3,168.2z"/>
	<path class="st2" d="M193.9,164.2c1.1-0.9,2.4-1.4,3.8-1c1.4,0.4,2.1,1.9,2.3,3.2c0.1,0.5,0.9,0.6,0.9,0c-0.2-1.7-0.9-3.3-2.6-4
		c-1.7-0.6-3.5,0.1-4.9,1.2C192.9,164,193.5,164.6,193.9,164.2z"/>
	<path class="st2" d="M192.9,185.8c2.1,1.9,5,2.3,7.6,2.3c3.8,0,6.8-2.3,9.5-4.7c0.6-0.5,1.1-1,1.7-1.6c0.1-0.1,0.1-0.2,0.1-0.3
		c0-0.3-0.3-0.6-0.7-0.5c-0.3,0.1-0.7,0.1-1,0.1c-0.5,0-0.9,0-1.4-0.1c-1-0.1-1.9-0.3-2.9-0.5c-2.1-0.5-4.2-1.2-6.2-2
		c-3.7-1.6-7.4-3.7-10-6.8c-0.3-0.3-0.7,0-0.7,0.3c0,0.1,0,0.1,0,0.2C189.5,176.8,189.3,182.5,192.9,185.8z M190,173.3
		c2.6,2.7,6.2,4.7,9.6,6.1c2.1,0.9,4.3,1.6,6.5,2.1c1,0.2,1.9,0.3,2.9,0.4c0.4,0,0.8,0.1,1.2,0.1c-2.3,2.2-4.9,4.5-8.1,5.1
		c-1.6,0.3-3.4,0.1-5-0.2c-1.2-0.3-2.4-0.7-3.3-1.5c-1.8-1.4-2.6-3.5-3.1-5.7C190.3,177.7,190.2,175.5,190,173.3z"/>
	<path class="st2" d="M259,130.6c0,0,0-0.1,0-0.1c0,0,0-0.1,0-0.1c0-0.1-0.1-0.3-0.1-0.4c0,0,0-0.1,0-0.1c-0.1-0.6-0.1-1.3-0.1-1.9
		c0-1.2,0.1-2.5,0.2-3.7c0.1-1.1,0.1-2.3,0.1-3.4c0-0.7,0-1.5-0.3-2.2c-0.1-0.2-0.4-0.3-0.6-0.2c-1,0.8-1.3,2-1.6,3.1
		c-0.2-1.9-0.3-4.1-1.6-5.5c-0.2-0.3-0.6-0.1-0.7,0.2c-0.5,1.4,0,3-0.3,4.4c-0.9-2.1-1.4-4.4-3.1-6c-0.2-0.2-0.6-0.1-0.7,0.2
		c-0.3,1.2-0.1,2.4,0.3,3.5c0.3,0.8,0.6,1.6,0.8,2.4c-1-1.4-1.8-3-3.4-3.9c-0.2-0.1-0.6,0-0.6,0.3c-0.5,1.7,0.9,3.6,1.7,4.9
		c0.5,0.8,2.2,3.2,1.3,4.2c-0.1,0-0.1,0.1-0.2,0.2c-0.8-1.2-2.2-1.7-3.5-2.2c-0.2-0.1-0.4,0-0.5,0.2c-0.2,0.3-0.2,0.6-0.3,1
		c0,0.2,0.1,0.3,0.2,0.4c0,0,0,0.1,0.1,0.1c1.2,1.3,0.9,3.5,2.5,4.5c0.7,0.4,1.5,0.6,2.3,0.8c0.3,0.1,1.8,0.3,1.8,0.7
		c0,0.1,0,0.2,0.1,0.2c0.5,1.8,1,3.6,1.3,5.5c0.3,2,0.3,3.9,0.2,5.9c-0.2,4-1.1,7.9-2.1,11.8c-1.9,7.7-4.4,15.4-3.9,23.4
		c0,0.4,0.1,0.7,0.1,1.1c0,0-0.1,0.1-0.1,0.1c-3.7,4.6-8,8.6-11.8,13.1c0,0,0,0,0,0c-0.1-0.2-0.3-0.2-0.5-0.1c-0.1,0-0.3,0-0.4,0.1
		c-4,3.6-9.2,5.2-14.4,6.3c-5.2,1-10.5,1.4-15.7,2c0-2.9,0.1-5.8,0.3-8.7c0-0.6-0.8-0.6-0.9,0c-0.1,1.9-0.2,3.7-0.2,5.6
		c0,0.1-0.1,0.2,0,0.4c0,1.3,0,2.6,0,3.9c-1.5,1.6-3.4,2.6-5.6,2.5c-2.3-0.1-4.3-1.4-5.6-3.2c0,0,0-0.1,0-0.1c0.3-2.9,0.3-5.8,0-8.7
		c-0.1-0.6-0.9-0.6-0.9,0c0.3,2.8,0.3,5.6,0,8.4c0,0-0.1,0-0.2-0.1c-7.9-0.9-15.5-3.9-21.6-8.9c-3-2.5-5.6-5.4-7.6-8.7
		c-1.7-3-2.9-6.2-3.6-9.6c-1.5-7.1-1.3-14.5-2.1-21.7c0-0.1,0-0.2-0.1-0.2c-0.5-4.3-1.2-8.7-1.2-13.1c0.4-1.7,2-2.7,2.3-4.4
		c0.3-1.8-0.7-3.7,0.9-4.9c0.1,0,0.1-0.1,0.1-0.2c0.2-0.1,0.4-0.4,0.1-0.7c-0.1-0.2-0.2-0.5-0.3-0.7c-0.1-0.1-0.2-0.2-0.4-0.2
		c-1.1-0.1-2.1,0.2-2.8,1.1c-0.7,0.8-0.9,1.9-1.4,2.9c-2.5,1.6-4.8-0.7-6.5-2.5c-1.7-1.7-3.9-4.1-6.6-3.6c-0.3,0.1-0.4,0.4-0.3,0.6
		c0.3,0.7,1,1.4,1.5,2c0.3,0.4,0.6,0.8,0.9,1.2c0.1,0.1,0.2,0.3,0.3,0.5c0,0,0,0,0,0c-2.3-1.2-4.5-3.9-7.3-2.9
		c-0.2,0.1-0.4,0.4-0.3,0.6c0.7,1,1.7,1.7,2.7,2.3c0.9,0.6,1.8,1.2,2.4,2c-1.1,0.1-2.2-0.5-3.1-0.9c-1.3-0.5-2.6-0.7-3.9,0
		c-0.2,0.1-0.3,0.4-0.2,0.6c1.3,1.8,3.5,1.9,5.4,2.9c-0.9,0.4-2.2,0-3.1-0.2c-1.1-0.2-2.2-0.1-3.2,0.5c-0.7,0.4-0.7,1.2-0.1,1.7
		c0.8,0.7,2,1,2.9,1.1c3.3,0.6,9.9-0.5,10.6,4.1c0,0.1,0,0.1,0.1,0.2c0.4,7.3,0,14.6,0.2,21.8c0.1,3.8,0.4,7.6,0.9,11.3
		c0.3,1.8,0.6,3.5,1.1,5.3c0.5,1.7,1.1,3.2,1.6,4.9c0.2,0.7,0.5,1.4,0.9,2.1c0.5,0.7,1.1,1.2,1.8,1.7c0,0,0,0,0,0c0,0,0,0,0,0.1
		c4.8,6.1,8.7,13,14.7,18c-0.8,1.7-1.6,3.5-2.2,5.3c-0.1,0.1,0,0.3,0,0.4c-0.1,0.2-0.1,0.4,0.2,0.6c1.8,0.9,3.8,1.6,5.7,2.5
		c1.9,0.9,4.1,1.9,5.6,3.4c0.2,6.9-1.3,13.6-2.8,20.3c-1.5,6.8-3,13.8-2.8,20.8c0,0.3,0.3,0.5,0.6,0.4c0,0,0.1,0,0.1,0c0,0,0,0,0,0
		c0.8,16.4,2.5,32.7,3.8,49.1c1.3,17,2.4,34.1,1.7,51.1c-0.1,3.1-0.3,6.2-0.6,9.3c-0.1,1.5-0.3,3-0.4,4.5c-0.1,0.7-0.2,1.4-0.2,2.1
		c0,0.5-0.4,1-0.4,1.5c0,0,0,0,0,0c0,0,0,0,0,0c0,0,0,0,0,0c0,0,0,0,0,0c0,0-0.1,0-0.1,0c-5.6,2.8-12.2,3.8-18.4,3.4
		c0,0-0.1,0-0.1,0c-0.1,0-0.2,0-0.2,0.1c-1.9,0.6-2.7,2.4-2.8,4.3c0,0.8,0,1.8,0.6,2.5c0.1,0.1,0.2,0.2,0.4,0.1
		c6.5,0.4,13.1,0.9,19.5-0.4c4.7,1.2,9.7,1.2,14.1-0.9c0.3-0.1,0.3-0.4,0.1-0.6c0-0.1,0.1-0.1,0.1-0.2c0-1.3-0.1-2.5-0.4-3.8
		c0-0.1,0.1-0.3,0.1-0.4c0.1-0.6,0.2-1.1,0.3-1.7c0.2-1.3,0.3-2.5,0.5-3.8c0.6-4.3,1.1-8.6,1.5-13c0.8-9,1.2-18,1.4-27
		c0.4-18.2-0.1-36.3,0-54.5c0-1.8,0-3.6,0-5.3c0-0.7,0.8-1,1.3-1.3c1.7,0.4,3.4,0.8,5.2,0.8c0,0,0,0,0,0
		c4.7,13.7,8.8,27.5,12.5,41.5c4,15.3,7.5,30.8,9.8,46.4c0.9,6.4,1.7,12.8,2,19.2c0,0.2,0,0.3,0.1,0.4c-0.1,1.1,0.4,2.3,0.7,3.3
		c0,0.1,0,0.1,0.1,0.1c0,0,0,0,0,0c0,0,0,0,0,0c0,0.1,0.1,0.1,0.2,0.1c2.4,0.8,5.1,0.9,7.5,0c1.3,0.6,2.6,0.9,4,1.1
		c1.7,0.3,3.5,0.4,5.2,0.2c2.3,0,4.5-0.9,6.6-1.8c0,0,0.1,0,0.1,0c0,0,0,0,0,0c0,0,0,0,0,0c0.1,0,0.2-0.1,0.2-0.3
		c0.3-1.1,0.5-2.2,0.2-3.3c-0.3-1-0.9-1.9-1.5-2.7c-0.2-0.2-0.4-0.2-0.6-0.1c0,0-0.1,0-0.1-0.1c-3-1-6.2-1.3-9.3-1.3
		c-2.7-17.4-5.4-34.9-8.3-52.3c-2.8-16.8-5.7-33.7-8.7-50.5c-0.6-3.3-1.2-6.6-1.8-9.9c0,0,0-0.1,0-0.1c0,0,0-0.1,0-0.1
		c1.2-0.3,2.3-0.7,3.4-1.1c0.4-0.1,0.4-0.6,0.1-0.8c-1-7.4-1.2-15-0.6-22.4c0.6-7.5,1.9-15.1,4.7-22.1c0.1-0.2,0.2-0.4,0.2-0.5
		c3.9-1.8,8-3,12-4.7c4-1.7,7.5-4.1,10.3-7.3c0.2-0.2,0.2-0.4,0-0.6c-1.7-2-3.4-4-5.2-6c0.2-0.1,0.3-0.3,0.4-0.5
		c0-0.1,0-0.1,0.1-0.2c0.3-0.3,0.7-0.6,0.9-0.9c0.7-0.7,1.3-1.5,1.9-2.2c1.1-1.4,2.2-2.8,3.2-4.3c1.9-2.9,3.6-6,4.9-9.2
		c3-7.3,3.9-15,4.7-22.7C260.6,151.1,261,140.7,259,130.6z M154.3,188.7c0-0.1-0.1-0.1-0.1-0.1c0,0-0.1-0.1-0.1-0.1
		c-1-0.8-1.7-1.5-2.1-2.8c-0.6-1.6-1.2-3.1-1.6-4.7c-1-3.5-1.6-7.2-1.9-10.9c-0.6-7.7-0.3-15.4-0.4-23c0-1.8-0.1-3.6-0.2-5.4
		c0-0.1-0.1-0.2-0.2-0.3c-0.9-4.1-6.3-4-9.6-4.2c-0.9-0.1-1.9-0.2-2.8-0.4c-0.5-0.1-0.9-0.3-1.3-0.6c-0.1-0.1-0.2-0.2-0.2-0.2
		c0.1-0.2,0.4-0.3,0.6-0.3c1.2-0.4,2.2-0.1,3.4,0.1c1.1,0.2,2.3,0.2,3.1-0.6c0.2-0.2,0.2-0.3,0.1-0.5c0-0.1-0.1-0.1-0.2-0.2
		c-1.6-1.1-3.9-1.2-5.3-2.6c2.3-0.8,4.6,2,6.9,1c0.3-0.1,0.4-0.4,0.3-0.6c-1.1-2-3.5-2.7-5-4.3c1-0.1,2,0.5,2.9,1
		c1.1,0.7,2.1,1.6,3.4,2.1c0.1,0.1,0.2,0.1,0.4,0.1c1.8-0.6-0.7-3.2-1.8-4.5c1,0.1,1.9,0.6,2.7,1.3c1.1,0.9,2.1,2,3.2,3
		c1.9,1.8,4.3,3.4,6.7,1.8c0.1,0,0.2-0.1,0.2-0.2c0.4-0.8,0.7-1.7,1.1-2.5c0.5-0.8,1.2-1.2,2.1-1.2c0,0.1,0.1,0.2,0.1,0.3
		c-0.6,0.5-1.1,1.1-1.3,2c-0.1,0.8,0,1.7,0.1,2.5c0.1,1.1-0.4,2-1,2.8c-0.5,0.7-1.1,1.4-1.3,2.3c0,0.1-0.1,0.1-0.1,0.2
		c0,0,0,0,0,0.1c0,0,0,0,0,0.1c0,0.1,0,0.1,0,0.2c0.1,5,0.9,9.9,1.4,14.9c0,0,0,0.1,0,0.1c0.6,6.4,0.6,12.9,1.7,19.3
		c0.6,3.3,1.7,6.5,3.2,9.4c1.7,3.3,4.2,6.3,6.9,8.8c1.7,1.6,3.6,3,5.5,4.2c-1.7,3.6-3.7,7-5.4,10.6
		C162.9,201.5,159,194.7,154.3,188.7z M175.4,387.7c-0.1,0-0.2,0-0.2,0c0,0,0,0,0,0c-6.3,1.3-12.8,0.8-19.2,0.4
		c-0.3-0.5-0.2-1.2-0.2-1.8c0-1.5,0.7-3,2.2-3.5c6.3,0.4,13-0.7,18.7-3.5c1.8,0.4,3.6,1,5.4,1.5c2.1,0.7,4.3,1.4,6.3,2.2
		c0.3,1.2,0.4,2.3,0.4,3.6c0,0.1,0,0.1,0,0.2C184.6,389,179.9,388.9,175.4,387.7z M236.9,380.7c0.1,0,0.1,0,0.2,0
		c3.1,0,6.4,0.3,9.3,1.3c0.1,0,0.2,0,0.3,0c0.5,0.7,1,1.3,1.3,2.1c0.3,0.9,0.2,1.9-0.1,2.8c-2,0.8-4,1.6-6.2,1.6
		c-1.6,0.2-3.3,0.1-4.9-0.1c-1.3-0.2-2.7-0.5-3.9-1.1c-0.1-0.1-0.2-0.1-0.4-0.1c-2.3,0.9-4.6,0.8-6.9,0.1c-0.4-1-0.9-2.3-0.5-3.3
		c1.3-1.7,2.9-3,5-3.6c2.2-0.7,4.5-0.4,6.6,0.3C236.7,380.7,236.8,380.7,236.9,380.7z M226.3,316.6c3,17.6,5.8,35.2,8.5,52.8
		c0.5,3.5,1.1,6.9,1.6,10.4c-2.2-0.6-4.5-0.8-6.8-0.1c-2,0.6-3.6,1.9-4.9,3.5c-0.9-14.6-3.5-29.1-6.6-43.3
		c-3.3-15.3-7.4-30.4-12-45.4c-1.8-6-3.8-12-5.8-17.9c-0.1-0.3-0.4-0.3-0.6-0.3c-0.1,0-0.1,0-0.2,0c-1.7,0-3.4-0.4-5.1-0.9
		c-0.1,0-0.2,0-0.3,0c0,0,0,0,0,0c-0.9,0.4-1.9,1-2,2.1c-0.2,18.1,0.3,36.3,0.1,54.4c-0.1,9-0.4,18.1-1,27.1
		c-0.3,4.4-0.7,8.8-1.3,13.2c-0.4,3.2-0.7,6.4-1.4,9.6c0,0.2-0.1,0.4-0.1,0.6c-1.9-0.8-3.9-1.4-5.8-2.1c-1.7-0.6-3.5-1.1-5.2-1.5
		c0,0,0-0.1,0-0.2c0-0.3,0.2-0.6,0.3-0.8c0.1-0.4,0.1-0.8,0.2-1.1c0.1-1,0.2-2.1,0.3-3.1c0.2-2,0.4-4,0.5-6
		c0.3-4.1,0.4-8.2,0.5-12.3c0.1-8.5-0.1-17-0.6-25.5c-0.9-17-2.6-33.9-3.9-50.8c-0.5-5.9-0.9-11.9-1.2-17.8c1.2,0.2,2.4,0.6,3.5,0.9
		c0.7,0.2,1.5,0.4,2.2,0.6c0,0.1,0.1,0.1,0.2,0.1c0.9,0.3,1.8,0.5,2.7,0.7c0.1,0,0.2,0.1,0.4,0.1c0.1,0,0.1,0,0.2,0
		c11,2.9,22.5,4.2,33.9,3.9c0.1,0,0.2,0.1,0.3,0c0.1,0,0.1,0,0.2,0c0.1,0,0.2,0,0.3,0c0.1,0,0.2,0,0.3-0.1c0,0.1,0,0.1,0,0.2
		C220.7,283.8,223.5,300.2,226.3,316.6z M247.9,207.7c-2.8,3.1-6.1,5.3-9.9,6.9c-3.9,1.7-8,2.9-11.9,4.7c-0.1,0-0.2,0-0.3,0.1
		c-0.1,0.1-0.1,0.2-0.1,0.3c-2.9,6.8-4.2,14.1-4.9,21.4c-0.7,7.5-0.6,15.2,0.3,22.7c0.1,0.5,0.1,1,0.2,1.6c-1.4,0.5-2.8,0.9-4.2,1.3
		c-11.6,0.3-23.3-1-34.6-4c-1.7-0.5-3.4-1-5.1-1.5c-1.4-0.4-3-0.9-4.5-1c-0.2-13.9,6.2-27,5.6-40.9c0-0.1,0-0.1,0-0.1c0,0,0,0,0,0
		c0,0,0,0,0,0c0,0,0-0.1-0.1-0.1c-1.5-1.7-3.7-2.7-5.8-3.6c-1.9-0.9-3.8-1.6-5.7-2.4c0,0,0,0,0,0c2-5.8,5.4-10.9,7.9-16.5
		c5.3,3.2,11.3,5.1,17.4,5.8c0.1,0,0.2,0,0.2,0c1.5,2,3.5,3.3,6,3.6c2.6,0.3,5-1,6.7-2.8c0,0,0,0,0,0c0.1-0.1,0.1-0.2,0.1-0.3
		c0-0.1,0-0.3,0-0.4c5.3-0.7,10.7-1,16-2c5.2-1,10.5-2.8,14.5-6.3C239.8,198.5,243.9,203,247.9,207.7z M243.8,201.1
		C243.8,201,243.8,201,243.8,201.1L243.8,201.1z M259,158.3c-0.7,8-1.5,16.2-4.3,23.8c-1.3,3.5-3,6.9-5,10c-1.1,1.7-2.3,3.3-3.5,4.8
		c-0.6,0.8-1.3,1.5-1.9,2.2c-0.4,0.4-0.7,0.8-1.1,1.2c-0.1,0.1-0.2,0.2-0.3,0.3c-2-2.3-4.1-4.6-6-6.9c3.9-4.5,8.1-8.5,11.8-13.1
		c0.1-0.1,0.1-0.2,0.1-0.2c0.2,0,0.3-0.2,0.3-0.4c-0.8-8.1,1.6-15.9,3.6-23.7c1-3.8,1.9-7.6,2.2-11.6c0.4-4.1,0-8.1-1.1-12
		c-0.2-0.6-0.3-1.1-0.5-1.7c-0.1-0.3-0.4-0.4-0.6-0.2c-0.9-0.4-2.2-0.6-2.8-0.8c-1.2-0.4-1.6-1.2-2-2.3c-0.3-0.9-0.5-1.7-1.2-2.4
		c0,0,0,0-0.1-0.1c0,0,0,0,0,0c1.1,0.5,2.2,0.8,2.8,2c0.1,0.2,0.3,0.2,0.5,0.2c0.1,0,0.1,0,0.2-0.1c0.1,0,0.1,0,0.2-0.1
		c0.2-0.1,0.3-0.2,0.4-0.3c0,0,0.1-0.1,0.1-0.1c0.9-1.1,0-2.9-0.6-4c-0.5-1-1.1-2-1.6-3c-0.3-0.5-0.6-1.2-0.7-1.8
		c1.4,1.1,2.2,3,3.4,4.3c0.2,0.2,0.7,0.1,0.7-0.2c0.3-2.2-1.4-4.1-1.3-6.3c1.4,1.7,1.8,4.1,2.8,6c0.1,0.2,0.3,0.2,0.4,0.2
		c0.1,0,0.2-0.1,0.3-0.2c0.8-1.4,0.3-3,0.5-4.5c0.3,0.6,0.4,1.3,0.5,2c0.2,1,0.3,2.1,0.4,3.1c0,0.3,0.3,0.4,0.6,0.4
		c0.2,0.2,0.6,0.1,0.7-0.2c0.4-1,0.5-2.3,1.1-3.2c0.1,0.5,0,1.1,0,1.6c0,1.2-0.1,2.3-0.2,3.5c-0.1,1.2-0.1,2.3-0.1,3.5
		c0,0.8,0,1.6,0.2,2.4C260,139.7,259.8,149.1,259,158.3z"/>
</g>
<path class="st1" d="M227.8,158.3c1.9-0.4,3.6-2.2,5-3.4c1.8-1.6,4.3-3.5,5-5.9c0.1-0.2-0.2-0.3-0.3-0.2c-0.9,0.7-1.7,1.3-2.5,2
	c1.1-1.6,2.1-3.3,2.8-5.2c0.1-0.1,0-0.3,0-0.4c0.3-0.3,0.5-0.7,0.8-1.1c0.1-0.2-0.1-0.4-0.3-0.3c0,0,0,0-0.1,0c0,0-0.1-0.1-0.1-0.1
	c0,0,0,0,0,0c0,0-0.1,0-0.1,0c0,0-0.1,0-0.1,0c-0.1-0.1-0.2-0.2-0.3-0.1c-0.2,0.1-0.5,0.3-0.7,0.4c-0.2,0-0.3,0.1-0.5,0.1
	c-0.1-0.1-0.3-0.2-0.5-0.2c-0.9-0.1-1.9,0.3-2.8,0.5c-0.8,0.2-1.6,0.5-2.4,0.8c-0.4-0.1-0.8-0.1-1.2-0.2c-1-0.3-2.1-0.8-3.2-0.8
	c-1.1-0.7-2.2-1-3.4-1.3c-2.6-1.3-5.2-2.4-7.8-3.5c-1.1-0.5-2.8-1-4.4-1.1c-3-1.2-6.2-2.1-9.5-2.1c-1.2,0-2.2,0.2-3.2,0.6
	c-2.1,0.4-4.3,2-5.3,3.4c0,0-0.1,0.1-0.1,0.1c-1.2,1.4-1.7,3.1-1.6,5c0,0.1,0,0.2,0,0.3c-0.1,0.3-0.2,0.5-0.3,0.8
	c-0.2,0.5-0.1,1,0.2,1.4c-0.1,0.1-0.2,0.2-0.3,0.3c-1.6,1.8-2,4-2.4,6.2c-0.1,0.5-0.2,0.9-0.3,1.4c-0.1,0.3-0.1,0.6-0.2,0.9
	c-0.1,0.3,0.3,0.4,0.4,0.1c0.1-0.2,0.2-0.4,0.3-0.6c2.1-2.4,3.8-4.4,6.6-5.9c1.8-0.2,3.5-0.6,5.3-0.6c0.5,0.1,1,0.3,1.6,0.5
	c0,0,0,0,0,0c0,0,0,0,0,0c0.8,0.3,1.6,0.7,2.3,1c0,0,0.1,0,0.1,0.1c2.4,1.5,4.5,3.7,7.4,4.1c0.5,0.1,1.2,0.1,1.9,0.2
	c3.8,0.9,6.4,3.8,10.4,3.8c0,0.1,0,0.2,0,0.4c0,0,0,0,0,0c-0.2-0.2-0.5-0.3-0.7-0.4c-0.2-0.1-0.4,0.2-0.2,0.3c0.1,0,0.1,0.1,0.2,0.2
	c0,0,0,0,0,0c-1.2,9.4-6.2,17.6-11.2,25.5c-0.2,0.2-0.5,0.5-0.8,0.7c-1.8,1.5-3.9,2.5-6,3.3c-0.7,0-1.6,0.4-2.4,0.9
	c-2,0.7-4,1.5-5.8,2.5c-0.7,0.2-1.4,0.4-2.1,0.5c-0.1,0-0.1,0.1,0,0.1c0.1,0,0.2,0,0.3,0c0,0,0,0,0,0.1c0,0,0.1,0,0-0.1
	c1.1,0.1,2.2,0,3.2-0.3c0.2,0,0.5-0.1,0.7-0.1c0,0.1,0.1,0.3,0.3,0.3c2.6-0.2,4.9-0.9,7.2-1.9c1.3-0.6,3.3-1.4,4.5-2.5
	c2.6-1.7,4.8-4.9,6.1-7.4c0,0,0-0.1,0.1-0.1c0.2-0.3,0.4-0.7,0.6-1c1.1-1.4,2-3,2.8-4.7c0.3-0.5,0.6-1.1,0.8-1.6
	c0.4,0.3,1,0.4,1.4,0c0.1,0,0.3,0,0.4-0.1c1.7-0.7,2.7-3.2,2.1-4.9c-0.1-0.3-0.5-0.5-0.8-0.4c-0.2,0.1-0.3,0.1-0.4,0.2
	c-0.1-0.1-0.2-0.1-0.3-0.1c-0.2,0-0.3,0.1-0.4,0.1c0-0.1,0-0.1,0.1-0.2c0.3,0.1,0.6,0,0.7-0.3c0.4-1.1,1-3.3,0.9-5.3
	c0.1,0,0.2-0.1,0.2-0.2c0.6-0.8,0.5-1.8,0.6-2.7c0-0.3-0.1-0.4-0.4-0.6c0,0-0.1,0-0.1-0.1c0-0.1-0.1-0.3-0.2-0.4
	C226.1,159.1,227,158.8,227.8,158.3z"/>
<g>
	<path class="st2" d="M224.6,167.9C224.6,167.9,224.6,167.9,224.6,167.9c1.2-3.6,2.5-8.3,2.5-8.4c0-0.1,0-0.2,0-0.3
		c8-2.3,12.3-11.1,12.3-11.2c0.1-0.2,0.1-0.4-0.1-0.6c-0.2-0.2-0.4-0.2-0.6-0.1l-1.2,0.5c1.3-2.4,1.9-4.6,2-4.8
		c0.1-0.2,0-0.4-0.1-0.5c-0.1-0.1-0.4-0.2-0.5-0.1c-8.6,3-10.8,2-16.7-0.7c-3.1-1.4-7.3-3.3-13.9-5.3c-6.2-1.8-11-1.4-14.2,1.2
		c-4.2,3.4-4.3,9.4-4.2,10.8c-2.2,1.8-2.8,6.1-3,8.8c-0.8-0.2-2.1-0.3-3.1,0.3c-0.8,0.5-1.3,1.3-1.5,2.4c-0.2,1.2,0.1,2.1,0.7,2.9
		c0.7,0.8,1.8,1.1,2.5,1.2c-3,10.7-0.5,18.2,2.1,22.6c2.9,5,6.7,7.4,7.6,7.8c0,0,0.1,0,0.1,0c1,0.2,1.8,0.2,1.8,0.1
		c7.6-0.8,17.4-3.6,21-12.2l0.1-0.2c0.4-1,2.2-4.6,3.2-6.8c2.5,0.6,3.4-0.9,4.4-2.5c0.1-0.2,0.3-0.4,0.4-0.7c0.4-0.6,0.5-1.3,0.4-2
		C226.2,168.9,224.6,168,224.6,167.9z M225.3,171.6c-0.1,0.2-0.3,0.5-0.4,0.7c-1,1.7-1.6,2.4-3,2.1c0.2-0.5,0.4-0.8,0.4-0.8
		c0.1-0.3,0-0.6-0.2-0.7c-0.3-0.1-0.6,0-0.7,0.3c-0.1,0.3-3.5,7.2-4.1,8.6L217,182c-3.4,8.1-12.8,10.8-20.1,11.5c0,0-0.7,0-1.5-0.1
		c0,0,0,0,0,0c-0.2-0.1-15-8.8-8.8-29.7c0-0.2,0-0.3-0.1-0.5c-0.1-0.1-0.3-0.2-0.4-0.2c0,0-1.6,0-2.4-0.9c-0.4-0.5-0.6-1.1-0.4-2
		c0.1-0.8,0.4-1.3,1-1.7c0.8-0.5,2-0.3,2.5-0.2c0,0.6,0,1,0,1.1c0,0.1,0,0.2,0.1,0.2c0,0.2,0.1,0.4,0.3,0.5c0,0,0,0,0,0
		c0.3,0.1,0.6,0,0.7-0.3c0-0.1,4.9-12,14-8.8c0.3,0.1,0.6,0,0.7-0.3c0.1-0.3-0.1-0.6-0.3-0.7c-7.4-2.6-12.2,3.7-14.2,7.3
		c0.2-2.6,0.9-6.6,2.8-8.1c0.2-0.1,0.2-0.3,0.2-0.5c0-0.1-0.4-6.7,3.8-10.2c2.9-2.4,7.3-2.7,13.2-1c6.6,1.9,10.7,3.8,13.8,5.2
		c5.8,2.6,8.3,3.8,16.4,1.1c-1.1,2.9-4.7,11.2-11.2,10.6c-0.3,0-0.6,0.2-0.6,0.5c0,0.3,0.2,0.6,0.5,0.6c4.6,0.4,7.8-3,9.9-6.3
		c0.1,0,0.2,0,0.3,0l0.6-0.2c-1.8,3-7.1,10.3-15.2,9.8c-0.3,0-0.6,0.2-0.6,0.5c0,0.2,0.1,0.5,0.4,0.5c0,0,0.1,0,0.2,0
		c1.2,0.1,2.4,0,3.5-0.2c-0.3,1.2-1.7,6.2-2.9,9.3c-0.1,0.3,0,0.6,0.3,0.7c0,0,0,0,0,0c0.3,0.1,0.6,0,0.7-0.3c0-0.1,0.1-0.2,0.1-0.3
		c0.3,0.2,1.1,0.8,1.3,1.5C225.6,170.9,225.5,171.2,225.3,171.6z"/>
	<path class="st2" d="M210.1,154.9c0.3,0.2,0.7,0.3,1,0.4c6.3,2.3,11.9-1.8,12.2-2c0.2-0.2,0.3-0.5,0.1-0.8
		c-0.2-0.2-0.5-0.3-0.8-0.1c-0.1,0-5.9,4.4-12.1,1.5c-0.3-0.1-0.6,0-0.7,0.3C209.7,154.4,209.8,154.8,210.1,154.9z"/>
</g>
</svg>
