<?xml version="1.0" encoding="utf-8"?>
<!-- Generator: Adobe Illustrator 19.2.0, SVG Export Plug-In . SVG Version: 6.00 Build 0)  -->
<svg version="1.1" id="Layer_1" xmlns="http://www.w3.org/2000/svg" xmlns:xlink="http://www.w3.org/1999/xlink" x="0px" y="0px"
	 viewBox="0 0 1024 768" style="enable-background:new 0 0 1024 768;" xml:space="preserve">
<style type="text/css">
	.st0{fill:#DCF0FB;}
	.st1{fill:#336699;}
</style>
<rect class="st0" width="1024" height="768"/>
<g>
	<path class="st1" d="M64.1,500.2h12.5v2.9H64.1V500.2z"/>
	<path class="st1" d="M97,489.6l8.5,22l7.9-22h3.1l-11.2,29.7c-0.5,1.1-0.9,2-1.3,2.7c-0.4,0.7-0.8,1.3-1.3,1.7
		c-0.5,0.4-1.1,0.7-1.7,0.9s-1.5,0.3-2.5,0.3c-0.6,0-1.1-0.1-1.5-0.1c-0.4,0-0.7-0.1-0.9-0.2V522c0.4,0.1,0.7,0.1,1.1,0.2
		c0.4,0,0.7,0.1,1.1,0.1c0.7,0,1.3-0.1,1.7-0.3c0.5-0.2,0.8-0.5,1.2-0.8c0.3-0.3,0.6-0.8,0.8-1.3c0.2-0.5,0.5-1,0.8-1.7l1.1-2.9
		l-10.3-25.7H97z"/>
	<path class="st1" d="M135.8,490c1.5,0.7,2.8,1.7,3.8,3c1,1.2,1.8,2.7,2.3,4.3c0.5,1.6,0.8,3.4,0.8,5.3c0,1.9-0.3,3.6-0.8,5.3
		s-1.3,3.1-2.3,4.3c-1,1.2-2.3,2.2-3.8,2.9c-1.5,0.7-3.3,1.1-5.2,1.1c-2,0-3.7-0.4-5.2-1.1c-1.5-0.7-2.8-1.7-3.8-2.9
		c-1-1.2-1.8-2.7-2.4-4.3c-0.5-1.7-0.8-3.4-0.8-5.3c0-1.9,0.3-3.6,0.8-5.3c0.5-1.7,1.3-3.1,2.4-4.3c1-1.2,2.3-2.2,3.8-3
		c1.5-0.7,3.3-1.1,5.2-1.1C132.5,488.9,134.3,489.2,135.8,490z M126.6,492.5c-1.1,0.6-2.1,1.5-2.8,2.5c-0.8,1-1.3,2.2-1.7,3.5
		c-0.4,1.3-0.6,2.7-0.6,4c0,1.4,0.2,2.7,0.6,4c0.4,1.3,1,2.5,1.7,3.5s1.7,1.9,2.8,2.5c1.1,0.6,2.4,0.9,3.9,0.9s2.8-0.3,4-0.9
		c1.1-0.6,2.1-1.5,2.8-2.5s1.3-2.2,1.7-3.5c0.4-1.3,0.6-2.7,0.6-4c0-1.4-0.2-2.7-0.6-4c-0.4-1.3-1-2.5-1.7-3.5
		c-0.8-1-1.7-1.9-2.8-2.5c-1.1-0.6-2.5-1-4-1S127.8,491.8,126.6,492.5z"/>
	<path class="st1" d="M165.5,515.4v-4.7h-0.1c-0.8,1.7-2,3.1-3.6,4c-1.6,0.9-3.3,1.4-5.3,1.4c-1.6,0-3-0.2-4.2-0.7
		c-1.2-0.5-2.1-1.1-2.8-1.9c-0.7-0.8-1.2-1.8-1.6-3c-0.3-1.2-0.5-2.6-0.5-4.1v-16.8h3.1v16.8c0.1,2.3,0.6,4.1,1.6,5.3
		c1,1.2,2.8,1.8,5.3,1.8c1.4,0,2.5-0.3,3.5-0.9c1-0.6,1.8-1.4,2.4-2.3c0.6-1,1.1-2.1,1.4-3.3c0.3-1.2,0.5-2.5,0.5-3.8v-13.5h3.1
		v25.8H165.5z"/>
	<path class="st1" d="M177.2,489.6v6h0.1c0.8-2.1,2-3.7,3.7-4.8c1.7-1.1,3.7-1.7,6-1.6v3.2c-1.4-0.1-2.7,0.1-3.9,0.6
		c-1.2,0.5-2.2,1.1-3,1.9c-0.9,0.8-1.5,1.8-2,3c-0.5,1.2-0.7,2.4-0.7,3.8v13.8h-3.1v-25.8H177.2z"/>
	<path class="st1" d="M223.8,515.4v-4.9h-0.1c-0.3,0.8-0.8,1.6-1.5,2.3c-0.6,0.7-1.4,1.3-2.2,1.8c-0.8,0.5-1.7,0.9-2.7,1.1
		c-1,0.3-1.9,0.4-2.8,0.4c-2,0-3.7-0.4-5.1-1.1s-2.7-1.7-3.6-3c-1-1.2-1.7-2.7-2.1-4.3c-0.5-1.7-0.7-3.4-0.7-5.2
		c0-1.8,0.2-3.6,0.7-5.2c0.5-1.7,1.2-3.1,2.1-4.3c1-1.2,2.2-2.2,3.6-3c1.5-0.7,3.2-1.1,5.1-1.1c1,0,1.9,0.1,2.8,0.3
		c0.9,0.2,1.8,0.6,2.6,1.1c0.8,0.5,1.5,1.1,2.1,1.8c0.6,0.7,1.1,1.5,1.4,2.4h0.1v-14.8h3.2v35.7H223.8z M206.5,506.5
		c0.3,1.3,0.8,2.5,1.5,3.5c0.7,1,1.6,1.9,2.6,2.5c1.1,0.7,2.4,1,3.9,1c1.7,0,3.1-0.3,4.2-1s2.1-1.5,2.8-2.5c0.7-1,1.2-2.2,1.6-3.5
		c0.3-1.3,0.5-2.6,0.5-4c0-1.3-0.2-2.7-0.5-4c-0.3-1.3-0.8-2.5-1.6-3.5c-0.7-1-1.6-1.9-2.8-2.5c-1.1-0.7-2.6-1-4.2-1
		c-1.5,0-2.8,0.3-3.9,1c-1.1,0.6-1.9,1.5-2.6,2.5c-0.7,1-1.2,2.2-1.5,3.5c-0.3,1.3-0.5,2.6-0.5,4C206,503.9,206.2,505.2,206.5,506.5
		z"/>
	<path class="st1" d="M250.7,515.4v-4.7h-0.1c-0.8,1.7-2,3.1-3.6,4c-1.6,0.9-3.3,1.4-5.3,1.4c-1.6,0-3-0.2-4.2-0.7
		c-1.2-0.5-2.1-1.1-2.8-1.9c-0.7-0.8-1.2-1.8-1.6-3c-0.3-1.2-0.5-2.6-0.5-4.1v-16.8h3.1v16.8c0.1,2.3,0.6,4.1,1.6,5.3
		c1,1.2,2.8,1.8,5.3,1.8c1.4,0,2.5-0.3,3.5-0.9c1-0.6,1.8-1.4,2.4-2.3c0.6-1,1.1-2.1,1.4-3.3c0.3-1.2,0.5-2.5,0.5-3.8v-13.5h3.1
		v25.8H250.7z"/>
	<path class="st1" d="M275.3,493.2c-1.2-1.1-2.8-1.7-4.9-1.7c-1.5,0-2.8,0.3-3.9,1c-1.1,0.6-2.1,1.5-2.8,2.5c-0.8,1-1.3,2.2-1.7,3.5
		c-0.4,1.3-0.6,2.7-0.6,4c0,1.4,0.2,2.7,0.6,4c0.4,1.3,1,2.5,1.7,3.5s1.7,1.9,2.8,2.5c1.1,0.6,2.4,0.9,3.9,0.9c1,0,1.9-0.2,2.8-0.5
		c0.9-0.4,1.6-0.9,2.3-1.5c0.7-0.7,1.2-1.4,1.6-2.3c0.4-0.9,0.7-1.9,0.8-3h3.1c-0.4,3.1-1.6,5.6-3.4,7.3c-1.9,1.8-4.3,2.6-7.2,2.6
		c-2,0-3.7-0.4-5.2-1.1c-1.5-0.7-2.8-1.7-3.8-2.9c-1-1.2-1.8-2.7-2.4-4.3c-0.5-1.7-0.8-3.4-0.8-5.3c0-1.9,0.3-3.6,0.8-5.3
		c0.5-1.7,1.3-3.1,2.4-4.3c1-1.2,2.3-2.2,3.8-3c1.5-0.7,3.3-1.1,5.2-1.1c2.8,0,5.1,0.7,7,2.2c1.9,1.5,3.1,3.7,3.4,6.6h-3.1
		C277.3,495.8,276.5,494.3,275.3,493.2z"/>
	<path class="st1" d="M288.6,479.7v22.4l14.3-12.5h4.2l-11,9.5l11.8,16.2h-3.9l-10.2-14l-5.1,4.2v9.8h-3.1v-35.7H288.6z"/>
	<path class="st1" d="M313.7,479.7v5h-3.2v-5H313.7z M313.7,489.6v25.8h-3.2v-25.8H313.7z"/>
	<path class="st1" d="M322.8,489.6v4.5h0.1c0.6-1.6,1.7-2.8,3.2-3.8c1.5-1,3.2-1.4,5.1-1.4c1.8,0,3.3,0.2,4.5,0.7
		c1.2,0.5,2.2,1.1,2.9,2c0.7,0.8,1.2,1.9,1.6,3.1c0.3,1.2,0.4,2.6,0.4,4.2v16.6h-3.1v-16.1c0-1.1-0.1-2.1-0.3-3.1
		c-0.2-1-0.6-1.8-1.1-2.5c-0.5-0.7-1.2-1.2-2-1.6c-0.9-0.4-1.9-0.6-3.2-0.6c-1.3,0-2.4,0.2-3.4,0.7c-1,0.4-1.8,1.1-2.5,1.8
		c-0.7,0.8-1.2,1.7-1.6,2.8c-0.4,1.1-0.6,2.3-0.6,3.5v15h-3.1v-25.8H322.8z"/>
	<path class="st1" d="M367.7,518.5c-0.4,1.5-1.1,2.8-2,3.9c-0.9,1.1-2.1,1.9-3.5,2.5c-1.4,0.6-3.2,0.8-5.3,0.8
		c-1.3,0-2.6-0.2-3.8-0.5c-1.2-0.3-2.3-0.8-3.3-1.4c-1-0.6-1.8-1.4-2.5-2.4s-1-2.2-1.1-3.5h3.1c0.2,1,0.5,1.8,1,2.4
		c0.5,0.7,1.1,1.2,1.8,1.6c0.7,0.4,1.4,0.7,2.3,0.9c0.8,0.2,1.7,0.3,2.6,0.3c2.9,0,5-0.8,6.4-2.5c1.3-1.7,1.9-4.1,1.9-7.2v-3.5h-0.1
		c-0.7,1.6-1.8,2.9-3.2,3.8c-1.4,1-3.1,1.5-5,1.5c-2.1,0-3.8-0.3-5.3-1c-1.5-0.7-2.7-1.6-3.6-2.8c-0.9-1.2-1.6-2.6-2.1-4.2
		c-0.4-1.6-0.6-3.3-0.6-5.2c0-1.8,0.3-3.4,0.8-5c0.5-1.6,1.3-3,2.2-4.1c1-1.2,2.2-2.1,3.6-2.8c1.5-0.7,3.1-1,5-1
		c1,0,1.9,0.1,2.7,0.4c0.8,0.3,1.6,0.6,2.3,1.1c0.7,0.5,1.3,1,1.9,1.7c0.6,0.6,1,1.3,1.3,2h0.1v-4.5h3.1v23.7
		C368.4,515.2,368.2,516.9,367.7,518.5z M360.5,511.6c1-0.6,1.9-1.3,2.6-2.3c0.7-1,1.2-2,1.6-3.3c0.4-1.2,0.5-2.5,0.5-3.8
		c0-1.3-0.1-2.5-0.4-3.8c-0.3-1.3-0.8-2.4-1.5-3.5c-0.7-1-1.5-1.9-2.6-2.5c-1-0.6-2.3-1-3.8-1s-2.8,0.3-3.9,0.9
		c-1.1,0.6-2,1.4-2.6,2.4c-0.7,1-1.2,2.1-1.5,3.4c-0.3,1.3-0.5,2.6-0.5,3.9c0,1.3,0.2,2.6,0.5,3.8c0.3,1.2,0.9,2.3,1.5,3.3
		c0.7,1,1.6,1.7,2.6,2.3c1.1,0.6,2.3,0.9,3.8,0.9C358.3,512.5,359.5,512.2,360.5,511.6z"/>
	<path class="st1" d="M391.2,489.6v4.9h0.1c0.7-1.8,1.9-3.2,3.6-4.2c1.6-1,3.5-1.5,5.6-1.5c2,0,3.7,0.4,5.1,1.1
		c1.4,0.7,2.7,1.7,3.6,3c1,1.2,1.7,2.7,2.1,4.3c0.5,1.7,0.7,3.4,0.7,5.2c0,1.8-0.2,3.6-0.7,5.2c-0.5,1.6-1.2,3.1-2.1,4.3
		c-1,1.2-2.2,2.2-3.6,3c-1.5,0.7-3.2,1.1-5.1,1.1c-0.9,0-1.9-0.1-2.8-0.4c-0.9-0.2-1.8-0.6-2.6-1c-0.8-0.5-1.5-1-2.1-1.8
		c-0.6-0.7-1.1-1.5-1.4-2.5h-0.1v14.4h-3.1v-35.3H391.2z M408.4,498.6c-0.3-1.3-0.8-2.5-1.5-3.5c-0.7-1-1.6-1.9-2.6-2.5
		c-1.1-0.7-2.3-1-3.8-1c-1.7,0-3.2,0.3-4.4,0.9c-1.2,0.6-2.1,1.4-2.8,2.4c-0.7,1-1.2,2.2-1.5,3.5c-0.3,1.3-0.4,2.7-0.4,4.2
		c0,1.3,0.2,2.7,0.5,4c0.3,1.3,0.8,2.5,1.5,3.5c0.7,1,1.7,1.9,2.8,2.5s2.6,1,4.2,1c1.5,0,2.8-0.3,3.8-1c1.1-0.7,1.9-1.5,2.6-2.5
		c0.7-1,1.2-2.2,1.5-3.5c0.3-1.3,0.5-2.6,0.5-4C408.9,501.2,408.8,499.9,408.4,498.6z"/>
	<path class="st1" d="M419.9,489.6v6h0.1c0.8-2.1,2-3.7,3.7-4.8c1.7-1.1,3.7-1.7,6-1.6v3.2c-1.4-0.1-2.7,0.1-3.9,0.6
		c-1.2,0.5-2.2,1.1-3,1.9c-0.9,0.8-1.5,1.8-2,3c-0.5,1.2-0.7,2.4-0.7,3.8v13.8H417v-25.8H419.9z"/>
	<path class="st1" d="M435.9,479.7v5h-3.2v-5H435.9z M435.9,489.6v25.8h-3.2v-25.8H435.9z"/>
	<path class="st1" d="M442.6,489.6l8.1,22.6h0.1l8-22.6h3.2l-9.6,25.8H449l-9.9-25.8H442.6z"/>
	<path class="st1" d="M465.8,493.6c0.5-1.1,1.3-2,2.2-2.7c0.9-0.7,2-1.2,3.2-1.5c1.2-0.3,2.6-0.5,4.1-0.5c1.1,0,2.3,0.1,3.4,0.3
		c1.1,0.2,2.2,0.6,3.1,1.2s1.6,1.4,2.2,2.5c0.6,1.1,0.9,2.5,0.9,4.2v13.7c0,1.3,0.6,1.9,1.9,1.9c0.4,0,0.7-0.1,1-0.2v2.6
		c-0.4,0.1-0.7,0.1-1,0.2c-0.3,0-0.6,0-1.1,0c-0.8,0-1.4-0.1-1.9-0.3c-0.5-0.2-0.9-0.5-1.1-0.9c-0.3-0.4-0.4-0.9-0.5-1.4
		c-0.1-0.5-0.1-1.2-0.1-1.8h-0.1c-0.6,0.8-1.1,1.6-1.7,2.2c-0.6,0.7-1.2,1.2-1.9,1.6c-0.7,0.4-1.5,0.8-2.5,1c-0.9,0.2-2,0.4-3.3,0.4
		c-1.2,0-2.3-0.1-3.4-0.4c-1-0.3-2-0.7-2.8-1.4c-0.8-0.6-1.4-1.4-1.9-2.3c-0.4-1-0.7-2.1-0.7-3.4c0-1.8,0.4-3.2,1.2-4.2
		c0.8-1,1.9-1.8,3.2-2.3c1.3-0.5,2.8-0.9,4.4-1.1c1.7-0.2,3.3-0.4,5-0.6c0.7-0.1,1.2-0.2,1.8-0.2c0.5-0.1,0.9-0.3,1.2-0.5
		c0.3-0.2,0.6-0.6,0.8-1c0.2-0.4,0.3-1,0.3-1.7c0-1.1-0.2-1.9-0.5-2.6s-0.8-1.2-1.5-1.6c-0.6-0.4-1.3-0.7-2.1-0.8
		c-0.8-0.2-1.7-0.2-2.6-0.2c-2,0-3.6,0.5-4.9,1.4c-1.3,0.9-1.9,2.5-2,4.6h-3.1C464.9,496,465.2,494.7,465.8,493.6z M481.5,501.3
		c-0.2,0.4-0.6,0.6-1.1,0.8c-0.6,0.2-1.1,0.3-1.5,0.3c-1.3,0.2-2.7,0.4-4.1,0.6c-1.4,0.2-2.7,0.5-3.9,0.8c-1.2,0.4-2.1,0.9-2.9,1.6
		c-0.8,0.7-1.1,1.7-1.1,2.9c0,0.8,0.2,1.5,0.5,2.1c0.3,0.6,0.7,1.2,1.3,1.6c0.5,0.5,1.1,0.8,1.9,1c0.7,0.2,1.4,0.3,2.1,0.3
		c1.2,0,2.4-0.2,3.5-0.5c1.1-0.4,2.1-0.9,2.9-1.6c0.8-0.7,1.5-1.5,1.9-2.5c0.5-1,0.7-2.1,0.7-3.4v-4.1H481.5z"/>
	<path class="st1" d="M501.3,489.6v2.6h-5.2v17.4c0,1,0.1,1.8,0.4,2.4c0.3,0.6,1,0.9,2.1,1c0.9,0,1.8-0.1,2.7-0.2v2.7
		c-0.5,0-0.9,0-1.4,0c-0.5,0-0.9,0-1.4,0c-2.1,0-3.6-0.4-4.4-1.2c-0.8-0.8-1.2-2.3-1.2-4.5v-17.7h-4.5v-2.6h4.5v-7.8h3.1v7.8H501.3z
		"/>
	<path class="st1" d="M508.2,506.9c0.3,1.2,0.8,2.3,1.5,3.3c0.7,1,1.6,1.8,2.6,2.4c1.1,0.6,2.4,0.9,3.9,0.9c2.3,0,4.1-0.6,5.4-1.8
		s2.2-2.8,2.7-4.8h3.1c-0.7,2.9-1.9,5.2-3.7,6.8c-1.8,1.6-4.3,2.4-7.6,2.4c-2,0-3.8-0.4-5.3-1.1c-1.5-0.7-2.7-1.7-3.6-3
		c-0.9-1.2-1.6-2.7-2.1-4.3c-0.5-1.7-0.7-3.4-0.7-5.2c0-1.7,0.2-3.4,0.7-5c0.5-1.6,1.1-3.1,2.1-4.4c0.9-1.3,2.1-2.3,3.6-3.1
		c1.5-0.8,3.2-1.2,5.3-1.2c2.1,0,3.8,0.4,5.3,1.2c1.5,0.8,2.7,1.9,3.6,3.3c0.9,1.4,1.6,2.9,2,4.7c0.4,1.8,0.6,3.5,0.5,5.3h-19.9
		C507.7,504.5,507.9,505.7,508.2,506.9z M523.8,497.3c-0.4-1.1-0.9-2.1-1.6-2.9c-0.7-0.8-1.5-1.5-2.5-2c-1-0.5-2.1-0.8-3.4-0.8
		c-1.3,0-2.4,0.3-3.4,0.8c-1,0.5-1.9,1.2-2.6,2c-0.7,0.9-1.3,1.8-1.7,3c-0.4,1.1-0.7,2.3-0.8,3.4h16.7
		C524.4,499.5,524.2,498.4,523.8,497.3z"/>
	<path class="st1" d="M561.5,493.2c-1.2-1.1-2.8-1.7-4.9-1.7c-1.5,0-2.8,0.3-4,1c-1.1,0.6-2.1,1.5-2.8,2.5c-0.8,1-1.3,2.2-1.7,3.5
		c-0.4,1.3-0.6,2.7-0.6,4c0,1.4,0.2,2.7,0.6,4c0.4,1.3,1,2.5,1.7,3.5s1.7,1.9,2.8,2.5c1.1,0.6,2.5,0.9,4,0.9c1,0,1.9-0.2,2.8-0.5
		c0.9-0.4,1.6-0.9,2.3-1.5c0.7-0.7,1.2-1.4,1.6-2.3c0.4-0.9,0.7-1.9,0.8-3h3.1c-0.4,3.1-1.6,5.6-3.5,7.3s-4.3,2.6-7.2,2.6
		c-2,0-3.7-0.4-5.2-1.1s-2.8-1.7-3.8-2.9s-1.8-2.7-2.3-4.3s-0.8-3.4-0.8-5.3c0-1.9,0.3-3.6,0.8-5.3c0.5-1.7,1.3-3.1,2.3-4.3
		c1-1.2,2.3-2.2,3.8-3c1.5-0.7,3.3-1.1,5.2-1.1c2.8,0,5.1,0.7,7,2.2s3.1,3.7,3.4,6.6h-3.1C563.5,495.8,562.7,494.3,561.5,493.2z"/>
	<path class="st1" d="M587.8,490c1.5,0.7,2.8,1.7,3.8,3c1,1.2,1.8,2.7,2.3,4.3c0.5,1.6,0.8,3.4,0.8,5.3c0,1.9-0.3,3.6-0.8,5.3
		s-1.3,3.1-2.3,4.3c-1,1.2-2.3,2.2-3.8,2.9c-1.5,0.7-3.3,1.1-5.2,1.1c-2,0-3.7-0.4-5.2-1.1s-2.8-1.7-3.8-2.9s-1.8-2.7-2.3-4.3
		s-0.8-3.4-0.8-5.3c0-1.9,0.3-3.6,0.8-5.3c0.5-1.7,1.3-3.1,2.3-4.3c1-1.2,2.3-2.2,3.8-3c1.5-0.7,3.3-1.1,5.2-1.1
		C584.5,488.9,586.3,489.2,587.8,490z M578.6,492.5c-1.1,0.6-2.1,1.5-2.8,2.5c-0.8,1-1.3,2.2-1.7,3.5c-0.4,1.3-0.6,2.7-0.6,4
		c0,1.4,0.2,2.7,0.6,4c0.4,1.3,1,2.5,1.7,3.5s1.7,1.9,2.8,2.5c1.1,0.6,2.5,0.9,4,0.9s2.8-0.3,3.9-0.9s2.1-1.5,2.8-2.5
		s1.3-2.2,1.7-3.5c0.4-1.3,0.6-2.7,0.6-4c0-1.4-0.2-2.7-0.6-4c-0.4-1.3-1-2.5-1.7-3.5c-0.8-1-1.7-1.9-2.8-2.5c-1.1-0.6-2.4-1-3.9-1
		S579.7,491.8,578.6,492.5z"/>
	<path class="st1" d="M602.7,479.7v35.7h-3.2v-35.7H602.7z"/>
	<path class="st1" d="M611.9,479.7v35.7h-3.2v-35.7H611.9z"/>
	<path class="st1" d="M620.3,506.9c0.3,1.2,0.8,2.3,1.5,3.3c0.7,1,1.6,1.8,2.7,2.4c1.1,0.6,2.3,0.9,3.8,0.9c2.3,0,4.1-0.6,5.4-1.8
		s2.2-2.8,2.7-4.8h3.1c-0.7,2.9-1.9,5.2-3.7,6.8c-1.8,1.6-4.3,2.4-7.6,2.4c-2,0-3.8-0.4-5.3-1.1c-1.5-0.7-2.7-1.7-3.6-3
		c-0.9-1.2-1.6-2.7-2.1-4.3c-0.5-1.7-0.7-3.4-0.7-5.2c0-1.7,0.2-3.4,0.7-5c0.5-1.6,1.1-3.1,2.1-4.4c0.9-1.3,2.1-2.3,3.6-3.1
		c1.5-0.8,3.2-1.2,5.3-1.2c2.1,0,3.8,0.4,5.3,1.2c1.5,0.8,2.7,1.9,3.6,3.3c0.9,1.4,1.6,2.9,2,4.7c0.4,1.8,0.6,3.5,0.5,5.3h-19.9
		C619.8,504.5,620,505.7,620.3,506.9z M635.9,497.3c-0.4-1.1-0.9-2.1-1.6-2.9c-0.7-0.8-1.5-1.5-2.5-2c-1-0.5-2.1-0.8-3.4-0.8
		c-1.3,0-2.4,0.3-3.4,0.8c-1,0.5-1.9,1.2-2.6,2c-0.7,0.9-1.3,1.8-1.7,3c-0.4,1.1-0.7,2.3-0.8,3.4h16.7
		C636.5,499.5,636.3,498.4,635.9,497.3z"/>
	<path class="st1" d="M665.1,518.5c-0.4,1.5-1.1,2.8-2,3.9c-0.9,1.1-2.1,1.9-3.5,2.5c-1.5,0.6-3.2,0.8-5.3,0.8
		c-1.3,0-2.6-0.2-3.8-0.5s-2.3-0.8-3.3-1.4c-1-0.6-1.8-1.4-2.4-2.4c-0.7-1-1-2.2-1.1-3.5h3.1c0.2,1,0.5,1.8,1,2.4
		c0.5,0.7,1.1,1.2,1.8,1.6c0.7,0.4,1.4,0.7,2.3,0.9c0.8,0.2,1.7,0.3,2.5,0.3c2.9,0,5.1-0.8,6.4-2.5s2-4.1,2-7.2v-3.5h-0.1
		c-0.7,1.6-1.8,2.9-3.2,3.8c-1.4,1-3.1,1.5-5,1.5c-2.1,0-3.8-0.3-5.3-1c-1.5-0.7-2.7-1.6-3.6-2.8c-1-1.2-1.6-2.6-2.1-4.2
		c-0.4-1.6-0.6-3.3-0.6-5.2c0-1.8,0.3-3.4,0.8-5c0.5-1.6,1.3-3,2.2-4.1s2.2-2.1,3.7-2.8c1.5-0.7,3.1-1,5-1c1,0,1.9,0.1,2.7,0.4
		c0.8,0.3,1.6,0.6,2.3,1.1c0.7,0.5,1.3,1,1.9,1.7c0.5,0.6,1,1.3,1.3,2h0.1v-4.5h3.1v23.7C665.7,515.2,665.5,516.9,665.1,518.5z
		 M657.9,511.6c1-0.6,1.9-1.3,2.6-2.3s1.2-2,1.6-3.3c0.3-1.2,0.5-2.5,0.5-3.8c0-1.3-0.2-2.5-0.5-3.8c-0.3-1.3-0.8-2.4-1.5-3.5
		c-0.7-1-1.5-1.9-2.6-2.5c-1-0.6-2.3-1-3.8-1s-2.8,0.3-3.8,0.9c-1.1,0.6-2,1.4-2.7,2.4c-0.7,1-1.2,2.1-1.5,3.4
		c-0.3,1.3-0.5,2.6-0.5,3.9c0,1.3,0.2,2.6,0.5,3.8c0.3,1.2,0.9,2.3,1.6,3.3c0.7,1,1.6,1.7,2.6,2.3c1.1,0.6,2.3,0.9,3.8,0.9
		C655.6,512.5,656.8,512.2,657.9,511.6z"/>
	<path class="st1" d="M674,506.9c0.3,1.2,0.8,2.3,1.5,3.3c0.7,1,1.6,1.8,2.7,2.4c1.1,0.6,2.3,0.9,3.8,0.9c2.3,0,4.1-0.6,5.4-1.8
		s2.2-2.8,2.7-4.8h3.1c-0.7,2.9-1.9,5.2-3.7,6.8c-1.8,1.6-4.3,2.4-7.6,2.4c-2,0-3.8-0.4-5.3-1.1c-1.5-0.7-2.7-1.7-3.6-3
		c-0.9-1.2-1.6-2.7-2.1-4.3c-0.5-1.7-0.7-3.4-0.7-5.2c0-1.7,0.2-3.4,0.7-5c0.5-1.6,1.1-3.1,2.1-4.4c0.9-1.3,2.1-2.3,3.6-3.1
		c1.5-0.8,3.2-1.2,5.3-1.2c2.1,0,3.8,0.4,5.3,1.2c1.5,0.8,2.7,1.9,3.6,3.3c0.9,1.4,1.6,2.9,2,4.7c0.4,1.8,0.6,3.5,0.5,5.3h-19.9
		C673.6,504.5,673.7,505.7,674,506.9z M689.6,497.3c-0.4-1.1-0.9-2.1-1.6-2.9c-0.7-0.8-1.5-1.5-2.5-2c-1-0.5-2.1-0.8-3.4-0.8
		c-1.3,0-2.4,0.3-3.4,0.8c-1,0.5-1.9,1.2-2.6,2c-0.7,0.9-1.3,1.8-1.7,3c-0.4,1.1-0.7,2.3-0.8,3.4h16.7
		C690.2,499.5,690,498.4,689.6,497.3z"/>
	<path class="st1" d="M721.8,489.6v2.6h-5.2v17.4c0,1,0.1,1.8,0.4,2.4c0.3,0.6,1,0.9,2.1,1c0.9,0,1.8-0.1,2.7-0.2v2.7
		c-0.5,0-0.9,0-1.4,0c-0.5,0-0.9,0-1.4,0c-2.1,0-3.6-0.4-4.4-1.2s-1.2-2.3-1.2-4.5v-17.7h-4.5v-2.6h4.5v-7.8h3.2v7.8H721.8z"/>
	<path class="st1" d="M744.4,515.4v-4.7h-0.1c-0.8,1.7-2,3.1-3.6,4c-1.6,0.9-3.3,1.4-5.3,1.4c-1.6,0-3-0.2-4.2-0.7
		c-1.2-0.5-2.1-1.1-2.8-1.9c-0.7-0.8-1.2-1.8-1.6-3c-0.3-1.2-0.5-2.6-0.5-4.1v-16.8h3.1v16.8c0.1,2.3,0.6,4.1,1.6,5.3
		s2.8,1.8,5.3,1.8c1.4,0,2.5-0.3,3.5-0.9c1-0.6,1.8-1.4,2.4-2.3c0.6-1,1.1-2.1,1.4-3.3s0.5-2.5,0.5-3.8v-13.5h3.2v25.8H744.4z"/>
	<path class="st1" d="M756.4,479.7v5h-3.2v-5H756.4z M756.4,489.6v25.8h-3.2v-25.8H756.4z"/>
	<path class="st1" d="M772.7,489.6v2.6h-5.2v17.4c0,1,0.1,1.8,0.4,2.4c0.3,0.6,1,0.9,2.1,1c0.9,0,1.8-0.1,2.7-0.2v2.7
		c-0.5,0-0.9,0-1.4,0c-0.5,0-0.9,0-1.4,0c-2.1,0-3.6-0.4-4.4-1.2s-1.2-2.3-1.2-4.5v-17.7h-4.5v-2.6h4.5v-7.8h3.2v7.8H772.7z"/>
	<path class="st1" d="M780.5,479.7v5h-3.2v-5H780.5z M780.5,489.6v25.8h-3.2v-25.8H780.5z"/>
	<path class="st1" d="M802.6,490c1.5,0.7,2.8,1.7,3.8,3c1,1.2,1.8,2.7,2.3,4.3c0.5,1.6,0.8,3.4,0.8,5.3c0,1.9-0.3,3.6-0.8,5.3
		s-1.3,3.1-2.3,4.3c-1,1.2-2.3,2.2-3.8,2.9c-1.5,0.7-3.3,1.1-5.2,1.1c-2,0-3.7-0.4-5.2-1.1s-2.8-1.7-3.8-2.9s-1.8-2.7-2.3-4.3
		s-0.8-3.4-0.8-5.3c0-1.9,0.3-3.6,0.8-5.3c0.5-1.7,1.3-3.1,2.3-4.3c1-1.2,2.3-2.2,3.8-3c1.5-0.7,3.3-1.1,5.2-1.1
		C799.4,488.9,801.1,489.2,802.6,490z M793.5,492.5c-1.1,0.6-2.1,1.5-2.8,2.5c-0.8,1-1.3,2.2-1.7,3.5c-0.4,1.3-0.6,2.7-0.6,4
		c0,1.4,0.2,2.7,0.6,4c0.4,1.3,1,2.5,1.7,3.5s1.7,1.9,2.8,2.5c1.1,0.6,2.5,0.9,4,0.9s2.8-0.3,3.9-0.9s2.1-1.5,2.8-2.5
		s1.3-2.2,1.7-3.5c0.4-1.3,0.6-2.7,0.6-4c0-1.4-0.2-2.7-0.6-4c-0.4-1.3-1-2.5-1.7-3.5c-0.8-1-1.7-1.9-2.8-2.5c-1.1-0.6-2.4-1-3.9-1
		S794.6,491.8,793.5,492.5z"/>
	<path class="st1" d="M817.4,489.6v4.5h0.1c0.6-1.6,1.7-2.8,3.2-3.8c1.5-1,3.2-1.4,5-1.4c1.8,0,3.3,0.2,4.5,0.7s2.2,1.1,2.9,2
		c0.7,0.8,1.2,1.9,1.5,3.1c0.3,1.2,0.5,2.6,0.5,4.2v16.6h-3.2v-16.1c0-1.1-0.1-2.1-0.3-3.1s-0.5-1.8-1-2.5c-0.5-0.7-1.2-1.2-2-1.6
		c-0.8-0.4-1.9-0.6-3.2-0.6c-1.3,0-2.4,0.2-3.4,0.7c-1,0.4-1.8,1.1-2.5,1.8c-0.7,0.8-1.2,1.7-1.6,2.8c-0.4,1.1-0.6,2.3-0.6,3.5v15
		h-3.1v-25.8H817.4z"/>
	<path class="st1" d="M64.1,560.2h12.5v2.9H64.1V560.2z"/>
	<path class="st1" d="M97,549.6l8.5,22l7.9-22h3.1l-11.2,29.7c-0.5,1.1-0.9,2-1.3,2.7c-0.4,0.7-0.8,1.3-1.3,1.7
		c-0.5,0.4-1.1,0.7-1.7,0.9s-1.5,0.3-2.5,0.3c-0.6,0-1.1-0.1-1.5-0.1c-0.4,0-0.7-0.1-0.9-0.2V582c0.4,0.1,0.7,0.1,1.1,0.2
		c0.4,0,0.7,0.1,1.1,0.1c0.7,0,1.3-0.1,1.7-0.3c0.5-0.2,0.8-0.5,1.2-0.8c0.3-0.3,0.6-0.8,0.8-1.3c0.2-0.5,0.5-1,0.8-1.7l1.1-2.9
		l-10.3-25.7H97z"/>
	<path class="st1" d="M135.8,550c1.5,0.7,2.8,1.7,3.8,3c1,1.2,1.8,2.7,2.3,4.3c0.5,1.6,0.8,3.4,0.8,5.3c0,1.9-0.3,3.6-0.8,5.3
		s-1.3,3.1-2.3,4.3c-1,1.2-2.3,2.2-3.8,2.9c-1.5,0.7-3.3,1.1-5.2,1.1c-2,0-3.7-0.4-5.2-1.1c-1.5-0.7-2.8-1.7-3.8-2.9
		c-1-1.2-1.8-2.7-2.4-4.3c-0.5-1.7-0.8-3.4-0.8-5.3c0-1.9,0.3-3.6,0.8-5.3c0.5-1.7,1.3-3.1,2.4-4.3c1-1.2,2.3-2.2,3.8-3
		c1.5-0.7,3.3-1.1,5.2-1.1C132.5,548.9,134.3,549.2,135.8,550z M126.6,552.5c-1.1,0.6-2.1,1.5-2.8,2.5c-0.8,1-1.3,2.2-1.7,3.5
		c-0.4,1.3-0.6,2.7-0.6,4c0,1.4,0.2,2.7,0.6,4c0.4,1.3,1,2.5,1.7,3.5s1.7,1.9,2.8,2.5c1.1,0.6,2.4,0.9,3.9,0.9s2.8-0.3,4-0.9
		c1.1-0.6,2.1-1.5,2.8-2.5s1.3-2.2,1.7-3.5c0.4-1.3,0.6-2.7,0.6-4c0-1.4-0.2-2.7-0.6-4c-0.4-1.3-1-2.5-1.7-3.5
		c-0.8-1-1.7-1.9-2.8-2.5c-1.1-0.6-2.5-1-4-1S127.8,551.8,126.6,552.5z"/>
	<path class="st1" d="M165.5,575.4v-4.7h-0.1c-0.8,1.7-2,3.1-3.6,4c-1.6,0.9-3.3,1.4-5.3,1.4c-1.6,0-3-0.2-4.2-0.7
		c-1.2-0.5-2.1-1.1-2.8-1.9c-0.7-0.8-1.2-1.8-1.6-3c-0.3-1.2-0.5-2.6-0.5-4.1v-16.8h3.1v16.8c0.1,2.3,0.6,4.1,1.6,5.3
		c1,1.2,2.8,1.8,5.3,1.8c1.4,0,2.5-0.3,3.5-0.9c1-0.6,1.8-1.4,2.4-2.3c0.6-1,1.1-2.1,1.4-3.3c0.3-1.2,0.5-2.5,0.5-3.8v-13.5h3.1
		v25.8H165.5z"/>
	<path class="st1" d="M177.2,549.6v6h0.1c0.8-2.1,2-3.7,3.7-4.8c1.7-1.1,3.7-1.7,6-1.6v3.2c-1.4-0.1-2.7,0.1-3.9,0.6
		c-1.2,0.5-2.2,1.1-3,1.9c-0.9,0.8-1.5,1.8-2,3c-0.5,1.2-0.7,2.4-0.7,3.8v13.8h-3.1v-25.8H177.2z"/>
	<path class="st1" d="M208.8,552.3v23.2h-3.1v-23.2h-4.4v-2.6h4.4v-2.4c0-1.1,0.1-2.1,0.2-3c0.2-0.9,0.5-1.7,0.9-2.4
		c0.5-0.7,1.1-1.2,1.9-1.6c0.8-0.4,1.9-0.5,3.1-0.5c0.5,0,0.9,0,1.3,0c0.4,0,0.9,0.1,1.4,0.2v2.7c-0.4-0.1-0.8-0.1-1.2-0.2
		c-0.4-0.1-0.7-0.1-1.1-0.1c-0.9,0-1.5,0.1-2,0.4c-0.5,0.3-0.8,0.6-1,1.1c-0.2,0.5-0.3,1-0.4,1.6c0,0.6,0,1.2,0,2v2.2h5.1v2.6H208.8
		z"/>
	<path class="st1" d="M219.8,549.6v6h0.1c0.8-2.1,2-3.7,3.7-4.8c1.7-1.1,3.7-1.7,6-1.6v3.2c-1.4-0.1-2.7,0.1-3.9,0.6
		c-1.2,0.5-2.2,1.1-3,1.9c-0.9,0.8-1.5,1.8-2,3c-0.5,1.2-0.7,2.4-0.7,3.8v13.8h-3.1v-25.8H219.8z"/>
	<path class="st1" d="M235.9,539.7v5h-3.2v-5H235.9z M235.9,549.6v25.8h-3.2v-25.8H235.9z"/>
	<path class="st1" d="M244.2,566.9c0.3,1.2,0.8,2.3,1.5,3.3c0.7,1,1.6,1.8,2.6,2.4c1.1,0.6,2.4,0.9,3.9,0.9c2.3,0,4.1-0.6,5.4-1.8
		s2.2-2.8,2.7-4.8h3.1c-0.7,2.9-1.9,5.2-3.7,6.8c-1.8,1.6-4.3,2.4-7.6,2.4c-2,0-3.8-0.4-5.3-1.1c-1.5-0.7-2.7-1.7-3.6-3
		c-0.9-1.2-1.6-2.7-2.1-4.3c-0.5-1.7-0.7-3.4-0.7-5.2c0-1.7,0.2-3.4,0.7-5c0.5-1.6,1.1-3.1,2.1-4.4c0.9-1.3,2.1-2.3,3.6-3.1
		c1.5-0.8,3.2-1.2,5.3-1.2c2.1,0,3.8,0.4,5.3,1.2c1.5,0.8,2.7,1.9,3.6,3.3c0.9,1.4,1.6,2.9,2,4.7c0.4,1.8,0.6,3.5,0.5,5.3h-19.9
		C243.8,564.5,243.9,565.7,244.2,566.9z M259.8,557.3c-0.4-1.1-0.9-2.1-1.6-2.9c-0.7-0.8-1.5-1.5-2.5-2c-1-0.5-2.1-0.8-3.4-0.8
		c-1.3,0-2.5,0.3-3.5,0.8c-1,0.5-1.9,1.2-2.5,2c-0.7,0.9-1.3,1.8-1.7,3c-0.4,1.1-0.7,2.3-0.8,3.4h16.7
		C260.4,559.5,260.2,558.4,259.8,557.3z"/>
	<path class="st1" d="M271,549.6v4.5h0.1c0.6-1.6,1.7-2.8,3.2-3.8c1.5-1,3.2-1.4,5.1-1.4c1.8,0,3.3,0.2,4.5,0.7
		c1.2,0.5,2.2,1.1,2.9,2c0.7,0.8,1.2,1.9,1.6,3.1c0.3,1.2,0.4,2.6,0.4,4.2v16.6h-3.1v-16.1c0-1.1-0.1-2.1-0.3-3.1
		c-0.2-1-0.6-1.8-1.1-2.5c-0.5-0.7-1.2-1.2-2-1.6c-0.9-0.4-1.9-0.6-3.2-0.6c-1.3,0-2.4,0.2-3.4,0.7c-1,0.4-1.8,1.1-2.5,1.8
		c-0.7,0.8-1.2,1.7-1.6,2.8c-0.4,1.1-0.6,2.3-0.6,3.5v15h-3.1v-25.8H271z"/>
	<path class="st1" d="M314.5,575.4v-4.9h-0.1c-0.3,0.8-0.8,1.6-1.5,2.3c-0.6,0.7-1.4,1.3-2.2,1.8c-0.8,0.5-1.7,0.9-2.7,1.1
		c-1,0.3-1.9,0.4-2.8,0.4c-2,0-3.7-0.4-5.1-1.1s-2.7-1.7-3.6-3c-1-1.2-1.7-2.7-2.1-4.3c-0.5-1.7-0.7-3.4-0.7-5.2
		c0-1.8,0.2-3.6,0.7-5.2c0.5-1.7,1.2-3.1,2.1-4.3c1-1.2,2.2-2.2,3.6-3c1.5-0.7,3.2-1.1,5.1-1.1c1,0,1.9,0.1,2.8,0.3
		c0.9,0.2,1.8,0.6,2.6,1.1c0.8,0.5,1.5,1.1,2.1,1.8c0.6,0.7,1.1,1.5,1.4,2.4h0.1v-14.8h3.2v35.7H314.5z M297.2,566.5
		c0.3,1.3,0.8,2.5,1.5,3.5c0.7,1,1.6,1.9,2.6,2.5c1.1,0.7,2.4,1,3.9,1c1.7,0,3.1-0.3,4.2-1s2.1-1.5,2.8-2.5c0.7-1,1.2-2.2,1.6-3.5
		c0.3-1.3,0.5-2.6,0.5-4c0-1.3-0.2-2.7-0.5-4c-0.3-1.3-0.8-2.5-1.6-3.5c-0.7-1-1.6-1.9-2.8-2.5c-1.1-0.7-2.6-1-4.2-1
		c-1.5,0-2.8,0.3-3.9,1c-1.1,0.6-1.9,1.5-2.6,2.5c-0.7,1-1.2,2.2-1.5,3.5c-0.3,1.3-0.5,2.6-0.5,4
		C296.8,563.9,296.9,565.2,297.2,566.5z"/>
	<path class="st1" d="M329.6,545.1c0,0.7-0.1,1.5-0.3,2.2c-0.2,0.7-0.5,1.4-0.8,2c-0.4,0.6-0.8,1.2-1.4,1.6c-0.5,0.5-1.2,0.8-2,1
		v-2.2c0.4-0.1,0.8-0.4,1.1-0.7c0.3-0.4,0.6-0.8,0.8-1.2c0.2-0.5,0.3-0.9,0.4-1.4c0.1-0.5,0.1-0.9,0.1-1.3h-2.1v-5.3h4.2V545.1z"/>
	<path class="st1" d="M346.6,554.7c-0.4-0.7-0.9-1.3-1.5-1.8c-0.6-0.5-1.3-0.8-2.1-1c-0.8-0.2-1.6-0.3-2.5-0.3
		c-0.7,0-1.4,0.1-2.1,0.2c-0.7,0.1-1.4,0.4-2,0.8c-0.6,0.3-1.1,0.8-1.5,1.4c-0.4,0.6-0.5,1.3-0.5,2.1c0,0.7,0.2,1.3,0.5,1.8
		s0.8,0.9,1.3,1.2c0.5,0.3,1.1,0.6,1.8,0.8c0.6,0.2,1.2,0.4,1.8,0.5l4.2,0.9c0.9,0.1,1.8,0.4,2.7,0.7c0.9,0.3,1.7,0.8,2.3,1.4
		c0.7,0.6,1.2,1.3,1.7,2.1c0.4,0.8,0.6,1.8,0.6,3c0,1.4-0.3,2.6-1,3.6c-0.6,1-1.4,1.8-2.4,2.4c-1,0.6-2.1,1.1-3.3,1.3
		c-1.2,0.3-2.4,0.4-3.6,0.4c-3,0-5.5-0.7-7.4-2.2c-1.9-1.4-3-3.7-3.2-6.9h3.2c0.1,2.1,0.9,3.7,2.3,4.8c1.4,1.1,3.2,1.6,5.3,1.6
		c0.8,0,1.6-0.1,2.4-0.2c0.8-0.2,1.6-0.4,2.3-0.8c0.7-0.4,1.3-0.9,1.7-1.5c0.5-0.6,0.7-1.4,0.7-2.3c0-0.8-0.2-1.4-0.5-1.9
		c-0.3-0.5-0.7-1-1.3-1.3c-0.5-0.3-1.1-0.6-1.8-0.9c-0.7-0.2-1.4-0.4-2.1-0.6l-4.1-0.9c-1-0.3-2-0.6-2.9-0.9
		c-0.9-0.3-1.6-0.8-2.3-1.3c-0.6-0.5-1.2-1.2-1.5-1.9c-0.4-0.8-0.5-1.7-0.5-2.8c0-1.3,0.3-2.4,0.9-3.4c0.6-0.9,1.3-1.7,2.3-2.2
		c0.9-0.6,2-1,3.1-1.2c1.1-0.3,2.3-0.4,3.4-0.4c1.3,0,2.5,0.2,3.6,0.5c1.1,0.3,2.1,0.8,3,1.5s1.5,1.6,2,2.6c0.5,1,0.8,2.2,0.9,3.7
		h-3.1C347.2,556.2,347,555.4,346.6,554.7z"/>
	<path class="st1" d="M372.8,549.6v4.5h0.1c0.6-1.6,1.7-2.8,3.2-3.8c1.5-1,3.2-1.4,5.1-1.4c1.8,0,3.3,0.2,4.5,0.7
		c1.2,0.5,2.2,1.1,2.9,2c0.7,0.8,1.2,1.9,1.6,3.1c0.3,1.2,0.4,2.6,0.4,4.2v16.6h-3.1v-16.1c0-1.1-0.1-2.1-0.3-3.1
		c-0.2-1-0.6-1.8-1.1-2.5c-0.5-0.7-1.2-1.2-2-1.6c-0.9-0.4-1.9-0.6-3.2-0.6c-1.3,0-2.4,0.2-3.4,0.7c-1,0.4-1.8,1.1-2.5,1.8
		c-0.7,0.8-1.2,1.7-1.6,2.8c-0.4,1.1-0.6,2.3-0.6,3.5v15h-3.1v-25.8H372.8z"/>
	<path class="st1" d="M398.9,566.9c0.3,1.2,0.8,2.3,1.5,3.3c0.7,1,1.6,1.8,2.6,2.4c1.1,0.6,2.4,0.9,3.9,0.9c2.3,0,4.1-0.6,5.4-1.8
		s2.2-2.8,2.7-4.8h3.1c-0.7,2.9-1.9,5.2-3.7,6.8c-1.8,1.6-4.3,2.4-7.6,2.4c-2,0-3.8-0.4-5.3-1.1c-1.5-0.7-2.7-1.7-3.6-3
		c-0.9-1.2-1.6-2.7-2.1-4.3c-0.5-1.7-0.7-3.4-0.7-5.2c0-1.7,0.2-3.4,0.7-5c0.5-1.6,1.1-3.1,2.1-4.4c0.9-1.3,2.1-2.3,3.6-3.1
		c1.5-0.8,3.2-1.2,5.3-1.2c2.1,0,3.8,0.4,5.3,1.2c1.5,0.8,2.7,1.9,3.6,3.3c0.9,1.4,1.6,2.9,2,4.7c0.4,1.8,0.6,3.5,0.5,5.3h-19.9
		C398.4,564.5,398.6,565.7,398.9,566.9z M414.5,557.3c-0.4-1.1-0.9-2.1-1.6-2.9c-0.7-0.8-1.5-1.5-2.5-2c-1-0.5-2.1-0.8-3.4-0.8
		c-1.3,0-2.5,0.3-3.5,0.8c-1,0.5-1.9,1.2-2.5,2c-0.7,0.9-1.3,1.8-1.7,3c-0.4,1.1-0.7,2.3-0.8,3.4h16.7
		C415.1,559.5,414.9,558.4,414.5,557.3z"/>
	<path class="st1" d="M423.3,549.6l6.6,22.1h0.1l6.3-22.1h3.5l6.3,22.1h0.1l6.6-22.1h3.4l-8.3,25.8h-3.5l-6.4-21.7H438l-6.3,21.7
		h-3.4l-8.3-25.8H423.3z"/>
	<path class="st1" d="M494.6,578.5c-0.4,1.5-1.1,2.8-2,3.9c-0.9,1.1-2.1,1.9-3.5,2.5c-1.4,0.6-3.2,0.8-5.3,0.8
		c-1.3,0-2.6-0.2-3.8-0.5c-1.2-0.3-2.3-0.8-3.3-1.4c-1-0.6-1.8-1.4-2.5-2.4s-1-2.2-1.1-3.5h3.1c0.2,1,0.5,1.8,1,2.4
		c0.5,0.7,1.1,1.2,1.8,1.6c0.7,0.4,1.4,0.7,2.3,0.9c0.8,0.2,1.7,0.3,2.6,0.3c2.9,0,5-0.8,6.4-2.5c1.3-1.7,1.9-4.1,1.9-7.2v-3.5H492
		c-0.7,1.6-1.8,2.9-3.2,3.8c-1.4,1-3.1,1.5-5,1.5c-2.1,0-3.8-0.3-5.3-1c-1.5-0.7-2.7-1.6-3.6-2.8c-0.9-1.2-1.6-2.6-2.1-4.2
		c-0.4-1.6-0.6-3.3-0.6-5.2c0-1.8,0.3-3.4,0.8-5c0.5-1.6,1.3-3,2.2-4.1c1-1.2,2.2-2.1,3.6-2.8c1.5-0.7,3.1-1,5-1
		c1,0,1.9,0.1,2.7,0.4c0.8,0.3,1.6,0.6,2.3,1.1c0.7,0.5,1.3,1,1.9,1.7c0.6,0.6,1,1.3,1.3,2h0.1v-4.5h3.1v23.7
		C495.3,575.2,495.1,576.9,494.6,578.5z M487.4,571.6c1-0.6,1.9-1.3,2.6-2.3c0.7-1,1.2-2,1.6-3.3c0.4-1.2,0.5-2.5,0.5-3.8
		c0-1.3-0.1-2.5-0.4-3.8c-0.3-1.3-0.8-2.4-1.5-3.5c-0.7-1-1.5-1.9-2.6-2.5c-1-0.6-2.3-1-3.8-1s-2.8,0.3-3.9,0.9
		c-1.1,0.6-2,1.4-2.6,2.4c-0.7,1-1.2,2.1-1.5,3.4c-0.3,1.3-0.5,2.6-0.5,3.9c0,1.3,0.2,2.6,0.5,3.8c0.3,1.2,0.9,2.3,1.5,3.3
		c0.7,1,1.6,1.7,2.6,2.3c1.1,0.6,2.3,0.9,3.8,0.9C485.2,572.5,486.4,572.2,487.4,571.6z"/>
	<path class="st1" d="M504.5,539.7v35.7h-3.2v-35.7H504.5z"/>
	<path class="st1" d="M528.5,575.4v-4.7h-0.1c-0.8,1.7-2,3.1-3.6,4c-1.6,0.9-3.3,1.4-5.3,1.4c-1.6,0-3-0.2-4.2-0.7
		c-1.2-0.5-2.1-1.1-2.8-1.9c-0.7-0.8-1.2-1.8-1.6-3c-0.3-1.2-0.5-2.6-0.5-4.1v-16.8h3.1v16.8c0.1,2.3,0.6,4.1,1.6,5.3
		s2.8,1.8,5.3,1.8c1.4,0,2.5-0.3,3.5-0.9c1-0.6,1.8-1.4,2.4-2.3c0.6-1,1.1-2.1,1.4-3.3s0.5-2.5,0.5-3.8v-13.5h3.2v25.8H528.5z"/>
	<path class="st1" d="M547.6,549.6v2.6h-5.2v17.4c0,1,0.1,1.8,0.4,2.4c0.3,0.6,1,0.9,2.1,1c0.9,0,1.8-0.1,2.7-0.2v2.7
		c-0.5,0-0.9,0-1.4,0c-0.5,0-0.9,0-1.4,0c-2.1,0-3.6-0.4-4.4-1.2s-1.2-2.3-1.2-4.5v-17.7h-4.5v-2.6h4.5v-7.8h3.2v7.8H547.6z"/>
	<path class="st1" d="M554.5,566.9c0.3,1.2,0.8,2.3,1.5,3.3c0.7,1,1.6,1.8,2.7,2.4c1.1,0.6,2.3,0.9,3.8,0.9c2.3,0,4.1-0.6,5.4-1.8
		s2.2-2.8,2.7-4.8h3.1c-0.7,2.9-1.9,5.2-3.7,6.8c-1.8,1.6-4.3,2.4-7.6,2.4c-2,0-3.8-0.4-5.3-1.1c-1.5-0.7-2.7-1.7-3.6-3
		c-0.9-1.2-1.6-2.7-2.1-4.3c-0.5-1.7-0.7-3.4-0.7-5.2c0-1.7,0.2-3.4,0.7-5c0.5-1.6,1.1-3.1,2.1-4.4c0.9-1.3,2.1-2.3,3.6-3.1
		c1.5-0.8,3.2-1.2,5.3-1.2c2.1,0,3.8,0.4,5.3,1.2c1.5,0.8,2.7,1.9,3.6,3.3c0.9,1.4,1.6,2.9,2,4.7c0.4,1.8,0.6,3.5,0.5,5.3H554
		C554,564.5,554.2,565.7,554.5,566.9z M570.1,557.3c-0.4-1.1-0.9-2.1-1.6-2.9c-0.7-0.8-1.5-1.5-2.5-2c-1-0.5-2.1-0.8-3.4-0.8
		c-1.3,0-2.4,0.3-3.4,0.8c-1,0.5-1.9,1.2-2.6,2c-0.7,0.9-1.3,1.8-1.7,3c-0.4,1.1-0.7,2.3-0.8,3.4h16.7
		C570.7,559.5,570.5,558.4,570.1,557.3z"/>
	<path class="st1" d="M581.2,549.6v4.5h0.1c0.6-1.6,1.7-2.8,3.2-3.8c1.5-1,3.2-1.4,5-1.4c1.8,0,3.3,0.2,4.5,0.7s2.2,1.1,2.9,2
		c0.7,0.8,1.2,1.9,1.5,3.1c0.3,1.2,0.5,2.6,0.5,4.2v16.6h-3.2v-16.1c0-1.1-0.1-2.1-0.3-3.1s-0.5-1.8-1-2.5c-0.5-0.7-1.2-1.2-2-1.6
		c-0.8-0.4-1.9-0.6-3.2-0.6c-1.3,0-2.4,0.2-3.4,0.7c-1,0.4-1.8,1.1-2.5,1.8c-0.7,0.8-1.2,1.7-1.6,2.8c-0.4,1.1-0.6,2.3-0.6,3.5v15
		h-3.1v-25.8H581.2z"/>
	<path class="st1" d="M605,560.2h12.5v2.9H605V560.2z"/>
	<path class="st1" d="M628.3,552.3v23.2h-3.1v-23.2h-4.4v-2.6h4.4v-2.4c0-1.1,0.1-2.1,0.2-3c0.2-0.9,0.5-1.7,1-2.4
		c0.5-0.7,1.1-1.2,1.9-1.6c0.8-0.4,1.9-0.5,3.1-0.5c0.5,0,0.9,0,1.3,0c0.4,0,0.8,0.1,1.3,0.2v2.7c-0.4-0.1-0.8-0.1-1.2-0.2
		c-0.4-0.1-0.7-0.1-1.1-0.1c-0.9,0-1.5,0.1-2,0.4c-0.5,0.3-0.8,0.6-1,1.1c-0.2,0.5-0.3,1-0.4,1.6c0,0.6-0.1,1.2-0.1,2v2.2h5.1v2.6
		H628.3z"/>
	<path class="st1" d="M639.3,549.6v6h0.1c0.8-2.1,2-3.7,3.7-4.8s3.7-1.7,6-1.6v3.2c-1.4-0.1-2.7,0.1-3.9,0.6s-2.2,1.1-3,1.9
		c-0.9,0.8-1.5,1.8-2,3c-0.5,1.2-0.7,2.4-0.7,3.8v13.8h-3.2v-25.8H639.3z"/>
	<path class="st1" d="M653.6,566.9c0.3,1.2,0.8,2.3,1.5,3.3c0.7,1,1.6,1.8,2.7,2.4c1.1,0.6,2.3,0.9,3.8,0.9c2.3,0,4.1-0.6,5.4-1.8
		s2.2-2.8,2.7-4.8h3.1c-0.7,2.9-1.9,5.2-3.7,6.8c-1.8,1.6-4.3,2.4-7.6,2.4c-2,0-3.8-0.4-5.3-1.1c-1.5-0.7-2.7-1.7-3.6-3
		c-0.9-1.2-1.6-2.7-2.1-4.3c-0.5-1.7-0.7-3.4-0.7-5.2c0-1.7,0.2-3.4,0.7-5c0.5-1.6,1.1-3.1,2.1-4.4c0.9-1.3,2.1-2.3,3.6-3.1
		c1.5-0.8,3.2-1.2,5.3-1.2c2.1,0,3.8,0.4,5.3,1.2c1.5,0.8,2.7,1.9,3.6,3.3c0.9,1.4,1.6,2.9,2,4.7c0.4,1.8,0.6,3.5,0.5,5.3h-19.9
		C653.1,564.5,653.3,565.7,653.6,566.9z M669.2,557.3c-0.4-1.1-0.9-2.1-1.6-2.9c-0.7-0.8-1.5-1.5-2.5-2c-1-0.5-2.1-0.8-3.4-0.8
		c-1.3,0-2.4,0.3-3.4,0.8c-1,0.5-1.9,1.2-2.6,2c-0.7,0.9-1.3,1.8-1.7,3c-0.4,1.1-0.7,2.3-0.8,3.4h16.7
		C669.8,559.5,669.6,558.4,669.2,557.3z"/>
	<path class="st1" d="M679.5,566.9c0.3,1.2,0.8,2.3,1.5,3.3c0.7,1,1.6,1.8,2.7,2.4c1.1,0.6,2.3,0.9,3.8,0.9c2.3,0,4.1-0.6,5.4-1.8
		s2.2-2.8,2.7-4.8h3.1c-0.7,2.9-1.9,5.2-3.7,6.8c-1.8,1.6-4.3,2.4-7.6,2.4c-2,0-3.8-0.4-5.3-1.1c-1.5-0.7-2.7-1.7-3.6-3
		c-0.9-1.2-1.6-2.7-2.1-4.3c-0.5-1.7-0.7-3.4-0.7-5.2c0-1.7,0.2-3.4,0.7-5c0.5-1.6,1.1-3.1,2.1-4.4c0.9-1.3,2.1-2.3,3.6-3.1
		c1.5-0.8,3.2-1.2,5.3-1.2c2.1,0,3.8,0.4,5.3,1.2c1.5,0.8,2.7,1.9,3.6,3.3c0.9,1.4,1.6,2.9,2,4.7c0.4,1.8,0.6,3.5,0.5,5.3h-19.9
		C679.1,564.5,679.2,565.7,679.5,566.9z M695.1,557.3c-0.4-1.1-0.9-2.1-1.6-2.9c-0.7-0.8-1.5-1.5-2.5-2c-1-0.5-2.1-0.8-3.4-0.8
		c-1.3,0-2.4,0.3-3.4,0.8c-1,0.5-1.9,1.2-2.6,2c-0.7,0.9-1.3,1.8-1.7,3c-0.4,1.1-0.7,2.3-0.8,3.4h16.7
		C695.7,559.5,695.5,558.4,695.1,557.3z"/>
	<path class="st1" d="M67.3,599.7v35.7h-3.2v-35.7H67.3z"/>
	<path class="st1" d="M89.5,610c1.5,0.7,2.8,1.7,3.8,3c1,1.2,1.8,2.7,2.3,4.3c0.5,1.6,0.8,3.4,0.8,5.3c0,1.9-0.3,3.6-0.8,5.3
		s-1.3,3.1-2.3,4.3c-1,1.2-2.3,2.2-3.8,2.9c-1.5,0.7-3.3,1.1-5.2,1.1c-2,0-3.7-0.4-5.2-1.1c-1.5-0.7-2.8-1.7-3.8-2.9
		c-1-1.2-1.8-2.7-2.4-4.3c-0.5-1.7-0.8-3.4-0.8-5.3c0-1.9,0.3-3.6,0.8-5.3c0.5-1.7,1.3-3.1,2.4-4.3c1-1.2,2.3-2.2,3.8-3
		c1.5-0.7,3.3-1.1,5.2-1.1C86.2,608.9,88,609.2,89.5,610z M80.3,612.5c-1.1,0.6-2.1,1.5-2.8,2.5c-0.8,1-1.3,2.2-1.7,3.5
		c-0.4,1.3-0.6,2.7-0.6,4c0,1.4,0.2,2.7,0.6,4c0.4,1.3,1,2.5,1.7,3.5s1.7,1.9,2.8,2.5c1.1,0.6,2.4,0.9,3.9,0.9s2.8-0.3,4-0.9
		c1.1-0.6,2.1-1.5,2.8-2.5s1.3-2.2,1.7-3.5c0.4-1.3,0.6-2.7,0.6-4c0-1.4-0.2-2.7-0.6-4c-0.4-1.3-1-2.5-1.7-3.5
		c-0.8-1-1.7-1.9-2.8-2.5c-1.1-0.6-2.5-1-4-1S81.5,611.8,80.3,612.5z"/>
	<path class="st1" d="M117,613.2c-1.2-1.1-2.8-1.7-4.9-1.7c-1.5,0-2.8,0.3-3.9,1c-1.1,0.6-2.1,1.5-2.8,2.5c-0.8,1-1.3,2.2-1.7,3.5
		c-0.4,1.3-0.6,2.7-0.6,4c0,1.4,0.2,2.7,0.6,4c0.4,1.3,1,2.5,1.7,3.5s1.7,1.9,2.8,2.5c1.1,0.6,2.4,0.9,3.9,0.9c1,0,1.9-0.2,2.8-0.5
		c0.9-0.4,1.6-0.9,2.3-1.5c0.7-0.7,1.2-1.4,1.6-2.3c0.4-0.9,0.7-1.9,0.8-3h3.1c-0.4,3.1-1.6,5.6-3.4,7.3c-1.9,1.8-4.3,2.6-7.2,2.6
		c-2,0-3.7-0.4-5.2-1.1c-1.5-0.7-2.8-1.7-3.8-2.9c-1-1.2-1.8-2.7-2.4-4.3c-0.5-1.7-0.8-3.4-0.8-5.3c0-1.9,0.3-3.6,0.8-5.3
		c0.5-1.7,1.3-3.1,2.4-4.3c1-1.2,2.3-2.2,3.8-3c1.5-0.7,3.3-1.1,5.2-1.1c2.8,0,5.1,0.7,7,2.2c1.9,1.5,3.1,3.7,3.4,6.6h-3.1
		C118.9,615.8,118.1,614.3,117,613.2z"/>
	<path class="st1" d="M127.8,613.6c0.5-1.1,1.3-2,2.2-2.7c0.9-0.7,2-1.2,3.2-1.5c1.2-0.3,2.6-0.5,4.1-0.5c1.1,0,2.3,0.1,3.4,0.3
		c1.1,0.2,2.2,0.6,3.1,1.2s1.6,1.4,2.2,2.5c0.6,1.1,0.9,2.5,0.9,4.2v13.7c0,1.3,0.6,1.9,1.9,1.9c0.4,0,0.7-0.1,1-0.2v2.6
		c-0.4,0.1-0.7,0.1-1,0.2c-0.3,0-0.6,0-1.1,0c-0.8,0-1.4-0.1-1.9-0.3c-0.5-0.2-0.9-0.5-1.1-0.9c-0.3-0.4-0.4-0.9-0.5-1.4
		c-0.1-0.5-0.1-1.2-0.1-1.8h-0.1c-0.6,0.8-1.1,1.6-1.7,2.2c-0.6,0.7-1.2,1.2-1.9,1.6c-0.7,0.4-1.5,0.8-2.5,1c-0.9,0.2-2,0.4-3.3,0.4
		c-1.2,0-2.3-0.1-3.4-0.4c-1-0.3-2-0.7-2.8-1.4c-0.8-0.6-1.4-1.4-1.9-2.3c-0.4-1-0.7-2.1-0.7-3.4c0-1.8,0.4-3.2,1.2-4.2
		c0.8-1,1.9-1.8,3.2-2.3c1.3-0.5,2.8-0.9,4.4-1.1c1.7-0.2,3.3-0.4,5-0.6c0.7-0.1,1.2-0.2,1.8-0.2c0.5-0.1,0.9-0.3,1.2-0.5
		c0.3-0.2,0.6-0.6,0.8-1c0.2-0.4,0.3-1,0.3-1.7c0-1.1-0.2-1.9-0.5-2.6s-0.8-1.2-1.5-1.6c-0.6-0.4-1.3-0.7-2.1-0.8
		c-0.8-0.2-1.7-0.2-2.6-0.2c-2,0-3.6,0.5-4.9,1.4c-1.3,0.9-1.9,2.5-2,4.6h-3.1C126.9,616,127.2,614.7,127.8,613.6z M143.5,621.3
		c-0.2,0.4-0.6,0.6-1.1,0.8c-0.6,0.2-1.1,0.3-1.5,0.3c-1.3,0.2-2.7,0.4-4.1,0.6c-1.4,0.2-2.7,0.5-3.9,0.8c-1.2,0.4-2.1,0.9-2.9,1.6
		c-0.8,0.7-1.1,1.7-1.1,2.9c0,0.8,0.2,1.5,0.5,2.1c0.3,0.6,0.7,1.2,1.3,1.6c0.5,0.5,1.1,0.8,1.9,1c0.7,0.2,1.4,0.3,2.1,0.3
		c1.2,0,2.4-0.2,3.5-0.5c1.1-0.4,2.1-0.9,2.9-1.6c0.8-0.7,1.5-1.5,1.9-2.5c0.5-1,0.7-2.1,0.7-3.4v-4.1H143.5z"/>
	<path class="st1" d="M156.3,599.7v35.7h-3.2v-35.7H156.3z"/>
	<path class="st1" d="M165.5,599.7v35.7h-3.2v-35.7H165.5z"/>
	<path class="st1" d="M172,609.6l8.5,22l7.9-22h3.1l-11.2,29.7c-0.5,1.1-0.9,2-1.3,2.7c-0.4,0.7-0.8,1.3-1.3,1.7
		c-0.5,0.4-1.1,0.7-1.7,0.9s-1.5,0.3-2.5,0.3c-0.6,0-1.1-0.1-1.5-0.1c-0.4,0-0.7-0.1-0.9-0.2V642c0.4,0.1,0.7,0.1,1.1,0.2
		c0.4,0,0.7,0.1,1.1,0.1c0.7,0,1.3-0.1,1.7-0.3c0.5-0.2,0.8-0.5,1.2-0.8c0.3-0.3,0.6-0.8,0.8-1.3c0.2-0.5,0.5-1,0.8-1.7l1.1-2.9
		l-10.3-25.7H172z"/>
	<path class="st1" d="M194.7,620.2h12.5v2.9h-12.5V620.2z"/>
	<path class="st1" d="M228.1,614.7c-0.4-0.7-0.9-1.3-1.5-1.8c-0.6-0.5-1.3-0.8-2.1-1c-0.8-0.2-1.6-0.3-2.5-0.3
		c-0.7,0-1.4,0.1-2.1,0.2c-0.7,0.1-1.4,0.4-2,0.8c-0.6,0.3-1.1,0.8-1.5,1.4c-0.4,0.6-0.5,1.3-0.5,2.1c0,0.7,0.2,1.3,0.5,1.8
		s0.8,0.9,1.3,1.2c0.5,0.3,1.1,0.6,1.8,0.8c0.6,0.2,1.2,0.4,1.8,0.5l4.2,0.9c0.9,0.1,1.8,0.4,2.7,0.7c0.9,0.3,1.7,0.8,2.3,1.4
		c0.7,0.6,1.2,1.3,1.7,2.1c0.4,0.8,0.6,1.8,0.6,3c0,1.4-0.3,2.6-1,3.6c-0.6,1-1.4,1.8-2.4,2.4c-1,0.6-2.1,1.1-3.3,1.3
		c-1.2,0.3-2.4,0.4-3.6,0.4c-3,0-5.5-0.7-7.4-2.2c-1.9-1.4-3-3.7-3.2-6.9h3.2c0.1,2.1,0.9,3.7,2.3,4.8c1.4,1.1,3.2,1.6,5.3,1.6
		c0.8,0,1.6-0.1,2.4-0.2c0.8-0.2,1.6-0.4,2.3-0.8c0.7-0.4,1.3-0.9,1.7-1.5c0.5-0.6,0.7-1.4,0.7-2.3c0-0.8-0.2-1.4-0.5-1.9
		c-0.3-0.5-0.7-1-1.3-1.3c-0.5-0.3-1.1-0.6-1.8-0.9c-0.7-0.2-1.4-0.4-2.1-0.6l-4.1-0.9c-1-0.3-2-0.6-2.9-0.9
		c-0.9-0.3-1.6-0.8-2.3-1.3c-0.6-0.5-1.2-1.2-1.5-1.9c-0.4-0.8-0.5-1.7-0.5-2.8c0-1.3,0.3-2.4,0.9-3.4c0.6-0.9,1.3-1.7,2.3-2.2
		c0.9-0.6,2-1,3.1-1.2c1.1-0.3,2.3-0.4,3.4-0.4c1.3,0,2.5,0.2,3.6,0.5c1.1,0.3,2.1,0.8,3,1.5s1.5,1.6,2,2.6c0.5,1,0.8,2.2,0.9,3.7
		h-3.1C228.6,616.2,228.4,615.4,228.1,614.7z"/>
	<path class="st1" d="M253.4,610c1.5,0.7,2.8,1.7,3.8,3c1,1.2,1.8,2.7,2.3,4.3c0.5,1.6,0.8,3.4,0.8,5.3c0,1.9-0.3,3.6-0.8,5.3
		s-1.3,3.1-2.3,4.3c-1,1.2-2.3,2.2-3.8,2.9c-1.5,0.7-3.3,1.1-5.2,1.1c-2,0-3.7-0.4-5.2-1.1c-1.5-0.7-2.8-1.7-3.8-2.9
		c-1-1.2-1.8-2.7-2.4-4.3c-0.5-1.7-0.8-3.4-0.8-5.3c0-1.9,0.3-3.6,0.8-5.3c0.5-1.7,1.3-3.1,2.4-4.3c1-1.2,2.3-2.2,3.8-3
		c1.5-0.7,3.3-1.1,5.2-1.1C250.1,608.9,251.9,609.2,253.4,610z M244.2,612.5c-1.1,0.6-2.1,1.5-2.8,2.5c-0.8,1-1.3,2.2-1.7,3.5
		c-0.4,1.3-0.6,2.7-0.6,4c0,1.4,0.2,2.7,0.6,4c0.4,1.3,1,2.5,1.7,3.5s1.7,1.9,2.8,2.5c1.1,0.6,2.4,0.9,3.9,0.9s2.8-0.3,4-0.9
		c1.1-0.6,2.1-1.5,2.8-2.5s1.3-2.2,1.7-3.5c0.4-1.3,0.6-2.7,0.6-4c0-1.4-0.2-2.7-0.6-4c-0.4-1.3-1-2.5-1.7-3.5
		c-0.8-1-1.7-1.9-2.8-2.5c-1.1-0.6-2.5-1-4-1S245.4,611.8,244.2,612.5z"/>
	<path class="st1" d="M283.1,635.4v-4.7H283c-0.8,1.7-2,3.1-3.6,4c-1.6,0.9-3.3,1.4-5.3,1.4c-1.6,0-3-0.2-4.2-0.7
		c-1.2-0.5-2.1-1.1-2.8-1.9c-0.7-0.8-1.2-1.8-1.6-3c-0.3-1.2-0.5-2.6-0.5-4.1v-16.8h3.1v16.8c0.1,2.3,0.6,4.1,1.6,5.3
		c1,1.2,2.8,1.8,5.3,1.8c1.4,0,2.5-0.3,3.5-0.9c1-0.6,1.8-1.4,2.4-2.3c0.6-1,1.1-2.1,1.4-3.3c0.3-1.2,0.5-2.5,0.5-3.8v-13.5h3.1
		v25.8H283.1z"/>
	<path class="st1" d="M294.8,609.6v6h0.1c0.8-2.1,2-3.7,3.7-4.8c1.7-1.1,3.7-1.7,6-1.6v3.2c-1.4-0.1-2.7,0.1-3.9,0.6
		c-1.2,0.5-2.2,1.1-3,1.9c-0.9,0.8-1.5,1.8-2,3c-0.5,1.2-0.7,2.4-0.7,3.8v13.8h-3.1v-25.8H294.8z"/>
	<path class="st1" d="M322.6,613.2c-1.2-1.1-2.8-1.7-4.9-1.7c-1.5,0-2.8,0.3-3.9,1c-1.1,0.6-2.1,1.5-2.8,2.5c-0.8,1-1.3,2.2-1.7,3.5
		c-0.4,1.3-0.6,2.7-0.6,4c0,1.4,0.2,2.7,0.6,4c0.4,1.3,1,2.5,1.7,3.5s1.7,1.9,2.8,2.5c1.1,0.6,2.4,0.9,3.9,0.9c1,0,1.9-0.2,2.8-0.5
		c0.9-0.4,1.6-0.9,2.3-1.5c0.7-0.7,1.2-1.4,1.6-2.3c0.4-0.9,0.7-1.9,0.8-3h3.1c-0.4,3.1-1.6,5.6-3.4,7.3c-1.9,1.8-4.3,2.6-7.2,2.6
		c-2,0-3.7-0.4-5.2-1.1c-1.5-0.7-2.8-1.7-3.8-2.9c-1-1.2-1.8-2.7-2.4-4.3c-0.5-1.7-0.8-3.4-0.8-5.3c0-1.9,0.3-3.6,0.8-5.3
		c0.5-1.7,1.3-3.1,2.4-4.3c1-1.2,2.3-2.2,3.8-3c1.5-0.7,3.3-1.1,5.2-1.1c2.8,0,5.1,0.7,7,2.2c1.9,1.5,3.1,3.7,3.4,6.6H325
		C324.5,615.8,323.7,614.3,322.6,613.2z"/>
	<path class="st1" d="M335,626.9c0.3,1.2,0.8,2.3,1.5,3.3c0.7,1,1.6,1.8,2.6,2.4c1.1,0.6,2.4,0.9,3.9,0.9c2.3,0,4.1-0.6,5.4-1.8
		s2.2-2.8,2.7-4.8h3.1c-0.7,2.9-1.9,5.2-3.7,6.8c-1.8,1.6-4.3,2.4-7.6,2.4c-2,0-3.8-0.4-5.3-1.1c-1.5-0.7-2.7-1.7-3.6-3
		c-0.9-1.2-1.6-2.7-2.1-4.3c-0.5-1.7-0.7-3.4-0.7-5.2c0-1.7,0.2-3.4,0.7-5c0.5-1.6,1.1-3.1,2.1-4.4c0.9-1.3,2.1-2.3,3.6-3.1
		c1.5-0.8,3.2-1.2,5.3-1.2c2.1,0,3.8,0.4,5.3,1.2c1.5,0.8,2.7,1.9,3.6,3.3c0.9,1.4,1.6,2.9,2,4.7c0.4,1.8,0.6,3.5,0.5,5.3h-19.9
		C334.6,624.5,334.7,625.7,335,626.9z M350.6,617.3c-0.4-1.1-0.9-2.1-1.6-2.9c-0.7-0.8-1.5-1.5-2.5-2c-1-0.5-2.1-0.8-3.4-0.8
		c-1.3,0-2.5,0.3-3.5,0.8c-1,0.5-1.9,1.2-2.5,2c-0.7,0.9-1.3,1.8-1.7,3c-0.4,1.1-0.7,2.3-0.8,3.4h16.7
		C351.2,619.5,351,618.4,350.6,617.3z"/>
	<path class="st1" d="M378.5,635.4v-4.9h-0.1c-0.3,0.8-0.8,1.6-1.5,2.3c-0.6,0.7-1.4,1.3-2.2,1.8c-0.8,0.5-1.7,0.9-2.7,1.1
		c-1,0.3-1.9,0.4-2.8,0.4c-2,0-3.7-0.4-5.1-1.1s-2.7-1.7-3.6-3c-1-1.2-1.7-2.7-2.1-4.3c-0.5-1.7-0.7-3.4-0.7-5.2
		c0-1.8,0.2-3.6,0.7-5.2c0.5-1.7,1.2-3.1,2.1-4.3c1-1.2,2.2-2.2,3.6-3c1.5-0.7,3.2-1.1,5.1-1.1c1,0,1.9,0.1,2.8,0.3
		c0.9,0.2,1.8,0.6,2.6,1.1c0.8,0.5,1.5,1.1,2.1,1.8c0.6,0.7,1.1,1.5,1.4,2.4h0.1v-14.8h3.2v35.7H378.5z M361.2,626.5
		c0.3,1.3,0.8,2.5,1.5,3.5c0.7,1,1.6,1.9,2.6,2.5c1.1,0.7,2.4,1,3.9,1c1.7,0,3.1-0.3,4.2-1s2.1-1.5,2.8-2.5c0.7-1,1.2-2.2,1.6-3.5
		c0.3-1.3,0.5-2.6,0.5-4c0-1.3-0.2-2.7-0.5-4c-0.3-1.3-0.8-2.5-1.6-3.5c-0.7-1-1.6-1.9-2.8-2.5c-1.1-0.7-2.6-1-4.2-1
		c-1.5,0-2.8,0.3-3.9,1c-1.1,0.6-1.9,1.5-2.6,2.5c-0.7,1-1.2,2.2-1.5,3.5c-0.3,1.3-0.5,2.6-0.5,4
		C360.7,623.9,360.9,625.2,361.2,626.5z"/>
	<path class="st1" d="M401.9,609.6l8.1,22.6h0.1l8-22.6h3.2l-9.6,25.8h-3.4l-9.9-25.8H401.9z"/>
	<path class="st1" d="M426.7,626.9c0.3,1.2,0.8,2.3,1.5,3.3c0.7,1,1.6,1.8,2.6,2.4c1.1,0.6,2.4,0.9,3.9,0.9c2.3,0,4.1-0.6,5.4-1.8
		s2.2-2.8,2.7-4.8h3.1c-0.7,2.9-1.9,5.2-3.7,6.8c-1.8,1.6-4.3,2.4-7.6,2.4c-2,0-3.8-0.4-5.3-1.1c-1.5-0.7-2.7-1.7-3.6-3
		c-0.9-1.2-1.6-2.7-2.1-4.3c-0.5-1.7-0.7-3.4-0.7-5.2c0-1.7,0.2-3.4,0.7-5c0.5-1.6,1.1-3.1,2.1-4.4c0.9-1.3,2.1-2.3,3.6-3.1
		c1.5-0.8,3.2-1.2,5.3-1.2c2.1,0,3.8,0.4,5.3,1.2c1.5,0.8,2.7,1.9,3.6,3.3c0.9,1.4,1.6,2.9,2,4.7c0.4,1.8,0.6,3.5,0.5,5.3h-19.9
		C426.3,624.5,426.4,625.7,426.7,626.9z M442.3,617.3c-0.4-1.1-0.9-2.1-1.6-2.9c-0.7-0.8-1.5-1.5-2.5-2c-1-0.5-2.1-0.8-3.4-0.8
		c-1.3,0-2.5,0.3-3.5,0.8c-1,0.5-1.9,1.2-2.5,2c-0.7,0.9-1.3,1.8-1.7,3c-0.4,1.1-0.7,2.3-0.8,3.4H443
		C442.9,619.5,442.7,618.4,442.3,617.3z"/>
	<path class="st1" d="M471.5,638.5c-0.4,1.5-1.1,2.8-2,3.9c-0.9,1.1-2.1,1.9-3.5,2.5c-1.4,0.6-3.2,0.8-5.3,0.8
		c-1.3,0-2.6-0.2-3.8-0.5c-1.2-0.3-2.3-0.8-3.3-1.4c-1-0.6-1.8-1.4-2.5-2.4s-1-2.2-1.1-3.5h3.1c0.2,1,0.5,1.8,1,2.4
		c0.5,0.7,1.1,1.2,1.8,1.6c0.7,0.4,1.4,0.7,2.3,0.9c0.8,0.2,1.7,0.3,2.6,0.3c2.9,0,5-0.8,6.4-2.5c1.3-1.7,1.9-4.1,1.9-7.2v-3.5h-0.1
		c-0.7,1.6-1.8,2.9-3.2,3.8c-1.4,1-3.1,1.5-5,1.5c-2.1,0-3.8-0.3-5.3-1c-1.5-0.7-2.7-1.6-3.6-2.8c-0.9-1.2-1.6-2.6-2.1-4.2
		c-0.4-1.6-0.6-3.3-0.6-5.2c0-1.8,0.3-3.4,0.8-5c0.5-1.6,1.3-3,2.2-4.1c1-1.2,2.2-2.1,3.6-2.8c1.5-0.7,3.1-1,5-1
		c1,0,1.9,0.1,2.7,0.4c0.8,0.3,1.6,0.6,2.3,1.1c0.7,0.5,1.3,1,1.9,1.7c0.6,0.6,1,1.3,1.3,2h0.1v-4.5h3.1v23.7
		C472.2,635.2,472,636.9,471.5,638.5z M464.3,631.6c1-0.6,1.9-1.3,2.6-2.3c0.7-1,1.2-2,1.6-3.3c0.4-1.2,0.5-2.5,0.5-3.8
		c0-1.3-0.1-2.5-0.4-3.8c-0.3-1.3-0.8-2.4-1.5-3.5c-0.7-1-1.5-1.9-2.6-2.5c-1-0.6-2.3-1-3.8-1s-2.8,0.3-3.9,0.9
		c-1.1,0.6-2,1.4-2.6,2.4c-0.7,1-1.2,2.1-1.5,3.4c-0.3,1.3-0.5,2.6-0.5,3.9c0,1.3,0.2,2.6,0.5,3.8c0.3,1.2,0.9,2.3,1.5,3.3
		c0.7,1,1.6,1.7,2.6,2.3c1.1,0.6,2.3,0.9,3.8,0.9C462.1,632.5,463.3,632.2,464.3,631.6z"/>
	<path class="st1" d="M478.8,613.6c0.5-1.1,1.3-2,2.2-2.7c0.9-0.7,2-1.2,3.2-1.5c1.2-0.3,2.6-0.5,4.1-0.5c1.1,0,2.3,0.1,3.4,0.3
		c1.1,0.2,2.2,0.6,3.1,1.2s1.6,1.4,2.2,2.5c0.6,1.1,0.9,2.5,0.9,4.2v13.7c0,1.3,0.6,1.9,1.9,1.9c0.4,0,0.7-0.1,1-0.2v2.6
		c-0.4,0.1-0.7,0.1-1,0.2c-0.3,0-0.6,0-1.1,0c-0.8,0-1.4-0.1-1.9-0.3c-0.5-0.2-0.9-0.5-1.1-0.9c-0.3-0.4-0.4-0.9-0.5-1.4
		c-0.1-0.5-0.1-1.2-0.1-1.8h-0.1c-0.6,0.8-1.1,1.6-1.7,2.2c-0.6,0.7-1.2,1.2-1.9,1.6c-0.7,0.4-1.5,0.8-2.5,1c-0.9,0.2-2,0.4-3.3,0.4
		c-1.2,0-2.3-0.1-3.4-0.4c-1-0.3-2-0.7-2.8-1.4c-0.8-0.6-1.4-1.4-1.9-2.3c-0.4-1-0.7-2.1-0.7-3.4c0-1.8,0.4-3.2,1.2-4.2
		c0.8-1,1.9-1.8,3.2-2.3c1.3-0.5,2.8-0.9,4.4-1.1c1.7-0.2,3.3-0.4,5-0.6c0.7-0.1,1.2-0.2,1.8-0.2c0.5-0.1,0.9-0.3,1.2-0.5
		c0.3-0.2,0.6-0.6,0.8-1c0.2-0.4,0.3-1,0.3-1.7c0-1.1-0.2-1.9-0.5-2.6s-0.8-1.2-1.5-1.6c-0.6-0.4-1.3-0.7-2.1-0.8
		c-0.8-0.2-1.7-0.2-2.6-0.2c-2,0-3.6,0.5-4.9,1.4c-1.3,0.9-1.9,2.5-2,4.6h-3.1C478,616,478.3,614.7,478.8,613.6z M494.6,621.3
		c-0.2,0.4-0.6,0.6-1.1,0.8c-0.6,0.2-1.1,0.3-1.5,0.3c-1.3,0.2-2.7,0.4-4.1,0.6c-1.4,0.2-2.7,0.5-3.9,0.8c-1.2,0.4-2.1,0.9-2.9,1.6
		c-0.8,0.7-1.1,1.7-1.1,2.9c0,0.8,0.2,1.5,0.5,2.1c0.3,0.6,0.7,1.2,1.3,1.6c0.5,0.5,1.1,0.8,1.9,1c0.7,0.2,1.4,0.3,2.1,0.3
		c1.2,0,2.4-0.2,3.5-0.5c1.1-0.4,2.1-0.9,2.9-1.6c0.8-0.7,1.5-1.5,1.9-2.5c0.5-1,0.7-2.1,0.7-3.4v-4.1H494.6z"/>
	<path class="st1" d="M507.2,609.6v4.5h0.1c0.6-1.6,1.7-2.8,3.2-3.8c1.5-1,3.2-1.4,5.1-1.4c1.8,0,3.3,0.2,4.5,0.7s2.2,1.1,2.9,2
		c0.7,0.8,1.2,1.9,1.5,3.1c0.3,1.2,0.5,2.6,0.5,4.2v16.6h-3.2v-16.1c0-1.1-0.1-2.1-0.3-3.1s-0.5-1.8-1-2.5c-0.5-0.7-1.2-1.2-2-1.6
		c-0.8-0.4-1.9-0.6-3.2-0.6c-1.3,0-2.4,0.2-3.4,0.7c-1,0.4-1.8,1.1-2.5,1.8c-0.7,0.8-1.2,1.7-1.6,2.8c-0.4,1.1-0.6,2.3-0.6,3.5v15
		h-3.1v-25.8H507.2z"/>
	<path class="st1" d="M548,599.7v14.8h0.1c0.3-0.9,0.8-1.8,1.4-2.4c0.6-0.7,1.3-1.3,2.1-1.8c0.8-0.5,1.7-0.8,2.6-1.1
		c0.9-0.2,1.9-0.3,2.8-0.3c2,0,3.7,0.4,5.1,1.1c1.5,0.7,2.7,1.7,3.6,3c1,1.2,1.7,2.7,2.1,4.3s0.7,3.4,0.7,5.2c0,1.8-0.2,3.6-0.7,5.2
		c-0.5,1.6-1.2,3.1-2.1,4.3c-1,1.2-2.2,2.2-3.6,3s-3.2,1.1-5.1,1.1c-2.1,0-4-0.5-5.6-1.5c-1.7-1-2.8-2.3-3.6-4.2h-0.1v4.9h-2.9
		v-35.7H548z M565,618.6c-0.3-1.3-0.8-2.5-1.5-3.5c-0.7-1-1.6-1.9-2.6-2.5c-1.1-0.7-2.3-1-3.8-1c-1.7,0-3.1,0.3-4.2,1
		c-1.1,0.6-2.1,1.5-2.8,2.5c-0.7,1-1.2,2.2-1.5,3.5c-0.3,1.3-0.5,2.6-0.5,4c0,1.3,0.2,2.7,0.5,4c0.3,1.3,0.8,2.5,1.5,3.5
		c0.7,1,1.7,1.9,2.8,2.5c1.2,0.7,2.6,1,4.2,1c1.5,0,2.8-0.3,3.8-1c1.1-0.7,1.9-1.5,2.6-2.5c0.7-1,1.2-2.2,1.5-3.5
		c0.3-1.3,0.5-2.6,0.5-4C565.5,621.2,565.4,619.9,565,618.6z"/>
	<path class="st1" d="M591.6,635.4v-4.7h-0.1c-0.8,1.7-2,3.1-3.6,4c-1.6,0.9-3.3,1.4-5.3,1.4c-1.6,0-3-0.2-4.2-0.7
		c-1.2-0.5-2.1-1.1-2.8-1.9c-0.7-0.8-1.2-1.8-1.6-3c-0.3-1.2-0.5-2.6-0.5-4.1v-16.8h3.1v16.8c0.1,2.3,0.6,4.1,1.6,5.3
		s2.8,1.8,5.3,1.8c1.4,0,2.5-0.3,3.5-0.9c1-0.6,1.8-1.4,2.4-2.3c0.6-1,1.1-2.1,1.4-3.3s0.5-2.5,0.5-3.8v-13.5h3.2v25.8H591.6z"/>
	<path class="st1" d="M610.7,609.6v2.6h-5.2v17.4c0,1,0.1,1.8,0.4,2.4c0.3,0.6,1,0.9,2.1,1c0.9,0,1.8-0.1,2.7-0.2v2.7
		c-0.5,0-0.9,0-1.4,0c-0.5,0-0.9,0-1.4,0c-2.1,0-3.6-0.4-4.4-1.2s-1.2-2.3-1.2-4.5v-17.7h-4.5v-2.6h4.5v-7.8h3.2v7.8H610.7z"/>
	<path class="st1" d="M631,613.2c-1.2-1.1-2.8-1.7-4.9-1.7c-1.5,0-2.8,0.3-4,1c-1.1,0.6-2.1,1.5-2.8,2.5c-0.8,1-1.3,2.2-1.7,3.5
		c-0.4,1.3-0.6,2.7-0.6,4c0,1.4,0.2,2.7,0.6,4c0.4,1.3,1,2.5,1.7,3.5s1.7,1.9,2.8,2.5c1.1,0.6,2.5,0.9,4,0.9c1,0,1.9-0.2,2.8-0.5
		c0.9-0.4,1.6-0.9,2.3-1.5c0.7-0.7,1.2-1.4,1.6-2.3c0.4-0.9,0.7-1.9,0.8-3h3.1c-0.4,3.1-1.6,5.6-3.5,7.3s-4.3,2.6-7.2,2.6
		c-2,0-3.7-0.4-5.2-1.1s-2.8-1.7-3.8-2.9s-1.8-2.7-2.3-4.3s-0.8-3.4-0.8-5.3c0-1.9,0.3-3.6,0.8-5.3c0.5-1.7,1.3-3.1,2.3-4.3
		c1-1.2,2.3-2.2,3.8-3c1.5-0.7,3.3-1.1,5.2-1.1c2.8,0,5.1,0.7,7,2.2s3.1,3.7,3.4,6.6h-3.1C633,615.8,632.2,614.3,631,613.2z"/>
	<path class="st1" d="M644.3,599.7v14.4h0.1c0.6-1.6,1.7-2.8,3.2-3.8c1.5-1,3.2-1.4,5-1.4c1.8,0,3.3,0.2,4.5,0.7s2.2,1.1,2.9,2
		c0.7,0.8,1.2,1.9,1.5,3.1c0.3,1.2,0.5,2.6,0.5,4.2v16.6h-3.2v-16.1c0-1.1-0.1-2.1-0.3-3.1s-0.5-1.8-1-2.5c-0.5-0.7-1.2-1.2-2-1.6
		c-0.8-0.4-1.9-0.6-3.2-0.6c-1.3,0-2.4,0.2-3.4,0.7c-1,0.4-1.8,1.1-2.5,1.8c-0.7,0.8-1.2,1.7-1.6,2.8c-0.4,1.1-0.6,2.3-0.6,3.5v15
		h-3.1v-35.7H644.3z"/>
	<path class="st1" d="M670.3,626.9c0.3,1.2,0.8,2.3,1.5,3.3c0.7,1,1.6,1.8,2.7,2.4c1.1,0.6,2.3,0.9,3.8,0.9c2.3,0,4.1-0.6,5.4-1.8
		s2.2-2.8,2.7-4.8h3.1c-0.7,2.9-1.9,5.2-3.7,6.8c-1.8,1.6-4.3,2.4-7.6,2.4c-2,0-3.8-0.4-5.3-1.1c-1.5-0.7-2.7-1.7-3.6-3
		c-0.9-1.2-1.6-2.7-2.1-4.3c-0.5-1.7-0.7-3.4-0.7-5.2c0-1.7,0.2-3.4,0.7-5c0.5-1.6,1.1-3.1,2.1-4.4c0.9-1.3,2.1-2.3,3.6-3.1
		c1.5-0.8,3.2-1.2,5.3-1.2c2.1,0,3.8,0.4,5.3,1.2c1.5,0.8,2.7,1.9,3.6,3.3c0.9,1.4,1.6,2.9,2,4.7c0.4,1.8,0.6,3.5,0.5,5.3h-19.9
		C669.9,624.5,670,625.7,670.3,626.9z M685.9,617.3c-0.4-1.1-0.9-2.1-1.6-2.9c-0.7-0.8-1.5-1.5-2.5-2c-1-0.5-2.1-0.8-3.4-0.8
		c-1.3,0-2.4,0.3-3.4,0.8c-1,0.5-1.9,1.2-2.6,2c-0.7,0.9-1.3,1.8-1.7,3c-0.4,1.1-0.7,2.3-0.8,3.4h16.7
		C686.5,619.5,686.3,618.4,685.9,617.3z"/>
	<path class="st1" d="M696.9,609.6v6h0.1c0.8-2.1,2-3.7,3.7-4.8s3.7-1.7,6-1.6v3.2c-1.4-0.1-2.7,0.1-3.9,0.6s-2.2,1.1-3,1.9
		c-0.9,0.8-1.5,1.8-2,3c-0.5,1.2-0.7,2.4-0.7,3.8v13.8H694v-25.8H696.9z"/>
	<path class="st1" d="M739.4,613.2c-1.2-1.1-2.8-1.7-4.9-1.7c-1.5,0-2.8,0.3-4,1c-1.1,0.6-2.1,1.5-2.8,2.5c-0.8,1-1.3,2.2-1.7,3.5
		c-0.4,1.3-0.6,2.7-0.6,4c0,1.4,0.2,2.7,0.6,4c0.4,1.3,1,2.5,1.7,3.5s1.7,1.9,2.8,2.5c1.1,0.6,2.5,0.9,4,0.9c1,0,1.9-0.2,2.8-0.5
		c0.9-0.4,1.6-0.9,2.3-1.5c0.7-0.7,1.2-1.4,1.6-2.3c0.4-0.9,0.7-1.9,0.8-3h3.1c-0.4,3.1-1.6,5.6-3.5,7.3s-4.3,2.6-7.2,2.6
		c-2,0-3.7-0.4-5.2-1.1s-2.8-1.7-3.8-2.9s-1.8-2.7-2.3-4.3s-0.8-3.4-0.8-5.3c0-1.9,0.3-3.6,0.8-5.3c0.5-1.7,1.3-3.1,2.3-4.3
		c1-1.2,2.3-2.2,3.8-3c1.5-0.7,3.3-1.1,5.2-1.1c2.8,0,5.1,0.7,7,2.2s3.1,3.7,3.4,6.6h-3.1C741.4,615.8,740.6,614.3,739.4,613.2z"/>
	<path class="st1" d="M765.7,610c1.5,0.7,2.8,1.7,3.8,3c1,1.2,1.8,2.7,2.3,4.3c0.5,1.6,0.8,3.4,0.8,5.3c0,1.9-0.3,3.6-0.8,5.3
		s-1.3,3.1-2.3,4.3c-1,1.2-2.3,2.2-3.8,2.9c-1.5,0.7-3.3,1.1-5.2,1.1c-2,0-3.7-0.4-5.2-1.1s-2.8-1.7-3.8-2.9s-1.8-2.7-2.3-4.3
		s-0.8-3.4-0.8-5.3c0-1.9,0.3-3.6,0.8-5.3c0.5-1.7,1.3-3.1,2.3-4.3c1-1.2,2.3-2.2,3.8-3c1.5-0.7,3.3-1.1,5.2-1.1
		C762.4,608.9,764.2,609.2,765.7,610z M756.5,612.5c-1.1,0.6-2.1,1.5-2.8,2.5c-0.8,1-1.3,2.2-1.7,3.5c-0.4,1.3-0.6,2.7-0.6,4
		c0,1.4,0.2,2.7,0.6,4c0.4,1.3,1,2.5,1.7,3.5s1.7,1.9,2.8,2.5c1.1,0.6,2.5,0.9,4,0.9s2.8-0.3,3.9-0.9s2.1-1.5,2.8-2.5
		s1.3-2.2,1.7-3.5c0.4-1.3,0.6-2.7,0.6-4c0-1.4-0.2-2.7-0.6-4c-0.4-1.3-1-2.5-1.7-3.5c-0.8-1-1.7-1.9-2.8-2.5c-1.1-0.6-2.4-1-3.9-1
		S757.6,611.8,756.5,612.5z"/>
	<path class="st1" d="M782.2,612.3v23.2h-3.1v-23.2h-4.4v-2.6h4.4v-2.4c0-1.1,0.1-2.1,0.2-3c0.2-0.9,0.5-1.7,1-2.4
		c0.5-0.7,1.1-1.2,1.9-1.6c0.8-0.4,1.9-0.5,3.1-0.5c0.5,0,0.9,0,1.3,0c0.4,0,0.8,0.1,1.3,0.2v2.7c-0.4-0.1-0.8-0.1-1.2-0.2
		c-0.4-0.1-0.7-0.1-1.1-0.1c-0.9,0-1.5,0.1-2,0.4c-0.5,0.3-0.8,0.6-1,1.1c-0.2,0.5-0.3,1-0.4,1.6c0,0.6-0.1,1.2-0.1,2v2.2h5.1v2.6
		H782.2z"/>
	<path class="st1" d="M794.3,612.3v23.2h-3.1v-23.2h-4.4v-2.6h4.4v-2.4c0-1.1,0.1-2.1,0.2-3c0.2-0.9,0.5-1.7,1-2.4
		c0.5-0.7,1.1-1.2,1.9-1.6c0.8-0.4,1.9-0.5,3.1-0.5c0.5,0,0.9,0,1.3,0c0.4,0,0.8,0.1,1.3,0.2v2.7c-0.4-0.1-0.8-0.1-1.2-0.2
		c-0.4-0.1-0.7-0.1-1.1-0.1c-0.9,0-1.5,0.1-2,0.4c-0.5,0.3-0.8,0.6-1,1.1c-0.2,0.5-0.3,1-0.4,1.6c0,0.6-0.1,1.2-0.1,2v2.2h5.1v2.6
		H794.3z"/>
	<path class="st1" d="M804.7,626.9c0.3,1.2,0.8,2.3,1.5,3.3c0.7,1,1.6,1.8,2.7,2.4c1.1,0.6,2.3,0.9,3.8,0.9c2.3,0,4.1-0.6,5.4-1.8
		s2.2-2.8,2.7-4.8h3.1c-0.7,2.9-1.9,5.2-3.7,6.8c-1.8,1.6-4.3,2.4-7.6,2.4c-2,0-3.8-0.4-5.3-1.1c-1.5-0.7-2.7-1.7-3.6-3
		c-0.9-1.2-1.6-2.7-2.1-4.3c-0.5-1.7-0.7-3.4-0.7-5.2c0-1.7,0.2-3.4,0.7-5c0.5-1.6,1.1-3.1,2.1-4.4c0.9-1.3,2.1-2.3,3.6-3.1
		c1.5-0.8,3.2-1.2,5.3-1.2c2.1,0,3.8,0.4,5.3,1.2c1.5,0.8,2.7,1.9,3.6,3.3c0.9,1.4,1.6,2.9,2,4.7c0.4,1.8,0.6,3.5,0.5,5.3h-19.9
		C804.2,624.5,804.4,625.7,804.7,626.9z M820.3,617.3c-0.4-1.1-0.9-2.1-1.6-2.9c-0.7-0.8-1.5-1.5-2.5-2c-1-0.5-2.1-0.8-3.4-0.8
		c-1.3,0-2.4,0.3-3.4,0.8c-1,0.5-1.9,1.2-2.6,2c-0.7,0.9-1.3,1.8-1.7,3c-0.4,1.1-0.7,2.3-0.8,3.4h16.7
		C820.9,619.5,820.7,618.4,820.3,617.3z"/>
	<path class="st1" d="M830.6,626.9c0.3,1.2,0.8,2.3,1.5,3.3c0.7,1,1.6,1.8,2.7,2.4c1.1,0.6,2.3,0.9,3.8,0.9c2.3,0,4.1-0.6,5.4-1.8
		s2.2-2.8,2.7-4.8h3.1c-0.7,2.9-1.9,5.2-3.7,6.8c-1.8,1.6-4.3,2.4-7.6,2.4c-2,0-3.8-0.4-5.3-1.1c-1.5-0.7-2.7-1.7-3.6-3
		c-0.9-1.2-1.6-2.7-2.1-4.3c-0.5-1.7-0.7-3.4-0.7-5.2c0-1.7,0.2-3.4,0.7-5c0.5-1.6,1.1-3.1,2.1-4.4c0.9-1.3,2.1-2.3,3.6-3.1
		c1.5-0.8,3.2-1.2,5.3-1.2c2.1,0,3.8,0.4,5.3,1.2c1.5,0.8,2.7,1.9,3.6,3.3c0.9,1.4,1.6,2.9,2,4.7c0.4,1.8,0.6,3.5,0.5,5.3h-19.9
		C830.2,624.5,830.3,625.7,830.6,626.9z M846.2,617.3c-0.4-1.1-0.9-2.1-1.6-2.9c-0.7-0.8-1.5-1.5-2.5-2c-1-0.5-2.1-0.8-3.4-0.8
		c-1.3,0-2.4,0.3-3.4,0.8c-1,0.5-1.9,1.2-2.6,2c-0.7,0.9-1.3,1.8-1.7,3c-0.4,1.1-0.7,2.3-0.8,3.4h16.7
		C846.8,619.5,846.6,618.4,846.2,617.3z"/>
	<path class="st1" d="M883,614.7c-0.4-0.7-0.9-1.3-1.5-1.8c-0.6-0.5-1.3-0.8-2.1-1c-0.8-0.2-1.7-0.3-2.5-0.3c-0.7,0-1.4,0.1-2.1,0.2
		c-0.7,0.1-1.4,0.4-2,0.8c-0.6,0.3-1.1,0.8-1.4,1.4c-0.4,0.6-0.6,1.3-0.6,2.1c0,0.7,0.2,1.3,0.5,1.8s0.8,0.9,1.3,1.2
		c0.5,0.3,1.1,0.6,1.8,0.8c0.6,0.2,1.2,0.4,1.8,0.5l4.2,0.9c0.9,0.1,1.8,0.4,2.7,0.7c0.9,0.3,1.7,0.8,2.3,1.4
		c0.7,0.6,1.2,1.3,1.7,2.1c0.4,0.8,0.7,1.8,0.7,3c0,1.4-0.3,2.6-1,3.6c-0.6,1-1.4,1.8-2.4,2.4c-1,0.6-2.1,1.1-3.3,1.3
		s-2.5,0.4-3.6,0.4c-3,0-5.5-0.7-7.4-2.2c-1.9-1.4-3-3.7-3.2-6.9h3.2c0.1,2.1,0.9,3.7,2.3,4.8c1.4,1.1,3.2,1.6,5.3,1.6
		c0.8,0,1.6-0.1,2.4-0.2c0.8-0.2,1.6-0.4,2.3-0.8s1.3-0.9,1.7-1.5c0.5-0.6,0.7-1.4,0.7-2.3c0-0.8-0.2-1.4-0.5-1.9
		c-0.3-0.5-0.7-1-1.3-1.3c-0.5-0.3-1.1-0.6-1.8-0.9c-0.7-0.2-1.4-0.4-2.1-0.6l-4-0.9c-1-0.3-2-0.6-2.9-0.9c-0.9-0.3-1.6-0.8-2.3-1.3
		c-0.7-0.5-1.2-1.2-1.5-1.9c-0.4-0.8-0.5-1.7-0.5-2.8c0-1.3,0.3-2.4,0.9-3.4c0.6-0.9,1.3-1.7,2.3-2.2c0.9-0.6,2-1,3.1-1.2
		c1.2-0.3,2.3-0.4,3.4-0.4c1.3,0,2.5,0.2,3.6,0.5c1.1,0.3,2.1,0.8,2.9,1.5c0.9,0.7,1.5,1.6,2,2.6c0.5,1,0.8,2.2,0.8,3.7h-3.1
		C883.6,616.2,883.4,615.4,883,614.7z"/>
	<path class="st1" d="M895.3,599.7v14.4h0.1c0.6-1.6,1.7-2.8,3.2-3.8c1.5-1,3.2-1.4,5-1.4c1.8,0,3.3,0.2,4.5,0.7s2.2,1.1,2.9,2
		c0.7,0.8,1.2,1.9,1.5,3.1c0.3,1.2,0.5,2.6,0.5,4.2v16.6H910v-16.1c0-1.1-0.1-2.1-0.3-3.1s-0.5-1.8-1-2.5c-0.5-0.7-1.2-1.2-2-1.6
		c-0.8-0.4-1.9-0.6-3.2-0.6c-1.3,0-2.4,0.2-3.4,0.7c-1,0.4-1.8,1.1-2.5,1.8c-0.7,0.8-1.2,1.7-1.6,2.8c-0.4,1.1-0.6,2.3-0.6,3.5v15
		h-3.1v-35.7H895.3z"/>
	<path class="st1" d="M935.2,610c1.5,0.7,2.8,1.7,3.8,3c1,1.2,1.8,2.7,2.3,4.3c0.5,1.6,0.8,3.4,0.8,5.3c0,1.9-0.3,3.6-0.8,5.3
		s-1.3,3.1-2.3,4.3c-1,1.2-2.3,2.2-3.8,2.9c-1.5,0.7-3.3,1.1-5.2,1.1c-2,0-3.7-0.4-5.2-1.1s-2.8-1.7-3.8-2.9s-1.8-2.7-2.3-4.3
		s-0.8-3.4-0.8-5.3c0-1.9,0.3-3.6,0.8-5.3c0.5-1.7,1.3-3.1,2.3-4.3c1-1.2,2.3-2.2,3.8-3c1.5-0.7,3.3-1.1,5.2-1.1
		C931.9,608.9,933.7,609.2,935.2,610z M926,612.5c-1.1,0.6-2.1,1.5-2.8,2.5c-0.8,1-1.3,2.2-1.7,3.5c-0.4,1.3-0.6,2.7-0.6,4
		c0,1.4,0.2,2.7,0.6,4c0.4,1.3,1,2.5,1.7,3.5s1.7,1.9,2.8,2.5c1.1,0.6,2.5,0.9,4,0.9s2.8-0.3,3.9-0.9s2.1-1.5,2.8-2.5
		s1.3-2.2,1.7-3.5c0.4-1.3,0.6-2.7,0.6-4c0-1.4-0.2-2.7-0.6-4c-0.4-1.3-1-2.5-1.7-3.5c-0.8-1-1.7-1.9-2.8-2.5c-1.1-0.6-2.4-1-3.9-1
		S927.1,611.8,926,612.5z"/>
	<path class="st1" d="M949.8,609.6v4.9h0.1c0.7-1.8,1.9-3.2,3.6-4.2c1.6-1,3.5-1.5,5.6-1.5c2,0,3.7,0.4,5.1,1.1
		c1.5,0.7,2.7,1.7,3.6,3c1,1.2,1.7,2.7,2.1,4.3s0.7,3.4,0.7,5.2c0,1.8-0.2,3.6-0.7,5.2c-0.5,1.6-1.2,3.1-2.1,4.3
		c-1,1.2-2.2,2.2-3.6,3s-3.2,1.1-5.1,1.1c-0.9,0-1.9-0.1-2.8-0.4c-0.9-0.2-1.8-0.6-2.6-1c-0.8-0.5-1.5-1-2.1-1.8
		c-0.6-0.7-1.1-1.5-1.4-2.5H950v14.4h-3.2v-35.3H949.8z M967,618.6c-0.3-1.3-0.8-2.5-1.5-3.5c-0.7-1-1.6-1.9-2.6-2.5
		c-1.1-0.7-2.3-1-3.8-1c-1.7,0-3.2,0.3-4.4,0.9s-2.1,1.4-2.8,2.4s-1.2,2.2-1.5,3.5c-0.3,1.3-0.4,2.7-0.4,4.2c0,1.3,0.2,2.7,0.5,4
		c0.3,1.3,0.8,2.5,1.5,3.5c0.7,1,1.7,1.9,2.8,2.5c1.2,0.7,2.6,1,4.2,1c1.5,0,2.8-0.3,3.8-1c1.1-0.7,1.9-1.5,2.6-2.5
		c0.7-1,1.2-2.2,1.5-3.5c0.3-1.3,0.5-2.6,0.5-4C967.5,621.2,967.4,619.9,967,618.6z"/>
	<path class="st1" d="M67.3,659.7v5h-3.2v-5H67.3z M67.3,669.6v25.8h-3.2v-25.8H67.3z"/>
	<path class="st1" d="M76.5,669.6v4.5h0.1c0.6-1.6,1.7-2.8,3.2-3.8c1.5-1,3.2-1.4,5.1-1.4c1.8,0,3.3,0.2,4.5,0.7
		c1.2,0.5,2.2,1.1,2.9,2c0.7,0.8,1.2,1.9,1.6,3.1c0.3,1.2,0.4,2.6,0.4,4.2v16.6h-3.1v-16.1c0-1.1-0.1-2.1-0.3-3.1
		c-0.2-1-0.6-1.8-1.1-2.5c-0.5-0.7-1.2-1.2-2-1.6c-0.9-0.4-1.9-0.6-3.2-0.6c-1.3,0-2.4,0.2-3.4,0.7c-1,0.4-1.8,1.1-2.5,1.8
		c-0.7,0.8-1.2,1.7-1.6,2.8c-0.4,1.1-0.6,2.3-0.6,3.5v15h-3.1v-25.8H76.5z"/>
	<path class="st1" d="M129.8,659.7c1.5,0,2.9,0.1,4.3,0.4c1.4,0.3,2.6,0.8,3.6,1.5c1.1,0.7,1.9,1.6,2.5,2.7c0.6,1.1,0.9,2.5,0.9,4.2
		c0,0.9-0.1,1.8-0.4,2.7c-0.3,0.9-0.7,1.7-1.3,2.4c-0.5,0.7-1.2,1.3-1.9,1.8s-1.6,0.8-2.5,1v0.1c2.3,0.3,4.1,1.2,5.5,2.8
		c1.4,1.6,2,3.5,2,5.9c0,0.6,0,1.2-0.1,1.9s-0.3,1.4-0.6,2.2s-0.7,1.5-1.3,2.2c-0.6,0.7-1.3,1.4-2.3,1.9c-0.9,0.5-2.1,1-3.5,1.3
		c-1.4,0.4-3,0.5-5,0.5h-15.1v-35.7H129.8z M129.8,675.4c1.4,0,2.5-0.2,3.5-0.5c1-0.3,1.8-0.8,2.5-1.3c0.7-0.5,1.2-1.2,1.5-1.9
		c0.3-0.7,0.5-1.5,0.5-2.3c0-4.5-2.7-6.7-8-6.7h-11.7v12.8H129.8z M129.8,692.5c1.3,0,2.5-0.1,3.6-0.3c1.1-0.2,2.1-0.6,3-1.2
		c0.9-0.6,1.6-1.3,2.1-2.3s0.8-2.1,0.8-3.6c0-2.3-0.8-4-2.4-5.2c-1.6-1.2-3.9-1.7-7-1.7h-11.7v14.2H129.8z"/>
	<path class="st1" d="M165.5,695.4v-4.7h-0.1c-0.8,1.7-2,3.1-3.6,4c-1.6,0.9-3.3,1.4-5.3,1.4c-1.6,0-3-0.2-4.2-0.7
		c-1.2-0.5-2.1-1.1-2.8-1.9c-0.7-0.8-1.2-1.8-1.6-3c-0.3-1.2-0.5-2.6-0.5-4.1v-16.8h3.1v16.8c0.1,2.3,0.6,4.1,1.6,5.3
		c1,1.2,2.8,1.8,5.3,1.8c1.4,0,2.5-0.3,3.5-0.9c1-0.6,1.8-1.4,2.4-2.3c0.6-1,1.1-2.1,1.4-3.3c0.3-1.2,0.5-2.5,0.5-3.8v-13.5h3.1
		v25.8H165.5z"/>
	<path class="st1" d="M189.2,674.7c-0.4-0.7-0.9-1.3-1.5-1.8c-0.6-0.5-1.3-0.8-2.1-1c-0.8-0.2-1.6-0.3-2.5-0.3
		c-0.7,0-1.4,0.1-2.1,0.2c-0.7,0.1-1.4,0.4-2,0.8c-0.6,0.3-1.1,0.8-1.5,1.4c-0.4,0.6-0.5,1.3-0.5,2.1c0,0.7,0.2,1.3,0.5,1.8
		s0.8,0.9,1.3,1.2c0.5,0.3,1.1,0.6,1.8,0.8c0.6,0.2,1.2,0.4,1.8,0.5l4.2,0.9c0.9,0.1,1.8,0.4,2.7,0.7c0.9,0.3,1.7,0.8,2.3,1.4
		c0.7,0.6,1.2,1.3,1.7,2.1c0.4,0.8,0.6,1.8,0.6,3c0,1.4-0.3,2.6-1,3.6c-0.6,1-1.4,1.8-2.4,2.4c-1,0.6-2.1,1.1-3.3,1.3
		c-1.2,0.3-2.4,0.4-3.6,0.4c-3,0-5.5-0.7-7.4-2.2c-1.9-1.4-3-3.7-3.2-6.9h3.2c0.1,2.1,0.9,3.7,2.3,4.8c1.4,1.1,3.2,1.6,5.3,1.6
		c0.8,0,1.6-0.1,2.4-0.2c0.8-0.2,1.6-0.4,2.3-0.8c0.7-0.4,1.3-0.9,1.7-1.5c0.5-0.6,0.7-1.4,0.7-2.3c0-0.8-0.2-1.4-0.5-1.9
		c-0.3-0.5-0.7-1-1.3-1.3c-0.5-0.3-1.1-0.6-1.8-0.9c-0.7-0.2-1.4-0.4-2.1-0.6L181,683c-1-0.3-2-0.6-2.9-0.9
		c-0.9-0.3-1.6-0.8-2.3-1.3c-0.6-0.5-1.2-1.2-1.5-1.9c-0.4-0.8-0.5-1.7-0.5-2.8c0-1.3,0.3-2.4,0.9-3.4c0.6-0.9,1.3-1.7,2.3-2.2
		c0.9-0.6,2-1,3.1-1.2c1.1-0.3,2.3-0.4,3.4-0.4c1.3,0,2.5,0.2,3.6,0.5c1.1,0.3,2.1,0.8,3,1.5s1.5,1.6,2,2.6c0.5,1,0.8,2.2,0.9,3.7
		h-3.1C189.7,676.2,189.5,675.4,189.2,674.7z"/>
	<path class="st1" d="M201.5,659.7v14.4h0.1c0.6-1.6,1.7-2.8,3.2-3.8c1.5-1,3.2-1.4,5.1-1.4c1.8,0,3.3,0.2,4.5,0.7
		c1.2,0.5,2.2,1.1,2.9,2c0.7,0.8,1.2,1.9,1.6,3.1c0.3,1.2,0.4,2.6,0.4,4.2v16.6h-3.1v-16.1c0-1.1-0.1-2.1-0.3-3.1
		c-0.2-1-0.6-1.8-1.1-2.5c-0.5-0.7-1.2-1.2-2-1.6c-0.9-0.4-1.9-0.6-3.2-0.6c-1.3,0-2.4,0.2-3.4,0.7c-1,0.4-1.8,1.1-2.5,1.8
		c-0.7,0.8-1.2,1.7-1.6,2.8c-0.4,1.1-0.6,2.3-0.6,3.5v15h-3.1v-35.7H201.5z"/>
	<path class="st1" d="M226,669.6l6.6,22.1h0.1l6.3-22.1h3.5l6.3,22.1h0.1l6.6-22.1h3.4l-8.3,25.8h-3.5l-6.4-21.7h-0.1l-6.3,21.7
		h-3.4l-8.3-25.8H226z"/>
	<path class="st1" d="M265.5,659.7v5h-3.2v-5H265.5z M265.5,669.6v25.8h-3.2v-25.8H265.5z"/>
	<path class="st1" d="M287.3,673.2c-1.2-1.1-2.8-1.7-4.9-1.7c-1.5,0-2.8,0.3-3.9,1c-1.1,0.6-2.1,1.5-2.8,2.5c-0.8,1-1.3,2.2-1.7,3.5
		c-0.4,1.3-0.6,2.7-0.6,4c0,1.4,0.2,2.7,0.6,4c0.4,1.3,1,2.5,1.7,3.5s1.7,1.9,2.8,2.5c1.1,0.6,2.4,0.9,3.9,0.9c1,0,1.9-0.2,2.8-0.5
		c0.9-0.4,1.6-0.9,2.3-1.5c0.7-0.7,1.2-1.4,1.6-2.3c0.4-0.9,0.7-1.9,0.8-3h3.1c-0.4,3.1-1.6,5.6-3.4,7.3c-1.9,1.8-4.3,2.6-7.2,2.6
		c-2,0-3.7-0.4-5.2-1.1c-1.5-0.7-2.8-1.7-3.8-2.9c-1-1.2-1.8-2.7-2.4-4.3c-0.5-1.7-0.8-3.4-0.8-5.3c0-1.9,0.3-3.6,0.8-5.3
		c0.5-1.7,1.3-3.1,2.4-4.3c1-1.2,2.3-2.2,3.8-3c1.5-0.7,3.3-1.1,5.2-1.1c2.8,0,5.1,0.7,7,2.2c1.9,1.5,3.1,3.7,3.4,6.6h-3.1
		C289.3,675.8,288.5,674.3,287.3,673.2z"/>
	<path class="st1" d="M300.6,659.7v22.4l14.3-12.5h4.2l-11,9.5l11.8,16.2h-3.9l-10.2-14l-5.1,4.2v9.8h-3.1v-35.7H300.6z"/>
	<path class="st1" d="M328.5,695.4c0,0.7-0.1,1.5-0.3,2.2c-0.2,0.7-0.5,1.4-0.8,2c-0.4,0.6-0.8,1.2-1.4,1.6c-0.6,0.5-1.2,0.8-1.9,1
		v-2.1c0.4-0.1,0.8-0.4,1.1-0.8c0.3-0.4,0.5-0.8,0.8-1.2c0.2-0.5,0.3-0.9,0.4-1.4c0.1-0.5,0.1-0.9,0.1-1.3h-2.1v-5.3h4.2V695.4z"/>
	<path class="st1" d="M350.9,673.6c0.5-1.1,1.3-2,2.2-2.7c0.9-0.7,2-1.2,3.2-1.5c1.2-0.3,2.6-0.5,4.1-0.5c1.1,0,2.3,0.1,3.4,0.3
		c1.1,0.2,2.2,0.6,3.1,1.2s1.6,1.4,2.2,2.5c0.6,1.1,0.9,2.5,0.9,4.2v13.7c0,1.3,0.6,1.9,1.9,1.9c0.4,0,0.7-0.1,1-0.2v2.6
		c-0.4,0.1-0.7,0.1-1,0.2c-0.3,0-0.6,0-1.1,0c-0.8,0-1.4-0.1-1.9-0.3c-0.5-0.2-0.9-0.5-1.1-0.9c-0.3-0.4-0.4-0.9-0.5-1.4
		c-0.1-0.5-0.1-1.2-0.1-1.8h-0.1c-0.6,0.8-1.1,1.6-1.7,2.2c-0.6,0.7-1.2,1.2-1.9,1.6c-0.7,0.4-1.5,0.8-2.5,1c-0.9,0.2-2,0.4-3.3,0.4
		c-1.2,0-2.3-0.1-3.4-0.4c-1-0.3-2-0.7-2.8-1.4c-0.8-0.6-1.4-1.4-1.9-2.3c-0.4-1-0.7-2.1-0.7-3.4c0-1.8,0.4-3.2,1.2-4.2
		c0.8-1,1.9-1.8,3.2-2.3c1.3-0.5,2.8-0.9,4.4-1.1c1.7-0.2,3.3-0.4,5-0.6c0.7-0.1,1.2-0.2,1.8-0.2c0.5-0.1,0.9-0.3,1.2-0.5
		c0.3-0.2,0.6-0.6,0.8-1c0.2-0.4,0.3-1,0.3-1.7c0-1.1-0.2-1.9-0.5-2.6s-0.8-1.2-1.5-1.6c-0.6-0.4-1.3-0.7-2.1-0.8
		c-0.8-0.2-1.7-0.2-2.6-0.2c-2,0-3.6,0.5-4.9,1.4c-1.3,0.9-1.9,2.5-2,4.6H350C350.1,676,350.4,674.7,350.9,673.6z M366.7,681.3
		c-0.2,0.4-0.6,0.6-1.1,0.8c-0.6,0.2-1.1,0.3-1.5,0.3c-1.3,0.2-2.7,0.4-4.1,0.6c-1.4,0.2-2.7,0.5-3.9,0.8c-1.2,0.4-2.1,0.9-2.9,1.6
		c-0.8,0.7-1.1,1.7-1.1,2.9c0,0.8,0.2,1.5,0.5,2.1c0.3,0.6,0.7,1.2,1.3,1.6c0.5,0.5,1.1,0.8,1.9,1c0.7,0.2,1.4,0.3,2.1,0.3
		c1.2,0,2.4-0.2,3.5-0.5c1.1-0.4,2.1-0.9,2.9-1.6c0.8-0.7,1.5-1.5,1.9-2.5c0.5-1,0.7-2.1,0.7-3.4v-4.1H366.7z"/>
	<path class="st1" d="M379.3,669.6v4.5h0.1c0.6-1.6,1.7-2.8,3.2-3.8c1.5-1,3.2-1.4,5.1-1.4c1.8,0,3.3,0.2,4.5,0.7
		c1.2,0.5,2.2,1.1,2.9,2c0.7,0.8,1.2,1.9,1.6,3.1c0.3,1.2,0.4,2.6,0.4,4.2v16.6H394v-16.1c0-1.1-0.1-2.1-0.3-3.1
		c-0.2-1-0.6-1.8-1.1-2.5c-0.5-0.7-1.2-1.2-2-1.6c-0.9-0.4-1.9-0.6-3.2-0.6c-1.3,0-2.4,0.2-3.4,0.7c-1,0.4-1.8,1.1-2.5,1.8
		c-0.7,0.8-1.2,1.7-1.6,2.8c-0.4,1.1-0.6,2.3-0.6,3.5v15h-3.1v-25.8H379.3z"/>
	<path class="st1" d="M422.9,695.4v-4.9h-0.1c-0.3,0.8-0.8,1.6-1.5,2.3c-0.6,0.7-1.4,1.3-2.2,1.8c-0.8,0.5-1.7,0.9-2.7,1.1
		c-1,0.3-1.9,0.4-2.8,0.4c-2,0-3.7-0.4-5.1-1.1s-2.7-1.7-3.6-3c-1-1.2-1.7-2.7-2.1-4.3c-0.5-1.7-0.7-3.4-0.7-5.2
		c0-1.8,0.2-3.6,0.7-5.2c0.5-1.7,1.2-3.1,2.1-4.3c1-1.2,2.2-2.2,3.6-3c1.5-0.7,3.2-1.1,5.1-1.1c1,0,1.9,0.1,2.8,0.3
		c0.9,0.2,1.8,0.6,2.6,1.1c0.8,0.5,1.5,1.1,2.1,1.8c0.6,0.7,1.1,1.5,1.4,2.4h0.1v-14.8h3.2v35.7H422.9z M405.6,686.5
		c0.3,1.3,0.8,2.5,1.5,3.5c0.7,1,1.6,1.9,2.6,2.5c1.1,0.7,2.4,1,3.9,1c1.7,0,3.1-0.3,4.2-1s2.1-1.5,2.8-2.5c0.7-1,1.2-2.2,1.6-3.5
		c0.3-1.3,0.5-2.6,0.5-4c0-1.3-0.2-2.7-0.5-4c-0.3-1.3-0.8-2.5-1.6-3.5c-0.7-1-1.6-1.9-2.8-2.5c-1.1-0.7-2.6-1-4.2-1
		c-1.5,0-2.8,0.3-3.9,1c-1.1,0.6-1.9,1.5-2.6,2.5c-0.7,1-1.2,2.2-1.5,3.5c-0.3,1.3-0.5,2.6-0.5,4
		C405.1,683.9,405.3,685.2,405.6,686.5z"/>
	<path class="st1" d="M460.5,674.7c-0.4-0.7-0.9-1.3-1.5-1.8c-0.6-0.5-1.3-0.8-2.1-1c-0.8-0.2-1.6-0.3-2.5-0.3
		c-0.7,0-1.4,0.1-2.1,0.2c-0.7,0.1-1.4,0.4-2,0.8c-0.6,0.3-1.1,0.8-1.5,1.4c-0.4,0.6-0.5,1.3-0.5,2.1c0,0.7,0.2,1.3,0.5,1.8
		s0.8,0.9,1.3,1.2c0.5,0.3,1.1,0.6,1.8,0.8c0.6,0.2,1.2,0.4,1.8,0.5l4.2,0.9c0.9,0.1,1.8,0.4,2.7,0.7c0.9,0.3,1.7,0.8,2.3,1.4
		c0.7,0.6,1.2,1.3,1.7,2.1c0.4,0.8,0.6,1.8,0.6,3c0,1.4-0.3,2.6-1,3.6c-0.6,1-1.4,1.8-2.4,2.4c-1,0.6-2.1,1.1-3.3,1.3
		c-1.2,0.3-2.4,0.4-3.6,0.4c-3,0-5.5-0.7-7.4-2.2c-1.9-1.4-3-3.7-3.2-6.9h3.2c0.1,2.1,0.9,3.7,2.3,4.8c1.4,1.1,3.2,1.6,5.3,1.6
		c0.8,0,1.6-0.1,2.4-0.2c0.8-0.2,1.6-0.4,2.3-0.8c0.7-0.4,1.3-0.9,1.7-1.5c0.5-0.6,0.7-1.4,0.7-2.3c0-0.8-0.2-1.4-0.5-1.9
		c-0.3-0.5-0.7-1-1.3-1.3c-0.5-0.3-1.1-0.6-1.8-0.9c-0.7-0.2-1.4-0.4-2.1-0.6l-4.1-0.9c-1-0.3-2-0.6-2.9-0.9
		c-0.9-0.3-1.6-0.8-2.3-1.3c-0.6-0.5-1.2-1.2-1.5-1.9c-0.4-0.8-0.5-1.7-0.5-2.8c0-1.3,0.3-2.4,0.9-3.4c0.6-0.9,1.3-1.7,2.3-2.2
		c0.9-0.6,2-1,3.1-1.2c1.1-0.3,2.3-0.4,3.4-0.4c1.3,0,2.5,0.2,3.6,0.5c1.1,0.3,2.1,0.8,3,1.5s1.5,1.6,2,2.6c0.5,1,0.8,2.2,0.9,3.7
		h-3.1C461.1,676.2,460.9,675.4,460.5,674.7z"/>
	<path class="st1" d="M485.8,670c1.5,0.7,2.8,1.7,3.8,3c1,1.2,1.8,2.7,2.3,4.3c0.5,1.6,0.8,3.4,0.8,5.3c0,1.9-0.3,3.6-0.8,5.3
		s-1.3,3.1-2.3,4.3c-1,1.2-2.3,2.2-3.8,2.9c-1.5,0.7-3.3,1.1-5.2,1.1c-2,0-3.7-0.4-5.2-1.1c-1.5-0.7-2.8-1.7-3.8-2.9
		c-1-1.2-1.8-2.7-2.4-4.3c-0.5-1.7-0.8-3.4-0.8-5.3c0-1.9,0.3-3.6,0.8-5.3c0.5-1.7,1.3-3.1,2.4-4.3c1-1.2,2.3-2.2,3.8-3
		c1.5-0.7,3.3-1.1,5.2-1.1C482.6,668.9,484.3,669.2,485.8,670z M476.7,672.5c-1.1,0.6-2.1,1.5-2.8,2.5c-0.8,1-1.3,2.2-1.7,3.5
		c-0.4,1.3-0.6,2.7-0.6,4c0,1.4,0.2,2.7,0.6,4c0.4,1.3,1,2.5,1.7,3.5s1.7,1.9,2.8,2.5c1.1,0.6,2.4,0.9,3.9,0.9s2.8-0.3,4-0.9
		c1.1-0.6,2.1-1.5,2.8-2.5s1.3-2.2,1.7-3.5c0.4-1.3,0.6-2.7,0.6-4c0-1.4-0.2-2.7-0.6-4c-0.4-1.3-1-2.5-1.7-3.5
		c-0.8-1-1.7-1.9-2.8-2.5c-1.1-0.6-2.5-1-4-1S477.8,671.8,476.7,672.5z"/>
	<path class="st1" d="M527.5,670c1.5,0.7,2.8,1.7,3.8,3c1,1.2,1.8,2.7,2.3,4.3c0.5,1.6,0.8,3.4,0.8,5.3c0,1.9-0.3,3.6-0.8,5.3
		s-1.3,3.1-2.3,4.3c-1,1.2-2.3,2.2-3.8,2.9c-1.5,0.7-3.3,1.1-5.2,1.1c-2,0-3.7-0.4-5.2-1.1s-2.8-1.7-3.8-2.9c-1-1.2-1.8-2.7-2.4-4.3
		c-0.5-1.7-0.8-3.4-0.8-5.3c0-1.9,0.3-3.6,0.8-5.3c0.5-1.7,1.3-3.1,2.4-4.3c1-1.2,2.3-2.2,3.8-3c1.5-0.7,3.3-1.1,5.2-1.1
		C524.3,668.9,526,669.2,527.5,670z M518.4,672.5c-1.1,0.6-2.1,1.5-2.8,2.5c-0.8,1-1.3,2.2-1.7,3.5c-0.4,1.3-0.6,2.7-0.6,4
		c0,1.4,0.2,2.7,0.6,4c0.4,1.3,1,2.5,1.7,3.5s1.7,1.9,2.8,2.5c1.1,0.6,2.5,0.9,4,0.9s2.8-0.3,3.9-0.9s2.1-1.5,2.8-2.5
		s1.3-2.2,1.7-3.5c0.4-1.3,0.6-2.7,0.6-4c0-1.4-0.2-2.7-0.6-4c-0.4-1.3-1-2.5-1.7-3.5c-0.8-1-1.7-1.9-2.8-2.5c-1.1-0.6-2.4-1-3.9-1
		S519.5,671.8,518.4,672.5z"/>
	<path class="st1" d="M542.3,669.6v4.5h0.1c0.6-1.6,1.7-2.8,3.2-3.8c1.5-1,3.2-1.4,5-1.4c1.8,0,3.3,0.2,4.5,0.7s2.2,1.1,2.9,2
		c0.7,0.8,1.2,1.9,1.5,3.1c0.3,1.2,0.5,2.6,0.5,4.2v16.6H557v-16.1c0-1.1-0.1-2.1-0.3-3.1s-0.5-1.8-1-2.5c-0.5-0.7-1.2-1.2-2-1.6
		c-0.8-0.4-1.9-0.6-3.2-0.6c-1.3,0-2.4,0.2-3.4,0.7c-1,0.4-1.8,1.1-2.5,1.8c-0.7,0.8-1.2,1.7-1.6,2.8c-0.4,1.1-0.6,2.3-0.6,3.5v15
		h-3.1v-25.8H542.3z"/>
	<path class="st1" d="M567.9,690.1h4.2v5.3h-4.2V690.1z"/>
	<path class="st1" d="M581.8,690.1h4.2v5.3h-4.2V690.1z"/>
	<path class="st1" d="M595.7,690.1h4.2v5.3h-4.2V690.1z"/>
</g>
</svg>
