<?xml version="1.0" encoding="utf-8"?>
<!-- Generator: Adobe Illustrator 19.2.0, SVG Export Plug-In . SVG Version: 6.00 Build 0)  -->
<svg version="1.1" id="Layer_1" xmlns="http://www.w3.org/2000/svg" xmlns:xlink="http://www.w3.org/1999/xlink" x="0px" y="0px"
	 viewBox="0 0 1024 768" style="enable-background:new 0 0 1024 768;" xml:space="preserve">
<style type="text/css">
	.st0{fill:#DCF0FB;}
	.st1{fill:#336699;}
	.st2{fill:#EAEAEA;}
	.st3{fill:#FFFFFF;}
	.st4{fill:#D2EAF7;}
	.st5{fill:#233267;}
</style>
<rect class="st0" width="1024" height="768"/>
<g>
	<path class="st1" d="M87.5,51.8v35.7h-3.4V51.8H87.5z"/>
	<path class="st1" d="M97.5,61.7v4.5h0.1c0.6-1.6,1.7-2.8,3.2-3.8c1.5-1,3.2-1.4,5.1-1.4c1.8,0,3.3,0.2,4.5,0.7
		c1.2,0.5,2.2,1.1,2.9,2c0.7,0.8,1.2,1.9,1.6,3.1c0.3,1.2,0.4,2.6,0.4,4.2v16.6h-3.1V71.4c0-1.1-0.1-2.1-0.3-3.1
		c-0.2-1-0.6-1.8-1.1-2.5c-0.5-0.7-1.2-1.2-2-1.6c-0.9-0.4-1.9-0.6-3.2-0.6c-1.3,0-2.4,0.2-3.4,0.7c-1,0.4-1.8,1.1-2.5,1.8
		c-0.7,0.8-1.2,1.7-1.6,2.8c-0.4,1.1-0.6,2.3-0.6,3.5v15h-3.1V61.7H97.5z"/>
	<path class="st1" d="M145.4,61.7v2.6h-5.2v17.4c0,1,0.1,1.8,0.4,2.4c0.3,0.6,1,0.9,2.1,1c0.9,0,1.8-0.1,2.7-0.2v2.7
		c-0.5,0-0.9,0-1.4,0c-0.5,0-0.9,0-1.4,0c-2.1,0-3.6-0.4-4.4-1.2c-0.8-0.8-1.2-2.3-1.2-4.5V64.3h-4.5v-2.6h4.5v-7.8h3.1v7.8H145.4z"
		/>
	<path class="st1" d="M153,51.8v14.4h0.1c0.6-1.6,1.7-2.8,3.2-3.8c1.5-1,3.2-1.4,5.1-1.4c1.8,0,3.3,0.2,4.5,0.7
		c1.2,0.5,2.2,1.1,2.9,2c0.7,0.8,1.2,1.9,1.6,3.1c0.3,1.2,0.4,2.6,0.4,4.2v16.6h-3.1V71.4c0-1.1-0.1-2.1-0.3-3.1
		c-0.2-1-0.6-1.8-1.1-2.5c-0.5-0.7-1.2-1.2-2-1.6c-0.9-0.4-1.9-0.6-3.2-0.6c-1.3,0-2.4,0.2-3.4,0.7c-1,0.4-1.8,1.1-2.5,1.8
		c-0.7,0.8-1.2,1.7-1.6,2.8c-0.4,1.1-0.6,2.3-0.6,3.5v15h-3.1V51.8H153z"/>
	<path class="st1" d="M179.1,78.9c0.3,1.2,0.8,2.3,1.5,3.3c0.7,1,1.6,1.8,2.6,2.4c1.1,0.6,2.4,0.9,3.9,0.9c2.3,0,4.1-0.6,5.4-1.8
		s2.2-2.8,2.7-4.8h3.1c-0.7,2.9-1.9,5.2-3.7,6.8c-1.8,1.6-4.3,2.4-7.6,2.4c-2,0-3.8-0.4-5.3-1.1c-1.5-0.7-2.7-1.7-3.6-3
		c-0.9-1.2-1.6-2.7-2.1-4.3c-0.5-1.7-0.7-3.4-0.7-5.2c0-1.7,0.2-3.4,0.7-5c0.5-1.6,1.1-3.1,2.1-4.4c0.9-1.3,2.1-2.3,3.6-3.1
		c1.5-0.8,3.2-1.2,5.3-1.2c2.1,0,3.8,0.4,5.3,1.2c1.5,0.8,2.7,1.9,3.6,3.3c0.9,1.4,1.6,2.9,2,4.7c0.4,1.8,0.6,3.5,0.5,5.3h-19.9
		C178.6,76.6,178.8,77.7,179.1,78.9z M194.7,69.3c-0.4-1.1-0.9-2.1-1.6-2.9c-0.7-0.8-1.5-1.5-2.5-2c-1-0.5-2.1-0.8-3.4-0.8
		c-1.3,0-2.5,0.3-3.5,0.8c-1,0.5-1.9,1.2-2.5,2c-0.7,0.9-1.3,1.8-1.7,3c-0.4,1.1-0.7,2.3-0.8,3.4h16.7
		C195.3,71.6,195.1,70.4,194.7,69.3z"/>
	<path class="st1" d="M221.5,64.3v23.2h-3.1V64.3h-4.4v-2.6h4.4v-2.4c0-1.1,0.1-2.1,0.2-3c0.2-0.9,0.5-1.7,0.9-2.4
		c0.5-0.7,1.1-1.2,1.9-1.6c0.8-0.4,1.9-0.5,3.1-0.5c0.5,0,0.9,0,1.3,0c0.4,0,0.9,0.1,1.4,0.2v2.7c-0.4-0.1-0.8-0.1-1.2-0.2
		c-0.4-0.1-0.7-0.1-1.1-0.1c-0.9,0-1.5,0.1-2,0.4c-0.5,0.3-0.8,0.6-1,1.1c-0.2,0.5-0.3,1-0.4,1.6c0,0.6,0,1.2,0,2v2.2h5.1v2.6H221.5
		z"/>
	<path class="st1" d="M232.8,51.8v5h-3.2v-5H232.8z M232.8,61.7v25.8h-3.2V61.7H232.8z"/>
	<path class="st1" d="M241.9,61.7v4.5h0.1c0.6-1.6,1.7-2.8,3.2-3.8c1.5-1,3.2-1.4,5.1-1.4c1.8,0,3.3,0.2,4.5,0.7
		c1.2,0.5,2.2,1.1,2.9,2c0.7,0.8,1.2,1.9,1.6,3.1c0.3,1.2,0.4,2.6,0.4,4.2v16.6h-3.1V71.4c0-1.1-0.1-2.1-0.3-3.1
		c-0.2-1-0.6-1.8-1.1-2.5c-0.5-0.7-1.2-1.2-2-1.6c-0.9-0.4-1.9-0.6-3.2-0.6c-1.3,0-2.4,0.2-3.4,0.7c-1,0.4-1.8,1.1-2.5,1.8
		c-0.7,0.8-1.2,1.7-1.6,2.8c-0.4,1.1-0.6,2.3-0.6,3.5v15h-3.1V61.7H241.9z"/>
	<path class="st1" d="M266.3,65.7c0.5-1.1,1.3-2,2.2-2.7c0.9-0.7,2-1.2,3.2-1.5c1.2-0.3,2.6-0.5,4.1-0.5c1.1,0,2.3,0.1,3.4,0.3
		c1.1,0.2,2.2,0.6,3.1,1.2s1.6,1.4,2.2,2.5c0.6,1.1,0.9,2.5,0.9,4.2v13.7c0,1.3,0.6,1.9,1.9,1.9c0.4,0,0.7-0.1,1-0.2v2.6
		c-0.4,0.1-0.7,0.1-1,0.2c-0.3,0-0.6,0-1.1,0c-0.8,0-1.4-0.1-1.9-0.3c-0.5-0.2-0.9-0.5-1.1-0.9c-0.3-0.4-0.4-0.9-0.5-1.4
		c-0.1-0.5-0.1-1.2-0.1-1.8h-0.1c-0.6,0.8-1.1,1.6-1.7,2.2c-0.6,0.7-1.2,1.2-1.9,1.6c-0.7,0.4-1.5,0.8-2.5,1c-0.9,0.2-2,0.4-3.3,0.4
		c-1.2,0-2.3-0.1-3.4-0.4c-1-0.3-2-0.7-2.8-1.4c-0.8-0.6-1.4-1.4-1.9-2.3c-0.4-1-0.7-2.1-0.7-3.4c0-1.8,0.4-3.2,1.2-4.2
		c0.8-1,1.9-1.8,3.2-2.3c1.3-0.5,2.8-0.9,4.4-1.1c1.7-0.2,3.3-0.4,5-0.6c0.7-0.1,1.2-0.2,1.8-0.2c0.5-0.1,0.9-0.3,1.2-0.5
		c0.3-0.2,0.6-0.6,0.8-1c0.2-0.4,0.3-1,0.3-1.7c0-1.1-0.2-1.9-0.5-2.6s-0.8-1.2-1.5-1.6c-0.6-0.4-1.3-0.7-2.1-0.8
		c-0.8-0.2-1.7-0.2-2.6-0.2c-2,0-3.6,0.5-4.9,1.4c-1.3,0.9-1.9,2.5-2,4.6h-3.1C265.5,68.1,265.8,66.8,266.3,65.7z M282.1,73.4
		c-0.2,0.4-0.6,0.6-1.1,0.8c-0.6,0.2-1.1,0.3-1.5,0.3c-1.3,0.2-2.7,0.4-4.1,0.6c-1.4,0.2-2.7,0.5-3.9,0.8c-1.2,0.4-2.1,0.9-2.9,1.6
		c-0.8,0.7-1.1,1.7-1.1,2.9c0,0.8,0.2,1.5,0.5,2.1c0.3,0.6,0.7,1.2,1.3,1.6c0.5,0.5,1.1,0.8,1.9,1c0.7,0.2,1.4,0.3,2.1,0.3
		c1.2,0,2.4-0.2,3.5-0.5c1.1-0.4,2.1-0.9,2.9-1.6c0.8-0.7,1.5-1.5,1.9-2.5c0.5-1,0.7-2.1,0.7-3.4v-4.1H282.1z"/>
	<path class="st1" d="M294.7,61.7v4.5h0.1c0.6-1.6,1.7-2.8,3.2-3.8c1.5-1,3.2-1.4,5.1-1.4c1.8,0,3.3,0.2,4.5,0.7
		c1.2,0.5,2.2,1.1,2.9,2c0.7,0.8,1.2,1.9,1.6,3.1c0.3,1.2,0.4,2.6,0.4,4.2v16.6h-3.1V71.4c0-1.1-0.1-2.1-0.3-3.1
		c-0.2-1-0.6-1.8-1.1-2.5c-0.5-0.7-1.2-1.2-2-1.6c-0.9-0.4-1.9-0.6-3.2-0.6c-1.3,0-2.4,0.2-3.4,0.7c-1,0.4-1.8,1.1-2.5,1.8
		c-0.7,0.8-1.2,1.7-1.6,2.8c-0.4,1.1-0.6,2.3-0.6,3.5v15h-3.1V61.7H294.7z"/>
	<path class="st1" d="M334.3,65.2c-1.2-1.1-2.8-1.7-4.9-1.7c-1.5,0-2.8,0.3-3.9,1c-1.1,0.6-2.1,1.5-2.8,2.5c-0.8,1-1.3,2.2-1.7,3.5
		c-0.4,1.3-0.6,2.7-0.6,4c0,1.4,0.2,2.7,0.6,4c0.4,1.3,1,2.5,1.7,3.5s1.7,1.9,2.8,2.5c1.1,0.6,2.4,0.9,3.9,0.9c1,0,1.9-0.2,2.8-0.5
		c0.9-0.4,1.6-0.9,2.3-1.5c0.7-0.7,1.2-1.4,1.6-2.3c0.4-0.9,0.7-1.9,0.8-3h3.1c-0.4,3.1-1.6,5.6-3.4,7.3c-1.9,1.8-4.3,2.6-7.2,2.6
		c-2,0-3.7-0.4-5.2-1.1c-1.5-0.7-2.8-1.7-3.8-2.9c-1-1.2-1.8-2.7-2.4-4.3c-0.5-1.7-0.8-3.4-0.8-5.3c0-1.9,0.3-3.6,0.8-5.3
		c0.5-1.7,1.3-3.1,2.4-4.3c1-1.2,2.3-2.2,3.8-3c1.5-0.7,3.3-1.1,5.2-1.1c2.8,0,5.1,0.7,7,2.2c1.9,1.5,3.1,3.7,3.4,6.6h-3.1
		C336.2,67.8,335.4,66.3,334.3,65.2z"/>
	<path class="st1" d="M347.6,51.8v5h-3.2v-5H347.6z M347.6,61.7v25.8h-3.2V61.7H347.6z"/>
	<path class="st1" d="M354.3,65.7c0.5-1.1,1.3-2,2.2-2.7c0.9-0.7,2-1.2,3.2-1.5c1.2-0.3,2.6-0.5,4.1-0.5c1.1,0,2.3,0.1,3.4,0.3
		c1.1,0.2,2.2,0.6,3.1,1.2s1.6,1.4,2.2,2.5c0.6,1.1,0.9,2.5,0.9,4.2v13.7c0,1.3,0.6,1.9,1.9,1.9c0.4,0,0.7-0.1,1-0.2v2.6
		c-0.4,0.1-0.7,0.1-1,0.2c-0.3,0-0.6,0-1.1,0c-0.8,0-1.4-0.1-1.9-0.3c-0.5-0.2-0.9-0.5-1.1-0.9c-0.3-0.4-0.4-0.9-0.5-1.4
		c-0.1-0.5-0.1-1.2-0.1-1.8h-0.1c-0.6,0.8-1.1,1.6-1.7,2.2c-0.6,0.7-1.2,1.2-1.9,1.6c-0.7,0.4-1.5,0.8-2.5,1c-0.9,0.2-2,0.4-3.3,0.4
		c-1.2,0-2.3-0.1-3.4-0.4c-1-0.3-2-0.7-2.8-1.4c-0.8-0.6-1.4-1.4-1.9-2.3c-0.4-1-0.7-2.1-0.7-3.4c0-1.8,0.4-3.2,1.2-4.2
		c0.8-1,1.9-1.8,3.2-2.3c1.3-0.5,2.8-0.9,4.4-1.1c1.7-0.2,3.3-0.4,5-0.6c0.7-0.1,1.2-0.2,1.8-0.2c0.5-0.1,0.9-0.3,1.2-0.5
		c0.3-0.2,0.6-0.6,0.8-1c0.2-0.4,0.3-1,0.3-1.7c0-1.1-0.2-1.9-0.5-2.6s-0.8-1.2-1.5-1.6c-0.6-0.4-1.3-0.7-2.1-0.8
		c-0.8-0.2-1.7-0.2-2.6-0.2c-2,0-3.6,0.5-4.9,1.4c-1.3,0.9-1.9,2.5-2,4.6h-3.1C353.5,68.1,353.8,66.8,354.3,65.7z M370.1,73.4
		c-0.2,0.4-0.6,0.6-1.1,0.8c-0.6,0.2-1.1,0.3-1.5,0.3c-1.3,0.2-2.7,0.4-4.1,0.6c-1.4,0.2-2.7,0.5-3.9,0.8c-1.2,0.4-2.1,0.9-2.9,1.6
		c-0.8,0.7-1.1,1.7-1.1,2.9c0,0.8,0.2,1.5,0.5,2.1c0.3,0.6,0.7,1.2,1.3,1.6c0.5,0.5,1.1,0.8,1.9,1c0.7,0.2,1.4,0.3,2.1,0.3
		c1.2,0,2.4-0.2,3.5-0.5c1.1-0.4,2.1-0.9,2.9-1.6c0.8-0.7,1.5-1.5,1.9-2.5c0.5-1,0.7-2.1,0.7-3.4v-4.1H370.1z"/>
	<path class="st1" d="M382.8,51.8v35.7h-3.2V51.8H382.8z"/>
	<path class="st1" d="M403.5,61.7l6.6,22.1h0.1l6.3-22.1h3.5l6.3,22.1h0.1l6.6-22.1h3.4l-8.3,25.8h-3.5l-6.4-21.7h-0.1l-6.3,21.7
		h-3.4l-8.3-25.8H403.5z"/>
	<path class="st1" d="M456,62c1.5,0.7,2.8,1.7,3.8,3c1,1.2,1.8,2.7,2.3,4.3c0.5,1.6,0.8,3.4,0.8,5.3c0,1.9-0.3,3.6-0.8,5.3
		s-1.3,3.1-2.3,4.3c-1,1.2-2.3,2.2-3.8,2.9c-1.5,0.7-3.3,1.1-5.2,1.1c-2,0-3.7-0.4-5.2-1.1c-1.5-0.7-2.8-1.7-3.8-2.9
		c-1-1.2-1.8-2.7-2.4-4.3c-0.5-1.7-0.8-3.4-0.8-5.3c0-1.9,0.3-3.6,0.8-5.3c0.5-1.7,1.3-3.1,2.4-4.3c1-1.2,2.3-2.2,3.8-3
		c1.5-0.7,3.3-1.1,5.2-1.1C452.7,60.9,454.4,61.3,456,62z M446.8,64.5c-1.1,0.6-2.1,1.5-2.8,2.5c-0.8,1-1.3,2.2-1.7,3.5
		c-0.4,1.3-0.6,2.7-0.6,4c0,1.4,0.2,2.7,0.6,4c0.4,1.3,1,2.5,1.7,3.5s1.7,1.9,2.8,2.5c1.1,0.6,2.4,0.9,3.9,0.9s2.8-0.3,4-0.9
		c1.1-0.6,2.1-1.5,2.8-2.5s1.3-2.2,1.7-3.5c0.4-1.3,0.6-2.7,0.6-4c0-1.4-0.2-2.7-0.6-4c-0.4-1.3-1-2.5-1.7-3.5
		c-0.8-1-1.7-1.9-2.8-2.5c-1.1-0.6-2.5-1-4-1S447.9,63.9,446.8,64.5z"/>
	<path class="st1" d="M470.5,61.7v6h0.1c0.8-2.1,2-3.7,3.7-4.8c1.7-1.1,3.7-1.7,6-1.6v3.2c-1.4-0.1-2.7,0.1-3.9,0.6s-2.2,1.1-3,1.9
		c-0.9,0.8-1.5,1.8-2,3c-0.5,1.2-0.7,2.4-0.7,3.8v13.8h-3.1V61.7H470.5z"/>
	<path class="st1" d="M486.6,51.8v35.7h-3.2V51.8H486.6z"/>
	<path class="st1" d="M512.4,87.5v-4.9h-0.1c-0.3,0.8-0.8,1.6-1.5,2.3c-0.6,0.7-1.4,1.3-2.2,1.8c-0.8,0.5-1.7,0.9-2.7,1.1
		s-1.9,0.4-2.8,0.4c-2,0-3.7-0.4-5.1-1.1s-2.7-1.7-3.6-3s-1.7-2.7-2.2-4.3c-0.5-1.7-0.7-3.4-0.7-5.2c0-1.8,0.2-3.6,0.7-5.2
		s1.2-3.1,2.2-4.3s2.2-2.2,3.6-3c1.5-0.7,3.2-1.1,5.1-1.1c1,0,1.9,0.1,2.8,0.3c0.9,0.2,1.8,0.6,2.6,1.1c0.8,0.5,1.5,1.1,2.1,1.8
		c0.6,0.7,1.1,1.5,1.4,2.4h0.1V51.8h3.2v35.7H512.4z M495.2,78.5c0.3,1.3,0.8,2.5,1.5,3.5c0.7,1,1.6,1.9,2.6,2.5
		c1.1,0.7,2.3,1,3.8,1c1.7,0,3.1-0.3,4.2-1c1.2-0.7,2.1-1.5,2.8-2.5c0.7-1,1.2-2.2,1.5-3.5c0.3-1.3,0.5-2.6,0.5-4
		c0-1.3-0.2-2.7-0.5-4c-0.3-1.3-0.8-2.5-1.5-3.5c-0.7-1-1.7-1.9-2.8-2.5c-1.1-0.7-2.6-1-4.2-1c-1.5,0-2.8,0.3-3.8,1
		c-1.1,0.6-1.9,1.5-2.6,2.5c-0.7,1-1.2,2.2-1.5,3.5c-0.3,1.3-0.5,2.6-0.5,4C494.7,75.9,494.8,77.2,495.2,78.5z"/>
	<path class="st1" d="M527.4,87.5c0,0.7-0.1,1.5-0.3,2.2c-0.2,0.7-0.5,1.4-0.8,2c-0.4,0.6-0.8,1.2-1.4,1.6s-1.2,0.8-1.9,1v-2.1
		c0.4-0.1,0.8-0.4,1-0.8c0.3-0.4,0.5-0.8,0.8-1.2s0.3-0.9,0.4-1.4c0.1-0.5,0.1-0.9,0.1-1.3h-2.1v-5.3h4.2V87.5z"/>
	<path class="st1" d="M552.3,51.8v5h-3.2v-5H552.3z M552.3,61.7v25.8h-3.2V61.7H552.3z"/>
	<path class="st1" d="M561.5,61.7v4.5h0.1c0.6-1.6,1.7-2.8,3.2-3.8c1.5-1,3.2-1.4,5-1.4c1.8,0,3.3,0.2,4.5,0.7s2.2,1.1,2.9,2
		c0.7,0.8,1.2,1.9,1.5,3.1c0.3,1.2,0.5,2.6,0.5,4.2v16.6h-3.2V71.4c0-1.1-0.1-2.1-0.3-3.1s-0.5-1.8-1-2.5c-0.5-0.7-1.2-1.2-2-1.6
		c-0.8-0.4-1.9-0.6-3.2-0.6c-1.3,0-2.4,0.2-3.4,0.7c-1,0.4-1.8,1.1-2.5,1.8c-0.7,0.8-1.2,1.7-1.6,2.8c-0.4,1.1-0.6,2.3-0.6,3.5v15
		h-3.1V61.7H561.5z"/>
	<path class="st1" d="M585.8,61.7l8.1,22.6h0.1l8-22.6h3.2l-9.6,25.8h-3.4l-10-25.8H585.8z"/>
	<path class="st1" d="M610.7,78.9c0.3,1.2,0.8,2.3,1.5,3.3c0.7,1,1.6,1.8,2.7,2.4c1.1,0.6,2.3,0.9,3.8,0.9c2.3,0,4.1-0.6,5.4-1.8
		s2.2-2.8,2.7-4.8h3.1c-0.7,2.9-1.9,5.2-3.7,6.8c-1.8,1.6-4.3,2.4-7.6,2.4c-2,0-3.8-0.4-5.3-1.1c-1.5-0.7-2.7-1.7-3.6-3
		c-0.9-1.2-1.6-2.7-2.1-4.3c-0.5-1.7-0.7-3.4-0.7-5.2c0-1.7,0.2-3.4,0.7-5c0.5-1.6,1.1-3.1,2.1-4.4c0.9-1.3,2.1-2.3,3.6-3.1
		c1.5-0.8,3.2-1.2,5.3-1.2c2.1,0,3.8,0.4,5.3,1.2c1.5,0.8,2.7,1.9,3.6,3.3c0.9,1.4,1.6,2.9,2,4.7c0.4,1.8,0.6,3.5,0.5,5.3h-19.9
		C610.2,76.6,610.4,77.7,610.7,78.9z M626.3,69.3c-0.4-1.1-0.9-2.1-1.6-2.9c-0.7-0.8-1.5-1.5-2.5-2c-1-0.5-2.1-0.8-3.4-0.8
		c-1.3,0-2.4,0.3-3.4,0.8c-1,0.5-1.9,1.2-2.6,2c-0.7,0.9-1.3,1.8-1.7,3c-0.4,1.1-0.7,2.3-0.8,3.4h16.7
		C626.9,71.6,626.7,70.4,626.3,69.3z"/>
	<path class="st1" d="M649.2,66.7c-0.4-0.7-0.9-1.3-1.5-1.8c-0.6-0.5-1.3-0.8-2.1-1c-0.8-0.2-1.7-0.3-2.5-0.3
		c-0.7,0-1.4,0.1-2.1,0.2c-0.7,0.1-1.4,0.4-2,0.8c-0.6,0.3-1.1,0.8-1.4,1.4c-0.4,0.6-0.6,1.3-0.6,2.1c0,0.7,0.2,1.3,0.5,1.8
		s0.8,0.9,1.3,1.2c0.5,0.3,1.1,0.6,1.8,0.8c0.6,0.2,1.2,0.4,1.8,0.5l4.2,0.9c0.9,0.1,1.8,0.4,2.7,0.7c0.9,0.3,1.7,0.8,2.3,1.4
		c0.7,0.6,1.2,1.3,1.7,2.1c0.4,0.8,0.7,1.8,0.7,3c0,1.4-0.3,2.6-1,3.6c-0.6,1-1.4,1.8-2.4,2.4c-1,0.6-2.1,1.1-3.3,1.3
		s-2.5,0.4-3.6,0.4c-3,0-5.5-0.7-7.4-2.2c-1.9-1.4-3-3.7-3.2-6.9h3.2c0.1,2.1,0.9,3.7,2.3,4.8c1.4,1.1,3.2,1.6,5.3,1.6
		c0.8,0,1.6-0.1,2.4-0.2c0.8-0.2,1.6-0.4,2.3-0.8s1.3-0.9,1.7-1.5c0.5-0.6,0.7-1.4,0.7-2.3c0-0.8-0.2-1.4-0.5-1.9
		c-0.3-0.5-0.7-1-1.3-1.3c-0.5-0.3-1.1-0.6-1.8-0.9c-0.7-0.2-1.4-0.4-2.1-0.6l-4-0.9c-1-0.3-2-0.6-2.9-0.9c-0.9-0.3-1.6-0.8-2.3-1.3
		c-0.7-0.5-1.2-1.2-1.5-1.9c-0.4-0.8-0.5-1.7-0.5-2.8c0-1.3,0.3-2.4,0.9-3.4c0.6-0.9,1.3-1.7,2.3-2.2c0.9-0.6,2-1,3.1-1.2
		c1.2-0.3,2.3-0.4,3.4-0.4c1.3,0,2.5,0.2,3.6,0.5c1.1,0.3,2.1,0.8,2.9,1.5c0.9,0.7,1.5,1.6,2,2.6c0.5,1,0.8,2.2,0.8,3.7h-3.1
		C649.7,68.3,649.5,67.4,649.2,66.7z"/>
	<path class="st1" d="M668.6,61.7v2.6h-5.2v17.4c0,1,0.1,1.8,0.4,2.4c0.3,0.6,1,0.9,2.1,1c0.9,0,1.8-0.1,2.7-0.2v2.7
		c-0.5,0-0.9,0-1.4,0c-0.5,0-0.9,0-1.4,0c-2.1,0-3.6-0.4-4.4-1.2s-1.2-2.3-1.2-4.5V64.3h-4.5v-2.6h4.5v-7.8h3.2v7.8H668.6z"/>
	<path class="st1" d="M676.4,51.8v5h-3.2v-5H676.4z M676.4,61.7v25.8h-3.2V61.7H676.4z"/>
	<path class="st1" d="M685.5,61.7v4.5h0.1c0.6-1.6,1.7-2.8,3.2-3.8c1.5-1,3.2-1.4,5-1.4c1.8,0,3.3,0.2,4.5,0.7s2.2,1.1,2.9,2
		c0.7,0.8,1.2,1.9,1.5,3.1c0.3,1.2,0.5,2.6,0.5,4.2v16.6h-3.2V71.4c0-1.1-0.1-2.1-0.3-3.1s-0.5-1.8-1-2.5c-0.5-0.7-1.2-1.2-2-1.6
		c-0.8-0.4-1.9-0.6-3.2-0.6c-1.3,0-2.4,0.2-3.4,0.7c-1,0.4-1.8,1.1-2.5,1.8c-0.7,0.8-1.2,1.7-1.6,2.8c-0.4,1.1-0.6,2.3-0.6,3.5v15
		h-3.1V61.7H685.5z"/>
	<path class="st1" d="M730.5,90.5c-0.4,1.5-1.1,2.8-2,3.9c-0.9,1.1-2.1,1.9-3.5,2.5c-1.5,0.6-3.2,0.8-5.3,0.8
		c-1.3,0-2.6-0.2-3.8-0.5s-2.3-0.8-3.3-1.4c-1-0.6-1.8-1.4-2.4-2.4c-0.7-1-1-2.2-1.1-3.5h3.1c0.2,1,0.5,1.8,1,2.4
		c0.5,0.7,1.1,1.2,1.8,1.6c0.7,0.4,1.4,0.7,2.3,0.9c0.8,0.2,1.7,0.3,2.5,0.3c2.9,0,5.1-0.8,6.4-2.5s2-4.1,2-7.2v-3.5h-0.1
		c-0.7,1.6-1.8,2.9-3.2,3.8c-1.4,1-3.1,1.5-5,1.5c-2.1,0-3.8-0.3-5.3-1c-1.5-0.7-2.7-1.6-3.6-2.8c-1-1.2-1.6-2.6-2.1-4.2
		c-0.4-1.6-0.6-3.3-0.6-5.2c0-1.8,0.3-3.4,0.8-5c0.5-1.6,1.3-3,2.2-4.1s2.2-2.1,3.7-2.8c1.5-0.7,3.1-1,5-1c1,0,1.9,0.1,2.7,0.4
		c0.8,0.3,1.6,0.6,2.3,1.1c0.7,0.5,1.3,1,1.9,1.7c0.5,0.6,1,1.3,1.3,2h0.1v-4.5h3.1v23.7C731.1,87.3,730.9,89,730.5,90.5z
		 M723.2,83.6c1-0.6,1.9-1.3,2.6-2.3s1.2-2,1.6-3.3c0.3-1.2,0.5-2.5,0.5-3.8c0-1.3-0.2-2.5-0.5-3.8c-0.3-1.3-0.8-2.4-1.5-3.5
		c-0.7-1-1.5-1.9-2.6-2.5c-1-0.6-2.3-1-3.8-1s-2.8,0.3-3.8,0.9c-1.1,0.6-2,1.4-2.7,2.4c-0.7,1-1.2,2.1-1.5,3.4
		c-0.3,1.3-0.5,2.6-0.5,3.9c0,1.3,0.2,2.6,0.5,3.8c0.3,1.2,0.9,2.3,1.6,3.3c0.7,1,1.6,1.7,2.6,2.3c1.1,0.6,2.3,0.9,3.8,0.9
		C721,84.5,722.2,84.2,723.2,83.6z"/>
	<path class="st1" d="M754.2,51.8v5H751v-5H754.2z M754.2,61.7v25.8H751V61.7H754.2z"/>
	<path class="st1" d="M775.1,66.7c-0.4-0.7-0.9-1.3-1.5-1.8c-0.6-0.5-1.3-0.8-2.1-1c-0.8-0.2-1.7-0.3-2.5-0.3
		c-0.7,0-1.4,0.1-2.1,0.2c-0.7,0.1-1.4,0.4-2,0.8c-0.6,0.3-1.1,0.8-1.4,1.4c-0.4,0.6-0.6,1.3-0.6,2.1c0,0.7,0.2,1.3,0.5,1.8
		s0.8,0.9,1.3,1.2c0.5,0.3,1.1,0.6,1.8,0.8c0.6,0.2,1.2,0.4,1.8,0.5l4.2,0.9c0.9,0.1,1.8,0.4,2.7,0.7c0.9,0.3,1.7,0.8,2.3,1.4
		c0.7,0.6,1.2,1.3,1.7,2.1c0.4,0.8,0.7,1.8,0.7,3c0,1.4-0.3,2.6-1,3.6c-0.6,1-1.4,1.8-2.4,2.4c-1,0.6-2.1,1.1-3.3,1.3
		s-2.5,0.4-3.6,0.4c-3,0-5.5-0.7-7.4-2.2c-1.9-1.4-3-3.7-3.2-6.9h3.2c0.1,2.1,0.9,3.7,2.3,4.8c1.4,1.1,3.2,1.6,5.3,1.6
		c0.8,0,1.6-0.1,2.4-0.2c0.8-0.2,1.6-0.4,2.3-0.8s1.3-0.9,1.7-1.5c0.5-0.6,0.7-1.4,0.7-2.3c0-0.8-0.2-1.4-0.5-1.9
		c-0.3-0.5-0.7-1-1.3-1.3c-0.5-0.3-1.1-0.6-1.8-0.9c-0.7-0.2-1.4-0.4-2.1-0.6l-4-0.9c-1-0.3-2-0.6-2.9-0.9c-0.9-0.3-1.6-0.8-2.3-1.3
		c-0.7-0.5-1.2-1.2-1.5-1.9c-0.4-0.8-0.5-1.7-0.5-2.8c0-1.3,0.3-2.4,0.9-3.4c0.6-0.9,1.3-1.7,2.3-2.2c0.9-0.6,2-1,3.1-1.2
		c1.2-0.3,2.3-0.4,3.4-0.4c1.3,0,2.5,0.2,3.6,0.5c1.1,0.3,2.1,0.8,2.9,1.5c0.9,0.7,1.5,1.6,2,2.6c0.5,1,0.8,2.2,0.8,3.7h-3.1
		C775.6,68.3,775.4,67.4,775.1,66.7z"/>
	<path class="st1" d="M801.1,61.7v4.9h0.1c0.7-1.8,1.9-3.2,3.6-4.2c1.6-1,3.5-1.5,5.6-1.5c2,0,3.7,0.4,5.1,1.1
		c1.5,0.7,2.7,1.7,3.6,3c1,1.2,1.7,2.7,2.1,4.3s0.7,3.4,0.7,5.2c0,1.8-0.2,3.6-0.7,5.2c-0.5,1.6-1.2,3.1-2.1,4.3
		c-1,1.2-2.2,2.2-3.6,3s-3.2,1.1-5.1,1.1c-0.9,0-1.9-0.1-2.8-0.4c-0.9-0.2-1.8-0.6-2.6-1c-0.8-0.5-1.5-1-2.1-1.8
		c-0.6-0.7-1.1-1.5-1.4-2.5h-0.1V97h-3.2V61.7H801.1z M818.4,70.6c-0.3-1.3-0.8-2.5-1.5-3.5c-0.7-1-1.6-1.9-2.6-2.5
		c-1.1-0.7-2.3-1-3.8-1c-1.7,0-3.2,0.3-4.4,0.9s-2.1,1.4-2.8,2.4s-1.2,2.2-1.5,3.5c-0.3,1.3-0.4,2.7-0.4,4.2c0,1.3,0.2,2.7,0.5,4
		c0.3,1.3,0.8,2.5,1.5,3.5c0.7,1,1.7,1.9,2.8,2.5c1.2,0.7,2.6,1,4.2,1c1.5,0,2.8-0.3,3.8-1c1.1-0.7,1.9-1.5,2.6-2.5
		c0.7-1,1.2-2.2,1.5-3.5c0.3-1.3,0.5-2.6,0.5-4C818.8,73.2,818.7,71.9,818.4,70.6z"/>
	<path class="st1" d="M844.9,87.5v-4.7h-0.1c-0.8,1.7-2,3.1-3.6,4c-1.6,0.9-3.3,1.4-5.3,1.4c-1.6,0-3-0.2-4.2-0.7
		c-1.2-0.5-2.1-1.1-2.8-1.9c-0.7-0.8-1.2-1.8-1.6-3c-0.3-1.2-0.5-2.6-0.5-4.1V61.7h3.1v16.8c0.1,2.3,0.6,4.1,1.6,5.3
		s2.8,1.8,5.3,1.8c1.4,0,2.5-0.3,3.5-0.9c1-0.6,1.8-1.4,2.4-2.3c0.6-1,1.1-2.1,1.4-3.3s0.5-2.5,0.5-3.8V61.7h3.2v25.8H844.9z"/>
	<path class="st1" d="M864,61.7v2.6h-5.2v17.4c0,1,0.1,1.8,0.4,2.4c0.3,0.6,1,0.9,2.1,1c0.9,0,1.8-0.1,2.7-0.2v2.7
		c-0.5,0-0.9,0-1.4,0c-0.5,0-0.9,0-1.4,0c-2.1,0-3.6-0.4-4.4-1.2s-1.2-2.3-1.2-4.5V64.3h-4.5v-2.6h4.5v-7.8h3.2v7.8H864z"/>
	<path class="st1" d="M878.8,61.7v2.6h-5.2v17.4c0,1,0.1,1.8,0.4,2.4c0.3,0.6,1,0.9,2.1,1c0.9,0,1.8-0.1,2.7-0.2v2.7
		c-0.5,0-0.9,0-1.4,0c-0.5,0-0.9,0-1.4,0c-2.1,0-3.6-0.4-4.4-1.2s-1.2-2.3-1.2-4.5V64.3h-4.5v-2.6h4.5v-7.8h3.2v7.8H878.8z"/>
	<path class="st1" d="M886.5,51.8v5h-3.2v-5H886.5z M886.5,61.7v25.8h-3.2V61.7H886.5z"/>
	<path class="st1" d="M895.7,61.7v4.5h0.1c0.6-1.6,1.7-2.8,3.2-3.8c1.5-1,3.2-1.4,5-1.4c1.8,0,3.3,0.2,4.5,0.7s2.2,1.1,2.9,2
		c0.7,0.8,1.2,1.9,1.5,3.1c0.3,1.2,0.5,2.6,0.5,4.2v16.6h-3.2V71.4c0-1.1-0.1-2.1-0.3-3.1s-0.5-1.8-1-2.5c-0.5-0.7-1.2-1.2-2-1.6
		c-0.8-0.4-1.9-0.6-3.2-0.6c-1.3,0-2.4,0.2-3.4,0.7c-1,0.4-1.8,1.1-2.5,1.8c-0.7,0.8-1.2,1.7-1.6,2.8c-0.4,1.1-0.6,2.3-0.6,3.5v15
		h-3.1V61.7H895.7z"/>
	<path class="st1" d="M940.6,90.5c-0.4,1.5-1.1,2.8-2,3.9c-0.9,1.1-2.1,1.9-3.5,2.5c-1.5,0.6-3.2,0.8-5.3,0.8
		c-1.3,0-2.6-0.2-3.8-0.5s-2.3-0.8-3.3-1.4c-1-0.6-1.8-1.4-2.4-2.4c-0.7-1-1-2.2-1.1-3.5h3.1c0.2,1,0.5,1.8,1,2.4
		c0.5,0.7,1.1,1.2,1.8,1.6c0.7,0.4,1.4,0.7,2.3,0.9c0.8,0.2,1.7,0.3,2.5,0.3c2.9,0,5.1-0.8,6.4-2.5s2-4.1,2-7.2v-3.5H938
		c-0.7,1.6-1.8,2.9-3.2,3.8c-1.4,1-3.1,1.5-5,1.5c-2.1,0-3.8-0.3-5.3-1c-1.5-0.7-2.7-1.6-3.6-2.8c-1-1.2-1.6-2.6-2.1-4.2
		c-0.4-1.6-0.6-3.3-0.6-5.2c0-1.8,0.3-3.4,0.8-5c0.5-1.6,1.3-3,2.2-4.1s2.2-2.1,3.7-2.8c1.5-0.7,3.1-1,5-1c1,0,1.9,0.1,2.7,0.4
		c0.8,0.3,1.6,0.6,2.3,1.1c0.7,0.5,1.3,1,1.9,1.7c0.5,0.6,1,1.3,1.3,2h0.1v-4.5h3.1v23.7C941.2,87.3,941,89,940.6,90.5z M933.4,83.6
		c1-0.6,1.9-1.3,2.6-2.3s1.2-2,1.6-3.3c0.3-1.2,0.5-2.5,0.5-3.8c0-1.3-0.2-2.5-0.5-3.8c-0.3-1.3-0.8-2.4-1.5-3.5
		c-0.7-1-1.5-1.9-2.6-2.5c-1-0.6-2.3-1-3.8-1s-2.8,0.3-3.8,0.9c-1.1,0.6-2,1.4-2.7,2.4c-0.7,1-1.2,2.1-1.5,3.4
		c-0.3,1.3-0.5,2.6-0.5,3.9c0,1.3,0.2,2.6,0.5,3.8c0.3,1.2,0.9,2.3,1.6,3.3c0.7,1,1.6,1.7,2.6,2.3c1.1,0.6,2.3,0.9,3.8,0.9
		C931.1,84.5,932.3,84.2,933.4,83.6z"/>
	<path class="st1" d="M438,121.7l8.5,22l7.9-22h3.1l-11.2,29.7c-0.5,1.1-0.9,2-1.3,2.7c-0.4,0.7-0.8,1.3-1.3,1.7
		c-0.5,0.4-1.1,0.7-1.7,0.9s-1.5,0.3-2.5,0.3c-0.6,0-1.1-0.1-1.5-0.1c-0.4,0-0.7-0.1-0.9-0.2v-2.7c0.4,0.1,0.7,0.1,1.1,0.2
		c0.4,0,0.7,0.1,1.1,0.1c0.7,0,1.3-0.1,1.7-0.3c0.5-0.2,0.8-0.5,1.2-0.8c0.3-0.3,0.6-0.8,0.8-1.3c0.2-0.5,0.5-1,0.8-1.7l1.1-2.9
		l-10.3-25.7H438z"/>
	<path class="st1" d="M476.9,122c1.5,0.7,2.8,1.7,3.8,3c1,1.2,1.8,2.7,2.3,4.3c0.5,1.6,0.8,3.4,0.8,5.3c0,1.9-0.3,3.6-0.8,5.3
		s-1.3,3.1-2.3,4.3c-1,1.2-2.3,2.2-3.8,2.9s-3.3,1.1-5.2,1.1c-2,0-3.7-0.4-5.2-1.1c-1.5-0.7-2.8-1.7-3.8-2.9c-1-1.2-1.8-2.7-2.4-4.3
		c-0.5-1.7-0.8-3.4-0.8-5.3c0-1.9,0.3-3.6,0.8-5.3c0.5-1.7,1.3-3.1,2.4-4.3c1-1.2,2.3-2.2,3.8-3c1.5-0.7,3.3-1.1,5.2-1.1
		C473.6,120.9,475.3,121.3,476.9,122z M467.7,124.5c-1.1,0.6-2.1,1.5-2.8,2.5c-0.8,1-1.3,2.2-1.7,3.5c-0.4,1.3-0.6,2.7-0.6,4
		c0,1.4,0.2,2.7,0.6,4c0.4,1.3,1,2.5,1.7,3.5s1.7,1.9,2.8,2.5c1.1,0.6,2.4,0.9,3.9,0.9s2.8-0.3,4-0.9c1.1-0.6,2.1-1.5,2.8-2.5
		s1.3-2.2,1.7-3.5c0.4-1.3,0.6-2.7,0.6-4c0-1.4-0.2-2.7-0.6-4c-0.4-1.3-1-2.5-1.7-3.5c-0.8-1-1.7-1.9-2.8-2.5c-1.1-0.6-2.5-1-4-1
		S468.8,123.9,467.7,124.5z"/>
	<path class="st1" d="M506.5,147.5v-4.7h-0.1c-0.8,1.7-2,3.1-3.6,4c-1.6,0.9-3.3,1.4-5.3,1.4c-1.6,0-3-0.2-4.2-0.7
		c-1.2-0.5-2.1-1.1-2.8-1.9c-0.7-0.8-1.2-1.8-1.6-3c-0.3-1.2-0.5-2.6-0.5-4.1v-16.8h3.1v16.8c0.1,2.3,0.6,4.1,1.6,5.3
		s2.8,1.8,5.3,1.8c1.4,0,2.5-0.3,3.5-0.9c1-0.6,1.8-1.4,2.4-2.3c0.6-1,1.1-2.1,1.4-3.3s0.5-2.5,0.5-3.8v-13.5h3.2v25.8H506.5z"/>
	<path class="st1" d="M518.3,121.7v6h0.1c0.8-2.1,2-3.7,3.7-4.8s3.7-1.7,6-1.6v3.2c-1.4-0.1-2.7,0.1-3.9,0.6s-2.2,1.1-3,1.9
		c-0.9,0.8-1.5,1.8-2,3c-0.5,1.2-0.7,2.4-0.7,3.8v13.8h-3.2v-25.8H518.3z"/>
	<path class="st1" d="M547.9,121.7v4.3h0.1c0.8-1.6,1.9-2.8,3.3-3.8c1.3-0.9,3.1-1.3,5.2-1.3c1.7,0,3.2,0.4,4.6,1.2
		c1.4,0.8,2.3,2.1,2.8,3.8c0.8-1.7,1.9-3,3.4-3.8s3.1-1.2,4.8-1.2c5.7,0,8.6,3,8.6,9v17.5h-3.2v-17.3c0-2.1-0.5-3.8-1.3-4.9
		c-0.9-1.1-2.5-1.7-4.8-1.7c-1.4,0-2.5,0.3-3.4,0.8c-0.9,0.5-1.6,1.2-2.2,2.1c-0.5,0.9-0.9,1.9-1.1,3c-0.2,1.1-0.3,2.3-0.3,3.5v14.6
		h-3.2V130c0-0.9-0.1-1.7-0.3-2.5s-0.5-1.5-0.9-2.1c-0.4-0.6-1-1-1.7-1.4c-0.7-0.3-1.6-0.5-2.6-0.5c-1.3,0-2.5,0.2-3.5,0.7
		c-1,0.5-1.8,1.1-2.4,2c-0.6,0.8-1.1,1.8-1.4,3c-0.3,1.1-0.4,2.4-0.4,3.8v14.4H545v-25.8H547.9z"/>
	<path class="st1" d="M602.8,122c1.5,0.7,2.8,1.7,3.8,3c1,1.2,1.8,2.7,2.3,4.3c0.5,1.6,0.8,3.4,0.8,5.3c0,1.9-0.3,3.6-0.8,5.3
		s-1.3,3.1-2.3,4.3c-1,1.2-2.3,2.2-3.8,2.9c-1.5,0.7-3.3,1.1-5.2,1.1c-2,0-3.7-0.4-5.2-1.1s-2.8-1.7-3.8-2.9s-1.8-2.7-2.3-4.3
		s-0.8-3.4-0.8-5.3c0-1.9,0.3-3.6,0.8-5.3c0.5-1.7,1.3-3.1,2.3-4.3c1-1.2,2.3-2.2,3.8-3c1.5-0.7,3.3-1.1,5.2-1.1
		C599.6,120.9,601.3,121.3,602.8,122z M593.6,124.5c-1.1,0.6-2.1,1.5-2.8,2.5c-0.8,1-1.3,2.2-1.7,3.5c-0.4,1.3-0.6,2.7-0.6,4
		c0,1.4,0.2,2.7,0.6,4c0.4,1.3,1,2.5,1.7,3.5s1.7,1.9,2.8,2.5c1.1,0.6,2.5,0.9,4,0.9s2.8-0.3,3.9-0.9s2.1-1.5,2.8-2.5
		s1.3-2.2,1.7-3.5c0.4-1.3,0.6-2.7,0.6-4c0-1.4-0.2-2.7-0.6-4c-0.4-1.3-1-2.5-1.7-3.5c-0.8-1-1.7-1.9-2.8-2.5c-1.1-0.6-2.4-1-3.9-1
		S594.8,123.9,593.6,124.5z"/>
	<path class="st1" d="M617.6,121.7v4.5h0.1c0.6-1.6,1.7-2.8,3.2-3.8c1.5-1,3.2-1.4,5-1.4c1.8,0,3.3,0.2,4.5,0.7s2.2,1.1,2.9,2
		c0.7,0.8,1.2,1.9,1.5,3.1c0.3,1.2,0.5,2.6,0.5,4.2v16.6h-3.2v-16.1c0-1.1-0.1-2.1-0.3-3.1s-0.5-1.8-1-2.5c-0.5-0.7-1.2-1.2-2-1.6
		c-0.8-0.4-1.9-0.6-3.2-0.6c-1.3,0-2.4,0.2-3.4,0.7c-1,0.4-1.8,1.1-2.5,1.8c-0.7,0.8-1.2,1.7-1.6,2.8c-0.4,1.1-0.6,2.3-0.6,3.5v15
		h-3.1v-25.8H617.6z"/>
	<path class="st1" d="M643.7,138.9c0.3,1.2,0.8,2.3,1.5,3.3c0.7,1,1.6,1.8,2.7,2.4c1.1,0.6,2.3,0.9,3.8,0.9c2.3,0,4.1-0.6,5.4-1.8
		s2.2-2.8,2.7-4.8h3.1c-0.7,2.9-1.9,5.2-3.7,6.8c-1.8,1.6-4.3,2.4-7.6,2.4c-2,0-3.8-0.4-5.3-1.1c-1.5-0.7-2.7-1.7-3.6-3
		c-0.9-1.2-1.6-2.7-2.1-4.3c-0.5-1.7-0.7-3.4-0.7-5.2c0-1.7,0.2-3.4,0.7-5c0.5-1.6,1.1-3.1,2.1-4.4c0.9-1.3,2.1-2.3,3.6-3.1
		c1.5-0.8,3.2-1.2,5.3-1.2c2.1,0,3.8,0.4,5.3,1.2c1.5,0.8,2.7,1.9,3.6,3.3c0.9,1.4,1.6,2.9,2,4.7c0.4,1.8,0.6,3.5,0.5,5.3h-19.9
		C643.2,136.6,643.3,137.7,643.7,138.9z M659.3,129.3c-0.4-1.1-0.9-2.1-1.6-2.9c-0.7-0.8-1.5-1.5-2.5-2c-1-0.5-2.1-0.8-3.4-0.8
		c-1.3,0-2.4,0.3-3.4,0.8c-1,0.5-1.9,1.2-2.6,2c-0.7,0.9-1.3,1.8-1.7,3c-0.4,1.1-0.7,2.3-0.8,3.4h16.7
		C659.9,131.6,659.6,130.4,659.3,129.3z"/>
	<path class="st1" d="M667.7,121.7l8.5,22l8-22h3.1l-11.2,29.7c-0.5,1.1-0.9,2-1.3,2.7c-0.4,0.7-0.8,1.3-1.3,1.7
		c-0.5,0.4-1,0.7-1.7,0.9c-0.7,0.2-1.5,0.3-2.5,0.3c-0.6,0-1.1-0.1-1.5-0.1c-0.4,0-0.7-0.1-0.9-0.2v-2.7c0.4,0.1,0.7,0.1,1.1,0.2
		c0.4,0,0.7,0.1,1.1,0.1c0.7,0,1.3-0.1,1.7-0.3c0.4-0.2,0.8-0.5,1.2-0.8c0.3-0.3,0.6-0.8,0.8-1.3s0.5-1,0.8-1.7l1.1-2.9l-10.3-25.7
		H667.7z"/>
	<path class="st1" d="M707.5,111.8v5h-3.2v-5H707.5z M707.5,121.7v25.8h-3.2v-25.8H707.5z"/>
	<path class="st1" d="M716.7,121.7v4.5h0.1c0.6-1.6,1.7-2.8,3.2-3.8c1.5-1,3.2-1.4,5-1.4c1.8,0,3.3,0.2,4.5,0.7s2.2,1.1,2.9,2
		c0.7,0.8,1.2,1.9,1.5,3.1c0.3,1.2,0.5,2.6,0.5,4.2v16.6h-3.2v-16.1c0-1.1-0.1-2.1-0.3-3.1s-0.5-1.8-1-2.5c-0.5-0.7-1.2-1.2-2-1.6
		c-0.8-0.4-1.9-0.6-3.2-0.6c-1.3,0-2.4,0.2-3.4,0.7c-1,0.4-1.8,1.1-2.5,1.8c-0.7,0.8-1.2,1.7-1.6,2.8c-0.4,1.1-0.6,2.3-0.6,3.5v15
		h-3.1v-25.8H716.7z"/>
	<path class="st1" d="M750.7,121.7v2.6h-5.2v17.4c0,1,0.1,1.8,0.4,2.4c0.3,0.6,1,0.9,2.1,1c0.9,0,1.8-0.1,2.7-0.2v2.7
		c-0.5,0-0.9,0-1.4,0c-0.5,0-0.9,0-1.4,0c-2.1,0-3.6-0.4-4.4-1.2s-1.2-2.3-1.2-4.5v-17.7h-4.5v-2.6h4.5v-7.8h3.2v7.8H750.7z"/>
	<path class="st1" d="M771.4,122c1.5,0.7,2.8,1.7,3.8,3c1,1.2,1.8,2.7,2.3,4.3c0.5,1.6,0.8,3.4,0.8,5.3c0,1.9-0.3,3.6-0.8,5.3
		s-1.3,3.1-2.3,4.3c-1,1.2-2.3,2.2-3.8,2.9c-1.5,0.7-3.3,1.1-5.2,1.1c-2,0-3.7-0.4-5.2-1.1s-2.8-1.7-3.8-2.9s-1.8-2.7-2.3-4.3
		s-0.8-3.4-0.8-5.3c0-1.9,0.3-3.6,0.8-5.3c0.5-1.7,1.3-3.1,2.3-4.3c1-1.2,2.3-2.2,3.8-3c1.5-0.7,3.3-1.1,5.2-1.1
		C768.1,120.9,769.8,121.3,771.4,122z M762.2,124.5c-1.1,0.6-2.1,1.5-2.8,2.5c-0.8,1-1.3,2.2-1.7,3.5c-0.4,1.3-0.6,2.7-0.6,4
		c0,1.4,0.2,2.7,0.6,4c0.4,1.3,1,2.5,1.7,3.5s1.7,1.9,2.8,2.5c1.1,0.6,2.5,0.9,4,0.9s2.8-0.3,3.9-0.9s2.1-1.5,2.8-2.5
		s1.3-2.2,1.7-3.5c0.4-1.3,0.6-2.7,0.6-4c0-1.4-0.2-2.7-0.6-4c-0.4-1.3-1-2.5-1.7-3.5c-0.8-1-1.7-1.9-2.8-2.5c-1.1-0.6-2.4-1-3.9-1
		S763.3,123.9,762.2,124.5z"/>
	<path class="st1" d="M811.8,126.7c-0.4-0.7-0.9-1.3-1.5-1.8c-0.6-0.5-1.3-0.8-2.1-1c-0.8-0.2-1.7-0.3-2.5-0.3
		c-0.7,0-1.4,0.1-2.1,0.2c-0.7,0.1-1.4,0.4-2,0.8c-0.6,0.3-1.1,0.8-1.4,1.4c-0.4,0.6-0.6,1.3-0.6,2.1c0,0.7,0.2,1.3,0.5,1.8
		s0.8,0.9,1.3,1.2c0.5,0.3,1.1,0.6,1.8,0.8c0.6,0.2,1.2,0.4,1.8,0.5l4.2,0.9c0.9,0.1,1.8,0.4,2.7,0.7c0.9,0.3,1.7,0.8,2.3,1.4
		c0.7,0.6,1.2,1.3,1.7,2.1c0.4,0.8,0.7,1.8,0.7,3c0,1.4-0.3,2.6-1,3.6c-0.6,1-1.4,1.8-2.4,2.4c-1,0.6-2.1,1.1-3.3,1.3
		s-2.5,0.4-3.6,0.4c-3,0-5.5-0.7-7.4-2.2c-1.9-1.4-3-3.7-3.2-6.9h3.2c0.1,2.1,0.9,3.7,2.3,4.8c1.4,1.1,3.2,1.6,5.3,1.6
		c0.8,0,1.6-0.1,2.4-0.2c0.8-0.2,1.6-0.4,2.3-0.8s1.3-0.9,1.7-1.5c0.5-0.6,0.7-1.4,0.7-2.3c0-0.8-0.2-1.4-0.5-1.9
		c-0.3-0.5-0.7-1-1.3-1.3c-0.5-0.3-1.1-0.6-1.8-0.9c-0.7-0.2-1.4-0.4-2.1-0.6l-4-0.9c-1-0.3-2-0.6-2.9-0.9c-0.9-0.3-1.6-0.8-2.3-1.3
		c-0.7-0.5-1.2-1.2-1.5-1.9c-0.4-0.8-0.5-1.7-0.5-2.8c0-1.3,0.3-2.4,0.9-3.4c0.6-0.9,1.3-1.7,2.3-2.2c0.9-0.6,2-1,3.1-1.2
		c1.2-0.3,2.3-0.4,3.4-0.4c1.3,0,2.5,0.2,3.6,0.5c1.1,0.3,2.1,0.8,2.9,1.5c0.9,0.7,1.5,1.6,2,2.6c0.5,1,0.8,2.2,0.8,3.7h-3.1
		C812.4,128.3,812.2,127.4,811.8,126.7z"/>
	<path class="st1" d="M831.2,121.7v2.6H826v17.4c0,1,0.1,1.8,0.4,2.4c0.3,0.6,1,0.9,2.1,1c0.9,0,1.8-0.1,2.7-0.2v2.7
		c-0.5,0-0.9,0-1.4,0c-0.5,0-0.9,0-1.4,0c-2.1,0-3.6-0.4-4.4-1.2s-1.2-2.3-1.2-4.5v-17.7h-4.5v-2.6h4.5v-7.8h3.2v7.8H831.2z"/>
	<path class="st1" d="M851.9,122c1.5,0.7,2.8,1.7,3.8,3c1,1.2,1.8,2.7,2.3,4.3c0.5,1.6,0.8,3.4,0.8,5.3c0,1.9-0.3,3.6-0.8,5.3
		s-1.3,3.1-2.3,4.3c-1,1.2-2.3,2.2-3.8,2.9c-1.5,0.7-3.3,1.1-5.2,1.1c-2,0-3.7-0.4-5.2-1.1s-2.8-1.7-3.8-2.9s-1.8-2.7-2.3-4.3
		s-0.8-3.4-0.8-5.3c0-1.9,0.3-3.6,0.8-5.3c0.5-1.7,1.3-3.1,2.3-4.3c1-1.2,2.3-2.2,3.8-3c1.5-0.7,3.3-1.1,5.2-1.1
		C848.7,120.9,850.4,121.3,851.9,122z M842.7,124.5c-1.1,0.6-2.1,1.5-2.8,2.5c-0.8,1-1.3,2.2-1.7,3.5c-0.4,1.3-0.6,2.7-0.6,4
		c0,1.4,0.2,2.7,0.6,4c0.4,1.3,1,2.5,1.7,3.5s1.7,1.9,2.8,2.5c1.1,0.6,2.5,0.9,4,0.9s2.8-0.3,3.9-0.9s2.1-1.5,2.8-2.5
		s1.3-2.2,1.7-3.5c0.4-1.3,0.6-2.7,0.6-4c0-1.4-0.2-2.7-0.6-4c-0.4-1.3-1-2.5-1.7-3.5c-0.8-1-1.7-1.9-2.8-2.5c-1.1-0.6-2.4-1-3.9-1
		S843.9,123.9,842.7,124.5z"/>
	<path class="st1" d="M879.4,125.2c-1.2-1.1-2.8-1.7-4.9-1.7c-1.5,0-2.8,0.3-4,1c-1.1,0.6-2.1,1.5-2.8,2.5c-0.8,1-1.3,2.2-1.7,3.5
		c-0.4,1.3-0.6,2.7-0.6,4c0,1.4,0.2,2.7,0.6,4c0.4,1.3,1,2.5,1.7,3.5s1.7,1.9,2.8,2.5c1.1,0.6,2.5,0.9,4,0.9c1,0,1.9-0.2,2.8-0.5
		c0.9-0.4,1.6-0.9,2.3-1.5c0.7-0.7,1.2-1.4,1.6-2.3c0.4-0.9,0.7-1.9,0.8-3h3.1c-0.4,3.1-1.6,5.6-3.5,7.3s-4.3,2.6-7.2,2.6
		c-2,0-3.7-0.4-5.2-1.1s-2.8-1.7-3.8-2.9s-1.8-2.7-2.3-4.3s-0.8-3.4-0.8-5.3c0-1.9,0.3-3.6,0.8-5.3c0.5-1.7,1.3-3.1,2.3-4.3
		c1-1.2,2.3-2.2,3.8-3c1.5-0.7,3.3-1.1,5.2-1.1c2.8,0,5.1,0.7,7,2.2s3.1,3.7,3.4,6.6h-3.1C881.3,127.8,880.5,126.3,879.4,125.2z"/>
	<path class="st1" d="M892.7,111.8v22.4l14.3-12.5h4.2l-11,9.5l11.8,16.2h-4l-10.2-14l-5.1,4.2v9.8h-3.2v-35.7H892.7z"/>
	<path class="st1" d="M929.4,126.7c-0.4-0.7-0.9-1.3-1.5-1.8c-0.6-0.5-1.3-0.8-2.1-1c-0.8-0.2-1.7-0.3-2.5-0.3
		c-0.7,0-1.4,0.1-2.1,0.2c-0.7,0.1-1.4,0.4-2,0.8c-0.6,0.3-1.1,0.8-1.4,1.4c-0.4,0.6-0.6,1.3-0.6,2.1c0,0.7,0.2,1.3,0.5,1.8
		s0.8,0.9,1.3,1.2c0.5,0.3,1.1,0.6,1.8,0.8c0.6,0.2,1.2,0.4,1.8,0.5l4.2,0.9c0.9,0.1,1.8,0.4,2.7,0.7c0.9,0.3,1.7,0.8,2.3,1.4
		c0.7,0.6,1.2,1.3,1.7,2.1c0.4,0.8,0.7,1.8,0.7,3c0,1.4-0.3,2.6-1,3.6c-0.6,1-1.4,1.8-2.4,2.4c-1,0.6-2.1,1.1-3.3,1.3
		s-2.5,0.4-3.6,0.4c-3,0-5.5-0.7-7.4-2.2c-1.9-1.4-3-3.7-3.2-6.9h3.2c0.1,2.1,0.9,3.7,2.3,4.8c1.4,1.1,3.2,1.6,5.3,1.6
		c0.8,0,1.6-0.1,2.4-0.2c0.8-0.2,1.6-0.4,2.3-0.8s1.3-0.9,1.7-1.5c0.5-0.6,0.7-1.4,0.7-2.3c0-0.8-0.2-1.4-0.5-1.9
		c-0.3-0.5-0.7-1-1.3-1.3c-0.5-0.3-1.1-0.6-1.8-0.9c-0.7-0.2-1.4-0.4-2.1-0.6l-4-0.9c-1-0.3-2-0.6-2.9-0.9c-0.9-0.3-1.6-0.8-2.3-1.3
		c-0.7-0.5-1.2-1.2-1.5-1.9c-0.4-0.8-0.5-1.7-0.5-2.8c0-1.3,0.3-2.4,0.9-3.4c0.6-0.9,1.3-1.7,2.3-2.2c0.9-0.6,2-1,3.1-1.2
		c1.2-0.3,2.3-0.4,3.4-0.4c1.3,0,2.5,0.2,3.6,0.5c1.1,0.3,2.1,0.8,2.9,1.5c0.9,0.7,1.5,1.6,2,2.6c0.5,1,0.8,2.2,0.8,3.7H930
		C930,128.3,929.8,127.4,929.4,126.7z"/>
	<path class="st1" d="M944.6,147.5c0,0.7-0.1,1.5-0.3,2.2c-0.2,0.7-0.5,1.4-0.8,2c-0.4,0.6-0.8,1.2-1.4,1.6s-1.2,0.8-1.9,1v-2.1
		c0.4-0.1,0.8-0.4,1-0.8c0.3-0.4,0.5-0.8,0.8-1.2s0.3-0.9,0.4-1.4c0.1-0.5,0.1-0.9,0.1-1.3h-2.1v-5.3h4.2V147.5z"/>
	<path class="st1" d="M584.7,171.8v14.8h0.1c0.3-0.9,0.8-1.8,1.4-2.4c0.6-0.7,1.3-1.3,2.1-1.8c0.8-0.5,1.7-0.8,2.6-1.1
		c0.9-0.2,1.9-0.3,2.8-0.3c2,0,3.7,0.4,5.1,1.1c1.5,0.7,2.7,1.7,3.6,3c1,1.2,1.7,2.7,2.1,4.3s0.7,3.4,0.7,5.2c0,1.8-0.2,3.6-0.7,5.2
		c-0.5,1.6-1.2,3.1-2.1,4.3c-1,1.2-2.2,2.2-3.6,3s-3.2,1.1-5.1,1.1c-2.1,0-4-0.5-5.6-1.5c-1.7-1-2.8-2.3-3.6-4.2h-0.1v4.9h-2.9
		v-35.7H584.7z M601.8,190.6c-0.3-1.3-0.8-2.5-1.5-3.5c-0.7-1-1.6-1.9-2.6-2.5c-1.1-0.7-2.3-1-3.8-1c-1.7,0-3.1,0.3-4.2,1
		c-1.1,0.6-2.1,1.5-2.8,2.5c-0.7,1-1.2,2.2-1.5,3.5c-0.3,1.3-0.5,2.6-0.5,4c0,1.3,0.2,2.7,0.5,4c0.3,1.3,0.8,2.5,1.5,3.5
		c0.7,1,1.7,1.9,2.8,2.5c1.2,0.7,2.6,1,4.2,1c1.5,0,2.8-0.3,3.8-1c1.1-0.7,1.9-1.5,2.6-2.5c0.7-1,1.2-2.2,1.5-3.5
		c0.3-1.3,0.5-2.6,0.5-4C602.2,193.2,602.1,191.9,601.8,190.6z"/>
	<path class="st1" d="M626.4,182c1.5,0.7,2.8,1.7,3.8,3c1,1.2,1.8,2.7,2.3,4.3c0.5,1.6,0.8,3.4,0.8,5.3c0,1.9-0.3,3.6-0.8,5.3
		s-1.3,3.1-2.3,4.3c-1,1.2-2.3,2.2-3.8,2.9c-1.5,0.7-3.3,1.1-5.2,1.1c-2,0-3.7-0.4-5.2-1.1s-2.8-1.7-3.8-2.9s-1.8-2.7-2.3-4.3
		s-0.8-3.4-0.8-5.3c0-1.9,0.3-3.6,0.8-5.3c0.5-1.7,1.3-3.1,2.3-4.3c1-1.2,2.3-2.2,3.8-3c1.5-0.7,3.3-1.1,5.2-1.1
		C623.2,180.9,624.9,181.3,626.4,182z M617.2,184.5c-1.1,0.6-2.1,1.5-2.8,2.5c-0.8,1-1.3,2.2-1.7,3.5c-0.4,1.3-0.6,2.7-0.6,4
		c0,1.4,0.2,2.7,0.6,4c0.4,1.3,1,2.5,1.7,3.5s1.7,1.9,2.8,2.5c1.1,0.6,2.5,0.9,4,0.9s2.8-0.3,3.9-0.9s2.1-1.5,2.8-2.5
		s1.3-2.2,1.7-3.5c0.4-1.3,0.6-2.7,0.6-4c0-1.4-0.2-2.7-0.6-4c-0.4-1.3-1-2.5-1.7-3.5c-0.8-1-1.7-1.9-2.8-2.5c-1.1-0.6-2.4-1-3.9-1
		S618.4,183.9,617.2,184.5z"/>
	<path class="st1" d="M641.2,181.7v4.5h0.1c0.6-1.6,1.7-2.8,3.2-3.8c1.5-1,3.2-1.4,5-1.4c1.8,0,3.3,0.2,4.5,0.7s2.2,1.1,2.9,2
		c0.7,0.8,1.2,1.9,1.5,3.1c0.3,1.2,0.5,2.6,0.5,4.2v16.6h-3.2v-16.1c0-1.1-0.1-2.1-0.3-3.1s-0.5-1.8-1-2.5c-0.5-0.7-1.2-1.2-2-1.6
		c-0.8-0.4-1.9-0.6-3.2-0.6c-1.3,0-2.4,0.2-3.4,0.7c-1,0.4-1.8,1.1-2.5,1.8c-0.7,0.8-1.2,1.7-1.6,2.8c-0.4,1.1-0.6,2.3-0.6,3.5v15
		H638v-25.8H641.2z"/>
	<path class="st1" d="M684.7,207.5v-4.9h-0.1c-0.3,0.8-0.8,1.6-1.5,2.3c-0.6,0.7-1.4,1.3-2.2,1.8c-0.8,0.5-1.7,0.9-2.7,1.1
		s-1.9,0.4-2.8,0.4c-2,0-3.7-0.4-5.1-1.1s-2.7-1.7-3.6-3s-1.7-2.7-2.2-4.3c-0.5-1.7-0.7-3.4-0.7-5.2c0-1.8,0.2-3.6,0.7-5.2
		s1.2-3.1,2.2-4.3s2.2-2.2,3.6-3c1.5-0.7,3.2-1.1,5.1-1.1c1,0,1.9,0.1,2.8,0.3c0.9,0.2,1.8,0.6,2.6,1.1c0.8,0.5,1.5,1.1,2.1,1.8
		c0.6,0.7,1.1,1.5,1.4,2.4h0.1v-14.8h3.2v35.7H684.7z M667.5,198.5c0.3,1.3,0.8,2.5,1.5,3.5c0.7,1,1.6,1.9,2.6,2.5
		c1.1,0.7,2.3,1,3.8,1c1.7,0,3.1-0.3,4.2-1c1.2-0.7,2.1-1.5,2.8-2.5c0.7-1,1.2-2.2,1.5-3.5c0.3-1.3,0.5-2.6,0.5-4
		c0-1.3-0.2-2.7-0.5-4c-0.3-1.3-0.8-2.5-1.5-3.5c-0.7-1-1.7-1.9-2.8-2.5c-1.1-0.7-2.6-1-4.2-1c-1.5,0-2.8,0.3-3.8,1
		c-1.1,0.6-1.9,1.5-2.6,2.5c-0.7,1-1.2,2.2-1.5,3.5c-0.3,1.3-0.5,2.6-0.5,4C667,195.9,667.1,197.2,667.5,198.5z"/>
	<path class="st1" d="M708.5,186.7c-0.4-0.7-0.9-1.3-1.5-1.8c-0.6-0.5-1.3-0.8-2.1-1c-0.8-0.2-1.7-0.3-2.5-0.3
		c-0.7,0-1.4,0.1-2.1,0.2c-0.7,0.1-1.4,0.4-2,0.8c-0.6,0.3-1.1,0.8-1.4,1.4c-0.4,0.6-0.6,1.3-0.6,2.1c0,0.7,0.2,1.3,0.5,1.8
		s0.8,0.9,1.3,1.2c0.5,0.3,1.1,0.6,1.8,0.8c0.6,0.2,1.2,0.4,1.8,0.5l4.2,0.9c0.9,0.1,1.8,0.4,2.7,0.7c0.9,0.3,1.7,0.8,2.3,1.4
		c0.7,0.6,1.2,1.3,1.7,2.1c0.4,0.8,0.7,1.8,0.7,3c0,1.4-0.3,2.6-1,3.6c-0.6,1-1.4,1.8-2.4,2.4c-1,0.6-2.1,1.1-3.3,1.3
		s-2.5,0.4-3.6,0.4c-3,0-5.5-0.7-7.4-2.2c-1.9-1.4-3-3.7-3.2-6.9h3.2c0.1,2.1,0.9,3.7,2.3,4.8c1.4,1.1,3.2,1.6,5.3,1.6
		c0.8,0,1.6-0.1,2.4-0.2c0.8-0.2,1.6-0.4,2.3-0.8s1.3-0.9,1.7-1.5c0.5-0.6,0.7-1.4,0.7-2.3c0-0.8-0.2-1.4-0.5-1.9
		c-0.3-0.5-0.7-1-1.3-1.3c-0.5-0.3-1.1-0.6-1.8-0.9c-0.7-0.2-1.4-0.4-2.1-0.6l-4-0.9c-1-0.3-2-0.6-2.9-0.9c-0.9-0.3-1.6-0.8-2.3-1.3
		c-0.7-0.5-1.2-1.2-1.5-1.9c-0.4-0.8-0.5-1.7-0.5-2.8c0-1.3,0.3-2.4,0.9-3.4c0.6-0.9,1.3-1.7,2.3-2.2c0.9-0.6,2-1,3.1-1.2
		c1.2-0.3,2.3-0.4,3.4-0.4c1.3,0,2.5,0.2,3.6,0.5c1.1,0.3,2.1,0.8,2.9,1.5c0.9,0.7,1.5,1.6,2,2.6c0.5,1,0.8,2.2,0.8,3.7h-3.1
		C709.1,188.3,708.9,187.4,708.5,186.7z"/>
	<path class="st1" d="M732.2,185.7c0.5-1.1,1.3-2,2.2-2.7c0.9-0.7,2-1.2,3.2-1.5s2.6-0.5,4.1-0.5c1.1,0,2.3,0.1,3.4,0.3
		c1.1,0.2,2.2,0.6,3,1.2c0.9,0.6,1.6,1.4,2.2,2.5c0.6,1.1,0.9,2.5,0.9,4.2v13.7c0,1.3,0.6,1.9,1.8,1.9c0.4,0,0.7-0.1,1-0.2v2.6
		c-0.4,0.1-0.7,0.1-1,0.2c-0.3,0-0.6,0-1.1,0c-0.8,0-1.4-0.1-1.9-0.3c-0.5-0.2-0.9-0.5-1.1-0.9c-0.3-0.4-0.4-0.9-0.5-1.4
		c-0.1-0.5-0.1-1.2-0.1-1.8h-0.1c-0.6,0.8-1.1,1.6-1.7,2.2c-0.6,0.7-1.2,1.2-2,1.6c-0.7,0.4-1.5,0.8-2.4,1c-0.9,0.2-2,0.4-3.3,0.4
		c-1.2,0-2.3-0.1-3.4-0.4c-1-0.3-2-0.7-2.8-1.4c-0.8-0.6-1.4-1.4-1.8-2.3c-0.5-1-0.7-2.1-0.7-3.4c0-1.8,0.4-3.2,1.2-4.2
		c0.8-1,1.9-1.8,3.2-2.3s2.8-0.9,4.5-1.1c1.7-0.2,3.3-0.4,5-0.6c0.7-0.1,1.2-0.2,1.8-0.2c0.5-0.1,0.9-0.3,1.2-0.5
		c0.3-0.2,0.6-0.6,0.8-1c0.2-0.4,0.3-1,0.3-1.7c0-1.1-0.2-1.9-0.5-2.6c-0.3-0.7-0.8-1.2-1.4-1.6c-0.6-0.4-1.3-0.7-2.2-0.8
		c-0.8-0.2-1.7-0.2-2.6-0.2c-2,0-3.6,0.5-4.9,1.4c-1.3,0.9-1.9,2.5-2,4.6h-3.1C731.4,188.1,731.7,186.8,732.2,185.7z M748,193.4
		c-0.2,0.4-0.6,0.6-1.2,0.8c-0.6,0.2-1.1,0.3-1.5,0.3c-1.3,0.2-2.7,0.4-4.1,0.6c-1.4,0.2-2.7,0.5-3.9,0.8c-1.2,0.4-2.1,0.9-2.9,1.6
		c-0.8,0.7-1.1,1.7-1.1,2.9c0,0.8,0.2,1.5,0.5,2.1c0.3,0.6,0.7,1.2,1.3,1.6c0.5,0.5,1.2,0.8,1.8,1c0.7,0.2,1.4,0.3,2.2,0.3
		c1.2,0,2.3-0.2,3.5-0.5c1.1-0.4,2.1-0.9,2.9-1.6c0.8-0.7,1.5-1.5,2-2.5c0.5-1,0.7-2.1,0.7-3.4L748,193.4L748,193.4z"/>
	<path class="st1" d="M760.6,181.7v4.5h0.1c0.6-1.6,1.7-2.8,3.2-3.8c1.5-1,3.2-1.4,5-1.4c1.8,0,3.3,0.2,4.5,0.7s2.2,1.1,2.9,2
		c0.7,0.8,1.2,1.9,1.5,3.1c0.3,1.2,0.5,2.6,0.5,4.2v16.6h-3.2v-16.1c0-1.1-0.1-2.1-0.3-3.1s-0.5-1.8-1-2.5c-0.5-0.7-1.2-1.2-2-1.6
		c-0.8-0.4-1.9-0.6-3.2-0.6c-1.3,0-2.4,0.2-3.4,0.7c-1,0.4-1.8,1.1-2.5,1.8c-0.7,0.8-1.2,1.7-1.6,2.8c-0.4,1.1-0.6,2.3-0.6,3.5v15
		h-3.1v-25.8H760.6z"/>
	<path class="st1" d="M804.2,207.5v-4.9h-0.1c-0.3,0.8-0.8,1.6-1.5,2.3c-0.6,0.7-1.4,1.3-2.2,1.8c-0.8,0.5-1.7,0.9-2.7,1.1
		s-1.9,0.4-2.8,0.4c-2,0-3.7-0.4-5.1-1.1s-2.7-1.7-3.6-3s-1.7-2.7-2.2-4.3c-0.5-1.7-0.7-3.4-0.7-5.2c0-1.8,0.2-3.6,0.7-5.2
		s1.2-3.1,2.2-4.3s2.2-2.2,3.6-3c1.5-0.7,3.2-1.1,5.1-1.1c1,0,1.9,0.1,2.8,0.3c0.9,0.2,1.8,0.6,2.6,1.1c0.8,0.5,1.5,1.1,2.1,1.8
		c0.6,0.7,1.1,1.5,1.4,2.4h0.1v-14.8h3.2v35.7H804.2z M786.9,198.5c0.3,1.3,0.8,2.5,1.5,3.5c0.7,1,1.6,1.9,2.6,2.5
		c1.1,0.7,2.3,1,3.8,1c1.7,0,3.1-0.3,4.2-1c1.2-0.7,2.1-1.5,2.8-2.5c0.7-1,1.2-2.2,1.5-3.5c0.3-1.3,0.5-2.6,0.5-4
		c0-1.3-0.2-2.7-0.5-4c-0.3-1.3-0.8-2.5-1.5-3.5c-0.7-1-1.7-1.9-2.8-2.5c-1.1-0.7-2.6-1-4.2-1c-1.5,0-2.8,0.3-3.8,1
		c-1.1,0.6-1.9,1.5-2.6,2.5c-0.7,1-1.2,2.2-1.5,3.5c-0.3,1.3-0.5,2.6-0.5,4C786.4,195.9,786.6,197.2,786.9,198.5z"/>
	<path class="st1" d="M843.1,182c1.5,0.7,2.8,1.7,3.8,3c1,1.2,1.8,2.7,2.3,4.3c0.5,1.6,0.8,3.4,0.8,5.3c0,1.9-0.3,3.6-0.8,5.3
		s-1.3,3.1-2.3,4.3c-1,1.2-2.3,2.2-3.8,2.9c-1.5,0.7-3.3,1.1-5.2,1.1c-2,0-3.7-0.4-5.2-1.1s-2.8-1.7-3.8-2.9s-1.8-2.7-2.3-4.3
		s-0.8-3.4-0.8-5.3c0-1.9,0.3-3.6,0.8-5.3c0.5-1.7,1.3-3.1,2.3-4.3c1-1.2,2.3-2.2,3.8-3c1.5-0.7,3.3-1.1,5.2-1.1
		C839.9,180.9,841.6,181.3,843.1,182z M833.9,184.5c-1.1,0.6-2.1,1.5-2.8,2.5c-0.8,1-1.3,2.2-1.7,3.5c-0.4,1.3-0.6,2.7-0.6,4
		c0,1.4,0.2,2.7,0.6,4c0.4,1.3,1,2.5,1.7,3.5s1.7,1.9,2.8,2.5c1.1,0.6,2.5,0.9,4,0.9s2.8-0.3,3.9-0.9s2.1-1.5,2.8-2.5
		s1.3-2.2,1.7-3.5c0.4-1.3,0.6-2.7,0.6-4c0-1.4-0.2-2.7-0.6-4c-0.4-1.3-1-2.5-1.7-3.5c-0.8-1-1.7-1.9-2.8-2.5c-1.1-0.6-2.4-1-3.9-1
		S835.1,183.9,833.9,184.5z"/>
	<path class="st1" d="M865,181.7v2.6h-5.2v17.4c0,1,0.1,1.8,0.4,2.4c0.3,0.6,1,0.9,2.1,1c0.9,0,1.8-0.1,2.7-0.2v2.7
		c-0.5,0-0.9,0-1.4,0c-0.5,0-0.9,0-1.4,0c-2.1,0-3.6-0.4-4.4-1.2s-1.2-2.3-1.2-4.5v-17.7h-4.5v-2.6h4.5v-7.8h3.2v7.8H865z"/>
	<path class="st1" d="M872.7,171.8v14.4h0.1c0.6-1.6,1.7-2.8,3.2-3.8c1.5-1,3.2-1.4,5-1.4c1.8,0,3.3,0.2,4.5,0.7s2.2,1.1,2.9,2
		c0.7,0.8,1.2,1.9,1.5,3.1c0.3,1.2,0.5,2.6,0.5,4.2v16.6h-3.2v-16.1c0-1.1-0.1-2.1-0.3-3.1s-0.5-1.8-1-2.5c-0.5-0.7-1.2-1.2-2-1.6
		c-0.8-0.4-1.9-0.6-3.2-0.6c-1.3,0-2.4,0.2-3.4,0.7c-1,0.4-1.8,1.1-2.5,1.8c-0.7,0.8-1.2,1.7-1.6,2.8c-0.4,1.1-0.6,2.3-0.6,3.5v15
		h-3.1v-35.7H872.7z"/>
	<path class="st1" d="M898.8,198.9c0.3,1.2,0.8,2.3,1.5,3.3c0.7,1,1.6,1.8,2.7,2.4c1.1,0.6,2.3,0.9,3.8,0.9c2.3,0,4.1-0.6,5.4-1.8
		s2.2-2.8,2.7-4.8h3.1c-0.7,2.9-1.9,5.2-3.7,6.8c-1.8,1.6-4.3,2.4-7.6,2.4c-2,0-3.8-0.4-5.3-1.1c-1.5-0.7-2.7-1.7-3.6-3
		c-0.9-1.2-1.6-2.7-2.1-4.3c-0.5-1.7-0.7-3.4-0.7-5.2c0-1.7,0.2-3.4,0.7-5c0.5-1.6,1.1-3.1,2.1-4.4c0.9-1.3,2.1-2.3,3.6-3.1
		c1.5-0.8,3.2-1.2,5.3-1.2c2.1,0,3.8,0.4,5.3,1.2c1.5,0.8,2.7,1.9,3.6,3.3c0.9,1.4,1.6,2.9,2,4.7c0.4,1.8,0.6,3.5,0.5,5.3h-19.9
		C898.3,196.6,898.4,197.7,898.8,198.9z M914.4,189.3c-0.4-1.1-0.9-2.1-1.6-2.9c-0.7-0.8-1.5-1.5-2.5-2c-1-0.5-2.1-0.8-3.4-0.8
		c-1.3,0-2.4,0.3-3.4,0.8c-1,0.5-1.9,1.2-2.6,2c-0.7,0.9-1.3,1.8-1.7,3c-0.4,1.1-0.7,2.3-0.8,3.4H915
		C915,191.6,914.7,190.4,914.4,189.3z"/>
	<path class="st1" d="M925.3,181.7v6h0.1c0.8-2.1,2-3.7,3.7-4.8s3.7-1.7,6-1.6v3.2c-1.4-0.1-2.7,0.1-3.9,0.6s-2.2,1.1-3,1.9
		c-0.9,0.8-1.5,1.8-2,3c-0.5,1.2-0.7,2.4-0.7,3.8v13.8h-3.2v-25.8H925.3z"/>
	<path class="st1" d="M591.8,241.7v2.6h-5.2v17.4c0,1,0.1,1.8,0.4,2.4c0.3,0.6,1,0.9,2.1,1c0.9,0,1.8-0.1,2.7-0.2v2.7
		c-0.5,0-0.9,0-1.4,0c-0.5,0-0.9,0-1.4,0c-2.1,0-3.6-0.4-4.4-1.2s-1.2-2.3-1.2-4.5v-17.7h-4.5v-2.6h4.5v-7.8h3.2v7.8H591.8z"/>
	<path class="st1" d="M599.5,231.8v14.4h0.1c0.6-1.6,1.7-2.8,3.2-3.8c1.5-1,3.2-1.4,5-1.4c1.8,0,3.3,0.2,4.5,0.7s2.2,1.1,2.9,2
		c0.7,0.8,1.2,1.9,1.5,3.1c0.3,1.2,0.5,2.6,0.5,4.2v16.6h-3.2v-16.1c0-1.1-0.1-2.1-0.3-3.1s-0.5-1.8-1-2.5c-0.5-0.7-1.2-1.2-2-1.6
		c-0.8-0.4-1.9-0.6-3.2-0.6c-1.3,0-2.4,0.2-3.4,0.7c-1,0.4-1.8,1.1-2.5,1.8c-0.7,0.8-1.2,1.7-1.6,2.8c-0.4,1.1-0.6,2.3-0.6,3.5v15
		h-3.1v-35.7H599.5z"/>
	<path class="st1" d="M626.4,231.8v5h-3.2v-5H626.4z M626.4,241.7v25.8h-3.2v-25.8H626.4z"/>
	<path class="st1" d="M635.6,241.7v4.5h0.1c0.6-1.6,1.7-2.8,3.2-3.8c1.5-1,3.2-1.4,5-1.4c1.8,0,3.3,0.2,4.5,0.7s2.2,1.1,2.9,2
		c0.7,0.8,1.2,1.9,1.5,3.1c0.3,1.2,0.5,2.6,0.5,4.2v16.6h-3.2v-16.1c0-1.1-0.1-2.1-0.3-3.1s-0.5-1.8-1-2.5c-0.5-0.7-1.2-1.2-2-1.6
		c-0.8-0.4-1.9-0.6-3.2-0.6c-1.3,0-2.4,0.2-3.4,0.7c-1,0.4-1.8,1.1-2.5,1.8c-0.7,0.8-1.2,1.7-1.6,2.8c-0.4,1.1-0.6,2.3-0.6,3.5v15
		h-3.1v-25.8H635.6z"/>
	<path class="st1" d="M680.5,270.5c-0.4,1.5-1.1,2.8-2,3.9c-0.9,1.1-2.1,1.9-3.5,2.5c-1.5,0.6-3.2,0.8-5.3,0.8
		c-1.3,0-2.6-0.2-3.8-0.5s-2.3-0.8-3.3-1.4c-1-0.6-1.8-1.4-2.4-2.4c-0.7-1-1-2.2-1.1-3.5h3.1c0.2,1,0.5,1.8,1,2.4
		c0.5,0.7,1.1,1.2,1.8,1.6c0.7,0.4,1.4,0.7,2.3,0.9c0.8,0.2,1.7,0.3,2.5,0.3c2.9,0,5.1-0.8,6.4-2.5s2-4.1,2-7.2v-3.5h-0.1
		c-0.7,1.6-1.8,2.9-3.2,3.8c-1.4,1-3.1,1.5-5,1.5c-2.1,0-3.8-0.3-5.3-1c-1.5-0.7-2.7-1.6-3.6-2.8c-1-1.2-1.6-2.6-2.1-4.2
		c-0.4-1.6-0.6-3.3-0.6-5.2c0-1.8,0.3-3.4,0.8-5c0.5-1.6,1.3-3,2.2-4.1s2.2-2.1,3.7-2.8c1.5-0.7,3.1-1,5-1c1,0,1.9,0.1,2.7,0.4
		c0.8,0.3,1.6,0.6,2.3,1.1c0.7,0.5,1.3,1,1.9,1.7c0.5,0.6,1,1.3,1.3,2h0.1v-4.5h3.1v23.7C681.1,267.3,680.9,269,680.5,270.5z
		 M673.3,263.6c1-0.6,1.9-1.3,2.6-2.3s1.2-2,1.6-3.3c0.3-1.2,0.5-2.5,0.5-3.8c0-1.3-0.2-2.5-0.5-3.8c-0.3-1.3-0.8-2.4-1.5-3.5
		c-0.7-1-1.5-1.9-2.6-2.5c-1-0.6-2.3-1-3.8-1s-2.8,0.3-3.8,0.9c-1.1,0.6-2,1.4-2.7,2.4c-0.7,1-1.2,2.1-1.5,3.4
		c-0.3,1.3-0.5,2.6-0.5,3.9c0,1.3,0.2,2.6,0.5,3.8c0.3,1.2,0.9,2.3,1.6,3.3c0.7,1,1.6,1.7,2.6,2.3c1.1,0.6,2.3,0.9,3.8,0.9
		C671.1,264.5,672.3,264.2,673.3,263.6z"/>
	<path class="st1" d="M702,246.7c-0.4-0.7-0.9-1.3-1.5-1.8c-0.6-0.5-1.3-0.8-2.1-1c-0.8-0.2-1.7-0.3-2.5-0.3c-0.7,0-1.4,0.1-2.1,0.2
		c-0.7,0.1-1.4,0.4-2,0.8c-0.6,0.3-1.1,0.8-1.4,1.4c-0.4,0.6-0.6,1.3-0.6,2.1c0,0.7,0.2,1.3,0.5,1.8s0.8,0.9,1.3,1.2
		c0.5,0.3,1.1,0.6,1.8,0.8c0.6,0.2,1.2,0.4,1.8,0.5l4.2,0.9c0.9,0.1,1.8,0.4,2.7,0.7c0.9,0.3,1.7,0.8,2.3,1.4
		c0.7,0.6,1.2,1.3,1.7,2.1c0.4,0.8,0.7,1.8,0.7,3c0,1.4-0.3,2.6-1,3.6c-0.6,1-1.4,1.8-2.4,2.4c-1,0.6-2.1,1.1-3.3,1.3
		s-2.5,0.4-3.6,0.4c-3,0-5.5-0.7-7.4-2.2c-1.9-1.4-3-3.7-3.2-6.9h3.2c0.1,2.1,0.9,3.7,2.3,4.8c1.4,1.1,3.2,1.6,5.3,1.6
		c0.8,0,1.6-0.1,2.4-0.2c0.8-0.2,1.6-0.4,2.3-0.8s1.3-0.9,1.7-1.5c0.5-0.6,0.7-1.4,0.7-2.3c0-0.8-0.2-1.4-0.5-1.9
		c-0.3-0.5-0.7-1-1.3-1.3c-0.5-0.3-1.1-0.6-1.8-0.9c-0.7-0.2-1.4-0.4-2.1-0.6l-4-0.9c-1-0.3-2-0.6-2.9-0.9c-0.9-0.3-1.6-0.8-2.3-1.3
		c-0.7-0.5-1.2-1.2-1.5-1.9c-0.4-0.8-0.5-1.7-0.5-2.8c0-1.3,0.3-2.4,0.9-3.4c0.6-0.9,1.3-1.7,2.3-2.2c0.9-0.6,2-1,3.1-1.2
		c1.2-0.3,2.3-0.4,3.4-0.4c1.3,0,2.5,0.2,3.6,0.5c1.1,0.3,2.1,0.8,2.9,1.5c0.9,0.7,1.5,1.6,2,2.6c0.5,1,0.8,2.2,0.8,3.7h-3.1
		C702.6,248.3,702.4,247.4,702,246.7z"/>
	<path class="st1" d="M725.8,241.7l6.6,22.1h0.1l6.3-22.1h3.5l6.3,22.1h0.1l6.6-22.1h3.4l-8.3,25.8H747l-6.4-21.7h-0.1l-6.3,21.7
		h-3.5l-8.3-25.8H725.8z"/>
	<path class="st1" d="M765.3,231.8v5h-3.2v-5H765.3z M765.3,241.7v25.8h-3.2v-25.8H765.3z"/>
	<path class="st1" d="M781.6,241.7v2.6h-5.2v17.4c0,1,0.1,1.8,0.4,2.4c0.3,0.6,1,0.9,2.1,1c0.9,0,1.8-0.1,2.7-0.2v2.7
		c-0.5,0-0.9,0-1.4,0c-0.5,0-0.9,0-1.4,0c-2.1,0-3.6-0.4-4.4-1.2s-1.2-2.3-1.2-4.5v-17.7h-4.5v-2.6h4.5v-7.8h3.2v7.8H781.6z"/>
	<path class="st1" d="M789.3,231.8v14.4h0.1c0.6-1.6,1.7-2.8,3.2-3.8c1.5-1,3.2-1.4,5-1.4c1.8,0,3.3,0.2,4.5,0.7s2.2,1.1,2.9,2
		c0.7,0.8,1.2,1.9,1.5,3.1c0.3,1.2,0.5,2.6,0.5,4.2v16.6h-3.2v-16.1c0-1.1-0.1-2.1-0.3-3.1s-0.5-1.8-1-2.5c-0.5-0.7-1.2-1.2-2-1.6
		c-0.8-0.4-1.9-0.6-3.2-0.6c-1.3,0-2.4,0.2-3.4,0.7c-1,0.4-1.8,1.1-2.5,1.8c-0.7,0.8-1.2,1.7-1.6,2.8c-0.4,1.1-0.6,2.3-0.6,3.5v15
		h-3.1v-35.7H789.3z"/>
	<path class="st1" d="M831.8,244.3v23.2h-3.1v-23.2h-4.4v-2.6h4.4v-2.4c0-1.1,0.1-2.1,0.2-3c0.2-0.9,0.5-1.7,1-2.4
		c0.5-0.7,1.1-1.2,1.9-1.6c0.8-0.4,1.9-0.5,3.1-0.5c0.5,0,0.9,0,1.3,0c0.4,0,0.8,0.1,1.3,0.2v2.7c-0.4-0.1-0.8-0.1-1.2-0.2
		c-0.4-0.1-0.7-0.1-1.1-0.1c-0.9,0-1.5,0.1-2,0.4c-0.5,0.3-0.8,0.6-1,1.1c-0.2,0.5-0.3,1-0.4,1.6c0,0.6-0.1,1.2-0.1,2v2.2h5.1v2.6
		H831.8z"/>
	<path class="st1" d="M840.5,245.7c0.5-1.1,1.3-2,2.2-2.7c0.9-0.7,2-1.2,3.2-1.5s2.6-0.5,4.1-0.5c1.1,0,2.3,0.1,3.4,0.3
		c1.1,0.2,2.2,0.6,3,1.2c0.9,0.6,1.6,1.4,2.2,2.5c0.6,1.1,0.9,2.5,0.9,4.2v13.7c0,1.3,0.6,1.9,1.8,1.9c0.4,0,0.7-0.1,1-0.2v2.6
		c-0.4,0.1-0.7,0.1-1,0.2c-0.3,0-0.6,0-1.1,0c-0.8,0-1.4-0.1-1.9-0.3c-0.5-0.2-0.9-0.5-1.1-0.9c-0.3-0.4-0.4-0.9-0.5-1.4
		c-0.1-0.5-0.1-1.2-0.1-1.8h-0.1c-0.6,0.8-1.1,1.6-1.7,2.2c-0.6,0.7-1.2,1.2-2,1.6c-0.7,0.4-1.5,0.8-2.4,1c-0.9,0.2-2,0.4-3.3,0.4
		c-1.2,0-2.3-0.1-3.4-0.4c-1-0.3-2-0.7-2.8-1.4c-0.8-0.6-1.4-1.4-1.8-2.3c-0.5-1-0.7-2.1-0.7-3.4c0-1.8,0.4-3.2,1.2-4.2
		c0.8-1,1.9-1.8,3.2-2.3s2.8-0.9,4.5-1.1c1.7-0.2,3.3-0.4,5-0.6c0.7-0.1,1.2-0.2,1.8-0.2c0.5-0.1,0.9-0.3,1.2-0.5
		c0.3-0.2,0.6-0.6,0.8-1c0.2-0.4,0.3-1,0.3-1.7c0-1.1-0.2-1.9-0.5-2.6c-0.3-0.7-0.8-1.2-1.4-1.6c-0.6-0.4-1.3-0.7-2.2-0.8
		c-0.8-0.2-1.7-0.2-2.6-0.2c-2,0-3.6,0.5-4.9,1.4c-1.3,0.9-1.9,2.5-2,4.6h-3.1C839.7,248.1,840,246.8,840.5,245.7z M856.3,253.4
		c-0.2,0.4-0.6,0.6-1.2,0.8c-0.6,0.2-1.1,0.3-1.5,0.3c-1.3,0.2-2.7,0.4-4.1,0.6c-1.4,0.2-2.7,0.5-3.9,0.8c-1.2,0.4-2.1,0.9-2.9,1.6
		c-0.8,0.7-1.1,1.7-1.1,2.9c0,0.8,0.2,1.5,0.5,2.1c0.3,0.6,0.7,1.2,1.3,1.6c0.5,0.5,1.2,0.8,1.8,1c0.7,0.2,1.4,0.3,2.2,0.3
		c1.2,0,2.3-0.2,3.5-0.5c1.1-0.4,2.1-0.9,2.9-1.6c0.8-0.7,1.5-1.5,2-2.5c0.5-1,0.7-2.1,0.7-3.4L856.3,253.4L856.3,253.4z"/>
	<path class="st1" d="M868.9,241.7v4.5h0.1c0.6-1.6,1.7-2.8,3.2-3.8c1.5-1,3.2-1.4,5-1.4c1.8,0,3.3,0.2,4.5,0.7s2.2,1.1,2.9,2
		c0.7,0.8,1.2,1.9,1.5,3.1c0.3,1.2,0.5,2.6,0.5,4.2v16.6h-3.2v-16.1c0-1.1-0.1-2.1-0.3-3.1s-0.5-1.8-1-2.5c-0.5-0.7-1.2-1.2-2-1.6
		c-0.8-0.4-1.9-0.6-3.2-0.6c-1.3,0-2.4,0.2-3.4,0.7c-1,0.4-1.8,1.1-2.5,1.8c-0.7,0.8-1.2,1.7-1.6,2.8c-0.4,1.1-0.6,2.3-0.6,3.5v15
		h-3.1v-25.8H868.9z"/>
	<path class="st1" d="M908.5,245.2c-1.2-1.1-2.8-1.7-4.9-1.7c-1.5,0-2.8,0.3-4,1c-1.1,0.6-2.1,1.5-2.8,2.5c-0.8,1-1.3,2.2-1.7,3.5
		c-0.4,1.3-0.6,2.7-0.6,4c0,1.4,0.2,2.7,0.6,4c0.4,1.3,1,2.5,1.7,3.5s1.7,1.9,2.8,2.5c1.1,0.6,2.5,0.9,4,0.9c1,0,1.9-0.2,2.8-0.5
		c0.9-0.4,1.6-0.9,2.3-1.5c0.7-0.7,1.2-1.4,1.6-2.3c0.4-0.9,0.7-1.9,0.8-3h3.1c-0.4,3.1-1.6,5.6-3.5,7.3s-4.3,2.6-7.2,2.6
		c-2,0-3.7-0.4-5.2-1.1s-2.8-1.7-3.8-2.9s-1.8-2.7-2.3-4.3s-0.8-3.4-0.8-5.3c0-1.9,0.3-3.6,0.8-5.3c0.5-1.7,1.3-3.1,2.3-4.3
		c1-1.2,2.3-2.2,3.8-3c1.5-0.7,3.3-1.1,5.2-1.1c2.8,0,5.1,0.7,7,2.2s3.1,3.7,3.4,6.6h-3.1C910.4,247.8,909.6,246.3,908.5,245.2z"/>
	<path class="st1" d="M919.1,241.7l8.5,22l8-22h3.1l-11.2,29.7c-0.5,1.1-0.9,2-1.3,2.7c-0.4,0.7-0.8,1.3-1.3,1.7
		c-0.5,0.4-1,0.7-1.7,0.9c-0.7,0.2-1.5,0.3-2.5,0.3c-0.6,0-1.1-0.1-1.5-0.1c-0.4,0-0.7-0.1-0.9-0.2v-2.7c0.4,0.1,0.7,0.1,1.1,0.2
		c0.4,0,0.7,0.1,1.1,0.1c0.7,0,1.3-0.1,1.7-0.3c0.4-0.2,0.8-0.5,1.2-0.8c0.3-0.3,0.6-0.8,0.8-1.3s0.5-1,0.8-1.7l1.1-2.9l-10.3-25.7
		H919.1z"/>
	<path class="st1" d="M591.8,301.7v2.6h-5.2v17.4c0,1,0.1,1.8,0.4,2.4c0.3,0.6,1,0.9,2.1,1c0.9,0,1.8-0.1,2.7-0.2v2.7
		c-0.5,0-0.9,0-1.4,0c-0.5,0-0.9,0-1.4,0c-2.1,0-3.6-0.4-4.4-1.2s-1.2-2.3-1.2-4.5v-17.7h-4.5v-2.6h4.5v-7.8h3.2v7.8H591.8z"/>
	<path class="st1" d="M599.6,291.8v5h-3.2v-5H599.6z M599.6,301.7v25.8h-3.2v-25.8H599.6z"/>
	<path class="st1" d="M615.9,301.7v2.6h-5.2v17.4c0,1,0.1,1.8,0.4,2.4c0.3,0.6,1,0.9,2.1,1c0.9,0,1.8-0.1,2.7-0.2v2.7
		c-0.5,0-0.9,0-1.4,0c-0.5,0-0.9,0-1.4,0c-2.1,0-3.6-0.4-4.4-1.2s-1.2-2.3-1.2-4.5v-17.7H603v-2.6h4.5v-7.8h3.2v7.8H615.9z"/>
	<path class="st1" d="M623.6,291.8v35.7h-3.2v-35.7H623.6z"/>
	<path class="st1" d="M632,318.9c0.3,1.2,0.8,2.3,1.5,3.3c0.7,1,1.6,1.8,2.7,2.4c1.1,0.6,2.3,0.9,3.8,0.9c2.3,0,4.1-0.6,5.4-1.8
		s2.2-2.8,2.7-4.8h3.1c-0.7,2.9-1.9,5.2-3.7,6.8c-1.8,1.6-4.3,2.4-7.6,2.4c-2,0-3.8-0.4-5.3-1.1c-1.5-0.7-2.7-1.7-3.6-3
		c-0.9-1.2-1.6-2.7-2.1-4.3c-0.5-1.7-0.7-3.4-0.7-5.2c0-1.7,0.2-3.4,0.7-5c0.5-1.6,1.1-3.1,2.1-4.4c0.9-1.3,2.1-2.3,3.6-3.1
		c1.5-0.8,3.2-1.2,5.3-1.2c2.1,0,3.8,0.4,5.3,1.2c1.5,0.8,2.7,1.9,3.6,3.3c0.9,1.4,1.6,2.9,2,4.7c0.4,1.8,0.6,3.5,0.5,5.3h-19.9
		C631.5,316.6,631.7,317.7,632,318.9z M647.6,309.3c-0.4-1.1-0.9-2.1-1.6-2.9c-0.7-0.8-1.5-1.5-2.5-2c-1-0.5-2.1-0.8-3.4-0.8
		c-1.3,0-2.4,0.3-3.4,0.8c-1,0.5-1.9,1.2-2.6,2c-0.7,0.9-1.3,1.8-1.7,3c-0.4,1.1-0.7,2.3-0.8,3.4h16.7
		C648.2,311.6,648,310.4,647.6,309.3z"/>
	<path class="st1" d="M670.5,306.7c-0.4-0.7-0.9-1.3-1.5-1.8c-0.6-0.5-1.3-0.8-2.1-1c-0.8-0.2-1.7-0.3-2.5-0.3
		c-0.7,0-1.4,0.1-2.1,0.2c-0.7,0.1-1.4,0.4-2,0.8c-0.6,0.3-1.1,0.8-1.4,1.4c-0.4,0.6-0.6,1.3-0.6,2.1c0,0.7,0.2,1.3,0.5,1.8
		s0.8,0.9,1.3,1.2c0.5,0.3,1.1,0.6,1.8,0.8c0.6,0.2,1.2,0.4,1.8,0.5l4.2,0.9c0.9,0.1,1.8,0.4,2.7,0.7c0.9,0.3,1.7,0.8,2.3,1.4
		c0.7,0.6,1.2,1.3,1.7,2.1c0.4,0.8,0.7,1.8,0.7,3c0,1.4-0.3,2.6-1,3.6c-0.6,1-1.4,1.8-2.4,2.4c-1,0.6-2.1,1.1-3.3,1.3
		s-2.5,0.4-3.6,0.4c-3,0-5.5-0.7-7.4-2.2c-1.9-1.4-3-3.7-3.2-6.9h3.2c0.1,2.1,0.9,3.7,2.3,4.8c1.4,1.1,3.2,1.6,5.3,1.6
		c0.8,0,1.6-0.1,2.4-0.2c0.8-0.2,1.6-0.4,2.3-0.8s1.3-0.9,1.7-1.5c0.5-0.6,0.7-1.4,0.7-2.3c0-0.8-0.2-1.4-0.5-1.9
		c-0.3-0.5-0.7-1-1.3-1.3c-0.5-0.3-1.1-0.6-1.8-0.9c-0.7-0.2-1.4-0.4-2.1-0.6l-4-0.9c-1-0.3-2-0.6-2.9-0.9c-0.9-0.3-1.6-0.8-2.3-1.3
		c-0.7-0.5-1.2-1.2-1.5-1.9c-0.4-0.8-0.5-1.7-0.5-2.8c0-1.3,0.3-2.4,0.9-3.4c0.6-0.9,1.3-1.7,2.3-2.2c0.9-0.6,2-1,3.1-1.2
		c1.2-0.3,2.3-0.4,3.4-0.4c1.3,0,2.5,0.2,3.6,0.5c1.1,0.3,2.1,0.8,2.9,1.5c0.9,0.7,1.5,1.6,2,2.6c0.5,1,0.8,2.2,0.8,3.7h-3.1
		C671.1,308.3,670.9,307.4,670.5,306.7z"/>
	<path class="st1" d="M685.7,327.5c0,0.7-0.1,1.5-0.3,2.2c-0.2,0.7-0.5,1.4-0.8,2c-0.4,0.6-0.8,1.2-1.4,1.6s-1.2,0.8-1.9,1v-2.1
		c0.4-0.1,0.8-0.4,1-0.8c0.3-0.4,0.5-0.8,0.8-1.2s0.3-0.9,0.4-1.4c0.1-0.5,0.1-0.9,0.1-1.3h-2.1v-5.3h4.2V327.5z"/>
	<path class="st1" d="M710.6,291.8v14.4h0.1c0.6-1.6,1.7-2.8,3.2-3.8c1.5-1,3.2-1.4,5-1.4c1.8,0,3.3,0.2,4.5,0.7s2.2,1.1,2.9,2
		c0.7,0.8,1.2,1.9,1.5,3.1c0.3,1.2,0.5,2.6,0.5,4.2v16.6h-3.2v-16.1c0-1.1-0.1-2.1-0.3-3.1s-0.5-1.8-1-2.5c-0.5-0.7-1.2-1.2-2-1.6
		c-0.8-0.4-1.9-0.6-3.2-0.6c-1.3,0-2.4,0.2-3.4,0.7c-1,0.4-1.8,1.1-2.5,1.8c-0.7,0.8-1.2,1.7-1.6,2.8c-0.4,1.1-0.6,2.3-0.6,3.5v15
		h-3.1v-35.7H710.6z"/>
	<path class="st1" d="M750.5,302c1.5,0.7,2.8,1.7,3.8,3c1,1.2,1.8,2.7,2.3,4.3c0.5,1.6,0.8,3.4,0.8,5.3c0,1.9-0.3,3.6-0.8,5.3
		s-1.3,3.1-2.3,4.3c-1,1.2-2.3,2.2-3.8,2.9c-1.5,0.7-3.3,1.1-5.2,1.1c-2,0-3.7-0.4-5.2-1.1s-2.8-1.7-3.8-2.9s-1.8-2.7-2.3-4.3
		s-0.8-3.4-0.8-5.3c0-1.9,0.3-3.6,0.8-5.3c0.5-1.7,1.3-3.1,2.3-4.3c1-1.2,2.3-2.2,3.8-3c1.5-0.7,3.3-1.1,5.2-1.1
		C747.2,300.9,748.9,301.3,750.5,302z M741.3,304.5c-1.1,0.6-2.1,1.5-2.8,2.5c-0.8,1-1.3,2.2-1.7,3.5c-0.4,1.3-0.6,2.7-0.6,4
		c0,1.4,0.2,2.7,0.6,4c0.4,1.3,1,2.5,1.7,3.5s1.7,1.9,2.8,2.5c1.1,0.6,2.5,0.9,4,0.9s2.8-0.3,3.9-0.9s2.1-1.5,2.8-2.5
		s1.3-2.2,1.7-3.5c0.4-1.3,0.6-2.7,0.6-4c0-1.4-0.2-2.7-0.6-4c-0.4-1.3-1-2.5-1.7-3.5c-0.8-1-1.7-1.9-2.8-2.5c-1.1-0.6-2.4-1-3.9-1
		S742.4,303.9,741.3,304.5z"/>
	<path class="st1" d="M765,301.7v4.9h0.1c0.7-1.8,1.9-3.2,3.6-4.2c1.6-1,3.5-1.5,5.6-1.5c2,0,3.7,0.4,5.1,1.1c1.5,0.7,2.7,1.7,3.6,3
		c1,1.2,1.7,2.7,2.1,4.3s0.7,3.4,0.7,5.2c0,1.8-0.2,3.6-0.7,5.2c-0.5,1.6-1.2,3.1-2.1,4.3c-1,1.2-2.2,2.2-3.6,3s-3.2,1.1-5.1,1.1
		c-0.9,0-1.9-0.1-2.8-0.4c-0.9-0.2-1.8-0.6-2.6-1c-0.8-0.5-1.5-1-2.1-1.8c-0.6-0.7-1.1-1.5-1.4-2.5h-0.1V337h-3.2v-35.3H765z
		 M782.3,310.6c-0.3-1.3-0.8-2.5-1.5-3.5c-0.7-1-1.6-1.9-2.6-2.5c-1.1-0.7-2.3-1-3.8-1c-1.7,0-3.2,0.3-4.4,0.9s-2.1,1.4-2.8,2.4
		s-1.2,2.2-1.5,3.5c-0.3,1.3-0.4,2.7-0.4,4.2c0,1.3,0.2,2.7,0.5,4c0.3,1.3,0.8,2.5,1.5,3.5c0.7,1,1.7,1.9,2.8,2.5
		c1.2,0.7,2.6,1,4.2,1c1.5,0,2.8-0.3,3.8-1c1.1-0.7,1.9-1.5,2.6-2.5c0.7-1,1.2-2.2,1.5-3.5c0.3-1.3,0.5-2.6,0.5-4
		C782.8,313.2,782.6,311.9,782.3,310.6z"/>
	<path class="st1" d="M794,291.8v5h-3.2v-5H794z M794,301.7v25.8h-3.2v-25.8H794z"/>
	<path class="st1" d="M803.2,301.7v4.5h0.1c0.6-1.6,1.7-2.8,3.2-3.8c1.5-1,3.2-1.4,5-1.4c1.8,0,3.3,0.2,4.5,0.7s2.2,1.1,2.9,2
		c0.7,0.8,1.2,1.9,1.5,3.1c0.3,1.2,0.5,2.6,0.5,4.2v16.6h-3.2v-16.1c0-1.1-0.1-2.1-0.3-3.1s-0.5-1.8-1-2.5c-0.5-0.7-1.2-1.2-2-1.6
		c-0.8-0.4-1.9-0.6-3.2-0.6c-1.3,0-2.4,0.2-3.4,0.7c-1,0.4-1.8,1.1-2.5,1.8c-0.7,0.8-1.2,1.7-1.6,2.8c-0.4,1.1-0.6,2.3-0.6,3.5v15
		H800v-25.8H803.2z"/>
	<path class="st1" d="M848.1,330.5c-0.4,1.5-1.1,2.8-2,3.9c-0.9,1.1-2.1,1.9-3.5,2.5c-1.5,0.6-3.2,0.8-5.3,0.8
		c-1.3,0-2.6-0.2-3.8-0.5s-2.3-0.8-3.3-1.4c-1-0.6-1.8-1.4-2.4-2.4c-0.7-1-1-2.2-1.1-3.5h3.1c0.2,1,0.5,1.8,1,2.4
		c0.5,0.7,1.1,1.2,1.8,1.6c0.7,0.4,1.4,0.7,2.3,0.9c0.8,0.2,1.7,0.3,2.5,0.3c2.9,0,5.1-0.8,6.4-2.5s2-4.1,2-7.2v-3.5h-0.1
		c-0.7,1.6-1.8,2.9-3.2,3.8c-1.4,1-3.1,1.5-5,1.5c-2.1,0-3.8-0.3-5.3-1c-1.5-0.7-2.7-1.6-3.6-2.8c-1-1.2-1.6-2.6-2.1-4.2
		c-0.4-1.6-0.6-3.3-0.6-5.2c0-1.8,0.3-3.4,0.8-5c0.5-1.6,1.3-3,2.2-4.1s2.2-2.1,3.7-2.8c1.5-0.7,3.1-1,5-1c1,0,1.9,0.1,2.7,0.4
		c0.8,0.3,1.6,0.6,2.3,1.1c0.7,0.5,1.3,1,1.9,1.7c0.5,0.6,1,1.3,1.3,2h0.1v-4.5h3.1v23.7C848.7,327.3,848.5,329,848.1,330.5z
		 M840.9,323.6c1-0.6,1.9-1.3,2.6-2.3s1.2-2,1.6-3.3c0.3-1.2,0.5-2.5,0.5-3.8c0-1.3-0.2-2.5-0.5-3.8c-0.3-1.3-0.8-2.4-1.5-3.5
		c-0.7-1-1.5-1.9-2.6-2.5c-1-0.6-2.3-1-3.8-1s-2.8,0.3-3.8,0.9c-1.1,0.6-2,1.4-2.7,2.4c-0.7,1-1.2,2.1-1.5,3.4
		c-0.3,1.3-0.5,2.6-0.5,3.9c0,1.3,0.2,2.6,0.5,3.8c0.3,1.2,0.9,2.3,1.6,3.3c0.7,1,1.6,1.7,2.6,2.3c1.1,0.6,2.3,0.9,3.8,0.9
		C838.7,324.5,839.9,324.2,840.9,323.6z"/>
	<path class="st1" d="M878.9,301.7v2.6h-5.2v17.4c0,1,0.1,1.8,0.4,2.4c0.3,0.6,1,0.9,2.1,1c0.9,0,1.8-0.1,2.7-0.2v2.7
		c-0.5,0-0.9,0-1.4,0c-0.5,0-0.9,0-1.4,0c-2.1,0-3.6-0.4-4.4-1.2s-1.2-2.3-1.2-4.5v-17.7H866v-2.6h4.5v-7.8h3.2v7.8H878.9z"/>
	<path class="st1" d="M886.5,291.8v14.4h0.1c0.6-1.6,1.7-2.8,3.2-3.8c1.5-1,3.2-1.4,5-1.4c1.8,0,3.3,0.2,4.5,0.7s2.2,1.1,2.9,2
		c0.7,0.8,1.2,1.9,1.5,3.1c0.3,1.2,0.5,2.6,0.5,4.2v16.6h-3.2v-16.1c0-1.1-0.1-2.1-0.3-3.1s-0.5-1.8-1-2.5c-0.5-0.7-1.2-1.2-2-1.6
		c-0.8-0.4-1.9-0.6-3.2-0.6c-1.3,0-2.4,0.2-3.4,0.7c-1,0.4-1.8,1.1-2.5,1.8c-0.7,0.8-1.2,1.7-1.6,2.8c-0.4,1.1-0.6,2.3-0.6,3.5v15
		h-3.1v-35.7H886.5z"/>
	<path class="st1" d="M910.9,305.7c0.5-1.1,1.3-2,2.2-2.7c0.9-0.7,2-1.2,3.2-1.5s2.6-0.5,4.1-0.5c1.1,0,2.3,0.1,3.4,0.3
		c1.1,0.2,2.2,0.6,3,1.2c0.9,0.6,1.6,1.4,2.2,2.5c0.6,1.1,0.9,2.5,0.9,4.2v13.7c0,1.3,0.6,1.9,1.8,1.9c0.4,0,0.7-0.1,1-0.2v2.6
		c-0.4,0.1-0.7,0.1-1,0.2c-0.3,0-0.6,0-1.1,0c-0.8,0-1.4-0.1-1.9-0.3c-0.5-0.2-0.9-0.5-1.1-0.9c-0.3-0.4-0.4-0.9-0.5-1.4
		c-0.1-0.5-0.1-1.2-0.1-1.8h-0.1c-0.6,0.8-1.1,1.6-1.7,2.2c-0.6,0.7-1.2,1.2-2,1.6c-0.7,0.4-1.5,0.8-2.4,1c-0.9,0.2-2,0.4-3.3,0.4
		c-1.2,0-2.3-0.1-3.4-0.4c-1-0.3-2-0.7-2.8-1.4c-0.8-0.6-1.4-1.4-1.8-2.3c-0.5-1-0.7-2.1-0.7-3.4c0-1.8,0.4-3.2,1.2-4.2
		c0.8-1,1.9-1.8,3.2-2.3s2.8-0.9,4.5-1.1c1.7-0.2,3.3-0.4,5-0.6c0.7-0.1,1.2-0.2,1.8-0.2c0.5-0.1,0.9-0.3,1.2-0.5
		c0.3-0.2,0.6-0.6,0.8-1c0.2-0.4,0.3-1,0.3-1.7c0-1.1-0.2-1.9-0.5-2.6c-0.3-0.7-0.8-1.2-1.4-1.6c-0.6-0.4-1.3-0.7-2.2-0.8
		c-0.8-0.2-1.7-0.2-2.6-0.2c-2,0-3.6,0.5-4.9,1.4c-1.3,0.9-1.9,2.5-2,4.6H910C910.1,308.1,910.4,306.8,910.9,305.7z M926.7,313.4
		c-0.2,0.4-0.6,0.6-1.2,0.8c-0.6,0.2-1.1,0.3-1.5,0.3c-1.3,0.2-2.7,0.4-4.1,0.6c-1.4,0.2-2.7,0.5-3.9,0.8c-1.2,0.4-2.1,0.9-2.9,1.6
		c-0.8,0.7-1.1,1.7-1.1,2.9c0,0.8,0.2,1.5,0.5,2.1c0.3,0.6,0.7,1.2,1.3,1.6c0.5,0.5,1.2,0.8,1.8,1c0.7,0.2,1.4,0.3,2.2,0.3
		c1.2,0,2.3-0.2,3.5-0.5c1.1-0.4,2.1-0.9,2.9-1.6c0.8-0.7,1.5-1.5,2-2.5c0.5-1,0.7-2.1,0.7-3.4L926.7,313.4L926.7,313.4z"/>
	<path class="st1" d="M946.5,301.7v2.6h-5.2v17.4c0,1,0.1,1.8,0.4,2.4c0.3,0.6,1,0.9,2.1,1c0.9,0,1.8-0.1,2.7-0.2v2.7
		c-0.5,0-0.9,0-1.4,0c-0.5,0-0.9,0-1.4,0c-2.1,0-3.6-0.4-4.4-1.2s-1.2-2.3-1.2-4.5v-17.7h-4.5v-2.6h4.5v-7.8h3.2v7.8H946.5z"/>
	<path class="st1" d="M591.8,361.7v2.6h-5.2v17.4c0,1,0.1,1.8,0.4,2.4c0.3,0.6,1,0.9,2.1,1c0.9,0,1.8-0.1,2.7-0.1v2.6
		c-0.5,0-0.9,0-1.4,0c-0.5,0-0.9,0-1.4,0c-2.1,0-3.6-0.4-4.4-1.2s-1.2-2.3-1.2-4.5v-17.7h-4.5v-2.6h4.5v-7.8h3.2v7.8H591.8z"/>
	<path class="st1" d="M599.5,351.8v14.4h0.1c0.6-1.6,1.7-2.8,3.2-3.8c1.5-1,3.2-1.4,5-1.4c1.8,0,3.3,0.2,4.5,0.7s2.2,1.1,2.9,2
		c0.7,0.8,1.2,1.9,1.5,3.1c0.3,1.2,0.5,2.6,0.5,4.2v16.6h-3.2v-16.1c0-1.1-0.1-2.1-0.3-3.1s-0.5-1.8-1-2.5c-0.5-0.7-1.2-1.2-2-1.6
		c-0.8-0.4-1.9-0.6-3.2-0.6c-1.3,0-2.4,0.2-3.4,0.7c-1,0.4-1.8,1.1-2.5,1.8c-0.7,0.8-1.2,1.7-1.6,2.8c-0.4,1.1-0.6,2.3-0.6,3.5v15
		h-3.1v-35.7H599.5z"/>
	<path class="st1" d="M625.6,378.9c0.3,1.2,0.8,2.3,1.5,3.3c0.7,1,1.6,1.8,2.7,2.4c1.1,0.6,2.3,0.9,3.8,0.9c2.3,0,4.1-0.6,5.4-1.8
		s2.2-2.8,2.7-4.8h3.1c-0.7,2.9-1.9,5.2-3.7,6.8c-1.8,1.6-4.3,2.4-7.6,2.4c-2,0-3.8-0.4-5.3-1.1c-1.5-0.7-2.7-1.7-3.6-2.9
		c-0.9-1.2-1.6-2.7-2.1-4.3c-0.5-1.7-0.7-3.4-0.7-5.2c0-1.7,0.2-3.4,0.7-5c0.5-1.6,1.1-3.1,2.1-4.4c0.9-1.3,2.1-2.3,3.6-3.1
		c1.5-0.8,3.2-1.2,5.3-1.2c2.1,0,3.8,0.4,5.3,1.2c1.5,0.8,2.7,1.9,3.6,3.3c0.9,1.4,1.6,2.9,2,4.7c0.4,1.8,0.6,3.5,0.5,5.3h-19.9
		C625.1,376.6,625.2,377.7,625.6,378.9z M641.2,369.3c-0.4-1.1-0.9-2.1-1.6-2.9c-0.7-0.8-1.5-1.5-2.5-2c-1-0.5-2.1-0.8-3.4-0.8
		c-1.3,0-2.4,0.3-3.4,0.8c-1,0.5-1.9,1.2-2.6,2c-0.7,0.9-1.3,1.8-1.7,3c-0.4,1.1-0.7,2.3-0.8,3.4h16.7
		C641.8,371.6,641.5,370.4,641.2,369.3z"/>
	<path class="st1" d="M649.6,361.7l8.5,22l8-22h3.1L658,391.4c-0.5,1.1-0.9,2-1.3,2.7c-0.4,0.7-0.8,1.3-1.3,1.7
		c-0.5,0.4-1,0.7-1.7,0.9c-0.7,0.2-1.5,0.3-2.5,0.3c-0.6,0-1.1-0.1-1.5-0.1c-0.4,0-0.7-0.1-0.9-0.2v-2.7c0.4,0.1,0.7,0.1,1.1,0.2
		c0.4,0,0.7,0.1,1.1,0.1c0.7,0,1.3-0.1,1.7-0.3c0.4-0.2,0.8-0.5,1.2-0.8c0.3-0.3,0.6-0.8,0.8-1.3s0.5-1,0.8-1.7l1.1-2.9l-10.3-25.7
		H649.6z"/>
	<path class="st1" d="M687,361.7l6.6,22.1h0.1l6.3-22.1h3.5l6.3,22.1h0.1l6.6-22.1h3.4l-8.3,25.8h-3.4l-6.4-21.7h-0.1l-6.3,21.7
		h-3.5l-8.3-25.8H687z"/>
	<path class="st1" d="M726.5,351.8v5h-3.2v-5H726.5z M726.5,361.7v25.8h-3.2v-25.8H726.5z"/>
	<path class="st1" d="M735.7,351.8v35.7h-3.2v-35.7H735.7z"/>
	<path class="st1" d="M745,351.8v35.7h-3.2v-35.7H745z"/>
	<path class="st1" d="M786.1,390.5c-0.4,1.5-1.1,2.8-2,3.9c-0.9,1.1-2.1,1.9-3.5,2.5c-1.5,0.6-3.2,0.8-5.3,0.8
		c-1.3,0-2.6-0.2-3.8-0.5s-2.3-0.8-3.3-1.4c-1-0.6-1.8-1.4-2.4-2.4c-0.7-1-1-2.2-1.1-3.5h3.1c0.2,1,0.5,1.8,1,2.4
		c0.5,0.7,1.1,1.2,1.8,1.6c0.7,0.4,1.4,0.7,2.3,0.9c0.8,0.2,1.7,0.3,2.5,0.3c2.9,0,5.1-0.8,6.4-2.5s2-4.1,2-7.2v-3.5h-0.1
		c-0.7,1.6-1.8,2.9-3.2,3.8c-1.4,1-3.1,1.5-5,1.5c-2.1,0-3.8-0.3-5.3-1c-1.5-0.7-2.7-1.6-3.6-2.8c-1-1.2-1.6-2.6-2.1-4.2
		c-0.4-1.6-0.6-3.3-0.6-5.2c0-1.8,0.3-3.4,0.8-5c0.5-1.6,1.3-3,2.2-4.1s2.2-2.1,3.7-2.8c1.5-0.7,3.1-1,5-1c1,0,1.9,0.1,2.7,0.4
		c0.8,0.3,1.6,0.6,2.3,1.1c0.7,0.5,1.3,1,1.9,1.7c0.5,0.6,1,1.3,1.3,2h0.1v-4.5h3.1v23.7C786.7,387.3,786.5,389,786.1,390.5z
		 M778.9,383.6c1-0.6,1.9-1.3,2.6-2.3s1.2-2,1.6-3.3c0.3-1.2,0.5-2.5,0.5-3.8c0-1.3-0.2-2.5-0.5-3.8c-0.3-1.3-0.8-2.4-1.5-3.5
		c-0.7-1-1.5-1.9-2.6-2.5c-1-0.6-2.3-1-3.8-1s-2.8,0.3-3.8,0.9c-1.1,0.6-2,1.4-2.7,2.4c-0.7,1-1.2,2.1-1.5,3.4
		c-0.3,1.3-0.5,2.6-0.5,3.9c0,1.3,0.2,2.6,0.5,3.8c0.3,1.2,0.9,2.3,1.6,3.3c0.7,1,1.6,1.7,2.6,2.3c1.1,0.6,2.3,0.9,3.8,0.9
		C776.7,384.5,777.9,384.2,778.9,383.6z"/>
	<path class="st1" d="M795.6,361.7v6h0.1c0.8-2.1,2-3.7,3.7-4.8s3.7-1.7,6-1.6v3.2c-1.4-0.1-2.7,0.1-3.9,0.6s-2.2,1.1-3,1.9
		c-0.9,0.8-1.5,1.8-2,3c-0.5,1.2-0.7,2.4-0.7,3.8v13.7h-3.2v-25.8H795.6z"/>
	<path class="st1" d="M823.7,362c1.5,0.7,2.8,1.7,3.8,3c1,1.2,1.8,2.7,2.3,4.3c0.5,1.6,0.8,3.4,0.8,5.3c0,1.9-0.3,3.6-0.8,5.3
		s-1.3,3.1-2.3,4.3c-1,1.2-2.3,2.2-3.8,2.9c-1.5,0.7-3.3,1.1-5.2,1.1c-2,0-3.7-0.4-5.2-1.1s-2.8-1.7-3.8-2.9c-1-1.2-1.8-2.7-2.3-4.3
		s-0.8-3.4-0.8-5.3c0-1.9,0.3-3.6,0.8-5.3c0.5-1.7,1.3-3.1,2.3-4.3c1-1.2,2.3-2.2,3.8-3c1.5-0.7,3.3-1.1,5.2-1.1
		C820.5,360.9,822.2,361.3,823.7,362z M814.5,364.5c-1.1,0.6-2.1,1.5-2.8,2.5c-0.8,1-1.3,2.2-1.7,3.5c-0.4,1.3-0.6,2.7-0.6,4
		c0,1.4,0.2,2.7,0.6,4c0.4,1.3,1,2.5,1.7,3.5s1.7,1.9,2.8,2.5c1.1,0.6,2.5,0.9,4,0.9s2.8-0.3,3.9-0.9c1.1-0.6,2.1-1.5,2.8-2.5
		s1.3-2.2,1.7-3.5c0.4-1.3,0.6-2.7,0.6-4c0-1.4-0.2-2.7-0.6-4c-0.4-1.3-1-2.5-1.7-3.5c-0.8-1-1.7-1.9-2.8-2.5c-1.1-0.6-2.4-1-3.9-1
		S815.7,363.9,814.5,364.5z"/>
	<path class="st1" d="M836.1,361.7l6.6,22.1h0.1l6.3-22.1h3.5l6.3,22.1h0.1l6.6-22.1h3.4l-8.3,25.8h-3.4l-6.4-21.7h-0.1l-6.3,21.7
		h-3.5l-8.3-25.8H836.1z"/>
	<path class="st1" d="M871.5,382.2h4.2v5.3h-4.2V382.2z"/>
</g>
<g>
	<ellipse class="st2" cx="420.1" cy="724.5" rx="376.8" ry="20.3"/>
	<path class="st3" d="M120.4,615.2c0,0,7.2-1.4,16.2,0c8.9,1.4,25,1.5,32.6,2.9c7.6,1.4,28,0.3,35.2-3.5c0,0,7.2-1.2,8.5-1.5
		c1.4-0.3,21.3-4,22.9-2.9l-5.6,11.3c0,0,10.3,17.4,10.8,38.4s-9.3,46.7-9.4,47.1c-0.2,0.4,1.4,2.4,1.4,2.4l3.3,4.3l-1.1,2.1l-1.7,1
		c0,0-10.2,1.1-15.2,0c-4.9-1.1-53.9,4.2-54.9,4.4c-1.1,0.3-32.3,6.2-37.3,1.6l0.9-3.2l0.6-3.7l1.8-4.9c0,0-10.7-20.4-11-30.8
		c-0.2-10.3-1.2-16.6-0.8-22.6c0.5-5.9,2-17.7,2-17.7l3-14.2l0.5-2.6C123.2,623.2,120.5,616.4,120.4,615.2z"/>
	<path class="st3" d="M370.4,158.1c0,0,22.2,10.4,22.8,10.8c0.6,0.4,8.9,11.8,8.9,13.6c0,1.8,0.8,14.1,0.4,17
		c-0.4,2.9-1.2,14.4-1.4,17.5c-0.2,3.1-6.6,22.5-25.7,20.6l-2.2,5.1c0,0-0.1,16.4,2,18l12.9,1.6c0,0,11.8,1.7,13,3.4l4.3,3.1
		c0.6,1,1.4,2.7,1.4,2.7l2.6,2.4l3.8,2.5l4.1,3.6l6.5,3.7l5.2,2.4l4,2l2.5,1.7l1.9,2.1l1.7,1.5c0,0,0.2,2.9,0.6,3.5
		s-0.6,2.2-0.6,2.2l3.6,1.3l10.7,5.6l3.3,1.5c0,0,3.6,1.7,4.3,2c0.6,0.3,5.3,2.6,5.3,2.6l6.5,1.7l3,2.6h6.5c0,0,4.4-0.3,5.2,0
		c0.8,0.3,36.1,0.7,42.4-1.1c6.2-1.8,18.4-0.4,22.5,3.5c4.1,3.9,5.8,9.9,5.8,12.2c0,2.3-2.2,9.4-2.2,9.4h-6.2l-4.7-7l-6.2-5.9
		l-1.8-2.3l-7.2-0.9c0,0-8.9,0.2-9,0.2c0,0-7.3-0.6-8.7-0.5c-1.4,0.2-7.7,2.1-9.4,2.4s-13.1,1.3-15.6,1.1c-2.5-0.2-11.7-0.8-14.2,0
		c-2.4,0.8-7-0.6-8.8-2c-1.7-1.4-8.8-4.6-11.3-4.9c-2.6-0.3-7.1-2.9-8.5-3.7c-1.4-0.8-3.8-4.1-5.3-4.1s-4.4-1.2-4.4-1.2
		s-1.5,1.4-2.3,1.4s-11.9-4.6-13.6-5c-1.7-0.5-4.5-3.2-6.9-3.2c-2.4,0-5.3,2.9-5.3,2.9c-0.3,2.4-1.7,7.5-3,10.7
		c-1.4,3.2-3,21.3-3.7,22c-0.6,0.7-2,4.8-2.6,12.3c-0.6,7.5-2.1,13.1-2.3,16.8c-0.2,3.7,0.1,10.1,0.5,12.8c0.4,2.7-9.2,8.1-13.9,8.5
		c-4.7,0.5-31.5-1.9-33.4-2.2c-2-0.3-12.8-4-12.8-4s2.2-6.6,1-18.8c-1.2-12.2-6.3-28.4-6.7-32.3s-10-23.1-10-23.1
		c-2.3-0.2-6.2,1.8-6.2,1.8l-6.8,10.3l-16.5-8.9l-5.4-8.7l7.2-8.5l4.7-2.1l5-3.8l5-4.7l4-5.8c0,0,5.3-10.1,13.1-11.5
		c7.8-1.4,12.3-3.7,14.5-4.3c2.1-0.6,8.8-2.4,8.8-2.4l4.6-0.5l2.4-2.3c0,0,2.6-0.6,2.5-8.4c-0.2-7.8-0.8-11.2-0.8-11.2l-9.4-0.8
		c0,0-10.9-2.7-11.4-4.3c-0.5-1.5-1-16.5-1-16.5l15.2-4.5l-4.9-35.9L370.4,158.1z"/>
	<path class="st3" d="M287.5,311.8c0,0-11.5,12-14.1,16.5s-5.2,10.4-5.2,12.7c0,2.3-1.1,3,3.9,13.2c1.7,3.6,5.2,10.8,5.2,10.8
		l6.9,11.9c0,0,12.7,17.2,13.2,18c0.5,0.8,13.4,13.5,16.8,15.5c3.4,2,14.3,7,16.3,7.1c2,0.1,4.6-2.4,5.1-2.5c0.5-0.1,5,0.6,5,0.6
		l2.7,1.9l2.4,1.5l1.8,1.1l1.2-1v-2l-1.1-1.8l1.7-0.2l1.3-1.7v-1.2l1.1-0.7l0.6-1.3l-1.5-1.7l-1.8-3.2l0.4-0.8l2.8,0.8l2.5,0.7v-1.3
		l-1.4-2.1l-3.4-1.9l-4.6-1.9l-5.7-1l-2.5,0.2l-4.1,2.3l-1.8,3l-4.2,0.9l-11.1-1.6l-31.3-56.7l2-12.9l7.7-4.2l5.8-5.4L287.5,311.8z"
		/>
	<path class="st3" d="M334,383.9c0,0-4.6,15.9-5.2,18.9c-0.6,3-14,61.6-2.3,121.5l7.5-5.5c1,1.2,1.3,8.6,1.3,8.6s0.8,7.6,0.8,8.4
		c0,0.8,0.9,11.9,0,12.2c-0.9,0.3-0.9,10.5-0.9,11.6c0,1.1-1.7,17.6-3.2,21.6c-1.5,4-4.4,43.5-2.9,58.1c1.6,14.6,2.6,33.4,3.3,39
		c0.7,5.6-0.8,12.3-0.8,12.3s-3,7.1-2.6,7.8c0.4,0.7-2.6,7.9-2.6,7.9l10,2.3c0,0,7.5,1.2,8,1.1c0.5-0.2,3.7-2,3.7-2l-3.2-17.4
		c0,0-3.7-12-3.7-13.1c0-1.1-2.6-25.8-2.6-25.8l4-50.1l5.5-33.4l1.1-26.1l1.1-19.1l2.3-7.6l15.4-2l12.7,0.3l4,5.5
		c0,0,7.2,40.4,7.3,45.1c0.1,4.7-1.6,5.4,0,13.6c1.6,8.2,3.8,33.3,10.5,49.8c6.7,16.5,10.1,36.5,11.2,58.4l-2.7,5c0,0,5,9.3,5.9,9.4
		c0.9,0.2,12.8-7.6,12.8-7.6l-3.4-11.7l-14.5-55.3l-2.6-20.1l-2.9-36.7l-7-61l18-33.2L396,408.3l-6.2-16.3l-22.7-1.2L334,383.9z"/>
	<g>
		<path class="st4" d="M238.5,645.9c-0.6-3.5-1.5-6.7-2.9-9.8c0.6-0.8,0.8-1.8,0.6-2.8c-0.8-4.2-2.9-10-6.7-12.4
			c0,0-0.1-0.1-0.1-0.1c0.5-0.9,1-1.8,1.4-2.6c0.3-0.6,0.7-1.1,0.9-1.7c0.3-0.2,0.5-0.4,0.7-0.6c0.4-0.4,0.7-1,0.7-1.6
			c0,0,0-0.1,0.1-0.1c2.2-0.8,1.8-4.3-0.8-4.5c-3.4-0.3-13.4-1.5-14.3,3.5c0,0.1,0,0.1,0,0.2c0,0-0.1,0-0.1,0.1
			c-0.3,0.3-0.5,0.5-0.8,0.8c-0.1,0.1-0.1,0.2-0.2,0.3c0,0,0,0.1-0.1,0.1c-0.2,0.3-0.4,0.7-0.4,1c-0.4,1.2-0.8,2.5-1,3.8
			c-7.5,0.7-14.9,2.6-22.1,4.1c-11.7,2.4-24.7,3.5-36.6,1.8c-0.1,0-0.1,0.1,0,0.2c10.9,4.2,23.5,6.3,35.2,6.1c0.6,0,1.3,0,1.9-0.1
			c0.4,2.5,1.4,5.2,2,7.4c0.9,3.8,0.8,7.7,0.4,11.6c-0.8,8.4-3.9,16.9-7.4,24.5c-3.5,7.7-7.9,14.9-12.5,21.9c-2.1,3.2-4.3,6.3-6,9.6
			c-1.1,2.1-1.9,3.9-3.6,5.5c-1,1-2.2,1.7-3.4,2.4c-0.9,0.5-1.2,1.4-2,2c-5.9,1.7-11.8,3.1-17.9,3.3c-0.3,0-0.3,0.4,0,0.4
			c3.8,0.4,7.2,1,11.1,0.8c3.7-0.2,7.3-0.6,11-1.1c0.1,0.1,0.3,0.1,0.4,0.1c0.7-0.1,1.3-0.3,2-0.4c8.1-0.9,16-1.1,24.1-0.9
			c4.8,0.2,9.6,0.6,14.5,0.8c4.4,0.6,8.7,1.2,13.3,0.4c0.3,0,0.7,0,1,0c4.5,0.2,9.2-0.6,12.8-3.4c0.7-0.6,1.3-1.4,1-2.4
			c0-0.1-0.1-0.3-0.1-0.4c0-0.7-0.1-1.3-0.4-1.9c0.4-1.8-1.1-3.5-3-3.7c0,0,0,0-0.1,0c1.8-3.4,3.1-7,4.2-9.8
			c3.2-8.1,4.4-16.9,4.7-25.5c0.1-5.1-0.1-10.2-0.7-15.2C240.2,654.2,239,649.4,238.5,645.9z M210.2,708.7
			C210,709.1,210,709.1,210.2,708.7C210.2,708.7,210.2,708.7,210.2,708.7z M231,647c0,0.1,0,0.2,0,0.4c0-0.1-0.1-0.2-0.2-0.3
			C230.9,647.1,230.9,647,231,647z M223.8,619.3c-0.1,0-0.3,0-0.4,0c0.2-0.1,0.3-0.2,0.5-0.3C223.8,619.1,223.8,619.2,223.8,619.3z
			 M199.2,631.3c-0.1-0.1-0.2-0.1-0.2-0.2c0,0,0.1,0,0.1,0C199.1,631.2,199.1,631.3,199.2,631.3z"/>
		<path class="st4" d="M675.4,703.2c-3.9,0-7.9,1-11.8,1.4c-0.1,0-0.2,0-0.3,0c-0.2-0.2-0.5-0.3-0.9-0.3c-6.5,0.2-13-0.3-19.4-1.3
			c-5.3-0.8-10.3-3.2-15.5-4.4c-4.2-1-8-0.4-11.9,1.2c-3.7,1.6-6.4,4.4-10.3,5.1c-0.6-0.3-1.5-0.2-2.2,0.2c-1.4,0-2.7,1-3.1,2.3
			c-1.1,4.4-1.5,8.8-2.4,13.1c-2.5-2.5-4.9-5.2-7.5-7.6c0-1-0.6-2.3-1.4-3.4c-0.2-0.3-0.4-0.6-0.7-0.9c-1.3-2.3-3.2-3.9-5.5-5
			c-0.9-0.9-1.9-1.7-3.4-1.4c-1.4,0.2-2.6,1-3.5,2.1c-1.6-2.5-5.1-4.4-7.5-5.1c-1.2-0.3-2.8-0.3-4.1,0.1c-0.5,0.1-1,0.3-1.6,0.5
			c-0.1,0-0.2,0.1-0.3,0.2c-1.7,0.2-3.3,0.8-4.7,1.8c-0.3,0.2-0.7,0.3-1,0.5c-12.7,1.1-25.6,5.9-38.3,3.3c-1-0.2-1.3,1.1-0.4,1.5
			c8.5,3.3,17.9,2.9,26.9,2c3.1-0.3,6.4-0.7,9.7-0.9c-2,1.5-3.9,3.1-5.7,4.8c-1.3,1.2,0.1,3.1,1.6,2.8c1.9-0.4,3.8-0.7,5.7-0.8
			c0.1,0.1,0.3,0.2,0.4,0.3c2.9,1.4,5.7,0.9,8.8,0.8c1.1-0.1,2.2-0.1,3.3-0.2c0.3,0.1,0.7,0.2,1.1,0.2c1.9,0,3.7-0.3,5.5-0.5
			c1.8,0.2,3.6,0.5,5.4,0.8c2.7,0.5,5,1.2,7.7,0.5c0.2-0.1,0.4-0.2,0.6-0.3c2.8,3.2,5.4,6.6,8.6,9.5c1.2,1.1,3.1,0.6,3.6-1
			c0.2-0.5,0.3-1,0.5-1.5c1.7-1.4,2.9-3.6,4.4-5.1c0.7-0.7,1.5-1.2,2.4-1.6c2.7,0.6,5.6,0.9,8.4,1.1c2,0.1,6.6,0.9,7.3-1.8
			c0.5-1.6-1.3-2.2-3-2.4c1.6-0.3,3.1-0.5,4.6-0.8c0.4-0.1,0.8-0.2,1.1-0.4c2.2-0.2,4.4-0.6,6.7-0.6c1.4,0,2.3-1.6,2-2.8
			c5.2,0.3,10.4,0.7,15.6,1c7.8,0.4,18.7,0.9,25.5-3.9C677.7,705.6,677.3,703.2,675.4,703.2z M613.3,709.1c0.4-0.3,0.9-0.5,1.3-0.8
			c0.2-0.1,0.4-0.2,0.5-0.4c0.1,0.2,0.2,0.5,0.4,0.7C614.8,708.8,614.1,708.9,613.3,709.1z"/>
	</g>
	<g>
		<path class="st5" d="M543.9,411.2c-0.9-0.2-6.6-0.6-6,9.5c0.1,2.6,0.7,5.2,1.7,7.5c0.4,0.9,0.9,1.8,1.5,2.6c0.6,0.7,3.6,0.5,3.8,0
			C549.7,422,545,411.5,543.9,411.2z M544,428.7c-1.9-3.2-1.9-7.2-1.9-10.9c0,0,0,0,0,0c0,0,0-0.1,0-0.1c0-0.1,0-0.3,0-0.4
			c0,0,0,0,0,0c0.3-5.5,1.2-4.6,1.7-3.6C545.6,418.2,546.1,424,544,428.7z M541.9,429.1c-0.4-0.6-0.7-1.3-1-2
			c-0.7-1.8-1.1-3.7-1.3-5.5c-0.2-1.4-0.5-6.1,1.1-7.3c-0.3,0.9-0.3,1.9-0.3,2.9c0,0,0,0,0,0c0,0.2,0,0.3,0,0.5c0,0,0,0.1,0,0.1
			c0,0,0,0,0,0c0,4,0.1,8.2,2.1,11.7C542.3,429.4,542.1,429.3,541.9,429.1z"/>
		<path class="st5" d="M561.1,465.7c-0.3,0.1-0.5,0.3-0.6,0.5c-8,3.3-8.3,19.3,2.3,17.9C573,482.6,572.1,463.4,561.1,465.7z
			 M562.8,482.3c-9.3,1.5-7.8-13.7-0.1-15c0.1,0,0.3-0.1,0.3-0.1C570,467.4,570,481.1,562.8,482.3z"/>
		<path class="st5" d="M564.6,469.6c0.5-1-1-1.9-1.5-0.9c-0.1,0.2-0.2,0.5-0.3,0.7c-0.7-0.1-1.4,0-2,0.1c-1.6,0.4-2.9,2.3-2.1,3.8
			c0.4,0.8,1.4,1.2,2.4,1.5c-0.2,1.1-0.4,2.2-0.6,3.3c-0.5-0.2-0.9-0.5-1.4-0.7c-1-0.5-1.9,1-0.9,1.5c0.6,0.3,1.3,0.6,2,0.9
			c0,0.2,0,0.3-0.1,0.5c-0.1,1.1,1.6,1.1,1.7,0c0.9,0.2,1.8,0.2,2.6-0.1c2.1-0.7,2.8-3,1.6-4.8c-0.7-1.1-1.8-1.6-2.9-1.9
			c0.2-0.7,0.4-1.5,0.7-2.2c0.7,0.1,1.4,0.4,1.9,0.7c1,0.5,1.8-1,0.9-1.5c-0.6-0.3-1.3-0.6-2.1-0.8
			C564.5,469.7,564.5,469.6,564.6,469.6z M563.3,475.4c1.8,0.8,2.4,3.3-0.2,3.3c-0.3,0-0.7,0-1-0.1c0.2-1.2,0.4-2.3,0.6-3.5
			C562.9,475.3,563.1,475.3,563.3,475.4z M561,472.9c-0.3-0.1-0.9-0.3-0.9-0.7c0.2-1,1.2-1.1,2-1.1c-0.2,0.6-0.4,1.3-0.6,1.9
			C561.3,473,561.1,473,561,472.9z"/>
		<path class="st5" d="M553.3,513.7c-0.1,0-0.7,0-0.9,0c-1.7,0.1-7.6,5.8-5,14.6c1.1,3.6,5.4,2.6,5.8,2.5
			C559.6,528.1,562.9,513.4,553.3,513.7z M548.7,526.4c-0.6-2.4-0.3-5.4,0.7-7.7c0.6-1.4,1.8-3.3,3.2-3.4c1.1,0,1.8,1.7,2.2,2.5
			c1.1,3,0.4,6.3-1.5,8.9c-1.5,2.1-2.8,2-3,2.1c0,0-0.1,0-0.1,0C549.2,528.7,548.8,527.2,548.7,526.4z M556.5,524.6
			c0.9-2.8,0.7-5.9-0.7-8.5c0,0-0.1-0.1-0.1-0.1C558.3,517.3,558,521.3,556.5,524.6z"/>
		<path class="st5" d="M577.8,562.8c1.8-3.7,1.4-8.4-0.1-12.1c-0.1-0.2-0.3-1.5-1.3-1.5c-1,0-3.1,0.2-3.6,0.7
			c-3.3,3.1-2.5,8.8-1.1,12.9c0.1,0.2,0.8,1.8,1.7,2.2c0.5,0.3,3,0.2,3.2-0.1c0.1-0.1,0.1-0.2,0.2-0.2
			C576.9,564.6,577.3,563.8,577.8,562.8z M576.4,562.7c-1.5-5.1-0.1-9.8,0.2-10.2C577.5,555.5,577.7,559.9,576.4,562.7z
			 M573.9,551.2c0.5-0.2,1.1-0.2,1.7-0.3c-0.9,1-2,6.2-0.4,12.6c-0.2,0-0.9-0.2-1.1-0.2c-0.6-0.4-0.9-2.1-1.2-2.9
			C572.1,557.3,572,553.7,573.9,551.2z"/>
	</g>
	<g>
		<path class="st5" d="M236.7,610.6c0.3-0.6-0.1-1.3-0.7-1.3c-18.3-0.6-35.3,8.1-53.5,8.5c-10.3,0.3-20.7-1.4-30.8-2.5
			c-10.4-1.1-20.8-2-31.2-1.4c-0.5,0-0.9,0.4-0.9,0.9c0.1,2.9,1.3,6,2.7,8.5c-3.5,15.5-6.4,31.3-5.7,47.3
			c0.6,14.1,4.6,27.7,11.9,39.7c0,0-0.1,0.1-0.1,0.1c-2,3.8-1.5,8.3-3.5,12c-0.3,0.5,0,1.1,0.5,1.3c8.1,2.8,17.1,1.8,25.4,0.5
			c9.7-1.4,19.3-3.8,29.1-4.3c10.1-0.5,20.2,1.2,30.2,1.7c8.8,0.5,18.3,0.3,26.1-4.5c0.1-0.1,0.2-0.1,0.3-0.2c0.5-0.1,0.9-0.4,0.7-1
			c-1.4-3.5-2.1-6.9-5-9.6c6-12.1,8.8-25.8,9.4-39.2c0.7-15.7-1.8-32.4-10.1-45.9C233.2,617.7,234.8,614,236.7,610.6z M239.7,666.5
			c-0.5,15.4-4.2,31.4-12.2,44.6c-0.6,1,0.9,1.8,1.5,0.9c0.8-1.3,1.5-2.6,2.2-4c2.2,2.2,2.9,4.9,4,7.8c-7.9,4.8-17.6,4.6-26.5,4.1
			c-9.6-0.6-19.2-2-28.8-1.6c-9,0.4-18,2.5-26.9,4c-8.5,1.4-17.8,2.7-26.2,0.2c1.4-3.3,1.2-7.1,2.7-10.3c0.4,0.7,0.9,1.3,1.3,2
			c0.6,0.9,2.1,0.1,1.5-0.9c-8.8-12.9-13.4-27.6-14-43.2c-0.7-15.7,2.3-31.3,5.7-46.5c0,0,0-0.1,0-0.1c0-0.1,0-0.2,0-0.2
			c0,0,0,0,0,0c0-0.1,0-0.2-0.1-0.3c-1.2-2.1-2.2-4.7-2.5-7.1c20.3-1.1,40.2,4,60.4,3.9c18,0,34.8-8.6,52.9-8.6
			c-1.7,3.3-3.2,6.6-5,9.8c0,0,0,0,0,0.1c-0.1,0.1-0.1,0.2-0.1,0.3c0,0,0,0,0,0c0,0.1,0,0.2,0,0.3c0,0,0,0,0,0c0,0.1,0,0.1,0.1,0.2
			C237.8,634.9,240.3,651.1,239.7,666.5z"/>
		<path class="st5" d="M665.7,700.8c-7.8,1.3-15.7,2-23.5,1.3c-3.7-0.4-7.4-1.2-10.9-2.5c-2.4-0.9-4.6-2.3-7.2-2.6
			c-2-0.3-4.7-0.3-6.5,0.7c-1.6,0.9-3,2.3-4.5,3.4c-1,0.9-2.1,2.2-3.4,2.5c-2.2,0.6-5.7,0.7-7.9-0.2c-0.4-0.2-1.2-0.1-1.3,0.5
			c-0.7,4.8-0.7,10-2.9,14.4c-3.5-2.5-5.3-6-7.5-9.6c-2.4-3.9-5.7-6.6-10-8c-0.4-0.1-0.8,0.1-1,0.4c-0.6,1.1-1.5,1.8-2.5,2.5
			c-2-3.3-4.9-5.4-9-5.6c-4.8-0.3-9.7,1.9-14.2,3.6c-5.7,2.1-11,3.4-17,3.7c-7.1,0.3-14.1-0.3-21.2-0.3c-1.1,0-1.1,1.7,0,1.7
			c11.6,0,23.5,1.7,34.8-2c4.6-1.6,9.1-3.6,14-4.6c5.1-1,9.2,0.7,11.6,5.3c0.3,0.5,1,0.5,1.4,0.2c1.1-1,2.3-1.8,3.2-3
			c4.4,1.6,7.1,4.6,9.4,8.6c2.1,3.6,4.3,6.9,7.9,9.2c0.4,0.2,1,0.1,1.2-0.3c2.6-4.5,2.8-9.8,3.4-14.8c1.8,0.5,3.8,0.4,5.6,0.3
			c1.5-0.1,3.1-0.2,4.2-1.2c1.6-1.4,3.2-2.7,4.8-4c2.1-1.7,4.1-2,6.9-1.8c2.7,0.2,5.3,1.9,7.8,2.8c3.4,1.3,7.2,1.9,10.8,2.3
			c8,0.9,16.1,0,24-1.3C667.3,702.2,666.8,700.6,665.7,700.8z"/>
		<path class="st5" d="M138.3,662.5c-1.5-0.5-4.7-1.3-4.2-3.5c0.8-3.3,6.6-4,7.2-0.3c0.2,1.1,1.8,0.6,1.7-0.5
			c-0.7-4-6.2-4.7-8.9-2.4c-1.3,1.1-2.1,3.1-1.7,4.7c0.4,1.5,2.1,2.3,3.4,2.9c1.5,0.6,3.2,1,4.6,1.9c2.4,1.4,2.2,4.9,1.1,7
			c-1.4,2.6-4.3,3.3-6.7,1.7c-1.9-1.3-3.5-4.4-0.2-4.9c1.1-0.2,0.6-1.8-0.5-1.7c-4.7,0.7-3.4,5.6-0.5,7.8c4,3,8.8,0.5,10.1-3.9
			c0.6-2.1,0.2-4.5-1.1-6.2C141.6,663.6,139.9,663,138.3,662.5z"/>
		<path class="st5" d="M158.7,655.1c-4.1-0.6-8.2-0.3-12.3,0c-1.1,0.1-1.1,1.8,0,1.7c1.8-0.1,3.7-0.3,5.5-0.3
			c1.1,5.8-0.6,11.7,0.6,17.5c0.2,1.1,1.9,0.6,1.7-0.5c-1.1-5.6,0.4-11.4-0.5-17c1.5,0,3.1,0.1,4.6,0.3
			C159.4,656.9,159.8,655.2,158.7,655.1z"/>
		<path class="st5" d="M168.1,653.5c-1.5-0.2-2.8,0.6-3.9,1.6c0,0-0.1,0-0.1,0c-2,1.1-2.1,4.1-2.1,6.1c0,2.9,0.1,6.3,1.1,9
			c1.2,3,4,5.2,7.3,4.8c2.6-0.3,4.6-2.3,5.4-4.8c1.5-4.4-0.3-10.2-3-13.8C171.7,655,170.1,653.7,168.1,653.5z M174.5,668.4
			c-0.2,2-1.1,3.4-2.8,4.5c-3.3,2-6.4-1.2-7.3-4.1c-0.6-1.8-0.6-4.1-0.7-6c-0.1-1.2-0.3-3.5,0.3-5c0.1-0.1,0.2-0.1,0.3-0.3
			c2.4-3.2,5.3-2.5,7.4,0.5C173.8,661,174.8,664.9,174.5,668.4z"/>
		<path class="st5" d="M188.9,667.9c0.4,1.4,0.8,3.2-0.7,4.2c-1.5,1-3.9,0.6-4.9-0.9c-1.3-2-1.4-5-1.7-7.3c-0.3-2.3-1.1-5.7,0-7.8
			c1-2.1,5.9-2.3,6.5,0.1c0.3,1.1,1.9,0.6,1.7-0.5c-0.9-3.7-5.7-3.4-8.3-1.8c-3.2,2-1.8,7.7-1.4,10.7c0.5,3.4,0.7,8.6,4.7,9.6
			c1.8,0.5,4.3-0.1,5.5-1.6c1.2-1.4,0.8-3.5,0.4-5.2C190.3,666.4,188.6,666.8,188.9,667.9z"/>
		<path class="st5" d="M198.3,660.6c2.1-3.8,0.6-8.6,1.8-12.6c0.3-1.1-1.3-1.5-1.7-0.5c-1.2,4.1,0.5,9.2-2,12.9
			c-0.4-2.7-0.9-5.5-1.8-8.1c-0.3-1.1-2-0.6-1.7,0.5c2,6.2,2.2,12.8,2.8,19.3c0.1,1.1,1.8,1.1,1.7,0c-0.3-3.4-0.5-6.8-0.9-10.1
			c0,0,0.1,0,0.1,0.1c5.2,1.4,10.7,5.6,13,10.5c0.5,1,2,0.1,1.5-0.9C208.8,666.6,203.5,662.3,198.3,660.6z"/>
		<path class="st5" d="M216.1,657.7c-1.2-0.5-2.6-1.1-2.9-2.5c-0.5-1.6,0.7-3.4,2-4.2c2.4-1.6,6.4-1.3,6.2,2.3
			c-0.1,1.1,1.7,1.1,1.7,0c0.3-5.4-6-6-9.4-3.3c-1.8,1.4-2.7,3.9-2.1,6c0.6,2.2,3.2,3.1,5.2,3.7c2.5,0.8,4.8,1.8,6.3,4.2
			c1.2,1.8,0.4,3.7-1.2,4.9c-1.7,1.3-8.5,3.5-6.8-0.9c0.4-1-1.3-1.5-1.7-0.5c-1.4,3.5,1.5,5.2,4.8,4.7c3.2-0.5,7-2.6,7.3-6.3
			C225.7,661,219.6,659,216.1,657.7z"/>
	</g>
	<g>
		<path class="st4" d="M541.5,328.4c-0.6-9.6-22.7-7.9-32.1-6.8c-1.5-0.2-3.1-0.1-4.5-0.1c-4.4,0.1-8.8,1-13.1,1.7
			c-4.1,0.7-8.1,1-12.3,1.1c-0.9,0-1.8,0-2.7,0.1c-7.1-0.6-13.6-2.9-20.3-5.7c-2.6-1.1-5.1-2.1-7.6-3.2c-3.6-2.2-7.2-4.6-10.9-6.9
			c1.3-5.1,1.5-11.1,0.3-15.4c0-0.2-0.2-0.2-0.4-0.2c-0.1-0.3-0.2-0.6-0.3-0.9c-0.1-0.2-0.4-0.1-0.4,0.1c-1.5,3.6-2.6,7.3-3.8,10.9
			c-0.6,1.9-1.6,3.6-2.6,5.3c-5.5-2.1-10.9-4.7-16.1-7.4c-1.7-1.5-3.4-3.1-4.9-4.8c-3.8-3.9-7.2-9.5-11.7-12.5
			c-0.1-0.2-0.3-0.4-0.4-0.6c0,0-0.1,0-0.1,0c0,0,0,0.1,0.1,0.1c0,0-0.1,0-0.1,0.1c0.4,1.3,0.8,2.8,1.1,4.3c0,0-0.1,0-0.1-0.1
			c0,0,0,0,0,0c0,3,1.1,6.2,1.6,9.2c0.7,4,0.2,8.4,0,12.4c-0.4,8.4-2.1,16.7-3.7,25c-2.5,6.6-4.5,13.4-6,20.3c-2,9.1-4,19-3.8,28.4
			c0,0.2,0.1,0.4,0.1,0.6c0,0.2-0.1,0.4-0.1,0.6c-0.1,0.3,0,0.7,0.2,1c-1.4,0.4-2.8,0.8-4,1c-5.2,1.2-10.4,1.6-15.7,1.8
			c-5,0.1-10.1-0.2-15.1-0.6c-4.1-0.4-8.5-2.1-12.5-2c-0.3,0-0.5,0.3-0.3,0.5c0.1,0.2,0.3,0.4,0.4,0.5c-1.2-0.4-2.4-0.8-3.7-1.2
			c0-0.2-0.1-0.5-0.4-0.5c-0.5,0-0.5,0.6-0.3,0.8c-1.3,2.8,3.4,5.7,5.3,6.5c5.8,2.7,12.5,3.3,18.8,4c7.1,0.8,14.2,1.2,21.3,1.3
			c1.4,0,3.2,0.2,5,0.2c0,6.4,1.9,13,3.5,19.2c1.9,12,2.9,24.3,3,36.4c0.2,13.5-1.1,27.2-6.8,39.6c-2.2,4.7-4.7,9.3-7,14
			c-0.6,1.2-1.3,2.5-1.9,3.8c-3-0.2-6-0.5-8.9-0.7c-14.1-0.9-34.3-0.8-40.8,14.6c-0.1,0.3,0.3,0.5,0.5,0.3c2.9-3.1,6-5.5,9.5-7.1
			c0,0.1-0.1,0.1-0.1,0.2c-0.4,0.7,0.3,1.4,1,1.2c2.4-0.5,4.7-0.9,7.1-1.2c-0.4,6.4-0.5,12.8,0.4,19.3c1.2,8.3,0.8,16.7,0,25
			c-1.6,15.7-4.7,31.2-6.8,46.9c-2.1,15.8-2.9,31.8-2.4,47.7c0.2,7.1,1,14,2.7,20.9c1.3,5.3,2.6,10.8,4.5,15.9
			c0.3,1.4,0.7,2.8,1,4.2c0.8,3.2,1.5,6.4,2.1,9.6c0.5,2.8,0.3,5.6,1.9,8c0.3,0.4,1.1,0.6,1.3,0c1.8-3.9-0.3-9.6-1.2-13.7
			c-0.5-2.2-0.9-4.4-1.4-6.6c-0.2-4.4-1.4-8.7-2.6-13c-2.2-13-2.9-26.1-2.8-39.2c0.1-13,1.4-25.8,3.6-38.6
			c1.3-7.2,2.7-14.4,3.6-21.7c0,0,0,0,0,0c3.1-7.1,3.4-15.8,4.4-23.5c0.2-1.7,0.4-3.3,0.6-5c0.3-1.7,0.4-3.4,0.4-5.1
			c0.2-3.9,0.2-7.8-0.3-11.6c0-1.1-0.1-2.3-0.2-3.4c0.1-1.1,0.2-2.2,0.2-3.3c0-0.1,0.1-0.3,0.1-0.5c0-1.7,0.2-3.3,0.2-4.9
			c0.2-2,0.6-5.4-0.7-6.9c-0.1-0.3-0.1-0.5-0.2-0.8c2.1-0.1,4.3-0.5,5.8-1.8c5.1,0.5,10.3,1.4,15.3,2.2c7.2,1.1,14.3,2.1,21.5,1.7
			c-0.1,0.3-0.1,0.5-0.1,0.8c-0.1-0.2-0.1-0.3-0.2-0.5c-0.1-0.2-0.5-0.2-0.5,0.1c-0.6,4.1,0.6,8.7,1.2,12.8
			c0.9,5.3,2.3,10.4,3.6,15.6c1.3,5.2,2.6,10.4,3.9,15.6c0.5,2,0.8,4.4,1.3,6.7c-0.9,10,0.5,20.5,1.6,30.4
			c1.2,11.3,3.1,22.5,5.3,33.6c2.2,11,5.1,21.8,8.3,32.5c1.7,5.6,3.3,11.1,5,16.7c0.8,2.7,1.4,6.2,3.1,8.7c-0.4,1.3-0.7,2.5-1,3.8
			c-0.6,2.6-2,4.7-3.4,6.9c-0.2,0.3-0.3,0.7-0.4,1c-3.1,0-6.2,0-9.2,0.5c-0.3-1.2-0.9-2.5-1.3-3.6c-0.8-2.5-1.6-5-2.3-7.6
			c-0.2-0.6-1-0.5-1,0.1c0,1,0,2,0.1,3c-0.3-0.1-0.6,0.1-0.6,0.4c-0.1,1.1-0.2,2.1-0.1,3.1c-0.3,0.8-0.4,1.6-0.5,2.4
			c-0.2,0.3-0.2,0.6-0.3,0.8c-0.2,0.8-0.4,1.6-0.3,2.4c0.1,0.7,0.2,1.5,0.3,2.2c0.2,0.6,0.7,1.1,1.3,1.3c0.5,1.1,2,1.6,3.1,1.3
			c1-0.3,1.9-0.4,2.9-0.5c0.7,0.2,1.5,0.3,2.3,0.3c1.5,0,3.1-0.2,4.6-0.5c1.5,0.1,3,0.1,4.5,0.1c1.7,0,3.9,0,5.8-0.4
			c3.9,2.1,9.2,2,13.4,2.1c6.1,0.1,12.2-0.8,18.1-2.1c1.9-0.4,2.5-2.6,1.7-4.1c-0.8-1.6-1.8-3-3-4.3c-0.5-0.5-1.2-0.7-1.9-0.7
			c-3.4-2.6-9.3-3.5-12.5-4.4c-3.3-0.9-6.6-1.8-9.8-3.2c-3-1.3-5.5-3.5-8-5.5c-1.2-5.2-2.6-10.8-4.1-16c-1.7-5.6-2.8-11.2-4.2-16.9
			c-1.6-6.4-3.8-17.9-3.8-18.2c0.3-4-1.8-8.4-2.7-12.4c-1.2-5.3-2.2-10.7-3.1-16.1c-0.9-5.8-1.6-11.6-2.1-17.4
			c-0.4-4.1-0.2-8.4-0.5-12.5c0.5-2.4-0.3-5.1-0.8-7.4c-0.1-2.7-0.6-5.3-1.3-7.9c-0.1-0.6-0.2-1.2-0.3-1.8c0.5-0.2,0.9-0.7,0.9-1.3
			c0.4-4.6-1.1-9.7-2.7-14.5c-0.1-0.9-0.3-1.7-0.4-2.5c-0.5-4.2-0.7-8.1-2-12.2c0-0.2-0.1-0.5-0.1-0.8c-0.4-2.3-0.5-4.7-0.7-7
			c-0.1-0.7-0.1-2.9-0.8-3.7c7-1.2,16.1-4.6,18.7-11.6c0.3-0.9,0.3-1.7-0.1-2.4c2.1-3.6,2-8.7,1.8-12.8c-0.2-4.7-1-9.4-1.6-14
			c-0.8-5.6-0.9-11.4-1.7-17c-1.8-13.3-4.5-26.2-7.7-39.2c-1.6-6.5-3.5-12.8-5.2-19.3c-1.4-5.4-2.4-12.5-5.7-17
			c-0.2-0.3-0.5-0.3-0.7-0.3c-0.1-0.1-0.2-0.2-0.3-0.3c2-0.2,2-2.1,2.1-3.7c0-0.5-0.5-0.7-0.9-0.4c-0.1-0.9-0.1-1.7-0.2-2.6
			c0.1-1.3,0-2.6,0.1-3.9c0.2-4.7,0.5-9.4,1-14.1c1.1-9.8,3.5-19.4,4.8-29.1c0-0.3,0.1-0.7,0.1-1c1.3-1.4,1.6-3.8,1.9-5.6
			c0.3-1.6,0.7-3.4,0.3-5c0.7-2,1.1-4.1,1.3-6.3c0.1-1.1-0.3-2.2-0.7-3.4c0-0.6-0.1-1.1-0.2-1.7c0-0.1,0-0.3-0.1-0.4
			c0,0.1,0.1,0.1,0.1,0.2c1.6,1.4,3.3,2.5,5.2,3.4c0.4,0.2,0.8,0.1,1.1,0c3.4,2,7.4,2.9,11.2,4c0,0,0,0,0.1,0c0,0,0.1,0.1,0.1,0.1
			c0.7,0.3,1.5,0.6,2.2,1c0.1,0.1,0.2,0.2,0.3,0.3c0.7,0.4,1.4,0.7,2.1,0.9c0.1,0.9,1.1,1.5,2,1c1.9-1,2.9-3.2,3.4-5.4
			c0.1-0.2,0.2-0.5,0.3-0.7c0.1,0.1,0.2,0.3,0.4,0.4c0,0.1,0,0.1,0.1,0.2c0.4,0.4,0.8,0.7,1.3,0.9c0.7,0.4,1.4,0.8,2,1.2
			c0.3,0.2,1.1,1.9,1.3,1.7c3.4,3.3,7.7,3.8,11.9,5.6c0,0,0,0,0,0c-0.1,0.1,0,0.2,0.1,0.2c0.1,0,0.1-0.1,0.2-0.1
			c0.1,0,0.2,0.1,0.3,0.1c0.8,0.3,1.6,0.7,2.4,1c0,0-0.1,0.1,0,0.2c0.3,2,5.6,3.1,7.1,3.8c5.3,2.1,10.8,2.4,16.7,1.3
			c6.5,0.2,13.1-0.8,19.6-1.8c7.7-1.2,15-1.5,22.8-1.5c5.3,0,15.8-2.3,16.2,3.9c0,0.8,1.9,2.4,2.2,1.6c0.2-0.6,0.5,1.2,0.6,0.7
			c0.9,1,1.6,0,2.7,0.9c-0.3-0.1-0.6-0.1-1,0c-0.3,0-0.3,0.5,0,0.5c1.8,0.1,3.3,2.4,4.1,3.8c0.8,1.3,1.1,4.2,2.3,5.2
			c0.1,0.1,0.4,0.7,0.4,0.7c0,0.1,1-0.6,1-0.6c0.2,0.2,0.3-0.6,0.4-0.8c0.3-2.3-2-5.5-3.5-7.2C546.3,331.8,543.8,330.3,541.5,328.4z
			 M398.2,384.6c-0.6,0.3-1,0.9-1.3,1.6c-0.2-0.5-0.6-0.9-1-1.2c0.3-0.1,0.7-0.2,1.1-0.4c0.3-0.2,0.6-0.3,0.8-0.5
			C397.9,384.3,398.1,384.5,398.2,384.6C398.3,384.6,398.2,384.6,398.2,384.6z M438.1,310.2c-0.2-0.1-0.3-0.2-0.5-0.3
			c0-0.2,0.1-0.3,0.1-0.5C437.9,309.7,438,309.9,438.1,310.2z M408.5,306.5C408.5,306.5,408.5,306.5,408.5,306.5
			C408.5,306.5,408.5,306.5,408.5,306.5C408.5,306.5,408.5,306.5,408.5,306.5z"/>
		<path class="st4" d="M555.7,340.1c-0.3,0.2-0.6,0.5-0.8,0.7c0-0.1,0.1-0.3,0.1-0.4c1.7-4.2,0.3-9-2.1-12.8
			c-0.1-0.2-0.5-0.1-0.4,0.2c0.6,1.5,0.1,2.9,0.4,4.4c0,0,0.1,0.9,0.1,1c-0.1,1.6,0.9,2.4,0.7,4c-0.2,1.6-0.8,3.6-0.4,5.3
			c0.1,0.3,0.5,0.5,0.8,0.3c1-0.6,1.8-1.2,2-2.4C556.1,340.2,555.9,340,555.7,340.1z"/>
		<path class="st4" d="M547.9,338.8c-0.1-0.2-0.2-0.3-0.4-0.4c-0.1-0.5-0.3-1-0.5-1.7c-0.2-0.6-0.9-0.8-1.4-0.4
			c-0.1,0.1-0.1,0.1-0.2,0.1c0,0,0,0,0,0c0.3-0.4,0-0.9-0.4-1.1c0,0,0-0.1,0-0.1c0-0.2-0.4-0.3-0.4-0.1c0,0.1,0,0.1-0.1,0.2
			c-0.1,0-0.2,0.1-0.3,0.2c-0.8,0.8-1.3,1.9-1.7,2.9c-0.2,0.5-0.5,2.8,0,2.9c0.4,0.4,2-1.5,2.1-2.2c0-0.1,0-0.2,0.1-0.3
			c0.3-0.2,0.6-0.3,0.9-0.5c0.1,0.5,0.1,1-0.1,1.5c-0.1,0.3-0.1,0.5,0,0.7c-0.5,0.9,0.9,1.9,1.6,1.1c0.1-0.1,0.1-0.1,0.1-0.2
			c0,0,0,0,0,0c0,0,0-0.1,0.1-0.1c0.3-0.4,0.6-0.9,0.8-1.3C548.3,339.5,548.2,339,547.9,338.8z"/>
		<path class="st4" d="M350.9,408.3c-0.3,0-0.3,0.5,0,0.5S351.2,408.3,350.9,408.3z"/>
		<path class="st4" d="M330.8,405c0.1-0.1,0.1-0.3-0.1-0.4c-0.2-0.2-0.6-0.3-0.9-0.4c2.2-1.1,4-2.7,5.2-5c0.1-0.2-0.1-0.5-0.4-0.4
			c-2.7,1.8-4.7,3.9-7.7,5.1c-0.6,0-1.2,0.1-1.9,0.1c-0.2-0.6-0.6-1-1.3-1.4c-0.5-0.3-1-0.1-1.1,0.4c-0.6-0.3-1.5-0.9-2.5-1.5
			c0.1-0.3,0-0.6-0.4-0.9c-2-1.8-4.4-3.1-6.6-4.6c-0.2-0.2-0.5-0.2-0.7-0.1c-0.2-0.3-0.4-0.6-0.6-0.8c0-0.1-0.1-0.2-0.2-0.3
			c-0.4-0.5-0.8-1.1-1.2-1.6c0.1-0.3,0.2-0.6-0.1-0.9c-0.3-0.5-0.7-1.1-1-1.6c-2.7-5.9-5.4-11.9-7.9-17.9c0-0.1,0-0.2,0-0.3
			c-0.2-0.8-0.5-1.6-0.8-2.3c0-0.3-0.1-0.5-0.1-0.8c0-0.1-0.1-0.2-0.2-0.2c-1.2-3.3-2.7-6.5-4.2-9.7c-2.4-7-5-14.2-9.7-20
			c2.8-2.4,5.1-5.3,7.3-8.3c0.3-0.3,0.6-0.6,0.9-0.9c0.1-0.1,0.2-0.2,0.4-0.3c0.9-0.8,1.8-1.6,2.8-2.2c1.1-0.7,0.5-2.3-0.5-2.4
			c0-0.1-0.1-0.1-0.1-0.2c-0.1-0.6-0.3-1.2-0.6-1.8c0.6,0.6,1.3,1.1,2,1.5c0.4,1.1,1,2.2,1.7,3.1c0.5,0.7,1.9,0.8,2-0.3
			c0.1-0.4,0.2-0.8,0.3-1.2c1.9-1.3,3.4-3.2,5-4.9c2-2,3.9-3.9,5.9-5.9c4-4,7.9-7.2,12.9-9.4c0.6,0,1.3,0,1.9,0.1
			c0.5,0.1,0.8-0.7,0.4-1c-0.1-0.1-0.2-0.1-0.3-0.2c0-0.1,0-0.2,0-0.2c-0.6-0.9-1.5-1.2-2.6-1.1c-5.8-1.7-12.6,3.9-16.8,7.4
			c-1.2,1-4.2,3.2-6.6,5.7c-0.1,0-0.2,0-0.4,0c-1.7,0.1-3.3,0-4.9-0.2c-3.2-4.3-6.3-8.8-10.8-12.1c-0.3-0.2-0.5,0.2-0.4,0.4
			c0.4,0.8,0.9,1.6,1.4,2.3c1.8,3.7,3.5,7.4,5.6,10.9c0.3,0.5,0.6,1,1,1.6c-0.6,0-1.2,0.4-1.3,1c-2.2,1.1-3.9,3.1-5.5,5
			c-3,3.4-5.6,7.4-7.5,11.5c-3.8,8.5,2.3,16.5,6.3,23.8c5.6,10.2,11.7,20.6,18.1,30.4c3.4,5.1,10.3,14.8,17.5,14.6c0,0,0.1,0,0.1,0
			C323.4,406.5,329.9,407,330.8,405z"/>
		<path class="st4" d="M379.6,237.1c0.5,0,2.3-0.3,2.7-0.4c7.3-1.4,13.8-12.8,15.2-18.7c0.3-1.4,2.2-15.4,1.9-16.6
			c1.5-6.2,2.6-13.7,0.5-19.8c-0.3-1.4-1.9-2.9-2.6-3.3c-1.5-0.8-6.4-3.5-6.3-3.3c2.6,5.3,2.7,10.5,2.9,16.3c0,0.1-1.6,0.5-1.5,0.7
			c0.2,0.8,1.9,17.1,1.5,21.5c-0.4,4.3-1.8,8.3-4.1,12C387.4,229.2,379.2,237.2,379.6,237.1z"/>
		<path class="st4" d="M375.3,268.2c3,3.5,4.6,7,5.6,11.5c0.1,0.4,0.7,0.3,0.7-0.1c0.2-2.6-0.5-5-1.6-7.3c0,0,0-0.1,0-0.1
			c0.3-2.6-2-5.8-3.2-8c-1.8-3.3-3.4-6.6-4.4-10.1c0.8,0.2,1.9-0.4,1.6-1.3c-0.4-4.8-1.7-10-0.2-14.7c0.2-0.6-0.3-1.3-1-1.3
			c0.2,0-0.5-0.3-0.6-0.4c-0.3-0.2-0.5-0.2-0.8-0.1c0,0,0,0,0,0c-0.3-0.3-0.5-0.5-0.8-0.8c-0.2-0.2-0.5-0.2-0.7,0
			c-0.5-0.9-1.2-1.7-2.1-2.1c-0.1-0.1-0.3,0-0.2,0.2c0,0.1,0,0.1,0,0.2c-0.1,0-0.2,0.1-0.3,0.3c-1.3,8.5-0.8,18.5,2.4,26.5
			C371,263.3,373.2,265.8,375.3,268.2z"/>
	</g>
	<g>
		<path class="st5" d="M467.1,706.3c-0.1-1.6-0.9-3.2-1.9-4.5c-0.9-1.3-2.2-2.8-3.8-2.6c-0.5,0.1-1,0.3-1.3,0.8
			c-1.5-0.3-3.6-0.6-5.1-0.2c-0.3-0.1-0.7-0.2-1-0.3c-1.2-0.4-2.4-0.7-3.6-0.8c-1-0.5-2-0.8-3-1c-2.6-1.1-5.1-2.5-7.7-3.9
			c-1.2-0.7-2.5-1.4-3.9-1.9c-0.6-0.8-1.7-1.7-2.8-1.9c-0.4-0.9-1.1-1.7-2-2.3c0.8-0.8,0.6-2.6-0.7-2.9c-6.1-1.4-11.9,0.1-18.1,0.4
			c-0.8,0-1.2,1.2-0.4,1.6c0,0,0.1,0,0.1,0c-3,0.8-3.6,5.8-4,8.2c-0.4,2.9-1.4,10.4,0.7,13.6c0,0.3,0.1,0.6,0.1,1
			c0.1,0.6,0.8,1.1,1.4,1.1c6.1-0.3,13.4,0.4,19.5-1.7c5.3,1.5,10.4,3.7,16,3.4c5.9-0.3,12.4-1.3,18.2-2.4c0.3-0.1,0.5-0.1,0.7-0.3
			c0.9,0.2,2.1-0.3,2.3-1.3c0.1-0.2,0.3-0.4,0.3-0.6c0-0.2,0-0.5,0-0.7C467.1,706.9,467.1,706.6,467.1,706.3z"/>
		<path class="st5" d="M347,692.9c-0.2-0.5-0.4-0.9-0.8-1.3c0-0.5-0.1-0.9-0.1-1.4c0-0.4-0.2-1.3-0.8-1.2c0,0,0,0,0,0
			c0-0.1,0-0.1,0-0.2c0-0.3-0.3-0.4-0.5-0.3c-0.6,0.4-1,1-1.3,1.6c-2.2-0.7-4.9-0.7-6.5-0.8c-1.7-0.1-3.7,0.5-5.3,1.2
			c-0.8,0.4-1.4,1.5-0.9,2.2c-0.5,0.5-0.8,1.1-1,1.8c-1.6,0.8-2.3,2.4-2,4c-0.7,1-1.6,2.3-1.8,3.5c0,0.1,0,0.1,0,0.1
			c-0.3,0.4-0.1,0.9,0.2,1.2c0,0,0,0,0,0c-0.3,0-0.7,0.3-0.6,0.7c0,0.1,0.1,0.2,0.1,0.3c-0.2-0.1-0.4,0-0.6,0.2
			c-0.4,0.6-0.3,1.2,0,1.8c-0.7,0.3-1.3,0.9-1.3,1.9c0,0.9-0.1,1.7,0,2.6c-0.2,1-0.3,2,0.1,2.8c0.1,0.9,0.7,1.7,1.6,2.4
			c0.4,0.4,0.9,0.5,1.3,0.6c0.6,0.9,1.7,1.4,3,1c0.8-0.2,1.6-0.4,2.3-0.6c0.7,0.8,1.7,1.4,3,1.6c1.6,0.2,3-0.1,4.3-0.8
			c1.3,0.5,3,0.2,4.2-0.8c0.7-0.6,3.6-0.6,4.7-1.2c0.7-0.4,1.2-0.9,1.4-1.6c0.8-0.3,1.4-0.9,1.5-2c0.2-5.6-0.4-13.7-3.7-18.9
			C347.1,693.3,347.1,693.1,347,692.9z M346,707.5c-1.2,0.1-2.4,0.5-3.7,0.6c-2.6,0.2-5.2-0.6-7.7-1.1c-1.7-0.3-4.3-1.4-6.6-1.5
			c-0.3-0.3-0.5-0.6-0.8-0.9c3.1,1.3,7.2,1.6,10.3,2.1c2.8,0.5,5.8,1.1,8.3,0.2C345.9,707.1,345.9,707.3,346,707.5z"/>
	</g>
	<g>
		<path class="st5" d="M358.4,217c-5.3,3.6-14.1,5-16.3,11.8c-1.3,4,2.4,10.9,7,10.2c1.8,0.4,3.6,0.3,5.4,0.9
			c1.1,0.3,1.8-0.7,1.6-1.6c-0.2-1.5-0.4-3.1-0.7-4.7c0,0,0,0,0-0.1c0.1-0.3,0.2-0.6,0.3-0.9c0,0,0,0,0,0c0.5-2.3-0.4-4.8-0.9-7.2
			c-0.1-1.2-0.1-2.4,0-3.6c0.3-0.5,0.3-1.2,0.3-1.8c1.2-0.7,2.4-1.4,3.5-2.2C359.2,217.4,358.8,216.8,358.4,217z M354.5,220.7
			C354.5,220.7,354.5,220.7,354.5,220.7C354.5,220.7,354.5,220.7,354.5,220.7C354.5,220.7,354.5,220.7,354.5,220.7
			C354.5,220.7,354.5,220.7,354.5,220.7z"/>
		<path class="st5" d="M409.2,231.5c-0.5-0.8-1-1.6-1.4-2.3c-0.4-0.8-0.7-1.7-1-2.5c-0.5-1.5-0.8-3-1.2-4.5
			c-0.1-0.3-0.3-0.5-0.5-0.6c-0.4-2.6-0.8-5.2-1.5-7.7c-0.1-0.2-0.2-0.4-0.3-0.5c0,0,0,0,0,0c0.1-1.5,0.1-2.9,0-4.4
			c-0.1-1.1-0.1-2.6-0.4-4c0.1-1.8-0.1-3.6-0.3-5.4c0.1-2,0.4-4.1,0.4-6.1c0.1-0.1,0.2-0.2,0.3-0.3c1.5-0.4,1.9-2.2,2.3-3.6
			c0.6-2,0.7-4.1,1-6.1c0-0.4-0.2-0.7-0.4-0.8c0.1-0.5,0.1-0.9,0.2-1.4c1-1.8,0.9-4.3-0.1-6c0-0.1,0.1-0.2,0.1-0.3
			c2.1-7.8-5.5-17-11-21.6c-3.2-2.7-9.6-7-14.8-7.1c-0.6-0.9-1.6-1.4-2.8-1.4c-1.2,0.1-2.3,0.6-3,1.4c-0.4-0.1-0.8-0.1-1.2-0.2
			c-3.7-0.4-7.5,0.5-10.4,2.7c-1.5,0.5-3,1.3-4,2.1c-0.4,0.3-0.7,0.6-1,1c-1.9-0.1-3.7,0-5.5,0.1c-5.3,0.2-10.7,1-15.5,3.3
			c-4.4,2.1-8.4,5.6-11,9.7c-1.1,1.7-2.1,4.4-1.8,6.6c-2,3.9-3.2,7.9-3.7,12.5c-0.9,9.1-1,18.3-0.3,27.4c0.3,3.6,0.8,7.3,1.4,10.9
			c0.5,3.1,0.9,7.3,3.1,9.7c0.2,0.5,0.5,1,0.8,1.5c0.3,0.5,0.7,1,1.2,1.3c4,3.7,11.8,5.2,16.3,4.4c1.8-0.3,1.3-3.2-0.4-3.1
			c-0.7,0-1.3,0-2-0.1c-0.3-0.4-0.6-0.7-1-1.1c0.2-1.4-0.5-2.6-0.8-4.1c-0.8-3.5,2.4-5.3,4.9-6.8c3.2-1.9,7-3.3,9.2-6.2
			c0.4,0.2,0.8,0.2,1.2,0c1.6,1.2,3.9-1.3,2.3-2.8c-1.6-1.5-3.1-3.3-4-5.3c-0.1-0.4-0.4-0.6-0.6-0.7c-0.1-0.3-0.2-0.7-0.3-1
			c-0.8-3.1-1.3-6.2-1.5-9.4c-0.2-3.3-0.2-6.6-0.1-10c1.1-0.7,2-1.6,2.8-2.6c2-1.3,3.9-3.3,5.4-4.7c3.2-2.9,6.2-6,8.9-9.4
			c0.5-0.6,1.2-1.4,1.8-2.2c0.1,0,0.3-0.1,0.4-0.2c2.2-1.9,3.7-3.8,5.1-6.2c2.8,5,8.2,7.7,13.2,10.2c3.3,1.6,6.3,3.4,9,5.8
			c0.9,0.9,1.5,2,2,3.1c0.2,1.1,0.4,2.2,0.5,3.4c0.2,1.8-0.1,3.8-0.1,5.6c0,1,0.7,1.6,1.5,1.8c-1.3,3.7-1.8,8-1.1,11.9
			c-0.6,1.4-0.7,3-0.4,4.5c0,0.6-0.1,1.1-0.1,1.7c-0.4,1-0.7,2.1-0.8,3.2c-0.2,1.9-0.6,3.9-0.8,5.9c-0.3,0.2-0.5,0.4-0.7,0.7
			c-1.3,1.8-2.1,3.9-3.1,5.9c-0.1,0.2-0.2,0.4-0.3,0.6c-0.7,0.7-1.3,1.4-2,2.3c-0.6,0.8-1.1,1.6-1.1,2.5c-0.1,0.1-0.1,0.2-0.2,0.3
			c-1.7,1.1-3.4,2.2-5.1,3.3c-1.3,0.6-2.6,1-3.9,1.3c-0.7,0.1-1.5,0.2-2.2,0.3c-0.1,0-0.2,0-0.3,0c-0.1-0.2-0.2-0.4-0.5-0.5
			c-0.7-0.3-1.6-0.7-2.2-0.2c-0.3,0.2-0.5,0.5-0.4,0.9c0,0,0,0,0,0c-0.2,0-0.5,0.1-0.5,0.5c0,0.3-0.1,0.7-0.1,1c0,0,0,0-0.1,0
			c-0.2,0.2,0,0.6,0.2,0.6c0.1,0,0.1,0,0.2,0c0.2,0.1,0.4,0.1,0.5,0c1,0,1.9,0,2.9,0c1,0.2,2.1,0.2,3.2,0c1.6,0,3.1-0.1,4.7-0.5
			c0.4-0.1,0.9-0.2,1.3-0.4c0,0.1,0,0.2,0.1,0.2c0.2,0,0.2-0.2,0.1-0.3c2.1-0.7,4.4-1.8,6.4-3c0.5-0.1,1-0.3,1.5-0.4
			c2-0.5,5-0.5,6.9-1.7c0.5,0.2,1,0.3,1.5,0.2c1.2-0.4,2.1-0.5,3-1.4c0.4,0.4,1.1,0.6,1.7,0.4C409.2,232.7,409.6,232,409.2,231.5z"
			/>
	</g>
	<path class="st5" d="M556.6,322.7c-2.8-7.7-17.7-10.7-25.7-8.5c-8.2,2.3-54,2.6-58-0.4c-4.6-3.5-31.7-15.1-32.9-15.6c0,0,0,0,0,0
		c0.2-1.6,0.3-2.8,0.2-3.6c-0.3-4.7-10.5-9.3-11.8-9.9c-10.4-3.6-19.9-13-21.3-14.3c-2.5-9.5-30-10.7-31.1-10.7
		c-0.5,0-0.9,0.3-0.9,0.8c0,0.5,0.3,0.9,0.8,0.9c1.5,0.1,3.4,0.2,5.6,0.4c-0.2,0.3-0.2,0.7,0.1,1c0.9,1.2,8.1,10.6,10.1,12.9
		c-0.7,0.6-2.5,1.7-3.9,2.5c-3.1,1.8-6.6,3.9-7.6,5.8c-0.2,0.4-0.1,0.9,0.3,1.2c0.1,0.1,0.3,0.1,0.4,0.1c0.3,0,0.6-0.2,0.8-0.5
		c0.8-1.5,4.4-3.6,7-5.1c3.6-2.1,4.8-2.9,4.9-3.9c0-0.4-0.1-0.7-0.3-0.9c-0.9-0.9-7.4-9.3-10-12.8c9.1,1.1,21.2,3.7,22.4,9
		c0,0.2,0.1,0.3,0.2,0.4c0.4,0.4,10.6,10.9,22.1,14.9c4,1.8,10.5,5.6,10.7,8.4c0.3,4.5-3.5,20.7-5.3,22.8l-22.5-9
		c-0.1-0.1-0.3-0.1-0.4,0c-0.5-3.4-1.4-5.1-1.5-5.3c-0.2-0.4-0.7-0.6-1.2-0.4c-0.4,0.2-0.6,0.7-0.4,1.2c0,0.1,4.6,9.2-2.1,28.3
		c-6.2,17.7-6,45.2-4.6,51.9c-3.9,0.1-17.2,0.4-34,2.6c-16.9,2.2-28.2-1.9-30.9-3.1c3.9-11.7,0.2-26.8-2.5-37.9
		c-0.7-3-1.4-5.9-1.9-8.2c-1.8-9.6-8-21.9-10-25.8l6.6-0.4c0.5,0,0.8-0.4,0.8-0.9c0-0.5-0.4-0.8-0.9-0.8l-6.5,0.4
		c2.6-2.4,4.7-3.9,5.7-3.9c0.5,0,0.9-0.4,0.9-0.9c0-0.5-0.4-0.9-0.9-0.9c-4.4,0-20.9,18.5-26,24.3c-1-1.9-3.2-5-6.5-9.5
		c-3.7-5.2-8.8-12.3-9-14c-0.1-1.3,5.2-5.8,9.6-9.3c6-5,12.8-10.6,16.2-15.8c5.5-8.2,9.3-9.6,11.3-10.4c0.4-0.1,0.7-0.3,1-0.4
		c0.9-0.4,11.6-3.5,22-6.5c1.2,4.5,3.6,14,3.2,16.4c0,0.3,0,0.5,0.2,0.7c0.2,0.2,0.4,0.3,0.7,0.3c0.1,0,13.5-0.5,18,3.8
		c0.2,0.2,0.4,0.2,0.6,0.2c0.2,0,0.5-0.1,0.6-0.3c0.3-0.3,0.3-0.9,0-1.2c-4.4-4.1-15-4.3-18.3-4.3c0-4-2.4-13.1-3.3-16.2
		c2.7-0.8,5.4-1.5,7.8-2.2c0.5-0.1,0.7-0.6,0.6-1.1c-0.1-0.5-0.6-0.7-1.1-0.6c-0.9,0.3-4.2,1.2-8.2,2.3c-0.1,0-0.3,0-0.4,0
		c-0.1,0-0.2,0.1-0.3,0.2c-9,2.6-21.6,6.1-22.7,6.7c-0.2,0.1-0.5,0.2-0.8,0.3c-2.2,0.8-6.3,2.3-12.2,11c-3.3,5-10,10.5-15.9,15.4
		c-6.8,5.7-10.4,8.7-10.2,10.8c0.1,1.1,1.2,3.1,3,5.8c-2.5,2.4-21.2,20.8-19.5,32c1.6,10.7,28.4,64.5,57.9,73.6
		c-10.2,39.6-0.2,107.6-0.1,108.3c0,0.3,0.3,0.6,0.6,0.7c0.1,0,0.2,0,0.2,0c0.2,0,0.5-0.1,0.6-0.3c1.8-2.1,4.1-3.6,6.7-4.9
		c1,4.5,4.7,24.2-2,59.4c-8.2,43.1-0.1,95.3,0,95.8c0.8,4.9-0.6,13.7-0.8,15c-9.5,14.7-7.8,24.2-7.8,24.6c0.1,0.3,0.2,0.5,0.5,0.6
		c4.3,2.1,8.5,2.8,12.3,2.8c6.5,0,11.7-2.2,14-3.2c0.5-0.2,0.9-0.4,1.1-0.4c0.2-0.1,0.5-0.2,0.8-0.6c1.4-2.7-3-21-5.3-28
		c-2.8-8.5-4-31-4-40.6c0-8.7,3.6-52.7,8.6-67.7c4.8-14.3,4.9-55.9,4.9-61.4c4.4,0.1,7.5,0.5,7.6,0.5c7.7,1.2,14.5,1.8,20.3,2
		c0.2,1,0.5,2.4,0.9,4.1c2.1,10.3,7.8,37.6,6.4,41.7c-1.9,5.7,3.8,46.3,12.2,65.2c8.4,19.1,8.5,43.2,8.5,43.5l0.8,10.7l-3.1,2.3
		c-0.2,0.1-0.3,0.4-0.3,0.6l-0.9,8.5c-2.6,9.6,0,14.9,0.1,15.2c0.1,0.2,0.2,0.3,0.4,0.4c3,1.3,18.9-1.2,21.7-1.6
		c4.6,1.9,10.5,2.6,16.2,2.6c10.6,0,20.8-2.4,21.6-4c1-2-2.7-7.3-4.4-9.5c-0.2-0.2-0.4-0.3-0.6-0.3c-30.2-1.7-33.6-18-33.6-18.3
		c-0.1-0.4-8.8-37.1-12.3-54.2c-3.6-17.2-5.9-50-5.9-52.3l0-0.8c0-2.8,0-6.5-0.9-9c-0.6-1.8-4.3-28.4-6.7-46.1
		c15.3-2.9,17.7-9.6,17.9-10.1c0-0.1,0-0.1,0-0.2c3.4-41.7-10.4-89.9-14.9-105.7c-0.7-2.6-1.3-4.4-1.4-5.2
		c-1.2-5.6-2.2-11.1-2.4-12.1c0-0.2,0-0.3-0.2-0.5c0,0,0,0,0,0c0,0,0,0,0,0c-1.2-2.2-2.4-32.2,4.4-51.7c3.6-10.2,4-17.7,3.6-22.5
		l22.5,9c0.1,0,0.2,0.1,0.3,0.1c0.1,0,0.2,0,0.3-0.1c0.9-0.3,1.9-2.4,2.8-5.1c0,0.1,0.1,0.1,0.2,0.1c1,0.6,23.8,14.7,31.3,15.6
		c0.4,0.1,1,0.1,1.8,0.1c3.9,0,11.9-0.7,21.6-1.6c16.1-1.5,42.9-3.9,45.7-1.5c0.2,0.8,0.9,2.8,2.7,4c0.8,0.5,2,1.5,3.2,2.6
		c-2.1,4.7-2.5,7.5-1.3,8.2c0.2,0.1,0.5,0.2,0.7,0.2c0.1,0,0.3,0,0.4-0.1c0.4-0.1,0.8-0.4,1.3-0.9c0.1,1,0.3,1.7,0.7,2.1
		c0.2,0.2,0.5,0.3,0.7,0.3c0.1,0,0.2,0,0.3,0c0.7-0.2,1.8-1.2,2.6-2.2c0.1,0.3,0.2,0.6,0.2,0.9c0.2,1,1.1,1.6,2.1,1.4
		c0.6-0.1,1.1-0.4,1.3-0.8c0.1,0.3,0.3,0.6,0.6,0.8c0.3,0.3,0.7,0.3,1.1,0.3c0.7,0,1.3-0.3,1.4-0.4c0.1-0.1,0.2-0.2,0.3-0.3
		C562.5,332.5,557.2,323.7,556.6,322.7z M300.6,331.3c0.1,0,0.2,0,0.2,0c0.2,0,0.5-0.1,0.7-0.3c5-5.8,12.3-13.8,17.9-19.1l0.1,0
		c1.4,2.7,8.4,16.1,10.2,26c0.4,2.4,1.1,5.3,1.9,8.3c2.7,11.1,6.5,26.3,2.3,37.7v0c-0.3,0.7-5.8,15.6-6.1,18.9c0,0.2,0,0.3,0.1,0.4
		c-5.5-0.3-15.8-6.7-20.1-18.9c-4-11.2-16.3-36.9-20-44.7l10.6-11.7c0.8,1.3,1.4,2.2,1.4,2.6C300,330.9,300.3,331.2,300.6,331.3z
		 M269.2,343.1c-1.5-10,15.7-27.3,18.8-30.3c1.4,2.1,3.2,4.7,5.3,7.5c1.4,2,3.1,4.3,4.4,6.2L287.1,338c-0.2-0.3-0.3-0.5-0.3-0.6
		c-0.2-0.4-0.7-0.6-1.1-0.4c-0.4,0.2-0.6,0.7-0.4,1.1c0.2,0.3,16.2,33.6,21,46.8c4.6,12.8,15.7,20.1,22.1,20.1c0,0,0,0,0,0
		c0,0.1,0.1,0.1,0.2,0.2c0.4,0.3,0.9,0.2,1.2-0.2c0,0,0,0,0.1-0.1c0.4-0.1,0.6-0.4,0.6-0.8c1.6-1.9,5.6-6.3,9.4-5.8
		c6.3,0.8,10.9,2.6,13.6,5.3c0.7,0.7,0.9,1.2,1,1.3c-0.5,0.1-2.4-0.2-5.2-2.2c-0.8-0.5-2.1-0.7-3.7-0.8c-0.4,0-0.7-0.1-0.9-0.1
		c0,0-0.1,0-0.1,0c-0.7-0.1-1.1,0-1.1,0c-0.5,0.1-0.8,0.5-0.7,1c0.1,0.5,0.5,0.8,1,0.7c0,0,4-0.5,7.8,6.8c-0.2,0.6-0.6,1.3-0.8,1.4
		c-0.2,0-0.4,0.1-0.5,0.2c-2.6-4.6-7.2-7.3-7.5-7.4c-0.4-0.2-0.9-0.1-1.2,0.3c-0.2,0.4-0.1,0.9,0.3,1.2c0.1,0,5.3,3.1,7.5,8
		c-0.1,0.2-0.2,0.4-0.3,0.4c0,0-0.1,0-0.2,0c-0.4-0.2-0.7,0-1,0.2c-2-2.7-5-5.1-5.5-5.5c-0.4-0.3-0.9-0.2-1.2,0.1
		c-0.3,0.4-0.2,0.9,0.1,1.2c2.7,2.2,6.9,6.3,6.7,8.4c-0.1,0.2-0.2,0.4-0.2,0.6c-1.5-1.6-9.7-8.1-14.5-4.4c-2.3,1.8-2.7,1.6-3.3,1.4
		c-0.2-0.1-0.5-0.2-0.9-0.3c0,0,0,0,0,0c0,0,0,0,0,0C298.9,410.3,270.8,354,269.2,343.1z M348.9,577.9c-5,15.1-8.7,59.5-8.7,68.2
		c0,9.7,1.3,32.4,4.1,41.1c3,9.3,6.1,24.3,5.5,26.5c-0.3,0.1-0.6,0.2-1,0.4c-3.7,1.6-13.3,5.7-24.4,0.6c-0.2-1.9-0.4-10.6,7.7-23
		c0.1-0.1,0.1-0.2,0.1-0.3c0.1-0.4,1.8-10.2,0.9-15.8c-0.1-0.5-8.1-52.4,0-95.2c7-36.7,2.9-56.4,1.9-60.4c6.1-2.4,13.2-3.1,18.8-3.1
		C353.7,522.2,353.5,564,348.9,577.9z M408.7,565.1c0.8,2.2,0.8,5.9,0.8,8.4l0,0.8c0,2.3,2.3,35.3,5.9,52.6
		c3.5,17,12.2,53.8,12.3,54.2c0.1,0.7,3.5,17.7,34.8,19.6c2.3,3.2,4.1,6.5,4,7.3c-2,1.6-23.7,5.8-35.9,0.5c-0.2-0.1-0.3-0.1-0.5-0.1
		c-6.8,1.1-18,2.5-20.7,1.9c-0.5-1.2-1.9-6,0.2-13.7c0,0,0-0.1,0-0.1l0.8-8.2l3.1-2.4c0.2-0.2,0.4-0.5,0.3-0.8l-0.9-11.1
		c0-0.2-0.1-24.7-8.7-44.1c-8.5-19.2-13.7-59.2-12.1-64c1.3-4-2.3-22.9-6.4-42.6c-0.3-1.5-0.6-2.8-0.8-3.7
		c6.8,0.2,12.3-0.2,16.8-0.9C402.8,525.1,407.8,562.6,408.7,565.1z M405,402.9c4.5,15.8,18.1,63.7,14.8,105
		c-0.5,1.2-7.8,15.2-56.5,8c-1.1-0.2-25.1-3.5-36.6,7.4c-1.5-10.9-8.9-70.1,0.3-105.8c0.5,0.1,1.1,0.3,1.6,0.4c0,0,0,0,0,0
		c0.2,0,0.4,0.1,0.5,0.2c1.3,0.6,2.4,0.5,5-1.6c3.8-3,11.3,3.3,12.3,4.3c0.5,0.5,0.9,0.6,1.2,0.6c0.1,0,0.2,0,0.3,0
		c1-0.3,1.4-1.6,1.5-2c0,0,0-0.1,0-0.1c0.1-0.9-0.2-2-0.8-3c0,0,0.1,0,0.2,0c0.3,0,0.6-0.1,0.8-0.2c1-0.5,1.3-1.6,1.4-1.8
		c0.1-0.2,0-0.4,0-0.6c0-0.1-0.1-0.2-0.1-0.2c1.4-0.2,2.1-2.2,2.3-2.9c0.1-0.2,0-0.4-0.1-0.6c-0.9-1.9-1.9-3.3-2.9-4.4
		c1.5,0.8,2.8,1.2,3.8,1.2c0.7,0,1.3-0.2,1.7-0.6c0.4-0.5,0.8-1.7-1.2-3.7c-3-3-7.8-4.9-14.6-5.7c-4.2-0.5-8.2,3.3-10.3,5.7
		c0.7-3.3,3.9-12.4,5.5-16.8c2.5,1,10,3.8,21.7,3.8c3.1,0,6.4-0.2,10.1-0.7c17.3-2.2,31-2.5,34.2-2.6c0.3,1.8,1.3,6.6,2.3,11.6
		C403.7,398.4,404.2,400.2,405,402.9z M542.7,340.2c0.1-1,0.7-3.1,1.6-5.2c0.4,0.3,0.7,0.7,1,1C544.3,338,543.3,339.6,542.7,340.2z
		 M545.8,341.5c-0.1-0.6-0.1-1.7,0-2.7c0.3-0.5,0.6-1,0.8-1.4c0.2,0.2,0.3,0.4,0.4,0.5c0.3,0.4,0.5,1,0.8,1.5
		C547,340.2,546.3,341,545.8,341.5z M549.9,329c0-0.2,0.1-0.5,0.3-0.6c0.2-0.2,0.6-0.2,1-0.1c0.7,0.7,1.2,5,1.2,8.6
		C552.2,334.4,551.6,331.5,549.9,329z M554.1,342.2c-0.2,0.1-0.3,0.1-0.4,0.1c0-0.1,0-0.4,0.1-0.9c0.6-2.7,0.4-11.7-1.1-14
		c-0.3-0.4-0.6-0.7-1-0.8c-1.3-0.3-2.1,0.1-2.5,0.5c-1,0.8-1,2-1,2.2c0,0.2,0.1,0.4,0.2,0.5c2.8,3.8,2.5,9.4,2.3,11.5
		c0,0.3,0,0.6,0,0.7c-0.1,0-0.2,0-0.3-0.1c-0.4-2.1-1-3.7-1.8-5c-0.3-0.4-0.8-1-1.4-1.7c0,0,0,0,0,0c-1.8-1.9-4.7-4.5-6.3-5.6
		c-1.7-1.1-2.1-3.2-2.1-3.2c0,0,0,0,0,0c0-0.1,0-0.1-0.1-0.2c0-0.1,0-0.1-0.1-0.1c0,0,0,0,0,0c-2.5-3-21.2-1.6-47.2,0.8
		c-10.9,1-20.4,1.8-23,1.5c-7.1-0.9-30.4-15.2-30.6-15.4c-0.2-0.1-0.4-0.1-0.6-0.1c1.2-4,2.2-9,2.8-12.8
		c3.5,1.5,27.9,12.1,32.1,15.2c4.9,3.7,51.4,2.9,59.5,0.7c8-2.3,21.4,1.1,23.6,7.5c0,0.1,0.1,0.1,0.1,0.2c0,0,0,0,0,0.1
		C555.4,324,560.7,331.9,554.1,342.2z"/>
	<g>
		<path class="st5" d="M411.2,232.7c-8.4-14.5-7.5-36.2-7.4-38.3c11.1-22.2-4.8-38.4-4.9-38.6c-22.4-21.6-40.2-4.6-40.4-4.4
			c-0.1,0.1-0.2,0.3-0.2,0.5c-11.9-1.8-21.2,0.5-27.8,7c-20.3,19.9-8,71.4-7.4,73.6l0,0.2l0.1,0.2c4.4,5.4,17.4,7.1,25.6,7.7
			c0.2,0.1,0.3,0.1,0.5,0.2c0.1,0,0.2,0.1,0.3,0.1c0.2,0,0.4-0.1,0.5-0.2c2.4,0.1,4.3,0.2,5.1,0.2c0.8,8.2,0.9,16.3-1,18.2l-0.4,0.4
			l0.3,0.6c1,2.1,9.4,20.3,10.7,21.9c0.4,0.6,1.5,1.4,2.9,2.6c3,2.4,7.9,6.4,8.1,9c0,0.5,0.4,0.8,0.9,0.8c0,0,0,0,0.1,0
			c0.5,0,0.8-0.4,0.8-0.9c0-0.6-0.3-1.3-0.6-2c7.5-5.9,7.7-15.7,0.5-29.1c-5.7-10.7-2.4-23.2-2-24.6c1.9,0.5,3.4,0.7,4.4,0.7
			c1.4,0,2.1-0.2,2.2-0.3c11.3-3.5,17.7-20.3,17.7-30.5c0-9.1,1.2-18.3,1.2-18.4c0.1-0.5-0.3-0.9-0.7-1c-0.5-0.1-0.9,0.3-1,0.7
			c0,0.1-1.2,9.4-1.3,18.6c0,8.5-5.6,25.5-16.5,28.9c-0.1,0-8.5,2.6-24.1-13c-0.3-0.3-0.9-0.3-1.2,0c-0.3,0.3-0.3,0.9,0,1.2
			c7.4,7.4,13.3,10.9,17.5,12.4c-0.4,1.4-4.1,14.5,2.1,26c6.7,12.5,6.7,21.5,0.1,26.8c-1.8-2.4-4.8-4.8-7.2-6.8
			c-1.2-1-2.3-1.9-2.6-2.3c-0.9-1.1-6.5-13.1-10.3-21.1c3.7-5.4,0-28-0.4-30.7c-0.1-0.5-0.5-0.8-1-0.7c-0.5,0.1-0.8,0.5-0.7,1
			c0.5,2.8,1,6.3,1.3,9.7c-1,0-3.2-0.1-5.9-0.2c-6.3-2.5-9.5-5.3-9.5-8.1c0.1-5.7,13.3-11.4,18.4-13.1l1.3-0.4l-0.9-1
			c-10.1-10.6-7.4-25.3-6.9-27.6c7.2-5.1,16.8-13.3,21.4-23c0.2-0.4,0-0.9-0.4-1.1c-0.4-0.2-0.9,0-1.1,0.4
			c-7.5,15.9-29.5,27.9-29.7,28c-0.4,0.2-0.6,0.7-0.3,1.2c0.2,0.3,0.5,0.5,0.8,0.5c0.1,0,0.3,0,0.4-0.1c0.3-0.2,3.2-1.7,7.1-4.4
			c-0.7,4.8-1.5,16.9,6.8,26.5c-4.3,1.6-18.2,7.3-18.3,14.3c-0.1,2.8,2,5.3,6.2,7.6c-7.3-0.8-16-2.6-19.4-6.4
			c-0.8-3.5-12-53.1,7-71.8c7.5-7.3,18.7-9,33.6-5c0.5,0.1,0.9-0.1,1.1-0.6c0.1-0.5-0.1-0.9-0.6-1.1c-1.9-0.5-3.7-0.9-5.5-1.2
			c2.8-2.5,18-14,37.6,4.8c0.2,0.1,15.2,15.6,4.5,36.7l-0.1,0.2l0,0.2c-0.1,0.9-1.4,22.6,6.9,38.2c-4.8,0.2-20.6,1.3-25,5.9
			c-0.3,0.3-0.3,0.9,0,1.2c0.2,0.2,0.4,0.2,0.6,0.2c0.2,0,0.5-0.1,0.6-0.3c4.6-4.8,25-5.5,25.2-5.5l1.4,0L411.2,232.7z"/>
		<path class="st5" d="M375.4,192.4c0.2,0.2,0.4,0.3,0.7,0.3c0.2,0,0.4-0.1,0.5-0.2c0.4-0.3,0.4-0.8,0.1-1.2
			c-1.3-1.7-2.9-2.6-4.6-2.7c-2.9-0.2-5.2,2-5.3,2.1c-0.3,0.3-0.3,0.9,0,1.2c0.3,0.3,0.9,0.3,1.2,0c0,0,1.8-1.7,4-1.6
			C373.3,190.4,374.4,191.1,375.4,192.4z"/>
		<path class="st5" d="M391.2,192.5c0.9,0.1,1.6,0.7,2.3,1.6c0.2,0.2,0.4,0.4,0.7,0.4c0.2,0,0.3,0,0.5-0.1c0.4-0.3,0.5-0.8,0.2-1.2
			c-1-1.4-2.1-2.2-3.5-2.4c-2.3-0.3-4.2,1.3-4.2,1.4c-0.4,0.3-0.4,0.8-0.1,1.2c0.3,0.4,0.8,0.4,1.2,0.1
			C388.4,193.4,389.7,192.3,391.2,192.5z"/>
		<path class="st5" d="M383.9,219.1c1.1,0,2.3-0.1,3.6-0.3c0.5-0.1,0.8-0.5,0.7-1c-0.1-0.5-0.5-0.8-1-0.7
			c-8.5,1.5-15.3-3.5-15.4-3.6c-0.4-0.3-0.9-0.2-1.2,0.2c-0.3,0.4-0.2,0.9,0.2,1.2C371,215.1,376.4,219.1,383.9,219.1z"/>
	</g>
</g>
</svg>
