<?xml version="1.0" encoding="utf-8"?>
<!-- Generator: Adobe Illustrator 19.2.0, SVG Export Plug-In . SVG Version: 6.00 Build 0)  -->
<svg version="1.1" xmlns="http://www.w3.org/2000/svg" xmlns:xlink="http://www.w3.org/1999/xlink" x="0px" y="0px"
	 viewBox="0 0 1028 1471.3" style="enable-background:new 0 0 1028 1471.3;" xml:space="preserve">
<style type="text/css">
	.st0{clip-path:url(#SVGID_2_);fill:#FFFFFF;}
	.st1{clip-path:url(#SVGID_2_);fill:#D2EAF7;}
	.st2{clip-path:url(#SVGID_2_);fill:#233267;}
	.st3{clip-path:url(#SVGID_2_);fill:#B7A25F;}
	.st4{clip-path:url(#SVGID_2_);fill:#CCE1EA;}
	.st5{fill:#D2EAF7;}
	.st6{fill:#233267;}
</style>
<g id="Money">
	<g>
		<defs>
			<rect id="SVGID_1_" x="99.4" y="84" width="800" height="800"/>
		</defs>
		<clipPath id="SVGID_2_">
			<use xlink:href="#SVGID_1_"  style="overflow:visible;"/>
		</clipPath>
		<path class="st0" d="M386.5,128.3v-0.3c-0.3,0.4-0.7,0.7-1,1c-0.3,0.3-0.7,0.4-1.1,0.6c-0.4,0.1-0.8,0.2-1.3,0.2
			c-0.6,0-1.2-0.1-1.7-0.4c-0.5-0.3-1-0.6-1.4-1.1c-0.4-0.5-0.7-1.1-0.9-1.7c-0.2-0.7-0.3-1.4-0.3-2.1c0-1.6,0.4-2.9,1.2-3.8
			c0.8-0.9,1.8-1.4,3.1-1.4c0.7,0,1.4,0.1,1.9,0.4c0.5,0.3,1,0.7,1.5,1.2V117c0-0.5,0.1-0.9,0.3-1.2c0.2-0.3,0.5-0.4,0.9-0.4
			c0.4,0,0.7,0.1,0.9,0.4c0.2,0.3,0.3,0.6,0.3,1.1v11.4c0,0.5-0.1,0.9-0.3,1.1c-0.2,0.2-0.5,0.4-0.9,0.4c-0.4,0-0.6-0.1-0.9-0.4
			C386.6,129.2,386.5,128.8,386.5,128.3 M381.4,124.5c0,0.7,0.1,1.3,0.3,1.8c0.2,0.5,0.5,0.9,0.9,1.1c0.4,0.3,0.8,0.4,1.2,0.4
			c0.5,0,0.9-0.1,1.2-0.4c0.4-0.2,0.7-0.6,0.9-1.1c0.2-0.5,0.3-1.1,0.3-1.8c0-0.7-0.1-1.3-0.3-1.8c-0.2-0.5-0.5-0.9-0.9-1.1
			c-0.4-0.3-0.8-0.4-1.3-0.4c-0.5,0-0.9,0.1-1.3,0.4c-0.4,0.3-0.7,0.7-0.9,1.2C381.5,123.3,381.4,123.8,381.4,124.5"/>
		<path class="st0" d="M397.9,125.2h-5.1c0,0.6,0.1,1.1,0.4,1.6c0.2,0.4,0.5,0.8,0.9,1c0.4,0.2,0.8,0.3,1.3,0.3c0.3,0,0.6,0,0.8-0.1
			c0.3-0.1,0.5-0.2,0.7-0.3c0.2-0.2,0.5-0.3,0.7-0.5c0.2-0.2,0.5-0.4,0.8-0.7c0.1-0.1,0.3-0.2,0.6-0.2c0.3,0,0.5,0.1,0.6,0.2
			c0.2,0.1,0.2,0.4,0.2,0.6c0,0.2-0.1,0.5-0.3,0.8c-0.2,0.3-0.5,0.6-0.8,0.9c-0.4,0.3-0.8,0.5-1.4,0.7c-0.6,0.2-1.2,0.3-1.9,0.3
			c-1.7,0-3-0.5-3.9-1.4c-0.9-0.9-1.4-2.2-1.4-3.9c0-0.8,0.1-1.5,0.3-2.1c0.2-0.7,0.6-1.2,1-1.7c0.4-0.5,1-0.8,1.6-1.1
			c0.6-0.2,1.3-0.4,2.1-0.4c1,0,1.9,0.2,2.6,0.6c0.7,0.4,1.3,1,1.6,1.7c0.4,0.7,0.5,1.4,0.5,2.1c0,0.7-0.2,1.1-0.6,1.3
			C399.1,125.1,398.6,125.2,397.9,125.2 M392.8,123.7h4.7c-0.1-0.9-0.3-1.6-0.7-2c-0.4-0.4-1-0.7-1.6-0.7c-0.6,0-1.2,0.2-1.6,0.7
			C393.2,122.2,392.9,122.8,392.8,123.7"/>
		<path class="st0" d="M409.7,126.4c0,0.7-0.2,1.3-0.5,1.8c-0.3,0.5-0.9,0.9-1.5,1.2c-0.7,0.3-1.5,0.4-2.5,0.4
			c-0.9,0-1.7-0.1-2.4-0.4c-0.7-0.3-1.2-0.6-1.5-1.1c-0.3-0.4-0.5-0.9-0.5-1.3c0-0.3,0.1-0.5,0.3-0.7c0.2-0.2,0.5-0.3,0.8-0.3
			c0.3,0,0.5,0.1,0.6,0.2c0.1,0.1,0.3,0.3,0.4,0.6c0.3,0.5,0.6,0.8,1,1c0.4,0.2,0.9,0.3,1.5,0.3c0.5,0,0.9-0.1,1.3-0.3
			c0.3-0.2,0.5-0.5,0.5-0.8c0-0.5-0.2-0.8-0.5-1c-0.3-0.2-0.9-0.4-1.7-0.6c-0.9-0.2-1.6-0.5-2.2-0.7c-0.6-0.2-1-0.6-1.3-1
			c-0.3-0.4-0.5-0.9-0.5-1.5c0-0.5,0.2-1,0.5-1.5c0.3-0.5,0.8-0.8,1.4-1.1c0.6-0.3,1.3-0.4,2.2-0.4c0.7,0,1.3,0.1,1.8,0.2
			c0.5,0.1,1,0.3,1.3,0.6c0.4,0.2,0.6,0.5,0.8,0.8c0.2,0.3,0.3,0.6,0.3,0.8c0,0.3-0.1,0.5-0.3,0.7c-0.2,0.2-0.5,0.3-0.9,0.3
			c-0.3,0-0.5-0.1-0.7-0.2c-0.2-0.2-0.4-0.4-0.6-0.7c-0.2-0.3-0.4-0.5-0.7-0.6c-0.3-0.2-0.6-0.2-1.1-0.2c-0.5,0-0.9,0.1-1.2,0.3
			c-0.3,0.2-0.5,0.4-0.5,0.7c0,0.3,0.1,0.5,0.3,0.7c0.2,0.2,0.5,0.3,0.9,0.4c0.4,0.1,0.9,0.3,1.6,0.4c0.8,0.2,1.5,0.4,2,0.7
			c0.5,0.3,0.9,0.6,1.2,1C409.6,125.5,409.7,125.9,409.7,126.4"/>
		<path class="st0" d="M412.4,118c-0.4,0-0.7-0.1-0.9-0.3c-0.3-0.2-0.4-0.5-0.4-0.9c0-0.4,0.1-0.7,0.4-0.9c0.3-0.2,0.6-0.4,0.9-0.4
			c0.3,0,0.6,0.1,0.9,0.3c0.3,0.2,0.4,0.5,0.4,0.9c0,0.4-0.1,0.7-0.4,0.9C413,117.9,412.7,118,412.4,118 M413.6,120.7v7.5
			c0,0.5-0.1,0.9-0.4,1.2c-0.2,0.3-0.6,0.4-0.9,0.4c-0.4,0-0.7-0.1-0.9-0.4c-0.2-0.3-0.4-0.7-0.4-1.2v-7.4c0-0.5,0.1-0.9,0.4-1.2
			c0.2-0.3,0.5-0.4,0.9-0.4c0.4,0,0.7,0.1,0.9,0.4C413.5,119.9,413.6,120.3,413.6,120.7"/>
		<path class="st0" d="M425,121.2v7.5c0,0.9-0.1,1.6-0.3,2.2c-0.2,0.6-0.5,1.1-0.9,1.5c-0.4,0.4-0.9,0.7-1.6,0.9
			c-0.7,0.2-1.5,0.3-2.4,0.3c-0.9,0-1.7-0.1-2.4-0.4c-0.7-0.3-1.2-0.6-1.6-1c-0.4-0.4-0.6-0.8-0.6-1.2c0-0.3,0.1-0.6,0.3-0.8
			c0.2-0.2,0.5-0.3,0.8-0.3c0.4,0,0.7,0.2,1,0.5c0.1,0.2,0.3,0.3,0.4,0.5c0.1,0.2,0.3,0.3,0.5,0.4c0.2,0.1,0.4,0.2,0.7,0.3
			c0.3,0.1,0.5,0.1,0.9,0.1c0.7,0,1.2-0.1,1.6-0.3c0.4-0.2,0.6-0.4,0.8-0.8c0.1-0.3,0.2-0.7,0.3-1.1c0-0.4,0-1,0.1-1.8
			c-0.4,0.6-0.9,1-1.4,1.3c-0.5,0.3-1.1,0.4-1.9,0.4c-0.9,0-1.6-0.2-2.3-0.7c-0.6-0.4-1.1-1.1-1.5-1.9c-0.3-0.8-0.5-1.7-0.5-2.8
			c0-0.8,0.1-1.5,0.3-2.1c0.2-0.6,0.5-1.2,0.9-1.6c0.4-0.4,0.8-0.8,1.4-1c0.5-0.2,1.1-0.3,1.7-0.3c0.7,0,1.4,0.1,1.9,0.4
			c0.5,0.3,1,0.7,1.5,1.3v-0.4c0-0.4,0.1-0.8,0.3-1c0.2-0.2,0.5-0.4,0.9-0.4c0.5,0,0.8,0.2,1,0.5C424.9,120.1,425,120.5,425,121.2
			 M417.5,124.4c0,1.1,0.2,1.8,0.7,2.4c0.5,0.5,1.1,0.8,1.8,0.8c0.4,0,0.8-0.1,1.2-0.3c0.4-0.2,0.7-0.6,0.9-1c0.2-0.5,0.4-1,0.4-1.7
			c0-1.1-0.2-1.9-0.7-2.5c-0.5-0.6-1.1-0.9-1.8-0.9c-0.7,0-1.3,0.3-1.8,0.8C417.7,122.6,417.5,123.4,417.5,124.4"/>
		<path class="st0" d="M429.1,120.7v0.3c0.5-0.6,1-1,1.5-1.3c0.5-0.3,1.2-0.4,1.9-0.4c0.7,0,1.3,0.1,1.8,0.4
			c0.5,0.3,0.9,0.7,1.2,1.3c0.2,0.3,0.3,0.7,0.3,1c0.1,0.4,0.1,0.8,0.1,1.4v4.8c0,0.5-0.1,0.9-0.4,1.2c-0.2,0.3-0.5,0.4-0.9,0.4
			c-0.4,0-0.7-0.1-0.9-0.4c-0.2-0.3-0.4-0.7-0.4-1.2v-4.3c0-0.9-0.1-1.5-0.4-2c-0.2-0.5-0.7-0.7-1.4-0.7c-0.5,0-0.9,0.1-1.3,0.4
			c-0.4,0.3-0.7,0.7-0.8,1.1c-0.1,0.4-0.2,1.1-0.2,2.2v3.2c0,0.5-0.1,0.9-0.4,1.2c-0.2,0.3-0.6,0.4-0.9,0.4c-0.4,0-0.7-0.1-0.9-0.4
			c-0.2-0.3-0.4-0.7-0.4-1.2v-7.5c0-0.5,0.1-0.9,0.3-1.1c0.2-0.2,0.5-0.4,0.9-0.4c0.2,0,0.4,0.1,0.6,0.2c0.2,0.1,0.3,0.3,0.4,0.5
			C429.1,120.1,429.1,120.4,429.1,120.7"/>
		<path class="st0" d="M444.9,125.2h-5.1c0,0.6,0.1,1.1,0.4,1.6c0.2,0.4,0.5,0.8,0.9,1c0.4,0.2,0.8,0.3,1.3,0.3c0.3,0,0.6,0,0.9-0.1
			c0.3-0.1,0.5-0.2,0.7-0.3c0.2-0.2,0.5-0.3,0.7-0.5c0.2-0.2,0.5-0.4,0.8-0.7c0.1-0.1,0.3-0.2,0.6-0.2c0.3,0,0.5,0.1,0.6,0.2
			c0.2,0.1,0.2,0.4,0.2,0.6c0,0.2-0.1,0.5-0.3,0.8c-0.2,0.3-0.5,0.6-0.8,0.9c-0.4,0.3-0.8,0.5-1.4,0.7c-0.6,0.2-1.2,0.3-1.9,0.3
			c-1.7,0-3-0.5-3.9-1.4c-0.9-0.9-1.4-2.2-1.4-3.9c0-0.8,0.1-1.5,0.3-2.1c0.2-0.7,0.6-1.2,1-1.7c0.4-0.5,1-0.8,1.6-1.1
			c0.6-0.2,1.3-0.4,2.1-0.4c1,0,1.9,0.2,2.6,0.6c0.7,0.4,1.3,1,1.6,1.7c0.4,0.7,0.5,1.4,0.5,2.1c0,0.7-0.2,1.1-0.6,1.3
			C446.1,125.1,445.6,125.2,444.9,125.2 M439.8,123.7h4.7c-0.1-0.9-0.3-1.6-0.7-2c-0.4-0.4-1-0.7-1.6-0.7c-0.6,0-1.2,0.2-1.6,0.7
			C440.2,122.2,439.9,122.8,439.8,123.7"/>
		<path class="st0" d="M455.5,128.3v-0.3c-0.3,0.4-0.7,0.7-1,1c-0.3,0.3-0.7,0.4-1.1,0.6c-0.4,0.1-0.8,0.2-1.3,0.2
			c-0.6,0-1.2-0.1-1.7-0.4c-0.5-0.3-1-0.6-1.4-1.1c-0.4-0.5-0.7-1.1-0.9-1.7c-0.2-0.7-0.3-1.4-0.3-2.1c0-1.6,0.4-2.9,1.2-3.8
			c0.8-0.9,1.8-1.4,3.1-1.4c0.7,0,1.4,0.1,1.9,0.4c0.5,0.3,1,0.7,1.5,1.2V117c0-0.5,0.1-0.9,0.3-1.2c0.2-0.3,0.5-0.4,0.9-0.4
			c0.4,0,0.7,0.1,0.9,0.4c0.2,0.3,0.3,0.6,0.3,1.1v11.4c0,0.5-0.1,0.9-0.3,1.1c-0.2,0.2-0.5,0.4-0.9,0.4c-0.4,0-0.6-0.1-0.9-0.4
			C455.6,129.2,455.5,128.8,455.5,128.3 M450.4,124.5c0,0.7,0.1,1.3,0.3,1.8c0.2,0.5,0.5,0.9,0.9,1.1c0.4,0.3,0.8,0.4,1.2,0.4
			c0.5,0,0.9-0.1,1.2-0.4c0.4-0.2,0.7-0.6,0.9-1.1c0.2-0.5,0.3-1.1,0.3-1.8c0-0.7-0.1-1.3-0.3-1.8c-0.2-0.5-0.5-0.9-0.9-1.1
			c-0.4-0.3-0.8-0.4-1.3-0.4c-0.5,0-0.9,0.1-1.3,0.4c-0.4,0.3-0.7,0.7-0.9,1.2C450.5,123.3,450.4,123.8,450.4,124.5"/>
		<path class="st0" d="M466.1,116.9v4c0.5-0.5,1-0.9,1.5-1.2c0.5-0.3,1.1-0.4,1.9-0.4c0.9,0,1.6,0.2,2.3,0.6c0.6,0.4,1.2,1,1.5,1.8
			c0.4,0.8,0.5,1.7,0.5,2.8c0,0.8-0.1,1.5-0.3,2.2c-0.2,0.7-0.5,1.2-0.9,1.7c-0.4,0.5-0.8,0.9-1.4,1.1c-0.5,0.3-1.1,0.4-1.8,0.4
			c-0.4,0-0.8,0-1.1-0.1c-0.4-0.1-0.7-0.2-0.9-0.4c-0.2-0.2-0.5-0.3-0.6-0.5c-0.2-0.2-0.4-0.4-0.7-0.7v0.3c0,0.5-0.1,0.9-0.4,1.1
			c-0.2,0.2-0.5,0.4-0.9,0.4c-0.4,0-0.7-0.1-0.9-0.4c-0.2-0.3-0.3-0.6-0.3-1.1V117c0-0.5,0.1-0.9,0.3-1.2c0.2-0.3,0.5-0.4,0.9-0.4
			c0.4,0,0.7,0.1,0.9,0.4C466,116,466.1,116.4,466.1,116.9 M466.2,124.6c0,1,0.2,1.8,0.7,2.4c0.5,0.6,1.1,0.8,1.9,0.8
			c0.7,0,1.2-0.3,1.7-0.9c0.5-0.6,0.7-1.4,0.7-2.4c0-0.7-0.1-1.3-0.3-1.8c-0.2-0.5-0.5-0.9-0.8-1.1c-0.4-0.3-0.8-0.4-1.3-0.4
			c-0.5,0-0.9,0.1-1.3,0.4c-0.4,0.3-0.7,0.7-0.9,1.2C466.3,123.3,466.2,123.9,466.2,124.6"/>
		<path class="st0" d="M477.1,130.1l0.2-0.6l-3.2-8c-0.2-0.5-0.3-0.8-0.3-1c0-0.2,0.1-0.4,0.2-0.6c0.1-0.2,0.3-0.3,0.5-0.5
			c0.2-0.1,0.4-0.2,0.6-0.2c0.4,0,0.7,0.1,0.8,0.4c0.2,0.2,0.4,0.6,0.5,1l2.2,6.4l2.1-5.9c0.2-0.5,0.3-0.9,0.4-1.1
			c0.1-0.3,0.3-0.5,0.4-0.5c0.1-0.1,0.4-0.1,0.6-0.1c0.2,0,0.4,0.1,0.6,0.2c0.2,0.1,0.3,0.2,0.4,0.4c0.1,0.2,0.1,0.4,0.1,0.6
			c0,0.1-0.1,0.3-0.1,0.5c-0.1,0.2-0.1,0.4-0.2,0.7l-3.4,8.9c-0.3,0.8-0.6,1.4-0.9,1.8c-0.3,0.4-0.6,0.8-1.1,1
			c-0.5,0.2-1.1,0.4-1.9,0.4c-0.8,0-1.3-0.1-1.7-0.2c-0.4-0.2-0.6-0.5-0.6-0.9c0-0.3,0.1-0.5,0.3-0.7c0.2-0.2,0.4-0.2,0.8-0.2
			c0.1,0,0.3,0,0.4,0.1c0.2,0,0.3,0.1,0.4,0.1c0.3,0,0.5,0,0.7-0.1c0.2-0.1,0.3-0.2,0.5-0.5C476.8,130.9,476.9,130.5,477.1,130.1"/>
		<path class="st0" d="M514.7,119.5h0.6v-0.8c0-0.8,0.1-1.5,0.3-1.9c0.2-0.5,0.6-0.8,1-1c0.5-0.2,1.2-0.3,2-0.3
			c1.5,0,2.3,0.4,2.3,1.1c0,0.2-0.1,0.4-0.2,0.6c-0.2,0.2-0.3,0.3-0.6,0.3c-0.1,0-0.3,0-0.5-0.1c-0.2,0-0.5-0.1-0.6-0.1
			c-0.5,0-0.8,0.1-0.9,0.4c-0.1,0.3-0.2,0.7-0.2,1.2v0.6h0.6c1,0,1.5,0.3,1.5,0.9c0,0.4-0.1,0.7-0.4,0.8c-0.3,0.1-0.6,0.2-1.1,0.2
			h-0.6v6.9c0,0.5-0.1,0.9-0.4,1.2c-0.2,0.3-0.6,0.4-0.9,0.4c-0.4,0-0.7-0.1-0.9-0.4c-0.2-0.3-0.4-0.7-0.4-1.2v-6.9h-0.7
			c-0.4,0-0.7-0.1-0.9-0.3c-0.2-0.2-0.3-0.4-0.3-0.7C513.4,119.8,513.8,119.5,514.7,119.5"/>
		<path class="st0" d="M523.2,126.1v2.2c0,0.5-0.1,0.9-0.4,1.2c-0.2,0.3-0.6,0.4-0.9,0.4c-0.4,0-0.7-0.1-0.9-0.4
			c-0.2-0.3-0.4-0.7-0.4-1.2V121c0-1.2,0.4-1.7,1.3-1.7c0.4,0,0.7,0.1,0.9,0.4c0.2,0.3,0.3,0.7,0.3,1.2c0.3-0.5,0.6-0.9,0.9-1.2
			c0.3-0.3,0.8-0.4,1.3-0.4c0.5,0,1.1,0.1,1.6,0.4c0.5,0.3,0.8,0.6,0.8,1.1c0,0.3-0.1,0.6-0.3,0.8c-0.2,0.2-0.5,0.3-0.7,0.3
			c-0.1,0-0.3-0.1-0.7-0.2c-0.4-0.1-0.7-0.2-1-0.2c-0.4,0-0.7,0.1-0.9,0.3c-0.2,0.2-0.4,0.5-0.6,0.9c-0.1,0.4-0.2,0.9-0.3,1.4
			C523.2,124.6,523.2,125.3,523.2,126.1"/>
		<path class="st0" d="M535.1,125.2H530c0,0.6,0.1,1.1,0.4,1.6c0.2,0.4,0.5,0.8,0.9,1c0.4,0.2,0.8,0.3,1.3,0.3c0.3,0,0.6,0,0.8-0.1
			c0.3-0.1,0.5-0.2,0.7-0.3c0.2-0.2,0.5-0.3,0.7-0.5c0.2-0.2,0.5-0.4,0.8-0.7c0.1-0.1,0.3-0.2,0.6-0.2c0.3,0,0.5,0.1,0.6,0.2
			c0.2,0.1,0.2,0.4,0.2,0.6c0,0.2-0.1,0.5-0.3,0.8c-0.2,0.3-0.5,0.6-0.8,0.9c-0.4,0.3-0.8,0.5-1.4,0.7c-0.6,0.2-1.2,0.3-1.9,0.3
			c-1.7,0-3-0.5-3.9-1.4c-0.9-1-1.4-2.2-1.4-3.9c0-0.8,0.1-1.5,0.3-2.1c0.2-0.7,0.6-1.2,1-1.7c0.4-0.5,1-0.8,1.6-1.1
			c0.6-0.2,1.3-0.4,2.1-0.4c1,0,1.9,0.2,2.6,0.6c0.7,0.4,1.3,1,1.6,1.7c0.4,0.7,0.5,1.4,0.5,2.1c0,0.6-0.2,1.1-0.6,1.3
			C536.3,125.1,535.8,125.2,535.1,125.2 M530,123.7h4.7c-0.1-0.9-0.3-1.5-0.7-2c-0.4-0.4-1-0.7-1.6-0.7c-0.6,0-1.2,0.2-1.6,0.7
			C530.4,122.2,530.1,122.8,530,123.7"/>
		<path class="st0" d="M545.9,125.2h-5.1c0,0.6,0.1,1.1,0.4,1.6c0.2,0.4,0.5,0.8,0.9,1c0.4,0.2,0.8,0.3,1.3,0.3c0.3,0,0.6,0,0.8-0.1
			c0.3-0.1,0.5-0.2,0.8-0.3c0.2-0.2,0.5-0.3,0.7-0.5c0.2-0.2,0.5-0.4,0.8-0.7c0.1-0.1,0.3-0.2,0.6-0.2c0.3,0,0.5,0.1,0.7,0.2
			c0.2,0.1,0.2,0.4,0.2,0.6c0,0.2-0.1,0.5-0.3,0.8c-0.2,0.3-0.5,0.6-0.8,0.9c-0.4,0.3-0.8,0.5-1.4,0.7c-0.6,0.2-1.2,0.3-1.9,0.3
			c-1.7,0-3-0.5-3.9-1.4c-0.9-1-1.4-2.2-1.4-3.9c0-0.8,0.1-1.5,0.3-2.1c0.2-0.7,0.6-1.2,1-1.7c0.4-0.5,1-0.8,1.6-1.1
			c0.6-0.2,1.3-0.4,2.1-0.4c1,0,1.9,0.2,2.6,0.6c0.7,0.4,1.3,1,1.6,1.7c0.4,0.7,0.5,1.4,0.5,2.1c0,0.6-0.2,1.1-0.6,1.3
			C547.1,125.1,546.5,125.2,545.9,125.2 M540.8,123.7h4.7c-0.1-0.9-0.3-1.5-0.7-2c-0.4-0.4-1-0.7-1.6-0.7c-0.6,0-1.2,0.2-1.6,0.7
			C541.1,122.2,540.9,122.8,540.8,123.7"/>
		<path class="st0" d="M551.6,120.7v0.3c0.5-0.6,1-1,1.5-1.3c0.5-0.3,1.1-0.4,1.8-0.4c0.8,0,1.5,0.2,2.2,0.6c0.7,0.4,1.2,1,1.6,1.8
			c0.4,0.8,0.6,1.7,0.6,2.8c0,0.8-0.1,1.5-0.3,2.2c-0.2,0.7-0.5,1.2-0.9,1.7c-0.4,0.5-0.9,0.8-1.4,1c-0.5,0.2-1.1,0.4-1.7,0.4
			c-0.7,0-1.4-0.1-1.9-0.4c-0.5-0.3-1-0.7-1.4-1.3v3.9c0,1.1-0.4,1.7-1.2,1.7c-0.5,0-0.8-0.1-1-0.4c-0.2-0.3-0.2-0.7-0.2-1.3v-11.2
			c0-0.5,0.1-0.9,0.3-1.1c0.2-0.2,0.5-0.4,0.9-0.4c0.4,0,0.7,0.1,0.9,0.4C551.4,119.9,551.6,120.2,551.6,120.7 M556.6,124.5
			c0-0.7-0.1-1.3-0.3-1.8c-0.2-0.5-0.5-0.9-0.9-1.1c-0.4-0.3-0.8-0.4-1.2-0.4c-0.7,0-1.3,0.3-1.8,0.8c-0.5,0.6-0.7,1.4-0.7,2.5
			c0,1,0.2,1.8,0.7,2.4c0.5,0.6,1.1,0.9,1.8,0.9c0.4,0,0.8-0.1,1.2-0.4c0.4-0.3,0.7-0.6,0.9-1.1
			C556.5,125.8,556.6,125.2,556.6,124.5"/>
		<path class="st0" d="M561.9,118c-0.4,0-0.7-0.1-0.9-0.3c-0.3-0.2-0.4-0.5-0.4-0.9c0-0.4,0.1-0.7,0.4-0.9c0.3-0.2,0.6-0.4,0.9-0.4
			c0.3,0,0.6,0.1,0.9,0.3c0.3,0.2,0.4,0.5,0.4,0.9c0,0.4-0.1,0.7-0.4,0.9C562.5,117.9,562.2,118,561.9,118 M563.1,120.7v7.5
			c0,0.5-0.1,0.9-0.4,1.2c-0.2,0.3-0.6,0.4-0.9,0.4c-0.4,0-0.7-0.1-0.9-0.4c-0.2-0.3-0.4-0.7-0.4-1.2v-7.4c0-0.5,0.1-0.9,0.4-1.2
			c0.2-0.3,0.5-0.4,0.9-0.4c0.4,0,0.7,0.1,0.9,0.4C563,119.9,563.1,120.3,563.1,120.7"/>
		<path class="st0" d="M571.5,128.6l-2.3-3.8l-1.4,1.3v2.1c0,0.5-0.1,0.9-0.4,1.1c-0.3,0.3-0.6,0.4-0.9,0.4c-0.4,0-0.7-0.1-0.9-0.4
			c-0.2-0.3-0.3-0.7-0.3-1.2v-11.1c0-0.6,0.1-1,0.3-1.3c0.2-0.3,0.5-0.5,1-0.5c0.4,0,0.7,0.1,0.9,0.4c0.2,0.3,0.4,0.7,0.4,1.2v6.3
			l2.9-3.1c0.4-0.4,0.6-0.6,0.8-0.8c0.2-0.1,0.4-0.2,0.7-0.2c0.3,0,0.6,0.1,0.8,0.3c0.2,0.2,0.3,0.5,0.3,0.8c0,0.4-0.4,0.9-1.1,1.5
			l-1.4,1.3l2.7,4.2c0.2,0.3,0.3,0.5,0.4,0.7c0.1,0.2,0.1,0.3,0.1,0.5c0,0.4-0.1,0.7-0.3,1c-0.2,0.2-0.5,0.4-0.9,0.4
			c-0.3,0-0.6-0.1-0.7-0.3C572,129.4,571.8,129.1,571.5,128.6"/>
		<path class="st0" d="M577.1,129.8c-0.4,0-0.7-0.1-1-0.4c-0.3-0.2-0.4-0.6-0.4-1.1c0-0.4,0.1-0.7,0.4-1c0.3-0.3,0.6-0.4,1-0.4
			c0.4,0,0.7,0.1,1,0.4c0.3,0.3,0.4,0.6,0.4,1c0,0.5-0.1,0.8-0.4,1.1C577.8,129.7,577.5,129.8,577.1,129.8"/>
		<path class="st0" d="M590,126.6c0,0.3-0.1,0.7-0.3,1c-0.2,0.4-0.5,0.7-0.9,1c-0.4,0.3-0.9,0.6-1.5,0.8c-0.6,0.2-1.3,0.3-2,0.3
			c-1.6,0-2.9-0.5-3.8-1.4c-0.9-0.9-1.3-2.2-1.3-3.8c0-1.1,0.2-2,0.6-2.8c0.4-0.8,1-1.4,1.8-1.9c0.8-0.4,1.7-0.7,2.8-0.7
			c0.7,0,1.3,0.1,1.9,0.3c0.6,0.2,1,0.5,1.4,0.8c0.4,0.3,0.7,0.6,0.9,1c0.2,0.4,0.3,0.7,0.3,1s-0.1,0.6-0.3,0.8
			c-0.2,0.2-0.5,0.3-0.8,0.3c-0.2,0-0.4-0.1-0.5-0.2c-0.1-0.1-0.3-0.3-0.5-0.5c-0.3-0.5-0.6-0.8-1-1.1c-0.3-0.2-0.8-0.4-1.3-0.4
			c-0.8,0-1.4,0.3-1.9,0.9c-0.5,0.6-0.7,1.4-0.7,2.5c0,0.5,0.1,0.9,0.2,1.3c0.1,0.4,0.3,0.8,0.5,1c0.2,0.3,0.5,0.5,0.8,0.7
			c0.3,0.2,0.7,0.2,1.1,0.2c0.5,0,1-0.1,1.3-0.4c0.4-0.2,0.7-0.6,1-1.1c0.2-0.3,0.3-0.5,0.5-0.7c0.2-0.2,0.4-0.2,0.7-0.2
			c0.3,0,0.6,0.1,0.8,0.4C589.9,126.1,590,126.3,590,126.6"/>
		<path class="st0" d="M601.2,124.5c0,0.8-0.1,1.5-0.4,2.1c-0.2,0.7-0.6,1.2-1,1.7c-0.5,0.5-1,0.8-1.6,1.1c-0.6,0.2-1.3,0.4-2.1,0.4
			c-0.8,0-1.5-0.1-2.1-0.4c-0.6-0.2-1.2-0.6-1.6-1.1c-0.5-0.5-0.8-1-1.1-1.7c-0.2-0.6-0.4-1.4-0.4-2.1c0-0.8,0.1-1.5,0.4-2.2
			c0.2-0.7,0.6-1.2,1-1.7c0.5-0.5,1-0.8,1.6-1.1c0.6-0.2,1.3-0.4,2.1-0.4c0.8,0,1.5,0.1,2.1,0.4c0.6,0.3,1.2,0.6,1.6,1.1
			c0.5,0.5,0.8,1,1,1.7C601.1,123,601.2,123.7,601.2,124.5 M598.6,124.5c0-1.1-0.2-1.9-0.7-2.5c-0.5-0.6-1.1-0.9-1.9-0.9
			c-0.5,0-1,0.1-1.3,0.4c-0.4,0.3-0.7,0.6-0.9,1.2c-0.2,0.5-0.3,1.1-0.3,1.8c0,0.7,0.1,1.3,0.3,1.8c0.2,0.5,0.5,0.9,0.9,1.2
			c0.4,0.3,0.8,0.4,1.4,0.4c0.8,0,1.4-0.3,1.9-0.9C598.4,126.4,598.6,125.6,598.6,124.5"/>
		<path class="st0" d="M611.1,124.7v3.4c0,0.5-0.1,1-0.4,1.2c-0.2,0.3-0.6,0.4-1,0.4c-0.4,0-0.7-0.1-1-0.4c-0.2-0.3-0.4-0.7-0.4-1.2
			V124c0-0.7,0-1.2-0.1-1.5c0-0.4-0.2-0.7-0.4-0.9c-0.2-0.2-0.5-0.4-0.9-0.4c-0.9,0-1.4,0.3-1.7,0.9c-0.3,0.6-0.4,1.4-0.4,2.5v3.5
			c0,0.5-0.1,0.9-0.4,1.2c-0.2,0.3-0.6,0.4-1,0.4c-0.4,0-0.7-0.1-1-0.4c-0.3-0.3-0.4-0.7-0.4-1.2v-7.4c0-0.5,0.1-0.9,0.3-1.1
			c0.2-0.3,0.5-0.4,0.9-0.4c0.4,0,0.7,0.1,0.9,0.4c0.2,0.2,0.4,0.6,0.4,1v0.2c0.5-0.5,0.9-0.9,1.4-1.2c0.5-0.3,1.1-0.4,1.7-0.4
			c0.7,0,1.2,0.1,1.7,0.4c0.5,0.3,0.9,0.7,1.2,1.2c0.4-0.5,0.9-0.9,1.4-1.2c0.5-0.3,1.1-0.4,1.7-0.4c0.7,0,1.3,0.1,1.8,0.4
			c0.5,0.3,0.9,0.7,1.1,1.2c0.2,0.5,0.3,1.2,0.3,2.2v5.1c0,0.5-0.1,1-0.4,1.2c-0.2,0.3-0.6,0.4-1,0.4c-0.4,0-0.7-0.1-1-0.4
			c-0.2-0.3-0.4-0.7-0.4-1.2v-4.4c0-0.6,0-1-0.1-1.3c0-0.3-0.2-0.6-0.4-0.8c-0.2-0.2-0.5-0.3-1-0.3c-0.3,0-0.7,0.1-1,0.3
			c-0.3,0.2-0.5,0.5-0.7,0.8C611.2,122.8,611.1,123.6,611.1,124.7"/>
		<path class="st0" d="M490.4,123.9C490.4,123.9,490.4,123.9,490.4,123.9C490.4,123.9,490.4,123.9,490.4,123.9"/>
		<path class="st0" d="M490.5,124.7L490.5,124.7c0-0.2-0.1-0.5-0.1-0.7C490.5,124.3,490.5,124.5,490.5,124.7"/>
		<path class="st0" d="M491.4,127.1C491.4,127.1,491.4,127.1,491.4,127.1C491.4,127.1,491.4,127.1,491.4,127.1"/>
		<path class="st0" d="M491.3,127c0,0,0-0.1-0.1-0.1C491.3,126.9,491.3,126.9,491.3,127"/>
		<path class="st0" d="M490.8,125.7c0.1,0.4,0.3,0.8,0.5,1.2C491.1,126.4,490.9,126,490.8,125.7L490.8,125.7z"/>
		<path class="st0" d="M500.4,114c0.5,0,0.9,0,1.3,0.1l0.1-0.8c0,0-1.2-0.4-2.7-0.2l-0.1-0.4c0.5-0.1,0.8-0.5,0.8-1
			c0-0.6-0.5-1.1-1.1-1.1s-1.1,0.5-1.1,1.1c0,0.5,0.4,0.9,0.8,1l0.1,0.5c-1.6,0.2-2.9,0.9-2.9,0.9l0.2,0.7c1-0.3,1.8-0.5,2.6-0.6
			C499.4,114,500,114,500.4,114"/>
		<path class="st0" d="M491.4,117.8L491.4,117.8c0-0.1,0.1-0.1,0.1-0.1l-0.3-0.2l-0.5-0.4c0,0-0.8,0.7-1.4,2c0,0-0.1-0.1-0.1-0.1
			c-0.2-0.2-0.4-0.3-0.8-0.3h0c-0.2,0-0.3-0.1-0.4-0.1c0.1-0.1,0.1-0.3,0.1-0.4c0-0.4-0.3-0.7-0.7-0.7c-0.4,0-0.7,0.3-0.7,0.7
			c0,0.4,0.3,0.7,0.7,0.7c0.1,0,0.1,0,0.2,0c0.2,0.2,0.4,0.3,0.8,0.3c0.2,0,0.3,0,0.4,0.2c0.1,0.1,0.1,0.3,0.2,0.4c0,0,0,0,0,0
			c-0.4,1.2-0.3,2.7-0.3,2.7l1.1,0c0-0.5,0.1-1.5,0.4-2.2C490.7,118.8,491.4,117.9,491.4,117.8"/>
		<path class="st0" d="M509.6,114.8c-0.4,0-0.7,0.3-0.7,0.7c0,0.1,0,0.1,0,0.2c-0.2,0.2-0.3,0.4-0.3,0.8c0,0.2,0,0.3-0.2,0.4
			c-0.1,0.1-0.2,0.1-0.3,0.1c-0.8-1.1-1.8-1.8-1.8-1.8l-0.8,0.8c0.6,0.5,1.2,1.2,1.7,2c0.4,0.6,0.8,1.3,1.1,2l1-0.5
			c0,0-0.5-1.2-1.1-2.2c0.1,0,0.2-0.1,0.3-0.2c0.2-0.2,0.3-0.4,0.3-0.8c0-0.2,0.1-0.3,0.1-0.4c0.1,0.1,0.3,0.1,0.4,0.1
			c0.4,0,0.7-0.3,0.7-0.7C510.3,115.1,510,114.8,509.6,114.8"/>
		<path class="st0" d="M507,124c-1.4,0.7-3.7,1.6-6.8,2c-1.2,0.2-2.4,0.2-3.4,0.2c-1.4,0-2.6-0.1-3.6-0.2c-1.1-0.1-1.9-0.3-2.4-0.4
			c0.1,0.4,0.3,0.8,0.5,1.2c0,0,0,0,0,0c0,0,0,0.1,0.1,0.1c0,0,0,0.1,0.1,0.1c0,0,0,0,0,0c0.3,0.6,0.7,1.1,1.1,1.5
			c1.4,1.6,2.9,1.8,2.9,1.8l0,0l0,0c0,0,1.3,0.4,3.3,0.4c1.9,0,3.9-0.4,5.7-1.2c1.3-0.7,2.6-1.7,3.3-2.7c0.5-0.7,0.8-1.5,1-2.3
			c0.1-0.4,0.2-1.1,0.1-1.8C508.5,123.3,507.8,123.6,507,124"/>
		<path class="st0" d="M491.8,118.2c0,0.1-0.7,0.9-1.1,2.3c-0.4,1-0.3,2.4-0.3,2.5v0c0,0.3,0,0.7,0.1,1c0,0,0,0,0,0c0,0,0,0.1,0,0.1
			c0,0.2,0.1,0.5,0.1,0.7c0.7,0.2,4.9,1.2,9.5,0.5c2.9-0.4,5.1-1.3,6.5-1.9c1.1-0.5,1.8-1,2.1-1.2c-0.3-1-1-2.6-1.7-3.6
			c-2-2.9-4.2-3.6-5.3-3.8c-0.4-0.1-0.8-0.1-1.2-0.1c-0.4,0-1,0-1.7,0.1c-0.7,0.1-1.6,0.3-2.5,0.6c-1.3,0.5-2.6,1.2-3.5,2l0,0
			C492.5,117.4,492.2,117.7,491.8,118.2 M504.1,117.5c1,0,1.7,0.8,1.7,1.7c0,1-0.8,1.7-1.7,1.7c-1,0-1.7-0.8-1.7-1.7
			C502.4,118.3,503.1,117.5,504.1,117.5 M495.9,117.4c1.6,0,2.8,1.3,2.8,2.8c0,1.6-1.3,2.8-2.8,2.8c-1.6,0-2.8-1.3-2.8-2.8
			C493,118.7,494.3,117.4,495.9,117.4"/>
		<path class="st1" d="M167.8,484.3c0,0,26.4-17.6,31.6-19.7c0,0,31.5,25.1,48.7,69.1c0,0-16.9,13.9-36.6,21.4
			C211.5,555.1,204.1,522.1,167.8,484.3"/>
		<path class="st2" d="M171.1,485.1c0,0,23.3-16.6,28.2-18.6c0,0,30.6,25.8,46.8,67.2c0,0-14.9,12-33.5,19
			C212.6,552.7,205.3,520.7,171.1,485.1"/>
		<path class="st1" d="M204.1,474.6c0,0-5.8,4-10.6-1.8l-14.2,10.5c0,0,3.6,3.3,0,7.3c0,0,21.7,26.1,32.7,54.1c0,0,4.3-1.5,6.4,3.6
			c0,0,15.9-7.5,21.4-12.1c0,0-4.1-4.5,0.8-9.1C240.7,527,229.2,499.9,204.1,474.6"/>
		<path class="st2" d="M205.6,531.6l3.8-1.3c0,0-9.2-20.5-16-26.7l-3.2,2.3C190.2,505.9,200.9,521.3,205.6,531.6"/>
		<path class="st2" d="M234.6,529.1c0,0-5.9-11.5-8.1-13.9l-2.2,0.7c0,0,7,11.5,8.2,14.8L234.6,529.1z"/>
		<path class="st2" d="M230.3,531.5c0,0-2.1-5-3.3-7.6l-2,0.7l4,7.4L230.3,531.5z"/>
		<path class="st2" d="M183.7,484.1c0,0,6.9,10.9,9.4,13l2.1-0.9c0,0-8-10.8-9.5-13.9L183.7,484.1z"/>
		<path class="st2" d="M187.8,481.4c0,0,2.5,4.8,4,7.3l1.9-0.9l-4.7-7L187.8,481.4z"/>
		<path class="st2" d="M202.5,511.7c2.1,6,8.6,9.3,14.7,7.2c6-2.1,9.3-8.6,7.2-14.7c-2.1-6-8.6-9.3-14.7-7.2
			C203.7,499.1,200.5,505.7,202.5,511.7"/>
		<path class="st2" d="M669,813.9c0,0-32.2,11.9-37.5,15.4c0,0,5,47.7,35.2,91.8c0,0,22-6.7,41.5-20.4
			C708.1,900.7,681.2,871.9,669,813.9"/>
		<path class="st1" d="M636.3,839.6c0,0,7.9-3.1,5.4-11.7l20-7c0,0,0.8,5.8,7.2,5c0,0,11.2,39.1,31.6,69c0,0-4.4,3.3-0.8,8.7
			c0,0-18.2,10.8-26.5,13.1c0,0-1.7-7.1-9.6-5.4C663.7,911.3,644.5,881.5,636.3,839.6"/>
		<path class="st2" d="M691.9,879.5l-3.9,2.9c0,0-14.1-23-15.7-34l4.5-1.6C676.8,846.9,684.9,868,691.9,879.5"/>
		<path class="st3" d="M669.8,906.7c0,0-7.5-13.6-8.3-17.4l2.2-1.6c0,0,6.7,14.7,9.1,18.1L669.8,906.7z"/>
		<path class="st3" d="M675.1,904c0,0-3.6-5.4-5.4-8.5l2-1.5l4.7,9L675.1,904z"/>
		<path class="st2" d="M659.5,825.8c0,0,6.2,14.2,6.6,18.1l-2.3,1.4c0,0-5.3-15.2-7.4-18.9L659.5,825.8z"/>
		<path class="st2" d="M654,828c0,0,3.1,5.7,4.6,8.9l-2.1,1.3l-3.8-9.4L654,828z"/>
		<path class="st2" d="M674.2,863.1c4.6,6.1,3.4,14.8-2.7,19.4c-6.1,4.6-14.8,3.4-19.4-2.7c-4.6-6.1-3.4-14.8,2.7-19.4
			S669.6,857,674.2,863.1"/>
		<path class="st1" d="M691.8,143.6l-25,2.2c0,0-3.8,11.6-2.5,24.7c1.3,13.1,3.7,18.4,5.3,18.2c1.6-0.2,16.5-11.8,18.4-17.4
			C689.9,165.7,691.8,143.6,691.8,143.6"/>
		<path class="st2" d="M670.8,187c0,0-6.9-15.6-2.9-39.9l1.5-0.8c0,0-4.2,13.4,2.3,38.9C671.6,185.2,671.3,188.4,670.8,187"/>
		<path class="st1" d="M667.7,175.9l19-3.2l-1.4-28.5l-18.4,1.7C666.8,145.8,675.5,153.6,667.7,175.9"/>
		<path class="st2" d="M685.3,170.8l-13.8,2.2c0,0,3.7-18.1-2.2-27.4l8-0.7C677.4,144.9,686.5,156.3,685.3,170.8"/>
		<path class="st1" d="M667.2,137.1c0,0,8.8,9.9,8.4,25.7c-0.4,15.8-3.8,22.7-5.9,25.9c0,0,50.3-6.2,57.2-8c0,0,9.6-6.9,6.3-24.5
			c-3.3-17.6-16.2-22.5-16.2-22.5L667.2,137.1z"/>
		<path class="st2" d="M671.1,138.3c0,0,7.6,9.4,7.2,25.2c-0.4,15.8-2.5,21.7-4.7,24.9c0,0,44-5.2,50.9-7c0,0,9.4-7.6,6.2-25.2
			c-2.8-15.2-13-19.2-13-19.2L671.1,138.3z"/>
		<path class="st1" d="M678.3,187.7c0,0,7.4-15.1,1.8-40.1c0,0,5.1-3.2,3.3-7.4l28.9-1c0,0,3.2,6.6,10.9,4.1c0,0,13.4,18.2-0.6,38.3
			C722.6,181.7,695.8,186.2,678.3,187.7"/>
		<path class="st2" d="M712.8,143c0,0,7,16.2,1.9,27.6l-3.8,1c0,0,4.5-14.2-2.7-29L712.8,143z"/>
		<path class="st2" d="M705,143.3c0,0,3.7,4.7,4.3,13.4c0,0-0.1,0.4-2.7,1c-0.7-8.9-3.8-14.5-3.8-14.5L705,143.3z"/>
		<path class="st2" d="M684.6,186.8c0,0,17.4-13,29-3.8L684.6,186.8z"/>
		<path class="st4" d="M416.8,315.3l21.9,12.2c0,0,9.7-7.4,16-19c6.3-11.6,7.4-17.3,5.9-18c-1.4-0.7-20.3,0.4-25,4
			C430.8,298.1,416.8,315.3,416.8,315.3"/>
		<path class="st2" d="M458.7,291.4c0,0-3.1,16.8-20.1,34.5l-1.7-0.1c0,0,11.1-8.7,20.1-33.4C457,292.3,459,289.8,458.7,291.4"/>
		<path class="st1" d="M455,302.3l-17.5-8l-14.9,24.3l16.1,9C438.7,327.5,435.9,316.3,455,302.3"/>
		<path class="st2" d="M437.6,296.5l12.6,6c0,0-13.2,12.8-13.7,23.8l-7-3.9C429.4,322.4,428.3,307.8,437.6,296.5"/>
		<path class="st1" d="M433.4,334.5c0,0-1.7-13.2,7.6-26c9.3-12.8,15.9-16.6,19.5-18c0,0-45-23.3-51.8-25.7c0,0-11.8,0.3-19.1,16.7
			c-7.2,16.4,0.6,27.7,0.6,27.7L433.4,334.5z"/>
		<path class="st2" d="M430.9,331.4c0,0-1-12,8.3-24.8c9.3-12.8,14.4-16.5,18-17.8c0,0-39.2-20.6-46-23c0,0-12,0.9-19.4,17.3
			c-6.3,14.1-0.1,23.2-0.1,23.2L430.9,331.4z"/>
		<path class="st1" d="M452.9,286.5c0,0-14.6,8.3-24.1,32c0,0-6-0.2-6.9,4.2l-24.4-15.5c0,0,1.1-7.3-6.7-9.6c0,0-0.8-22.6,22.1-31.2
			C412.9,266.5,437.6,277.9,452.9,286.5"/>
		<path class="st2" d="M399.2,303.9c0,0,3.4-17.3,14-23.9l3.7,1.3c0,0-11.7,9.2-14.2,25.4L399.2,303.9z"/>
		<path class="st2" d="M405.8,308.1c0,0-0.4-6,4.1-13.5c0,0,0.3-0.3,2.8,0.7c-4.4,7.8-5.1,14.1-5.1,14.1L405.8,308.1z"/>
		<path class="st2" d="M447.2,283.7c0,0-21.7,0.9-26.1-13.2L447.2,283.7z"/>
		<path class="st1" d="M861.1,455.4l-7.3-24c0,0-12.1-1.4-24.7,2.6c-12.6,4-17.3,7.4-16.8,8.9c0.5,1.5,14.9,13.8,20.8,14.5
			C839.1,458.1,861.1,455.4,861.1,455.4"/>
		<path class="st2" d="M814.4,443.6c0,0,13.9-10,38.5-10.9l1.1,1.3c0,0-14-1.4-37.7,10.1C816.3,444.1,813.1,444.5,814.4,443.6"/>
		<path class="st1" d="M824.6,438.3l7,17.9l27.6-7.1l-5.3-17.7C853.9,431.4,848,441.5,824.6,438.3"/>
		<path class="st2" d="M833.1,454.6l-4.9-13c0,0,18.4-0.1,26.4-7.7l2.3,7.7C856.9,441.6,847.6,452.8,833.1,454.6"/>
		<path class="st1" d="M862.5,430.1c0,0-8,10.7-23.5,13.4c-15.6,2.8-23,0.9-26.6-0.6c0,0,16.2,48,19.5,54.4c0,0,8.7,8,25.3,1.2
			c16.6-6.8,18.8-20.4,18.8-20.4L862.5,430.1z"/>
		<path class="st2" d="M862.1,434.1c0,0-7.6,9.3-23.2,12.1c-15.6,2.8-21.8,1.9-25.3,0.4c0,0,14,42.1,17.2,48.4c0,0,9.3,7.7,25.9,1
			c14.4-5.8,16.2-16.6,16.2-16.6L862.1,434.1z"/>
		<path class="st1" d="M815.2,451.2c0,0,16.3,4.1,39.6-6.3c0,0,4.1,4.3,7.9,1.7l6.8,28.1c0,0-5.8,4.5-1.8,11.5
			c0,0-15.1,16.8-37.6,7.2C830.1,493.3,820.2,467.9,815.2,451.2"/>
		<path class="st2" d="M865.9,475.9c0,0-14.4,10.1-26.7,7.5l-1.8-3.5c0,0,14.8,1.5,27.8-8.5L865.9,475.9z"/>
		<path class="st2" d="M864,468.3c0,0-3.9,4.6-12.3,6.9c0,0-0.5,0-1.5-2.5c8.6-2.5,13.5-6.7,13.5-6.7L864,468.3z"/>
		<path class="st2" d="M817.3,457.2c0,0,16.3,14.4,9.6,27.6L817.3,457.2z"/>
		<path class="st1" d="M262.8,204.7c0,0-44.6-21.9-53.1-24.2c0,0-43.8,45.5-61.5,117.5c0,0,29.1,18.1,61.3,25.7
			C209.5,323.7,214.2,270.9,262.8,204.7"/>
		<path class="st2" d="M257.9,206.5c0,0-39.6-21-47.6-23.2c0,0-42.2,46.3-58.9,114.1c0,0,25.6,15.5,56,22.7
			C207.3,320.2,212,268.9,257.9,206.5"/>
		<path class="st1" d="M204.4,197.1c0,0,9.9,5.1,16.1-4.9l24.2,13.3c0,0-5,5.9,1.4,11.4c0,0-28.3,45-39.7,90.8c0,0-7-1.4-9.2,6.8
			c0,0-26.3-8.3-35.7-14.4c0,0,5.5-7.9-3.1-14C158.4,286,170.7,241.5,204.4,197.1"/>
		<path class="st2" d="M213.8,285.9l-6.2-1.2c0,0,10.1-33.8,19.4-44.8l5.5,3C232.5,242.9,219,269.1,213.8,285.9"/>
		<path class="st2" d="M168.2,288c0,0,6.7-19.1,9.8-23.2l3.5,0.7c0,0-8.5,19.3-9.7,24.6L168.2,288z"/>
		<path class="st2" d="M175.4,290.8c0,0,2.2-8.2,3.6-12.6l3.2,0.6l-4.7,12.4L175.4,290.8z"/>
		<path class="st2" d="M238,207.7c0,0-8.5,18.4-11.9,22.2l-3.4-1c0,0,10.2-18.4,12-23.6L238,207.7z"/>
		<path class="st2" d="M231.2,204.2c0,0-2.9,8-4.7,12.2l-3.2-0.9l5.8-11.9L231.2,204.2z"/>
		<path class="st2" d="M214.5,254.5c-2,9.8-11.5,16.2-21.3,14.2c-9.8-2-16.2-11.5-14.2-21.3c2-9.8,11.5-16.2,21.3-14.2
			C210.1,235.1,216.5,244.6,214.5,254.5"/>
		<path class="st1" d="M571.1,195.7c0,0,44.3,8.5,51.6,11.5c0,0,6.9,56.8-19.5,118.6c0,0-31-2.7-58.4-14.8
			C544.8,310.9,570.2,270.2,571.1,195.7"/>
		<path class="st2" d="M573.6,199.8c0,0,40.2,6.4,47.1,9.2c0,0,5.3,56.6-19.6,114.7c0,0-27-2.7-52.9-14.1
			C548.3,309.6,572.8,269.9,573.6,199.8"/>
		<path class="st1" d="M617.5,222c0,0-9.9-1.7-9-12.3l-24.8-3.5c0,0,0.4,7-7.2,7.5c0,0-4,48-20.7,87.4c0,0,5.8,2.8,2.9,10
			c0,0,23.6,8.3,33.7,9c0,0,0.3-8.7,9.9-8.5C602.3,311.6,617.7,272.6,617.5,222"/>
		<path class="st2" d="M562.2,281.2l5.2,2.5c0,0,11.1-30,10.3-43l-5.6-0.8C572.2,239.9,567.7,266.2,562.2,281.2"/>
		<path class="st2" d="M594.1,307.6c0,0,5.5-17.5,5.6-22.2l-2.9-1.4c0,0-4.4,18.6-6.4,23.1L594.1,307.6z"/>
		<path class="st2" d="M587.4,305.8c0,0,2.9-7.1,4.3-11.1l-2.7-1.3l-3.3,11.5L587.4,305.8z"/>
		<path class="st2" d="M587.4,211.4c0,0-3.9,17.9-3.5,22.6l3,1.1c0,0,2.7-18.9,4.2-23.6L587.4,211.4z"/>
		<path class="st2" d="M594.2,212.6c0,0-2.3,7.4-3.2,11.4l2.8,1l2.3-11.8L594.2,212.6z"/>
		<path class="st2" d="M578.9,258.1c-3.9,8.2-0.5,18,7.7,21.9c8.2,3.9,18,0.5,21.9-7.7c3.9-8.2,0.5-18-7.7-21.9
			C592.6,246.5,582.8,249.9,578.9,258.1"/>
		<path class="st2" d="M814,717.4c0,0,34.7,20.9,40.1,26.1c0,0-16.3,54.2-61,98.6c0,0-23.9-12.6-43.5-32.8
			C749.6,809.4,787,781.9,814,717.4"/>
		<path class="st1" d="M846.2,754.4c0,0-8.5-5.3-3.7-14.7l-21.6-12.5c0,0-2.2,6.6-9.5,4.2c0,0-21.6,42.8-51.8,73c0,0,4.3,4.8-1,10.3
			c0,0,18.7,16.5,27.8,21c0,0,3.5-7.9,12.3-4.1C798.7,831.4,827.5,801.2,846.2,754.4"/>
		<path class="st2" d="M773,788.4l3.8,4.2c0,0,21.4-23.5,25.6-35.9l-4.8-2.8C797.7,753.9,783.7,776.5,773,788.4"/>
		<path class="st2" d="M792.6,824.7c0,0,11.6-14.1,13.4-18.4l-2.2-2.4c0,0-11,15.5-14.5,19L792.6,824.7z"/>
		<path class="st2" d="M787.1,820.4c0,0,5.4-5.5,8.1-8.6l-2-2.2l-7.4,9.4L787.1,820.4z"/>
		<path class="st2" d="M822.3,733.3c0,0-10.3,15.1-11.7,19.5l2.4,2.2c0,0,9.5-16.5,12.7-20.2L822.3,733.3z"/>
		<path class="st2" d="M828.2,737c0,0-4.8,6-7.2,9.3l2.2,2l6.5-10L828.2,737z"/>
		<path class="st2" d="M797.1,773.3c-6.7,6.1-7.2,16.4-1.1,23.1c6.1,6.7,16.4,7.2,23.1,1.1c6.7-6.1,7.2-16.4,1.1-23.1
			C814.1,767.7,803.8,767.2,797.1,773.3"/>
		<path class="st2" d="M712.3,639c0,0,19.2,27.1,45.4,35.2c0,0,19.1,2.3,38.2-12.1c18.9-14.3,57.6-58.3,57.6-58.3l-52.3-21.9
			c0,0-25.7,39.2-43.8,51C738.1,645.5,712.3,639,712.3,639"/>
		<path class="st1" d="M797,594.3c0,0,7.8,2.8,13.5-4.1l28.6,13.2c0,0-6.8,7.2-1.4,12.2c0,0-30.9,31.7-41.9,40.7
			c-11,9.1-17.4,12.7-25.8,13.4c0,0-0.7-9-17.9-3c0,0-18.2-8-26-18.8c0,0,6.5,1.2,6.3-4c0,0,11.6,1.5,28.1-8.5
			C772.2,628.4,797,594.3,797,594.3"/>
		<path class="st2" d="M801.6,641.9c-3.1,8.1-12.1,12.2-20.2,9.1c-8.1-3.1-12.2-12.1-9.1-20.2c3.1-8.1,12.1-12.2,20.2-9.1
			C800.6,624.7,804.6,633.8,801.6,641.9"/>
		<path class="st2" d="M799.7,617.3c0,0,12-13.6,15.5-19.1l4.1,1.7c0,0-14.4,17.4-17.3,19.6L799.7,617.3z"/>
		<path class="st2" d="M810.5,614.7c0,0,9.6-11.9,10.6-12.9l2.2,1.1c0,0-9.9,12.2-11,13.3L810.5,614.7z"/>
		<path class="st2" d="M741,655c0,0,12.7-4.2,17.9-7.8l1.6,1.6c0,0-13.2,6.5-18.3,7.6L741,655z"/>
		<path class="st1" d="M320.1,383c0,0-35.2,14.3-49.8,44.4c0,0,29.4-10.7,50.8,5.8c21.5,16.5,42.9,52.5,42.9,52.5l59.2-26.8
			c0,0-38.4-41.9-60.1-60.1C341.4,380.7,320.1,383,320.1,383"/>
		<path class="st2" d="M275.8,423c0,0,19.2-27.1,45.4-35.2c0,0,19.1-2.3,38.2,12.1c18.9,14.3,57.6,58.3,57.6,58.3l-52.3,21.9
			c0,0-25.7-39.2-43.8-51C301.6,416.5,275.8,423,275.8,423"/>
		<path class="st1" d="M360.5,467.6c0,0,7.8-2.8,13.5,4.1l28.6-13.2c0,0-6.8-7.2-1.4-12.2c0,0-30.9-31.7-41.9-40.7
			c-11-9.1-17.4-12.7-25.8-13.4c0,0-0.7,9-17.9,3c0,0-18.2,8-25.9,18.8c0,0,6.5-1.2,6.3,4c0,0,11.6-1.5,28.1,8.5
			C335.7,433.6,360.5,467.6,360.5,467.6"/>
		<path class="st2" d="M365.1,420.1c-3.1-8.1-12.1-12.2-20.2-9.1c-8.1,3.1-12.2,12.1-9.1,20.2c3.1,8.1,12.1,12.2,20.2,9.1
			C364.1,437.2,368.1,428.2,365.1,420.1"/>
		<path class="st2" d="M363.2,444.7c0,0,12,13.6,15.5,19.1l4.1-1.7c0,0-14.4-17.4-17.3-19.6L363.2,444.7z"/>
		<path class="st2" d="M374,447.3c0,0,9.6,11.9,10.6,12.9l2.2-1.1c0,0-9.9-12.2-11-13.3L374,447.3z"/>
		<path class="st2" d="M304.5,407c0,0,12.7,4.2,17.9,7.8l1.6-1.6c0,0-13.2-6.5-18.3-7.6L304.5,407z"/>
		<path class="st1" d="M311.1,178c0,0-2.2-32.3,15.4-54.7c0,0,2.8,26.5,23.5,36.7c20.7,10.3,56.2,13.2,56.2,13.2l1.6,55.3
			c0,0-46.4-13.7-68.5-23.6C317.3,195.1,311.1,178,311.1,178"/>
		<path class="st2" d="M325.2,129.1c0,0-13.5,24.8-10,47.9c0,0,5.4,15.5,23.6,24.7c18,9.1,66.2,22.3,66.2,22.3l-2.8-48.2
			c0,0-39.6-5-55.4-14.5C329.8,151.3,325.2,129.1,325.2,129.1"/>
		<path class="st1" d="M391,177.3c0,0,0.8,7,8.2,8.8l0.6,26.8c0,0-8.1-2.5-9.9,3.5c0,0-35.8-11.8-46.8-16.8
			c-11-5-16.2-8.6-19.9-14.7c0,0,6.6-3.9-4.4-14.8c0,0-0.6-16.9,4.7-26.9c0,0,1.5,5.4,5.5,3.3c0,0,3.2,9.5,17,18.3
			C355.6,171,391,177.3,391,177.3"/>
		<path class="st2" d="M356.3,198.5c-7.3,0.7-13.9-4.7-14.5-12.1c-0.7-7.3,4.7-13.9,12.1-14.5c7.3-0.7,13.9,4.7,14.5,12.1
			C369.1,191.4,363.7,197.9,356.3,198.5"/>
		<path class="st2" d="M374.5,187.9c0,0,14.9,4.1,20.4,4.8l0.2,3.8c0,0-18.7-4.5-21.5-5.9L374.5,187.9z"/>
		<path class="st2" d="M380.4,195.2c0,0,12.7,2.9,13.8,3.3l0,2.1c0,0-13.1-3.1-14.3-3.5L380.4,195.2z"/>
		<path class="st2" d="M323.7,157.1c0,0,7.9,8.1,12.7,10.8l-0.6,1.8c0,0-9.9-7.7-12.7-11.1L323.7,157.1z"/>
		<path class="st1" d="M194.4,794.7c0,0-2.2-32.3,15.4-54.7c0,0,2.8,26.5,23.5,36.8c20.7,10.3,56.2,13.2,56.2,13.2l1.6,55.3
			c0,0-46.4-13.7-68.5-23.6C200.6,811.9,194.4,794.7,194.4,794.7"/>
		<path class="st2" d="M208.4,745.9c0,0-13.5,24.8-10,47.9c0,0,5.4,15.5,23.6,24.7c18,9.1,66.2,22.3,66.2,22.3l-2.8-48.2
			c0,0-39.6-5-55.4-14.5C213,768,208.4,745.9,208.4,745.9"/>
		<path class="st1" d="M274.2,794c0,0,0.8,7,8.2,8.8l0.6,26.8c0,0-8.1-2.5-9.9,3.5c0,0-35.8-11.8-46.8-16.8
			c-11-5-16.2-8.6-19.9-14.7c0,0,6.6-3.9-4.4-14.8c0,0-0.6-16.9,4.7-26.9c0,0,1.5,5.4,5.5,3.3c0,0,3.2,9.5,17,18.3
			C238.9,787.8,274.2,794,274.2,794"/>
		<path class="st2" d="M239.6,815.3c-7.3,0.7-13.9-4.7-14.5-12.1c-0.7-7.3,4.7-13.9,12.1-14.5c7.3-0.7,13.9,4.7,14.5,12.1
			C252.3,808.1,246.9,814.6,239.6,815.3"/>
		<path class="st2" d="M257.7,804.7c0,0,14.9,4.1,20.4,4.8l0.2,3.8c0,0-18.7-4.5-21.5-5.9L257.7,804.7z"/>
		<path class="st2" d="M263.7,811.9c0,0,12.7,2.9,13.8,3.3l0,2.1c0,0-13.1-3.1-14.3-3.5L263.7,811.9z"/>
		<path class="st2" d="M206.9,773.9c0,0,7.9,8.1,12.7,10.8l-0.6,1.8c0,0-9.9-7.7-12.7-11.1L206.9,773.9z"/>
		<path class="st1" d="M526.3,473.7c0,0,29.4,13.3,36.8-22.4l43.3,13.2c0,0-15.3,28.2-37.1,30.2C555.6,496,532.4,481.9,526.3,473.7"
			/>
		<path class="st2" d="M564.9,453.7c0,0-4.2,26.1-31.9,24.6c0,0,22.9,16.1,28.8,15.8c5.9-0.2,23,0,41-28.9
			C602.8,465.3,568.4,454.3,564.9,453.7"/>
		<path class="st1" d="M535.7,481.2c0,0,19.5,0.4,28.5-18.6c0,0,5.7,2.5,8.4-3.7l20.4,6.2c0,0-5.3,5,0.6,8.6
			c0,0-15.5,22.4-36.4,18.9L535.7,481.2z"/>
		<path class="st2" d="M578.8,465.5c0,0-2.6,7.5-6.7,11.1l2.5,0.7c0,0,4.8-7,5.9-11.4L578.8,465.5z"/>
		<path class="st2" d="M582.4,466.6c0,0-1.8,5.6-4.3,8.2l2.5,0.7c0,0,2.7-5.3,3.4-8.4L582.4,466.6z"/>
		<path class="st1" d="M506.8,437.3c0,0,32.9,13.5,44.3,13.4c0,0-6.3,44.7,20.7,43.7c0,0-18.9,5.4-56.1-15.4
			C515.7,479,497.6,465,506.8,437.3"/>
		<path class="st2" d="M508.1,440.2c0,0,28,13.3,39.4,13.2c0,0-4.1,40.7,18.9,41.9c0,0-17.5,2.5-48.6-15.1
			C517.8,480.2,498.9,467.9,508.1,440.2"/>
		<path class="st1" d="M563.4,495.4c0,0-18.7,1.1-20-32.3c0,0-7.5-0.7-6-8.6c0,0-14.8-2.9-23-7.1c0,0,0.5,5.4-6.2,4.6
			c0,0-3.2,18.5,11.3,29.1C519.5,481.1,543.7,495.4,563.4,495.4"/>
		<path class="st2" d="M531.1,455c0,0-4.7,12.8,1.7,24l3,0.6c0,0-6.4-12-1.9-24L531.1,455z"/>
		<path class="st2" d="M527.4,454.2c0,0-1.6,4.3-1.5,11.1c0,0,0.1,0.3,2.2,0.6c-0.1-7,1.8-11.1,1.8-11.1L527.4,454.2z"/>
		<path class="st2" d="M523.4,483.2c0,0,2.4-2.5,9.5-0.2c7.1,2.3,18.3,8.8,21.5,11.6C554.4,494.6,540.4,492.6,523.4,483.2"/>
		<path class="st1" d="M739.4,290.9c0,0,43.7-5.4,27.1-52.3l59.9-15.4c0,0,2.3,43.8-21.9,61.8C789.6,296,752.5,296.1,739.4,290.9"/>
		<path class="st2" d="M770.3,240.1c0,0,13.6,33.4-19.7,51.4c0,0,38.2,2.4,44.9-2c6.7-4.5,26.8-16.4,27.3-62.9
			C822.8,226.6,774.9,238.3,770.3,240.1"/>
		<path class="st1" d="M755.8,293c0,0,23.1-13.4,20-42c0,0,8.4-1.2,7.2-10.3l28.2-7.2c0,0-2.7,9.6,6.8,9.6c0,0-2.1,37.2-29.1,48
			L755.8,293z"/>
		<path class="st2" d="M795,244c0,0,2.3,10.6,0.1,17.8l3.4-0.9c0,0,0.6-11.6-1.2-17.5L795,244z"/>
		<path class="st2" d="M799.9,242.7c0,0,1.9,7.9,0.9,12.6l3.4-0.9c0,0-0.6-8-2-12.3L799.9,242.7z"/>
		<path class="st1" d="M690.8,262.3c0,0,48.1-7.7,61.3-15.9c0,0,24.4,56.6,55.2,36.3c0,0-18.3,19.7-76.4,21.9
			C730.9,304.7,699.8,301.2,690.8,262.3"/>
		<path class="st2" d="M694.4,264.8c0,0,42.2-4.4,55.4-12.6c0,0,24.1,50.4,51.9,35.5c0,0-18.7,15.4-67.5,16.9
			C734.2,304.5,703.4,303.7,694.4,264.8"/>
		<path class="st1" d="M798.2,289.8c0,0-21.1,14.6-46.4-23.5c0,0-9.2,4.5-13.2-5.8c0,0-19.3,7.2-31.9,8.2c0,0,4.5,5.9-4,9.7
			c0,0,9.4,23.9,34,26C736.8,304.4,775.3,303.8,798.2,289.8"/>
		<path class="st2" d="M731.8,265.6c0,0,3.6,18.3,19.1,26.8l3.9-1.5c0,0-16.1-9.5-19.3-26.7L731.8,265.6z"/>
		<path class="st2" d="M726.9,267.4c0,0,1.2,6.2,6.2,14c0,0,0.4,0.3,3-0.9c-5.1-8.2-5.9-14.2-5.9-14.2L726.9,267.4z"/>
		<path class="st2" d="M742.8,304.1c0,0,1.1-4.7,11-7.1c9.9-2.4,27.7-2.7,33.4-1.7C787.2,295.3,769.3,303,742.8,304.1"/>
		<path class="st1" d="M199.4,644.3l18.8-16.5c0,0-3.7-11.6-12.6-21.4c-8.8-9.8-13.9-12.7-15-11.6c-1.2,1.1-6.4,19.2-4.6,24.9
			C187.9,625.4,199.4,644.3,199.4,644.3"/>
		<path class="st2" d="M190.8,596.9c0,0,14.8,8.5,25.9,30.5l-0.7,1.5c0,0-4.5-13.3-24.8-30.1C191.1,598.8,189.5,596,190.8,596.9"/>
		<path class="st1" d="M199.9,604l-13.4,13.8l17.9,22.2l13.9-12.2C218.2,627.8,206.7,626.6,199.9,604"/>
		<path class="st2" d="M188.6,618.5l9.8-9.9c0,0,7.7,16.8,17.9,20.8l-6,5.3C210.3,634.8,196.2,631,188.6,618.5"/>
		<path class="st1" d="M190.6,594.8c0,0-37,34.7-41.5,40.2c0,0-3.7,11.2,9.4,23.5c13,12.3,26.3,8.7,26.3,8.7L223,635
			c0,0-13-2.8-21.9-15.8"/>
		<path class="st2" d="M219.3,636.4c0,0-11.7-3.1-20.6-16.1c-9-13-10.7-19-10.8-22.9c0,0-32.5,30.1-37,35.7c0,0-3.1,11.7,9.8,24
			c11.2,10.7,21.8,7.9,21.8,7.9L219.3,636.4z"/>
		<path class="st1" d="M184.3,600.7c0,0,3,16.5,22.2,33.4c0,0-2.2,5.5,1.7,7.9l-22.7,17.8c0,0-6.5-3.5-11.2,3.1
			c0,0-21.5-6.8-22.1-31.3C152.1,631.7,171.1,612.3,184.3,600.7"/>
		<path class="st2" d="M182.8,657.1c0,0-15.2-8.9-17.8-21.2l2.4-3.1c0,0,4.8,14.1,19.2,21.8L182.8,657.1z"/>
		<path class="st2" d="M188.9,652.3c0,0-5.8-1.6-11.4-8.3c0,0-0.2-0.4,1.6-2.4c5.9,6.8,11.6,9.5,11.6,9.5L188.9,652.3z"/>
		<path class="st2" d="M179.7,605.1c0,0-6.4,20.8-21.1,20.2L179.7,605.1z"/>
	</g>
	<path class="st5" d="M656.6,867.1c0.7-0.3,1.5-0.2,1.8,0.5c0.5,1.1-1.5,2.8-0.7,4.7c0.2,0.6,0.8,1,1.5,0.7c2.1-0.9-1.7-6.6,3.4-8.7
		c2.9-1.2,5.6,1.1,6.4,2.6c0.2,0.5,0.4,0.3,0.9,0.1c1.1-0.4,1.1-0.4,1.5,0.6c0.4,0.9,0.6,1.1-0.5,1.6c-0.4,0.1-0.8,0.2-0.7,0.6
		c0.2,0.8,0.5,2.6,0.3,3.4c-0.3,1-2.1,2.2-3,2.5c-0.5,0.2-1.1,0.2-1.3-0.3c-0.6-1.4,2.6-2.4,1.3-5.6c-0.2-0.5-0.8-1.4-1.6-1.1
		c-0.7,0.3-0.7,0.5-0.7,3.1c0.1,2.2-0.5,4.7-2.9,5.7c-2.2,0.9-4.7,0-5.9-1.8c-0.3-0.5-0.4-0.4-1-0.2c-1.1,0.5-1.1,0.4-1.5-0.6
		c-0.4-1-0.6-1.1,0.5-1.6c0.3-0.1,0.8-0.2,0.7-0.6c-0.1-0.3-0.2-1.4-0.2-1.6c-0.1-0.2-0.4-0.5-0.6-0.8
		C654.1,869.6,655.3,867.7,656.6,867.1"/>
	<path class="st5" d="M807.1,778.5c0.7,0.4,1,1.1,0.7,1.7c-0.6,1-3.1,0.6-4.1,2.4c-0.3,0.6-0.3,1.2,0.4,1.6c2,1.1,4.2-5.4,8.9-2.7
		c2.7,1.6,2.6,5.1,1.9,6.6c-0.2,0.5,0,0.5,0.5,0.8c1,0.6,1,0.6,0.4,1.6c-0.5,0.9-0.5,1.2-1.6,0.6c-0.3-0.2-0.7-0.5-0.9-0.1
		c-0.5,0.7-1.7,2-2.5,2.3c-0.9,0.4-3-0.3-3.8-0.8c-0.5-0.3-0.9-0.8-0.6-1.3c0.8-1.3,3.5,0.6,5.2-2.4c0.2-0.4,0.6-1.5-0.1-1.9
		c-0.6-0.4-0.8-0.3-2.8,1.4c-1.7,1.4-4,2.5-6.3,1.2c-2.1-1.2-2.8-3.7-2.2-5.7c0.2-0.6,0.1-0.5-0.5-0.9c-1-0.6-1-0.6-0.4-1.6
		c0.5-0.9,0.5-1.2,1.6-0.6c0.3,0.2,0.7,0.5,0.9,0.2c0.2-0.2,1-1,1.1-1.2c0.1-0.2,0.1-0.6,0.3-1C803.5,778,805.8,777.7,807.1,778.5"
		/>
	<path class="st5" d="M785.7,629.4c0.7,0.4,1,1.1,0.7,1.7c-0.6,1-3.1,0.6-4.1,2.3c-0.3,0.6-0.3,1.2,0.4,1.6c2,1.1,4.2-5.4,9-2.6
		c2.7,1.6,2.6,5.1,1.9,6.6c-0.2,0.5,0,0.5,0.5,0.8c1,0.6,1,0.6,0.4,1.6c-0.5,0.9-0.5,1.2-1.6,0.6c-0.3-0.2-0.7-0.5-0.9-0.2
		c-0.5,0.7-1.7,2-2.5,2.3c-0.9,0.4-3-0.3-3.8-0.8c-0.5-0.3-0.9-0.8-0.6-1.3c0.8-1.3,3.5,0.6,5.2-2.4c0.2-0.4,0.6-1.5-0.1-1.9
		c-0.6-0.4-0.8-0.3-2.9,1.3c-1.7,1.4-4,2.4-6.3,1.1c-2.1-1.2-2.8-3.7-2.2-5.8c0.2-0.6,0.1-0.5-0.5-0.9c-1-0.6-1-0.6-0.4-1.6
		c0.5-0.9,0.5-1.2,1.6-0.6c0.3,0.2,0.6,0.5,0.9,0.2c0.2-0.2,1-1,1.1-1.1c0.1-0.2,0.1-0.6,0.3-1C782.2,628.8,784.4,628.6,785.7,629.4
		"/>
	<path class="st5" d="M246.1,800.5c-0.3,0.7-0.9,1.2-1.6,0.9c-1.1-0.4-1.1-3-3-3.7c-0.6-0.2-1.2-0.1-1.5,0.6c-0.8,2.1,6,3.3,4.1,8.4
		c-1.1,2.9-4.6,3.4-6.2,2.9c-0.5-0.1-0.5,0.1-0.7,0.6c-0.4,1.1-0.5,1.1-1.5,0.7c-1-0.4-1.3-0.3-0.8-1.4c0.1-0.4,0.4-0.7,0-0.9
		c-0.7-0.4-2.2-1.4-2.6-2.1c-0.5-0.9-0.2-3,0.2-3.9c0.2-0.5,0.6-1,1.1-0.8c1.4,0.5,0,3.6,3.2,4.8c0.5,0.2,1.6,0.3,1.9-0.4
		c0.3-0.7,0.1-0.9-1.8-2.6c-1.6-1.4-3.1-3.6-2.1-6c0.8-2.2,3.2-3.4,5.3-3.1c0.6,0.1,0.5,0,0.8-0.6c0.4-1.1,0.5-1,1.5-0.7
		c1,0.4,1.3,0.3,0.8,1.4c-0.1,0.3-0.4,0.7-0.1,1c0.3,0.1,1.2,0.8,1.3,0.9c0.2,0.1,0.6,0,1,0.1C246,796.9,246.6,799.1,246.1,800.5"/>
	<path class="st5" d="M218.5,510.6c-0.5,0.4-1.1,0.4-1.4-0.1c-0.5-0.7,0.5-2.4-0.4-3.6c-0.3-0.4-0.8-0.6-1.2-0.2
		c-1.4,1,2.5,4.6-0.9,7.1c-1.9,1.4-4.4,0.3-5.2-0.7c-0.3-0.3-0.4-0.2-0.7,0.1c-0.7,0.5-0.7,0.5-1.2-0.2c-0.5-0.6-0.7-0.7,0.1-1.3
		c0.2-0.2,0.6-0.3,0.4-0.6c-0.3-0.6-0.9-1.8-0.8-2.4c0-0.8,1.1-2,1.7-2.4c0.3-0.3,0.8-0.4,1.1,0c0.7,0.9-1.5,2.3,0.1,4.4
		c0.2,0.3,0.9,0.9,1.4,0.5c0.4-0.3,0.4-0.5-0.1-2.4c-0.5-1.6-0.5-3.6,1.1-4.7c1.5-1.1,3.5-0.9,4.7,0.2c0.3,0.3,0.3,0.2,0.7-0.1
		c0.7-0.5,0.7-0.5,1.2,0.2c0.5,0.6,0.7,0.7-0.1,1.3c-0.2,0.2-0.6,0.3-0.4,0.6c0.1,0.2,0.4,1,0.5,1.1c0.1,0.2,0.4,0.3,0.6,0.5
		C220,508.3,219.5,509.9,218.5,510.6"/>
	<path class="st5" d="M356.6,427.9c-0.6,0.5-1.4,0.5-1.9-0.1c-0.7-1,0.7-3.1-0.5-4.7c-0.4-0.5-1-0.8-1.6-0.3c-1.8,1.4,3.3,6-1.1,9.3
		c-2.5,1.9-5.7,0.4-6.8-0.8c-0.4-0.4-0.5-0.2-0.9,0.1c-0.9,0.7-1,0.6-1.6-0.2c-0.6-0.8-0.9-0.9,0.1-1.7c0.3-0.2,0.7-0.4,0.5-0.8
		c-0.4-0.7-1.1-2.4-1.1-3.2c0-1,1.5-2.6,2.2-3.2c0.4-0.3,1-0.5,1.4,0c0.9,1.2-1.9,3,0.1,5.7c0.3,0.4,1.2,1.2,1.8,0.7
		c0.6-0.4,0.6-0.7-0.1-3.2c-0.6-2.1-0.7-4.7,1.4-6.2c1.9-1.4,4.5-1.1,6.1,0.3c0.4,0.4,0.5,0.3,1-0.1c1-0.7,1-0.6,1.6,0.2
		c0.6,0.8,0.9,0.9-0.1,1.7c-0.3,0.2-0.7,0.4-0.6,0.8c0.1,0.3,0.6,1.3,0.6,1.4c0.2,0.2,0.6,0.3,0.8,0.7
		C358.5,424.8,357.8,427,356.6,427.9"/>
	<path class="st5" d="M194.8,243.2c0.8,0.3,1.3,1.1,1,1.9c-0.5,1.3-3.4,1.2-4.3,3.3c-0.3,0.7-0.2,1.4,0.7,1.7c2.4,1,3.9-6.7,9.7-4.4
		c3.3,1.3,3.7,5.4,3.2,7.1c-0.2,0.6,0.1,0.6,0.7,0.8c1.2,0.5,1.2,0.6,0.7,1.7c-0.4,1.1-0.4,1.4-1.7,0.9c-0.4-0.2-0.8-0.5-1.1,0
		c-0.5,0.8-1.7,2.5-2.5,3c-1,0.6-3.4,0.1-4.4-0.3c-0.6-0.2-1.1-0.7-0.8-1.3c0.7-1.6,4.1,0.1,5.5-3.5c0.2-0.5,0.4-1.8-0.4-2.1
		c-0.8-0.3-1-0.2-3,2c-1.7,1.8-4.2,3.4-6.9,2.3c-2.5-1-3.8-3.7-3.4-6.1c0.1-0.7,0-0.6-0.7-0.9c-1.3-0.5-1.2-0.6-0.7-1.7
		c0.4-1.1,0.4-1.4,1.7-0.9c0.4,0.1,0.8,0.5,1.1,0.1c0.2-0.3,1-1.3,1-1.5c0.1-0.3,0-0.7,0.2-1.2C190.7,243.2,193.2,242.6,194.8,243.2
		"/>
	<path class="st5" d="M362.3,183.7c-0.2,0.8-0.7,1.3-1.5,1.1c-1.2-0.3-1.5-2.8-3.4-3.3c-0.6-0.1-1.2,0-1.4,0.8
		c-0.5,2.2,6.4,2.5,5.1,7.8c-0.7,3-4.2,3.9-5.8,3.7c-0.5-0.1-0.5,0.1-0.6,0.7c-0.3,1.1-0.3,1.1-1.4,0.9c-1-0.2-1.3-0.1-1-1.3
		c0.1-0.4,0.3-0.8-0.1-0.9c-0.8-0.3-2.4-1.1-2.9-1.7c-0.6-0.8-0.6-3-0.3-3.9c0.1-0.5,0.5-1,1-0.9c1.5,0.4,0.4,3.5,3.8,4.3
		c0.5,0.1,1.6,0.1,1.8-0.6c0.2-0.7,0-0.9-2.1-2.3c-1.8-1.2-3.5-3.2-2.9-5.7c0.6-2.3,2.7-3.8,4.9-3.7c0.6,0,0.5-0.1,0.7-0.7
		c0.3-1.2,0.3-1.1,1.4-0.9c1,0.2,1.3,0.1,1,1.3c-0.1,0.3-0.3,0.8,0.1,1c0.3,0.1,1.3,0.7,1.4,0.7c0.3,0.1,0.6-0.1,1,0
		C361.8,180.2,362.7,182.3,362.3,183.7"/>
	<path class="st5" d="M590.1,259.2c0.8,0.2,1.3,0.7,1.2,1.4c-0.2,1.2-2.8,1.5-3.2,3.5c-0.1,0.6,0.1,1.2,0.8,1.4
		c2.2,0.5,2.3-6.4,7.7-5.3c3.1,0.6,4.1,4.1,3.9,5.7c-0.1,0.5,0.1,0.5,0.7,0.6c1.1,0.2,1.1,0.3,0.9,1.4c-0.2,1-0.1,1.3-1.3,1
		c-0.4-0.1-0.8-0.3-0.9,0.1c-0.3,0.8-1,2.4-1.7,2.9c-0.8,0.6-2.9,0.6-3.9,0.4c-0.5-0.1-1.1-0.4-0.9-1c0.3-1.5,3.5-0.5,4.2-3.9
		c0.1-0.5,0.1-1.6-0.7-1.8c-0.7-0.1-0.9,0-2.3,2.2c-1.2,1.8-3.1,3.6-5.6,3c-2.3-0.5-3.8-2.6-3.9-4.8c0-0.6-0.1-0.5-0.7-0.7
		c-1.2-0.2-1.1-0.3-0.9-1.4c0.2-1,0.1-1.3,1.3-1c0.3,0.1,0.8,0.3,0.9-0.1c0.1-0.3,0.6-1.3,0.7-1.4c0.1-0.3-0.1-0.6,0-1
		C586.6,259.9,588.7,258.9,590.1,259.2"/>
</g>
<g id="Shadow">
	<g>
		<path class="st5" d="M405,726.5c-1.1-3.1-4.1-5.8-6.5-8c-2.2-2.1-4.9-3.5-7.8-4c-1-0.6-2-1.2-3-1.8c-0.1-0.1-0.3-0.1-0.4-0.1
			c-3.5-4-7.1-8.1-10.4-12.3c-3.4-4.3-6.6-8.7-9.5-13.3c-1.3-3.6-3.6-7.2-4.8-10c-1.9-4.2-3.6-8.5-5.4-12.8
			c-0.1-0.4-0.2-0.8-0.3-1.2c-0.1-0.2-0.2-0.4-0.4-0.5c0-0.1-0.1-0.2-0.1-0.3c-0.4-4.5-1.3-9.1-1.8-13.5c-1-9.1-1.9-18.1-2.9-27.2
			c-0.3-2.8-0.5-5.6-0.8-8.4c-0.4-6.6-0.9-13.2-1.3-19.8c-0.5-9.7-1.4-19.7-3.9-29.2c0-0.3,0-0.5,0-0.8c0.1-5.2-1.3-11-1.9-16.2
			c-0.5-4.3-0.5-8.6-0.4-12.9c2.1-4.3,4.7-8.7,5.5-13.1c1.8-1.7,2.7-5.1,2.9-8.3c0.4-1.6,0.2-3.5,0.4-5.1c0.3-3.7,1.9-7.4,2-11.1
			c0-0.1-0.1-0.1-0.2-0.1c-2.8,1.7-3.6,5.5-4.2,8.5c-0.5,2.4-1.5,5.9-1,8.5c-0.1,0.4-0.2,0.8-0.4,1.3c0,0.1-0.1,0.3-0.1,0.4
			c0,0,0,0.1-0.1,0.1c-0.2-0.1-0.5,0-0.7,0.2c-1.3,1.4-2.3,3.1-3.2,4.9c-0.5,0.5-0.9,1.1-1.5,1.5c-0.7,0.6-1.7,1.1-2.6,1.3
			c-0.2,0.1-0.4,0.2-0.6,0.3c0,0-0.1,0-0.1,0.1c-0.2-0.1-0.6,0-0.7,0.3c0,0.1-0.1,0.2-0.1,0.3c-1.1,1-1.6,2.1-2.2,3.6
			c-0.8,2.1-2.2,3.4-3.7,5.1c-2.5,3-8.7,3.3-12.3,3.5c-0.2,0-0.3,0.3-0.1,0.4c5,2.6,9.4,1.9,14.7,0.6c0,0,0,0,0,0
			c0.4,0.1,0.7,0.1,1,0.3c-0.1,1.7,0,3.4,0.3,5.1c-1.2,7-1.2,14.7-0.7,21.9c-0.6,4.3-0.4,9.1-0.4,13.3c-0.1,5.5,0,11.1,0.1,16.6
			c0.4,22.4,2.4,44.8,6,66.9c2.9,17.8,10.5,32.1,22.5,45.5c5.5,6.2,11.6,11.9,17.7,17.6c5.9,5.7,11.8,12.4,18.7,17
			c1.5,1,3.5-0.6,2.9-2.2c-0.1-0.2-0.1-0.4-0.2-0.6c0.3-0.3,0.6-0.6,0.9-1c0.3-0.2,0.5-0.4,0.7-0.7c0.2-0.4,0.3-0.8,0.4-1.1
			c0.2-0.4,0.4-0.8,0.6-1.3c0.9-1.9,2.1-4.4,1.6-6.5C407,727.1,406,726.5,405,726.5z M340.6,543.8c0-0.2-0.1-0.4-0.1-0.6
			c0.2-1.1,0.4-2.2,0.7-3.4c0.2-0.9,0.5-1.7,0.8-2.6C341.6,539.5,341.1,541.7,340.6,543.8z"/>
		<path class="st5" d="M704.6,541.8c-0.6-7.5-1.5-14.9-2.6-22.3c-0.6-3.8-1.4-7.5-2.1-11.2c-0.4-1.7-0.7-3.6-1.1-5.3
			c-0.1-2.1-0.1-4.7-0.8-6.6c0.8-3.6,1-7.5,1.4-11c0.6-6.3,0.6-12.5-0.3-18.8c0-0.3-0.4-0.2-0.5,0.1c-0.3,6.2-0.7,12.3-1.5,18.4
			c-0.5,4-1.8,8.1-2.4,12.1v0c-0.3,0-0.6,0.1-0.7,0.5c-0.5,0.5-0.9,1-1.4,1.5c-0.3,0.4-0.6,0.7-0.9,1.1c-0.8-0.2-1.6-0.2-2.5,0
			c0,0,0,0,0,0c-1.9,0-3.7,0.6-5.7,0.8c-2.9,0.3-6.1-0.8-8.8,0.3c-0.4,0.2-0.6,0.6-0.3,1c1.9,2.1,5.1,2.1,7.8,2.4
			c2.6,0.2,6.4,0.6,8.7-1c4.9,14,5.3,29.4,5.1,44.1c-0.3,20.3-1.1,40.7-3.2,60.8c-2.5,24-8.4,48-17.9,70.2
			c-8.9,20.8-22.1,37.4-38.2,53c-3.1,3,0.1,7.2,3.5,6.8c0.3,0.2,0.6,0.4,0.8,0.5c0.4,0.2,0.8,0.4,1.2,0.6c0.2,0.6,0.3,1.1,0.5,1.7
			c0.2,1,1.1,1.9,2.1,2.1c0.4,0.1,0.8,0.1,1.2,0.3c1,0.4,2.5-0.1,3.3-0.9c2.3-2.5,3.9-5.8,5.6-9c3.3-2.1,5.9-5.1,8.5-8.5
			c4.9-6.5,9.2-13.5,13.2-20.6c4.1-7.4,8.4-14.7,11.1-22.7c1.1-3.2,2-6.5,2.7-9.7c2.8-4.6,4.4-10.4,5.8-15.3
			c2.2-7.5,3.4-15.3,4.7-22.9c2.5-15,3.4-30.3,4.3-45.4C705.8,573.2,705.8,557.4,704.6,541.8z"/>
		<path class="st5" d="M661.4,766.2c-0.8-1.4-1.9-2.6-3-3.7c-0.1-0.2-0.3-0.3-0.4-0.5c-0.3-0.5-0.7-0.9-1.2-1.3
			c-0.3-0.3-0.6-0.7-0.9-1c-0.5-0.6-1.2-1-1.8-1.4c-0.1-1.8-1.4-3-3.2-3c-0.1-0.9-0.3-1.7-0.8-2.4c-0.4-0.7-1.5-0.6-1.7,0.2
			c-0.1,0.3-0.2,0.7-0.2,1c-0.5,0.8-1,1.6-1.5,2.5c-1.6,0.8-3.1,1.8-4.6,2.6c-3,1.6-6.1,2.9-9.1,4.4c-6.3,3.3-12.2,7-18.3,10.6
			c-1.6,1-3.2,1.9-4.8,2.9c-3.1,1.1-6.3,2.2-9.5,3.3c-9.7,3.3-19,7.4-28.5,11.2c-5.5,2.2-11.2,4.2-16.9,5.8
			c-5.9,1.7-12.2,2.7-17.4,6c-0.4,0.2-0.4,0.7-0.3,1c-2.5,4.7-3.1,10.6-4.1,15.7c-1.2,6.1-1.6,12.3-2.4,18.4
			c-1.7,12.4-3.9,24.8-5.5,37.2c-1.6,12.8-2.9,25.7-3.8,38.5c-0.2,3.2-0.4,6.4-0.6,9.6c-0.6,2.7-1.2,5.5-1.8,8.2
			c-1.3,6.2-2.6,12.4-3.5,18.7c-0.5,0.6-1,1.2-1.6,1.7c-2.6,2.6-4.7,5.6-7.1,8.4c-0.4,0.5-0.8,1-1.3,1.6c-4.2-0.2-8.4-0.4-12.5-0.7
			c-9.8-0.5-19.5-1.3-29.2-2.3c-5.7-0.6-11.4-1.1-17.1-1.5c-3.1-0.2-6.1-0.6-9.2-1c-2.1-0.3-4.3,0.2-6.5,0c-0.2,0-0.3,0.4-0.1,0.5
			c1.9,0.9,3.6,2.6,5.6,3.3c2.6,0.9,5.2,1.7,7.8,2.5c5.5,1.7,11,2.8,16.7,3.9c10.6,2,21.4,3,32.1,4.7c0.4,0.1,0.9,0.1,1.3,0.2
			c0,1,0.7,1.9,2,2c2,0.1,4-0.2,5.8-0.8c1.8,0.3,3.5,0.5,5.3,0.7c-0.8,1.7-1.7,3.4-2.6,5c-0.8,1.3,1,2.7,2.1,1.6
			c1.9-2,3.7-4,5.3-6.1c3.7,0.4,7.4,0.7,11.1,0.8c5.1,0.2,10.1-0.2,15.1-1.1c1.3-0.2,2.5-0.5,3.6-0.8c1.3,0,2.7,0,4,0
			c7.4,0.2,16.1,0.2,22.5-4.1c0.5,0,1.1-0.2,1.6-0.5c2.5-1.4,2.5-4.9,2.1-7.4c-0.1-0.7-0.3-1.3-0.5-1.9c1.1-4-0.2-10.8-0.4-13.7
			c-0.2-3.4-0.4-6.9-1.1-10.3c-0.4-9.2-0.7-18.3-0.7-27.5c0-0.6,0-1.2,0-1.8c0.4-11.7,1.1-23.4,2.2-35.1c0.3-3.6,0.8-7.3,1.3-10.9
			c2-12,5-23.8,8.8-35.4c2.5-2.5,4-6.4,5.4-9.4c1.2-2.5,2.4-5.2,3.1-8c0.3-0.1,0.6-0.2,0.9-0.3c3.7-1.1,7.4-2.2,11.1-3.3
			c8.7-2.6,17.3-5.4,25.7-8.8c8.1-3.3,16.1-7.1,23.2-12.3c3.9-2.8,13.6-10.3,10.7-16C662,766.7,661.7,766.4,661.4,766.2z"/>
		<path class="st5" d="M535.3,805.4c0.2,0,0.2-0.4,0-0.4C535.1,805.1,535.1,805.4,535.3,805.4z"/>
	</g>
</g>
<g id="Pants">
	<path class="st6" d="M650.3,1367.3c-1.3-0.1-2.8,0.2-4.3,0.4c-0.6-0.6-1.4-1.2-2.4-1.6c-2.2-0.9-4.6-1.3-6.9-1.4
		c-1.3-0.1-2.8,0.5-3.9,1.5c-0.4-0.3-0.9-0.5-1.3-0.7c-1.3-0.5-3.2-0.6-4.8-0.4c0.4-4.2-1.5-9-3.5-13c-0.1-3.5-0.8-7.1-1.4-10.5
		c-0.3-1.7-0.6-3.5-0.9-5.4c-0.4-3.8-1-7.5-1.7-11.2c-0.5-2.5-1.2-4.9-2.1-7.3c-1.5-11.4-3.2-22.7-4.9-34
		c-4.8-31.8-10.2-63.3-14.4-95.2c-2.1-16-4.2-31.9-6.7-47.8c-2.5-15.8-5.7-31.4-8.3-47.1c-5.1-31.1-8.9-62.4-15.3-93.3
		c-1.4-6.6-3.5-13.1-6.3-19.2c2.1-2,2.5-5.5-0.7-7.3c-4.1-2.2-8.9-2-13.4-1.8c-6.2,0.2-12.4,0.6-18.7,0.7
		c-14.2,0.1-28.4-1.4-42.4-3.5c-13.6-2.1-27-5-40.2-8.8c-7-2-13.9-4.2-21-6.2c-4.6-1.3-10.9-3.2-15.7-1.7c-0.7-0.8-2-0.4-2.2,0.5
		c-0.2,0.1-0.4,0.3-0.5,0.6c-1.3,6.4-0.8,13-0.5,19.6c0.3,7,0.9,14,1.6,21c1.2,12.4,3.6,24.6,4.1,37c0.5,11,0.3,22,1,33
		c0.2,2.8,0.2,10.2,1.6,16c-0.3,3.6-0.3,7.2-0.2,10.9c0.4,11.4,2.3,22.7,3.6,34c1.4,11.9,2,23.9,3.3,35.8c1.2,11.5,2.5,23,3.5,34.6
		c-0.9,9,0.1,18.3,0.7,27.3c0.4,5.6,0.6,11.2,0.9,16.8c-1.8,15-0.9,30.1-0.3,45.3c-0.8,4.2-1,8.6-1.3,12.9
		c-0.5,6.2-1.2,12.4-1.7,18.6c-0.9,11.1-3.1,23.8-0.9,34.9c-0.4,1.6-0.8,3.2-1.2,4.8c-1.8,1.3-3.5,2.7-5.2,3.8
		c-5.8,3.6-11.8,6.5-18.2,8.9c-6.2,2.3-12.2,3.3-18.8,3.7c-4.5,0.3-8.5,0.8-12.4,2c-1.6-0.2-3.2-0.4-4.8-0.5c-0.1,0-0.1,0-0.2,0
		c-1-1.5-2.8-2.3-4.5-1c-0.4,0.3-0.8,0.6-1.2,1c-2-1.8-5.5-0.2-7.6,0.7c-1,0.4-1.4,1.8-1.1,2.7c0,0,0,0,0,0
		c-1.3,1.4-2.1,3.2-2.7,5.3c-0.2,0.9-0.5,2.2-0.7,3.7c-0.4,0.7-0.4,1.6-0.1,2.3c0.1,2.2,0.8,4.2,3,4.6c0.3,0.1,0.7,0.1,1,0
		c2.6,1.2,7,1,9.1,1.1c0.8,0.1,1.6,0.1,2.3,0.1c10.4,2.1,21.4,1.8,31.8,1.2c7.8-0.5,15.1-1.7,22.6-3.8c0.5-0.1,1-0.3,1.5-0.4
		c0.1,0.1,0.2,0.2,0.3,0.3c4.6,4,10.7,4.1,16.5,4.2c6.7,0.1,14.3,0,20.5-2.8c1.4-0.6,2.7-1.5,3.8-2.4c1.2,0.3,2.5-0.3,3.1-1.3
		c1-1.5,2-4.4,1.7-6.7c0.4-1.6,0.5-3.2,0.4-4.9c-0.1-2.2-0.3-5-0.8-7.9c2.4-4.5,3.5-10,4.3-14.6c1.7-9.7,2.2-19.5,2.7-29.3
		c0.7-12.1,2.6-24.1,3.7-36.2c1.4-15.7,2.1-31.4,2.1-47.2c0-32.1,1.6-64.2,1.9-96.3c0.3-32-2.1-63.9-2-95.9c0-8.3,0.1-16.6,0-24.9
		c-0.1-6.3-1.1-13-0.2-19.2c0.1-0.2,0.3-0.3,0.4-0.5c1.8-0.6,3.4-1.8,5-3.1c1.6,0.9,3.4,1.5,4.9,2.1c4.4,1.6,9,2.9,13.7,3.6
		c0.7,0.1,1.6,0.2,2.4,0.3c0.5,4.8,2,9.7,3.3,14.2c2.3,7.8,4.7,15.5,7.2,23.2c4.9,14.9,10,29.8,15,44.7
		c10.2,30.4,17.5,61.4,25.1,92.5c7.7,31.8,15,63.7,21.3,95.7c2.9,15.1,5.4,30.1,6.9,45.4c1.4,14.5,2.3,29,4.2,43.4
		c0.5,4,1.1,7.9,1.9,11.8c-1.8,2.1-1.4,5.3-0.9,8.2c1,5.1,6.6,5.9,11,6.4c4.6,0.5,11.7-0.4,17.8-2.7c1.3,1,3.2,1.5,4.8,1.7
		c1,0.1,2.2,0,3.3-0.1c5.3,1.9,12.8,0.9,18.1,0.8c1.3,0.3,2.8,0.5,4.3,0.4c2.6,0.8,6.2,0,8.3-0.6c1.9-0.5,4.3-1.3,6.5-2.3
		c0.6,0,1.1-0.1,1.6-0.3c1.6-0.5,3.6-1.1,4.7-2.3c1-1.2,1.3-2.5,1.1-3.8c0.2-0.4,0.4-0.8,0.5-1.2
		C667.4,1374.2,659,1367.7,650.3,1367.3z M652.9,1381.2C653.4,1381.4,653.5,1381.6,652.9,1381.2L652.9,1381.2z"/>
</g>
<g id="Stroke_x5F_Body">
	<g id="Layer_4">
		<g>
			<path class="st6" d="M523,632.2c3.8-3,8.7-4.7,13.5-3.4c5.1,1.4,7.7,6.5,8.7,11.4c0.4,1.9,3.3,1.1,2.9-0.8
				c-1.1-6-4.4-11.1-10.3-13.3c-5.9-2.2-12.3,0.3-16.9,4C519.3,631.2,521.5,633.3,523,632.2z"/>
			<path class="st6" d="M477,618.5c3.6-2.9,8.3-4.8,13-3.6c4.9,1.4,7.3,6.5,7.8,11.2c0.2,1.9,3.2,1.9,3,0c-0.7-5.7-3.3-11.6-9-13.7
				c-6-2.2-12.1,0.2-16.9,4C473.4,617.6,475.5,619.7,477,618.5z"/>
			<path class="st6" d="M473.4,693c7.1,6.5,17.1,8.1,26.4,8c13-0.1,23.4-7.8,32.7-16.1c2-1.8,3.9-3.6,5.8-5.4
				c0.4-0.3,0.5-0.8,0.4-1.1c0.1-1-1-2.2-2.3-1.6c-0.9,0.5-2.3,0.2-3.3,0.2c-1.6,0-3.2-0.1-4.8-0.3c-3.3-0.3-6.6-0.9-9.9-1.6
				c-7.3-1.6-14.5-4-21.4-7c-12.6-5.4-25.6-12.8-34.4-23.5c-1-1.2-2.4-0.1-2.5,1.1c-0.1,0.2-0.1,0.4-0.1,0.6
				C461.5,661.9,460.9,681.6,473.4,693z M463.4,650c9.1,9.5,21.3,16.2,33.2,21.2c7.2,3,14.7,5.5,22.4,7.1c3.3,0.7,6.6,1.2,10,1.5
				c1.3,0.1,2.8,0.3,4.3,0.3c-8,7.6-17.1,15.4-28,17.5c-5.5,1.1-11.8,0.5-17.2-0.7c-4.2-0.9-8.2-2.6-11.5-5.2
				c-6.1-4.8-8.9-12.2-10.6-19.5C464.4,665,464,657.5,463.4,650z"/>
			<path class="st6" d="M701.6,502.3c0-0.2,0-0.3-0.1-0.5c0-0.1-0.1-0.2-0.1-0.3c-0.1-0.5-0.2-0.9-0.3-1.4c0-0.1-0.1-0.3-0.1-0.4
				c-0.4-2.2-0.3-4.5-0.3-6.7c0-4.3,0.3-8.6,0.6-12.9c0.2-3.9,0.5-7.8,0.5-11.7c0-2.5,0-5.4-1.1-7.7c-0.3-0.7-1.4-1-2.1-0.5
				c-3.6,2.6-4.4,6.7-5.5,10.8c-0.5-6.5-1.1-14.2-5.5-18.9c-0.8-0.9-2.1-0.3-2.5,0.7c-1.8,4.9,0.1,10.3-0.9,15.1
				c-3.1-7.2-4.9-15.1-10.8-20.6c-0.8-0.8-2.2-0.5-2.5,0.7c-1.1,4.2-0.3,8.2,1,12.2c0.9,2.6,2.2,5.4,2.8,8.2
				c-3.4-4.9-6.3-10.2-11.6-13.3c-0.8-0.5-1.9,0-2.2,0.9c-1.6,5.7,3.1,12.3,5.8,17c1.7,2.9,7.4,11,4.5,14.6
				c-0.2,0.2-0.5,0.4-0.7,0.5c-2.9-4.3-7.5-5.7-12.2-7.7c-0.6-0.2-1.4,0.1-1.7,0.7c-0.6,1.2-0.9,2.1-0.9,3.4c0,0.7,0.4,1.1,0.8,1.3
				c0.1,0.1,0.1,0.3,0.3,0.4c4.1,4.5,3,12.1,8.6,15.5c2.4,1.5,5.3,2.1,7.9,2.8c1.2,0.3,6.2,0.9,6.4,2.5c0,0.3,0.1,0.6,0.3,0.8
				c1.9,6.2,3.6,12.4,4.4,18.9c0.9,6.8,1,13.6,0.6,20.4c-0.8,13.8-3.8,27.4-7.2,40.8c-6.7,26.5-15.3,53.2-13.6,80.9
				c0.1,1.3,0.2,2.6,0.3,3.9c-0.1,0.1-0.3,0.2-0.4,0.4c-12.8,15.8-27.5,29.8-40.8,45.1c0,0-0.1-0.1-0.1-0.1
				c-0.5-0.6-1.1-0.6-1.6-0.3c-0.5-0.2-1-0.1-1.5,0.3c-13.7,12.3-31.8,18.1-49.6,21.6c-17.9,3.6-36.2,4.7-54.3,6.9
				c0.1-10,0.3-20,1-30c0.1-1.9-2.9-1.9-3,0c-0.4,6.4-0.7,12.9-0.8,19.3c-0.2,0.4-0.2,0.9,0,1.2c-0.1,4.4-0.1,8.9-0.2,13.3
				c-5,5.5-11.6,8.8-19.2,8.6c-7.8-0.3-14.8-5-19.4-11.1c0-0.1,0.1-0.2,0.1-0.4c1-10,1-20,0-30c-0.2-1.9-3.2-1.9-3,0
				c1,9.7,1,19.5,0.1,29.2c-0.2-0.1-0.4-0.2-0.6-0.2c-27.2-3-53.5-13.4-74.8-30.8c-10.4-8.5-19.5-18.6-26.3-30.2
				c-6-10.2-9.9-21.5-12.3-33c-5.2-24.6-4.4-50.1-7.1-74.9c0-0.3-0.2-0.6-0.3-0.8c-1.9-15-4.1-30-4.2-45.2c1.3-5.7,7-9.3,8-15.3
				c1-6.1-2.6-12.6,3.2-17.1c0.2-0.2,0.4-0.4,0.5-0.6c0.8-0.4,1.2-1.6,0.5-2.4c-0.5-0.6-0.8-1.6-1.1-2.4c-0.2-0.5-0.8-0.7-1.3-0.7
				c-3.8-0.2-7.3,0.8-9.7,3.9c-2.3,2.9-3.3,6.6-4.8,9.9c-8.7,5.4-16.5-2.6-22.5-8.5c-6-6-13.3-14.2-22.8-12.5
				c-1,0.2-1.3,1.4-0.9,2.2c1.1,2.6,3.5,4.8,5.3,6.9c1.1,1.3,2.1,2.6,3.1,4c0.3,0.5,0.7,1.1,0.9,1.6c0,0,0,0,0,0.1
				c-7.8-4.1-15.7-13.5-25.1-10.2c-0.8,0.3-1.5,1.4-0.9,2.2c2.5,3.4,5.8,5.8,9.2,8.1c2.9,2,6.2,4,8.3,6.9c-3.7,0.4-7.6-1.8-10.9-3
				c-4.5-1.7-9.2-2.5-13.5,0c-0.7,0.4-1,1.4-0.5,2.1c4.6,6.2,12.2,6.7,18.5,10c-3.2,1.3-7.7-0.1-10.8-0.7c-3.8-0.7-7.6-0.2-10.9,1.8
				c-2.4,1.4-2.3,4.1-0.3,5.8c2.7,2.3,6.7,3.3,10.1,3.9c11.4,1.9,34.4-1.8,36.6,14.2c0,0.3,0.1,0.5,0.3,0.7
				c1.3,25.1,0,50.3,0.7,75.4c0.4,13.1,1.2,26.2,3.2,39.1c0.9,6.1,2.2,12.2,3.8,18.2c1.6,5.7,3.8,11.2,5.7,16.8
				c0.8,2.4,1.6,4.9,3.1,7.1c1.6,2.4,3.9,4.2,6.2,5.8c0,0,0,0,0,0c0,0.1,0.1,0.2,0.2,0.2c16.5,21.1,30.2,44.8,50.7,62.3
				c-2.8,5.9-5.5,12-7.6,18.2c-0.2,0.5-0.1,0.9,0.2,1.2c-0.4,0.6-0.4,1.5,0.5,2c6.4,3.1,13.1,5.6,19.6,8.5c6.7,3,14.3,6.4,19.5,11.8
				c0.8,23.8-4.5,47.1-9.6,70.2c-5.2,23.6-10.4,47.5-9.8,71.8c0,1.1,1.1,1.6,1.9,1.4c0.2,0.1,0.3,0.1,0.5,0.1c0,0,0,0,0.1,0
				c2.8,56.6,8.7,113.1,13.2,169.6c4.7,58.7,8.2,117.7,5.9,176.6c-0.4,10.7-1.1,21.4-1.9,32c-0.4,5.2-0.9,10.5-1.5,15.7
				c-0.3,2.4-0.7,4.9-0.8,7.3c-0.1,1.8-1.3,3.4-1.5,5.2c0,0,0,0,0,0c0,0-0.1,0-0.1,0c0,0,0,0,0,0c0,0-0.1,0-0.1,0
				c-0.2,0-0.3,0.1-0.5,0.1c-19.2,9.5-42.1,13.2-63.5,11.8c-0.1,0-0.3,0-0.4,0c-0.3,0-0.6,0.1-0.8,0.2c-6.4,2.1-9.5,8.3-9.6,14.8
				c0,2.9-0.1,6.2,1.9,8.6c0.4,0.4,0.8,0.5,1.2,0.5c22.4,1.4,45.1,3.1,67.3-1.5c16.3,4.3,33.4,4.3,48.8-3.2c0.9-0.4,0.9-1.4,0.5-2
				c0.2-0.2,0.3-0.5,0.3-0.9c0-4.5-0.4-8.7-1.4-13c0.1-0.4,0.2-0.9,0.3-1.3c0.5-1.9,0.8-3.9,1.2-5.8c0.8-4.3,1.2-8.7,1.8-13
				c2.1-14.9,3.8-29.8,5.2-44.8c2.8-31,4.2-62.1,4.8-93.2c1.3-62.8-0.5-125.6-0.1-188.4c0-6.1,0.1-12.3,0.2-18.4
				c0.1-2.3,2.7-3.5,4.7-4.4c5.9,1.5,11.8,2.8,17.8,2.9c0.1,0,0.1,0,0.2,0c16.2,47.2,30.5,95.1,43.1,143.3
				c13.9,52.8,25.8,106.3,33.7,160.4c3.2,22.1,5.7,44.2,7,66.5c-0.2,0.5,0.1,1,0.5,1.4c-0.2,3.8,1.5,8,2.6,11.3
				c0.1,0.2,0.2,0.4,0.3,0.5c0,0,0,0,0,0c0,0,0,0.1,0.1,0.1c0.2,0.2,0.4,0.3,0.7,0.4c8.4,2.7,17.5,3.2,25.8,0.2
				c4.3,2,9.1,3,13.7,3.8c5.9,1,11.9,1.4,17.8,0.6c8-0.1,15.5-3.1,22.9-6.1c0.1,0,0.2-0.1,0.3-0.1c0,0,0,0,0,0c0,0,0,0,0,0
				c0.3-0.2,0.6-0.4,0.7-0.9c1.2-3.8,1.7-7.5,0.7-11.4c-0.9-3.5-3.2-6.5-5.3-9.3c-0.5-0.7-1.3-0.8-2-0.5c-0.1-0.1-0.3-0.2-0.4-0.2
				c-10.2-3.3-21.4-4.4-32.1-4.5c-9.2-60.3-18.8-120.5-28.7-180.6c-9.6-58.2-19.6-116.3-30-174.4c-2-11.4-4.1-22.7-6.2-34
				c0-0.2-0.1-0.3-0.1-0.4c0.1-0.1,0.1-0.3,0.1-0.4c4-1.2,7.9-2.5,11.9-3.8c1.4-0.5,1.3-2.2,0.3-2.8c-3.6-25.6-4.1-51.7-2.1-77.5
				c1.9-26,6.5-52.2,16.4-76.4c0.3-0.6,0.5-1.3,0.8-1.9c13.5-6.1,27.8-10.5,41.4-16.4c13.7-5.9,25.9-14.1,35.8-25.4
				c0.6-0.7,0.6-1.5,0-2.1c-5.9-6.9-11.9-13.8-17.9-20.7c0.5-0.5,1.1-1.2,1.4-1.7c0.1-0.2,0.2-0.4,0.2-0.6c1.1-1.1,2.3-2.2,3.2-3.2
				c2.2-2.5,4.4-5.1,6.6-7.7c3.9-4.8,7.5-9.7,11-14.9c6.7-10,12.3-20.6,16.9-31.7c10.3-25.1,13.6-51.7,16.3-78.5
				C707.4,573.3,708.8,537.3,701.6,502.3z M339.8,703c-0.1-0.2-0.3-0.3-0.5-0.4c-0.1-0.1-0.2-0.2-0.3-0.3c-3.6-2.7-5.8-5.3-7.3-9.6
				c-1.9-5.4-4-10.8-5.7-16.4c-3.6-12.3-5.4-25-6.4-37.7c-2.2-26.5-1-53.1-1.3-79.6c-0.1-6.2-0.2-12.3-0.6-18.5
				c0-0.5-0.2-0.9-0.6-1.1c-3-14-21.7-13.7-33.1-14.4c-3.3-0.2-6.4-0.6-9.5-1.5c-1.6-0.5-3.2-1.2-4.6-2.1c-0.3-0.2-0.7-0.9-0.7-0.7
				c0.3-0.6,1.5-1,2.1-1.2c4.2-1.6,7.6-0.5,11.8,0.2c3.7,0.6,7.8,0.8,10.6-2.1c0.5-0.5,0.5-1.2,0.3-1.7c-0.1-0.2-0.3-0.5-0.6-0.7
				c-5.6-3.7-13.6-4-18.3-8.8c8-2.7,15.8,6.9,24,3.6c0.9-0.4,1.4-1.3,0.9-2.2c-3.7-7-12-9.4-17.2-14.9c3.6-0.3,6.9,1.6,10,3.6
				c3.9,2.5,7.4,5.5,11.6,7.4c0.3,0.3,0.8,0.4,1.3,0.2c6.1-2.2-2.6-10.9-6.3-15.5c3.5,0.2,6.7,2.2,9.4,4.4
				c3.9,3.1,7.3,6.9,10.9,10.3c6.5,6.2,14.7,11.6,23.3,6.1c0.3-0.1,0.6-0.3,0.8-0.7c1.4-2.8,2.3-5.8,3.9-8.5c1.6-2.9,4.1-4,7.2-4.1
				c0.1,0.3,0.3,0.6,0.4,0.9c-2.2,1.8-3.9,3.9-4.4,6.8c-0.5,2.9,0.2,5.9,0.3,8.8c0.2,3.9-1.2,6.8-3.5,9.8c-1.8,2.5-3.7,4.9-4.5,7.9
				c-0.1,0.2-0.2,0.5-0.2,0.8c0,0.1,0,0.2,0,0.2c0,0.1,0,0.1,0,0.2c0,0.3,0,0.5,0,0.7c0.2,17.2,3,34.3,5,51.4c0,0.2,0.1,0.3,0.1,0.5
				c2,22.2,1.9,44.6,6,66.6c2.1,11.3,5.7,22.4,11.1,32.6c6,11.5,14.4,21.7,23.9,30.4c5.9,5.4,12.3,10.2,19.1,14.4
				c-5.7,12.5-12.6,24.3-18.7,36.6C369.7,747.2,356.1,723.9,339.8,703z M413,1390.7c-0.3-0.1-0.6-0.1-0.8,0c0,0,0,0,0,0
				c-21.8,4.6-44.3,2.9-66.3,1.5c-1.1-1.6-0.8-4.2-0.8-6c0.1-5.2,2.4-10.4,7.7-12c21.7,1.4,44.8-2.4,64.5-11.9
				c6.3,1.3,12.5,3.4,18.7,5.3c7.4,2.3,14.8,4.7,21.9,7.7c1,4.1,1.3,8.1,1.3,12.4c0,0.2,0,0.4,0.1,0.6
				C444.6,1395.1,428.4,1394.9,413,1390.7z M625.4,1366.7c0.2,0,0.4,0.1,0.5,0c10.8,0.1,22,1.1,32.3,4.4c0.4,0.1,0.8,0.1,1.1-0.1
				c1.7,2.3,3.4,4.6,4.4,7.4c1.1,3.2,0.7,6.5-0.3,9.7c-6.8,2.7-13.8,5.5-21.3,5.6c-5.7,0.7-11.4,0.4-17-0.5
				c-4.5-0.7-9.3-1.7-13.5-3.7c-0.3-0.3-0.8-0.5-1.4-0.2c-7.8,3-16.1,2.6-23.9,0.2c-1.2-3.5-3-8-1.8-11.5
				c4.5-5.8,10.2-10.3,17.2-12.5c7.5-2.3,15.6-1.3,22.9,1.1C624.9,1366.6,625.1,1366.7,625.4,1366.7z M588.8,1144.9
				c10.2,60.7,20,121.5,29.5,182.3c1.9,12,3.7,23.9,5.5,35.9c-7.7-2.2-15.7-2.7-23.4-0.4c-6.8,2.1-12.5,6.5-17,11.9
				c-3.1-50.4-12-100.4-22.7-149.7c-11.5-52.8-25.5-105.1-41.3-156.8c-6.3-20.7-13-41.3-20-61.8c-0.3-0.9-1.3-1.2-2-0.9
				c-0.2-0.1-0.4-0.2-0.7-0.2c-6-0.1-11.8-1.5-17.6-2.9c-0.4-0.1-0.7,0-1,0.1c0,0-0.1,0-0.1,0.1c-3.1,1.6-6.6,3.4-6.7,7.3
				c-0.8,62.6,1,125.3,0.3,187.9c-0.3,31.3-1.3,62.5-3.6,93.7c-1.1,15.3-2.6,30.5-4.4,45.7c-1.3,11-2.5,22.3-4.7,33.2
				c-0.1,0.7-0.3,1.4-0.4,2c-6.6-2.7-13.4-5-20.2-7.2c-6-1.9-12-3.9-18.1-5.3c0.1-0.2,0.1-0.4,0.2-0.6c0.1-1,0.7-1.9,1-2.9
				c0.5-1.3,0.4-2.6,0.6-4c0.4-3.5,0.8-7.1,1.2-10.6c0.7-6.9,1.3-13.8,1.7-20.8c1-14.2,1.5-28.4,1.7-42.7
				c0.5-29.4-0.4-58.8-1.9-88.2c-3.1-58.6-9-117-13.6-175.5c-1.6-20.5-3.1-41-4.1-61.6c4.1,0.6,8.2,2,12.1,3
				c2.6,0.7,5.2,1.4,7.7,2.1c0.2,0.2,0.4,0.4,0.7,0.4c3.1,0.9,6.1,1.8,9.2,2.6c0.4,0.1,0.9,0.3,1.3,0.4c0.2,0.1,0.4,0.1,0.6,0.1
				c38.1,10.1,77.7,14.5,117.1,13.5c0.3,0.2,0.7,0.2,1.1,0.1c0.2-0.1,0.4-0.1,0.6-0.2c0.4,0,0.7,0,1.1,0c0.4,0,0.7-0.2,0.9-0.4
				c0,0.2,0,0.4,0,0.6C569.4,1031.9,579.2,1088.3,588.8,1144.9z M663.3,768.6c-9.5,10.6-21.1,18.2-34.2,23.9
				c-13.6,5.9-27.8,10.2-41.3,16.3c-0.4,0-0.7,0.1-0.9,0.5c-0.3,0.2-0.4,0.6-0.4,0.9c-10,23.4-14.7,48.7-17,73.9
				c-2.4,26-2.1,52.4,1,78.3c0.2,1.8,0.5,3.6,0.7,5.4c-4.8,1.6-9.7,3.2-14.6,4.5c-40.2,1.1-80.6-3.4-119.4-13.9
				c-5.8-1.9-11.7-3.6-17.6-5.2c-4.9-1.3-10.3-3.1-15.4-3.4c-0.7-47.9,21.3-93.2,19.3-141.2c0-0.2,0-0.3-0.1-0.5c0,0,0,0,0-0.1
				c0,0,0-0.1-0.1-0.1c-0.1-0.1-0.1-0.3-0.3-0.4c-5.3-5.7-12.9-9.3-19.9-12.5c-6.4-3-13.2-5.4-19.5-8.5c0,0,0-0.1,0.1-0.1
				c6.9-20,18.6-37.7,27.4-56.8c18.3,10.9,39,17.6,60.2,19.9c0.3,0,0.6,0,0.8-0.1c5.1,6.8,12.2,11.5,20.8,12.5
				c8.8,1,17.3-3.3,23-9.8c0,0,0,0,0,0c0.3-0.2,0.4-0.6,0.4-1c0-0.5,0-1,0-1.5c18.4-2.2,36.9-3.5,55.1-7.1
				c18-3.5,36.2-9.6,50.3-21.8C635.3,736.9,649.6,752.5,663.3,768.6z M649.3,745.8C649.4,745.7,649.4,745.7,649.3,745.8L649.3,745.8
				z M701.8,597.9c-2.4,27.8-5.3,55.9-14.9,82.3c-4.4,12.2-10.3,23.8-17.3,34.7c-3.7,5.8-7.8,11.4-12.1,16.7
				c-2.1,2.6-4.3,5.2-6.6,7.7c-1.2,1.4-2.5,2.8-3.8,4.1c-0.3,0.3-0.6,0.7-1,1c-7-8-14-15.9-20.9-24c13.3-15.4,28.1-29.5,40.9-45.3
				c0.2-0.3,0.3-0.5,0.3-0.8c0.6-0.1,1.1-0.6,1-1.4c-2.8-28,5.6-55.1,12.5-81.8c3.4-13.1,6.4-26.4,7.6-39.9
				c1.3-14,0.1-27.8-3.9-41.3c-0.6-2-1.2-3.9-1.8-5.9c-0.3-1.1-1.5-1.3-2.2-0.8c-3-1.5-7.5-1.9-9.8-2.7c-4.1-1.3-5.6-4.1-7-8
				c-1-3-1.8-6-4-8.4c-0.1-0.1-0.1-0.1-0.2-0.2c0,0,0-0.1,0-0.1c3.9,1.6,7.7,2.9,9.8,6.9c0.3,0.6,1,0.8,1.7,0.7
				c0.3,0,0.5-0.1,0.7-0.2c0.2,0,0.5-0.1,0.8-0.2c0.6-0.3,1-0.7,1.4-1.1c0.2-0.1,0.3-0.2,0.4-0.4c3.1-3.8,0.1-9.9-1.9-13.9
				c-1.8-3.4-3.9-6.7-5.6-10.2c-0.9-1.8-2.1-4.1-2.3-6.3c4.9,3.9,7.6,10.3,11.6,15c0.7,0.8,2.3,0.4,2.5-0.7
				c1.1-7.6-4.7-14.3-4.4-21.7c4.8,6,6.1,14.1,9.7,20.8c0.3,0.6,0.9,0.8,1.5,0.7c0.4,0,0.9-0.2,1.1-0.7c2.8-4.9,1.1-10.2,1.6-15.4
				c1,2.1,1.4,4.6,1.8,6.8c0.6,3.5,0.9,7.1,1.3,10.7c0.1,1.1,1.1,1.5,1.9,1.4c0.7,0.5,2.1,0.4,2.5-0.7c1.3-3.3,1.6-7.9,3.8-10.9
				c0.3,1.9,0.1,3.9,0.1,5.6c-0.1,4-0.3,8-0.6,12c-0.2,4-0.5,8.1-0.5,12.1c0,2.7,0,5.6,0.8,8.3C705.1,533.8,704.6,566.1,701.8,597.9
				z"/>
		</g>
	</g>
</g>
<g id="Head">
	<path class="st5" d="M593.9,598c6.6-1.3,12.4-7.5,17.2-11.8c6.4-5.6,14.8-12.1,17.3-20.5c0.2-0.7-0.5-1.2-1.1-0.8
		c-3,2.3-5.8,4.6-8.7,7c3.9-5.5,7.2-11.6,9.5-18.1c0.2-0.5,0.1-1-0.1-1.4c0.9-1.2,1.8-2.5,2.7-3.8c0.5-0.7-0.4-1.5-1.1-1
		c-0.1,0.1-0.1,0.1-0.2,0.1c-0.1-0.1-0.2-0.2-0.4-0.3c0,0,0,0,0,0c-0.1-0.1-0.3-0.1-0.4,0c-0.1,0-0.3,0.1-0.4,0.1
		c-0.3-0.4-0.7-0.6-1.2-0.3c-0.9,0.5-1.7,0.9-2.6,1.4c-0.5,0.2-1,0.3-1.6,0.5c-0.4-0.4-0.9-0.8-1.7-0.8c-3.3-0.3-6.5,1-9.6,1.9
		c-2.9,0.8-5.7,1.6-8.4,2.8c-1.4-0.2-2.7-0.4-4-0.8c-3.5-1.2-7.2-2.9-10.9-2.8c-3.9-2.4-7.7-3.6-11.8-4.7c-8.9-4.4-18.1-8.3-27-12.2
		c-3.8-1.7-9.6-3.5-15.3-3.9c-10.5-4.1-21.4-7.3-32.7-7.1c-4.1,0-7.7,0.8-11,2.1c-7.2,1.4-14.7,6.8-18.4,11.9
		c-0.1,0.1-0.2,0.3-0.3,0.5c-4,4.7-5.9,10.7-5.5,17.1c0,0.3,0.1,0.6,0.2,0.9c-0.3,0.9-0.6,1.9-0.9,2.8c-0.6,1.8-0.3,3.5,0.5,5
		c-0.3,0.4-0.7,0.8-1,1.1c-5.6,6.3-6.8,13.7-8.2,21.3c-0.5,1.6-0.8,3.3-0.9,5c-0.2,1-0.4,2.1-0.7,3.1c-0.2,0.9,0.9,1.3,1.3,0.5
		c0.3-0.7,0.6-1.4,0.9-2c7.3-8.1,13.3-15.1,22.7-20.4c6.2-0.7,12.1-2.2,18.2-2.1c1.8,0.5,3.6,1.1,5.4,1.8c0,0,0,0,0,0c0,0,0,0,0,0
		c2.7,1.1,5.4,2.4,7.9,3.6c0.2,0.1,0.3,0.2,0.5,0.2c8.4,5.1,15.7,12.9,25.5,14.3c1.9,0.3,4.1,0.4,6.4,0.5
		c13.1,3.1,22.1,13.3,36,13.2c-0.1,0.4-0.2,0.8,0.1,1.3c0,0,0,0,0,0c-0.8-0.5-1.6-1-2.6-1.3c-0.7-0.2-1.2,0.7-0.6,1.1
		c0.2,0.2,0.4,0.4,0.6,0.6c0,0,0,0,0,0c-4.2,32.6-21.4,60.9-38.7,88c-0.9,0.8-1.7,1.6-2.6,2.4c-6.2,5.3-13.5,8.6-20.9,11.5
		c-2.6,0.1-5.5,1.5-8.2,3c-6.9,2.5-13.8,5-20.1,8.8c-2.4,0.8-4.8,1.4-7.3,1.8c-0.3,0-0.2,0.4,0,0.5c0.4,0.1,0.8,0.1,1.2,0.1
		c-0.1,0-0.1,0.1,0,0.2c0.1,0,0.2-0.1,0.1-0.2c3.8,0.4,7.5,0,11.2-0.9c0.9-0.1,1.7-0.3,2.6-0.5c0,0.5,0.3,1,0.9,1
		c8.9-0.7,16.8-2.9,24.9-6.5c4.4-1.9,11.4-4.7,15.6-8.7c9.1-5.9,16.6-16.9,21.1-25.7c0.1-0.1,0.1-0.2,0.2-0.3
		c0.7-1.1,1.4-2.3,2.1-3.4c3.8-4.8,6.9-10.5,9.6-16.4c1-1.9,2-3.8,2.9-5.7c1.3,1.1,3.3,1.4,4.8,0.1c0.4,0,0.9,0,1.3-0.2
		c5.7-2.5,9.4-11,7.2-16.9c-0.4-1-1.8-1.8-2.9-1.5c-0.7,0.2-1.1,0.4-1.5,0.6c-0.3-0.2-0.6-0.3-1-0.3c-0.6,0-1.1,0.2-1.6,0.5
		c0.1-0.2,0.2-0.5,0.2-0.8c1,0.4,2.1,0.1,2.6-1.2c1.3-3.9,3.3-11.5,3.3-18.3c0.3-0.1,0.5-0.3,0.7-0.6c1.9-2.8,1.9-6.1,2.1-9.4
		c0.1-0.9-0.5-1.5-1.2-1.9c-0.2-0.1-0.3-0.1-0.5-0.2c-0.2-0.5-0.4-0.9-0.7-1.3C588,600.9,591.1,599.7,593.9,598z"/>
	<g>
		<path class="st6" d="M582.8,631.4C582.8,631.4,582.8,631.4,582.8,631.4c4.3-12.3,8.7-28.8,8.7-29c0.1-0.3,0.1-0.6,0-0.9
			c27.5-7.9,42.4-38.3,42.5-38.7c0.3-0.7,0.2-1.5-0.3-2.1c-0.5-0.6-1.3-0.7-2-0.5l-4.1,1.6c4.5-8.4,6.7-15.7,6.9-16.5
			c0.2-0.7,0-1.4-0.5-1.9c-0.5-0.5-1.2-0.6-1.9-0.4c-29.6,10.2-37.2,6.8-57.6-2.5c-10.6-4.8-25.2-11.4-48.2-18.1
			c-21.5-6.3-37.9-4.9-49,4c-14.5,11.7-14.7,32.5-14.5,37.3c-7.5,6.3-9.8,21.1-10.5,30.3c-2.6-0.5-7.2-1-10.8,1.2
			c-2.8,1.7-4.5,4.5-5.1,8.4c-0.6,4,0.2,7.4,2.4,9.9c2.5,2.9,6.2,3.9,8.6,4.2c-10.3,36.8-1.8,62.8,7.3,78.1
			c10.1,17.2,23.2,25.7,26.2,26.8c0.1,0,0.2,0.1,0.3,0.1c3.3,0.7,6.2,0.5,6.4,0.5c26.3-2.8,60.2-12.3,72.7-42.1l0.3-0.7
			c1.5-3.3,7.5-15.8,11.2-23.4c8.5,2.2,11.8-3.1,15.2-8.8c0.5-0.7,0.9-1.5,1.4-2.3c1.4-2.2,1.8-4.5,1.2-6.8
			C588.3,634.5,583,631.5,582.8,631.4z M585.2,644.1c-0.5,0.8-1,1.6-1.5,2.3c-3.6,5.8-5.4,8.3-10.4,7.3c0.8-1.6,1.3-2.6,1.3-2.7
			c0.4-0.9,0.1-2-0.9-2.5c-0.9-0.4-2-0.1-2.5,0.9c-0.5,1-12,24.7-14.2,29.7l-0.3,0.7c-11.8,28.1-44.4,37.2-69.6,39.8
			c0,0-2.5,0.2-5.2-0.4c0,0,0,0,0,0c-0.6-0.2-51.8-30.3-30.4-102.5c0.2-0.6,0.1-1.2-0.3-1.7c-0.4-0.5-0.9-0.7-1.5-0.7
			c-0.1,0-5.5,0-8.2-3.2c-1.4-1.6-1.9-4-1.5-6.9c0.4-2.8,1.5-4.7,3.3-5.8c2.8-1.7,6.8-1.1,8.7-0.6c-0.1,2.2-0.1,3.6-0.1,3.9
			c0,0.3,0.1,0.5,0.2,0.8c0.1,0.7,0.5,1.3,1.1,1.6c0,0,0,0,0,0c0.9,0.3,2-0.1,2.4-1.1c0.2-0.4,17-41.6,48.3-30.5
			c1,0.3,2-0.2,2.4-1.1c0.3-1-0.2-2.2-1.1-2.4c-25.6-9-42.2,12.9-49.2,25.1c0.7-8.9,3-22.9,9.8-27.9c0.5-0.4,0.8-1,0.8-1.6
			c0-0.2-1.5-23.3,13.1-35.2c10-8.1,25.4-9.3,45.6-3.4c22.7,6.6,37.1,13.2,47.7,18c19.9,9.1,28.7,13,56.7,3.8
			c-3.8,10.2-16.4,38.7-38.5,36.8c-1-0.1-1.9,0.7-2,1.7c-0.1,1,0.7,1.9,1.7,2c15.8,1.4,27-10.3,34.1-21.9c0.4,0.1,0.8,0.1,1.2,0
			l2.1-0.8c-6.3,10.5-24.4,35.6-52.5,33.9c-1-0.1-1.9,0.7-2,1.7c-0.1,0.8,0.5,1.6,1.2,1.9c0.2,0.1,0.3,0.1,0.5,0.1
			c4.3,0.3,8.3-0.1,12.2-0.8c-1.2,4.2-5.9,21.5-10.1,32.1c-0.4,1,0.1,2,1.1,2.4c0,0,0,0,0,0c1,0.3,2-0.1,2.4-1.1
			c0.1-0.3,0.2-0.6,0.3-0.9c1.1,0.7,3.8,2.7,4.5,5.3C586.3,641.5,586,642.8,585.2,644.1z"/>
		<path class="st6" d="M532.7,586.3c1.2,0.6,2.3,1,3.5,1.5c21.9,8,41.1-6.2,42-6.9c0.8-0.6,1-1.8,0.4-2.6c-0.6-0.8-1.8-1-2.6-0.4
			c-0.2,0.2-20.4,15.1-41.7,5c-0.9-0.5-2,0-2.5,0.9C531.4,584.7,531.8,585.8,532.7,586.3z"/>
	</g>
</g>
</svg>
