<?xml version="1.0" encoding="utf-8"?>
<!-- Generator: Adobe Illustrator 19.2.0, SVG Export Plug-In . SVG Version: 6.00 Build 0)  -->
<svg version="1.1" id="Layer_1" xmlns="http://www.w3.org/2000/svg" xmlns:xlink="http://www.w3.org/1999/xlink" x="0px" y="0px"
	 viewBox="0 0 1024 768" style="enable-background:new 0 0 1024 768;" xml:space="preserve">
<style type="text/css">
	.st0{fill:#DCF0FB;}
	.st1{fill:#336699;}
</style>
<rect class="st0" width="1024" height="768"/>
<g>
	<path class="st1" d="M43.5,491.9l29.1,42.3h0.1v-42.3h4.8v50h-5.3l-29.1-42.3h-0.1v42.3h-4.8v-50H43.5z"/>
	<path class="st1" d="M109.3,506.2c2.1,1,3.9,2.4,5.4,4.1c1.4,1.7,2.5,3.7,3.3,6.1c0.7,2.3,1.1,4.8,1.1,7.4s-0.4,5.1-1.1,7.4
		c-0.7,2.3-1.8,4.3-3.3,6.1c-1.4,1.7-3.2,3.1-5.4,4.1c-2.1,1-4.6,1.5-7.3,1.5c-2.8,0-5.2-0.5-7.3-1.5c-2.1-1-3.9-2.4-5.4-4.1
		c-1.4-1.7-2.5-3.7-3.3-6.1c-0.7-2.3-1.1-4.8-1.1-7.4s0.4-5.1,1.1-7.4c0.7-2.3,1.8-4.3,3.3-6.1c1.4-1.7,3.2-3.1,5.4-4.1
		c2.1-1,4.6-1.5,7.3-1.5C104.7,504.7,107.1,505.2,109.3,506.2z M96.4,509.7c-1.6,0.9-2.9,2.1-4,3.5c-1.1,1.4-1.8,3.1-2.4,4.9
		c-0.5,1.8-0.8,3.7-0.8,5.6c0,1.9,0.3,3.8,0.8,5.6c0.5,1.8,1.3,3.5,2.4,4.9c1,1.4,2.4,2.6,4,3.5c1.6,0.9,3.4,1.3,5.5,1.3
		s3.9-0.4,5.5-1.3c1.6-0.9,2.9-2.1,4-3.5c1.1-1.4,1.8-3.1,2.4-4.9c0.5-1.8,0.8-3.7,0.8-5.6c0-1.9-0.3-3.8-0.8-5.6
		c-0.5-1.8-1.3-3.5-2.4-4.9c-1-1.4-2.4-2.6-4-3.5c-1.6-0.9-3.4-1.3-5.5-1.3S98,508.8,96.4,509.7z"/>
	<path class="st1" d="M149.1,505.7v6.1h0.2c1.2-2.2,2.7-4,4.6-5.2c1.9-1.3,4.3-1.9,7.2-1.9c2.4,0,4.5,0.6,6.5,1.8
		c1.9,1.2,3.2,2.9,3.9,5.3c1.1-2.4,2.7-4.2,4.8-5.3c2.1-1.2,4.3-1.8,6.7-1.8c8,0,12,4.2,12,12.7v24.5h-4.4v-24.3
		c0-3-0.6-5.3-1.9-6.8c-1.3-1.6-3.5-2.3-6.6-2.3c-1.9,0-3.5,0.4-4.8,1.1c-1.3,0.7-2.3,1.7-3,2.9c-0.7,1.2-1.3,2.6-1.6,4.2
		c-0.3,1.6-0.5,3.2-0.5,4.9v20.4h-4.4v-24.5c0-1.2-0.1-2.4-0.4-3.5c-0.3-1.1-0.7-2.1-1.3-2.9c-0.6-0.8-1.4-1.5-2.3-1.9
		c-1-0.5-2.2-0.7-3.6-0.7c-1.9,0-3.5,0.3-4.9,1c-1.4,0.7-2.5,1.6-3.4,2.8c-0.9,1.2-1.5,2.6-1.9,4.2c-0.4,1.6-0.6,3.4-0.6,5.3v20.2
		h-4.4v-36.1H149.1z"/>
	<path class="st1" d="M204.3,511.3c0.7-1.5,1.8-2.8,3-3.8c1.3-1,2.8-1.7,4.5-2.2c1.7-0.5,3.6-0.7,5.7-0.7c1.6,0,3.2,0.2,4.8,0.5
		c1.6,0.3,3,0.9,4.3,1.7c1.3,0.8,2.3,2,3.1,3.5c0.8,1.5,1.2,3.5,1.2,5.9v19.2c0,1.8,0.9,2.7,2.6,2.7c0.5,0,1-0.1,1.4-0.3v3.7
		c-0.5,0.1-1,0.2-1.4,0.2c-0.4,0-0.9,0.1-1.5,0.1c-1.1,0-2-0.2-2.7-0.5c-0.7-0.3-1.2-0.7-1.6-1.3c-0.4-0.6-0.6-1.2-0.7-2
		c-0.1-0.8-0.2-1.6-0.2-2.6h-0.1c-0.8,1.2-1.6,2.2-2.4,3.1c-0.8,0.9-1.7,1.7-2.7,2.3c-1,0.6-2.1,1.1-3.4,1.4
		c-1.3,0.3-2.8,0.5-4.6,0.5c-1.7,0-3.3-0.2-4.7-0.6c-1.5-0.4-2.8-1-3.9-1.9c-1.1-0.9-2-2-2.6-3.3s-0.9-2.9-0.9-4.7
		c0-2.5,0.6-4.5,1.7-5.9s2.6-2.5,4.4-3.3c1.8-0.7,3.9-1.3,6.2-1.6c2.3-0.3,4.7-0.6,7-0.9c0.9-0.1,1.8-0.2,2.5-0.4
		c0.7-0.1,1.3-0.4,1.8-0.7c0.5-0.4,0.8-0.8,1.1-1.4c0.3-0.6,0.4-1.4,0.4-2.4c0-1.5-0.2-2.7-0.7-3.7c-0.5-1-1.2-1.7-2-2.3
		c-0.9-0.6-1.9-0.9-3-1.2c-1.1-0.2-2.4-0.3-3.7-0.3c-2.8,0-5.1,0.7-6.9,2c-1.8,1.3-2.7,3.5-2.8,6.4H203
		C203.1,514.7,203.5,512.9,204.3,511.3z M226.3,522.1c-0.3,0.5-0.8,0.9-1.6,1.1c-0.8,0.2-1.5,0.4-2.1,0.5c-1.9,0.3-3.8,0.6-5.8,0.9
		c-2,0.3-3.8,0.6-5.4,1.2c-1.6,0.5-3,1.2-4,2.2c-1.1,1-1.6,2.3-1.6,4.1c0,1.1,0.2,2.1,0.7,3c0.4,0.9,1,1.6,1.8,2.2
		c0.7,0.6,1.6,1.1,2.6,1.4c1,0.3,2,0.5,3,0.5c1.7,0,3.3-0.3,4.8-0.8c1.5-0.5,2.9-1.3,4-2.2c1.1-1,2.1-2.2,2.7-3.6c0.7-1.4,1-3,1-4.8
		v-5.7H226.3z"/>
	<path class="st1" d="M254.1,505.7v3.7h-7.3v24.4c0,1.4,0.2,2.6,0.6,3.4c0.4,0.8,1.4,1.3,3,1.4c1.3,0,2.5-0.1,3.8-0.2v3.7
		c-0.7,0-1.3,0-2,0.1c-0.7,0-1.3,0.1-2,0.1c-2.9,0-5-0.6-6.2-1.7c-1.2-1.1-1.7-3.3-1.7-6.3v-24.7H236v-3.7h6.3v-10.8h4.4v10.8H254.1
		z"/>
	<path class="st1" d="M274.8,505.7v3.7h-7.3v24.4c0,1.4,0.2,2.6,0.6,3.4c0.4,0.8,1.4,1.3,3,1.4c1.3,0,2.5-0.1,3.8-0.2v3.7
		c-0.7,0-1.3,0-2,0.1c-0.7,0-1.3,0.1-2,0.1c-2.9,0-5-0.6-6.2-1.7c-1.2-1.1-1.7-3.3-1.7-6.3v-24.7h-6.3v-3.7h6.3v-10.8h4.4v10.8
		H274.8z"/>
	<path class="st1" d="M284.4,529.9c0.4,1.7,1.2,3.2,2.1,4.6s2.2,2.5,3.7,3.4c1.5,0.9,3.3,1.3,5.4,1.3c3.2,0,5.7-0.8,7.6-2.5
		c1.8-1.7,3.1-3.9,3.8-6.7h4.4c-0.9,4.1-2.6,7.3-5.1,9.5c-2.5,2.2-6,3.4-10.6,3.4c-2.8,0-5.3-0.5-7.4-1.5c-2.1-1-3.8-2.4-5.1-4.1
		c-1.3-1.8-2.3-3.8-2.9-6.1c-0.6-2.3-0.9-4.7-0.9-7.3c0-2.4,0.3-4.7,0.9-7c0.6-2.3,1.6-4.3,2.9-6.1c1.3-1.8,3-3.2,5.1-4.3
		c2.1-1.1,4.5-1.6,7.4-1.6c2.9,0,5.4,0.6,7.4,1.8c2.1,1.2,3.7,2.7,5,4.6c1.3,1.9,2.2,4.1,2.8,6.5s0.8,4.9,0.7,7.5h-27.8
		C283.7,526.6,284,528.2,284.4,529.9z M306.2,516.5c-0.5-1.5-1.3-2.9-2.3-4.1c-1-1.2-2.2-2.1-3.6-2.9c-1.4-0.7-3-1.1-4.8-1.1
		c-1.8,0-3.4,0.4-4.8,1.1c-1.4,0.7-2.6,1.7-3.6,2.9c-1,1.2-1.8,2.6-2.3,4.1c-0.6,1.6-1,3.2-1.2,4.8h23.4
		C307.1,519.6,306.8,518,306.2,516.5z"/>
	<path class="st1" d="M321.5,505.7v8.5h0.1c1.1-2.9,2.9-5.2,5.2-6.8c2.4-1.6,5.2-2.3,8.4-2.2v4.4c-2-0.1-3.8,0.2-5.5,0.8
		c-1.6,0.6-3,1.5-4.2,2.7c-1.2,1.2-2.1,2.6-2.8,4.2c-0.7,1.6-1,3.4-1,5.3v19.2h-4.4v-36.1H321.5z"/>
	<path class="st1" d="M363.3,491.9V512h0.1c0.8-2.2,2.3-4,4.5-5.3c2.1-1.3,4.5-2,7.1-2c2.5,0,4.6,0.3,6.3,1c1.7,0.7,3.1,1.6,4.1,2.8
		c1,1.2,1.8,2.6,2.2,4.4s0.6,3.7,0.6,5.8v23.2h-4.4v-22.5c0-1.5-0.1-3-0.4-4.3c-0.3-1.3-0.8-2.5-1.5-3.5c-0.7-1-1.6-1.8-2.8-2.3
		c-1.2-0.6-2.7-0.8-4.4-0.8c-1.8,0-3.3,0.3-4.7,0.9c-1.4,0.6-2.5,1.5-3.5,2.6c-1,1.1-1.7,2.4-2.2,3.9c-0.5,1.5-0.8,3.2-0.9,4.9v21.1
		h-4.4v-50H363.3z"/>
	<path class="st1" d="M419.1,506.2c2.1,1,3.9,2.4,5.4,4.1c1.4,1.7,2.5,3.7,3.3,6.1c0.7,2.3,1.1,4.8,1.1,7.4s-0.4,5.1-1.1,7.4
		c-0.7,2.3-1.8,4.3-3.3,6.1c-1.4,1.7-3.2,3.1-5.4,4.1c-2.1,1-4.6,1.5-7.3,1.5c-2.8,0-5.2-0.5-7.3-1.5c-2.1-1-3.9-2.4-5.4-4.1
		c-1.4-1.7-2.5-3.7-3.3-6.1c-0.7-2.3-1.1-4.8-1.1-7.4s0.4-5.1,1.1-7.4c0.7-2.3,1.8-4.3,3.3-6.1c1.4-1.7,3.2-3.1,5.4-4.1
		c2.1-1,4.6-1.5,7.3-1.5C414.6,504.7,417,505.2,419.1,506.2z M406.3,509.7c-1.6,0.9-2.9,2.1-4,3.5c-1.1,1.4-1.8,3.1-2.4,4.9
		c-0.5,1.8-0.8,3.7-0.8,5.6c0,1.9,0.3,3.8,0.8,5.6c0.5,1.8,1.3,3.5,2.4,4.9c1,1.4,2.4,2.6,4,3.5c1.6,0.9,3.4,1.3,5.5,1.3
		s3.9-0.4,5.5-1.3c1.6-0.9,2.9-2.1,4-3.5c1.1-1.4,1.8-3.1,2.4-4.9c0.5-1.8,0.8-3.7,0.8-5.6c0-1.9-0.3-3.8-0.8-5.6
		c-0.5-1.8-1.3-3.5-2.4-4.9c-1-1.4-2.4-2.6-4-3.5c-1.6-0.9-3.4-1.3-5.5-1.3S407.9,508.8,406.3,509.7z"/>
	<path class="st1" d="M436.5,505.7l9.2,30.9h0.1l8.8-30.9h5l8.8,30.9h0.1l9.2-30.9h4.7L471,541.9h-4.8l-8.9-30.4h-0.1l-8.8,30.4
		h-4.8l-11.6-36.1H436.5z"/>
	<path class="st1" d="M510.9,505.7v6.1h0.2c1.2-2.2,2.7-4,4.6-5.2c1.9-1.3,4.3-1.9,7.2-1.9c2.4,0,4.5,0.6,6.5,1.8
		c1.9,1.2,3.2,2.9,3.9,5.3c1.1-2.4,2.7-4.2,4.8-5.3c2.1-1.2,4.3-1.8,6.7-1.8c8,0,12,4.2,12,12.7v24.5h-4.4v-24.3
		c0-3-0.6-5.3-1.9-6.8c-1.3-1.6-3.5-2.3-6.6-2.3c-1.9,0-3.5,0.4-4.8,1.1c-1.3,0.7-2.3,1.7-3,2.9c-0.7,1.2-1.3,2.6-1.6,4.2
		c-0.3,1.6-0.5,3.2-0.5,4.9v20.4h-4.4v-24.5c0-1.2-0.1-2.4-0.4-3.5c-0.3-1.1-0.7-2.1-1.3-2.9c-0.6-0.8-1.4-1.5-2.3-1.9
		c-1-0.5-2.2-0.7-3.6-0.7c-1.9,0-3.5,0.3-4.9,1c-1.4,0.7-2.5,1.6-3.4,2.8c-0.9,1.2-1.5,2.6-1.9,4.2c-0.4,1.6-0.6,3.4-0.6,5.3v20.2
		h-4.4v-36.1H510.9z"/>
	<path class="st1" d="M566,511.3c0.7-1.5,1.8-2.8,3-3.8c1.3-1,2.8-1.7,4.5-2.2c1.7-0.5,3.6-0.7,5.7-0.7c1.6,0,3.2,0.2,4.8,0.5
		c1.6,0.3,3,0.9,4.3,1.7c1.3,0.8,2.3,2,3.1,3.5c0.8,1.5,1.2,3.5,1.2,5.9v19.2c0,1.8,0.9,2.7,2.6,2.7c0.5,0,1-0.1,1.4-0.3v3.7
		c-0.5,0.1-1,0.2-1.4,0.2c-0.4,0-0.9,0.1-1.5,0.1c-1.1,0-2-0.2-2.7-0.5c-0.7-0.3-1.2-0.7-1.6-1.3c-0.4-0.6-0.6-1.2-0.7-2
		c-0.1-0.8-0.2-1.6-0.2-2.6h-0.1c-0.8,1.2-1.6,2.2-2.4,3.1c-0.8,0.9-1.7,1.7-2.7,2.3c-1,0.6-2.1,1.1-3.4,1.4
		c-1.3,0.3-2.8,0.5-4.6,0.5c-1.7,0-3.3-0.2-4.7-0.6c-1.5-0.4-2.8-1-3.8-1.9c-1.1-0.9-2-2-2.6-3.3c-0.6-1.3-0.9-2.9-0.9-4.7
		c0-2.5,0.6-4.5,1.7-5.9s2.6-2.5,4.4-3.3c1.8-0.7,3.9-1.3,6.2-1.6c2.3-0.3,4.7-0.6,7-0.9c0.9-0.1,1.8-0.2,2.5-0.4
		c0.7-0.1,1.3-0.4,1.8-0.7c0.5-0.4,0.8-0.8,1.1-1.4c0.3-0.6,0.4-1.4,0.4-2.4c0-1.5-0.2-2.7-0.7-3.7c-0.5-1-1.2-1.7-2-2.3
		c-0.9-0.6-1.9-0.9-3-1.2c-1.1-0.2-2.4-0.3-3.7-0.3c-2.8,0-5.1,0.7-6.9,2c-1.8,1.3-2.7,3.5-2.8,6.4h-4.4
		C564.8,514.7,565.3,512.9,566,511.3z M588.1,522.1c-0.3,0.5-0.8,0.9-1.6,1.1c-0.8,0.2-1.5,0.4-2.1,0.5c-1.9,0.3-3.8,0.6-5.8,0.9
		c-2,0.3-3.8,0.6-5.4,1.2c-1.6,0.5-3,1.2-4,2.2c-1,1-1.6,2.3-1.6,4.1c0,1.1,0.2,2.1,0.7,3c0.4,0.9,1,1.6,1.8,2.2
		c0.7,0.6,1.6,1.1,2.6,1.4c1,0.3,2,0.5,3,0.5c1.7,0,3.3-0.3,4.8-0.8s2.9-1.3,4-2.2c1.1-1,2.1-2.2,2.7-3.6c0.7-1.4,1-3,1-4.8v-5.7
		H588.1z"/>
	<path class="st1" d="M605.8,505.7v6.2h0.1c0.8-2.2,2.3-4,4.5-5.3c2.1-1.3,4.5-2,7.1-2c2.5,0,4.6,0.3,6.3,1c1.7,0.7,3.1,1.6,4.1,2.8
		c1,1.2,1.8,2.6,2.2,4.4s0.6,3.7,0.6,5.8v23.2h-4.4v-22.5c0-1.5-0.1-3-0.4-4.3s-0.8-2.5-1.5-3.5c-0.7-1-1.6-1.8-2.8-2.3
		c-1.2-0.6-2.7-0.8-4.4-0.8c-1.8,0-3.3,0.3-4.7,0.9c-1.4,0.6-2.5,1.5-3.5,2.6c-1,1.1-1.7,2.4-2.2,3.9c-0.5,1.5-0.8,3.2-0.9,4.9v21.1
		h-4.4v-36.1H605.8z"/>
	<path class="st1" d="M639.7,505.7l11.9,30.8l11.1-30.8h4.4l-15.7,41.6c-0.7,1.5-1.3,2.8-1.8,3.8c-0.6,1-1.2,1.8-1.9,2.4
		c-0.7,0.6-1.5,1-2.4,1.3c-0.9,0.3-2.1,0.4-3.5,0.4c-0.9,0-1.6-0.1-2.1-0.1c-0.5,0-0.9-0.1-1.3-0.2v-3.7c0.5,0.1,1,0.2,1.5,0.2
		c0.5,0.1,1,0.1,1.5,0.1c1,0,1.8-0.1,2.4-0.4s1.2-0.7,1.6-1.2c0.5-0.5,0.9-1.1,1.2-1.8c0.3-0.7,0.7-1.5,1-2.3l1.5-4.1l-14.4-36
		H639.7z"/>
	<path class="st1" d="M696.9,491.9v50h-4.8v-50H696.9z"/>
	<path class="st1" d="M710.8,505.7v6.2h0.1c0.8-2.2,2.3-4,4.5-5.3c2.1-1.3,4.5-2,7.1-2c2.5,0,4.6,0.3,6.3,1c1.7,0.7,3.1,1.6,4.1,2.8
		c1,1.2,1.8,2.6,2.2,4.4s0.6,3.7,0.6,5.8v23.2h-4.4v-22.5c0-1.5-0.1-3-0.4-4.3s-0.8-2.5-1.5-3.5c-0.7-1-1.6-1.8-2.8-2.3
		c-1.2-0.6-2.7-0.8-4.4-0.8c-1.8,0-3.3,0.3-4.7,0.9c-1.4,0.6-2.5,1.5-3.5,2.6c-1,1.1-1.7,2.4-2.2,3.9c-0.5,1.5-0.8,3.2-0.9,4.9v21.1
		h-4.4v-36.1H710.8z"/>
	<path class="st1" d="M764.8,512.8c-0.5-1-1.2-1.8-2.1-2.5c-0.9-0.7-1.9-1.1-3-1.4c-1.1-0.3-2.3-0.5-3.6-0.5c-1,0-2,0.1-3,0.3
		c-1,0.2-1.9,0.6-2.8,1c-0.8,0.5-1.5,1.1-2,1.9c-0.5,0.8-0.8,1.8-0.8,2.9c0,1,0.2,1.8,0.7,2.5c0.5,0.7,1.1,1.2,1.9,1.7
		c0.7,0.5,1.6,0.9,2.5,1.2c0.9,0.3,1.7,0.5,2.5,0.7l5.9,1.3c1.3,0.2,2.5,0.5,3.7,1c1.2,0.5,2.3,1.1,3.3,1.9c1,0.8,1.7,1.8,2.3,2.9
		c0.6,1.2,0.9,2.5,0.9,4.1c0,2-0.4,3.6-1.3,5c-0.9,1.4-2,2.5-3.4,3.4c-1.4,0.9-2.9,1.5-4.7,1.9c-1.7,0.4-3.4,0.6-5.1,0.6
		c-4.2,0-7.7-1-10.3-3c-2.6-2-4.1-5.2-4.5-9.7h4.4c0.2,3,1.3,5.2,3.3,6.8c2,1.5,4.4,2.3,7.4,2.3c1.1,0,2.2-0.1,3.3-0.3
		c1.1-0.2,2.2-0.6,3.2-1.2c1-0.6,1.8-1.3,2.4-2.1c0.6-0.9,0.9-1.9,0.9-3.2c0-1.1-0.2-2-0.7-2.7c-0.4-0.7-1-1.3-1.8-1.8
		c-0.7-0.5-1.6-0.9-2.6-1.2c-1-0.3-1.9-0.6-2.9-0.8l-5.7-1.3c-1.4-0.4-2.8-0.8-4-1.3c-1.2-0.5-2.3-1.1-3.2-1.8s-1.6-1.6-2.1-2.7
		c-0.5-1-0.8-2.3-0.8-3.9c0-1.8,0.4-3.4,1.2-4.7c0.8-1.3,1.9-2.4,3.2-3.2c1.3-0.8,2.8-1.4,4.4-1.8c1.6-0.4,3.2-0.6,4.8-0.6
		c1.8,0,3.5,0.2,5.1,0.7c1.6,0.5,2.9,1.2,4.1,2.2c1.2,1,2.1,2.2,2.8,3.6c0.7,1.4,1.1,3.2,1.2,5.1h-4.4
		C765.6,515,765.3,513.8,764.8,512.8z"/>
	<path class="st1" d="M792.1,505.7v3.7h-7.3v24.4c0,1.4,0.2,2.6,0.6,3.4c0.4,0.8,1.4,1.3,3,1.4c1.3,0,2.5-0.1,3.8-0.2v3.7
		c-0.7,0-1.3,0-2,0.1c-0.7,0-1.3,0.1-2,0.1c-2.9,0-5-0.6-6.2-1.7c-1.2-1.1-1.7-3.3-1.7-6.3v-24.7H774v-3.7h6.3v-10.8h4.4v10.8H792.1
		z"/>
	<path class="st1" d="M799.3,511.3c0.7-1.5,1.8-2.8,3-3.8c1.3-1,2.8-1.7,4.5-2.2c1.7-0.5,3.6-0.7,5.7-0.7c1.6,0,3.2,0.2,4.8,0.5
		c1.6,0.3,3,0.9,4.3,1.7c1.3,0.8,2.3,2,3.1,3.5c0.8,1.5,1.2,3.5,1.2,5.9v19.2c0,1.8,0.9,2.7,2.6,2.7c0.5,0,1-0.1,1.4-0.3v3.7
		c-0.5,0.1-1,0.2-1.4,0.2c-0.4,0-0.9,0.1-1.5,0.1c-1.1,0-2-0.2-2.7-0.5c-0.7-0.3-1.2-0.7-1.6-1.3c-0.4-0.6-0.6-1.2-0.7-2
		c-0.1-0.8-0.2-1.6-0.2-2.6h-0.1c-0.8,1.2-1.6,2.2-2.4,3.1c-0.8,0.9-1.7,1.7-2.7,2.3c-1,0.6-2.1,1.1-3.4,1.4
		c-1.3,0.3-2.8,0.5-4.6,0.5c-1.7,0-3.3-0.2-4.7-0.6c-1.5-0.4-2.8-1-3.8-1.9c-1.1-0.9-2-2-2.6-3.3c-0.6-1.3-0.9-2.9-0.9-4.7
		c0-2.5,0.6-4.5,1.7-5.9s2.6-2.5,4.4-3.3c1.8-0.7,3.9-1.3,6.2-1.6c2.3-0.3,4.7-0.6,7-0.9c0.9-0.1,1.8-0.2,2.5-0.4
		c0.7-0.1,1.3-0.4,1.8-0.7c0.5-0.4,0.8-0.8,1.1-1.4c0.3-0.6,0.4-1.4,0.4-2.4c0-1.5-0.2-2.7-0.7-3.7c-0.5-1-1.2-1.7-2-2.3
		c-0.9-0.6-1.9-0.9-3-1.2c-1.1-0.2-2.4-0.3-3.7-0.3c-2.8,0-5.1,0.7-6.9,2c-1.8,1.3-2.7,3.5-2.8,6.4H798
		C798.2,514.7,798.6,512.9,799.3,511.3z M821.4,522.1c-0.3,0.5-0.8,0.9-1.6,1.1c-0.8,0.2-1.5,0.4-2.1,0.5c-1.9,0.3-3.8,0.6-5.8,0.9
		c-2,0.3-3.8,0.6-5.4,1.2c-1.6,0.5-3,1.2-4,2.2c-1,1-1.6,2.3-1.6,4.1c0,1.1,0.2,2.1,0.7,3c0.4,0.9,1,1.6,1.8,2.2
		c0.7,0.6,1.6,1.1,2.6,1.4c1,0.3,2,0.5,3,0.5c1.7,0,3.3-0.3,4.8-0.8s2.9-1.3,4-2.2c1.1-1,2.1-2.2,2.7-3.6c0.7-1.4,1-3,1-4.8v-5.7
		H821.4z"/>
	<path class="st1" d="M864.4,546.1c-0.6,2.1-1.5,4-2.8,5.5c-1.3,1.5-2.9,2.6-4.9,3.4c-2,0.8-4.5,1.2-7.5,1.2c-1.8,0-3.6-0.2-5.3-0.6
		c-1.7-0.4-3.3-1.1-4.7-2c-1.4-0.9-2.5-2-3.4-3.4c-0.9-1.4-1.4-3-1.6-4.9h4.4c0.2,1.4,0.7,2.5,1.4,3.4c0.7,0.9,1.5,1.6,2.4,2.2
		c1,0.6,2,1,3.2,1.2c1.2,0.3,2.4,0.4,3.6,0.4c4.1,0,7.1-1.2,8.9-3.5c1.8-2.3,2.7-5.7,2.7-10.1V534h-0.1c-1,2.2-2.5,4-4.5,5.4
		c-2,1.4-4.3,2-7,2c-2.9,0-5.4-0.5-7.4-1.4c-2.1-1-3.7-2.3-5.1-4c-1.3-1.7-2.3-3.7-2.9-5.9c-0.6-2.3-0.9-4.7-0.9-7.2
		c0-2.5,0.4-4.8,1.1-7c0.7-2.2,1.8-4.2,3.2-5.8c1.4-1.7,3.1-3,5.1-3.9c2-1,4.4-1.4,7-1.4c1.4,0,2.6,0.2,3.8,0.6
		c1.2,0.4,2.3,0.9,3.3,1.6c1,0.7,1.9,1.5,2.6,2.3c0.8,0.9,1.4,1.8,1.8,2.8h0.1v-6.2h4.4v33.2C865.3,541.6,865,544,864.4,546.1z
		 M854.3,536.5c1.4-0.8,2.7-1.9,3.6-3.2c1-1.3,1.7-2.9,2.2-4.6c0.5-1.7,0.7-3.5,0.7-5.3c0-1.8-0.2-3.5-0.6-5.3s-1.1-3.4-2-4.8
		c-0.9-1.4-2.1-2.6-3.6-3.5c-1.5-0.9-3.3-1.3-5.4-1.3c-2.1,0-3.9,0.4-5.4,1.3c-1.5,0.9-2.7,2-3.7,3.4c-1,1.4-1.7,3-2.1,4.8
		c-0.4,1.8-0.7,3.6-0.7,5.5c0,1.8,0.2,3.6,0.7,5.3c0.5,1.7,1.2,3.3,2.2,4.6c1,1.3,2.2,2.4,3.7,3.2c1.5,0.8,3.3,1.2,5.3,1.2
		C851.2,537.7,852.8,537.3,854.3,536.5z"/>
	<path class="st1" d="M877.7,505.7v8.5h0.1c1.1-2.9,2.9-5.2,5.2-6.8c2.4-1.6,5.2-2.3,8.4-2.2v4.4c-2-0.1-3.8,0.2-5.5,0.8
		c-1.6,0.6-3,1.5-4.2,2.7c-1.2,1.2-2.1,2.6-2.8,4.2c-0.7,1.6-1,3.4-1,5.3v19.2h-4.4v-36.1H877.7z"/>
	<path class="st1" d="M896.6,511.3c0.7-1.5,1.8-2.8,3-3.8c1.3-1,2.8-1.7,4.5-2.2c1.7-0.5,3.6-0.7,5.7-0.7c1.6,0,3.2,0.2,4.8,0.5
		c1.6,0.3,3,0.9,4.3,1.7c1.3,0.8,2.3,2,3.1,3.5c0.8,1.5,1.2,3.5,1.2,5.9v19.2c0,1.8,0.9,2.7,2.6,2.7c0.5,0,1-0.1,1.4-0.3v3.7
		c-0.5,0.1-1,0.2-1.4,0.2c-0.4,0-0.9,0.1-1.5,0.1c-1.1,0-2-0.2-2.7-0.5c-0.7-0.3-1.2-0.7-1.6-1.3c-0.4-0.6-0.6-1.2-0.7-2
		c-0.1-0.8-0.2-1.6-0.2-2.6H919c-0.8,1.2-1.6,2.2-2.4,3.1c-0.8,0.9-1.7,1.7-2.7,2.3c-1,0.6-2.1,1.1-3.4,1.4
		c-1.3,0.3-2.8,0.5-4.6,0.5c-1.7,0-3.3-0.2-4.7-0.6c-1.5-0.4-2.8-1-3.8-1.9c-1.1-0.9-2-2-2.6-3.3c-0.6-1.3-0.9-2.9-0.9-4.7
		c0-2.5,0.6-4.5,1.7-5.9s2.6-2.5,4.4-3.3c1.8-0.7,3.9-1.3,6.2-1.6c2.3-0.3,4.7-0.6,7-0.9c0.9-0.1,1.8-0.2,2.5-0.4
		c0.7-0.1,1.3-0.4,1.8-0.7c0.5-0.4,0.8-0.8,1.1-1.4c0.3-0.6,0.4-1.4,0.4-2.4c0-1.5-0.2-2.7-0.7-3.7c-0.5-1-1.2-1.7-2-2.3
		c-0.9-0.6-1.9-0.9-3-1.2c-1.1-0.2-2.4-0.3-3.7-0.3c-2.8,0-5.1,0.7-6.9,2c-1.8,1.3-2.7,3.5-2.8,6.4h-4.4
		C895.5,514.7,895.9,512.9,896.6,511.3z M918.7,522.1c-0.3,0.5-0.8,0.9-1.6,1.1c-0.8,0.2-1.5,0.4-2.1,0.5c-1.9,0.3-3.8,0.6-5.8,0.9
		c-2,0.3-3.8,0.6-5.4,1.2c-1.6,0.5-3,1.2-4,2.2c-1,1-1.6,2.3-1.6,4.1c0,1.1,0.2,2.1,0.7,3c0.4,0.9,1,1.6,1.8,2.2
		c0.7,0.6,1.6,1.1,2.6,1.4c1,0.3,2,0.5,3,0.5c1.7,0,3.3-0.3,4.8-0.8s2.9-1.3,4-2.2c1.1-1,2.1-2.2,2.7-3.6c0.7-1.4,1-3,1-4.8v-5.7
		H918.7z"/>
	<path class="st1" d="M936.1,505.7v6.1h0.2c1.2-2.2,2.7-4,4.6-5.2c1.9-1.3,4.3-1.9,7.2-1.9c2.4,0,4.5,0.6,6.5,1.8
		c1.9,1.2,3.2,2.9,3.9,5.3c1.1-2.4,2.7-4.2,4.8-5.3c2.1-1.2,4.3-1.8,6.7-1.8c8,0,12,4.2,12,12.7v24.5h-4.4v-24.3
		c0-3-0.6-5.3-1.9-6.8c-1.3-1.6-3.5-2.3-6.6-2.3c-1.9,0-3.5,0.4-4.8,1.1c-1.3,0.7-2.3,1.7-3,2.9c-0.7,1.2-1.3,2.6-1.6,4.2
		c-0.3,1.6-0.5,3.2-0.5,4.9v20.4h-4.4v-24.5c0-1.2-0.1-2.4-0.4-3.5c-0.3-1.1-0.7-2.1-1.3-2.9c-0.6-0.8-1.4-1.5-2.3-1.9
		c-1-0.5-2.2-0.7-3.6-0.7c-1.9,0-3.5,0.3-4.9,1c-1.4,0.7-2.5,1.6-3.4,2.8c-0.9,1.2-1.5,2.6-1.9,4.2c-0.4,1.6-0.6,3.4-0.6,5.3v20.2
		h-4.4v-36.1H936.1z"/>
	<path class="st1" d="M44.2,593.5v32.4h-4.4v-32.4h-6.2v-3.7h6.2v-3.3c0-1.5,0.1-3,0.4-4.3c0.2-1.3,0.7-2.4,1.3-3.4
		c0.7-0.9,1.6-1.7,2.7-2.2c1.1-0.5,2.6-0.8,4.4-0.8c0.7,0,1.3,0,1.8,0.1c0.6,0,1.2,0.1,1.9,0.2v3.8c-0.6-0.1-1.2-0.2-1.7-0.2
		c-0.5-0.1-1-0.1-1.5-0.1c-1.2,0-2.1,0.2-2.8,0.6c-0.7,0.4-1.1,0.9-1.4,1.5c-0.3,0.6-0.5,1.4-0.5,2.2c0,0.8-0.1,1.8-0.1,2.7v3.1h7.1
		v3.7H44.2z"/>
	<path class="st1" d="M78.1,590.2c2.1,1,3.9,2.4,5.4,4.1c1.4,1.7,2.5,3.7,3.3,6.1c0.7,2.3,1.1,4.8,1.1,7.4s-0.4,5.1-1.1,7.4
		c-0.7,2.3-1.8,4.3-3.3,6.1c-1.4,1.7-3.2,3.1-5.4,4.1c-2.1,1-4.6,1.5-7.3,1.5c-2.8,0-5.2-0.5-7.3-1.5c-2.1-1-3.9-2.4-5.4-4.1
		c-1.4-1.7-2.5-3.7-3.3-6.1c-0.7-2.3-1.1-4.8-1.1-7.4s0.4-5.1,1.1-7.4c0.7-2.3,1.8-4.3,3.3-6.1c1.4-1.7,3.2-3.1,5.4-4.1
		c2.1-1,4.6-1.5,7.3-1.5C73.5,588.7,76,589.2,78.1,590.2z M65.3,593.7c-1.6,0.9-2.9,2.1-4,3.5c-1.1,1.4-1.8,3.1-2.4,4.9
		c-0.5,1.8-0.8,3.7-0.8,5.6c0,1.9,0.3,3.8,0.8,5.6c0.5,1.8,1.3,3.5,2.4,4.9c1,1.4,2.4,2.6,4,3.5c1.6,0.9,3.4,1.3,5.5,1.3
		s3.9-0.4,5.5-1.3c1.6-0.9,2.9-2.1,4-3.5c1.1-1.4,1.8-3.1,2.4-4.9c0.5-1.8,0.8-3.7,0.8-5.6c0-1.9-0.3-3.8-0.8-5.6
		c-0.5-1.8-1.3-3.5-2.4-4.9c-1-1.4-2.4-2.6-4-3.5c-1.6-0.9-3.4-1.3-5.5-1.3S66.9,592.8,65.3,593.7z"/>
	<path class="st1" d="M98.9,575.9v50h-4.4v-50H98.9z"/>
	<path class="st1" d="M111.9,575.9v50h-4.4v-50H111.9z"/>
	<path class="st1" d="M142.9,590.2c2.1,1,3.9,2.4,5.4,4.1c1.4,1.7,2.5,3.7,3.3,6.1c0.7,2.3,1.1,4.8,1.1,7.4s-0.4,5.1-1.1,7.4
		c-0.7,2.3-1.8,4.3-3.3,6.1c-1.4,1.7-3.2,3.1-5.4,4.1c-2.1,1-4.6,1.5-7.3,1.5c-2.8,0-5.2-0.5-7.3-1.5c-2.1-1-3.9-2.4-5.4-4.1
		c-1.4-1.7-2.5-3.7-3.3-6.1c-0.7-2.3-1.1-4.8-1.1-7.4s0.4-5.1,1.1-7.4c0.7-2.3,1.8-4.3,3.3-6.1c1.4-1.7,3.2-3.1,5.4-4.1
		c2.1-1,4.6-1.5,7.3-1.5C138.4,588.7,140.8,589.2,142.9,590.2z M130.1,593.7c-1.6,0.9-2.9,2.1-4,3.5c-1.1,1.4-1.8,3.1-2.4,4.9
		c-0.5,1.8-0.8,3.7-0.8,5.6c0,1.9,0.3,3.8,0.8,5.6c0.5,1.8,1.3,3.5,2.4,4.9c1,1.4,2.4,2.6,4,3.5c1.6,0.9,3.4,1.3,5.5,1.3
		s3.9-0.4,5.5-1.3c1.6-0.9,2.9-2.1,4-3.5c1.1-1.4,1.8-3.1,2.4-4.9c0.5-1.8,0.8-3.7,0.8-5.6c0-1.9-0.3-3.8-0.8-5.6
		c-0.5-1.8-1.3-3.5-2.4-4.9c-1-1.4-2.4-2.6-4-3.5c-1.6-0.9-3.4-1.3-5.5-1.3S131.7,592.8,130.1,593.7z"/>
	<path class="st1" d="M160.3,589.7l9.2,30.9h0.1l8.8-30.9h5l8.8,30.9h0.1l9.2-30.9h4.7l-11.6,36.1h-4.8l-8.9-30.4h-0.1l-8.8,30.4
		h-4.8l-11.6-36.1H160.3z"/>
	<path class="st1" d="M214.4,613.9c0.4,1.7,1.2,3.2,2.1,4.6s2.2,2.5,3.7,3.4c1.5,0.9,3.3,1.3,5.4,1.3c3.2,0,5.7-0.8,7.6-2.5
		c1.8-1.7,3.1-3.9,3.8-6.7h4.4c-0.9,4.1-2.6,7.3-5.1,9.5c-2.5,2.2-6,3.4-10.6,3.4c-2.8,0-5.3-0.5-7.4-1.5c-2.1-1-3.8-2.4-5.1-4.1
		c-1.3-1.8-2.3-3.8-2.9-6.1c-0.6-2.3-0.9-4.7-0.9-7.3c0-2.4,0.3-4.7,0.9-7c0.6-2.3,1.6-4.3,2.9-6.1c1.3-1.8,3-3.2,5.1-4.3
		c2.1-1.1,4.5-1.6,7.4-1.6c2.9,0,5.4,0.6,7.4,1.8c2.1,1.2,3.7,2.7,5,4.6c1.3,1.9,2.2,4.1,2.8,6.5s0.8,4.9,0.7,7.5h-27.8
		C213.7,610.6,214,612.2,214.4,613.9z M236.2,600.5c-0.5-1.5-1.3-2.9-2.3-4.1c-1-1.2-2.2-2.1-3.6-2.9c-1.4-0.7-3-1.1-4.8-1.1
		c-1.8,0-3.4,0.4-4.8,1.1c-1.4,0.7-2.6,1.7-3.6,2.9c-1,1.2-1.8,2.6-2.3,4.1c-0.6,1.6-1,3.2-1.2,4.8h23.4
		C237.1,603.6,236.8,602,236.2,600.5z"/>
	<path class="st1" d="M251.5,589.7v8.5h0.1c1.1-2.9,2.9-5.2,5.2-6.8c2.4-1.6,5.2-2.3,8.4-2.2v4.4c-2-0.1-3.8,0.2-5.5,0.8
		c-1.6,0.6-3,1.5-4.2,2.7c-1.2,1.2-2.1,2.6-2.8,4.2c-0.7,1.6-1,3.4-1,5.3v19.2h-4.4v-36.1H251.5z"/>
	<path class="st1" d="M290.3,596.8c-0.5-1-1.2-1.8-2.1-2.5c-0.9-0.7-1.9-1.1-3-1.4c-1.1-0.3-2.3-0.5-3.6-0.5c-1,0-2,0.1-3,0.3
		c-1,0.2-1.9,0.6-2.8,1c-0.8,0.5-1.5,1.1-2,1.9c-0.5,0.8-0.8,1.8-0.8,2.9c0,1,0.2,1.8,0.7,2.5c0.5,0.7,1.1,1.2,1.9,1.7
		c0.7,0.5,1.6,0.9,2.4,1.2c0.9,0.3,1.7,0.5,2.5,0.7l5.9,1.3c1.3,0.2,2.5,0.5,3.7,1c1.2,0.5,2.3,1.1,3.3,1.9c1,0.8,1.7,1.8,2.3,2.9
		c0.6,1.2,0.9,2.5,0.9,4.1c0,2-0.4,3.6-1.3,5c-0.9,1.4-2,2.5-3.4,3.4c-1.4,0.9-2.9,1.5-4.7,1.9c-1.7,0.4-3.4,0.6-5.1,0.6
		c-4.2,0-7.7-1-10.3-3c-2.6-2-4.1-5.2-4.5-9.7h4.4c0.2,3,1.3,5.2,3.3,6.8c2,1.5,4.4,2.3,7.4,2.3c1.1,0,2.2-0.1,3.3-0.3
		c1.1-0.2,2.2-0.6,3.2-1.2c1-0.6,1.8-1.3,2.4-2.1c0.6-0.9,0.9-1.9,0.9-3.2c0-1.1-0.2-2-0.7-2.7c-0.4-0.7-1-1.3-1.8-1.8
		c-0.7-0.5-1.6-0.9-2.6-1.2c-1-0.3-1.9-0.6-2.9-0.8l-5.7-1.3c-1.4-0.4-2.8-0.8-4-1.3c-1.2-0.5-2.3-1.1-3.2-1.8s-1.6-1.6-2.1-2.7
		c-0.5-1-0.8-2.3-0.8-3.9c0-1.8,0.4-3.4,1.2-4.7c0.8-1.3,1.9-2.4,3.2-3.2c1.3-0.8,2.8-1.4,4.4-1.8c1.6-0.4,3.2-0.6,4.8-0.6
		c1.8,0,3.5,0.2,5.1,0.7c1.6,0.5,2.9,1.2,4.1,2.2c1.2,1,2.1,2.2,2.8,3.6c0.7,1.4,1.1,3.2,1.2,5.1h-4.4
		C291.1,599,290.8,597.8,290.3,596.8z"/>
	<path class="st1" d="M323.3,589.7l11.9,30.8l11.1-30.8h4.4L335,631.3c-0.7,1.5-1.3,2.8-1.8,3.8c-0.6,1-1.2,1.8-1.9,2.4
		c-0.7,0.6-1.5,1-2.4,1.3c-0.9,0.3-2.1,0.4-3.5,0.4c-0.9,0-1.6-0.1-2.1-0.1c-0.5,0-0.9-0.1-1.3-0.2v-3.7c0.5,0.1,1,0.2,1.5,0.2
		c0.5,0.1,1,0.1,1.5,0.1c1,0,1.8-0.1,2.4-0.4c0.6-0.3,1.2-0.7,1.6-1.2c0.5-0.5,0.9-1.1,1.2-1.8c0.3-0.7,0.7-1.5,1-2.3l1.5-4.1
		l-14.4-36H323.3z"/>
	<path class="st1" d="M377.6,590.2c2.1,1,3.9,2.4,5.4,4.1c1.4,1.7,2.5,3.7,3.3,6.1c0.7,2.3,1.1,4.8,1.1,7.4s-0.4,5.1-1.1,7.4
		c-0.7,2.3-1.8,4.3-3.3,6.1c-1.4,1.7-3.2,3.1-5.4,4.1c-2.1,1-4.6,1.5-7.3,1.5c-2.8,0-5.2-0.5-7.3-1.5c-2.1-1-3.9-2.4-5.4-4.1
		c-1.4-1.7-2.5-3.7-3.3-6.1c-0.7-2.3-1.1-4.8-1.1-7.4s0.4-5.1,1.1-7.4c0.7-2.3,1.8-4.3,3.3-6.1c1.4-1.7,3.2-3.1,5.4-4.1
		c2.1-1,4.6-1.5,7.3-1.5C373.1,588.7,375.5,589.2,377.6,590.2z M364.8,593.7c-1.6,0.9-2.9,2.1-4,3.5c-1.1,1.4-1.8,3.1-2.4,4.9
		c-0.5,1.8-0.8,3.7-0.8,5.6c0,1.9,0.3,3.8,0.8,5.6c0.5,1.8,1.3,3.5,2.4,4.9c1,1.4,2.4,2.6,4,3.5c1.6,0.9,3.4,1.3,5.5,1.3
		s3.9-0.4,5.5-1.3c1.6-0.9,2.9-2.1,4-3.5c1.1-1.4,1.8-3.1,2.4-4.9c0.5-1.8,0.8-3.7,0.8-5.6c0-1.9-0.3-3.8-0.8-5.6
		c-0.5-1.8-1.3-3.5-2.4-4.9c-1-1.4-2.4-2.6-4-3.5c-1.6-0.9-3.4-1.3-5.5-1.3S366.4,592.8,364.8,593.7z"/>
	<path class="st1" d="M419.2,625.9v-6.5H419c-1.2,2.4-2.9,4.3-5.1,5.6c-2.2,1.3-4.7,1.9-7.4,1.9c-2.3,0-4.2-0.3-5.8-0.9
		s-2.9-1.5-3.9-2.7c-1-1.2-1.7-2.6-2.2-4.3c-0.5-1.7-0.7-3.6-0.7-5.7v-23.5h4.4v23.5c0.1,3.3,0.9,5.7,2.3,7.4
		c1.4,1.7,3.9,2.5,7.4,2.5c1.9,0,3.5-0.4,4.9-1.2c1.4-0.8,2.5-1.9,3.4-3.3c0.9-1.4,1.5-2.9,2-4.7s0.6-3.5,0.6-5.4v-19h4.4v36.1
		H419.2z"/>
	<path class="st1" d="M455.4,575.9V596h0.1c0.8-2.2,2.3-4,4.5-5.3c2.1-1.3,4.5-2,7.1-2c2.5,0,4.6,0.3,6.3,1c1.7,0.7,3.1,1.6,4.1,2.8
		c1,1.2,1.8,2.6,2.2,4.4s0.6,3.7,0.6,5.8v23.2h-4.4v-22.5c0-1.5-0.1-3-0.4-4.3c-0.3-1.3-0.8-2.5-1.5-3.5c-0.7-1-1.6-1.8-2.8-2.3
		c-1.2-0.6-2.7-0.8-4.4-0.8c-1.8,0-3.3,0.3-4.7,0.9c-1.4,0.6-2.5,1.5-3.5,2.6c-1,1.1-1.7,2.4-2.2,3.9c-0.5,1.5-0.8,3.2-0.9,4.9v21.1
		H451v-50H455.4z"/>
	<path class="st1" d="M489.5,595.3c0.7-1.5,1.8-2.8,3-3.8c1.3-1,2.8-1.7,4.5-2.2c1.7-0.5,3.6-0.7,5.7-0.7c1.6,0,3.2,0.2,4.8,0.5
		c1.6,0.3,3,0.9,4.3,1.7c1.3,0.8,2.3,2,3.1,3.5c0.8,1.5,1.2,3.5,1.2,5.9v19.2c0,1.8,0.9,2.7,2.6,2.7c0.5,0,1-0.1,1.4-0.3v3.7
		c-0.5,0.1-1,0.2-1.4,0.2c-0.4,0-0.9,0.1-1.5,0.1c-1.1,0-2-0.2-2.7-0.5c-0.7-0.3-1.2-0.7-1.6-1.3c-0.4-0.6-0.6-1.2-0.7-2
		c-0.1-0.8-0.2-1.6-0.2-2.6h-0.1c-0.8,1.2-1.6,2.2-2.4,3.1c-0.8,0.9-1.7,1.7-2.7,2.3c-1,0.6-2.1,1.1-3.4,1.4
		c-1.3,0.3-2.8,0.5-4.6,0.5c-1.7,0-3.3-0.2-4.7-0.6c-1.5-0.4-2.8-1-3.8-1.9c-1.1-0.9-2-2-2.6-3.3c-0.6-1.3-0.9-2.9-0.9-4.7
		c0-2.5,0.6-4.5,1.7-5.9s2.6-2.5,4.4-3.3c1.8-0.7,3.9-1.3,6.2-1.6c2.3-0.3,4.7-0.6,7-0.9c0.9-0.1,1.8-0.2,2.5-0.4
		c0.7-0.1,1.3-0.4,1.8-0.7c0.5-0.4,0.8-0.8,1.1-1.4c0.3-0.6,0.4-1.4,0.4-2.4c0-1.5-0.2-2.7-0.7-3.7c-0.5-1-1.2-1.7-2-2.3
		c-0.9-0.6-1.9-0.9-3-1.2c-1.1-0.2-2.4-0.3-3.7-0.3c-2.8,0-5.1,0.7-6.9,2c-1.8,1.3-2.7,3.5-2.8,6.4h-4.4
		C488.3,598.7,488.8,596.9,489.5,595.3z M511.6,606.1c-0.3,0.5-0.8,0.9-1.6,1.1c-0.8,0.2-1.5,0.4-2.1,0.5c-1.9,0.3-3.8,0.6-5.8,0.9
		c-2,0.3-3.8,0.6-5.4,1.2c-1.6,0.5-3,1.2-4,2.2c-1,1-1.6,2.3-1.6,4.1c0,1.1,0.2,2.1,0.7,3c0.4,0.9,1,1.6,1.8,2.2
		c0.7,0.6,1.6,1.1,2.6,1.4c1,0.3,2,0.5,3,0.5c1.7,0,3.3-0.3,4.8-0.8s2.9-1.3,4-2.2c1.1-1,2.1-2.2,2.7-3.6c0.7-1.4,1-3,1-4.8v-5.7
		H511.6z"/>
	<path class="st1" d="M525.8,589.7l11.3,31.7h0.1l11.2-31.7h4.5l-13.5,36.1h-4.7l-13.9-36.1H525.8z"/>
	<path class="st1" d="M560.6,613.9c0.4,1.7,1.2,3.2,2.1,4.6c1,1.4,2.2,2.5,3.7,3.4c1.5,0.9,3.3,1.3,5.4,1.3c3.2,0,5.7-0.8,7.6-2.5
		c1.8-1.7,3.1-3.9,3.8-6.7h4.4c-0.9,4.1-2.6,7.3-5.1,9.5c-2.5,2.2-6,3.4-10.6,3.4c-2.8,0-5.3-0.5-7.4-1.5c-2.1-1-3.8-2.4-5.1-4.1
		c-1.3-1.8-2.3-3.8-2.9-6.1c-0.6-2.3-0.9-4.7-0.9-7.3c0-2.4,0.3-4.7,0.9-7s1.6-4.3,2.9-6.1c1.3-1.8,3-3.2,5.1-4.3
		c2.1-1.1,4.5-1.6,7.4-1.6c2.9,0,5.4,0.6,7.4,1.8c2.1,1.2,3.7,2.7,5,4.6c1.3,1.9,2.2,4.1,2.8,6.5c0.6,2.5,0.8,4.9,0.7,7.5h-27.8
		C559.9,610.6,560.2,612.2,560.6,613.9z M582.5,600.5c-0.5-1.5-1.3-2.9-2.3-4.1c-1-1.2-2.2-2.1-3.6-2.9c-1.4-0.7-3-1.1-4.8-1.1
		c-1.8,0-3.4,0.4-4.8,1.1c-1.4,0.7-2.6,1.7-3.6,2.9c-1,1.2-1.8,2.6-2.3,4.1c-0.6,1.6-1,3.2-1.2,4.8h23.4
		C583.3,603.6,583,602,582.5,600.5z"/>
	<path class="st1" d="M602.2,625.9c0,1-0.1,2-0.4,3c-0.3,1-0.6,1.9-1.2,2.8c-0.5,0.9-1.2,1.6-1.9,2.3c-0.8,0.7-1.7,1.1-2.7,1.4v-3
		c0.6-0.2,1-0.5,1.5-1c0.4-0.5,0.8-1.1,1-1.7c0.3-0.6,0.5-1.3,0.6-2c0.1-0.7,0.2-1.3,0.1-1.8h-2.9v-7.4h5.9V625.9z"/>
	<path class="st1" d="M633.2,589.7l11.9,30.8l11.1-30.8h4.4L645,631.3c-0.7,1.5-1.3,2.8-1.8,3.8c-0.6,1-1.2,1.8-1.9,2.4
		c-0.7,0.6-1.5,1-2.4,1.3c-0.9,0.3-2.1,0.4-3.5,0.4c-0.9,0-1.6-0.1-2.1-0.1c-0.5,0-0.9-0.1-1.3-0.2v-3.7c0.5,0.1,1,0.2,1.5,0.2
		c0.5,0.1,1,0.1,1.5,0.1c1,0,1.8-0.1,2.4-0.4s1.2-0.7,1.6-1.2c0.5-0.5,0.9-1.1,1.2-1.8c0.3-0.7,0.7-1.5,1-2.3l1.5-4.1l-14.4-36
		H633.2z"/>
	<path class="st1" d="M687.6,590.2c2.1,1,3.9,2.4,5.4,4.1c1.4,1.7,2.5,3.7,3.3,6.1c0.7,2.3,1.1,4.8,1.1,7.4s-0.4,5.1-1.1,7.4
		c-0.7,2.3-1.8,4.3-3.3,6.1c-1.4,1.7-3.2,3.1-5.4,4.1c-2.1,1-4.6,1.5-7.3,1.5c-2.8,0-5.2-0.5-7.3-1.5c-2.1-1-3.9-2.4-5.4-4.1
		c-1.4-1.7-2.5-3.7-3.3-6.1c-0.7-2.3-1.1-4.8-1.1-7.4s0.4-5.1,1.1-7.4c0.7-2.3,1.8-4.3,3.3-6.1c1.4-1.7,3.2-3.1,5.4-4.1
		c2.1-1,4.6-1.5,7.3-1.5C683,588.7,685.5,589.2,687.6,590.2z M674.7,593.7c-1.6,0.9-2.9,2.1-4,3.5c-1,1.4-1.8,3.1-2.4,4.9
		c-0.5,1.8-0.8,3.7-0.8,5.6c0,1.9,0.3,3.8,0.8,5.6c0.5,1.8,1.3,3.5,2.4,4.9c1.1,1.4,2.4,2.6,4,3.5c1.6,0.9,3.4,1.3,5.5,1.3
		s3.9-0.4,5.5-1.3c1.6-0.9,2.9-2.1,4-3.5c1-1.4,1.8-3.1,2.4-4.9c0.5-1.8,0.8-3.7,0.8-5.6c0-1.9-0.3-3.8-0.8-5.6
		c-0.5-1.8-1.3-3.5-2.4-4.9c-1.1-1.4-2.4-2.6-4-3.5c-1.6-0.9-3.4-1.3-5.5-1.3S676.3,592.8,674.7,593.7z"/>
	<path class="st1" d="M729.1,625.9v-6.5H729c-1.2,2.4-2.9,4.3-5.1,5.6c-2.2,1.3-4.7,1.9-7.4,1.9c-2.3,0-4.2-0.3-5.8-0.9
		s-2.9-1.5-3.9-2.7c-1-1.2-1.7-2.6-2.2-4.3c-0.5-1.7-0.7-3.6-0.7-5.7v-23.5h4.4v23.5c0.1,3.3,0.9,5.7,2.3,7.4
		c1.4,1.7,3.9,2.5,7.4,2.5c1.9,0,3.5-0.4,4.9-1.2s2.5-1.9,3.4-3.3c0.9-1.4,1.5-2.9,2-4.7s0.6-3.5,0.6-5.4v-19h4.4v36.1H729.1z"/>
	<path class="st1" d="M762,589.7l9.2,30.9h0.1l8.8-30.9h5l8.8,30.9h0.1l9.2-30.9h4.7l-11.6,36.1h-4.8l-8.9-30.4h-0.1l-8.8,30.4H769
		l-11.6-36.1H762z"/>
	<path class="st1" d="M817.3,575.9v7.1h-4.4v-7.1H817.3z M817.3,589.7v36.1h-4.4v-36.1H817.3z"/>
	<path class="st1" d="M830.3,575.9v50h-4.4v-50H830.3z"/>
	<path class="st1" d="M843.2,575.9v50h-4.4v-50H843.2z"/>
	<path class="st1" d="M41.9,659.9v7.1h-4.4v-7.1H41.9z M41.9,673.7v36.1h-4.4v-36.1H41.9z"/>
	<path class="st1" d="M54.7,673.7v6.2h0.1c0.8-2.2,2.3-4,4.5-5.3c2.1-1.3,4.5-2,7.1-2c2.5,0,4.6,0.3,6.3,1c1.7,0.7,3.1,1.6,4.1,2.8
		c1,1.2,1.8,2.6,2.2,4.4s0.6,3.7,0.6,5.8v23.2h-4.4v-22.5c0-1.5-0.1-3-0.4-4.3c-0.3-1.3-0.8-2.5-1.5-3.5c-0.7-1-1.6-1.8-2.8-2.3
		c-1.2-0.6-2.7-0.8-4.4-0.8c-1.8,0-3.3,0.3-4.7,0.9c-1.4,0.6-2.5,1.5-3.5,2.6c-1,1.1-1.7,2.4-2.2,3.9c-0.5,1.5-0.8,3.2-0.9,4.9v21.1
		h-4.4v-36.1H54.7z"/>
	<path class="st1" d="M88.8,673.7l11.3,31.7h0.1l11.2-31.7h4.5l-13.5,36.1h-4.7l-13.9-36.1H88.8z"/>
	<path class="st1" d="M123.6,697.9c0.4,1.7,1.2,3.2,2.1,4.6s2.2,2.5,3.7,3.4c1.5,0.9,3.3,1.3,5.4,1.3c3.2,0,5.7-0.8,7.6-2.5
		c1.8-1.7,3.1-3.9,3.8-6.7h4.4c-0.9,4.1-2.6,7.3-5.1,9.5c-2.5,2.2-6,3.4-10.6,3.4c-2.8,0-5.3-0.5-7.4-1.5c-2.1-1-3.8-2.4-5.1-4.1
		c-1.3-1.8-2.3-3.8-2.9-6.1c-0.6-2.3-0.9-4.7-0.9-7.3c0-2.4,0.3-4.7,0.9-7c0.6-2.3,1.6-4.3,2.9-6.1c1.3-1.8,3-3.2,5.1-4.3
		c2.1-1.1,4.5-1.6,7.4-1.6c2.9,0,5.4,0.6,7.4,1.8c2.1,1.2,3.7,2.7,5,4.6c1.3,1.9,2.2,4.1,2.8,6.5s0.8,4.9,0.7,7.5h-27.8
		C122.9,694.6,123.2,696.2,123.6,697.9z M145.4,684.5c-0.5-1.5-1.3-2.9-2.3-4.1c-1-1.2-2.2-2.1-3.6-2.9c-1.4-0.7-3-1.1-4.8-1.1
		c-1.8,0-3.4,0.4-4.8,1.1c-1.4,0.7-2.6,1.7-3.6,2.9c-1,1.2-1.8,2.6-2.3,4.1c-0.6,1.6-1,3.2-1.2,4.8h23.4
		C146.3,687.6,146,686,145.4,684.5z"/>
	<path class="st1" d="M177.5,680.8c-0.5-1-1.2-1.8-2.1-2.5c-0.9-0.7-1.9-1.1-3-1.4c-1.1-0.3-2.3-0.5-3.6-0.5c-1,0-2,0.1-3,0.3
		c-1,0.2-1.9,0.6-2.8,1c-0.8,0.5-1.5,1.1-2,1.9c-0.5,0.8-0.8,1.8-0.8,2.9c0,1,0.2,1.8,0.7,2.5c0.5,0.7,1.1,1.2,1.9,1.7
		c0.7,0.5,1.6,0.9,2.4,1.2c0.9,0.3,1.7,0.5,2.5,0.7l5.9,1.3c1.3,0.2,2.5,0.5,3.7,1c1.2,0.5,2.3,1.1,3.3,1.9c1,0.8,1.7,1.8,2.3,2.9
		c0.6,1.2,0.9,2.5,0.9,4.1c0,2-0.4,3.6-1.3,5c-0.9,1.4-2,2.5-3.4,3.4c-1.4,0.9-2.9,1.5-4.7,1.9c-1.7,0.4-3.4,0.6-5.1,0.6
		c-4.2,0-7.7-1-10.3-3c-2.6-2-4.1-5.2-4.5-9.7h4.4c0.2,3,1.3,5.2,3.3,6.8c2,1.5,4.4,2.3,7.4,2.3c1.1,0,2.2-0.1,3.3-0.3
		c1.1-0.2,2.2-0.6,3.2-1.2c1-0.6,1.8-1.3,2.4-2.1c0.6-0.9,0.9-1.9,0.9-3.2c0-1.1-0.2-2-0.7-2.7c-0.4-0.7-1-1.3-1.8-1.8
		c-0.7-0.5-1.6-0.9-2.6-1.2c-1-0.3-1.9-0.6-2.9-0.8l-5.7-1.3c-1.4-0.4-2.8-0.8-4-1.3c-1.2-0.5-2.3-1.1-3.2-1.8s-1.6-1.6-2.1-2.7
		c-0.5-1-0.8-2.3-0.8-3.9c0-1.8,0.4-3.4,1.2-4.7c0.8-1.3,1.9-2.4,3.2-3.2c1.3-0.8,2.8-1.4,4.4-1.8c1.6-0.4,3.2-0.6,4.8-0.6
		c1.8,0,3.5,0.2,5.1,0.7c1.6,0.5,2.9,1.2,4.1,2.2c1.2,1,2.1,2.2,2.8,3.6c0.7,1.4,1.1,3.2,1.2,5.1h-4.4
		C178.3,683,178,681.8,177.5,680.8z"/>
	<path class="st1" d="M204.7,673.7v3.7h-7.3v24.4c0,1.4,0.2,2.6,0.6,3.4c0.4,0.8,1.4,1.3,3,1.4c1.3,0,2.5-0.1,3.8-0.2v3.7
		c-0.7,0-1.3,0-2,0.1c-0.7,0-1.3,0.1-2,0.1c-2.9,0-5-0.6-6.2-1.7c-1.2-1.1-1.7-3.3-1.7-6.3v-24.7h-6.3v-3.7h6.3v-10.8h4.4v10.8
		H204.7z"/>
	<path class="st1" d="M231.4,679.3c0.7-1.5,1.8-2.8,3-3.8c1.3-1,2.8-1.7,4.5-2.2c1.7-0.5,3.6-0.7,5.7-0.7c1.6,0,3.2,0.2,4.8,0.5
		c1.6,0.3,3,0.9,4.3,1.7c1.3,0.8,2.3,2,3.1,3.5c0.8,1.5,1.2,3.5,1.2,5.9v19.2c0,1.8,0.9,2.7,2.6,2.7c0.5,0,1-0.1,1.4-0.3v3.7
		c-0.5,0.1-1,0.2-1.4,0.2c-0.4,0-0.9,0.1-1.5,0.1c-1.1,0-2-0.2-2.7-0.5c-0.7-0.3-1.2-0.7-1.6-1.3c-0.4-0.6-0.6-1.2-0.7-2
		c-0.1-0.8-0.2-1.6-0.2-2.6h-0.1c-0.8,1.2-1.6,2.2-2.4,3.1c-0.8,0.9-1.7,1.7-2.7,2.3c-1,0.6-2.1,1.1-3.4,1.4
		c-1.3,0.3-2.8,0.5-4.6,0.5c-1.7,0-3.3-0.2-4.7-0.6c-1.5-0.4-2.8-1-3.9-1.9c-1.1-0.9-2-2-2.6-3.3s-0.9-2.9-0.9-4.7
		c0-2.5,0.6-4.5,1.7-5.9s2.6-2.5,4.4-3.3c1.8-0.7,3.9-1.3,6.2-1.6c2.3-0.3,4.7-0.6,7-0.9c0.9-0.1,1.8-0.2,2.5-0.4
		c0.7-0.1,1.3-0.4,1.8-0.7c0.5-0.4,0.8-0.8,1.1-1.4c0.3-0.6,0.4-1.4,0.4-2.4c0-1.5-0.2-2.7-0.7-3.7c-0.5-1-1.2-1.7-2-2.3
		c-0.9-0.6-1.9-0.9-3-1.2c-1.1-0.2-2.4-0.3-3.7-0.3c-2.8,0-5.1,0.7-6.9,2c-1.8,1.3-2.7,3.5-2.8,6.4h-4.4
		C230.3,682.7,230.7,680.9,231.4,679.3z M253.5,690.1c-0.3,0.5-0.8,0.9-1.6,1.1c-0.8,0.2-1.5,0.4-2.1,0.5c-1.9,0.3-3.8,0.6-5.8,0.9
		c-2,0.3-3.8,0.6-5.4,1.2c-1.6,0.5-3,1.2-4,2.2c-1.1,1-1.6,2.3-1.6,4.1c0,1.1,0.2,2.1,0.7,3c0.4,0.9,1,1.6,1.8,2.2
		c0.7,0.6,1.6,1.1,2.6,1.4c1,0.3,2,0.5,3,0.5c1.7,0,3.3-0.3,4.8-0.8c1.5-0.5,2.9-1.3,4-2.2c1.1-1,2.1-2.2,2.7-3.6c0.7-1.4,1-3,1-4.8
		v-5.7H253.5z"/>
	<path class="st1" d="M281.2,673.7v3.7h-7.3v24.4c0,1.4,0.2,2.6,0.6,3.4c0.4,0.8,1.4,1.3,3,1.4c1.3,0,2.5-0.1,3.8-0.2v3.7
		c-0.7,0-1.3,0-2,0.1c-0.7,0-1.3,0.1-2,0.1c-2.9,0-5-0.6-6.2-1.7c-1.2-1.1-1.7-3.3-1.7-6.3v-24.7h-6.3v-3.7h6.3v-10.8h4.4v10.8
		H281.2z"/>
	<path class="st1" d="M327.8,680.8c-0.5-1-1.2-1.8-2.1-2.5c-0.9-0.7-1.9-1.1-3-1.4c-1.1-0.3-2.3-0.5-3.6-0.5c-1,0-2,0.1-3,0.3
		c-1,0.2-1.9,0.6-2.8,1c-0.8,0.5-1.5,1.1-2,1.9c-0.5,0.8-0.8,1.8-0.8,2.9c0,1,0.2,1.8,0.7,2.5c0.5,0.7,1.1,1.2,1.9,1.7
		c0.7,0.5,1.6,0.9,2.4,1.2c0.9,0.3,1.7,0.5,2.5,0.7l5.9,1.3c1.3,0.2,2.5,0.5,3.7,1c1.2,0.5,2.3,1.1,3.3,1.9c1,0.8,1.7,1.8,2.3,2.9
		c0.6,1.2,0.9,2.5,0.9,4.1c0,2-0.4,3.6-1.3,5c-0.9,1.4-2,2.5-3.4,3.4c-1.4,0.9-2.9,1.5-4.7,1.9c-1.7,0.4-3.4,0.6-5.1,0.6
		c-4.2,0-7.7-1-10.3-3c-2.6-2-4.1-5.2-4.5-9.7h4.4c0.2,3,1.3,5.2,3.3,6.8c2,1.5,4.4,2.3,7.4,2.3c1.1,0,2.2-0.1,3.3-0.3
		c1.1-0.2,2.2-0.6,3.2-1.2c1-0.6,1.8-1.3,2.4-2.1c0.6-0.9,0.9-1.9,0.9-3.2c0-1.1-0.2-2-0.7-2.7c-0.4-0.7-1-1.3-1.8-1.8
		c-0.7-0.5-1.6-0.9-2.6-1.2c-1-0.3-1.9-0.6-2.9-0.8l-5.7-1.3c-1.4-0.4-2.8-0.8-4-1.3c-1.2-0.5-2.3-1.1-3.2-1.8s-1.6-1.6-2.1-2.7
		c-0.5-1-0.8-2.3-0.8-3.9c0-1.8,0.4-3.4,1.2-4.7c0.8-1.3,1.9-2.4,3.2-3.2c1.3-0.8,2.8-1.4,4.4-1.8c1.6-0.4,3.2-0.6,4.8-0.6
		c1.8,0,3.5,0.2,5.1,0.7c1.6,0.5,2.9,1.2,4.1,2.2c1.2,1,2.1,2.2,2.8,3.6c0.7,1.4,1.1,3.2,1.2,5.1h-4.4
		C328.6,683,328.3,681.8,327.8,680.8z"/>
	<path class="st1" d="M363.3,674.2c2.1,1,3.9,2.4,5.4,4.1c1.4,1.7,2.5,3.7,3.3,6.1c0.7,2.3,1.1,4.8,1.1,7.4s-0.4,5.1-1.1,7.4
		c-0.7,2.3-1.8,4.3-3.3,6.1c-1.4,1.7-3.2,3.1-5.4,4.1c-2.1,1-4.6,1.5-7.3,1.5c-2.8,0-5.2-0.5-7.3-1.5c-2.1-1-3.9-2.4-5.4-4.1
		c-1.4-1.7-2.5-3.7-3.3-6.1c-0.7-2.3-1.1-4.8-1.1-7.4s0.4-5.1,1.1-7.4c0.7-2.3,1.8-4.3,3.3-6.1c1.4-1.7,3.2-3.1,5.4-4.1
		c2.1-1,4.6-1.5,7.3-1.5C358.7,672.7,361.2,673.2,363.3,674.2z M350.4,677.7c-1.6,0.9-2.9,2.1-4,3.5c-1.1,1.4-1.8,3.1-2.4,4.9
		c-0.5,1.8-0.8,3.7-0.8,5.6c0,1.9,0.3,3.8,0.8,5.6c0.5,1.8,1.3,3.5,2.4,4.9c1,1.4,2.4,2.6,4,3.5c1.6,0.9,3.4,1.3,5.5,1.3
		s3.9-0.4,5.5-1.3c1.6-0.9,2.9-2.1,4-3.5c1.1-1.4,1.8-3.1,2.4-4.9c0.5-1.8,0.8-3.7,0.8-5.6c0-1.9-0.3-3.8-0.8-5.6
		c-0.5-1.8-1.3-3.5-2.4-4.9c-1-1.4-2.4-2.6-4-3.5c-1.6-0.9-3.4-1.3-5.5-1.3S352,676.8,350.4,677.7z"/>
	<path class="st1" d="M383.7,673.7v6.1h0.2c1.2-2.2,2.7-4,4.6-5.2c1.9-1.3,4.3-1.9,7.2-1.9c2.4,0,4.5,0.6,6.5,1.8
		c1.9,1.2,3.2,2.9,3.9,5.3c1.1-2.4,2.7-4.2,4.8-5.3c2.1-1.2,4.3-1.8,6.7-1.8c8,0,12,4.2,12,12.7v24.5h-4.4v-24.3
		c0-3-0.6-5.3-1.9-6.8c-1.3-1.6-3.5-2.3-6.6-2.3c-1.9,0-3.5,0.4-4.8,1.1c-1.3,0.7-2.3,1.7-3,2.9c-0.7,1.2-1.3,2.6-1.6,4.2
		c-0.3,1.6-0.5,3.2-0.5,4.9v20.4h-4.4v-24.5c0-1.2-0.1-2.4-0.4-3.5c-0.3-1.1-0.7-2.1-1.3-2.9c-0.6-0.8-1.4-1.5-2.3-1.9
		c-1-0.5-2.2-0.7-3.6-0.7c-1.9,0-3.5,0.3-4.9,1c-1.4,0.7-2.5,1.6-3.4,2.8c-0.9,1.2-1.5,2.6-1.9,4.2c-0.4,1.6-0.6,3.4-0.6,5.3v20.2
		h-4.4v-36.1H383.7z"/>
	<path class="st1" d="M441.2,697.9c0.4,1.7,1.2,3.2,2.1,4.6s2.2,2.5,3.7,3.4c1.5,0.9,3.3,1.3,5.4,1.3c3.2,0,5.7-0.8,7.6-2.5
		c1.8-1.7,3.1-3.9,3.8-6.7h4.4c-0.9,4.1-2.6,7.3-5.1,9.5c-2.5,2.2-6,3.4-10.6,3.4c-2.8,0-5.3-0.5-7.4-1.5c-2.1-1-3.8-2.4-5.1-4.1
		c-1.3-1.8-2.3-3.8-2.9-6.1c-0.6-2.3-0.9-4.7-0.9-7.3c0-2.4,0.3-4.7,0.9-7c0.6-2.3,1.6-4.3,2.9-6.1c1.3-1.8,3-3.2,5.1-4.3
		c2.1-1.1,4.5-1.6,7.4-1.6c2.9,0,5.4,0.6,7.4,1.8c2.1,1.2,3.7,2.7,5,4.6c1.3,1.9,2.2,4.1,2.8,6.5s0.8,4.9,0.7,7.5h-27.8
		C440.5,694.6,440.7,696.2,441.2,697.9z M463,684.5c-0.5-1.5-1.3-2.9-2.3-4.1c-1-1.2-2.2-2.1-3.6-2.9c-1.4-0.7-3-1.1-4.8-1.1
		c-1.8,0-3.4,0.4-4.8,1.1c-1.4,0.7-2.6,1.7-3.6,2.9c-1,1.2-1.8,2.6-2.3,4.1c-0.6,1.6-1,3.2-1.2,4.8h23.4
		C463.9,687.6,463.6,686,463,684.5z"/>
	<path class="st1" d="M497.8,673.7v6.9h0.1c1-2.5,2.7-4.5,5-5.8c2.3-1.4,4.9-2.1,7.9-2.1c2.8,0,5.1,0.5,7.2,1.5c2,1,3.7,2.4,5.1,4.2
		c1.4,1.8,2.4,3.8,3,6.1c0.7,2.3,1,4.7,1,7.3s-0.3,5-1,7.3c-0.7,2.3-1.7,4.3-3,6.1c-1.4,1.8-3,3.1-5.1,4.1s-4.4,1.5-7.2,1.5
		c-1.3,0-2.6-0.2-3.9-0.5c-1.3-0.3-2.5-0.8-3.6-1.5c-1.1-0.7-2.1-1.5-3-2.4c-0.9-1-1.5-2.1-2-3.4h-0.1v20.2h-4.4v-49.4H497.8z
		 M522,686.2c-0.4-1.8-1.1-3.5-2.1-4.9c-1-1.4-2.2-2.6-3.7-3.5c-1.5-0.9-3.3-1.4-5.4-1.4c-2.4,0-4.5,0.4-6.1,1.3
		c-1.6,0.8-2.9,2-3.9,3.4c-1,1.4-1.7,3-2.1,4.9c-0.4,1.9-0.6,3.8-0.6,5.9c0,1.9,0.2,3.7,0.7,5.6c0.4,1.8,1.2,3.5,2.2,4.9
		c1,1.4,2.3,2.6,3.9,3.5c1.6,0.9,3.6,1.4,5.9,1.4c2.1,0,3.9-0.5,5.4-1.4c1.5-0.9,2.7-2.1,3.7-3.5c1-1.4,1.7-3.1,2.1-4.9
		c0.4-1.8,0.7-3.7,0.7-5.6S522.4,688.1,522,686.2z"/>
	<path class="st1" d="M556.5,674.2c2.1,1,3.9,2.4,5.4,4.1c1.4,1.7,2.5,3.7,3.3,6.1c0.7,2.3,1.1,4.8,1.1,7.4s-0.4,5.1-1.1,7.4
		c-0.7,2.3-1.8,4.3-3.3,6.1c-1.4,1.7-3.2,3.1-5.4,4.1c-2.1,1-4.6,1.5-7.3,1.5c-2.8,0-5.2-0.5-7.3-1.5c-2.1-1-3.9-2.4-5.4-4.1
		c-1.4-1.7-2.5-3.7-3.3-6.1c-0.7-2.3-1.1-4.8-1.1-7.4s0.4-5.1,1.1-7.4c0.7-2.3,1.8-4.3,3.3-6.1c1.4-1.7,3.2-3.1,5.4-4.1
		c2.1-1,4.6-1.5,7.3-1.5C551.9,672.7,554.4,673.2,556.5,674.2z M543.6,677.7c-1.6,0.9-2.9,2.1-4,3.5c-1,1.4-1.8,3.1-2.4,4.9
		c-0.5,1.8-0.8,3.7-0.8,5.6c0,1.9,0.3,3.8,0.8,5.6c0.5,1.8,1.3,3.5,2.4,4.9c1.1,1.4,2.4,2.6,4,3.5c1.6,0.9,3.4,1.3,5.5,1.3
		s3.9-0.4,5.5-1.3c1.6-0.9,2.9-2.1,4-3.5c1-1.4,1.8-3.1,2.4-4.9c0.5-1.8,0.8-3.7,0.8-5.6c0-1.9-0.3-3.8-0.8-5.6
		c-0.5-1.8-1.3-3.5-2.4-4.9c-1.1-1.4-2.4-2.6-4-3.5c-1.6-0.9-3.4-1.3-5.5-1.3S545.2,676.8,543.6,677.7z"/>
	<path class="st1" d="M577.3,659.9v7.1h-4.4v-7.1H577.3z M577.3,673.7v36.1h-4.4v-36.1H577.3z"/>
	<path class="st1" d="M590.1,673.7v6.2h0.1c0.8-2.2,2.3-4,4.5-5.3c2.1-1.3,4.5-2,7.1-2c2.5,0,4.6,0.3,6.3,1c1.7,0.7,3.1,1.6,4.1,2.8
		c1,1.2,1.8,2.6,2.2,4.4s0.6,3.7,0.6,5.8v23.2h-4.4v-22.5c0-1.5-0.1-3-0.4-4.3s-0.8-2.5-1.5-3.5c-0.7-1-1.6-1.8-2.8-2.3
		c-1.2-0.6-2.7-0.8-4.4-0.8c-1.8,0-3.3,0.3-4.7,0.9c-1.4,0.6-2.5,1.5-3.5,2.6c-1,1.1-1.7,2.4-2.2,3.9c-0.5,1.5-0.8,3.2-0.9,4.9v21.1
		h-4.4v-36.1H590.1z"/>
	<path class="st1" d="M637.7,673.7v3.7h-7.3v24.4c0,1.4,0.2,2.6,0.6,3.4c0.4,0.8,1.4,1.3,3,1.4c1.3,0,2.5-0.1,3.8-0.2v3.7
		c-0.7,0-1.3,0-2,0.1c-0.7,0-1.3,0.1-2,0.1c-2.9,0-5-0.6-6.2-1.7c-1.2-1.1-1.7-3.3-1.7-6.3v-24.7h-6.3v-3.7h6.3v-10.8h4.4v10.8
		H637.7z"/>
	<path class="st1" d="M668,659.9v7.1h-4.4v-7.1H668z M668,673.7v36.1h-4.4v-36.1H668z"/>
	<path class="st1" d="M680.8,673.7v6.2h0.1c0.8-2.2,2.3-4,4.5-5.3c2.1-1.3,4.5-2,7.1-2c2.5,0,4.6,0.3,6.3,1c1.7,0.7,3.1,1.6,4.1,2.8
		c1,1.2,1.8,2.6,2.2,4.4s0.6,3.7,0.6,5.8v23.2h-4.4v-22.5c0-1.5-0.1-3-0.4-4.3s-0.8-2.5-1.5-3.5c-0.7-1-1.6-1.8-2.8-2.3
		c-1.2-0.6-2.7-0.8-4.4-0.8c-1.8,0-3.3,0.3-4.7,0.9c-1.4,0.6-2.5,1.5-3.5,2.6c-1,1.1-1.7,2.4-2.2,3.9c-0.5,1.5-0.8,3.2-0.9,4.9v21.1
		h-4.4v-36.1H680.8z"/>
	<path class="st1" d="M734.2,673.7l11.9,30.8l11.1-30.8h4.4l-15.7,41.6c-0.7,1.5-1.3,2.8-1.8,3.8c-0.6,1-1.2,1.8-1.9,2.4
		c-0.7,0.6-1.5,1-2.4,1.3c-0.9,0.3-2.1,0.4-3.5,0.4c-0.9,0-1.6-0.1-2.1-0.1c-0.5,0-0.9-0.1-1.3-0.2v-3.7c0.5,0.1,1,0.2,1.5,0.2
		c0.5,0.1,1,0.1,1.5,0.1c1,0,1.8-0.1,2.4-0.4s1.2-0.7,1.6-1.2c0.5-0.5,0.9-1.1,1.2-1.8c0.3-0.7,0.7-1.5,1-2.3l1.5-4.1l-14.4-36
		H734.2z"/>
	<path class="st1" d="M788.5,674.2c2.1,1,3.9,2.4,5.4,4.1c1.4,1.7,2.5,3.7,3.3,6.1c0.7,2.3,1.1,4.8,1.1,7.4s-0.4,5.1-1.1,7.4
		c-0.7,2.3-1.8,4.3-3.3,6.1c-1.4,1.7-3.2,3.1-5.4,4.1c-2.1,1-4.6,1.5-7.3,1.5c-2.8,0-5.2-0.5-7.3-1.5c-2.1-1-3.9-2.4-5.4-4.1
		c-1.4-1.7-2.5-3.7-3.3-6.1c-0.7-2.3-1.1-4.8-1.1-7.4s0.4-5.1,1.1-7.4c0.7-2.3,1.8-4.3,3.3-6.1c1.4-1.7,3.2-3.1,5.4-4.1
		c2.1-1,4.6-1.5,7.3-1.5C784,672.7,786.4,673.2,788.5,674.2z M775.7,677.7c-1.6,0.9-2.9,2.1-4,3.5c-1,1.4-1.8,3.1-2.4,4.9
		c-0.5,1.8-0.8,3.7-0.8,5.6c0,1.9,0.3,3.8,0.8,5.6c0.5,1.8,1.3,3.5,2.4,4.9c1.1,1.4,2.4,2.6,4,3.5c1.6,0.9,3.4,1.3,5.5,1.3
		s3.9-0.4,5.5-1.3c1.6-0.9,2.9-2.1,4-3.5c1-1.4,1.8-3.1,2.4-4.9c0.5-1.8,0.8-3.7,0.8-5.6c0-1.9-0.3-3.8-0.8-5.6
		c-0.5-1.8-1.3-3.5-2.4-4.9c-1.1-1.4-2.4-2.6-4-3.5c-1.6-0.9-3.4-1.3-5.5-1.3S777.3,676.8,775.7,677.7z"/>
	<path class="st1" d="M830.1,709.9v-6.5h-0.1c-1.2,2.4-2.9,4.3-5.1,5.6c-2.2,1.3-4.7,1.9-7.4,1.9c-2.3,0-4.2-0.3-5.8-0.9
		s-2.9-1.5-3.9-2.7c-1-1.2-1.7-2.6-2.2-4.3c-0.5-1.7-0.7-3.6-0.7-5.7v-23.5h4.4v23.5c0.1,3.3,0.9,5.7,2.3,7.4
		c1.4,1.7,3.9,2.5,7.4,2.5c1.9,0,3.5-0.4,4.9-1.2s2.5-1.9,3.4-3.3c0.9-1.4,1.5-2.9,2-4.7s0.6-3.5,0.6-5.4v-19h4.4v36.1H830.1z"/>
	<path class="st1" d="M846.5,673.7v8.5h0.1c1.1-2.9,2.9-5.2,5.2-6.8c2.4-1.6,5.2-2.3,8.4-2.2v4.4c-2-0.1-3.8,0.2-5.5,0.8
		c-1.6,0.6-3,1.5-4.2,2.7c-1.2,1.2-2.1,2.6-2.8,4.2c-0.7,1.6-1,3.4-1,5.3v19.2h-4.4v-36.1H846.5z"/>
	<path class="st1" d="M888.5,659.9v50H884v-50H888.5z"/>
	<path class="st1" d="M901.4,659.9v7.1H897v-7.1H901.4z M901.4,673.7v36.1H897v-36.1H901.4z"/>
	<path class="st1" d="M916.7,677.5v32.4h-4.4v-32.4h-6.2v-3.7h6.2v-3.3c0-1.5,0.1-3,0.3-4.3s0.7-2.4,1.3-3.4
		c0.7-0.9,1.6-1.7,2.7-2.2c1.1-0.5,2.6-0.8,4.4-0.8c0.7,0,1.3,0,1.8,0.1c0.6,0,1.2,0.1,1.9,0.2v3.8c-0.6-0.1-1.2-0.2-1.7-0.2
		c-0.5-0.1-1-0.1-1.5-0.1c-1.2,0-2.1,0.2-2.8,0.6c-0.7,0.4-1.1,0.9-1.4,1.5c-0.3,0.6-0.5,1.4-0.5,2.2c0,0.8-0.1,1.8-0.1,2.7v3.1h7.1
		v3.7H916.7z"/>
	<path class="st1" d="M931.3,697.9c0.4,1.7,1.2,3.2,2.1,4.6c1,1.4,2.2,2.5,3.7,3.4c1.5,0.9,3.3,1.3,5.4,1.3c3.2,0,5.7-0.8,7.6-2.5
		c1.8-1.7,3.1-3.9,3.8-6.7h4.4c-0.9,4.1-2.6,7.3-5.1,9.5c-2.5,2.2-6,3.4-10.6,3.4c-2.8,0-5.3-0.5-7.4-1.5c-2.1-1-3.8-2.4-5.1-4.1
		c-1.3-1.8-2.3-3.8-2.9-6.1c-0.6-2.3-0.9-4.7-0.9-7.3c0-2.4,0.3-4.7,0.9-7s1.6-4.3,2.9-6.1c1.3-1.8,3-3.2,5.1-4.3
		c2.1-1.1,4.5-1.6,7.4-1.6c2.9,0,5.4,0.6,7.4,1.8c2.1,1.2,3.7,2.7,5,4.6c1.3,1.9,2.2,4.1,2.8,6.5c0.6,2.5,0.8,4.9,0.7,7.5h-27.8
		C930.6,694.6,930.8,696.2,931.3,697.9z M953.1,684.5c-0.5-1.5-1.3-2.9-2.3-4.1c-1-1.2-2.2-2.1-3.6-2.9c-1.4-0.7-3-1.1-4.8-1.1
		c-1.8,0-3.4,0.4-4.8,1.1c-1.4,0.7-2.6,1.7-3.6,2.9c-1,1.2-1.8,2.6-2.3,4.1c-0.6,1.6-1,3.2-1.2,4.8H954
		C953.9,687.6,953.6,686,953.1,684.5z"/>
	<path class="st1" d="M966.9,702.4h5.9v7.4h-5.9V702.4z"/>
</g>
</svg>
