<?xml version="1.0" encoding="utf-8"?>
<!-- Generator: Adobe Illustrator 19.2.0, SVG Export Plug-In . SVG Version: 6.00 Build 0)  -->
<svg version="1.1" id="Layer_1" xmlns="http://www.w3.org/2000/svg" xmlns:xlink="http://www.w3.org/1999/xlink" x="0px" y="0px"
	 viewBox="0 0 700 400" style="enable-background:new 0 0 700 400;" xml:space="preserve">
<style type="text/css">
	.st0{opacity:0.5;}
	.st1{fill:#446DB2;}
	.st2{fill:#FFFFFF;}
	.st3{fill:#336699;}
	.st4{fill:#233368;}
	.st5{fill:#CCE7F6;}
</style>
<g class="st0">
	<path class="st1" d="M464.8,136.2l15.1,57.1h-12l-2.6-12.1H450l-2.6,12.1h-12l15.1-57.1H464.8z M463.2,171.8l-5.5-25.7h-0.2
		l-5.5,25.7H463.2z"/>
	<path class="st1" d="M483.9,136.2h11.5v47.7h20.4v9.4h-31.9V136.2z"/>
	<path class="st1" d="M520.9,136.2h11.5v47.7h20.4v9.4h-31.9V136.2z"/>
	<path class="st1" d="M577.7,136.2h11.5v57.1h-11.5V136.2z"/>
	<path class="st1" d="M625,175.3h0.2v-39.1h10.6v57.1h-13.1l-14.1-40h-0.2v40h-10.6v-57.1h13.3L625,175.3z"/>
</g>
<g>
	<g>
		<path class="st1" d="M435.9,244.9h-26.8V227h2.5c9.1,0,16.3-1.7,21.6-5.1c5.3-3.4,8.6-8.9,10-16.5h20.1v134.5h-27.4V244.9z"/>
		<path class="st1" d="M496.8,250.2c0.6-8.6,2.3-16.2,5.1-22.9c2.8-6.7,7-12,12.6-16c5.6-4,13.5-6,23.5-6c8.2,0,15,1.2,20.4,3.5
			c5.4,2.3,9.7,6.1,12.9,11.3c3.2,5.2,5.5,11.9,6.8,20.2c1.3,8.3,2,18.4,2,30.3c0,9.4-0.3,18.4-1,27c-0.6,8.6-2.3,16.2-5.1,22.9
			c-2.8,6.7-7,11.9-12.6,15.7c-5.6,3.8-13.5,5.7-23.5,5.7c-8.1,0-14.9-1.1-20.3-3.2c-5.4-2.2-9.8-5.8-13-11
			c-3.2-5.2-5.5-11.9-6.8-20.2c-1.3-8.3-2-18.4-2-30.3C495.9,267.8,496.2,258.8,496.8,250.2z M523.9,303.9c0.4,5.4,1.2,9.6,2.4,12.7
			c1.1,3.1,2.7,5.2,4.6,6.4c1.9,1.1,4.3,1.7,7.2,1.7c3,0,5.5-0.7,7.4-2.2c1.9-1.5,3.4-3.9,4.5-7.4c1.1-3.5,1.8-8.1,2.3-14
			c0.4-5.8,0.7-13,0.7-21.7v-14.6c0-8.5-0.2-15.4-0.7-20.8c-0.4-5.4-1.2-9.6-2.4-12.7c-1.1-3.1-2.7-5.2-4.6-6.4
			c-1.9-1.1-4.3-1.7-7.2-1.7c-3,0-5.5,0.7-7.4,2.2c-1.9,1.5-3.4,3.9-4.5,7.4c-1.1,3.5-1.8,8.1-2.3,14c-0.4,5.8-0.7,13-0.7,21.7v14.6
			C523.3,291.6,523.5,298.5,523.9,303.9z"/>
		<path class="st1" d="M588,250.2c0.6-8.6,2.3-16.2,5.1-22.9c2.8-6.7,7-12,12.6-16c5.6-4,13.5-6,23.5-6c8.2,0,15,1.2,20.4,3.5
			c5.4,2.3,9.7,6.1,12.9,11.3c3.2,5.2,5.5,11.9,6.8,20.2c1.3,8.3,2,18.4,2,30.3c0,9.4-0.3,18.4-1,27c-0.6,8.6-2.3,16.2-5.1,22.9
			c-2.8,6.7-7,11.9-12.6,15.7c-5.6,3.8-13.5,5.7-23.5,5.7c-8.1,0-14.9-1.1-20.3-3.2c-5.4-2.2-9.8-5.8-13-11
			c-3.2-5.2-5.5-11.9-6.8-20.2c-1.3-8.3-2-18.4-2-30.3C587.1,267.8,587.4,258.8,588,250.2z M615.1,303.9c0.4,5.4,1.2,9.6,2.4,12.7
			c1.1,3.1,2.7,5.2,4.6,6.4c1.9,1.1,4.3,1.7,7.2,1.7c3,0,5.5-0.7,7.4-2.2c1.9-1.5,3.4-3.9,4.5-7.4c1.1-3.5,1.8-8.1,2.3-14
			c0.4-5.8,0.7-13,0.7-21.7v-14.6c0-8.5-0.2-15.4-0.7-20.8c-0.4-5.4-1.2-9.6-2.4-12.7c-1.1-3.1-2.7-5.2-4.6-6.4
			c-1.9-1.1-4.3-1.7-7.2-1.7c-3,0-5.5,0.7-7.4,2.2c-1.9,1.5-3.4,3.9-4.5,7.4c-1.1,3.5-1.8,8.1-2.3,14c-0.4,5.8-0.7,13-0.7,21.7v14.6
			C614.5,291.6,614.7,298.5,615.1,303.9z"/>
	</g>
</g>
<g class="st0">
	<g>
		<path class="st1" d="M448.5,349c1.3,0,2.5,0.1,3.7,0.4c1.1,0.3,2.1,0.7,2.9,1.3c0.8,0.6,1.4,1.5,1.9,2.5c0.4,1.1,0.7,2.3,0.7,3.9
			c0,1.7-0.4,3.2-1.2,4.5c-0.8,1.2-2,2.1-3.6,2.5v0.1c1.8,0.2,3.2,1,4.3,2.3c1,1.3,1.6,3,1.6,5.2c0,1.3-0.2,2.5-0.5,3.6
			c-0.3,1.1-0.9,2.1-1.7,3c-0.8,0.9-1.8,1.5-3.1,2c-1.3,0.5-2.9,0.8-4.7,0.8h-10.9V349H448.5z M446,362.2c1.8,0,3.1-0.3,3.9-1
			s1.2-1.7,1.2-3.3s-0.4-2.6-1.1-3.2s-1.9-0.9-3.6-0.9h-2.3v8.4H446z M446.7,376.4c1.6,0,2.8-0.3,3.8-1c1-0.7,1.4-2,1.4-3.8
			c0-0.9-0.1-1.7-0.4-2.3c-0.3-0.6-0.6-1.1-1-1.5c-0.4-0.4-1-0.6-1.6-0.8c-0.6-0.2-1.3-0.2-2-0.2h-2.8v9.7H446.7z"/>
		<path class="st1" d="M476.9,349l8.5,32.1h-6.8l-1.5-6.8h-8.5l-1.5,6.8h-6.8l8.5-32.1H476.9z M476.1,369l-3.1-14.4h-0.1l-3.1,14.4
			H476.1z"/>
		<path class="st1" d="M498.5,349c1.3,0,2.5,0.1,3.7,0.4c1.1,0.3,2.1,0.7,2.9,1.3s1.4,1.5,1.9,2.5c0.5,1.1,0.7,2.3,0.7,3.9
			c0,1.7-0.4,3.2-1.2,4.5c-0.8,1.2-2,2.1-3.6,2.5v0.1c1.8,0.2,3.2,1,4.3,2.3c1,1.3,1.6,3,1.6,5.2c0,1.3-0.2,2.5-0.5,3.6
			c-0.3,1.1-0.9,2.1-1.7,3s-1.8,1.5-3.1,2c-1.3,0.5-2.9,0.8-4.7,0.8h-10.9V349H498.5z M496,362.2c1.8,0,3.1-0.3,3.9-1
			c0.8-0.6,1.2-1.7,1.2-3.3s-0.4-2.6-1.1-3.2s-1.9-0.9-3.6-0.9h-2.3v8.4H496z M496.7,376.4c1.6,0,2.8-0.3,3.8-1c1-0.7,1.4-2,1.4-3.8
			c0-0.9-0.1-1.7-0.4-2.3c-0.3-0.6-0.6-1.1-1-1.5c-0.4-0.4-1-0.6-1.6-0.8c-0.6-0.2-1.3-0.2-2-0.2h-2.8v9.7H496.7z"/>
		<path class="st1" d="M522.1,361.4L522.1,361.4l4.6-12.4h7l-8.3,19.5v12.6h-6.5v-12.6l-8.3-19.5h7.3L522.1,361.4z"/>
		<path class="st1" d="M545.2,370.8h-12.7v-5.3h12.7V370.8z"/>
		<path class="st1" d="M554.7,372c0,0.8,0.1,1.4,0.2,2c0.1,0.6,0.3,1.1,0.7,1.6c0.3,0.4,0.8,0.8,1.3,1c0.6,0.2,1.3,0.4,2.1,0.4
			c1,0,1.9-0.3,2.7-1c0.8-0.6,1.2-1.6,1.2-3c0-0.7-0.1-1.3-0.3-1.9c-0.2-0.5-0.5-1-1-1.4c-0.5-0.4-1-0.8-1.8-1.1s-1.6-0.7-2.7-1.1
			c-1.4-0.5-2.7-1-3.7-1.6c-1.1-0.6-1.9-1.2-2.6-2c-0.7-0.8-1.2-1.6-1.6-2.7s-0.5-2.2-0.5-3.5c0-3.2,0.9-5.5,2.7-7.1
			c1.8-1.6,4.2-2.3,7.3-2.3c1.4,0,2.8,0.2,4,0.5c1.2,0.3,2.3,0.8,3.2,1.5c0.9,0.7,1.6,1.6,2.1,2.7c0.5,1.1,0.7,2.4,0.7,3.9v0.9h-6.2
			c0-1.5-0.3-2.7-0.8-3.5c-0.5-0.8-1.4-1.2-2.7-1.2c-0.7,0-1.3,0.1-1.8,0.3s-0.9,0.5-1.1,0.8c-0.3,0.3-0.5,0.7-0.6,1.2
			c-0.1,0.5-0.2,0.9-0.2,1.4c0,1,0.2,1.8,0.6,2.5c0.4,0.7,1.3,1.3,2.7,1.9l5,2.2c1.2,0.5,2.2,1.1,3,1.7c0.8,0.6,1.4,1.2,1.9,1.9
			c0.5,0.7,0.8,1.4,1,2.2c0.2,0.8,0.3,1.7,0.3,2.7c0,3.4-1,5.9-2.9,7.4c-2,1.5-4.7,2.3-8.2,2.3c-3.7,0-6.3-0.8-7.9-2.4
			s-2.4-3.9-2.4-6.8v-1.3h6.5V372z"/>
		<path class="st1" d="M591.6,354.3h-7v26.8h-6.5v-26.8h-7V349h20.5V354.3z"/>
		<path class="st1" d="M612.3,354.3h-11.5v7.6h10.8v5.3h-10.8v8.6h11.9v5.3h-18.4V349h18V354.3z"/>
		<path class="st1" d="M627.4,349c1.6,0,3,0.3,4.2,0.8c1.1,0.6,2,1.3,2.7,2.2c0.7,0.9,1.2,1.9,1.5,3.1s0.5,2.3,0.5,3.5
			c0,1.7-0.2,3.1-0.7,4.3c-0.5,1.2-1.2,2.2-2.1,3c-0.9,0.8-2,1.4-3.2,1.8c-1.3,0.4-2.7,0.6-4.2,0.6h-3.5v12.8H616V349H627.4z
			 M625.4,363.5c1.3,0,2.3-0.4,3.1-1.2s1.2-2,1.2-3.6c0-1.6-0.3-2.8-1-3.7s-1.8-1.3-3.5-1.3h-2.7v9.8H625.4z"/>
		<path class="st1" d="M644.6,372c0,0.8,0.1,1.4,0.2,2c0.1,0.6,0.3,1.1,0.7,1.6c0.3,0.4,0.8,0.8,1.3,1c0.6,0.2,1.3,0.4,2.1,0.4
			c1,0,1.9-0.3,2.7-1c0.8-0.6,1.2-1.6,1.2-3c0-0.7-0.1-1.3-0.3-1.9c-0.2-0.5-0.5-1-1-1.4c-0.5-0.4-1-0.8-1.8-1.1s-1.6-0.7-2.7-1.1
			c-1.4-0.5-2.7-1-3.7-1.6c-1.1-0.6-1.9-1.2-2.6-2c-0.7-0.8-1.2-1.6-1.6-2.7s-0.5-2.2-0.5-3.5c0-3.2,0.9-5.5,2.7-7.1
			c1.8-1.6,4.2-2.3,7.3-2.3c1.4,0,2.8,0.2,4,0.5c1.2,0.3,2.3,0.8,3.2,1.5c0.9,0.7,1.6,1.6,2.1,2.7c0.5,1.1,0.7,2.4,0.7,3.9v0.9h-6.2
			c0-1.5-0.3-2.7-0.8-3.5c-0.5-0.8-1.4-1.2-2.7-1.2c-0.7,0-1.3,0.1-1.8,0.3s-0.9,0.5-1.1,0.8c-0.3,0.3-0.5,0.7-0.6,1.2
			c-0.1,0.5-0.2,0.9-0.2,1.4c0,1,0.2,1.8,0.6,2.5c0.4,0.7,1.3,1.3,2.7,1.9l5,2.2c1.2,0.5,2.2,1.1,3,1.7c0.8,0.6,1.4,1.2,1.9,1.9
			c0.5,0.7,0.8,1.4,1,2.2c0.2,0.8,0.3,1.7,0.3,2.7c0,3.4-1,5.9-2.9,7.4c-2,1.5-4.7,2.3-8.2,2.3c-3.7,0-6.3-0.8-7.9-2.4
			s-2.4-3.9-2.4-6.8v-1.3h6.5V372z"/>
	</g>
</g>
<g>
	<g>
		<polygon class="st2" points="207.8,106.3 202.3,108 197.1,113.4 191.5,120.8 190.1,122.8 188.3,123.3 177.3,131.1 180.4,131.6 
			181.7,135.8 184.5,136 189.5,130.1 190.4,130.3 190.9,132.4 192.2,131.6 192.6,129.6 192.6,127.5 192.4,125.3 191.7,124.4 
			194.9,120.1 198.8,116 204.1,112.3 208.1,110.5 		"/>
	</g>
	<g>
		<path class="st2" d="M275.3,75.4c4.2-2,3.1,4.7,3.1,4.7l-3.3,8.2l-6.5,3.4l-8.7,19.6l-2.8,1.7l-4.8-2.9l1.2-2.8l3.6,2L267,89
			l-2.1-6.3l0.4-3.5l1.4-1.3l1,0.2l-0.2,2.2v1.7l1.5-3l3-5.9L275.3,75.4z"/>
	</g>
	<g>
		<path class="st2" d="M241.2,59.7c0.4,0.2,0.7,3.7,0.7,3.7l-0.2,5.1l2.6,3.6l-1.6,0.8l-1.1,2.9l-2.6,0.9l-3.5-0.3l-0.2,1.3l2.2,0.5
			l4.1-0.1l-2.1,4.5l-2.6,1.9l-4.3-0.2l-0.2,9l-3,0.2c-0.4,0-0.7-0.4-0.8-0.8l1.2-9.7l-3.2-3.3l-1.8-3.7l0.4-2.3l-2.3,0.6l-2-2.4
			l-0.3-2.6l2.7-1.8l2.3,0.8l0.8,1.4l0.6,1.3l0.7,0.8l1.5-1.7l0.5-5.3l3.5-0.1l0.8-3.7l1-1L241.2,59.7z"/>
	</g>
	<path class="st2" d="M242.4,96.9c0,0,9.4,4.4,10.4,6.4c0.9,2-0.6,7.4-1.5,7.9s-7.7-6.4-8.1-7.1C242.8,103.3,242.4,96.9,242.4,96.9z
		"/>
	<path class="st3" d="M251.3,111.9c-2.3,0-8.6-7.4-8.7-7.5c-0.5-0.8-0.8-5.5-0.9-7.5l-0.1-1.2l1.1,0.5c1.6,0.7,9.7,4.6,10.7,6.7
		c1,2.2-0.4,8.1-1.8,8.8C251.5,111.8,251.4,111.9,251.3,111.9z M243.2,98c0.2,2.6,0.4,5.2,0.6,5.6c0.5,0.9,5.8,6.1,7.2,6.7
		c0.6-0.9,1.9-5.2,1.1-6.9C251.7,102.4,247,99.8,243.2,98z"/>
	<g>
		<path class="st3" d="M234.5,141.9h-11.5c-5,0-9.1-4.1-9.1-9.1v0c0-0.6-0.4-2,0.2-2h29.6c0.6,0,0.1,1.5,0.1,2v0
			C243.6,137.7,239.5,141.9,234.5,141.9z"/>
		<path class="st3" d="M234.5,142.2h-11.6c-5.2,0-9.5-4.3-9.5-9.5c0-0.1,0-0.4-0.1-0.6c-0.1-0.7-0.2-1.3,0.1-1.6
			c0.1-0.1,0.3-0.2,0.5-0.2h29.6c0.2,0,0.4,0.1,0.5,0.2c0.3,0.3,0.2,0.9,0.1,1.6c0,0.2-0.1,0.5-0.1,0.6
			C244,138,239.7,142.2,234.5,142.2z M214,131c0,0.2,0,0.7,0.1,1c0,0.3,0.1,0.5,0.1,0.7c0,4.8,3.9,8.8,8.8,8.8h11.6
			c4.8,0,8.8-3.9,8.8-8.8c0-0.2,0-0.5,0.1-0.7c0-0.3,0.1-0.8,0.1-0.9H214z"/>
	</g>
	<g>
		<path class="st2" d="M223,91.6h4.3c0.5,0,0.9,0.3,1.1,0.8c0.3,0.9,1.3,1.6,2.4,1.6c1.1,0,2-0.7,2.4-1.6c0.2-0.5,0.6-0.8,1.1-0.8
			h0.2c5.1,0,9.2,4.1,9.2,9.2v29.7c0,0.6-4.9,1.7-7.5,1.8c-2.9,0.1-9.2-1.4-13-0.8c-2.3,0.4-9.3-0.4-9.3-1l0-29.7
			C213.8,95.8,217.9,91.6,223,91.6z"/>
		<path class="st4" d="M235.9,133c-1.1,0-2.6-0.2-4.3-0.4c-2.9-0.4-6.1-0.8-8.4-0.4c-2.1,0.4-8.9-0.2-9.9-1.1
			c-0.3-0.2-0.3-0.5-0.3-0.7v-29.7c0-5.5,4.5-9.9,9.9-9.9h4.3c0.8,0,1.5,0.5,1.8,1.3c0.3,0.7,0.9,1.1,1.7,1.1s1.5-0.4,1.7-1.1
			c0.3-0.8,1-1.3,1.8-1.3h0.2c5.5,0,9.9,4.5,9.9,9.9v29.7c0,1.8-8.1,2.5-8.2,2.5C236.1,133,236,133,235.9,133z M225.4,130.6
			c2,0,4.3,0.3,6.4,0.6c1.7,0.2,3.3,0.4,4.3,0.4c2.2-0.1,5.8-0.9,6.8-1.3v-29.4c0-4.7-3.8-8.5-8.5-8.5h-0.2c-0.2,0-0.3,0.2-0.4,0.3
			c-0.5,1.2-1.7,2-3,2s-2.6-0.8-3-2c-0.1-0.2-0.2-0.3-0.4-0.3H223c-4.7,0-8.5,3.8-8.5,8.5v29.3c1.3,0.4,6.6,1,8.5,0.7
			C223.7,130.7,224.6,130.6,225.4,130.6z"/>
	</g>
	<g>
		<path class="st5" d="M218.8,100.8c0.8,2.3,2.3,8.1,1.2,10.6c-1.2,2.5-0.9,8.6,0,9.5c0.9,0.9,1.8,7,7.2,6.3s7.7,3,9.5,3
			c1.8,0,3.5,1.7,1.5,1.8c-2,0.2-10-1-10.5-1s-6.3-0.1-6.6,0.2s-6.5-0.5-7-1c-0.5-0.5-0.2-21.1-0.2-21.1L218.8,100.8z"/>
	</g>
	<g>
		<path class="st3" d="M235.9,133c-1.1,0-2.6-0.2-4.3-0.4c-2.9-0.4-6.1-0.8-8.4-0.4c-2.1,0.4-8.9-0.2-9.9-1.1
			c-0.3-0.2-0.3-0.5-0.3-0.7v-29.7c0-5.5,4.5-9.9,9.9-9.9h4.3c0.8,0,1.5,0.5,1.8,1.3c0.3,0.7,0.9,1.1,1.7,1.1s1.5-0.4,1.7-1.1
			c0.3-0.8,1-1.3,1.8-1.3h0.2c5.5,0,9.9,4.5,9.9,9.9v29.7c0,1.8-8.1,2.5-8.2,2.5C236.1,133,236,133,235.9,133z M225.4,130.6
			c2,0,4.3,0.3,6.4,0.6c1.7,0.2,3.3,0.4,4.3,0.4c2.2-0.1,5.8-0.9,6.8-1.3v-29.4c0-4.7-3.8-8.5-8.5-8.5h-0.2c-0.2,0-0.3,0.2-0.4,0.3
			c-0.5,1.2-1.7,2-3,2s-2.6-0.8-3-2c-0.1-0.2-0.2-0.3-0.4-0.3H223c-4.7,0-8.5,3.8-8.5,8.5v29.3c1.3,0.4,6.6,1,8.5,0.7
			C223.7,130.7,224.6,130.6,225.4,130.6z"/>
	</g>
	<g>
		<path class="st2" d="M219.7,95.9c1.5,2.6-5.6,13.9-8.6,15.3c-3,1.4-7.1-5.8-6.6-6.6C204.9,103.8,215.7,89.2,219.7,95.9z"/>
		<path class="st4" d="M210.2,112.1c-0.9,0-2.2-0.5-3.6-2.1c-1.3-1.4-3.4-4.6-2.8-5.7c0.1-0.1,7.5-10.8,13-10.9
			c1.4,0,2.7,0.7,3.5,2.1l0,0c0.4,0.7,0.4,1.8-0.1,3.4c-1.3,4.1-6.2,11.7-8.9,12.9C211.1,112,210.7,112.1,210.2,112.1z M205.2,104.9
			c0.1,0.8,1.9,4.1,3.9,5.3c0.7,0.4,1.3,0.5,1.8,0.3c2-0.9,6.8-7.7,8.1-12c0.5-1.6,0.3-2.1,0.2-2.2l0,0c-0.6-0.9-1.3-1.4-2.2-1.4
			c0,0,0,0,0,0C212.7,94.9,206,103.6,205.2,104.9z"/>
	</g>
	<g>
		<path class="st5" d="M219.7,97.1c-0.5,1.1-2.2,4-3.7,4.6c-1.5,0.6-4.5,1.8-5.6,2.1s-4,2-5.5,1.7s2.4,4.2,2.4,4.2s1.9,2.1,2.9,2
			c1-0.1,4.8-4.3,4.8-4.3l4.8-8.2V97.1z"/>
	</g>
	<g>
		<path class="st3" d="M210.2,112.1c-0.9,0-2.2-0.5-3.6-2.1c-1.3-1.4-3.4-4.6-2.8-5.7c0.1-0.1,7.5-10.8,13-10.9
			c1.4,0,2.7,0.7,3.5,2.1l0,0c0.4,0.7,0.4,1.8-0.1,3.4c-1.3,4.1-6.2,11.7-8.9,12.9C211.1,112,210.7,112.1,210.2,112.1z M205.2,104.9
			c0.1,0.8,1.9,4.1,3.9,5.3c0.7,0.4,1.3,0.5,1.8,0.3c2-0.9,6.8-7.7,8.1-12c0.5-1.6,0.3-2.1,0.2-2.2l0,0c-0.6-0.9-1.3-1.4-2.2-1.4
			c0,0,0,0,0,0C212.7,94.9,206,103.6,205.2,104.9z"/>
	</g>
	<g>
		<path class="st4" d="M266.6,81.7c-0.1-0.3-0.2-0.6-0.2-1c0-0.6,0.1-1.2,0.2-1.7c0,0,0,0,0-0.1c-0.5,0.5-0.9,1.1-1,1.8l-1.4-0.3
			c0.3-1.4,1.1-2.5,2.5-3.4l0.2-0.1h0.2c0.3,0,0.6,0.1,0.8,0.4c0.4,0.5,0.2,1.2,0.1,2c-0.1,0.5-0.2,1-0.2,1.4c0,0.2,0,0.4,0.1,0.6
			L266.6,81.7z"/>
	</g>
	<g>
		<path class="st3" d="M257.5,113.3c-2.6,0-5.4-3-5.8-3.4l-0.3-0.3l1.3-3.9l0.8,0.7c1.4,1.1,2.7,2,3.2,2.2
			c1.6-2.2,9.4-18.4,9.6-19.8c0-0.2-0.3-0.9-0.6-1.5c-0.8-1.8-2.1-4.4-1.5-6.9l1.4,0.3c-0.4,1.9,0.7,4.4,1.4,5.9
			c0.4,1,0.7,1.6,0.7,2.1c0,1.1-3,7.4-4.8,11.1c-4.9,10-5.4,10.1-5.7,10.2c-0.8,0.2-2.4-0.8-3.8-1.8l-0.4,1.1c1.1,1.1,3.5,3.1,5,2.6
			c1.4-0.6,5.5-10.4,7.5-15.2c2.5-5.9,2.6-6.1,3.1-6.2c0.6-0.1,4.5-1.7,5.4-2.2c0.7-0.5,2.8-6,3.4-8.1c0.3-0.8,0.1-3.3-0.3-4.8
			c-0.6,1-1.3,3.1-1.8,4.3c-1,2.7-1.2,3.2-1.8,3.3l-0.3,0.1l-0.3-0.2c-0.6-0.4-0.4-1,0.5-4.3c0.2-0.8,0.5-1.8,0.8-2.8
			c-0.1,0.3-0.2,0.6-0.3,0.9c-1.8,4.6-2.2,5.4-3,5.3l-0.3,0l-0.2-0.3c-0.3-0.4-0.3-0.8,0.9-5.2c0.2-0.8,0.4-1.6,0.6-2.4
			c-1,1.7-2.4,4.9-3.5,8.4l-0.2,0.6l-0.6-0.1c-0.4-0.1-0.9-0.4-1.1-1.2l0.8-0.3c1.1-3.3,3.4-9.8,5.7-10l0.4,0l0.3,0.3
			c0.3,0.3,0.3,0.5-0.1,2.3c0.9-2.3,1.3-2.7,1.9-2.5c0.2,0,0.5,0.2,0.7,0.4c0.3,0.5,0.3,1.3,0,2.6c0.5-0.9,1-1.2,1.6-1.1l0.3,0.1
			l0.2,0.3c0.7,1.3,1.1,5.5,0.7,6.8c0,0.1-2.7,8.1-4.1,8.9c-1,0.6-4.4,1.9-5.6,2.3c-0.4,0.6-1.4,3.1-2.4,5.4
			c-4.4,10.4-6.7,15.4-8.4,16C258.2,113.3,257.9,113.3,257.5,113.3z"/>
	</g>
	<g>
		<path class="st3" d="M266.6,81.7c-0.1-0.3-0.2-0.6-0.2-1c0-0.6,0.1-1.2,0.2-1.7c0,0,0,0,0-0.1c-0.5,0.5-0.9,1.1-1,1.8l-1.4-0.3
			c0.3-1.4,1.1-2.5,2.5-3.4l0.2-0.1h0.2c0.3,0,0.6,0.1,0.8,0.4c0.4,0.5,0.2,1.2,0.1,2c-0.1,0.5-0.2,1-0.2,1.4c0,0.2,0,0.4,0.1,0.6
			L266.6,81.7z"/>
	</g>
	<g>
		<path class="st3" d="M234.7,85.3c-0.6,0-1.2-0.1-1.8-0.2c-5.5-1.2-8.4-6.3-8.6-10c-0.7,0.1-1.4,0-2-0.4c-1.4-0.8-2.3-2.6-2.3-4.4
			c0-0.9,0.7-2.2,2-2.9c1.2-0.7,2.5-0.6,3.8,0.2c0,0,0.1,0.1,0.1,0.1c1.2,1.2,1.7,2.1,1.6,3c-0.1,0.4-0.4,0.7-0.8,0.6
			c-0.4-0.1-0.7-0.4-0.6-0.8c0.1-0.5-0.6-1.2-1.1-1.8c-0.8-0.5-1.6-0.6-2.3-0.2c-0.8,0.4-1.2,1.3-1.2,1.7c0,1.3,0.6,2.6,1.6,3.1
			c0.6,0.3,1.1,0.3,1.7,0c0.2-0.1,0.5-0.1,0.8,0c0.2,0.1,0.4,0.4,0.3,0.7c-0.3,2.8,2,8.4,7.5,9.6c1.9,0.4,3.6,0.1,5.1-1.1
			c1.3-1,2.1-2.5,2.4-3.5c-2.1,0.1-5.1,0.1-6-0.7c-0.2-0.2-0.4-0.5-0.4-0.8c0-0.4,0-1.1,0.6-1.5c0.6-0.4,1.4-0.1,2,0.1
			c1.2,0.5,3.7-0.3,4.3-0.6c0-0.2,0.1-0.8,0.1-1.3c0.1-1.4,0.1-2,0.5-2.4c0.2-0.1,0.4-0.2,0.7-0.1c0.1,0,0.5,0,0.9,0
			c-1-1.1-2.5-3-2.2-3.9c0.2-0.9,0.2-7.1-0.5-7.9c-0.3-0.3-0.2-0.8,0-1c0.3-0.3,0.7-0.3,1,0c1.2,1.2,1.2,7.8,0.9,9.3
			c0.2,0.6,1.6,2.6,2.3,3.1c0.7,0.5,0.5,1,0.5,1.2c-0.3,0.7-1.8,0.8-2.6,0.8c0,0.3-0.1,0.8-0.1,1.1c0,1-0.1,1.6-0.2,1.9
			c-0.3,0.6-1.5,1.1-2.9,1.4c0.6,0,1.2-0.1,1.8-0.1c0.2,0,0.4,0,0.6,0.2s0.2,0.3,0.2,0.5c0,1.5-1.1,3.9-3.1,5.4
			C237.9,84.8,236.4,85.3,234.7,85.3z"/>
	</g>
	<path class="st5" d="M227,71.5c0.1,0.7,1,0.6,1.6,0.4c0.6-0.2,1.2-6.5,1-7.1c-0.3-0.6,3.2,0.9,4-0.3c0.8-1.3,0.6-3.2,0.4-3.6
		s6.5-2.2,9.4-1c2.9,1.2,7.2-4.9,5.1-10s-9.5-5.2-10.5-3.3c0.9,0.2,2.3,0.8,3.4,1.8c1,0.8,1.3,3,0.1,3.9c-0.5-1.8-1.3-3.7-3.3-3.3
		c0,0,1.6,2,1.3,3.2c-0.2,1.3-2.2-0.4-2.8,0.1c-0.6,0.5-8.4-0.8-9.9,1.7c-1.5,2.5-1.8-0.4-1-1.3c0.8-0.8-1.3,0.5-1,2.2
		s-1.3-0.5-2.5,0.5c-1.2,1,1.6-0.3,1.8,1.3c-2.6,1.3-2.1,7.3-2.1,11C223.9,67.5,226.6,67.4,227,71.5z"/>
	<path class="st3" d="M227.7,72.8c-0.3,0-0.7-0.1-0.9-0.2c-0.3-0.2-0.5-0.6-0.6-1l0,0c-0.1-1.3-0.5-2.2-1.1-2.7
		c-0.8-0.7-2.1-0.6-3-0.4c-0.2,0-0.4,0-0.6-0.2c-0.2-0.1-0.3-0.3-0.3-0.5c0-0.4,0-0.8,0-1.2c-0.1-3.7-0.2-8.2,1.9-10
		c-0.1,0-0.4-0.1-0.7,0c-0.4,0-0.9,0-1.1-0.5c-0.2-0.6,0.3-1,0.5-1.1c0.8-0.6,1.6-0.4,2.2-0.2c0-1.5,1.2-2.7,1.6-2.9
		c0.3-0.1,0.7,0,0.9,0.3c0.3,0.5-0.1,1-0.3,1.2c-0.1,0.1-0.1,0.2-0.2,0.4c0,0,0,0,0,0c1.3-2.1,5.6-2,8.4-1.9c0.7,0,1.5,0,1.8,0
		c0.5-0.3,1.2-0.1,1.8,0.1c0.2,0.1,0.4,0.2,0.6,0.2c0-0.7-0.7-1.9-1.2-2.5c-0.2-0.2-0.2-0.5-0.1-0.7c0.1-0.2,0.3-0.4,0.5-0.5
		c1.9-0.4,2.9,0.7,3.5,2c-0.1-0.5-0.3-1.1-0.6-1.3c-1.1-0.9-2.3-1.5-3.1-1.6c-0.2,0-0.4-0.2-0.5-0.4c-0.1-0.2-0.1-0.4,0-0.6
		c0.5-1,2-1.6,4-1.5c2.7,0.1,6.3,1.4,7.8,4.9c1.5,3.5,0.1,7.5-2,9.6c-1.3,1.3-2.8,1.8-4.1,1.3c-2.2-0.9-6.9,0.1-8.3,0.7
		c0.2,1,0.1,2.5-0.6,3.6c-0.8,1.2-2.5,0.9-3.7,0.6c0,0,0,0-0.1,0c0,1.9-0.5,5.6-0.9,6.5c-0.1,0.1-0.2,0.5-0.6,0.6
		C228.6,72.7,228.2,72.8,227.7,72.8z M227.7,71.5l-0.7,0.1L227.7,71.5L227.7,71.5L227.7,71.5z M227.7,71.4c0.1,0,0.2,0,0.4,0
		c0.4-1,0.9-5.6,0.7-6.3c-0.1-0.2-0.1-0.5,0.1-0.8c0.3-0.4,0.9-0.3,1.7-0.2c0.6,0.1,2,0.4,2.2,0c0.6-1,0.5-2.5,0.4-2.8
		c-0.2-0.3-0.1-0.6,0.1-0.9c0.7-0.8,7.2-2.4,10.2-1.2c0.7,0.3,1.7-0.1,2.5-1c1.7-1.7,2.9-5.1,1.7-8c-1.2-2.8-4.2-3.9-6.5-4
		c-0.7,0-1.3,0-1.7,0.2c0.8,0.4,1.6,0.9,2.3,1.4c0.7,0.6,1.2,1.7,1.1,2.8c0,0.9-0.4,1.7-1.1,2.2c-0.2,0.1-0.4,0.2-0.7,0.1
		c-0.2-0.1-0.4-0.3-0.5-0.5c-0.3-1.1-0.6-1.9-1-2.3c0.3,0.7,0.6,1.5,0.5,2.2c-0.1,0.5-0.4,0.8-0.6,0.9c-0.6,0.3-1.3,0.1-1.9-0.1
		c-0.2-0.1-0.5-0.2-0.6-0.2c-0.4,0.2-1,0.2-2.5,0.2c-2.2-0.1-6.3-0.2-7.1,1.2c-0.4,0.6-0.9,1.4-1.7,1.3c-0.1,0-0.1,0-0.2,0
		c-0.1,0.2-0.2,0.4-0.3,0.5c-0.1,0.1-0.2,0.1-0.4,0.2c0,0.1,0.1,0.2,0.1,0.3c0,0.3-0.1,0.6-0.4,0.7c-1.9,1-1.8,5.9-1.7,9.2
		c0,0.1,0,0.3,0,0.4c1-0.1,2.3,0,3.3,0.8C227,68.5,227.5,69.7,227.7,71.4z"/>
	<g>
		<path class="st3" d="M232.5,93.6c-0.4,0-0.7-0.3-0.7-0.7l-0.2-8.5c0-0.4,0.3-0.7,0.7-0.7c0.4,0,0.7,0.3,0.7,0.7l0.2,8.5
			C233.2,93.3,232.9,93.6,232.5,93.6C232.5,93.6,232.5,93.6,232.5,93.6z"/>
	</g>
	<g>
		<path class="st3" d="M228.9,93.1C228.8,93.1,228.8,93.1,228.9,93.1c-0.5-0.1-0.8-0.4-0.7-0.8l1.1-9.3c0-0.4,0.4-0.7,0.8-0.6
			c0.4,0,0.7,0.4,0.6,0.8l-1.1,9.3C229.5,92.8,229.2,93.1,228.9,93.1z"/>
	</g>
	<g>
		<path class="st3" d="M180.5,137.1c-0.3,0-0.5-0.1-0.6-0.3c-0.4-0.5-0.1-0.9,1.2-2.5c-1.7,1.3-2.5,1.7-3,1.7
			c-0.3,0-0.6-0.2-0.7-0.5c-0.2-0.6,0.1-1,2.4-3.6c0,0,0,0,0,0c-0.1,0.1-0.2,0.2-0.3,0.3c-1.4,1.1-1.8,1.5-2.3,1.2
			c-0.3-0.1-0.4-0.5-0.4-0.7c0.1-1.8,3.5-4.5,8.6-8.1c0.5-0.4,1.1-0.7,1.2-0.8c0.6-0.6,1.9-0.7,2.6-0.7c0.2-0.3,0.6-0.8,1-1.4
			c2.8-4,9.3-13.5,14.3-15c0.4-0.1,0.8,0.1,0.9,0.5c0.1,0.4-0.1,0.8-0.5,0.9c-4.6,1.4-11.1,10.9-13.6,14.5c-1.4,2.1-1.4,2.1-1.9,2.1
			c-0.6-0.1-1.6,0.1-1.8,0.3c-0.1,0.1-0.5,0.4-1.4,1c-1.6,1.1-2.9,2.1-4,2.9c0.2-0.1,0.4-0.1,0.6-0.1c0.3,0,0.6,0.2,0.7,0.5
			c0.2,0.6-0.1,1.1-2.2,3.5c0.2-0.1,0.3-0.2,0.4-0.3c1.8-1.3,2-1.5,2.4-1.3c0.2,0.1,0.4,0.2,0.5,0.4c0.3,0.7-0.3,1.5-2.3,3.9
			c-0.1,0.1-0.2,0.2-0.3,0.3c1-0.2,2.4-0.6,4.2-2.1c1.5-1.3,2.3-2.6,2.9-3.3c0.4-0.7,0.8-1.2,1.4-1c0.6,0.1,0.7,0.8,0.7,1.2
			c0.1,0.5,0.1,0.9,0.1,1.2c0,0,0,0,0.1,0c0.8-0.5,0.6-3.1,0.6-4.3c0-0.5-0.1-1,0-1.3c-0.2-0.1-0.4-0.2-0.5-0.5
			c-0.2-0.6-0.1-1.2,2.1-4.6c3.5-5.5,13.5-11.8,15.2-10.8c0.3,0.2,0.5,0.6,0.2,1c-0.2,0.3-0.5,0.4-0.9,0.3
			c-1.3,0.1-9.9,4.9-13.3,10.3c-1.2,1.9-1.7,2.7-1.8,3.2c0.5,0.3,0.5,0.8,0.5,1.1c0,0.2,0,0.8,0,1.4c0.1,2,0.2,4.8-1.3,5.7
			c-0.6,0.4-1.2,0.7-1.7,0.4c-0.5-0.3-0.5-0.9-0.5-1.5c0,0,0,0,0,0c-0.6,0.8-1.4,1.9-2.6,2.9c-2.7,2.3-4.7,2.4-5.8,2.5
			c-0.2,0-0.4,0-0.5,0.1C180.7,137.1,180.6,137.1,180.5,137.1z"/>
	</g>
	<g>
		<path class="st3" d="M240.7,138.8c0,0,38.4,2.6,38.4,8.5c0,5.9,11.1,19.4,10.3,20.5c-0.8,1.2-4.5,0.8-5.2,0.3
			c-0.7-0.4-9.4-16.3-9.6-19.9c-0.3-3.5-38.6-6.4-39.1-6.4C235,141.9,240.7,138.8,240.7,138.8z"/>
		<path class="st3" d="M286.8,169c-1.2,0-2.4-0.2-2.8-0.5c-1-0.6-9.5-16.7-9.8-20.1c-0.2-2.9-35.9-6.1-38.8-6.1l-0.3,0l-0.1-0.3
			c-0.1-0.3-0.1-0.5,5.4-3.4l0.1,0l0.1,0c4,0.3,38.8,2.8,38.8,8.8c0,3.5,4.1,9.8,7.1,14.4c2.7,4.3,3.6,5.7,3.2,6.3
			C289.2,168.7,288,169,286.8,169z M236.5,141.6c6.1,0.4,38.2,3.1,38.5,6.7c0.2,3.3,8.5,18.7,9.5,19.6c0.5,0.3,4,0.7,4.7-0.3
			c0.1-0.5-1.7-3.1-3.2-5.5c-3-4.7-7.2-11.2-7.2-14.8c0-4.1-22.7-7.1-38-8.1C239.4,139.9,237.5,141,236.5,141.6z"/>
	</g>
	<g>
		<path class="st3" d="M222.6,141.4c0,0.8-16.7,27.3-17.1,29.8c-0.3,2.5-33.4,14.4-33.6,15.8c-0.2,1.3-1.4-5.4-2.4-6.1
			c-1-0.7,30.8-9.4,32-12.1c1.6-3.8,17.1-28.1,17.1-28.1L222.6,141.4z"/>
		<path class="st3" d="M171.9,187.5c-0.4,0-0.5-0.4-1-2.3c-0.4-1.3-1.1-3.7-1.5-4l-0.2-0.1l0-0.3c0.1-0.5,0.9-0.8,10.5-3.9
			c7.8-2.5,20.9-6.7,21.5-8.2c1.6-3.8,16.5-27.1,17.1-28.1l0.1-0.2l4.6,0.7v0.3c0,0.3-0.8,1.8-5.6,9.6c-4.5,7.5-11.3,18.8-11.5,20.3
			c-0.2,1.4-6.6,4.3-20.9,10.2c-5.7,2.3-12.1,5-12.7,5.6C172.2,187.4,172.1,187.5,171.9,187.5C171.9,187.5,171.9,187.5,171.9,187.5z
			 M170,180.9c0.5,0.7,0.9,2.2,1.5,4.1c0.1,0.5,0.3,1,0.4,1.4c0.9-0.7,4-2.1,12.8-5.7c8-3.3,20.2-8.3,20.5-9.6
			c0.2-1.5,5.4-10.2,11.6-20.5c2.4-4,4.7-7.8,5.3-9l-3.4-0.5c-1.5,2.3-15.4,24.2-16.9,27.8c-0.7,1.7-9.9,4.8-22,8.6
			C175.6,178.9,171.1,180.4,170,180.9z"/>
	</g>
	<g>
		<g>
			<path class="st3" d="M299.1,177.6c-0.5,0-0.9-0.1-1.3-0.2c-1.4-0.5-4.9-1.4-5.4-1.4c-0.3,0-5.7-0.3-6.8-1.2
				c-1.1-0.9-1.9-6-1.1-7.3l1.2,0.7c-0.4,0.7,0.2,4.8,0.8,5.4c0.6,0.4,5,0.9,5.7,0.9c0.7-0.1,4.9,1.1,6,1.5c1.1,0.4,3-0.3,3.3-0.7
				c0.1-0.2,0.2-0.6,0-1.1c-0.2-0.5-0.6-1.1-1.8-1.4c-11.5-3-11.4-4.3-11.4-5.1l1.4,0.1c0-0.1,0-0.1,0-0.1c0.3,0.5,2.7,1.8,10.3,3.7
				c1.8,0.5,2.5,1.6,2.7,2.3c0.3,0.9,0.2,1.8-0.2,2.5C302.3,176.9,300.6,177.6,299.1,177.6z"/>
		</g>
		<g>
			<path class="st3" d="M299.5,178.6c-0.8,0-1.5-0.1-1.6-0.2c-0.1,0-0.8-0.3-4.4-1.2l-0.2-0.1c-0.3-0.1-1.4-0.2-2.4-0.3
				c-2.1-0.3-3.5-0.5-4-0.6c-0.9-0.3-1.5-1.1-1.7-1.7c-0.2-0.5-0.1-0.8,0-1l1.2,0.8c0.1-0.1,0.1-0.2,0.1-0.3c0,0.1,0.3,0.7,0.9,0.9
				c0.4,0.1,2.4,0.4,3.7,0.6c1.4,0.2,2.2,0.3,2.5,0.4l0.2,0.1c3.8,1,4.4,1.2,4.6,1.3c0.4,0.1,2.2,0.2,2.7-0.3
				c0.6-0.6,0.7-1.5,0.7-1.7l1.3-0.6c0.4,0.7,0.1,2.3-0.9,3.4C301.5,178.4,300.4,178.6,299.5,178.6z"/>
		</g>
		<g>
			<path class="st3" d="M289.9,172.1c-0.4,0-0.7-0.3-0.7-0.7c0-0.8,1-2.1,1.4-2.7c0.3-0.3,0.7-0.4,1-0.1c0.3,0.3,0.4,0.7,0.1,1
				c-0.5,0.7-1.1,1.5-1.1,1.7C290.6,171.8,290.3,172.1,289.9,172.1C289.9,172.1,289.9,172.1,289.9,172.1z"/>
		</g>
		<g>
			<path class="st3" d="M291.6,172.7c-0.4,0-0.7-0.3-0.7-0.7c0-0.8,1-2.1,1.4-2.7c0.3-0.3,0.7-0.4,1-0.1c0.3,0.3,0.4,0.7,0.1,1
				c-0.5,0.7-1.1,1.5-1.1,1.7C292.3,172.4,292,172.7,291.6,172.7C291.6,172.7,291.6,172.7,291.6,172.7z"/>
		</g>
		<g>
			<path class="st3" d="M293.4,173.4c-0.4,0-0.7-0.3-0.7-0.7c0-0.8,1-2.1,1.4-2.7c0.3-0.3,0.7-0.4,1-0.1c0.3,0.3,0.4,0.7,0.1,1
				c-0.5,0.7-1.1,1.5-1.1,1.7C294.2,173,293.9,173.4,293.4,173.4C293.5,173.4,293.5,173.4,293.4,173.4z"/>
		</g>
		<g>
			<path class="st3" d="M295,173.8c-0.4,0-0.7-0.3-0.7-0.7c0-0.8,1-2.1,1.4-2.7c0.3-0.3,0.7-0.4,1-0.1c0.3,0.3,0.4,0.7,0.1,1
				c-0.5,0.7-1.1,1.5-1.1,1.7C295.8,173.5,295.5,173.8,295,173.8C295.1,173.8,295.1,173.8,295,173.8z"/>
		</g>
	</g>
	<g>
		<g>
			<path class="st3" d="M169.7,201.1c-0.2,0-0.3,0-0.4,0c-1.2-0.3-3-2.4-3-4.2c-0.1-1.5-0.5-5-0.7-5.5c-0.2-0.4-1.8-5.4-1.4-6.7
				c0.4-1.3,4.8-4,6.3-3.7l-0.2,1.4c-0.8-0.1-4.4,2-4.7,2.7c-0.2,0.7,1,5,1.3,5.6c0.3,0.6,0.8,5,0.8,6.1c0,1.2,1.4,2.7,1.9,2.8
				c0.2,0.1,0.7,0,1.1-0.4c0.4-0.3,0.8-1,0.6-2.1c-1.6-11.8-0.2-12.2,0.5-12.4l0.4,1.4c0.1,0,0.1-0.1,0.1-0.1
				c-0.3,0.4-0.6,3.2,0.4,10.9c0.2,1.9-0.6,2.9-1.1,3.4C171.1,200.8,170.3,201.1,169.7,201.1z"/>
		</g>
		<g>
			<path class="st3" d="M169,201.4c-0.5,0-1-0.1-1.5-0.3c-1.6-0.6-2.2-3.3-2.2-3.7c0-0.1-0.1-1.1-0.5-4.5l0-0.3
				c0-0.3-0.3-1.4-0.6-2.3c-0.5-2-0.9-3.4-0.9-3.9c0-0.9,0.4-1.8,0.9-2.3c0.4-0.3,0.7-0.4,0.9-0.3l-0.2,1.4c0.2,0,0.3,0,0.3,0
				c-0.1,0.1-0.5,0.6-0.5,1.1c0,0.4,0.5,2.3,0.8,3.6c0.3,1.3,0.6,2.2,0.6,2.5l0,0.3c0.5,3.6,0.6,4.5,0.6,4.7c0,0.4,0.6,2.1,1.3,2.4
				c0.8,0.3,1.7,0.1,1.8,0l1.1,1C170.6,201.1,169.9,201.4,169,201.4z"/>
		</g>
		<g>
			<path class="st3" d="M171.3,188.4c-0.1,0-0.1,0-0.2,0c-0.8-0.3-1.8-0.4-2-0.3c-0.4,0.2-0.8,0-0.9-0.4c-0.2-0.4,0-0.8,0.4-1
				c0.8-0.3,2.4,0.1,3,0.3c0.4,0.1,0.6,0.5,0.5,0.9C171.9,188.2,171.6,188.4,171.3,188.4z"/>
		</g>
		<g>
			<path class="st3" d="M171.4,190.1c-0.1,0-0.1,0-0.2,0c-0.8-0.3-1.8-0.4-2-0.3c-0.4,0.2-0.8,0-0.9-0.4c-0.2-0.4,0-0.8,0.4-1
				c0.8-0.3,2.4,0.1,3,0.3c0.4,0.1,0.6,0.5,0.5,0.9C172,189.9,171.7,190.1,171.4,190.1z"/>
		</g>
		<g>
			<path class="st3" d="M171.5,192.1c-0.1,0-0.1,0-0.2,0c-0.8-0.3-1.8-0.4-2-0.3c-0.4,0.2-0.8,0-0.9-0.4c-0.2-0.4,0-0.8,0.4-1
				c0.8-0.3,2.4,0.1,3,0.3c0.4,0.1,0.6,0.5,0.5,0.9C172.1,191.9,171.8,192.1,171.5,192.1z"/>
		</g>
		<g>
			<path class="st3" d="M171.6,193.8c-0.1,0-0.1,0-0.2,0c-0.8-0.3-1.8-0.4-2-0.3c-0.4,0.2-0.8,0-0.9-0.4c-0.2-0.4,0-0.8,0.4-1
				c0.8-0.3,2.4,0.1,3,0.3c0.4,0.1,0.6,0.5,0.5,0.9C172.2,193.6,171.9,193.8,171.6,193.8z"/>
		</g>
	</g>
	<g>
		<circle class="st3" cx="237.5" cy="68.8" r="1.4"/>
	</g>
</g>
<g>
	<g>
		<polygon class="st5" points="233,228.6 230.7,229 231.5,230.6 233.4,230.9 231.5,232.2 233.5,233.2 236.3,235.5 236.5,239.1 
			235.7,241.5 240.2,242.3 247.4,241.3 246.8,236 249.7,233.3 251.1,232.2 249.3,230.6 251.5,230.1 251.7,228.3 248,227.4 
			236.4,227.5 		"/>
	</g>
	<path class="st2" d="M227.1,211.6c-0.1-5.1,2.6-13.4,10-14.5s19.6,4.1,19.5,13.8c-0.1,9.7-10.2,13.5-10.8,13.9
		c-0.6,0.4-13.8,3.1-18.6-5.4C224,213.3,227.1,211.6,227.1,211.6z"/>
	<g>
		<path class="st3" d="M244.7,218.4c-0.5,0-1-0.1-1.4-0.3c-0.4-0.2-0.5-0.6-0.4-1s0.6-0.5,1-0.4c0.6,0.3,1.2,0.2,1.7,0
			c0.6-0.3,1.1-1,1.3-1.8c0,0,0-0.1,0-0.1c0.2-0.7-0.3-1.2-0.6-1.5c-0.7-0.5-1.7-0.6-2.2-0.3c-0.3,0.2-0.8,0.2-1-0.1
			c-0.2-0.3-0.2-0.8,0.1-1c1.1-0.8,2.8-0.5,3.9,0.3c1.1,0.8,1.5,1.9,1.2,3c-0.2,1.2-1,2.2-2,2.8
			C245.7,218.3,245.2,218.4,244.7,218.4z"/>
	</g>
	<path class="st3" d="M263.9,235.9c-0.3-0.6-0.8-1-1.5-1.1c-0.3,0-0.7,0-0.9,0c0.2-0.6,0.2-1.2-0.1-1.8c-0.3-0.5-0.9-0.9-1.8-0.9
		c-0.1-0.5-0.5-1.1-1.3-1.6c-0.7-0.4-1.3-0.6-1.9-0.7c0.3-3.3-2.6-6.7-4.3-8.2c4.1-3.6,5.2-7.6,5.3-10.8c0-3.6-1.6-7-4.6-9.7
		c-4.2-3.6-10.6-5.6-15.7-4.8c-7.7,1.2-10.6,9.6-10.6,14.9c-0.8,0.7-2.6,3.1,0.2,8.5c0.6,1,1.3,1.9,2.1,2.6
		c-1.4,1.3-3.3,4.4-2.8,7.6c-0.4,0.1-0.8,0.3-1.2,0.5c-0.8,0.5-1.1,1-1.3,1.6c-0.9,0.1-1.5,0.4-1.8,0.9c-0.3,0.5-0.3,1.2-0.1,1.8
		c-0.3,0-0.6,0-0.9,0c-0.6,0.1-1.2,0.5-1.5,1.1c-0.5,1-0.4,2.4-0.1,3c0.4,0.7,1.6,1.2,2.1,1.3c0.2,0.1,0.8,0.8,1.8,2.7
		c1.6,3,5,4.3,7,4.3c0.9,0,1.7-0.3,2.3-1c0.5-0.5,0.8-1.2,0.9-2.1c0.3-0.2,1.3-1,1.5-2c0.2,0,0.3-0.1,0.5-0.1c1,0.4,3.9,0.9,6.9,0.9
		c2.1,0,4.2-0.2,5.6-1c0,0,0,0,0.1,0c0.2,0.1,0.4,0.2,0.7,0.2c0.2,1,1.2,1.8,1.5,2c0.1,0.8,0.4,1.6,0.9,2.1c0.6,0.7,1.4,1,2.3,1
		c2,0,5.5-1.3,7-4.3c1.1-2,1.7-2.6,1.8-2.7c0.5-0.2,1.7-0.6,2.1-1.3C264.3,238.3,264.4,236.9,263.9,235.9z M233.4,227.1
		C233.4,227.1,233.4,227.1,233.4,227.1C233.4,227,233.4,227,233.4,227.1c0-0.1,0-0.2,0-0.2c0-0.1,0.2-0.4,0.8-1.4
		c0,0,0.1-0.1,0.1-0.1c0.1,0,0.2,0.1,0.3,0.1c1.9,0.5,3.8,0.7,5.6,0.7c3.2,0,5.7-0.6,6.1-0.8c0.1,0,0.2-0.1,0.3-0.1
		c0.4-0.2,0.8-0.4,1.1-0.6c0.8,0.6,1.5,1.5,1.4,1.7c0,0.1-0.1,0.3-0.1,0.4C244.6,226.1,237.1,226.4,233.4,227.1z M254.3,229.7
		c-1.2,0.6-1.9,1.5-2.1,2.1c0,0,0,0-0.1,0c-0.3-0.1-1.1-0.4-1.3-0.7l0,0c0.3,0,0.6-0.1,0.9-0.4c0.7-0.5,0.9-1.5,0.6-2.4
		c0,0,0-0.1-0.1-0.1c0-0.1-0.1-0.2-0.1-0.3c0,0,0-0.1,0-0.1c0.3-0.2,0.5-0.5,0.5-0.9c0-0.6-0.4-1.1-1-1.1c-0.1,0-0.3,0-0.4,0
		c-0.2-0.9-0.9-1.8-1.5-2.4c0.3-0.2,0.5-0.3,0.8-0.5C251.4,223.8,254.5,227.1,254.3,229.7z M227.5,212.2c0.2-0.1,0.4-0.4,0.4-0.6
		c-0.1-4.8,2.5-12.7,9.4-13.8c4.6-0.7,10.7,1.2,14.5,4.5c1.9,1.7,4.2,4.5,4.1,8.6c-0.1,3.9-1.8,7.3-5.1,10c-0.4-0.1-0.9,0.1-1.1,0.6
		c-0.1,0.1-0.1,0.3-0.1,0.4c-0.4,0.3-0.8,0.6-1.2,0.8c-0.4-0.1-0.9,0-1.2,0.4c-0.1,0.1-0.1,0.2-0.1,0.3c-0.4,0.2-0.7,0.4-1.1,0.6
		c-0.2,0.1-0.4,0.2-0.4,0.2c-0.7,0.3-6.4,1.4-11.5-0.3c-0.1-0.1-0.1-0.1-0.2-0.1c-0.1,0-0.2-0.1-0.3-0.1c-0.9-0.3-1.7-0.8-2.5-1.3
		c0,0,0-0.1,0-0.1c-0.2-0.3-0.5-0.5-0.8-0.6c-0.9-0.7-1.6-1.6-2.2-2.6C225.1,213.8,227.4,212.3,227.5,212.2z M230.4,223.7
		c0.5,0.3,1.1,0.7,1.7,0.9c-0.3,0.5-0.6,0.9-0.7,1.3c-0.2,0-0.4,0-0.6,0c-0.6,0-1.1,0.5-1,1.1c0,0.4,0.2,0.7,0.5,0.9
		c-0.1,0.1-0.2,0.3-0.3,0.5c-0.3,0.9-0.1,1.8,0.6,2.4c0.3,0.2,0.6,0.3,0.9,0.4l0,0c-0.2,0.2-1,0.6-1.3,0.7c0,0-0.1,0-0.1,0
		c-0.3-0.6-1-1.5-2.1-2.1C227.5,226.9,229.8,224.1,230.4,223.7z M231.2,245.4c-0.3,0.3-0.7,0.5-1.2,0.5c-1.6,0-4.5-1.1-5.7-3.6
		c-1.4-2.7-2.3-3.3-2.5-3.4c0,0-0.1,0-0.1,0c-0.6-0.2-1.2-0.5-1.4-0.7c-0.1-0.2-0.2-1.1,0.1-1.7c0.1-0.2,0.3-0.3,0.4-0.3
		c0.1,0,0.3,0,0.4,0c0.7,0,1,0.3,1.2,0.4c0.1,0,0.1,0.1,0.1,0.1c0.3,0.2,0.7,0.2,0.9-0.1c0.4-0.4,0.2-0.9,0-1.1
		c-0.7-1.3-0.6-1.7-0.6-1.8c0.1-0.1,0.2-0.2,0.6-0.2c0,0.1,0.1,0.1,0.1,0.2c0.4,1,1.2,1.8,1.8,2.3c0.3,0.2,0.7,0.2,1-0.1
		c0.2-0.3,0.2-0.7,0-1c0,0-0.8-0.9-1.5-1.9c-0.1-0.2-0.1-0.3-0.1-0.5c0-0.2,0.1-0.5,0.6-0.8c0.3-0.1,0.6-0.3,1-0.4
		c0.1,0.1,0.2,0.1,0.3,0.2c1,0.4,1.4,1,1.5,1.1c0.1,0.3,0.3,0.6,0.6,0.8c0.1,0.5,0.1,1.2,0.1,1.9c0,2,0.8,3.1,1.6,4.1
		c0.6,0.8,1.1,1.5,1.3,2.6C231.9,243.6,231.7,244.7,231.2,245.4z M233.3,241.3c-0.1,0.2-0.1,0.4,0,0.7c0,0,0,0.1-0.1,0.2
		c0-0.1,0-0.1,0-0.2c-0.2-1.5-0.9-2.5-1.6-3.3c-0.7-0.9-1.3-1.7-1.3-3.2c0-0.5,0-1-0.1-1.4c0.1,0,0.2,0,0.4,0c0.3,0,0.8-0.2,1.3-0.5
		c0.7,0,1.2,0.2,1.6,0.5c0.1,0.1,0.3,0.2,0.5,0.3c1.2,0.7,2.1,1.4,1.8,3l-0.1,0.6c-0.1,1-0.2,1.6-0.4,2.1c-0.3,0-0.6,0.2-0.8,0.5
		c-0.1,0.1-0.1,0.2-0.1,0.3c-0.2,0-0.3,0.1-0.6,0.1C233.6,240.9,233.4,241.1,233.3,241.3z M236.7,240.3c0.2-0.6,0.3-1.4,0.4-2.2
		l0.1-0.6c0.4-2.7-1.5-3.9-2.5-4.5c-0.1-0.1-0.3-0.2-0.4-0.2c-0.3-0.2-0.6-0.3-0.9-0.5c0.1-0.1,0.1-0.2,0.1-0.3l0.1-0.2
		c0.3-0.7,0.8-1.9,0.2-2.7c3.3-0.6,11.2-0.9,14.9-0.3c-0.8,0.8-0.3,2.1,0,2.9l0.1,0.2c0.1,0.2,0.2,0.4,0.4,0.5
		c-0.2,0.1-0.3,0.2-0.5,0.3c-0.1,0.1-0.2,0.2-0.4,0.2c-1,0.6-2.9,1.8-2.5,4.5l0.1,0.6c0.1,0.8,0.2,1.5,0.4,2.1
		C243.6,241.3,238.7,240.7,236.7,240.3z M249.7,241.3c-0.1-0.2-0.3-0.3-0.6-0.3c-0.5,0-0.8-0.1-1-0.3c-0.1-0.2-0.2-0.3-0.3-0.4
		c-0.2-0.4-0.4-1.1-0.5-2.3l-0.1-0.6c-0.2-1.6,0.7-2.3,1.8-3c0.2-0.1,0.3-0.2,0.5-0.3c0.3-0.2,0.7-0.3,1.2-0.4
		c0.4,0.2,0.8,0.3,1,0.3c0.2,0,0.3,0,0.4,0c0.2,0,0.4,0,0.6-0.1c0,0.5-0.1,1-0.1,1.6c0,1.5-0.6,2.3-1.3,3.2
		c-0.6,0.8-1.4,1.8-1.6,3.3c0,0.1,0,0.1,0,0.2c-0.1-0.1-0.1-0.2-0.1-0.2C249.8,241.7,249.8,241.5,249.7,241.3z M262.7,238.2
		c-0.1,0.2-0.8,0.5-1.4,0.7c0,0-0.1,0-0.1,0c-0.2,0.1-1.1,0.7-2.5,3.4c-1.3,2.4-4.2,3.6-5.7,3.6c-0.5,0-0.9-0.2-1.2-0.5
		c-0.6-0.6-0.7-1.8-0.6-3.3c0.2-1.1,0.7-1.8,1.3-2.6c0.7-1,1.6-2.1,1.6-4.1c0-1.6,0.2-2.8,0.7-3.5c0.2-0.2,0.5-0.3,0.9-0.5
		c0.1,0,0.2-0.1,0.3-0.2c0,0,0,0,0,0c0.6,0,1.2,0.3,1.6,0.5c0.5,0.3,0.6,0.6,0.6,0.8c0,0.2,0,0.3-0.1,0.5c-0.6,1-1.5,1.8-1.5,1.9
		c-0.2,0.3-0.3,0.7,0,1c0.2,0.3,0.7,0.3,1,0.1c0.6-0.4,1.4-1.3,1.8-2.3c0-0.1,0.1-0.1,0.1-0.2c0.3,0,0.5,0.1,0.6,0.2
		c0.1,0.1,0.2,0.5-0.6,1.8c-0.1,0.2-0.4,0.7,0,1.1c0.2,0.2,0.6,0.3,0.9,0.1c0,0,0.1-0.1,0.1-0.1c0.2-0.2,0.7-0.5,1.6-0.4
		c0.1,0,0.3,0.1,0.4,0.3C262.9,237.1,262.8,238,262.7,238.2z"/>
	<g>
		<path class="st3" d="M231.3,210.8c-0.1,0-0.1,0-0.2,0c-0.4-0.1-0.6-0.5-0.5-0.9c0-0.1-0.1-0.2-0.1-0.3c-0.1-0.2-0.3-0.3-0.6-0.3
			c-0.2-0.1-0.5,0-0.7,0c-0.1,0-0.2,0.1-0.2,0.2c-0.1,0.4-0.5,0.6-0.9,0.5c-0.4-0.1-0.6-0.5-0.5-0.9c0.1-0.5,0.5-1,1.1-1.2
			c0.5-0.2,1-0.2,1.6-0.1c0.5,0.1,1,0.4,1.4,0.9c0.4,0.5,0.5,1,0.4,1.5C231.9,210.6,231.6,210.8,231.3,210.8z"/>
	</g>
	<g>
		<path class="st3" d="M236.3,212.9c-0.1,0-0.2,0-0.3-0.1c-0.4-0.2-0.5-0.6-0.4-0.9c0.1-0.2-0.1-0.5-0.6-0.7
			c-0.2-0.1-0.5-0.1-0.7-0.1c-0.1,0-0.2,0.1-0.3,0.2c-0.2,0.4-0.6,0.5-0.9,0.4c-0.4-0.2-0.5-0.6-0.4-0.9c0.2-0.5,0.7-0.9,1.2-1
			c0.5-0.1,1.1-0.1,1.6,0.2c1.2,0.5,1.7,1.7,1.3,2.6C236.8,212.7,236.6,212.9,236.3,212.9z"/>
	</g>
	<g>
		<path class="st3" d="M231.1,220.2c-0.6,0-1.2-0.1-1.8-0.4c-0.9-0.4-1.5-1.2-2-2.4c-0.6-1.5-0.6-3.5-0.1-4.6
			c0.1-0.2,0.2-0.3,0.4-0.4c0.2-0.1,0.4-0.1,0.6,0l6.8,3.2c0.3,0.1,0.5,0.5,0.4,0.8c-0.3,1.4-1.3,2.6-2.5,3.3
			C232.3,220.1,231.7,220.2,231.1,220.2z M228.4,214.2c-0.1,0.8,0,1.8,0.3,2.7c0.3,0.8,0.7,1.3,1.2,1.5c1,0.5,1.8,0.2,2.3,0
			c0.7-0.4,1.3-1,1.6-1.7L228.4,214.2z"/>
	</g>
	<g>
		<path class="st3" d="M235.4,200.6c-0.2,0-0.3-0.1-0.5-0.2c-0.3-0.3-0.3-0.7-0.1-1c0.2-0.5-0.8-3.7-2-4.7c-0.3-0.2-0.4-0.7-0.1-1
			c0.2-0.3,0.7-0.4,1-0.1c1.2,1,2.3,3.6,2.5,5.2c0.1,0.7-0.1,1.2-0.3,1.5C235.8,200.5,235.6,200.6,235.4,200.6z"/>
	</g>
	<g>
		<path class="st3" d="M236.9,199.3C236.9,199.3,236.9,199.3,236.9,199.3c-0.4,0-0.7-0.3-0.7-0.7c0-0.3,0.3-3.7,0.9-5.4
			c0.1-0.4,0.5-0.6,0.9-0.5c0.4,0.1,0.6,0.5,0.5,0.9c-0.5,1.5-0.8,4.7-0.8,5C237.6,199,237.3,199.3,236.9,199.3z"/>
	</g>
	<g>
		<path class="st3" d="M238.5,199.3c-0.1,0-0.3,0-0.4-0.1c-0.3-0.2-0.4-0.7-0.2-1c0.3-0.4,0.9-2.9,0.8-3.5c0-0.4,0.2-0.8,0.6-0.8
			c0.4,0,0.8,0.2,0.8,0.6c0.1,0.9-0.5,3.7-1.1,4.5C238.9,199.2,238.7,199.3,238.5,199.3z"/>
	</g>
</g>
<g>
	<g>
		<polygon class="st5" points="395.1,171.8 393.6,172 394.1,173 395.3,173.2 394.1,174.1 395.4,174.7 397.2,176.2 397.4,178.5 
			396.8,180.1 399.7,180.6 404.3,179.9 404,176.5 405.8,174.8 406.7,174.1 405.6,173 407,172.7 407.1,171.6 404.7,171 397.2,171 		
			"/>
	</g>
	<path class="st2" d="M391.3,160.8c0-3.3,1.7-8.6,6.4-9.4c4.8-0.7,12.6,2.6,12.6,8.9c-0.1,6.2-6.6,8.7-7,8.9c-0.4,0.2-8.9,2-12-3.4
		C389.3,162,391.3,160.8,391.3,160.8z"/>
	<g>
		<path class="st3" d="M402.6,165.2c-0.3,0-0.6-0.1-0.9-0.2c-0.2-0.1-0.3-0.4-0.2-0.6c0.1-0.2,0.4-0.3,0.6-0.2
			c0.4,0.2,0.8,0.2,1.1,0c0.4-0.2,0.7-0.6,0.8-1.2c0,0,0,0,0-0.1c0.2-0.5-0.2-0.8-0.4-0.9c-0.5-0.3-1.1-0.4-1.4-0.2
			c-0.2,0.2-0.5,0.1-0.6-0.1c-0.2-0.2-0.1-0.5,0.1-0.6c0.7-0.5,1.8-0.3,2.5,0.2c0.7,0.5,1,1.2,0.7,1.9c-0.2,0.8-0.6,1.4-1.3,1.8
			C403.3,165.1,402.9,165.2,402.6,165.2z"/>
	</g>
	<path class="st3" d="M415,176.5c-0.2-0.4-0.5-0.7-1-0.7c-0.2,0-0.4,0-0.6,0c0.1-0.4,0.1-0.8-0.1-1.1c-0.2-0.4-0.6-0.5-1.2-0.6
		c-0.1-0.3-0.3-0.7-0.8-1c-0.4-0.2-0.8-0.4-1.2-0.4c0.2-2.1-1.6-4.3-2.8-5.3c2.7-2.3,3.4-4.9,3.4-6.9c0-2.3-1-4.5-3-6.2
		c-2.7-2.3-6.8-3.6-10.1-3.1c-4.9,0.8-6.8,6.2-6.8,9.6c-0.5,0.5-1.7,2,0.1,5.5c0.4,0.6,0.8,1.2,1.3,1.7c-0.9,0.9-2.1,2.8-1.8,4.9
		c-0.2,0.1-0.5,0.2-0.8,0.3c-0.5,0.3-0.7,0.7-0.8,1c-0.6,0-0.9,0.2-1.2,0.6c-0.2,0.3-0.2,0.8-0.1,1.1c-0.2,0-0.4,0-0.6,0
		c-0.4,0.1-0.8,0.3-1,0.7c-0.3,0.7-0.2,1.6,0,1.9c0.3,0.5,1,0.7,1.3,0.9c0.1,0.1,0.5,0.5,1.2,1.8c1,1.9,3.2,2.8,4.5,2.8
		c0.6,0,1.1-0.2,1.5-0.6c0.3-0.3,0.5-0.8,0.6-1.3c0.2-0.1,0.8-0.7,1-1.3c0.1,0,0.2-0.1,0.3-0.1c0.6,0.3,2.5,0.6,4.4,0.6
		c1.3,0,2.7-0.2,3.6-0.6c0,0,0,0,0,0c0.1,0.1,0.3,0.1,0.4,0.1c0.1,0.6,0.8,1.1,1,1.3c0.1,0.5,0.3,1,0.6,1.3c0.4,0.4,0.9,0.6,1.5,0.6
		c1.3,0,3.5-0.9,4.5-2.8c0.7-1.3,1.1-1.7,1.2-1.8c0.3-0.1,1.1-0.4,1.4-0.9C415.2,178,415.3,177.1,415,176.5z M395.3,170.8
		C395.3,170.8,395.3,170.8,395.3,170.8C395.3,170.8,395.3,170.8,395.3,170.8c0-0.1,0-0.1,0-0.1c0-0.1,0.1-0.3,0.5-0.9
		c0,0,0-0.1,0-0.1c0.1,0,0.1,0,0.2,0.1c1.2,0.3,2.5,0.4,3.6,0.4c2,0,3.7-0.4,3.9-0.5c0,0,0.1,0,0.2-0.1c0.3-0.1,0.5-0.2,0.7-0.4
		c0.5,0.4,0.9,1,0.9,1.1c0,0.1,0,0.2,0,0.3C402.5,170.1,397.7,170.4,395.3,170.8z M408.8,172.5c-0.8,0.4-1.2,1-1.4,1.3c0,0,0,0,0,0
		c-0.2,0-0.7-0.3-0.8-0.4l0,0c0.2,0,0.4-0.1,0.6-0.2c0.4-0.3,0.6-1,0.4-1.5c0,0,0,0,0-0.1c0-0.1-0.1-0.1-0.1-0.2c0,0,0,0,0-0.1
		c0.2-0.1,0.3-0.3,0.3-0.6c0-0.4-0.3-0.7-0.7-0.7c-0.1,0-0.2,0-0.2,0c-0.1-0.6-0.6-1.1-1-1.5c0.2-0.1,0.3-0.2,0.5-0.3
		C406.9,168.7,408.9,170.8,408.8,172.5z M391.5,161.2c0.1-0.1,0.2-0.2,0.2-0.4c0-3.1,1.6-8.2,6.1-8.9c3-0.5,6.9,0.8,9.3,2.9
		c1.2,1.1,2.7,2.9,2.7,5.5c0,2.5-1.2,4.7-3.3,6.4c-0.3,0-0.6,0.1-0.7,0.4c0,0.1-0.1,0.2-0.1,0.2c-0.3,0.2-0.5,0.4-0.8,0.5
		c-0.3-0.1-0.6,0-0.8,0.3c0,0.1-0.1,0.1-0.1,0.2c-0.2,0.1-0.5,0.2-0.7,0.4c-0.1,0.1-0.2,0.1-0.2,0.1c-0.4,0.2-4.1,0.9-7.4-0.2
		c0,0-0.1-0.1-0.1-0.1c-0.1,0-0.1,0-0.2,0c-0.6-0.2-1.1-0.5-1.6-0.8c0,0,0,0,0-0.1c-0.1-0.2-0.3-0.3-0.5-0.4c-0.5-0.5-1-1-1.4-1.7
		C390,162.2,391.4,161.3,391.5,161.2z M393.4,168.6c0.3,0.2,0.7,0.4,1.1,0.6c-0.2,0.3-0.4,0.6-0.5,0.9c-0.1,0-0.2,0-0.4,0
		c-0.4,0-0.7,0.3-0.7,0.7c0,0.2,0.1,0.5,0.3,0.6c-0.1,0.1-0.1,0.2-0.2,0.3c-0.2,0.6-0.1,1.2,0.4,1.5c0.2,0.2,0.4,0.2,0.6,0.2l0,0
		c-0.2,0.1-0.6,0.4-0.8,0.4c0,0,0,0,0,0c-0.2-0.4-0.6-0.9-1.4-1.4C391.6,170.7,393,168.9,393.4,168.6z M393.9,182.6
		c-0.2,0.2-0.5,0.3-0.8,0.3c-1,0-2.9-0.7-3.7-2.3c-0.9-1.7-1.4-2.1-1.6-2.2c0,0,0,0-0.1,0c-0.4-0.1-0.8-0.3-0.9-0.4
		c-0.1-0.1-0.1-0.7,0.1-1.1c0.1-0.2,0.2-0.2,0.2-0.2c0.1,0,0.2,0,0.2,0c0.4,0,0.7,0.2,0.8,0.3c0,0,0.1,0.1,0.1,0.1
		c0.2,0.1,0.4,0.1,0.6,0c0.3-0.3,0.1-0.6,0-0.7c-0.5-0.8-0.4-1.1-0.4-1.2c0-0.1,0.1-0.1,0.4-0.1c0,0,0.1,0.1,0.1,0.1
		c0.3,0.6,0.8,1.2,1.2,1.5c0.2,0.1,0.5,0.1,0.6-0.1c0.2-0.2,0.2-0.4,0-0.6c0,0-0.5-0.6-0.9-1.2c0-0.1-0.1-0.2,0-0.3
		c0-0.1,0.1-0.3,0.4-0.5c0.2-0.1,0.4-0.2,0.6-0.3c0.1,0,0.1,0.1,0.2,0.1c0.6,0.3,0.9,0.7,1,0.7c0.1,0.2,0.2,0.4,0.4,0.5
		c0.1,0.4,0.1,0.8,0.1,1.2c0,1.3,0.5,2,1,2.6c0.4,0.5,0.7,0.9,0.8,1.7C394.4,181.4,394.2,182.1,393.9,182.6z M395.2,179.9
		c-0.1,0.1-0.1,0.3,0,0.4c0,0,0,0.1,0,0.1c0,0,0-0.1,0-0.1c-0.1-1-0.6-1.6-1-2.1c-0.4-0.6-0.8-1.1-0.8-2c0-0.3,0-0.6,0-0.9
		c0.1,0,0.2,0,0.2,0c0.2,0,0.5-0.1,0.8-0.3c0.4,0,0.8,0.1,1,0.3c0.1,0.1,0.2,0.1,0.3,0.2c0.7,0.4,1.3,0.9,1.2,1.9l-0.1,0.4
		c-0.1,0.6-0.2,1.1-0.3,1.3c-0.2,0-0.4,0.1-0.5,0.3c0,0.1-0.1,0.1-0.1,0.2c-0.1,0-0.2,0-0.4,0.1
		C395.5,179.7,395.3,179.8,395.2,179.9z M397.5,179.3c0.1-0.4,0.2-0.9,0.3-1.4l0.1-0.4c0.3-1.7-1-2.5-1.6-2.9
		c-0.1-0.1-0.2-0.1-0.2-0.2c-0.2-0.1-0.4-0.2-0.6-0.3c0-0.1,0.1-0.1,0.1-0.2l0-0.1c0.2-0.5,0.5-1.2,0.1-1.8c2.1-0.4,7.2-0.5,9.6-0.2
		c-0.5,0.5-0.2,1.4,0,1.9l0,0.1c0,0.1,0.1,0.2,0.2,0.4c-0.1,0.1-0.2,0.1-0.3,0.2c-0.1,0-0.2,0.1-0.2,0.2c-0.7,0.4-1.9,1.1-1.6,2.9
		l0.1,0.4c0.1,0.5,0.1,1,0.3,1.4C401.9,179.9,398.7,179.6,397.5,179.3z M405.8,179.9c-0.1-0.1-0.2-0.2-0.4-0.2
		c-0.3,0-0.5-0.1-0.7-0.2c0-0.1-0.1-0.2-0.2-0.2c-0.2-0.3-0.2-0.7-0.3-1.5l-0.1-0.4c-0.2-1.1,0.4-1.5,1.2-1.9
		c0.1-0.1,0.2-0.1,0.3-0.2c0.2-0.1,0.5-0.2,0.8-0.3c0.3,0.1,0.5,0.2,0.7,0.2c0.1,0,0.2,0,0.3,0c0.1,0,0.3,0,0.4-0.1
		c0,0.3-0.1,0.6,0,1c0,1-0.4,1.5-0.8,2.1c-0.4,0.5-0.9,1.1-1,2.1c0,0,0,0.1,0,0.1c0-0.1-0.1-0.1,0-0.1
		C405.9,180.2,405.9,180,405.8,179.9z M414.2,178c-0.1,0.1-0.5,0.3-0.9,0.4c0,0-0.1,0-0.1,0c-0.1,0.1-0.7,0.4-1.6,2.2
		c-0.8,1.6-2.7,2.3-3.7,2.3c-0.3,0-0.6-0.1-0.8-0.3c-0.4-0.4-0.5-1.1-0.4-2.1c0.1-0.7,0.4-1.2,0.8-1.7c0.5-0.6,1-1.3,1-2.6
		c0-1,0.1-1.8,0.4-2.3c0.1-0.1,0.3-0.2,0.6-0.3c0.1,0,0.1-0.1,0.2-0.1c0,0,0,0,0,0c0.4,0,0.8,0.2,1,0.3c0.3,0.2,0.4,0.4,0.4,0.5
		c0,0.1,0,0.2,0,0.3c-0.4,0.6-0.9,1.2-0.9,1.2c-0.2,0.2-0.2,0.4,0,0.6c0.2,0.2,0.4,0.2,0.6,0.1c0.4-0.3,0.9-0.8,1.2-1.5
		c0,0,0.1-0.1,0.1-0.1c0.2,0,0.3,0.1,0.4,0.1c0,0.1,0.1,0.4-0.4,1.2c-0.1,0.1-0.2,0.4,0,0.7c0.2,0.1,0.4,0.2,0.6,0
		c0,0,0.1,0,0.1-0.1c0.1-0.1,0.4-0.3,1-0.3c0.1,0,0.2,0,0.2,0.2C414.3,177.2,414.3,177.8,414.2,178z"/>
	<g>
		<path class="st3" d="M394,160.3c0,0-0.1,0-0.1,0c-0.2-0.1-0.4-0.3-0.3-0.6c0-0.1,0-0.2-0.1-0.2c-0.1-0.1-0.2-0.2-0.4-0.2
			c-0.2,0-0.3,0-0.4,0c0,0-0.1,0.1-0.1,0.1c-0.1,0.2-0.3,0.4-0.6,0.3c-0.2-0.1-0.4-0.3-0.3-0.6c0.1-0.3,0.3-0.6,0.7-0.8
			c0.3-0.1,0.7-0.2,1-0.1c0.4,0.1,0.7,0.3,0.9,0.5c0.2,0.3,0.3,0.7,0.2,1C394.4,160.2,394.2,160.3,394,160.3z"/>
	</g>
	<g>
		<path class="st3" d="M397.2,161.7c-0.1,0-0.1,0-0.2,0c-0.2-0.1-0.3-0.4-0.2-0.6c0-0.1-0.1-0.4-0.4-0.5c-0.1-0.1-0.3-0.1-0.4-0.1
			c0,0-0.1,0-0.2,0.1c-0.1,0.2-0.4,0.3-0.6,0.2c-0.2-0.1-0.3-0.4-0.2-0.6c0.1-0.3,0.4-0.5,0.8-0.6c0.3-0.1,0.7,0,1,0.1
			c0.7,0.3,1.1,1.1,0.8,1.7C397.5,161.6,397.4,161.7,397.2,161.7z"/>
	</g>
	<g>
		<path class="st3" d="M393.8,166.4c-0.4,0-0.8-0.1-1.1-0.2c-0.5-0.2-1-0.8-1.3-1.5c-0.4-1-0.4-2.2-0.1-2.9c0.1-0.1,0.1-0.2,0.3-0.2
			c0.1,0,0.2,0,0.4,0l4.4,2c0.2,0.1,0.3,0.3,0.3,0.5c-0.2,0.9-0.8,1.7-1.6,2.1C394.6,166.3,394.2,166.4,393.8,166.4z M392.1,162.5
			c-0.1,0.5,0,1.2,0.2,1.8c0.2,0.5,0.5,0.9,0.8,1c0.6,0.3,1.2,0.1,1.5,0c0.5-0.2,0.8-0.6,1-1.1L392.1,162.5z"/>
	</g>
	<g>
		<path class="st3" d="M396.6,153.7c-0.1,0-0.2,0-0.3-0.1c-0.2-0.2-0.2-0.5,0-0.7c0.1-0.3-0.5-2.4-1.3-3c-0.2-0.2-0.2-0.5-0.1-0.7
			c0.2-0.2,0.5-0.2,0.7-0.1c0.8,0.6,1.5,2.3,1.6,3.4c0,0.4,0,0.8-0.2,1C396.9,153.7,396.8,153.7,396.6,153.7z"/>
	</g>
	<g>
		<path class="st3" d="M397.6,152.9C397.6,152.9,397.6,152.9,397.6,152.9c-0.3,0-0.5-0.2-0.5-0.5c0-0.2,0.2-2.4,0.6-3.5
			c0.1-0.2,0.3-0.4,0.6-0.3c0.2,0.1,0.4,0.3,0.3,0.6c-0.3,1-0.5,3-0.5,3.2C398,152.7,397.8,152.9,397.6,152.9z"/>
	</g>
	<g>
		<path class="st3" d="M398.6,152.9c-0.1,0-0.2,0-0.3-0.1c-0.2-0.1-0.3-0.4-0.1-0.6c0.2-0.3,0.6-1.9,0.5-2.3c0-0.3,0.2-0.5,0.4-0.5
			c0.3,0,0.5,0.2,0.5,0.4c0.1,0.6-0.3,2.4-0.7,2.9C398.9,152.8,398.8,152.9,398.6,152.9z"/>
	</g>
</g>
<g>
	<g>
		<polygon class="st5" points="603.4,106.2 600.4,106.7 601.4,108.8 603.9,109.2 601.4,110.9 604,112.2 607.7,115.3 608.1,120 
			606.9,123.2 612.8,124.2 622.3,122.9 621.6,115.9 625.4,112.3 627.3,110.9 624.9,108.8 627.7,108.2 628,105.9 623.2,104.6 
			607.8,104.7 		"/>
	</g>
	<path class="st2" d="M595.6,83.8c-0.1-6.7,3.5-17.6,13.2-19.1c9.7-1.5,25.9,5.4,25.7,18.1c-0.2,12.8-13.4,17.8-14.3,18.3
		c-0.8,0.5-18.2,4-24.5-7.1C591.6,86.1,595.6,83.8,595.6,83.8z"/>
	<g>
		<path class="st3" d="M618.8,92.8c-0.6,0-1.3-0.1-1.9-0.4c-0.5-0.2-0.7-0.8-0.5-1.3c0.2-0.5,0.8-0.7,1.3-0.5c0.7,0.3,1.6,0.3,2.3,0
			c0.9-0.4,1.5-1.3,1.7-2.4c0,0,0-0.1,0-0.1c0.3-0.9-0.4-1.6-0.8-1.9c-0.9-0.7-2.2-0.8-2.9-0.4c-0.4,0.3-1,0.2-1.3-0.2
			c-0.3-0.4-0.2-1,0.2-1.3c1.5-1.1,3.7-0.7,5.1,0.3c1.4,1,2,2.5,1.5,4c-0.3,1.6-1.3,2.9-2.6,3.7C620.2,92.6,619.5,92.8,618.8,92.8z"
			/>
	</g>
	<path class="st3" d="M644.1,115.8c-0.4-0.8-1.1-1.3-2-1.5c-0.5-0.1-0.9-0.1-1.2,0c0.2-0.8,0.2-1.6-0.2-2.3
		c-0.4-0.7-1.2-1.1-2.4-1.2c-0.2-0.7-0.6-1.4-1.7-2c-0.9-0.5-1.7-0.8-2.5-0.9c0.4-4.4-3.4-8.9-5.7-10.8c5.4-4.7,6.9-10.1,6.9-14.2
		c0.1-4.8-2.1-9.2-6.1-12.7c-5.5-4.8-14-7.4-20.7-6.3c-10.1,1.6-13.9,12.6-14,19.6c-1.1,1-3.5,4.1,0.3,11.2c0.7,1.3,1.7,2.5,2.7,3.5
		c-1.9,1.8-4.3,5.8-3.7,10.1c-0.5,0.2-1,0.4-1.6,0.7c-1.1,0.6-1.5,1.4-1.7,2c-1.1,0.1-1.9,0.5-2.4,1.2c-0.4,0.7-0.4,1.5-0.2,2.3
		c-0.4,0-0.8,0-1.2,0c-0.8,0.1-1.5,0.6-2,1.5c-0.7,1.3-0.5,3.2-0.1,4c0.5,0.9,2.1,1.5,2.8,1.7c0.2,0.2,1.1,1,2.4,3.6
		c2.1,3.9,6.6,5.7,9.2,5.7c1.2,0,2.3-0.5,3-1.3c0.6-0.7,1-1.6,1.2-2.7c0.4-0.3,1.7-1.4,2-2.6c0.2-0.1,0.4-0.1,0.6-0.2
		c1.3,0.5,5.1,1.2,9.1,1.2c2.7,0,5.5-0.3,7.4-1.3c0,0,0.1,0,0.1,0c0.3,0.1,0.6,0.2,0.9,0.3c0.3,1.3,1.6,2.3,2,2.6
		c0.2,1.1,0.6,2,1.2,2.7c0.8,0.9,1.8,1.3,3,1.3c2.6,0,7.2-1.8,9.2-5.7c1.4-2.7,2.3-3.5,2.4-3.6c0.7-0.2,2.3-0.8,2.8-1.7
		C644.6,119,644.8,117.2,644.1,115.8z M603.9,104.2C603.9,104.2,603.9,104.2,603.9,104.2C603.9,104.1,603.9,104.1,603.9,104.2
		c0-0.2,0-0.2,0-0.3c0-0.2,0.2-0.6,1-1.8c0-0.1,0.1-0.1,0.1-0.1c0.1,0,0.3,0.1,0.4,0.1c2.5,0.7,5,0.9,7.3,0.9c4.2,0,7.5-0.7,8-1.1
		c0.1,0,0.2-0.1,0.4-0.2c0.5-0.2,1-0.5,1.5-0.7c1,0.8,1.9,1.9,1.8,2.3c-0.1,0.2-0.1,0.4-0.1,0.5
		C618.6,102.8,608.8,103.3,603.9,104.2z M631.4,107.7c-1.5,0.8-2.5,2-2.8,2.8c0,0-0.1,0-0.1,0c-0.5-0.1-1.4-0.6-1.7-0.9l0-0.1
		c0.4,0,0.8-0.1,1.2-0.5c0.9-0.7,1.2-2,0.7-3.1c0-0.1-0.1-0.1-0.1-0.2c0-0.1-0.1-0.3-0.2-0.4c0,0,0-0.1-0.1-0.1
		c0.4-0.2,0.7-0.7,0.7-1.2c0-0.8-0.6-1.5-1.4-1.5c-0.2,0-0.3,0-0.5,0c-0.3-1.2-1.2-2.3-2-3.1c0.4-0.2,0.7-0.5,1-0.7
		C627.7,99.8,631.7,104.2,631.4,107.7z M596.1,84.6c0.3-0.2,0.5-0.5,0.5-0.8c-0.1-6.3,3.2-16.8,12.4-18.2c6.1-0.9,14.1,1.5,19.1,5.9
		c2.5,2.2,5.5,5.9,5.5,11.3c-0.1,5.1-2.4,9.6-6.7,13.2c-0.6-0.1-1.2,0.2-1.5,0.7c-0.1,0.2-0.1,0.3-0.2,0.5c-0.5,0.4-1.1,0.7-1.6,1.1
		c-0.6-0.2-1.2,0-1.6,0.6c-0.1,0.1-0.1,0.3-0.2,0.4c-0.5,0.3-1,0.5-1.5,0.7c-0.3,0.1-0.5,0.2-0.5,0.2c-0.9,0.4-8.5,1.8-15.1-0.4
		c-0.1-0.1-0.2-0.1-0.3-0.2c-0.1-0.1-0.3-0.1-0.4-0.1c-1.2-0.4-2.3-1-3.3-1.7c0,0,0-0.1,0-0.1c-0.2-0.4-0.6-0.7-1.1-0.7
		c-1.1-0.9-2.1-2.1-2.9-3.5C593,86.7,596,84.7,596.1,84.6z M600,99.8c0.7,0.4,1.4,0.9,2.2,1.2c-0.4,0.7-0.7,1.2-0.9,1.8
		c-0.3,0-0.5,0-0.8,0c-0.8,0-1.4,0.7-1.4,1.5c0,0.5,0.3,0.9,0.7,1.2c-0.1,0.2-0.2,0.4-0.3,0.6c-0.4,1.1-0.1,2.4,0.7,3.1
		c0.4,0.3,0.8,0.4,1.2,0.5l0,0.1c-0.3,0.3-1.3,0.8-1.7,0.9c0,0-0.1,0-0.1,0c-0.3-0.8-1.3-1.9-2.8-2.8
		C596.2,103.9,599.1,100.3,600,99.8z M601,128.3c-0.4,0.5-0.9,0.7-1.6,0.7c-2.1,0-5.9-1.5-7.6-4.7c-1.8-3.5-3-4.3-3.3-4.4
		c-0.1,0-0.1,0-0.2-0.1c-0.8-0.2-1.6-0.7-1.8-0.9c-0.1-0.3-0.3-1.5,0.1-2.2c0.2-0.3,0.4-0.4,0.5-0.4c0.2,0,0.3,0,0.5,0
		c0.9,0,1.3,0.4,1.6,0.6c0.1,0.1,0.1,0.1,0.2,0.1c0.4,0.2,0.9,0.2,1.2-0.1c0.6-0.5,0.2-1.1,0.1-1.4c-1-1.7-0.8-2.3-0.7-2.4
		c0.1-0.1,0.3-0.2,0.8-0.3c0.1,0.1,0.1,0.2,0.2,0.3c0.5,1.3,1.6,2.4,2.4,3c0.4,0.3,0.9,0.2,1.3-0.1c0.3-0.4,0.3-0.9,0-1.3
		c0,0-1.1-1.2-1.9-2.4c-0.1-0.2-0.1-0.4-0.1-0.6c0-0.3,0.1-0.7,0.8-1.1c0.3-0.2,0.8-0.4,1.3-0.6c0.1,0.1,0.2,0.2,0.4,0.2
		c1.3,0.5,1.9,1.4,2,1.5c0.1,0.4,0.4,0.8,0.7,1.1c0.1,0.7,0.2,1.6,0.2,2.5c0,2.6,1.1,4.1,2.1,5.4c0.8,1,1.5,1.9,1.7,3.4
		C601.9,125.9,601.7,127.4,601,128.3z M603.7,122.9c-0.2,0.3-0.2,0.6-0.1,0.9c0,0.1,0,0.2-0.1,0.3c0-0.1,0-0.2,0-0.3
		c-0.3-2-1.2-3.2-2.1-4.3c-0.9-1.2-1.7-2.2-1.7-4.2c0-0.7,0-1.3-0.1-1.8c0.2,0,0.3,0,0.5,0c0.4-0.1,1-0.3,1.7-0.6
		c0.9,0,1.6,0.3,2.1,0.6c0.2,0.1,0.4,0.2,0.6,0.4c1.5,0.9,2.7,1.8,2.4,4l-0.1,0.8c-0.2,1.3-0.3,2.1-0.6,2.7c-0.4,0.1-0.8,0.3-1,0.6
		c-0.1,0.1-0.1,0.3-0.2,0.4c-0.2,0.1-0.5,0.1-0.7,0.1C604.2,122.4,603.9,122.6,603.7,122.9z M608.3,121.6c0.3-0.8,0.4-1.8,0.6-2.9
		l0.1-0.8c0.5-3.6-2-5.1-3.3-5.9c-0.2-0.1-0.4-0.2-0.5-0.3c-0.4-0.2-0.8-0.4-1.2-0.6c0.1-0.1,0.1-0.2,0.2-0.3l0.1-0.3
		c0.4-1,1-2.6,0.2-3.6c4.3-0.8,14.8-1.1,19.6-0.4c-1,1-0.4,2.8,0,3.8l0.1,0.2c0.1,0.3,0.3,0.5,0.5,0.7c-0.2,0.1-0.4,0.2-0.6,0.4
		c-0.1,0.1-0.3,0.2-0.5,0.3c-1.3,0.8-3.9,2.3-3.3,5.9l0.1,0.8c0.1,1,0.3,2,0.5,2.8C617.3,122.9,610.9,122.2,608.3,121.6z
		 M625.4,122.9c-0.2-0.3-0.4-0.4-0.7-0.5c-0.6-0.1-1.1-0.2-1.4-0.4c-0.1-0.2-0.2-0.4-0.4-0.5c-0.3-0.6-0.5-1.5-0.7-3l-0.1-0.8
		c-0.3-2.2,0.9-3.1,2.4-4c0.2-0.1,0.4-0.3,0.6-0.4c0.4-0.3,0.9-0.5,1.6-0.6c0.5,0.2,1,0.4,1.3,0.4c0.2,0,0.4,0.1,0.6,0.1
		c0.3,0,0.5,0,0.8-0.1c-0.1,0.6-0.1,1.3-0.1,2.1c0,2-0.8,3-1.7,4.2c-0.8,1.1-1.8,2.3-2.1,4.3c0,0.1,0,0.2,0,0.3
		c-0.1-0.1-0.1-0.2-0.1-0.3C625.5,123.5,625.5,123.1,625.4,122.9z M642.5,118.9c-0.2,0.2-1,0.7-1.8,0.9c-0.1,0-0.1,0-0.2,0.1
		c-0.3,0.2-1.4,0.9-3.3,4.4c-1.7,3.2-5.5,4.7-7.6,4.7c-0.7,0-1.2-0.2-1.6-0.7c-0.7-0.8-1-2.4-0.7-4.3c0.2-1.5,0.9-2.4,1.7-3.4
		c1-1.3,2.1-2.7,2.1-5.4c0-2.1,0.3-3.7,0.9-4.6c0.3-0.2,0.7-0.5,1.1-0.6c0.1-0.1,0.3-0.1,0.4-0.2c0,0,0,0,0,0c0.8,0,1.6,0.4,2.1,0.7
		c0.7,0.4,0.8,0.8,0.8,1.1c0,0.2,0,0.4-0.1,0.6c-0.8,1.3-1.9,2.4-1.9,2.4c-0.3,0.4-0.3,0.9,0,1.3c0.3,0.4,0.9,0.4,1.3,0.1
		c0.8-0.6,1.9-1.7,2.4-3c0.1-0.1,0.1-0.2,0.2-0.3c0.4,0,0.7,0.2,0.8,0.3c0.1,0.2,0.2,0.7-0.7,2.4c-0.2,0.3-0.5,0.9,0.1,1.4
		c0.3,0.3,0.8,0.3,1.2,0.1c0,0,0.1-0.1,0.2-0.1c0.3-0.2,0.9-0.7,2.1-0.5c0.2,0,0.3,0.1,0.5,0.4C642.8,117.4,642.7,118.6,642.5,118.9
		z"/>
	<g>
		<path class="st3" d="M601.1,82.8c-0.1,0-0.2,0-0.2,0c-0.5-0.1-0.8-0.6-0.7-1.2c0-0.2-0.1-0.3-0.1-0.4c-0.2-0.2-0.4-0.4-0.8-0.5
			c-0.3-0.1-0.6-0.1-0.9,0c-0.1,0-0.3,0.1-0.3,0.3c-0.1,0.5-0.6,0.8-1.2,0.7c-0.5-0.1-0.8-0.6-0.7-1.2c0.2-0.7,0.7-1.3,1.4-1.6
			c0.6-0.3,1.4-0.3,2.1-0.1c0.7,0.2,1.4,0.6,1.8,1.1c0.5,0.6,0.7,1.3,0.5,2C601.9,82.5,601.5,82.8,601.1,82.8z"/>
	</g>
	<g>
		<path class="st3" d="M607.7,85.5c-0.1,0-0.3,0-0.4-0.1c-0.5-0.2-0.7-0.8-0.5-1.3c0.1-0.2-0.1-0.7-0.7-1c-0.3-0.1-0.6-0.2-0.9-0.1
			c-0.1,0-0.3,0.1-0.3,0.2c-0.2,0.5-0.8,0.7-1.3,0.5c-0.5-0.2-0.7-0.8-0.5-1.3c0.3-0.6,0.9-1.1,1.6-1.3c0.7-0.2,1.4-0.1,2.1,0.2
			c1.5,0.7,2.3,2.2,1.7,3.5C608.4,85.3,608.1,85.5,607.7,85.5z"/>
	</g>
	<g>
		<path class="st3" d="M600.8,95.2c-0.8,0-1.6-0.2-2.3-0.5c-1.1-0.5-2-1.6-2.6-3.1c-0.8-2-0.8-4.6-0.2-6c0.1-0.2,0.3-0.4,0.5-0.5
			c0.2-0.1,0.5-0.1,0.7,0l9,4.2c0.4,0.2,0.6,0.6,0.5,1.1c-0.4,1.8-1.7,3.5-3.3,4.3C602.5,95,601.7,95.2,600.8,95.2z M597.3,87.3
			c-0.1,1,0,2.4,0.4,3.6c0.4,1,0.9,1.7,1.6,2c1.3,0.6,2.4,0.3,3.1,0c0.9-0.5,1.7-1.3,2.1-2.3L597.3,87.3z"/>
	</g>
	<g>
		<path class="st3" d="M606.6,69.3c-0.2,0-0.4-0.1-0.6-0.2c-0.4-0.3-0.4-0.9-0.1-1.3c0.3-0.7-1-4.9-2.6-6.1
			c-0.4-0.3-0.5-0.9-0.1-1.3c0.3-0.4,0.9-0.5,1.3-0.1c1.6,1.3,3.1,4.8,3.3,6.9c0.1,0.9-0.1,1.6-0.4,2
			C607.1,69.2,606.8,69.3,606.6,69.3z"/>
	</g>
	<g>
		<path class="st3" d="M608.5,67.6C608.5,67.6,608.5,67.6,608.5,67.6c-0.5,0-0.9-0.4-0.9-0.9c0-0.5,0.4-4.8,1.2-7.1
			c0.2-0.5,0.7-0.8,1.2-0.6c0.5,0.2,0.8,0.7,0.6,1.2c-0.6,2-1.1,6.1-1.1,6.6C609.4,67.2,609,67.6,608.5,67.6z"/>
	</g>
	<g>
		<path class="st3" d="M610.6,67.6c-0.2,0-0.4-0.1-0.6-0.2c-0.4-0.3-0.5-0.9-0.2-1.3c0.4-0.6,1.1-3.8,1.1-4.6c-0.1-0.5,0.3-1,0.8-1
			c0.5-0.1,1,0.3,1,0.8c0.1,1.2-0.7,4.9-1.4,5.9C611.2,67.5,610.9,67.6,610.6,67.6z"/>
	</g>
</g>
<g>
	<g>
		<polygon class="st5" points="87.6,292.4 84.5,292.9 85.6,295 88.1,295.5 85.6,297.2 88.3,298.6 92,301.7 92.4,306.5 91.2,309.8 
			97.3,310.8 107,309.5 106.3,302.3 110.2,298.7 112.1,297.2 109.6,295 112.5,294.4 112.8,292.1 107.9,290.8 92.2,290.9 		"/>
	</g>
	<path class="st2" d="M79.7,269.5c-0.1-6.9,3.5-18,13.5-19.6s26.4,5.5,26.3,18.5c-0.2,13-13.7,18.2-14.6,18.7
		c-0.9,0.5-18.6,4.1-25-7.2C75.6,271.9,79.7,269.5,79.7,269.5z"/>
	<g>
		<path class="st3" d="M103.4,278.7c-0.7,0-1.3-0.1-1.9-0.4c-0.5-0.2-0.7-0.8-0.5-1.3c0.2-0.5,0.8-0.7,1.3-0.5
			c0.8,0.4,1.6,0.3,2.3,0c0.9-0.5,1.5-1.3,1.7-2.4c0,0,0-0.1,0-0.1c0.3-1-0.4-1.6-0.8-2c-0.9-0.7-2.3-0.8-2.9-0.4
			c-0.4,0.3-1,0.2-1.4-0.2c-0.3-0.4-0.2-1,0.2-1.4c1.5-1.1,3.8-0.7,5.2,0.3c1.4,1,2,2.6,1.6,4.1c-0.3,1.7-1.3,3-2.7,3.7
			C104.8,278.5,104.1,278.7,103.4,278.7z"/>
	</g>
	<path class="st3" d="M129.3,302.3c-0.4-0.8-1.1-1.4-2-1.5c-0.5-0.1-0.9-0.1-1.3,0c0.2-0.8,0.3-1.6-0.2-2.4
		c-0.4-0.7-1.3-1.1-2.4-1.2c-0.2-0.7-0.6-1.5-1.7-2.1c-0.9-0.5-1.7-0.8-2.5-0.9c0.4-4.5-3.4-9.1-5.8-11.1c5.6-4.8,7-10.3,7.1-14.5
		c0.1-4.9-2.1-9.4-6.3-13c-5.6-4.9-14.3-7.5-21.1-6.5c-10.3,1.6-14.2,12.9-14.3,20c-1.1,1-3.5,4.2,0.3,11.4c0.8,1.3,1.7,2.5,2.8,3.6
		c-1.9,1.8-4.4,6-3.8,10.3c-0.5,0.2-1.1,0.4-1.6,0.7c-1.1,0.6-1.5,1.4-1.7,2.1c-1.2,0.1-2,0.5-2.4,1.2c-0.4,0.7-0.4,1.6-0.2,2.4
		c-0.4,0-0.8,0-1.3,0c-0.9,0.1-1.6,0.6-2,1.5c-0.7,1.4-0.5,3.3-0.1,4.1c0.5,1,2.1,1.6,2.8,1.8c0.2,0.2,1.1,1,2.5,3.7
		c2.1,4,6.8,5.8,9.4,5.8c1.3,0,2.3-0.5,3.1-1.4c0.6-0.7,1-1.7,1.2-2.8c0.4-0.3,1.8-1.4,2-2.7c0.2-0.1,0.4-0.1,0.6-0.2
		c1.3,0.5,5.3,1.2,9.3,1.2c2.8,0,5.6-0.3,7.6-1.3c0,0,0.1,0,0.1,0c0.3,0.1,0.6,0.2,0.9,0.3c0.3,1.3,1.6,2.4,2,2.7
		c0.2,1.1,0.6,2.1,1.2,2.8c0.8,0.9,1.9,1.4,3.1,1.4c2.7,0,7.3-1.8,9.4-5.8c1.4-2.7,2.3-3.5,2.5-3.7c0.7-0.2,2.3-0.8,2.8-1.8
		C129.8,305.5,130,303.6,129.3,302.3z M88.2,290.4C88.1,290.4,88.1,290.3,88.2,290.4C88.1,290.3,88.1,290.3,88.2,290.4
		c0-0.2,0-0.2,0-0.3c0-0.2,0.2-0.6,1-1.9c0-0.1,0.1-0.1,0.1-0.2c0.1,0,0.3,0.1,0.4,0.1c2.5,0.7,5.2,0.9,7.5,0.9
		c4.2,0,7.6-0.8,8.2-1.1c0.1,0,0.2-0.1,0.4-0.2c0.5-0.2,1-0.5,1.5-0.8c1.1,0.8,2,2,1.9,2.3c-0.1,0.2-0.1,0.4-0.1,0.6
		C103.2,289,93.2,289.5,88.2,290.4z M116.3,293.9c-1.6,0.8-2.5,2-2.9,2.8c0,0-0.1,0-0.1,0c-0.5-0.1-1.4-0.6-1.8-0.9l0-0.1
		c0.4,0,0.8-0.1,1.2-0.5c0.9-0.7,1.2-2,0.8-3.2c0-0.1-0.1-0.1-0.1-0.2c0-0.1-0.1-0.3-0.2-0.4c0,0,0-0.1-0.1-0.1
		c0.4-0.2,0.7-0.7,0.7-1.2c0-0.8-0.6-1.5-1.4-1.5c-0.2,0-0.4,0-0.5,0c-0.3-1.3-1.2-2.4-2-3.2c0.4-0.2,0.7-0.5,1-0.7
		C112.4,285.9,116.6,290.3,116.3,293.9z M80.2,270.4c0.3-0.2,0.5-0.5,0.5-0.8c-0.1-6.4,3.3-17.1,12.7-18.6c6.2-1,14.4,1.6,19.6,6
		c2.6,2.2,5.7,6.1,5.6,11.5c-0.1,5.2-2.4,9.8-6.9,13.5c-0.6-0.1-1.2,0.2-1.5,0.8c-0.1,0.2-0.1,0.3-0.2,0.5c-0.5,0.4-1.1,0.7-1.7,1.1
		c-0.6-0.2-1.3,0-1.6,0.6c-0.1,0.1-0.1,0.3-0.2,0.4c-0.5,0.3-1,0.5-1.5,0.8c-0.3,0.1-0.5,0.2-0.5,0.3c-0.9,0.4-8.7,1.9-15.4-0.4
		c-0.1-0.1-0.2-0.1-0.3-0.2c-0.1-0.1-0.3-0.1-0.4-0.1c-1.2-0.4-2.4-1-3.4-1.7c0,0,0-0.1,0-0.1c-0.2-0.4-0.6-0.7-1.1-0.8
		c-1.1-1-2.2-2.1-3-3.6C77,272.5,80,270.5,80.2,270.4z M84.2,285.9c0.7,0.5,1.5,0.9,2.3,1.2c-0.4,0.7-0.8,1.3-1,1.8
		c-0.3,0-0.5,0-0.8,0c-0.8,0-1.4,0.7-1.4,1.5c0,0.5,0.3,1,0.7,1.2c-0.1,0.2-0.3,0.4-0.3,0.7c-0.4,1.2-0.1,2.5,0.8,3.2
		c0.4,0.3,0.8,0.5,1.2,0.5l0,0.1c-0.3,0.3-1.3,0.8-1.8,0.9c0,0-0.1,0-0.1,0c-0.3-0.8-1.3-2-2.9-2.8
		C80.3,290.1,83.3,286.4,84.2,285.9z M85.1,315c-0.4,0.5-1,0.7-1.6,0.7c-2.1,0-6-1.5-7.7-4.8c-1.9-3.6-3-4.4-3.3-4.5
		c-0.1,0-0.1,0-0.2-0.1c-0.8-0.2-1.7-0.7-1.8-0.9c-0.1-0.3-0.3-1.5,0.1-2.3c0.2-0.3,0.4-0.4,0.5-0.4c0.2,0,0.3,0,0.5,0
		c0.9,0,1.4,0.4,1.6,0.6c0.1,0.1,0.1,0.1,0.2,0.1c0.4,0.2,0.9,0.2,1.2-0.1c0.6-0.5,0.2-1.2,0.1-1.4c-1-1.8-0.9-2.3-0.8-2.5
		c0.1-0.1,0.3-0.2,0.8-0.3c0.1,0.1,0.1,0.2,0.2,0.3c0.5,1.3,1.6,2.5,2.4,3c0.4,0.3,1,0.2,1.3-0.2c0.3-0.4,0.3-0.9,0-1.3
		c0,0-1.1-1.2-2-2.5c-0.1-0.2-0.1-0.4-0.1-0.6c0-0.3,0.1-0.7,0.8-1.1c0.3-0.2,0.8-0.4,1.3-0.6c0.1,0.1,0.2,0.2,0.4,0.2
		c1.3,0.5,1.9,1.4,2,1.5c0.1,0.4,0.4,0.8,0.8,1.1c0.1,0.7,0.2,1.6,0.2,2.6c0,2.7,1.1,4.2,2.2,5.5c0.8,1.1,1.5,2,1.7,3.5
		C86.2,312.6,85.9,314.1,85.1,315z M88,309.5c-0.2,0.3-0.2,0.6-0.1,0.9c0,0.1,0,0.2-0.1,0.3c0-0.1,0-0.2,0-0.3
		c-0.3-2-1.2-3.3-2.1-4.4c-0.9-1.2-1.7-2.3-1.7-4.3c0-0.7,0-1.3-0.1-1.9c0.2,0,0.3,0,0.5,0c0.4-0.1,1.1-0.3,1.8-0.6
		c0.9,0,1.7,0.3,2.1,0.6c0.2,0.1,0.4,0.2,0.6,0.4c1.6,0.9,2.8,1.9,2.5,4.1l-0.1,0.8c-0.2,1.3-0.3,2.2-0.6,2.8
		c-0.4,0.1-0.8,0.3-1,0.6c-0.1,0.1-0.1,0.3-0.2,0.4c-0.2,0.1-0.5,0.1-0.8,0.1C88.4,309,88.2,309.2,88,309.5z M92.6,308.2
		c0.3-0.9,0.4-1.9,0.6-2.9l0.1-0.8c0.5-3.7-2-5.2-3.4-6c-0.2-0.1-0.4-0.2-0.5-0.3c-0.4-0.3-0.8-0.5-1.2-0.6c0.1-0.1,0.1-0.2,0.2-0.4
		l0.1-0.3c0.4-1,1-2.6,0.3-3.7c4.4-0.8,15.1-1.1,20.1-0.4c-1.1,1.1-0.4,2.8,0,3.9l0.1,0.3c0.1,0.3,0.3,0.5,0.5,0.7
		c-0.2,0.1-0.4,0.2-0.6,0.4c-0.1,0.1-0.3,0.2-0.5,0.3c-1.4,0.8-3.9,2.4-3.4,6l0.1,0.8c0.1,1.1,0.3,2,0.6,2.9
		C101.9,309.5,95.3,308.8,92.6,308.2z M110.1,309.5c-0.2-0.3-0.4-0.4-0.7-0.5c-0.6-0.1-1.1-0.2-1.4-0.4c-0.1-0.2-0.3-0.4-0.4-0.5
		c-0.3-0.6-0.5-1.5-0.7-3.1l-0.1-0.8c-0.3-2.2,0.9-3.1,2.5-4.1c0.2-0.1,0.4-0.3,0.6-0.4c0.4-0.3,0.9-0.5,1.6-0.6
		c0.6,0.2,1.1,0.4,1.4,0.5c0.2,0,0.4,0.1,0.6,0.1c0.3,0,0.6,0,0.8-0.1c-0.1,0.7-0.1,1.4-0.1,2.1c0,2-0.8,3.1-1.7,4.3
		c-0.9,1.1-1.8,2.4-2.1,4.4c0,0.1,0,0.2,0,0.3c-0.1-0.1-0.1-0.2-0.1-0.3C110.3,310.1,110.3,309.7,110.1,309.5z M127.7,305.4
		c-0.2,0.2-1,0.7-1.8,0.9c-0.1,0-0.1,0-0.2,0.1c-0.3,0.2-1.5,0.9-3.3,4.5c-1.7,3.3-5.6,4.8-7.7,4.8c-0.7,0-1.2-0.2-1.6-0.7
		c-0.7-0.8-1-2.4-0.7-4.4c0.2-1.5,0.9-2.4,1.7-3.5c1-1.3,2.2-2.8,2.2-5.5c0-2.2,0.3-3.8,0.9-4.7c0.3-0.2,0.7-0.5,1.2-0.7
		c0.1-0.1,0.3-0.1,0.4-0.2c0,0,0,0,0,0c0.8,0,1.7,0.4,2.2,0.7c0.7,0.4,0.8,0.8,0.8,1.1c0,0.2,0,0.4-0.1,0.6c-0.9,1.3-2,2.5-2,2.5
		c-0.3,0.4-0.3,0.9,0,1.3c0.3,0.4,0.9,0.4,1.3,0.2c0.8-0.6,1.9-1.7,2.4-3.1c0.1-0.1,0.1-0.2,0.2-0.3c0.5,0,0.7,0.2,0.8,0.3
		c0.1,0.2,0.2,0.7-0.8,2.5c-0.2,0.3-0.5,0.9,0.1,1.4c0.3,0.3,0.8,0.3,1.2,0.1c0,0,0.1-0.1,0.2-0.1c0.3-0.3,0.9-0.7,2.1-0.6
		c0.2,0,0.3,0.1,0.5,0.4C127.9,303.9,127.8,305.1,127.7,305.4z"/>
	<g>
		<path class="st3" d="M85.3,268.4c-0.1,0-0.2,0-0.2,0c-0.5-0.1-0.8-0.7-0.7-1.2c0-0.2-0.1-0.3-0.1-0.4c-0.2-0.2-0.5-0.4-0.8-0.5
			c-0.3-0.1-0.7-0.1-0.9,0c-0.1,0-0.3,0.1-0.3,0.3c-0.1,0.5-0.7,0.8-1.2,0.7c-0.5-0.1-0.8-0.7-0.7-1.2c0.2-0.7,0.7-1.3,1.4-1.6
			c0.6-0.3,1.4-0.3,2.1-0.1c0.7,0.2,1.4,0.6,1.8,1.1c0.5,0.6,0.7,1.4,0.5,2.1C86.1,268.2,85.7,268.4,85.3,268.4z"/>
	</g>
	<g>
		<path class="st3" d="M92.1,271.3c-0.1,0-0.3,0-0.4-0.1c-0.5-0.2-0.7-0.8-0.5-1.3c0.1-0.2-0.1-0.7-0.8-1c-0.3-0.1-0.6-0.2-0.9-0.1
			c-0.1,0-0.3,0.1-0.3,0.2c-0.2,0.5-0.8,0.7-1.3,0.5c-0.5-0.2-0.7-0.8-0.5-1.3c0.3-0.7,0.9-1.1,1.7-1.3c0.7-0.2,1.4-0.1,2.1,0.2
			c1.6,0.7,2.3,2.2,1.7,3.6C92.8,271.1,92.4,271.3,92.1,271.3z"/>
	</g>
	<g>
		<path class="st3" d="M85,281.1c-0.8,0-1.6-0.2-2.4-0.5c-1.1-0.5-2.1-1.6-2.6-3.2c-0.8-2.1-0.8-4.7-0.2-6.1
			c0.1-0.2,0.3-0.4,0.5-0.5c0.2-0.1,0.5-0.1,0.7,0l9.2,4.2c0.4,0.2,0.6,0.6,0.5,1.1c-0.4,1.9-1.7,3.5-3.4,4.4
			C86.7,281,85.9,281.1,85,281.1z M81.4,273.1c-0.1,1,0,2.4,0.5,3.7c0.4,1,1,1.8,1.6,2.1c1.3,0.6,2.5,0.3,3.2,0
			c0.9-0.5,1.7-1.3,2.1-2.3L81.4,273.1z"/>
	</g>
	<g>
		<path class="st3" d="M90.9,254.7c-0.2,0-0.5-0.1-0.6-0.2c-0.4-0.4-0.4-1-0.1-1.4c0.3-0.7-1-5-2.6-6.3c-0.4-0.3-0.5-0.9-0.2-1.4
			c0.3-0.4,0.9-0.5,1.4-0.2c1.7,1.3,3.2,4.9,3.3,7c0.1,0.9-0.1,1.6-0.5,2C91.4,254.5,91.2,254.7,90.9,254.7z"/>
	</g>
	<g>
		<path class="st3" d="M92.9,252.9C92.9,252.9,92.9,252.9,92.9,252.9c-0.5,0-1-0.4-1-1c0-0.5,0.5-4.9,1.2-7.3
			c0.2-0.5,0.7-0.8,1.2-0.6c0.5,0.2,0.8,0.7,0.6,1.2c-0.6,2-1.1,6.3-1.1,6.7C93.8,252.5,93.4,252.9,92.9,252.9z"/>
	</g>
	<g>
		<path class="st3" d="M95,252.9c-0.2,0-0.4-0.1-0.6-0.2c-0.4-0.3-0.5-0.9-0.2-1.4c0.4-0.6,1.2-3.9,1.1-4.7c-0.1-0.5,0.3-1,0.9-1.1
			c0.5-0.1,1,0.3,1.1,0.9c0.1,1.2-0.7,5-1.4,6.1C95.6,252.8,95.3,252.9,95,252.9z"/>
	</g>
</g>
<g>
	<g>
		<polygon class="st5" points="364.8,329.3 360.4,330.1 361.9,333.2 365.6,333.8 361.9,336.4 365.8,338.3 371.3,342.9 371.8,349.9 
			370.1,354.7 379,356.2 393.1,354.3 392.1,343.8 397.8,338.5 400.5,336.4 397,333.2 401.2,332.3 401.7,328.8 394.4,326.9 
			371.5,327.1 		"/>
	</g>
	<path class="st2" d="M353.3,295.9c-0.1-10,5.2-26.3,19.7-28.6c14.5-2.3,38.6,8,38.4,27.1c-0.3,19.1-20.1,26.6-21.3,27.3
		s-27.2,6-36.5-10.5C347.3,299.3,353.3,295.9,353.3,295.9z"/>
	<g>
		<path class="st3" d="M387.8,309.3c-1,0-1.9-0.2-2.8-0.6c-0.7-0.3-1-1.2-0.7-1.9c0.3-0.7,1.2-1,1.9-0.7c1.1,0.5,2.3,0.5,3.4-0.1
			c1.3-0.7,2.2-2,2.5-3.5c0-0.1,0-0.1,0-0.2c0.5-1.4-0.6-2.4-1.2-2.9c-1.4-1-3.4-1.2-4.3-0.5c-0.6,0.5-1.5,0.3-2-0.3
			c-0.5-0.6-0.3-1.5,0.3-2c2.2-1.7,5.5-1,7.6,0.5c2.1,1.5,3,3.7,2.3,6c-0.5,2.4-1.9,4.4-3.9,5.5C389.9,309,388.9,309.3,387.8,309.3z
			"/>
	</g>
	<path class="st3" d="M425.7,343.7c-0.6-1.2-1.7-2-2.9-2.2c-0.7-0.1-1.3-0.1-1.8,0c0.3-1.2,0.4-2.4-0.3-3.5
		c-0.7-1.1-1.8-1.7-3.5-1.8c-0.3-1-0.9-2.1-2.5-3c-1.3-0.7-2.5-1.2-3.7-1.3c0.6-6.5-5-13.2-8.5-16.2c8.1-7.1,10.3-15,10.3-21.2
		c0.1-7.2-3.1-13.8-9.1-19c-8.2-7.1-20.9-11-30.9-9.5c-15.1,2.3-20.8,18.9-20.9,29.3c-1.7,1.5-5.2,6.1,0.4,16.7
		c1.1,2,2.5,3.7,4.1,5.2c-2.8,2.6-6.4,8.7-5.5,15c-0.8,0.2-1.5,0.6-2.3,1c-1.6,0.9-2.2,2-2.5,3c-1.7,0.1-2.9,0.7-3.5,1.8
		c-0.6,1.1-0.6,2.3-0.3,3.5c-0.5-0.1-1.2,0-1.8,0c-1.3,0.2-2.3,0.9-2.9,2.2c-1,2-0.8,4.8-0.1,5.9c0.8,1.4,3.1,2.3,4.1,2.6
		c0.3,0.3,1.6,1.5,3.6,5.4c3.1,5.9,9.9,8.5,13.8,8.5c1.8,0,3.4-0.7,4.5-2c0.9-1,1.5-2.4,1.8-4.1c0.6-0.5,2.6-2,3-3.9
		c0.3-0.1,0.6-0.2,0.9-0.3c1.9,0.8,7.7,1.8,13.5,1.8c4.1,0,8.2-0.5,11.1-1.9c0,0,0.1,0,0.1-0.1c0.4,0.2,0.8,0.3,1.3,0.5
		c0.4,1.9,2.3,3.5,3,3.9c0.3,1.7,0.8,3.1,1.8,4.1c1.1,1.3,2.7,2,4.5,2c3.9,0,10.7-2.6,13.8-8.5c2.1-4,3.4-5.2,3.6-5.4
		c1-0.3,3.4-1.2,4.2-2.6C426.4,348.5,426.7,345.7,425.7,343.7z M365.6,326.4c0,0,0-0.1-0.1-0.1c0,0,0,0,0,0c0-0.1,0-0.2,0-0.3
		c0-0.2,0.3-0.9,1.5-2.7c0.1-0.1,0.1-0.2,0.1-0.2c0.2,0.1,0.4,0.1,0.6,0.2c3.7,1,7.5,1.3,11,1.3c6.2,0,11.2-1.1,12-1.6
		c0.1-0.1,0.3-0.1,0.6-0.3c0.8-0.4,1.5-0.7,2.2-1.1c1.5,1.2,2.9,2.9,2.7,3.4c-0.1,0.3-0.1,0.5-0.1,0.8
		C387.7,324.3,372.9,325,365.6,326.4z M406.7,331.5c-2.3,1.2-3.7,3-4.2,4.1c0,0-0.1,0-0.1,0c-0.7-0.1-2.1-0.9-2.6-1.3l0-0.1
		c0.6,0,1.2-0.2,1.8-0.7c1.3-1,1.8-2.9,1.1-4.6c0-0.1-0.1-0.2-0.1-0.2c-0.1-0.2-0.2-0.4-0.3-0.5c0-0.1-0.1-0.1-0.1-0.2
		c0.6-0.4,1-1,1.1-1.7c0.1-1.2-0.9-2.2-2-2.2c-0.3,0-0.5,0-0.8,0c-0.4-1.8-1.8-3.5-3-4.6c0.5-0.3,1-0.7,1.5-1
		C401.1,319.8,407.2,326.3,406.7,331.5z M354,297.1c0.4-0.3,0.7-0.7,0.7-1.2c-0.1-9.4,4.8-25,18.5-27.2c9.1-1.4,21.1,2.3,28.6,8.8
		c3.8,3.3,8.3,8.9,8.2,16.9c-0.1,7.6-3.5,14.3-10,19.7c-0.9-0.1-1.8,0.3-2.2,1.1c-0.1,0.2-0.2,0.5-0.2,0.8c-0.8,0.6-1.6,1.1-2.5,1.6
		c-0.9-0.3-1.8,0.1-2.4,0.9c-0.1,0.2-0.2,0.4-0.3,0.6c-0.7,0.4-1.5,0.7-2.2,1.1c-0.4,0.2-0.7,0.3-0.7,0.4
		c-1.3,0.6-12.7,2.7-22.6-0.5c-0.1-0.1-0.3-0.2-0.5-0.3c-0.2-0.1-0.4-0.1-0.6-0.1c-1.7-0.7-3.4-1.5-5-2.5c0-0.1,0-0.1-0.1-0.2
		c-0.3-0.6-0.9-1-1.6-1.1c-1.7-1.4-3.2-3.1-4.3-5.2C349.3,300.2,353.8,297.3,354,297.1z M359.8,319.7c1.1,0.7,2.2,1.3,3.4,1.8
		c-0.6,1-1.1,1.9-1.4,2.6c-0.4,0-0.8-0.1-1.2,0c-1.2,0.1-2.1,1.1-2,2.2c0,0.8,0.5,1.4,1.1,1.7c-0.2,0.3-0.4,0.6-0.5,1
		c-0.6,1.7-0.2,3.6,1.1,4.6c0.6,0.5,1.2,0.7,1.8,0.7l0,0.1c-0.5,0.4-1.9,1.2-2.6,1.3c-0.1,0-0.1,0-0.1,0c-0.5-1.2-1.9-2.9-4.2-4.1
		C354.1,325.9,358.5,320.5,359.8,319.7z M361.2,362.3c-0.6,0.7-1.4,1-2.4,1c-3.1,0-8.8-2.2-11.3-7c-2.7-5.3-4.4-6.4-4.9-6.6
		c-0.1,0-0.2-0.1-0.2-0.1c-1.1-0.3-2.4-1-2.7-1.3c-0.2-0.4-0.4-2.2,0.2-3.3c0.3-0.5,0.5-0.6,0.8-0.6c0.3,0,0.5-0.1,0.7-0.1
		c1.3,0,2,0.5,2.4,0.9c0.1,0.1,0.2,0.2,0.3,0.2c0.5,0.4,1.3,0.3,1.8-0.1c0.8-0.8,0.3-1.7,0.1-2.1c-1.4-2.6-1.2-3.4-1.1-3.6
		c0.1-0.2,0.5-0.4,1.1-0.4c0.1,0.1,0.2,0.3,0.3,0.4c0.8,1.9,2.4,3.6,3.6,4.5c0.6,0.4,1.4,0.3,1.9-0.2c0.5-0.5,0.5-1.4,0-1.9
		c0,0-1.6-1.8-2.9-3.6c-0.1-0.3-0.2-0.6-0.1-0.9c0-0.4,0.2-1,1.2-1.6c0.5-0.3,1.2-0.6,1.9-0.8c0.2,0.1,0.4,0.3,0.6,0.4
		c1.9,0.8,2.8,2,2.9,2.3c0.2,0.6,0.6,1.2,1.1,1.6c0.2,1.1,0.3,2.3,0.2,3.8c0,3.9,1.7,6.1,3.1,8c1.2,1.5,2.2,2.9,2.5,5.1
		C362.7,358.8,362.3,361.1,361.2,362.3z M365.4,354.2c-0.2,0.4-0.3,0.9-0.1,1.3c0,0.1,0,0.2-0.1,0.4c0-0.1,0-0.3,0-0.4
		c-0.4-3-1.8-4.8-3.1-6.4c-1.4-1.8-2.6-3.3-2.6-6.3c0-1,0-1.9-0.1-2.8c0.2,0,0.5,0,0.7-0.1c0.6-0.1,1.5-0.4,2.6-0.9
		c1.3,0.1,2.4,0.4,3.1,0.9c0.3,0.2,0.6,0.4,0.9,0.6c2.3,1.4,4.1,2.7,3.6,6l-0.2,1.2c-0.3,1.9-0.5,3.2-0.8,4.1
		c-0.6,0.1-1.2,0.4-1.5,0.9c-0.1,0.2-0.2,0.4-0.3,0.6c-0.3,0.1-0.7,0.1-1.1,0.2C366,353.6,365.6,353.8,365.4,354.2z M372.1,352.4
		c0.4-1.2,0.6-2.7,0.8-4.3l0.2-1.2c0.8-5.3-3-7.6-5-8.8c-0.3-0.2-0.5-0.3-0.8-0.5c-0.5-0.4-1.2-0.7-1.8-0.9c0.1-0.2,0.2-0.3,0.3-0.5
		l0.1-0.4c0.6-1.5,1.5-3.8,0.4-5.4c6.5-1.2,22.1-1.7,29.3-0.5c-1.5,1.6-0.6,4.1,0.1,5.7l0.1,0.4c0.1,0.4,0.4,0.7,0.7,1.1
		c-0.3,0.2-0.6,0.3-0.9,0.5c-0.2,0.1-0.5,0.3-0.8,0.5c-2,1.2-5.8,3.5-5,8.8l0.2,1.2c0.2,1.5,0.4,3,0.8,4.2
		C385.7,354.2,376,353.2,372.1,352.4z M397.7,354.2c-0.2-0.4-0.6-0.6-1.1-0.7c-0.9-0.1-1.6-0.3-2.1-0.6c-0.2-0.3-0.4-0.6-0.6-0.7
		c-0.5-0.9-0.7-2.3-1-4.5l-0.2-1.2c-0.5-3.2,1.4-4.6,3.6-6c0.3-0.2,0.7-0.4,0.9-0.6c0.5-0.4,1.4-0.7,2.4-0.8c0.8,0.4,1.5,0.6,2,0.7
		c0.3,0.1,0.6,0.1,0.9,0.1c0.4,0,0.8-0.1,1.2-0.2c-0.1,1-0.2,2-0.1,3.1c0,3-1.2,4.5-2.6,6.3c-1.3,1.6-2.7,3.5-3.1,6.4
		c0,0.1,0,0.3,0,0.4c-0.1-0.2-0.2-0.4-0.1-0.4C398,355.1,397.9,354.6,397.7,354.2z M423.3,348.3c-0.2,0.3-1.5,1-2.7,1.3
		c-0.1,0-0.2,0.1-0.2,0.1c-0.4,0.2-2.1,1.4-4.9,6.6c-2.5,4.8-8.2,7-11.3,7c-1,0-1.8-0.3-2.4-1c-1.1-1.2-1.5-3.5-1.1-6.4
		c0.3-2.2,1.3-3.6,2.5-5.1c1.5-1.9,3.1-4.1,3.1-8c0-3.2,0.4-5.5,1.3-6.9c0.4-0.3,1-0.7,1.7-1c0.2-0.1,0.4-0.2,0.5-0.3c0,0,0,0,0.1,0
		c1.2,0,2.4,0.6,3.2,1c1,0.6,1.2,1.2,1.2,1.6c0,0.3,0,0.6-0.1,0.9c-1.3,1.9-2.9,3.6-2.9,3.6c-0.5,0.5-0.5,1.4,0,1.9
		c0.5,0.5,1.3,0.6,1.9,0.2c1.2-0.9,2.8-2.5,3.6-4.5c0.1-0.1,0.2-0.3,0.3-0.4c0.7,0.1,1,0.2,1.1,0.4c0.1,0.2,0.3,1.1-1.1,3.6
		c-0.2,0.4-0.7,1.3,0.1,2.1c0.5,0.4,1.2,0.5,1.8,0.1c0.1,0,0.2-0.1,0.3-0.2c0.5-0.4,1.3-1.1,3.1-0.8c0.2,0,0.5,0.1,0.8,0.6
		C423.7,346,423.5,347.9,423.3,348.3z"/>
	<g>
		<path class="st3" d="M361.5,294.3c-0.1,0-0.2,0-0.3,0c-0.8-0.2-1.2-1-1-1.7c0.1-0.2-0.1-0.5-0.2-0.6c-0.2-0.3-0.7-0.6-1.1-0.7
			c-0.5-0.1-1-0.1-1.3,0.1c-0.1,0-0.4,0.2-0.4,0.4c-0.2,0.8-1,1.2-1.7,1c-0.8-0.2-1.2-1-1-1.7c0.3-1,1-1.9,2.1-2.3
			c0.9-0.4,2.1-0.5,3.1-0.2c1.1,0.3,2,0.9,2.7,1.7c0.7,0.9,1,2,0.7,3C362.7,293.9,362.1,294.3,361.5,294.3z"/>
	</g>
	<g>
		<path class="st3" d="M371.4,298.4c-0.2,0-0.4,0-0.6-0.1c-0.7-0.3-1-1.2-0.7-1.9c0.1-0.3-0.2-1.1-1.1-1.5c-0.4-0.2-0.9-0.3-1.3-0.2
			c-0.1,0-0.4,0.1-0.5,0.3c-0.3,0.7-1.1,1-1.9,0.7c-0.7-0.3-1-1.2-0.7-1.9c0.4-1,1.3-1.7,2.4-1.9c1-0.2,2.1-0.1,3.1,0.3
			c2.3,1,3.4,3.3,2.5,5.2C372.4,298.1,371.9,298.4,371.4,298.4z"/>
	</g>
	<g>
		<path class="st3" d="M361.1,312.9c-1.2,0-2.3-0.3-3.4-0.8c-1.7-0.8-3-2.4-3.9-4.6c-1.1-3-1.2-6.8-0.2-9c0.2-0.3,0.4-0.6,0.8-0.7
			c0.4-0.1,0.7-0.1,1.1,0l13.4,6.2c0.6,0.3,0.9,0.9,0.8,1.6c-0.6,2.7-2.5,5.2-5,6.4C363.5,312.6,362.3,312.9,361.1,312.9z
			 M355.8,301.1c-0.2,1.5,0,3.5,0.7,5.4c0.6,1.5,1.4,2.6,2.4,3c2,0.9,3.6,0.5,4.6-0.1c1.4-0.7,2.5-1.9,3.1-3.4L355.8,301.1z"/>
	</g>
	<g>
		<path class="st3" d="M369.6,274.2c-0.3,0-0.7-0.1-0.9-0.4c-0.6-0.5-0.6-1.4-0.1-2c0.4-1-1.5-7.3-3.9-9.2c-0.6-0.5-0.7-1.4-0.2-2
			c0.5-0.6,1.4-0.7,2-0.2c2.4,1.9,4.6,7.1,4.9,10.3c0.1,1.3-0.1,2.3-0.7,3C370.4,274,370,274.2,369.6,274.2z"/>
	</g>
	<g>
		<path class="st3" d="M372.5,271.7C372.5,271.7,372.5,271.7,372.5,271.7c-0.8,0-1.4-0.6-1.4-1.4c0-0.7,0.7-7.2,1.7-10.6
			c0.2-0.7,1-1.2,1.8-0.9c0.7,0.2,1.2,1,0.9,1.8c-0.9,3-1.6,9.2-1.6,9.8C373.9,271,373.3,271.7,372.5,271.7z"/>
	</g>
	<g>
		<path class="st3" d="M375.7,271.7c-0.3,0-0.6-0.1-0.8-0.3c-0.6-0.5-0.8-1.3-0.3-2c0.6-0.8,1.7-5.7,1.6-6.9
			c-0.1-0.8,0.5-1.5,1.3-1.6c0.8-0.1,1.5,0.5,1.6,1.3c0.2,1.8-1,7.4-2.1,8.9C376.6,271.5,376.1,271.7,375.7,271.7z"/>
	</g>
</g>
<g>
	<g>
		<polygon class="st5" points="557.4,113.9 555.4,114.2 556.1,115.6 557.7,115.9 556.1,117 557.9,117.9 560.3,120 560.5,123.1 
			559.8,125.2 563.7,125.9 570,125 569.6,120.4 572.1,118 573.3,117 571.7,115.6 573.6,115.2 573.8,113.7 570.6,112.8 560.4,112.9 
					"/>
	</g>
	<path class="st2" d="M552.3,99c0-4.5,2.3-11.8,8.8-12.8s17.2,3.6,17.1,12.1c-0.1,8.5-9,11.9-9.5,12.2c-0.6,0.3-12.1,2.7-16.3-4.7
		C549.6,100.5,552.3,99,552.3,99z"/>
	<g>
		<path class="st3" d="M567.7,104.9c-0.4,0-0.9-0.1-1.3-0.3c-0.3-0.1-0.5-0.5-0.3-0.8c0.1-0.3,0.5-0.5,0.8-0.3c0.5,0.2,1,0.2,1.5,0
			c0.6-0.3,1-0.9,1.1-1.6c0,0,0-0.1,0-0.1c0.2-0.6-0.2-1.1-0.5-1.3c-0.6-0.4-1.5-0.6-1.9-0.2c-0.3,0.2-0.7,0.2-0.9-0.1
			c-0.2-0.3-0.2-0.7,0.1-0.9c1-0.7,2.5-0.4,3.4,0.2c0.9,0.7,1.3,1.7,1,2.7c-0.2,1.1-0.8,2-1.8,2.4
			C568.6,104.8,568.1,104.9,567.7,104.9z"/>
	</g>
	<path class="st3" d="M584.6,120.3c-0.3-0.5-0.7-0.9-1.3-1c-0.3,0-0.6,0-0.8,0c0.1-0.5,0.2-1.1-0.1-1.5c-0.3-0.5-0.8-0.7-1.6-0.8
		c-0.1-0.4-0.4-1-1.1-1.4c-0.6-0.3-1.1-0.5-1.6-0.6c0.3-2.9-2.2-5.9-3.8-7.2c3.6-3.2,4.6-6.7,4.6-9.5c0-3.2-1.4-6.1-4.1-8.5
		c-3.7-3.2-9.3-4.9-13.8-4.2c-6.7,1-9.3,8.4-9.3,13.1c-0.7,0.7-2.3,2.7,0.2,7.5c0.5,0.9,1.1,1.6,1.8,2.3c-1.2,1.2-2.9,3.9-2.5,6.7
		c-0.3,0.1-0.7,0.3-1,0.5c-0.7,0.4-1,0.9-1.1,1.4c-0.8,0-1.3,0.3-1.6,0.8c-0.3,0.5-0.3,1-0.1,1.5c-0.2,0-0.5,0-0.8,0
		c-0.6,0.1-1,0.4-1.3,1c-0.4,0.9-0.3,2.1-0.1,2.7c0.3,0.6,1.4,1,1.8,1.2c0.1,0.1,0.7,0.7,1.6,2.4c1.4,2.6,4.4,3.8,6.2,3.8
		c0.8,0,1.5-0.3,2-0.9c0.4-0.5,0.7-1.1,0.8-1.8c0.3-0.2,1.1-0.9,1.3-1.7c0.1,0,0.3-0.1,0.4-0.1c0.9,0.3,3.4,0.8,6,0.8
		c1.8,0,3.7-0.2,4.9-0.8c0,0,0,0,0.1,0c0.2,0.1,0.4,0.2,0.6,0.2c0.2,0.8,1,1.5,1.3,1.7c0.1,0.7,0.4,1.4,0.8,1.8
		c0.5,0.6,1.2,0.9,2,0.9c1.7,0,4.8-1.2,6.2-3.8c0.9-1.8,1.5-2.3,1.6-2.4c0.4-0.1,1.5-0.5,1.9-1.2C584.9,122.5,585,121.2,584.6,120.3
		z M557.8,112.6C557.8,112.6,557.7,112.5,557.8,112.6C557.7,112.5,557.7,112.5,557.8,112.6c0-0.1,0-0.1,0-0.2c0-0.1,0.1-0.4,0.7-1.2
		c0,0,0-0.1,0.1-0.1c0.1,0,0.2,0.1,0.3,0.1c1.7,0.4,3.4,0.6,4.9,0.6c2.8,0,5-0.5,5.3-0.7c0,0,0.1-0.1,0.3-0.1c0.3-0.2,0.7-0.3,1-0.5
		c0.7,0.5,1.3,1.3,1.2,1.5c0,0.1-0.1,0.2,0,0.4C567.6,111.7,561,112,557.8,112.6z M576.1,114.9c-1,0.5-1.6,1.3-1.9,1.8
		c0,0,0,0-0.1,0c-0.3-0.1-0.9-0.4-1.1-0.6l0,0c0.3,0,0.5-0.1,0.8-0.3c0.6-0.5,0.8-1.3,0.5-2.1c0,0,0-0.1-0.1-0.1
		c0-0.1-0.1-0.2-0.1-0.2c0,0,0-0.1,0-0.1c0.3-0.2,0.5-0.4,0.5-0.8c0-0.5-0.4-1-0.9-1c-0.1,0-0.2,0-0.3,0c-0.2-0.8-0.8-1.6-1.3-2.1
		c0.2-0.2,0.5-0.3,0.7-0.5C573.6,109.7,576.3,112.5,576.1,114.9z M552.6,99.5c0.2-0.1,0.3-0.3,0.3-0.6c0-4.2,2.2-11.2,8.3-12.1
		c4-0.6,9.4,1,12.8,3.9c1.7,1.5,3.7,4,3.6,7.5c0,3.4-1.6,6.4-4.5,8.8c-0.4-0.1-0.8,0.1-1,0.5c-0.1,0.1-0.1,0.2-0.1,0.3
		c-0.4,0.2-0.7,0.5-1.1,0.7c-0.4-0.1-0.8,0-1.1,0.4c-0.1,0.1-0.1,0.2-0.1,0.3c-0.3,0.2-0.7,0.3-1,0.5c-0.2,0.1-0.3,0.1-0.3,0.2
		c-0.6,0.3-5.7,1.2-10.1-0.2c-0.1,0-0.1-0.1-0.2-0.1c-0.1,0-0.2,0-0.3-0.1c-0.8-0.3-1.5-0.7-2.2-1.1c0,0,0,0,0-0.1
		c-0.1-0.3-0.4-0.5-0.7-0.5c-0.7-0.6-1.4-1.4-1.9-2.3C550.5,100.9,552.5,99.6,552.6,99.5z M555.2,109.6c0.5,0.3,1,0.6,1.5,0.8
		c-0.3,0.4-0.5,0.8-0.6,1.2c-0.2,0-0.3,0-0.5,0c-0.5,0-0.9,0.5-0.9,1c0,0.3,0.2,0.6,0.5,0.8c-0.1,0.1-0.2,0.3-0.2,0.4
		c-0.3,0.8-0.1,1.6,0.5,2.1c0.3,0.2,0.5,0.3,0.8,0.3l0,0c-0.2,0.2-0.8,0.5-1.2,0.6c0,0,0,0-0.1,0c-0.2-0.5-0.8-1.3-1.9-1.8
		C552.6,112.4,554.6,110,555.2,109.6z M555.8,128.6c-0.3,0.3-0.6,0.5-1.1,0.5c-1.4,0-3.9-1-5-3.1c-1.2-2.3-2-2.9-2.2-3
		c0,0-0.1,0-0.1,0c-0.5-0.2-1.1-0.4-1.2-0.6c-0.1-0.2-0.2-1,0.1-1.5c0.1-0.2,0.2-0.3,0.3-0.3c0.1,0,0.2,0,0.3,0
		c0.6,0,0.9,0.2,1.1,0.4c0.1,0,0.1,0.1,0.1,0.1c0.2,0.2,0.6,0.1,0.8-0.1c0.4-0.3,0.1-0.8,0-0.9c-0.6-1.1-0.6-1.5-0.5-1.6
		c0-0.1,0.2-0.2,0.5-0.2c0,0.1,0.1,0.1,0.1,0.2c0.3,0.9,1.1,1.6,1.6,2c0.3,0.2,0.6,0.1,0.8-0.1c0.2-0.2,0.2-0.6,0-0.8
		c0,0-0.7-0.8-1.3-1.6c0-0.1-0.1-0.3-0.1-0.4c0-0.2,0.1-0.5,0.5-0.7c0.2-0.1,0.5-0.3,0.9-0.4c0.1,0.1,0.2,0.1,0.2,0.2
		c0.9,0.4,1.3,0.9,1.3,1c0.1,0.3,0.3,0.5,0.5,0.7c0.1,0.5,0.1,1,0.1,1.7c0,1.8,0.7,2.7,1.4,3.6c0.5,0.7,1,1.3,1.1,2.3
		C556.5,127,556.3,128.1,555.8,128.6z M557.7,125c-0.1,0.2-0.1,0.4,0,0.6c0,0,0,0.1-0.1,0.2c0-0.1,0-0.1,0-0.2
		c-0.2-1.3-0.8-2.2-1.4-2.9c-0.6-0.8-1.1-1.5-1.1-2.8c0-0.4,0-0.8,0-1.2c0.1,0,0.2,0,0.3,0c0.2,0,0.7-0.2,1.1-0.4
		c0.6,0,1.1,0.2,1.4,0.4c0.1,0.1,0.3,0.2,0.4,0.3c1,0.6,1.8,1.2,1.6,2.7l-0.1,0.5c-0.1,0.9-0.2,1.4-0.4,1.8c-0.3,0-0.5,0.2-0.7,0.4
		c-0.1,0.1-0.1,0.2-0.1,0.3c-0.1,0-0.3,0.1-0.5,0.1C557.9,124.7,557.8,124.8,557.7,125z M560.7,124.2c0.2-0.6,0.3-1.2,0.4-1.9
		l0.1-0.5c0.3-2.4-1.3-3.4-2.2-3.9c-0.1-0.1-0.2-0.1-0.3-0.2c-0.2-0.2-0.5-0.3-0.8-0.4c0-0.1,0.1-0.2,0.1-0.2l0.1-0.2
		c0.3-0.7,0.7-1.7,0.2-2.4c2.9-0.5,9.8-0.7,13.1-0.2c-0.7,0.7-0.2,1.8,0,2.6l0.1,0.2c0.1,0.2,0.2,0.3,0.3,0.5
		c-0.1,0.1-0.3,0.2-0.4,0.2c-0.1,0.1-0.2,0.1-0.3,0.2c-0.9,0.5-2.6,1.5-2.2,3.9l0.1,0.5c0.1,0.7,0.2,1.3,0.4,1.9
		C566.7,125,562.4,124.6,560.7,124.2z M572.1,125c-0.1-0.2-0.3-0.3-0.5-0.3c-0.4,0-0.7-0.1-0.9-0.3c-0.1-0.1-0.2-0.2-0.3-0.3
		c-0.2-0.4-0.3-1-0.4-2l-0.1-0.5c-0.2-1.4,0.6-2.1,1.6-2.7c0.2-0.1,0.3-0.2,0.4-0.3c0.2-0.2,0.6-0.3,1.1-0.4
		c0.4,0.2,0.7,0.3,0.9,0.3c0.1,0,0.3,0,0.4,0c0.2,0,0.4,0,0.5-0.1c0,0.4-0.1,0.9-0.1,1.4c0,1.3-0.5,2-1.1,2.8
		c-0.6,0.7-1.2,1.5-1.4,2.9c0,0.1,0,0.1,0,0.2c0-0.1-0.1-0.2-0.1-0.2C572.2,125.4,572.2,125.2,572.1,125z M583.5,122.3
		c-0.1,0.2-0.7,0.4-1.2,0.6c0,0-0.1,0-0.1,0c-0.2,0.1-0.9,0.6-2.2,3c-1.1,2.1-3.7,3.1-5,3.1c-0.4,0-0.8-0.2-1.1-0.5
		c-0.5-0.6-0.7-1.6-0.5-2.9c0.1-1,0.6-1.6,1.1-2.3c0.7-0.9,1.4-1.8,1.4-3.6c0-1.4,0.2-2.5,0.6-3.1c0.2-0.1,0.4-0.3,0.8-0.4
		c0.1,0,0.2-0.1,0.2-0.2c0,0,0,0,0,0c0.5,0,1.1,0.3,1.4,0.5c0.5,0.3,0.5,0.5,0.5,0.7c0,0.1,0,0.3-0.1,0.4c-0.6,0.8-1.3,1.6-1.3,1.6
		c-0.2,0.2-0.2,0.6,0,0.8c0.2,0.2,0.6,0.3,0.8,0.1c0.5-0.4,1.3-1.1,1.6-2c0-0.1,0.1-0.1,0.1-0.2c0.3,0,0.5,0.1,0.5,0.2
		c0.1,0.1,0.1,0.5-0.5,1.6c-0.1,0.2-0.3,0.6,0,0.9c0.2,0.2,0.5,0.2,0.8,0.1c0,0,0.1-0.1,0.1-0.1c0.2-0.2,0.6-0.5,1.4-0.4
		c0.1,0,0.2,0.1,0.3,0.3C583.7,121.4,583.6,122.2,583.5,122.3z"/>
	<g>
		<path class="st3" d="M555.9,98.3c-0.1,0-0.1,0-0.2,0c-0.3-0.1-0.5-0.4-0.5-0.8c0-0.1-0.1-0.2-0.1-0.3c-0.1-0.1-0.3-0.3-0.5-0.3
			c-0.2-0.1-0.4,0-0.6,0c-0.1,0-0.2,0.1-0.2,0.2c-0.1,0.3-0.4,0.5-0.8,0.5c-0.3-0.1-0.5-0.4-0.5-0.8c0.1-0.5,0.5-0.8,0.9-1
			c0.4-0.2,0.9-0.2,1.4-0.1c0.5,0.1,0.9,0.4,1.2,0.7c0.3,0.4,0.4,0.9,0.3,1.4C556.4,98.1,556.2,98.3,555.9,98.3z"/>
	</g>
	<g>
		<path class="st3" d="M560.3,100.1c-0.1,0-0.2,0-0.3-0.1c-0.3-0.1-0.5-0.5-0.3-0.8c0.1-0.1-0.1-0.5-0.5-0.7
			c-0.2-0.1-0.4-0.1-0.6-0.1c-0.1,0-0.2,0.1-0.2,0.2c-0.1,0.3-0.5,0.5-0.8,0.3c-0.3-0.1-0.5-0.5-0.3-0.8c0.2-0.4,0.6-0.7,1.1-0.9
			c0.4-0.1,0.9-0.1,1.4,0.1c1,0.4,1.5,1.5,1.1,2.3C560.8,100,560.6,100.1,560.3,100.1z"/>
	</g>
	<g>
		<path class="st3" d="M555.7,106.5c-0.5,0-1-0.1-1.5-0.3c-0.7-0.3-1.3-1.1-1.7-2.1c-0.5-1.4-0.5-3-0.1-4c0.1-0.2,0.2-0.3,0.4-0.3
			c0.2-0.1,0.3-0.1,0.5,0l6,2.8c0.3,0.1,0.4,0.4,0.4,0.7c-0.3,1.2-1.1,2.3-2.2,2.9C556.8,106.4,556.3,106.5,555.7,106.5z
			 M553.3,101.3c-0.1,0.7,0,1.6,0.3,2.4c0.3,0.7,0.6,1.2,1.1,1.4c0.9,0.4,1.6,0.2,2.1,0c0.6-0.3,1.1-0.9,1.4-1.5L553.3,101.3z"/>
	</g>
	<g>
		<path class="st3" d="M559.6,89.3c-0.1,0-0.3-0.1-0.4-0.2c-0.3-0.2-0.3-0.6-0.1-0.9c0.2-0.5-0.7-3.3-1.7-4.1
			c-0.3-0.2-0.3-0.6-0.1-0.9c0.2-0.3,0.6-0.3,0.9-0.1c1.1,0.9,2.1,3.2,2.2,4.6c0.1,0.6,0,1-0.3,1.3
			C559.9,89.2,559.7,89.3,559.6,89.3z"/>
	</g>
	<g>
		<path class="st3" d="M560.8,88.2C560.8,88.2,560.8,88.2,560.8,88.2c-0.4,0-0.6-0.3-0.6-0.6c0-0.3,0.3-3.2,0.8-4.7
			c0.1-0.3,0.5-0.5,0.8-0.4c0.3,0.1,0.5,0.5,0.4,0.8c-0.4,1.3-0.7,4.1-0.7,4.4C561.5,87.9,561.2,88.2,560.8,88.2z"/>
	</g>
	<g>
		<path class="st3" d="M562.2,88.2c-0.1,0-0.3,0-0.4-0.1c-0.3-0.2-0.3-0.6-0.1-0.9c0.3-0.4,0.8-2.5,0.7-3.1c0-0.3,0.2-0.7,0.6-0.7
			c0.3,0,0.7,0.2,0.7,0.6c0.1,0.8-0.5,3.3-0.9,4C562.6,88.1,562.4,88.2,562.2,88.2z"/>
	</g>
</g>
</svg>
