<?xml version="1.0" encoding="utf-8"?>
<!-- Generator: Adobe Illustrator 19.2.0, SVG Export Plug-In . SVG Version: 6.00 Build 0)  -->
<svg version="1.1" id="Layer_1" xmlns="http://www.w3.org/2000/svg" xmlns:xlink="http://www.w3.org/1999/xlink" x="0px" y="0px"
	 viewBox="0 0 900 500" style="enable-background:new 0 0 900 500;" xml:space="preserve">
<style type="text/css">
	.st0{fill:#BDDFF4;}
	.st1{fill:none;stroke:#456CB2;stroke-width:5;stroke-miterlimit:10;}
	.st2{fill:#FFFFFF;stroke:#456CB2;stroke-width:5;stroke-miterlimit:10;}
	.st3{opacity:0.5;fill:#446DB2;}
	.st4{fill:#456CB2;}
	.st5{fill:#446DB2;}
	.st6{opacity:0.5;}
</style>
<ellipse class="st0" cx="308.5" cy="321.9" rx="7.5" ry="78.6"/>
<ellipse class="st0" cx="142.3" cy="318.7" rx="7.5" ry="78.3"/>
<path class="st1" d="M307.1,406.5H143.3c0,0-56.4-232,86.3-232.2C359.9,174,307.1,406.5,307.1,406.5z"/>
<ellipse class="st2" cx="225.3" cy="268.3" rx="67" ry="53.2"/>
<ellipse class="st1" cx="206.6" cy="262.1" rx="9.8" ry="9.5"/>
<ellipse class="st1" cx="246.3" cy="262.1" rx="9.8" ry="9.5"/>
<line class="st1" x1="231.9" y1="174.3" x2="231.9" y2="160.4"/>
<path class="st3" d="M216.2,153v7.4c5.4-0.8,11.2-1.3,17.4-1.3c7.6,0,13.7,0.6,16.8,1v-7.1c-5.8-2.1-11.7-3.1-17.6-3.1
	C224.5,150,218.5,152.1,216.2,153z"/>
<path class="st4" d="M205.8,134.2c3.6,4.3,7,12.2,8.3,15.7c-0.4,0.2-0.6,0.3-0.6,0.3c-0.6,0.3-1,1-1,1.6v10.8c0,0.5,0.2,1.1,0.7,1.4
	c0.3,0.3,0.8,0.4,1.2,0.4c0.1,0,0.2,0,0.3,0c5.7-1,12.1-1.6,18.9-1.6c10.4,0,18.3,1.2,18.4,1.3c0.5,0.1,1.1-0.1,1.5-0.4
	c0.4-0.4,0.7-0.9,0.7-1.4v-10.5c0-0.8-0.5-1.5-1.2-1.7c-0.6-0.2-1.2-0.4-1.8-0.7c0.2-0.8,0.4-2,0.7-3.4c1.3-6.1,3.5-16.3,3.5-21
	V80.3c0-3.5-0.7-6.4-2.1-8.5c-1.3-2-3.3-3.2-5.4-3.2c-1,0-2.1,0.3-3,0.9c-0.3-1.3-0.8-2.4-1.5-3.2c-1.1-1.5-2.8-2.3-4.6-2.3
	c-1.2,0-2.4,0.4-3.5,1.1v-4.2c0-3.2-1.2-5-2.2-6c-1.3-1.3-3-2-5-2c-3.7,0-7.7,2.7-7.7,7.1v5.6c-1-0.6-2.2-0.8-3.3-0.8
	c-2.1,0-4,0.8-5.4,2.4c-1.1,1.2-2.4,3.3-2.4,6.8v38.5c-7-6.8-12.7-6.9-15.6-6.3c-3.1,0.6-5.6,2.7-6.4,5.2c-0.5,1.7-0.1,3.2,1,4.3
	C191.8,118.9,200.9,128.4,205.8,134.2z M250.4,160.2c-3.1-0.4-9.2-1-16.8-1c-6.2,0-12,0.4-17.4,1.3V153c2.3-0.9,8.3-3.1,16.7-3.1
	c5.9,0,11.8,1.1,17.6,3.1V160.2z M190.9,112.2c0.3-1,1.6-2.2,3.6-2.7c2.1-0.4,7.7-0.4,15.3,8.6c0.5,0.6,1.3,0.8,2,0.5
	c0.7-0.3,1.2-1,1.2-1.7V73.8c0-1.8,0.5-3.3,1.4-4.3c0.7-0.8,1.7-1.2,2.7-1.2c1.7,0,3.3,1.1,3.3,3.6v32.4c0,1,0.8,1.9,1.9,1.9
	c1,0,1.9-0.8,1.9-1.9V72v-12c0-2.1,2.1-3.4,4-3.4c0.7,0,1.6,0.2,2.3,0.9c0.7,0.7,1.1,1.9,1.1,3.4V104c0,1,0.8,1.9,1.9,1.9
	c1,0,1.9-0.8,1.9-1.9V72.7c0-0.4,0-0.7,0-1.1c0-2.4,1.9-3.9,3.5-3.9c0.7,0,1.2,0.3,1.7,0.9c0.5,0.6,1,1.8,1,4v1.9
	c-0.1,0.9,0,1.5,0,2.5c0,0.4,0.1,0.7,0,1.2v26.1c0,1,0.8,1.9,1.9,1.9c1,0,1.9-0.8,1.9-1.9V75c0.5-1.7,1.6-2.6,2.7-2.6
	c0.8,0,1.7,0.5,2.3,1.5c0.7,1,1.5,2.9,1.5,6.4V125c0,4.3-2.2,14.7-3.4,20.3c-0.3,1.2-0.5,2.3-0.7,3.1c-4.9-1.4-9.8-2-14.7-2
	c-6.6,0-11.9,1.2-15.2,2.3c-1.4-3.6-4.9-12-8.9-16.8c-5-5.9-14.2-15.5-17.7-18.9C190.8,112.7,190.9,112.4,190.9,112.2z"/>
<g>
	<path class="st0" d="M167.9,249.5c-1.4,5.6-5.6,45.9,23.7,46.3s29.3-35.2,30.4-43.8C213.3,243.3,169.3,243.9,167.9,249.5z"/>
	<path class="st0" d="M228.9,252.6c-1.2,5.7-3.6,46.1,25.7,45.2c29.3-0.8,27.8-36.5,28.5-45.1C274.1,244.4,230.1,246.9,228.9,252.6z
		"/>
	<path class="st0" d="M219,263.3l-1.3-4.3c2.5-3.9,8.4-3.7,11.7-2.4c2.5,1,3.1,2.5,3.4,3.6l-2.2,2.9c0,0.1,0.1,0.2,0.1,0.2
		C229.5,261.2,221.2,259.7,219,263.3z"/>
</g>
<g>
	<path class="st5" d="M377.2,183.7h-10.9v41.7h-10.1v-41.7h-10.9v-8.3h31.9V183.7z"/>
	<path class="st5" d="M391.6,175.5v19.1h11.8v-19.1h10.1v50h-10.1v-22.2h-11.8v22.2h-10.1v-50H391.6z"/>
	<path class="st5" d="M448.4,183.7h-17.8v11.8h16.8v8.3h-16.8v13.4h18.6v8.3h-28.6v-50h27.9V183.7z"/>
	<path class="st5" d="M478,209.7h0.1v-34.2h9.2v50h-11.5l-12.3-35h-0.1v35h-9.2v-50h11.6L478,209.7z"/>
	<path class="st5" d="M528,175.5c2.1,0,4,0.2,5.7,0.6s3.3,1.1,4.5,2.1s2.2,2.3,2.9,3.9c0.7,1.6,1,3.6,1,6c0,2.7-0.6,5-1.9,7
		c-1.3,1.9-3.2,3.3-5.7,4v0.1c2.8,0.4,5,1.6,6.7,3.6c1.6,2,2.5,4.7,2.5,8.1c0,2-0.3,3.8-0.8,5.6c-0.5,1.8-1.4,3.3-2.6,4.7
		s-2.8,2.4-4.8,3.2c-2,0.8-4.4,1.2-7.4,1.2h-17v-50H528z M524.1,196c2.8,0,4.8-0.5,6.1-1.5c1.3-1,1.9-2.7,1.9-5.1
		c0-2.4-0.6-4.1-1.8-5c-1.2-1-3-1.5-5.5-1.5h-3.6V196H524.1z M525.1,218c2.4,0,4.4-0.5,5.9-1.6c1.5-1.1,2.2-3.1,2.2-6
		c0-1.4-0.2-2.6-0.6-3.6c-0.4-1-0.9-1.7-1.6-2.3c-0.7-0.6-1.5-1-2.4-1.2c-0.9-0.2-2-0.4-3.1-0.4h-4.3V218H525.1z"/>
	<path class="st5" d="M578,183.7h-17.8v11.8h16.8v8.3h-16.8v13.4h18.5v8.3h-28.6v-50H578V183.7z"/>
	<path class="st5" d="M628.5,175.5v8.3h-17.8v11.8h16.8v8.3h-16.8v21.7h-10.1v-50H628.5z"/>
	<path class="st5" d="M651.3,175.5l13.2,50h-10.5l-2.3-10.6h-13.3l-2.3,10.6h-10.5l13.2-50H651.3z M650,206.6l-4.8-22.5H645
		l-4.8,22.5H650z"/>
	<path class="st5" d="M691.9,209.7h0.1v-34.2h9.2v50h-11.5l-12.3-35h-0.1v35h-9.2v-50h11.6L691.9,209.7z"/>
	<path class="st5" d="M728.3,184.4c-0.9-1.7-2.4-2.5-4.7-2.5c-1.3,0-2.3,0.3-3.1,1c-0.8,0.7-1.5,1.8-1.9,3.3c-0.5,1.5-0.8,3.5-1,5.9
		c-0.2,2.5-0.3,5.4-0.3,9c0,3.8,0.1,6.8,0.4,9.2c0.3,2.3,0.7,4.1,1.2,5.4c0.5,1.3,1.2,2.1,2,2.6c0.8,0.4,1.8,0.7,2.8,0.7
		c0.9,0,1.7-0.2,2.5-0.5c0.8-0.3,1.4-0.9,2-1.8c0.6-0.9,1-2.2,1.3-3.9c0.3-1.7,0.5-3.8,0.5-6.5h10.1c0,2.7-0.2,5.3-0.6,7.7
		c-0.4,2.4-1.2,4.6-2.3,6.4c-1.1,1.8-2.8,3.2-4.8,4.3c-2.1,1-4.8,1.5-8.1,1.5c-3.8,0-6.8-0.6-9-1.8c-2.2-1.2-4-3-5.1-5.2
		c-1.2-2.3-2-5-2.3-8.2c-0.3-3.2-0.5-6.7-0.5-10.5c0-3.8,0.2-7.3,0.5-10.5c0.4-3.2,1.1-5.9,2.3-8.2c1.2-2.3,2.9-4.1,5.1-5.4
		c2.2-1.3,5.2-1.9,9-1.9c3.6,0,6.4,0.6,8.5,1.8c2.1,1.2,3.6,2.6,4.7,4.4c1,1.8,1.7,3.7,1.9,5.8c0.3,2.1,0.4,4,0.4,5.8h-10.1
		C729.6,188.7,729.2,186.1,728.3,184.4z"/>
	<path class="st5" d="M760.5,194.8h0.1l7-19.3h10.9l-13,30.3v19.7h-10.1v-19.7l-13-30.3h11.3L760.5,194.8z"/>
</g>
<g class="st6">
	<g>
		<path class="st5" d="M366.4,283.3l12.2,46.1H369l-2.1-9.8h-12.3l-2.1,9.8h-9.7l12.2-46.1H366.4z M365.2,312.1l-4.5-20.7h-0.1
			l-4.5,20.7H365.2z"/>
		<path class="st5" d="M403.8,314.9h0.1v-31.6h8.5v46.1h-10.6l-11.4-32.3h-0.1v32.3h-8.5v-46.1h10.7L403.8,314.9z"/>
		<path class="st5" d="M434.6,283.3c3.2,0,5.8,0.5,7.8,1.6s3.5,2.6,4.6,4.5c1.1,2,1.8,4.3,2.2,7.1c0.4,2.8,0.6,5.8,0.6,9.2
			c0,4-0.2,7.6-0.7,10.6c-0.5,3-1.3,5.5-2.6,7.4c-1.2,1.9-2.8,3.4-4.8,4.3c-2,0.9-4.6,1.4-7.7,1.4h-14.7v-46.1H434.6z M432.8,322.6
			c1.6,0,2.9-0.3,3.9-0.8c1-0.6,1.8-1.5,2.4-2.8c0.6-1.3,1-3,1.2-5.1c0.2-2.1,0.3-4.7,0.3-7.9c0-2.6-0.1-4.9-0.3-6.9
			c-0.2-2-0.5-3.6-1.1-4.9c-0.5-1.3-1.3-2.3-2.4-3c-1.1-0.7-2.5-1-4.2-1h-3.9v32.4H432.8z"/>
		<path class="st5" d="M471.9,283.3h9.3v46.1h-9.3V283.3z"/>
		<path class="st5" d="M510.1,314.9h0.1v-31.6h8.5v46.1h-10.6l-11.4-32.3h-0.1v32.3h-8.5v-46.1h10.7L510.1,314.9z"/>
		<path class="st5" d="M538.6,317.4h0.2l6.8-34.1h9.6l-10.6,46.1h-11.9l-10.6-46.1h9.9L538.6,317.4z"/>
		<path class="st5" d="M584.5,290.9H568v10.8h15.5v7.6H568v12.4h17.1v7.6h-26.4v-46.1h25.8V290.9z"/>
		<path class="st5" d="M597.3,316.4c0,1.1,0.1,2.1,0.3,2.9c0.2,0.9,0.5,1.6,1,2.2c0.5,0.6,1.1,1.1,1.9,1.4c0.8,0.3,1.8,0.5,3,0.5
			c1.4,0,2.7-0.5,3.8-1.4c1.1-0.9,1.7-2.4,1.7-4.3c0-1-0.1-1.9-0.4-2.7c-0.3-0.8-0.7-1.4-1.4-2c-0.6-0.6-1.5-1.2-2.6-1.6
			c-1.1-0.5-2.4-1-3.9-1.5c-2.1-0.7-3.9-1.4-5.4-2.3c-1.5-0.8-2.8-1.8-3.8-2.9c-1-1.1-1.8-2.4-2.2-3.8c-0.5-1.4-0.7-3.1-0.7-5
			c0-4.6,1.3-8,3.8-10.2c2.5-2.2,6-3.4,10.5-3.4c2.1,0,4,0.2,5.7,0.7c1.7,0.5,3.2,1.2,4.5,2.2c1.3,1,2.3,2.3,3,3.9
			c0.7,1.6,1.1,3.5,1.1,5.6v1.3h-8.9c0-2.2-0.4-3.9-1.2-5.1c-0.8-1.2-2.1-1.8-3.9-1.8c-1,0-1.9,0.2-2.6,0.5
			c-0.7,0.3-1.2,0.7-1.6,1.2c-0.4,0.5-0.7,1.1-0.8,1.7c-0.2,0.6-0.2,1.3-0.2,2c0,1.4,0.3,2.6,0.9,3.6c0.6,1,1.9,1.9,3.9,2.7l7.2,3.1
			c1.8,0.8,3.2,1.6,4.3,2.4c1.1,0.8,2,1.7,2.7,2.7c0.7,1,1.1,2,1.4,3.2c0.3,1.2,0.4,2.5,0.4,3.9c0,4.9-1.4,8.4-4.2,10.6
			c-2.8,2.2-6.7,3.3-11.8,3.3c-5.3,0-9-1.1-11.3-3.4c-2.3-2.3-3.4-5.6-3.4-9.8V315h9.3V316.4z"/>
		<path class="st5" d="M650.3,290.9h-10.1v38.5h-9.3v-38.5h-10.1v-7.6h29.4V290.9z"/>
		<path class="st5" d="M670.2,283.3h9.3v46.1h-9.3V283.3z"/>
		<path class="st5" d="M708.4,314.9h0.1v-31.6h8.5v46.1h-10.6l-11.4-32.3H695v32.3h-8.5v-46.1h10.7L708.4,314.9z"/>
	</g>
</g>
<g class="st6">
	<path class="st5" d="M355.4,332c2,0,3.5,0.5,4.6,1.5c1.1,1,1.6,2.5,1.6,4.5c0,1.6-0.3,2.8-0.9,3.8c-0.6,1-1.6,1.6-2.9,1.9v0.1
		c1.2,0.2,2,0.6,2.6,1.1c0.5,0.6,0.9,1.5,1,2.8c0,0.4,0.1,0.9,0.1,1.4c0,0.5,0,1.1,0.1,1.7c0,1.2,0.1,2.2,0.2,2.8
		c0.1,0.7,0.4,1.1,0.8,1.3v0.2h-5.1c-0.2-0.3-0.4-0.7-0.5-1.1c-0.1-0.4-0.1-0.9-0.1-1.3l-0.1-4.5c0-0.9-0.3-1.6-0.7-2.2
		c-0.4-0.5-1.1-0.8-2.1-0.8h-2.5v9.9h-4.7V332H355.4z M353.4,342.2c1.1,0,2-0.3,2.6-0.8c0.6-0.5,0.9-1.4,0.9-2.7
		c0-2.2-1.1-3.2-3.3-3.2h-2.2v6.7H353.4z"/>
	<path class="st5" d="M377.9,335.9h-8.3v5.5h7.8v3.8h-7.8v6.3h8.6v3.8h-13.3V332h13V335.9z"/>
	<path class="st5" d="M390.9,332l6.2,23.3h-4.9l-1.1-4.9h-6.2l-1.1,4.9h-4.9l6.2-23.3H390.9z M390.2,346.5l-2.3-10.5h-0.1l-2.3,10.5
		H390.2z"/>
	<path class="st5" d="M398.7,332h4.7v19.4h8.3v3.8h-13V332z"/>
	<path class="st5" d="M430.7,332l6.2,23.3H432l-1.1-4.9h-6.2l-1.1,4.9h-4.9l6.2-23.3H430.7z M430.1,346.5l-2.3-10.5h-0.1l-2.3,10.5
		H430.1z"/>
	<path class="st5" d="M449.6,348L449.6,348l0.1-16h4.3v23.3h-5.4l-5.7-16.3h-0.1v16.3h-4.3V332h5.4L449.6,348z"/>
	<path class="st5" d="M465.2,332c1.6,0,2.9,0.3,3.9,0.8c1,0.5,1.8,1.3,2.3,2.3s0.9,2.2,1.1,3.6c0.2,1.4,0.3,2.9,0.3,4.7
		c0,2-0.1,3.8-0.4,5.3c-0.3,1.5-0.7,2.8-1.3,3.7c-0.6,1-1.4,1.7-2.4,2.2c-1,0.5-2.3,0.7-3.9,0.7h-7.4V332H465.2z M464.3,351.9
		c0.8,0,1.5-0.1,2-0.4c0.5-0.3,0.9-0.8,1.2-1.4c0.3-0.7,0.5-1.5,0.6-2.6c0.1-1.1,0.1-2.4,0.1-4c0-1.3,0-2.5-0.1-3.5
		c-0.1-1-0.3-1.8-0.5-2.5c-0.3-0.7-0.7-1.2-1.2-1.5c-0.5-0.3-1.2-0.5-2.1-0.5h-2v16.4H464.3z"/>
	<path class="st5" d="M489.4,349.3L489.4,349.3l3.6-17.2h4.9l-5.4,23.3h-6l-5.4-23.3h5L489.4,349.3z"/>
	<path class="st5" d="M499.8,332h4.7v23.3h-4.7V332z"/>
	<path class="st5" d="M516.6,332c2,0,3.5,0.5,4.6,1.5c1.1,1,1.6,2.5,1.6,4.5c0,1.6-0.3,2.8-0.9,3.8c-0.6,1-1.6,1.6-2.9,1.9v0.1
		c1.2,0.2,2,0.6,2.6,1.1c0.5,0.6,0.9,1.5,1,2.8c0,0.4,0.1,0.9,0.1,1.4s0,1.1,0.1,1.7c0,1.2,0.1,2.2,0.2,2.8c0.1,0.7,0.4,1.1,0.8,1.3
		v0.2h-5.1c-0.2-0.3-0.4-0.7-0.5-1.1c-0.1-0.4-0.1-0.9-0.1-1.3l-0.1-4.5c0-0.9-0.3-1.6-0.7-2.2c-0.4-0.5-1.1-0.8-2.1-0.8h-2.5v9.9
		H508V332H516.6z M514.6,342.2c1.1,0,2-0.3,2.6-0.8c0.6-0.5,0.9-1.4,0.9-2.7c0-2.2-1.1-3.2-3.3-3.2h-2.2v6.7H514.6z"/>
	<path class="st5" d="M539.1,335.9h-5.1v19.4h-4.7v-19.4h-5.1V332h14.9V335.9z"/>
	<path class="st5" d="M545.6,348.3c0,0.6,0,1.1,0.1,1.6s0.2,0.9,0.4,1.3c0.2,0.4,0.5,0.6,0.8,0.8c0.4,0.2,0.8,0.3,1.4,0.3
		c0.6,0,1-0.1,1.4-0.3c0.3-0.2,0.6-0.5,0.8-0.8c0.2-0.4,0.3-0.8,0.4-1.3s0.1-1,0.1-1.6V332h4.7v16.2c0,1.5-0.2,2.7-0.6,3.7
		c-0.4,1-1,1.7-1.7,2.3s-1.5,0.9-2.4,1.1c-0.9,0.2-1.8,0.3-2.8,0.3s-1.9-0.1-2.8-0.3c-0.9-0.2-1.7-0.5-2.4-1.1
		c-0.7-0.5-1.3-1.3-1.7-2.3s-0.6-2.3-0.6-3.8V332h4.7V348.3z"/>
	<path class="st5" d="M569.1,332l6.2,23.3h-4.9l-1.1-4.9h-6.2l-1.1,4.9h-4.9l6.2-23.3H569.1z M568.4,346.5l-2.3-10.5h-0.1l-2.3,10.5
		H568.4z"/>
	<path class="st5" d="M576.9,332h4.7v19.4h8.3v3.8h-13V332z"/>
	<path class="st5" d="M608,332c1.2,0,2.2,0.2,3,0.6s1.5,0.9,2,1.6c0.5,0.7,0.9,1.4,1.1,2.2c0.2,0.8,0.3,1.7,0.3,2.6
		c0,1.2-0.2,2.2-0.5,3.1c-0.4,0.9-0.9,1.6-1.5,2.2s-1.4,1-2.3,1.3c-0.9,0.3-1.9,0.4-3,0.4h-2.5v9.3h-4.7V332H608z M606.6,342.6
		c0.9,0,1.7-0.3,2.3-0.8c0.6-0.6,0.9-1.4,0.9-2.6c0-1.2-0.2-2.1-0.8-2.7c-0.5-0.6-1.3-0.9-2.5-0.9h-2v7.1H606.6z"/>
	<path class="st5" d="M616.5,338.8c0.2-1.5,0.5-2.8,1.1-3.8c0.6-1.1,1.4-1.9,2.4-2.5c1-0.6,2.4-0.9,4.2-0.9s3.2,0.3,4.2,0.9
		c1,0.6,1.8,1.4,2.4,2.5c0.6,1.1,0.9,2.3,1.1,3.8s0.2,3.1,0.2,4.9c0,1.8-0.1,3.4-0.2,4.9c-0.2,1.5-0.5,2.8-1.1,3.8
		c-0.6,1.1-1.4,1.9-2.4,2.4s-2.4,0.8-4.2,0.8s-3.2-0.3-4.2-0.8s-1.8-1.4-2.4-2.4c-0.6-1.1-0.9-2.3-1.1-3.8c-0.2-1.5-0.2-3.1-0.2-4.9
		C616.2,341.9,616.3,340.3,616.5,338.8z M621,347.7c0.1,1.1,0.2,2,0.5,2.7c0.2,0.7,0.6,1.2,1,1.5c0.4,0.3,1,0.5,1.7,0.5
		c0.7,0,1.3-0.2,1.7-0.5c0.4-0.3,0.8-0.8,1-1.5c0.2-0.7,0.4-1.6,0.5-2.7c0.1-1.1,0.1-2.4,0.1-4c0-1.6,0-2.9-0.1-4
		c-0.1-1.1-0.2-2-0.5-2.7c-0.2-0.7-0.6-1.2-1-1.5c-0.4-0.3-1-0.5-1.7-0.5c-0.7,0-1.3,0.2-1.7,0.5c-0.4,0.3-0.8,0.8-1,1.5
		c-0.2,0.7-0.4,1.6-0.5,2.7c-0.1,1.1-0.1,2.4-0.1,4C620.9,345.2,621,346.6,621,347.7z"/>
	<path class="st5" d="M643.5,332c2,0,3.5,0.5,4.6,1.5c1.1,1,1.6,2.5,1.6,4.5c0,1.6-0.3,2.8-0.9,3.8c-0.6,1-1.6,1.6-2.9,1.9v0.1
		c1.2,0.2,2,0.6,2.6,1.1c0.5,0.6,0.9,1.5,1,2.8c0,0.4,0.1,0.9,0.1,1.4s0,1.1,0.1,1.7c0,1.2,0.1,2.2,0.2,2.8c0.1,0.7,0.4,1.1,0.8,1.3
		v0.2h-5.1c-0.2-0.3-0.4-0.7-0.5-1.1c-0.1-0.4-0.1-0.9-0.1-1.3l-0.1-4.5c0-0.9-0.3-1.6-0.7-2.2c-0.4-0.5-1.1-0.8-2.1-0.8h-2.5v9.9
		h-4.7V332H643.5z M641.5,342.2c1.1,0,2-0.3,2.6-0.8c0.6-0.5,0.9-1.4,0.9-2.7c0-2.2-1.1-3.2-3.3-3.2h-2.2v6.7H641.5z"/>
	<path class="st5" d="M666,335.9H661v19.4h-4.7v-19.4h-5.1V332H666V335.9z"/>
	<path class="st5" d="M681.1,332v3.8h-8.3v5.5h7.8v3.8h-7.8v10.1h-4.7V332H681.1z"/>
	<path class="st5" d="M682.9,338.8c0.2-1.5,0.5-2.8,1.1-3.8c0.6-1.1,1.4-1.9,2.4-2.5c1-0.6,2.4-0.9,4.2-0.9s3.2,0.3,4.2,0.9
		c1,0.6,1.8,1.4,2.4,2.5c0.6,1.1,0.9,2.3,1.1,3.8s0.2,3.1,0.2,4.9c0,1.8-0.1,3.4-0.2,4.9c-0.2,1.5-0.5,2.8-1.1,3.8
		c-0.6,1.1-1.4,1.9-2.4,2.4s-2.4,0.8-4.2,0.8s-3.2-0.3-4.2-0.8s-1.8-1.4-2.4-2.4c-0.6-1.1-0.9-2.3-1.1-3.8c-0.2-1.5-0.2-3.1-0.2-4.9
		C682.7,341.9,682.8,340.3,682.9,338.8z M687.5,347.7c0.1,1.1,0.2,2,0.5,2.7c0.2,0.7,0.6,1.2,1,1.5c0.4,0.3,1,0.5,1.7,0.5
		c0.7,0,1.3-0.2,1.7-0.5c0.4-0.3,0.8-0.8,1-1.5c0.2-0.7,0.4-1.6,0.5-2.7c0.1-1.1,0.1-2.4,0.1-4c0-1.6,0-2.9-0.1-4
		c-0.1-1.1-0.2-2-0.5-2.7c-0.2-0.7-0.6-1.2-1-1.5c-0.4-0.3-1-0.5-1.7-0.5c-0.7,0-1.3,0.2-1.7,0.5c-0.4,0.3-0.8,0.8-1,1.5
		c-0.2,0.7-0.4,1.6-0.5,2.7c-0.1,1.1-0.1,2.4-0.1,4C687.4,345.2,687.4,346.6,687.5,347.7z"/>
	<path class="st5" d="M701.3,332h4.7v19.4h8.3v3.8h-13V332z"/>
	<path class="st5" d="M716.6,332h4.7v23.3h-4.7V332z"/>
	<path class="st5" d="M724.6,338.8c0.2-1.5,0.5-2.8,1.1-3.8c0.6-1.1,1.4-1.9,2.4-2.5c1-0.6,2.4-0.9,4.2-0.9s3.2,0.3,4.2,0.9
		c1,0.6,1.8,1.4,2.4,2.5c0.6,1.1,0.9,2.3,1.1,3.8s0.2,3.1,0.2,4.9c0,1.8-0.1,3.4-0.2,4.9c-0.2,1.5-0.5,2.8-1.1,3.8
		c-0.6,1.1-1.4,1.9-2.4,2.4s-2.4,0.8-4.2,0.8s-3.2-0.3-4.2-0.8s-1.8-1.4-2.4-2.4c-0.6-1.1-0.9-2.3-1.1-3.8c-0.2-1.5-0.2-3.1-0.2-4.9
		C724.3,341.9,724.4,340.3,724.6,338.8z M729.2,347.7c0.1,1.1,0.2,2,0.5,2.7c0.2,0.7,0.6,1.2,1,1.5c0.4,0.3,1,0.5,1.7,0.5
		c0.7,0,1.3-0.2,1.7-0.5c0.4-0.3,0.8-0.8,1-1.5c0.2-0.7,0.4-1.6,0.5-2.7c0.1-1.1,0.1-2.4,0.1-4c0-1.6,0-2.9-0.1-4
		c-0.1-1.1-0.2-2-0.5-2.7c-0.2-0.7-0.6-1.2-1-1.5c-0.4-0.3-1-0.5-1.7-0.5c-0.7,0-1.3,0.2-1.7,0.5c-0.4,0.3-0.8,0.8-1,1.5
		c-0.2,0.7-0.4,1.6-0.5,2.7c-0.1,1.1-0.1,2.4-0.1,4C729,345.2,729.1,346.6,729.2,347.7z"/>
	<path class="st5" d="M746.8,348.7c0,0.5,0,1,0.1,1.5c0.1,0.4,0.2,0.8,0.5,1.1c0.2,0.3,0.6,0.5,1,0.7c0.4,0.2,0.9,0.3,1.5,0.3
		c0.7,0,1.4-0.2,1.9-0.7c0.6-0.5,0.9-1.2,0.9-2.2c0-0.5-0.1-1-0.2-1.4c-0.1-0.4-0.4-0.7-0.7-1c-0.3-0.3-0.8-0.6-1.3-0.8
		c-0.5-0.2-1.2-0.5-2-0.8c-1-0.3-1.9-0.7-2.7-1.1s-1.4-0.9-1.9-1.5c-0.5-0.6-0.9-1.2-1.1-1.9s-0.4-1.6-0.4-2.5c0-2.3,0.6-4,1.9-5.2
		c1.3-1.1,3-1.7,5.3-1.7c1,0,2,0.1,2.9,0.3s1.6,0.6,2.3,1.1c0.6,0.5,1.1,1.2,1.5,2c0.4,0.8,0.5,1.7,0.5,2.9v0.7h-4.5
		c0-1.1-0.2-2-0.6-2.6c-0.4-0.6-1-0.9-2-0.9c-0.5,0-1,0.1-1.3,0.2c-0.3,0.2-0.6,0.4-0.8,0.6c-0.2,0.2-0.3,0.5-0.4,0.9
		s-0.1,0.7-0.1,1c0,0.7,0.2,1.3,0.5,1.8s1,0.9,2,1.4l3.6,1.6c0.9,0.4,1.6,0.8,2.2,1.2c0.6,0.4,1,0.9,1.4,1.4s0.6,1,0.7,1.6
		c0.1,0.6,0.2,1.2,0.2,2c0,2.5-0.7,4.2-2.1,5.4c-1.4,1.1-3.4,1.7-6,1.7c-2.7,0-4.6-0.6-5.7-1.7c-1.1-1.2-1.7-2.8-1.7-5V348h4.7
		V348.7z"/>
</g>
</svg>
