<?xml version="1.0" encoding="utf-8"?>
<!-- Generator: Adobe Illustrator 19.2.0, SVG Export Plug-In . SVG Version: 6.00 Build 0)  -->
<svg version="1.1" id="Layer_1" xmlns="http://www.w3.org/2000/svg" xmlns:xlink="http://www.w3.org/1999/xlink" x="0px" y="0px"
	 viewBox="0 0 900 500" style="enable-background:new 0 0 900 500;" xml:space="preserve">
<style type="text/css">
	.st0{enable-background:new    ;}
	.st1{fill:#446DB2;}
	.st2{opacity:0.5;enable-background:new    ;}
	.st3{fill:#FFFFFF;}
	.st4{fill:#CCE7F6;}
	.st5{fill:#336699;}
	.st6{fill:#233368;}
	.st7{fill:#FDFDFC;}
</style>
<g class="st0">
	<path class="st1" d="M581.1,211.1v7.6h-16.4v10.8h15.5v7.6h-15.5v20h-9.3v-46H581.1z"/>
	<path class="st1" d="M585.7,211.1h9.3v46h-9.3V211.1z"/>
	<path class="st1" d="M623.7,242.6h0.1v-31.5h8.5v46h-10.6l-11.3-32.2h-0.1v32.2h-8.5v-46h10.7L623.7,242.6z"/>
	<path class="st1" d="M659.2,211.1l12.2,46h-9.7l-2.1-9.7h-12.2l-2.1,9.7h-9.7l12.2-46H659.2z M658,239.7l-4.4-20.7h-0.1l-4.4,20.7
		H658z"/>
	<path class="st1" d="M674.6,211.1h9.3v38.4h16.4v7.6h-25.7V211.1z"/>
	<path class="st1" d="M704.4,211.1h9.3v38.4h16.4v7.6h-25.7V211.1z"/>
	<path class="st1" d="M741.8,228.8h0.1l6.4-17.8h10L746.5,239v18.1h-9.3V239l-11.9-27.9h10.4L741.8,228.8z"/>
	<path class="st1" d="M781.1,211.1l5.1,34h0.1l5.4-34h8.9l5.4,34h0.1l5.1-34h8.9l-8.4,46h-10.4l-5.2-33.4h-0.1l-5.2,33.4h-10.4
		l-8.4-46H781.1z"/>
	<path class="st1" d="M849.6,218.7h-16.4v10.8h15.5v7.6h-15.5v12.4h17.1v7.6h-26.3v-46h25.7V218.7z"/>
</g>
<g class="st0">
	<path class="st1" d="M386.9,345.1c-1-1.9-2.8-2.8-5.4-2.8c-1.4,0-2.6,0.4-3.6,1.2c-0.9,0.8-1.7,2-2.2,3.8c-0.5,1.7-0.9,4-1.1,6.8
		c-0.2,2.8-0.3,6.2-0.3,10.3c0,4.3,0.1,7.8,0.4,10.5c0.3,2.7,0.7,4.7,1.4,6.2c0.6,1.5,1.4,2.5,2.3,3c0.9,0.5,2,0.8,3.2,0.8
		c1,0,2-0.2,2.8-0.5c0.9-0.3,1.6-1,2.3-2.1c0.6-1,1.1-2.5,1.5-4.4c0.4-1.9,0.6-4.4,0.6-7.5h11.5c0,3.1-0.2,6-0.7,8.8
		c-0.5,2.8-1.4,5.2-2.7,7.3c-1.3,2.1-3.1,3.7-5.5,4.9c-2.4,1.2-5.5,1.8-9.2,1.8c-4.3,0-7.8-0.7-10.3-2.1c-2.6-1.4-4.5-3.4-5.9-6
		c-1.4-2.6-2.2-5.7-2.6-9.4s-0.6-7.6-0.6-12c0-4.3,0.2-8.3,0.6-12s1.3-6.8,2.6-9.4c1.4-2.6,3.3-4.7,5.9-6.1c2.6-1.5,6-2.2,10.3-2.2
		c4.1,0,7.3,0.7,9.7,2c2.4,1.3,4.1,3,5.3,5.1c1.2,2.1,1.9,4.3,2.2,6.6c0.3,2.4,0.4,4.6,0.4,6.7h-11.5
		C388.4,350,387.9,347,386.9,345.1z"/>
	<path class="st1" d="M406.4,351.5c0.4-3.7,1.3-6.8,2.6-9.4c1.4-2.6,3.3-4.7,5.9-6.1c2.6-1.5,6-2.2,10.3-2.2c4.3,0,7.8,0.7,10.3,2.2
		c2.6,1.5,4.5,3.5,5.9,6.1c1.4,2.6,2.2,5.7,2.6,9.4s0.6,7.6,0.6,12c0,4.4-0.2,8.4-0.6,12s-1.3,6.7-2.6,9.4c-1.4,2.6-3.3,4.6-5.9,6
		c-2.6,1.4-6,2.1-10.3,2.1c-4.3,0-7.8-0.7-10.3-2.1c-2.6-1.4-4.5-3.4-5.9-6c-1.4-2.6-2.2-5.7-2.6-9.4s-0.6-7.6-0.6-12
		C405.8,359.1,406,355.1,406.4,351.5z M417.6,373.2c0.2,2.7,0.6,4.9,1.1,6.6c0.6,1.7,1.4,2.9,2.4,3.7s2.4,1.2,4.1,1.2
		c1.7,0,3.1-0.4,4.1-1.2s1.8-2,2.4-3.7c0.6-1.7,0.9-3.9,1.1-6.6c0.2-2.7,0.3-6,0.3-9.8c0-3.8-0.1-7.1-0.3-9.8
		c-0.2-2.7-0.6-4.9-1.1-6.6c-0.6-1.7-1.4-2.9-2.4-3.7c-1-0.8-2.4-1.2-4.1-1.2c-1.7,0-3.1,0.4-4.1,1.2c-1,0.8-1.8,2-2.4,3.7
		c-0.6,1.7-0.9,3.9-1.1,6.6c-0.2,2.7-0.3,5.9-0.3,9.8C417.3,367.3,417.4,370.6,417.6,373.2z"/>
	<path class="st1" d="M452,334.9h11.5V392H452V334.9z"/>
	<path class="st1" d="M499.3,374h0.2v-39.1H510V392h-13.1l-14.1-40h-0.2v40h-10.6v-57.1h13.3L499.3,374z"/>
	<path class="st1" d="M534.7,377.1h0.2l8.5-42.2h11.9L542.2,392h-14.8l-13.1-57.1h12.3L534.7,377.1z"/>
	<path class="st1" d="M591.5,344.3h-20.4v13.4h19.2v9.4h-19.2v15.4h21.2v9.4h-32.7v-57.1h31.9V344.3z"/>
	<path class="st1" d="M607.3,375.8c0,1.3,0.1,2.5,0.3,3.6c0.2,1.1,0.6,2,1.2,2.8c0.6,0.7,1.4,1.3,2.4,1.8c1,0.4,2.2,0.6,3.7,0.6
		c1.8,0,3.3-0.6,4.8-1.7c1.4-1.1,2.1-2.9,2.1-5.3c0-1.3-0.2-2.4-0.5-3.3c-0.3-0.9-0.9-1.8-1.7-2.5c-0.8-0.7-1.9-1.4-3.2-2
		c-1.3-0.6-2.9-1.2-4.8-1.9c-2.6-0.9-4.8-1.8-6.6-2.8c-1.9-1-3.4-2.2-4.7-3.6c-1.3-1.4-2.2-2.9-2.8-4.7c-0.6-1.8-0.9-3.9-0.9-6.2
		c0-5.7,1.6-9.9,4.7-12.6c3.1-2.8,7.5-4.2,13-4.2c2.6,0,4.9,0.3,7.1,0.8c2.2,0.6,4,1.5,5.6,2.7c1.6,1.3,2.8,2.9,3.7,4.8
		c0.9,1.9,1.3,4.3,1.3,7v1.6h-11c0-2.7-0.5-4.8-1.4-6.3c-1-1.5-2.6-2.2-4.8-2.2c-1.3,0-2.3,0.2-3.2,0.6c-0.9,0.4-1.5,0.9-2,1.5
		c-0.5,0.6-0.9,1.3-1,2.1c-0.2,0.8-0.3,1.6-0.3,2.5c0,1.8,0.4,3.2,1.1,4.4c0.7,1.2,2.3,2.3,4.8,3.3l8.9,3.8c2.2,1,4,2,5.4,3
		c1.4,1,2.5,2.2,3.3,3.4c0.8,1.2,1.4,2.5,1.7,4c0.3,1.4,0.5,3,0.5,4.8c0,6-1.7,10.4-5.2,13.2c-3.5,2.7-8.4,4.1-14.6,4.1
		c-6.5,0-11.2-1.4-14-4.2c-2.8-2.8-4.2-6.9-4.2-12.2v-2.3h11.5V375.8z"/>
	<path class="st1" d="M673,344.3h-12.5V392H649v-47.7h-12.5v-9.4H673V344.3z"/>
	<path class="st1" d="M701.9,334.9l6.3,42.2h0.2l6.7-42.2h11l6.7,42.2h0.2l6.3-42.2h11L739.9,392h-12.9l-6.4-41.4h-0.2l-6.4,41.4
		h-12.9l-10.4-57.1H701.9z"/>
	<path class="st1" d="M755.5,334.9h11.5V392h-11.5V334.9z"/>
	<path class="st1" d="M809.1,344.3h-12.5V392h-11.5v-47.7h-12.5v-9.4h36.5V344.3z"/>
	<path class="st1" d="M825.5,334.9v21.8H839v-21.8h11.5V392H839v-25.4h-13.4V392H814v-57.1H825.5z"/>
</g>
<g class="st2">
	<path class="st1" d="M375.5,399.5v3.5h-7.7v5h7.2v3.5h-7.2v9.3h-4.3v-21.4H375.5z"/>
	<path class="st1" d="M385.4,399.5c1.8,0,3.2,0.5,4.2,1.4c1,0.9,1.5,2.3,1.5,4.2c0,1.4-0.3,2.6-0.9,3.5c-0.6,0.9-1.5,1.5-2.7,1.8
		v0.1c1.1,0.2,1.9,0.5,2.4,1c0.5,0.5,0.8,1.4,0.9,2.6c0,0.4,0.1,0.8,0.1,1.3c0,0.5,0,1,0.1,1.6c0,1.1,0.1,2,0.2,2.6
		c0.1,0.6,0.4,1,0.8,1.2v0.2h-4.7c-0.2-0.3-0.4-0.6-0.4-1c-0.1-0.4-0.1-0.8-0.1-1.2l-0.1-4.1c0-0.8-0.3-1.5-0.6-2
		c-0.4-0.5-1-0.7-1.9-0.7h-2.3v9.1h-4.3v-21.4H385.4z M383.5,408.8c1,0,1.8-0.2,2.4-0.7c0.6-0.5,0.8-1.3,0.8-2.5c0-2-1-3-3-3h-2v6.2
		H383.5z"/>
	<path class="st1" d="M394.3,399.5h4.3v21.4h-4.3V399.5z"/>
	<path class="st1" d="M413.8,403h-7.7v5h7.2v3.5h-7.2v5.8h8v3.5h-12.3v-21.4h12V403z"/>
	<path class="st1" d="M426.5,414.2L426.5,414.2l0.1-14.7h4v21.4h-4.9l-5.3-15h-0.1v15h-4v-21.4h5L426.5,414.2z"/>
	<path class="st1" d="M440.8,399.5c1.5,0,2.7,0.2,3.6,0.7s1.6,1.2,2.1,2.1c0.5,0.9,0.9,2,1,3.3c0.2,1.3,0.3,2.7,0.3,4.3
		c0,1.9-0.1,3.5-0.3,4.9c-0.2,1.4-0.6,2.5-1.2,3.4s-1.3,1.6-2.2,2c-0.9,0.4-2.1,0.7-3.6,0.7h-6.8v-21.4H440.8z M439.9,417.7
		c0.8,0,1.4-0.1,1.8-0.4c0.5-0.3,0.8-0.7,1.1-1.3c0.3-0.6,0.5-1.4,0.5-2.4c0.1-1,0.1-2.2,0.1-3.7c0-1.2,0-2.3-0.1-3.2
		c-0.1-0.9-0.2-1.7-0.5-2.3c-0.3-0.6-0.6-1.1-1.1-1.4c-0.5-0.3-1.1-0.5-2-0.5H438v15.1H439.9z"/>
	<path class="st1" d="M454.2,414.8c0,0.5,0,1,0.1,1.4c0.1,0.4,0.2,0.8,0.5,1c0.2,0.3,0.5,0.5,0.9,0.7s0.8,0.2,1.4,0.2
		c0.7,0,1.3-0.2,1.8-0.6c0.5-0.4,0.8-1.1,0.8-2c0-0.5-0.1-0.9-0.2-1.2c-0.1-0.4-0.3-0.7-0.6-0.9c-0.3-0.3-0.7-0.5-1.2-0.8
		c-0.5-0.2-1.1-0.5-1.8-0.7c-1-0.3-1.8-0.7-2.5-1.1c-0.7-0.4-1.3-0.8-1.8-1.3c-0.5-0.5-0.8-1.1-1-1.8c-0.2-0.7-0.3-1.4-0.3-2.3
		c0-2.1,0.6-3.7,1.8-4.7c1.2-1,2.8-1.6,4.9-1.6c1,0,1.8,0.1,2.7,0.3c0.8,0.2,1.5,0.6,2.1,1s1,1.1,1.4,1.8c0.3,0.7,0.5,1.6,0.5,2.6
		v0.6h-4.1c0-1-0.2-1.8-0.5-2.4c-0.4-0.5-1-0.8-1.8-0.8c-0.5,0-0.9,0.1-1.2,0.2c-0.3,0.1-0.6,0.3-0.8,0.6c-0.2,0.2-0.3,0.5-0.4,0.8
		c-0.1,0.3-0.1,0.6-0.1,0.9c0,0.7,0.1,1.2,0.4,1.7c0.3,0.5,0.9,0.9,1.8,1.2l3.3,1.4c0.8,0.4,1.5,0.7,2,1.1c0.5,0.4,0.9,0.8,1.2,1.3
		c0.3,0.4,0.5,0.9,0.6,1.5s0.2,1.1,0.2,1.8c0,2.3-0.7,3.9-2,4.9c-1.3,1-3.1,1.5-5.5,1.5c-2.4,0-4.2-0.5-5.2-1.6
		c-1-1.1-1.6-2.6-1.6-4.6v-0.9h4.3V414.8z"/>
	<path class="st1" d="M470.3,420.1c0,0.7-0.1,1.4-0.2,2.1s-0.3,1.2-0.6,1.7c-0.3,0.5-0.7,0.9-1.2,1.2c-0.5,0.3-1.2,0.5-2,0.6v-2.1
		c0.5-0.1,0.9-0.4,1.2-0.8s0.4-1,0.4-1.5v-0.4h-1.6v-4.7h4V420.1z"/>
	<path class="st1" d="M488.2,403.3c-0.4-0.7-1-1.1-2-1.1c-0.5,0-1,0.1-1.3,0.4c-0.4,0.3-0.6,0.8-0.8,1.4c-0.2,0.7-0.3,1.5-0.4,2.6
		c-0.1,1-0.1,2.3-0.1,3.9c0,1.6,0.1,2.9,0.2,3.9c0.1,1,0.3,1.8,0.5,2.3c0.2,0.6,0.5,0.9,0.9,1.1c0.3,0.2,0.8,0.3,1.2,0.3
		c0.4,0,0.7-0.1,1.1-0.2c0.3-0.1,0.6-0.4,0.9-0.8c0.2-0.4,0.4-0.9,0.6-1.6s0.2-1.6,0.2-2.8h4.3c0,1.2-0.1,2.3-0.3,3.3
		c-0.2,1-0.5,1.9-1,2.7s-1.2,1.4-2.1,1.8c-0.9,0.4-2,0.7-3.5,0.7c-1.6,0-2.9-0.3-3.9-0.8c-1-0.5-1.7-1.3-2.2-2.2
		c-0.5-1-0.8-2.1-1-3.5c-0.2-1.4-0.2-2.9-0.2-4.5c0-1.6,0.1-3.1,0.2-4.5c0.1-1.4,0.5-2.5,1-3.5c0.5-1,1.2-1.7,2.2-2.3
		c1-0.5,2.2-0.8,3.9-0.8c1.5,0,2.8,0.2,3.6,0.8c0.9,0.5,1.6,1.1,2,1.9c0.4,0.8,0.7,1.6,0.8,2.5c0.1,0.9,0.2,1.7,0.2,2.5h-4.3
		C488.7,405.2,488.5,404,488.2,403.3z"/>
	<path class="st1" d="M495.4,405.7c0.1-1.4,0.5-2.5,1-3.5c0.5-1,1.2-1.7,2.2-2.3c1-0.5,2.2-0.8,3.9-0.8c1.6,0,2.9,0.3,3.9,0.8
		s1.7,1.3,2.2,2.3s0.8,2.2,1,3.5c0.2,1.4,0.2,2.9,0.2,4.5c0,1.6-0.1,3.1-0.2,4.5s-0.5,2.5-1,3.5c-0.5,1-1.2,1.7-2.2,2.2
		c-1,0.5-2.2,0.8-3.9,0.8c-1.6,0-2.9-0.3-3.9-0.8c-1-0.5-1.7-1.3-2.2-2.2c-0.5-1-0.8-2.1-1-3.5c-0.2-1.4-0.2-2.9-0.2-4.5
		C495.2,408.6,495.3,407.1,495.4,405.7z M499.6,413.9c0.1,1,0.2,1.8,0.4,2.5s0.5,1.1,0.9,1.4c0.4,0.3,0.9,0.4,1.5,0.4
		c0.6,0,1.2-0.1,1.5-0.4c0.4-0.3,0.7-0.8,0.9-1.4s0.3-1.4,0.4-2.5c0.1-1,0.1-2.2,0.1-3.7s0-2.7-0.1-3.7s-0.2-1.8-0.4-2.5
		c-0.2-0.6-0.5-1.1-0.9-1.4c-0.4-0.3-0.9-0.4-1.5-0.4c-0.6,0-1.2,0.1-1.5,0.4c-0.4,0.3-0.7,0.8-0.9,1.4c-0.2,0.6-0.4,1.5-0.4,2.5
		c-0.1,1-0.1,2.2-0.1,3.7S499.6,412.9,499.6,413.9z"/>
	<path class="st1" d="M518.9,399.5l3.1,15.1h0.1l3.1-15.1h6.4v21.4h-4v-17.1h-0.1l-3.8,17.1h-3.4l-3.8-17.1h-0.1v17.1h-4v-21.4
		H518.9z"/>
	<path class="st1" d="M542.1,399.5c1.1,0,2,0.2,2.8,0.6c0.8,0.4,1.4,0.9,1.8,1.5c0.5,0.6,0.8,1.3,1,2.1c0.2,0.8,0.3,1.6,0.3,2.4
		c0,1.1-0.2,2.1-0.5,2.9c-0.3,0.8-0.8,1.5-1.4,2c-0.6,0.5-1.3,0.9-2.1,1.2c-0.8,0.3-1.8,0.4-2.8,0.4h-2.3v8.5h-4.3v-21.4H542.1z
		 M540.8,409.2c0.9,0,1.6-0.3,2.1-0.8c0.5-0.5,0.8-1.3,0.8-2.4c0-1.1-0.2-1.9-0.7-2.5c-0.5-0.6-1.2-0.8-2.3-0.8h-1.8v6.5H540.8z"/>
	<path class="st1" d="M562.1,403h-7.7v5h7.2v3.5h-7.2v5.8h8v3.5h-12.3v-21.4h12V403z"/>
	<path class="st1" d="M577.1,403h-4.7v17.9h-4.3V403h-4.7v-3.5h13.7V403z"/>
	<path class="st1" d="M590.9,403h-7.7v5h7.2v3.5h-7.2v5.8h8v3.5h-12.3v-21.4h12V403z"/>
	<path class="st1" d="M609,399.5l5.7,21.4h-4.5l-1-4.5h-5.7l-1,4.5H598l5.7-21.4H609z M608.4,412.8l-2.1-9.6h-0.1l-2.1,9.6H608.4z"
		/>
	<path class="st1" d="M626.3,414.2L626.3,414.2l0.1-14.7h4v21.4h-4.9l-5.3-15h-0.1v15h-4v-21.4h5L626.3,414.2z"/>
	<path class="st1" d="M640.7,399.5c1.5,0,2.7,0.2,3.6,0.7s1.6,1.2,2.1,2.1c0.5,0.9,0.9,2,1,3.3s0.3,2.7,0.3,4.3
		c0,1.9-0.1,3.5-0.3,4.9c-0.2,1.4-0.6,2.5-1.2,3.4c-0.6,0.9-1.3,1.6-2.2,2c-0.9,0.4-2.1,0.7-3.6,0.7h-6.8v-21.4H640.7z M639.8,417.7
		c0.8,0,1.4-0.1,1.8-0.4c0.5-0.3,0.8-0.7,1.1-1.3c0.3-0.6,0.5-1.4,0.5-2.4c0.1-1,0.1-2.2,0.1-3.7c0-1.2,0-2.3-0.1-3.2
		s-0.2-1.7-0.5-2.3c-0.2-0.6-0.6-1.1-1.1-1.4c-0.5-0.3-1.1-0.5-2-0.5h-1.8v15.1H639.8z"/>
	<path class="st1" d="M664.3,399.5l3.1,15.1h0.1l3.1-15.1h6.4v21.4h-4v-17.1h-0.1l-3.8,17.1h-3.4l-3.8-17.1h-0.1v17.1h-4v-21.4
		H664.3z"/>
	<path class="st1" d="M689.5,399.5l5.7,21.4h-4.5l-1-4.5H684l-1,4.5h-4.5l5.7-21.4H689.5z M688.9,412.8l-2.1-9.6h-0.1l-2.1,9.6
		H688.9z"/>
	<path class="st1" d="M701,408.1L701,408.1l5.5-8.6h4.7l-5.8,9.2l6.5,12.2H707l-4.4-8.8l-1.6,2.4v6.4h-4.3v-21.4h4.3V408.1z"/>
	<path class="st1" d="M724.7,403h-7.6v5h7.2v3.5h-7.2v5.8h7.9v3.5h-12.3v-21.4h12V403z"/>
	<path class="st1" d="M743.8,404.6c-0.1-0.4-0.2-0.8-0.4-1.2c-0.2-0.3-0.5-0.6-0.8-0.9c-0.3-0.2-0.7-0.3-1.1-0.3
		c-1,0-1.8,0.6-2.2,1.7s-0.7,3.1-0.7,5.8c0,1.3,0,2.4,0.1,3.5c0.1,1,0.2,1.9,0.4,2.7c0.2,0.7,0.5,1.3,0.9,1.7
		c0.4,0.4,0.9,0.6,1.5,0.6c0.3,0,0.5-0.1,0.9-0.2c0.3-0.1,0.6-0.3,0.9-0.6c0.3-0.3,0.5-0.6,0.7-1.1c0.2-0.4,0.3-0.9,0.3-1.5v-2.2
		h-2.8v-3.2h7v11.5h-3.2v-2h-0.1c-0.5,0.8-1.1,1.4-1.9,1.8c-0.7,0.3-1.6,0.5-2.6,0.5c-1.3,0-2.4-0.2-3.2-0.7s-1.5-1.2-2-2.1
		s-0.8-2.1-0.9-3.6c-0.2-1.4-0.2-3-0.2-4.9c0-1.8,0.1-3.4,0.3-4.7c0.2-1.4,0.6-2.5,1.2-3.4c0.6-0.9,1.3-1.6,2.2-2.1
		c0.9-0.5,2.1-0.7,3.5-0.7c2.4,0,4.1,0.6,5.1,1.8s1.6,2.8,1.6,5h-4.1C743.9,405.4,743.9,405,743.8,404.6z"/>
	<path class="st1" d="M759.1,399.5c1.8,0,3.2,0.5,4.2,1.4s1.5,2.3,1.5,4.2c0,1.4-0.3,2.6-0.9,3.5s-1.5,1.5-2.7,1.8v0.1
		c1.1,0.2,1.9,0.5,2.4,1c0.5,0.5,0.8,1.4,0.9,2.6c0,0.4,0.1,0.8,0.1,1.3c0,0.5,0,1,0.1,1.6c0,1.1,0.1,2,0.2,2.6
		c0.1,0.6,0.4,1,0.8,1.2v0.2h-4.7c-0.2-0.3-0.4-0.6-0.4-1c-0.1-0.4-0.1-0.8-0.1-1.2l-0.1-4.1c0-0.8-0.2-1.5-0.6-2
		c-0.4-0.5-1-0.7-1.9-0.7h-2.3v9.1h-4.3v-21.4H759.1z M757.2,408.8c1,0,1.8-0.2,2.4-0.7c0.6-0.5,0.8-1.3,0.8-2.5c0-2-1-3-3-3h-2v6.2
		H757.2z"/>
	<path class="st1" d="M767.5,405.7c0.1-1.4,0.5-2.5,1-3.5c0.5-1,1.2-1.7,2.2-2.3s2.2-0.8,3.9-0.8s2.9,0.3,3.9,0.8s1.7,1.3,2.2,2.3
		s0.8,2.2,1,3.5c0.1,1.4,0.2,2.9,0.2,4.5c0,1.6-0.1,3.1-0.2,4.5c-0.2,1.4-0.5,2.5-1,3.5c-0.5,1-1.2,1.7-2.2,2.2
		c-1,0.5-2.2,0.8-3.9,0.8s-2.9-0.3-3.9-0.8c-1-0.5-1.7-1.3-2.2-2.2c-0.5-1-0.8-2.1-1-3.5c-0.2-1.4-0.2-2.9-0.2-4.5
		C767.3,408.6,767.4,407.1,767.5,405.7z M771.7,413.9c0.1,1,0.2,1.8,0.4,2.5c0.2,0.6,0.5,1.1,0.9,1.4c0.4,0.3,0.9,0.4,1.5,0.4
		c0.6,0,1.2-0.1,1.5-0.4c0.4-0.3,0.7-0.8,0.9-1.4s0.3-1.4,0.4-2.5c0.1-1,0.1-2.2,0.1-3.7s0-2.7-0.1-3.7c-0.1-1-0.2-1.8-0.4-2.5
		c-0.2-0.6-0.5-1.1-0.9-1.4c-0.4-0.3-0.9-0.4-1.5-0.4c-0.6,0-1.2,0.1-1.5,0.4s-0.7,0.8-0.9,1.4c-0.2,0.6-0.3,1.5-0.4,2.5
		s-0.1,2.2-0.1,3.7S771.7,412.9,771.7,413.9z"/>
	<path class="st1" d="M788.5,414.4c0,0.5,0,1,0.1,1.5c0.1,0.5,0.2,0.8,0.4,1.2c0.2,0.3,0.5,0.6,0.8,0.8c0.3,0.2,0.7,0.3,1.2,0.3
		c0.5,0,0.9-0.1,1.3-0.3c0.3-0.2,0.6-0.5,0.8-0.8s0.3-0.7,0.4-1.2c0.1-0.5,0.1-0.9,0.1-1.5v-14.9h4.3v14.9c0,1.4-0.2,2.5-0.6,3.4
		c-0.4,0.9-0.9,1.6-1.5,2.1c-0.6,0.5-1.4,0.9-2.2,1c-0.8,0.2-1.7,0.3-2.5,0.3c-0.9,0-1.7-0.1-2.6-0.2s-1.5-0.5-2.2-1
		c-0.6-0.5-1.2-1.2-1.5-2.1c-0.4-0.9-0.6-2.1-0.6-3.5v-14.9h4.3V414.4z"/>
	<path class="st1" d="M808.1,399.5c1.1,0,2,0.2,2.8,0.6c0.8,0.4,1.4,0.9,1.8,1.5c0.5,0.6,0.8,1.3,1,2.1c0.2,0.8,0.3,1.6,0.3,2.4
		c0,1.1-0.2,2.1-0.5,2.9c-0.3,0.8-0.8,1.5-1.4,2c-0.6,0.5-1.3,0.9-2.1,1.2c-0.8,0.3-1.8,0.4-2.8,0.4h-2.3v8.5h-4.3v-21.4H808.1z
		 M806.8,409.2c0.9,0,1.6-0.3,2.1-0.8c0.5-0.5,0.8-1.3,0.8-2.4c0-1.1-0.2-1.9-0.7-2.5c-0.5-0.6-1.2-0.8-2.3-0.8h-1.8v6.5H806.8z"/>
	<path class="st1" d="M819.6,414.8c0,0.5,0,1,0.1,1.4c0.1,0.4,0.2,0.8,0.5,1c0.2,0.3,0.5,0.5,0.9,0.7s0.8,0.2,1.4,0.2
		c0.7,0,1.3-0.2,1.8-0.6c0.5-0.4,0.8-1.1,0.8-2c0-0.5-0.1-0.9-0.2-1.2c-0.1-0.4-0.3-0.7-0.6-0.9c-0.3-0.3-0.7-0.5-1.2-0.8
		c-0.5-0.2-1.1-0.5-1.8-0.7c-1-0.3-1.8-0.7-2.5-1.1c-0.7-0.4-1.3-0.8-1.8-1.3c-0.5-0.5-0.8-1.1-1-1.8c-0.2-0.7-0.3-1.4-0.3-2.3
		c0-2.1,0.6-3.7,1.8-4.7c1.2-1,2.8-1.6,4.9-1.6c1,0,1.8,0.1,2.7,0.3c0.8,0.2,1.5,0.6,2.1,1s1,1.1,1.4,1.8c0.3,0.7,0.5,1.6,0.5,2.6
		v0.6h-4.1c0-1-0.2-1.8-0.5-2.4s-1-0.8-1.8-0.8c-0.5,0-0.9,0.1-1.2,0.2c-0.3,0.1-0.6,0.3-0.8,0.6c-0.2,0.2-0.3,0.5-0.4,0.8
		c-0.1,0.3-0.1,0.6-0.1,0.9c0,0.7,0.1,1.2,0.4,1.7c0.3,0.5,0.9,0.9,1.8,1.2l3.3,1.4c0.8,0.4,1.5,0.7,2,1.1c0.5,0.4,0.9,0.8,1.2,1.3
		c0.3,0.4,0.5,0.9,0.6,1.5c0.1,0.5,0.2,1.1,0.2,1.8c0,2.3-0.7,3.9-2,4.9c-1.3,1-3.1,1.5-5.5,1.5c-2.4,0-4.2-0.5-5.2-1.6
		c-1.1-1.1-1.6-2.6-1.6-4.6v-0.9h4.3V414.8z"/>
</g>
<g class="st0">
	<path class="st1" d="M559.8,259.8l2.7,18.2h0.1l2.9-18.2h4.8l2.9,18.2h0.1l2.7-18.2h4.8l-4.5,24.6h-5.5l-2.8-17.9h-0.1l-2.8,17.9
		h-5.5l-4.5-24.6H559.8z"/>
	<path class="st1" d="M582.9,259.8h5v24.6h-5V259.8z"/>
	<path class="st1" d="M591.5,259.8h5v20.5h8.8v4.1h-13.8V259.8z"/>
	<path class="st1" d="M607.5,259.8h5v20.5h8.8v4.1h-13.8V259.8z"/>
	<path class="st1" d="M644.9,263.8h-5.4v20.5h-5v-20.5h-5.4v-4.1h15.7V263.8z"/>
	<path class="st1" d="M652,259.8v9.4h5.8v-9.4h5v24.6h-5v-10.9H652v10.9h-5v-24.6H652z"/>
	<path class="st1" d="M675.3,259.8c2.1,0,3.7,0.5,4.8,1.6c1.1,1,1.7,2.6,1.7,4.8c0,1.7-0.3,3-1,4c-0.7,1-1.7,1.7-3.1,2v0.1
		c1.2,0.2,2.1,0.6,2.7,1.2c0.6,0.6,0.9,1.6,1.1,3c0,0.5,0.1,1,0.1,1.5c0,0.5,0,1.1,0.1,1.8c0,1.3,0.1,2.3,0.2,3
		c0.1,0.7,0.4,1.2,0.9,1.4v0.2h-5.4c-0.3-0.3-0.4-0.7-0.5-1.2c-0.1-0.4-0.1-0.9-0.1-1.4l-0.1-4.7c0-1-0.3-1.7-0.7-2.3
		c-0.4-0.6-1.2-0.8-2.2-0.8h-2.7v10.4h-5v-24.6H675.3z M673.2,270.5c1.2,0,2.1-0.3,2.8-0.8c0.6-0.6,1-1.5,1-2.8
		c0-2.3-1.1-3.4-3.4-3.4h-2.3v7.1H673.2z"/>
	<path class="st1" d="M685.1,266.9c0.2-1.6,0.6-2.9,1.1-4c0.6-1.1,1.4-2,2.5-2.6c1.1-0.6,2.6-0.9,4.4-0.9s3.3,0.3,4.4,0.9
		c1.1,0.6,1.9,1.5,2.5,2.6c0.6,1.1,1,2.5,1.1,4c0.2,1.6,0.3,3.3,0.3,5.2c0,1.9-0.1,3.6-0.3,5.2s-0.6,2.9-1.1,4s-1.4,2-2.5,2.6
		c-1.1,0.6-2.6,0.9-4.4,0.9s-3.3-0.3-4.4-0.9c-1.1-0.6-1.9-1.5-2.5-2.6c-0.6-1.1-1-2.5-1.1-4c-0.2-1.6-0.3-3.3-0.3-5.2
		C684.8,270.2,684.9,268.5,685.1,266.9z M689.9,276.3c0.1,1.2,0.2,2.1,0.5,2.8s0.6,1.3,1,1.6c0.4,0.3,1,0.5,1.8,0.5s1.3-0.2,1.8-0.5
		c0.4-0.3,0.8-0.9,1-1.6s0.4-1.7,0.5-2.8c0.1-1.2,0.1-2.6,0.1-4.2s0-3.1-0.1-4.2c-0.1-1.1-0.2-2.1-0.5-2.8s-0.6-1.3-1-1.6
		c-0.4-0.3-1-0.5-1.8-0.5s-1.3,0.2-1.8,0.5c-0.4,0.3-0.8,0.9-1,1.6s-0.4,1.7-0.5,2.8c-0.1,1.1-0.1,2.5-0.1,4.2
		S689.8,275.1,689.9,276.3z"/>
	<path class="st1" d="M707.8,259.8l2.7,18.2h0.1l2.9-18.2h4.8l2.9,18.2h0.1l2.7-18.2h4.8l-4.5,24.6h-5.5l-2.8-17.9h-0.1l-2.8,17.9
		h-5.5l-4.5-24.6H707.8z"/>
	<path class="st1" d="M748.6,259.8l6.5,24.6h-5.2l-1.1-5.2h-6.5l-1.1,5.2H736l6.5-24.6H748.6z M747.9,275.1l-2.4-11.1h-0.1
		l-2.4,11.1H747.9z"/>
	<path class="st1" d="M773.8,259.8c1.3,0,2.3,0.2,3.2,0.6c0.9,0.4,1.6,1,2.1,1.7c0.5,0.7,0.9,1.5,1.1,2.4c0.2,0.9,0.3,1.8,0.3,2.7
		c0,1.3-0.2,2.4-0.6,3.3c-0.4,0.9-0.9,1.7-1.6,2.3s-1.5,1-2.5,1.3c-1,0.3-2,0.4-3.2,0.4h-2.7v9.8h-5v-24.6H773.8z M772.3,270.9
		c1,0,1.8-0.3,2.4-0.9c0.6-0.6,0.9-1.5,0.9-2.8c0-1.2-0.3-2.2-0.8-2.8c-0.5-0.6-1.4-1-2.7-1h-2.1v7.5H772.3z"/>
	<path class="st1" d="M792.6,259.8l6.5,24.6H794l-1.1-5.2h-6.5l-1.1,5.2H780l6.5-24.6H792.6z M792,275.1l-2.4-11.1h-0.1l-2.4,11.1
		H792z"/>
	<path class="st1" d="M810,259.8c2.1,0,3.7,0.5,4.8,1.6c1.1,1,1.7,2.6,1.7,4.8c0,1.7-0.3,3-1,4c-0.7,1-1.7,1.7-3.1,2v0.1
		c1.2,0.2,2.1,0.6,2.7,1.2c0.6,0.6,0.9,1.6,1.1,3c0,0.5,0.1,1,0.1,1.5c0,0.5,0,1.1,0.1,1.8c0,1.3,0.1,2.3,0.2,3
		c0.1,0.7,0.4,1.2,0.9,1.4v0.2h-5.4c-0.3-0.3-0.4-0.7-0.5-1.2c-0.1-0.4-0.1-0.9-0.1-1.4l-0.1-4.7c0-1-0.3-1.7-0.7-2.3
		c-0.4-0.6-1.2-0.8-2.2-0.8h-2.7v10.4h-5v-24.6H810z M807.9,270.5c1.2,0,2.1-0.3,2.8-0.8c0.6-0.6,1-1.5,1-2.8c0-2.3-1.1-3.4-3.4-3.4
		h-2.3v7.1H807.9z"/>
	<path class="st1" d="M833.8,263.8h-5.4v20.5h-5v-20.5h-5.4v-4.1h15.7V263.8z"/>
	<path class="st1" d="M843.2,269.3L843.2,269.3l3.5-9.5h5.4l-6.4,14.9v9.7h-5v-9.7l-6.4-14.9h5.6L843.2,269.3z"/>
</g>
<g>
	<polyline class="st3" points="690.9,167.4 674.9,206.7 825.6,206.7 811.4,165.4 696.9,165.4 	"/>
	<ellipse class="st4" cx="719.8" cy="179.5" rx="25.6" ry="12.2"/>
	<g>
		<path class="st5" d="M769.1,179c-0.6,0-1-0.4-1-1c0-1.4-0.3-2.1-0.5-2.4c-0.2-0.3-0.4-0.4-0.7-0.4c-0.8,0-2.1,1.1-2.1,2.9
			c0,0.6-0.4,1-1,1s-1-0.4-1-1c0-2.9,2.1-4.9,4.1-4.9c1,0,1.8,0.5,2.4,1.3c0.6,0.8,0.9,2,0.9,3.5C770.1,178.6,769.6,179,769.1,179z"
			/>
	</g>
	<g>
		<path class="st5" d="M769.1,185.6c-0.6,0-1-0.4-1-1c0-1.4-0.3-2.1-0.5-2.4c-0.2-0.3-0.4-0.4-0.7-0.4c-0.8,0-2.1,1.1-2.1,2.9
			c0,0.6-0.4,1-1,1s-1-0.4-1-1c0-2.9,2.1-4.9,4.1-4.9c1,0,1.8,0.5,2.4,1.3c0.6,0.8,0.9,2,0.9,3.5
			C770.1,185.2,769.6,185.6,769.1,185.6z"/>
	</g>
	<g>
		<path class="st5" d="M769.1,192.7c-0.6,0-1-0.4-1-1c0-1.4-0.3-2.1-0.5-2.4c-0.2-0.3-0.4-0.4-0.7-0.4c-0.8,0-2.1,1.1-2.1,2.9
			c0,0.6-0.4,1-1,1s-1-0.4-1-1c0-2.9,2.1-4.9,4.1-4.9c1,0,1.8,0.5,2.4,1.3c0.6,0.8,0.9,2,0.9,3.5
			C770.1,192.3,769.6,192.7,769.1,192.7z"/>
	</g>
	<g>
		<path class="st5" d="M781,192.7c-0.6,0-1-0.4-1-1c0-1.4-0.3-2.1-0.5-2.4c-0.2-0.3-0.4-0.4-0.7-0.4c-0.8,0-2.1,1.1-2.1,2.9
			c0,0.6-0.4,1-1,1s-1-0.4-1-1c0-2.9,2.1-4.9,4.1-4.9c1,0,1.8,0.5,2.4,1.3c0.6,0.8,0.9,2,0.9,3.5C782,192.3,781.6,192.7,781,192.7z"
			/>
	</g>
	<g>
		<path class="st5" d="M781.8,185.6c-0.6,0-1-0.4-1-1c0-1.4-0.3-2.1-0.5-2.4c-0.2-0.3-0.4-0.4-0.7-0.4c-0.8,0-2.1,1.1-2.1,2.9
			c0,0.6-0.4,1-1,1s-1-0.4-1-1c0-2.9,2.1-4.9,4.1-4.9c1,0,1.8,0.5,2.4,1.3c0.6,0.8,0.9,2,0.9,3.5
			C782.8,185.2,782.4,185.6,781.8,185.6z"/>
	</g>
	<g>
		<path class="st5" d="M781.8,179c-0.6,0-1-0.4-1-1c0-1.4-0.3-2.1-0.5-2.4c-0.2-0.3-0.4-0.4-0.7-0.4c-0.8,0-2.1,1.1-2.1,2.9
			c0,0.6-0.4,1-1,1s-1-0.4-1-1c0-2.9,2.1-4.9,4.1-4.9c1,0,1.8,0.5,2.4,1.3c0.6,0.8,0.9,2,0.9,3.5C782.8,178.6,782.4,179,781.8,179z"
			/>
	</g>
	<g>
		<path class="st5" d="M809.9,194.9H793c-0.3,0-0.5-0.1-0.7-0.3s-0.3-0.5-0.3-0.8l1.5-19.7c0-0.5,0.5-1,1.1-0.9c0.6,0,1,0.5,0.9,1.1
			l-1.4,18.7h14.6l-3.7-17.8l-6.8-0.8c-0.5-0.1-0.9-0.6-0.9-1.1c0.1-0.5,0.6-0.9,1.1-0.9l7.5,0.9c0.4,0.1,0.8,0.4,0.9,0.8l4.1,19.7
			c0.1,0.3,0,0.6-0.2,0.8C810.5,194.8,810.2,194.9,809.9,194.9z"/>
	</g>
	<g>
		<path class="st5" d="M722.7,174.6l-3-0.3c0.2-1.6-0.1-3.2-0.8-4.4c-0.3-0.6-1-1.6-2.2-1.7c-1.1-0.1-2,0.7-2.4,1.2
			c-0.9,1-1.5,2.5-1.6,4.1l-3-0.3c0.2-2.2,1-4.3,2.3-5.8c1.4-1.6,3.2-2.5,5-2.3c1.8,0.2,3.4,1.4,4.5,3.2
			C722.5,170.2,722.9,172.4,722.7,174.6z"/>
	</g>
	<g>
		<g>
			<path class="st3" d="M729.6,134.9c0.6-0.5-1.7-16.6-3.4-18.2c-1.8-1.6-2.8,9.3-2.8,9.3l2.6,6.7L729.6,134.9z"/>
			<path class="st6" d="M729.7,136.7l-5-3.1l-2.9-7.5l0-0.3c0.9-9.8,2.6-10.4,3.2-10.7c0.7-0.3,1.5-0.1,2.1,0.4
				c2.4,2.1,4.1,16.5,4,18.7c0,0.6-0.1,1.3-0.6,1.8L729.7,136.7z M727.1,131.6l1,0.6c-0.3-3.4-1.3-9.5-2.3-12.7
				c-0.4,1.6-0.7,3.9-1,6.2L727.1,131.6z"/>
		</g>
		<path class="st3" d="M725.1,117.1c-1.9,2-4.4,14.4,4.2,18c0.3,0.5,0.3,2.8-0.5,3.3c-10,0.4-14.3-18.1-6.7-23
			C724.6,115.4,725.1,117.1,725.1,117.1z"/>
		<path class="st5" d="M728.6,139.9c-4.8,0-8.9-3.7-10.8-9.8c-1.7-5.5-1.3-12.8,3.6-16l0.4-0.2h0.4c2.8,0,4,1.7,4.4,2.7l0.2,0.8
			l-0.6,0.6c-0.6,0.7-2,5.1-1.1,9.3c0.7,3.1,2.3,5.2,4.9,6.2l0.5,0.2l0.3,0.4c0.6,1,0.7,4.3-1,5.3l-0.3,0.2l-0.4,0
			C728.8,139.9,728.7,139.9,728.6,139.9z M722.6,117c-3.1,2.4-3.4,7.9-2,12.3c1.1,3.6,3.6,7.3,7.4,7.6c0-0.2,0-0.5,0-0.7
			c-3.1-1.6-5.1-4.3-5.9-8c-0.9-4.1,0-8.6,1.2-10.9C723.1,117.1,722.9,117,722.6,117z"/>
		<g>
			<path class="st3" d="M771.2,132.3l-28.7,9.3c-6.3,2-13.1-1.4-15.1-7.7l-7.3-22.4c-2-6.3,1.4-13.1,7.7-15.1l28.7-9.3
				c6.3-2,13.1,1.4,15.1,7.7l7.3,22.4C781,123.4,777.5,130.2,771.2,132.3z"/>
			<path class="st6" d="M738.8,143.6c-5.7,0-11-3.6-12.9-9.3l-7.3-22.4c-2.3-7.1,1.6-14.7,8.7-17l28.7-9.3c7.1-2.3,14.7,1.6,17,8.7
				l7.3,22.4c1.1,3.4,0.8,7.1-0.8,10.3s-4.4,5.6-7.9,6.7L743,143C741.6,143.4,740.2,143.6,738.8,143.6z M760.3,87.9
				c-1.1,0-2.2,0.2-3.2,0.5l-28.7,9.3c-5.5,1.8-8.5,7.7-6.8,13.2l7.3,22.4c1.8,5.5,7.7,8.5,13.2,6.8l28.7-9.3
				c2.7-0.9,4.8-2.7,6.1-5.2c1.3-2.5,1.5-5.3,0.7-8l-7.3-22.4C768.8,90.7,764.7,87.9,760.3,87.9z"/>
		</g>
		<g>
			<path class="st4" d="M738.9,91.4c-3.6,1.3-8.5,5-1.1,25.6c7.4,20.6,13,22,16.7,20.7c-1.8,1.4-8.6,2.4-9.1,2.6
				c-0.5,0.2-9.1,3.1-11.5,1.5c-5.5-3.7-10.6-20.7-10.6-20.7s-4.9-16-2.6-18.4c1.7-1.8,1.4-4.3,7.8-6.6
				C734.8,93.9,738.9,91.4,738.9,91.4z"/>
		</g>
		<g>
			<path class="st5" d="M738.8,143.6c-5.7,0-11-3.6-12.9-9.3l-7.3-22.4c-2.3-7.1,1.6-14.7,8.7-17l28.7-9.3c7.1-2.3,14.7,1.6,17,8.7
				l7.3,22.4c1.1,3.4,0.8,7.1-0.8,10.3s-4.4,5.6-7.9,6.7L743,143C741.6,143.4,740.2,143.6,738.8,143.6z M760.3,87.9
				c-1.1,0-2.2,0.2-3.2,0.5l-28.7,9.3c-5.5,1.8-8.5,7.7-6.8,13.2l7.3,22.4c1.8,5.5,7.7,8.5,13.2,6.8l28.7-9.3
				c2.7-0.9,4.8-2.7,6.1-5.2c1.3-2.5,1.5-5.3,0.7-8l-7.3-22.4C768.8,90.7,764.7,87.9,760.3,87.9z"/>
		</g>
		<g>
			
				<ellipse transform="matrix(0.9515 -0.3077 0.3077 0.9515 -1.7175 232.5157)" class="st5" cx="736.4" cy="121.7" rx="2.7" ry="2.7"/>
		</g>
		<g>
			
				<ellipse transform="matrix(0.9515 -0.3077 0.3077 0.9515 2.3254 240.4899)" class="st5" cx="763.7" cy="112.9" rx="2.7" ry="2.7"/>
		</g>
		<g>
			
				<ellipse transform="matrix(0.9515 -0.3077 0.3077 0.9515 -2.3313 238.0038)" class="st5" cx="753.5" cy="126.4" rx="1.8" ry="1.8"/>
		</g>
		<g>
			
				<rect x="722.5" y="113.1" transform="matrix(0.9515 -0.3077 0.3077 0.9515 1.0998 236.2369)" class="st5" width="54.2" height="3"/>
		</g>
		<path class="st3" d="M787.1,163.3c0.8-2,1-4.3,0.2-6.6l-4.4-13.3c0.5,0,1,0,1.5-0.2c2.1-0.7,3.2-2.9,2.5-5c-0.7-2.1-2.9-3.2-5-2.5
			c-0.7,0.2-1.3,0.7-1.8,1.2c-2.4-3.1-6.6-4.5-10.5-3.2l-21.6,7.1c-3.9,1.3-6.4,2.5-6.5,6.4c-0.7-0.2-1.5-0.2-2.2,0.1
			c-2.1,0.7-3.2,2.9-2.5,5c0.7,2.1,2.9,3.2,5,2.5c0.5-0.2,1-0.4,1.4-0.8l2.6,9.4C745.9,163.5,787.2,163.3,787.1,163.3z"/>
		<g>
			<path class="st4" d="M752.5,156.5c-3-10.8-2.6-14.7,2.8-17.4c0,0-1.5,0.1-5.9,1.6c-4.4,1.5-5.2,2.9-6.9,6
				c-1.6,2.9,1,10.3,2.9,16.8h9.1C753.9,161.4,753.2,159,752.5,156.5z"/>
		</g>
		<path class="st5" d="M788.8,156.2l-3.7-11.1l-0.2-0.5c0,0,0,0,0,0c2.8-0.9,4.4-4,3.5-6.8c-0.9-2.8-4-4.4-6.8-3.5
			c-0.4,0.1-0.8,0.3-1.2,0.6c-2.9-2.8-7.2-3.8-11-2.5l-21.6,7.1c-3.6,1.2-6.6,2.5-7.4,6.2c-0.5,0-0.9,0.1-1.3,0.3
			c-1.4,0.5-2.5,1.4-3.1,2.7c-0.7,1.3-0.8,2.8-0.3,4.1c0.9,2.6,3.5,4.1,6.2,3.6l2.8,8.5h0.3l0,0l1.1,0h41l0.1-0.2
			c1-0.1,1.3-0.3,1.5-1C789.5,161.3,789.6,158.7,788.8,156.2z M747.1,162l-3.3-10.3c0-1.7,0.3-3.3,1.1-4.8c1.2-2.5,3.4-4.3,5.9-5.1
			l17.3-5.7c2.6-0.9,5.4-0.6,7.8,0.6c2.5,1.2,4.3,3.4,5.1,5.9l4.1,12.5c0.7,2.2,0.7,4.6-0.1,6.8C778.5,161.9,757.2,161.9,747.1,162z
			 M784.4,137.4c0.6,0.3,1,0.8,1.2,1.4c0.4,1.3-0.3,2.6-1.5,3.1c0,0,0,0,0,0l-0.1-0.2c-0.5-1.5-1.2-2.8-2.1-4
			c0.2-0.2,0.5-0.3,0.7-0.4C783.1,137,783.8,137.1,784.4,137.4z M738.4,151.9c-0.2-0.6-0.2-1.3,0.1-1.8c0.3-0.6,0.8-1,1.4-1.2
			c0.4-0.1,0.7-0.1,1.1-0.1c-0.3,1.6-0.4,3.2-0.1,4.8C739.8,153.7,738.8,153,738.4,151.9z"/>
		<g>
			<path class="st5" d="M714.5,168.1c-1.7-7.9,3.1-14.5,8.3-18c5.4-3.8,11.4-4.6,15.3-2.1l-1.6,2.5c-2.8-1.8-7.6-1-12,2
				c-4.3,3-8.5,8.5-7.1,14.9L714.5,168.1z"/>
		</g>
		<g>
			<path class="st5" d="M802.9,165.5c-0.5-5.3-4.6-21.1-15.6-25l1-2.8c12.5,4.4,17,21.8,17.6,27.5L802.9,165.5z"/>
		</g>
		<path class="st3" d="M773.8,96.5c-7.2,2.4-3.3,21.6,5,22.4C787.3,120.6,781.1,94.1,773.8,96.5z"/>
		<path class="st5" d="M779.6,120.5c-0.3,0-0.6,0-1-0.1c-5.5-0.6-9.2-7.5-9.9-14c-0.6-5.8,1.2-10.1,4.7-11.3
			c1.2-0.4,3.7-0.6,6.2,2.6c3.9,5,6.5,16.1,3.7,20.7C782.4,119.7,781.1,120.5,779.6,120.5z M774.8,97.8c-0.1,0-0.3,0-0.4,0.1l0,0
			c-2.5,0.8-3,4.9-2.6,8.1c0.6,5.2,3.5,11,7.3,11.4l0.1,0c0.8,0.2,1.2,0,1.6-0.6c1.9-3.1-0.1-13-3.4-17.3
			C776.6,98.7,775.7,97.8,774.8,97.8z"/>
		<g>
			<path class="st5" d="M776.6,104.1c-2.3,0.7-1,6.8,1.6,7C780.8,111.7,778.9,103.4,776.6,104.1z"/>
		</g>
		<path class="st4" d="M731.7,86.1c-6.3,3.3-8.4,6.5-8.9,11.6c0,0,5.1-3.9,9.2-6c5.8-3,21.3-4.6,27.5-1.3c8.5,4.6,18,18.6,18,18.6
			C772.5,77.2,745.6,78.8,731.7,86.1z"/>
		<path class="st5" d="M777.5,110.6c-0.5,0-1-0.2-1.2-0.7c-0.1-0.1-9.4-13.8-17.5-18.2c-5.4-2.9-20.4-1.7-26.1,1.3
			c-4,2.1-9,5.8-9,5.9c-0.5,0.4-1.1,0.4-1.6,0.1c-0.5-0.3-0.8-0.9-0.8-1.5c0.6-6,3.3-9.4,9.7-12.8l0,0c7.9-4.1,21.1-7,31.9-1.5
			c8.7,4.4,14.1,13,16.1,25.6c0.1,0.7-0.3,1.4-0.9,1.6C777.9,110.5,777.7,110.6,777.5,110.6z M749,87.1c4.4,0,8.5,0.6,11.2,2
			c5.2,2.8,10.6,8.8,14.3,13.4c-2.5-7.9-6.8-13.5-12.9-16.6c-9.9-5-21.9-2.3-29.2,1.5l0,0c-4.3,2.2-6.3,4.3-7.3,6.8
			c1.8-1.2,4.1-2.7,6.2-3.8C734.9,88.5,742.3,87.1,749,87.1z"/>
	</g>
	<g>
		<path class="st5" d="M719.8,177.6c-0.6,0-1-0.4-1-1v-2.1c0-0.6,0.4-1,1-1s1,0.4,1,1v2.1C720.8,177.1,720.3,177.6,719.8,177.6z"/>
	</g>
	<path class="st5" d="M849.4,165.7h-36.8l-0.2-0.6c-0.1-0.4-0.5-0.7-0.9-0.7H696.9c-0.6,0-1,0.4-1,1s0.4,1,1,1h15.5
		c-11.5,1.6-19.7,6.8-19.7,13.2c0,7.7,11.9,13.7,27.1,13.7c15.2,0,27.1-6,27.1-13.7c0-6.4-8.2-11.6-19.7-13.2h83.6l13.5,39.3H676.4
		l15.4-37.9c0.2-0.5,0-1-0.5-1.3c-0.1-0.5-0.5-0.8-1-0.8h-89.2c-0.6,0-1,0.4-1,1s0.4,1,1,1h88.6L674,206.3c-0.1,0.3-0.1,0.7,0.1,0.9
		c0.2,0.3,0.5,0.4,0.8,0.4h150.7c0.3,0,0.6-0.2,0.8-0.4s0.2-0.6,0.1-0.9l-13.2-38.7h36.1c0.6,0,1-0.4,1-1S849.9,165.7,849.4,165.7z
		 M743.9,179.5c0,5.2-9.7,10.7-24.1,10.7c-14.4,0-24.1-5.5-24.1-10.7s9.7-10.7,24.1-10.7C734.2,168.9,743.9,174.4,743.9,179.5z"/>
</g>
<g>
	<polygon class="st3" points="444.6,189.7 458.4,195 477.7,192.4 500.7,186.3 506.8,184.4 511.2,186.2 546,187.9 552.1,178.8 
		550.5,172.6 539.1,166.7 519.6,170.7 518.1,168.7 520.5,163.7 516.5,163.2 512.5,166.7 509.3,170.9 506,175.8 506.1,178.8 
		492.8,182.3 478.4,184.5 461.7,183.5 451.7,179.1 	"/>
</g>
<g>
	<path class="st3" d="M268.6,89.3c-3.7,1.9-4.4,19-4.4,19l8.5,21l16.6,8.9l22.3,50.4l7.2,4.3l12.5-7.5l-3.1-7.1l-9.3,5.3l-25.6-52
		l5.4-16.3l-1-9.1l-3.7-3.4l-2.5,0.4l0.6,5.6v4.4l-3.9-7.8l-9.5-17L268.6,89.3z"/>
</g>
<g>
	<path class="st3" d="M360,56c-1,0.6-1.7,9.4-1.7,9.4l0.4,13.2l-6.7,9.2l4,2.2l2.9,7.6l6.8,2.3l9.1-0.6l0.7,5.4l-5.6,6.5l-10.3-1.4
		l3.5,7.2l7.9,3.3l11-0.6l0.6,23.1l7.6,0.6c1-0.1,1.9-0.9,2-2l-3.2-24.9l8.1-8.6l4.6-9.6l-1-6l5.8,1.6l5.1-6.1l0.9-6.6l-6.9-4.7
		l-6,2.1l-2,3.6l-1.6,3.5l-1.7,2.1l-3.9-4.4L389,69.8l-8.9-0.3l-2.2-9.4l-2.5-2.6L360,56z"/>
</g>
<path class="st3" d="M356.8,151.6c0,0-24.3,11.3-26.7,16.5c-2.4,5.2,1.5,19.1,3.9,20.4c2.4,1.3,19.7-16.5,20.8-18.4
	S356.8,151.6,356.8,151.6z"/>
<path class="st5" d="M334,190.3c-0.3,0-0.7-0.1-0.9-0.2c-3.6-2-7.3-17-4.7-22.8c2.5-5.5,23.5-15.4,27.6-17.4l2.8-1.3l-0.2,3.1
	c-0.3,5.1-1.1,17.1-2.3,19.2C356.2,171.1,339.8,190.3,334,190.3z M354.7,154.6c-9.6,4.6-21.7,11.3-23,14.2
	c-1.9,4.2,1.1,15.2,2.9,17.6c3.7-1.7,17.1-15.1,18.5-17.4C353.6,168,354.3,161.3,354.7,154.6z"/>
<g>
	<path class="st5" d="M375.5,82.6c-1,0-1.9-0.8-1.9-1.9c0-1.3-1.7-2.4-3.7-2.4s-3.7,1.1-3.7,2.4c0,1-0.8,1.9-1.9,1.9
		s-1.9-0.8-1.9-1.9c0-3.4,3.3-6.1,7.4-6.1c4.1,0,7.4,2.8,7.4,6.1C377.3,81.8,376.5,82.6,375.5,82.6z"/>
</g>
<g>
	<path class="st5" d="M377.4,267.5h29.7c12.9,0,23.5-10.6,23.5-23.5v0c0-1.5,1.1-5.3-0.4-5.3h-76.1c-1.5,0-0.3,3.7-0.3,5.3v0
		C353.8,256.9,364.4,267.5,377.4,267.5z"/>
	<path class="st5" d="M407.1,268.4h-29.7c-13.5,0-24.5-11-24.5-24.5c0-0.4-0.1-1-0.2-1.6c-0.3-1.6-0.5-3.2,0.2-4.1
		c0.3-0.3,0.7-0.5,1.2-0.5h76.1c0.5,0,0.9,0.2,1.2,0.5c0.8,0.9,0.5,2.5,0.3,4.2c-0.1,0.6-0.2,1.1-0.2,1.5
		C431.6,257.4,420.6,268.4,407.1,268.4z M354.3,239.6c-0.1,0.5,0.1,1.7,0.2,2.4c0.1,0.7,0.2,1.4,0.2,1.9c0,12.5,10.1,22.6,22.6,22.6
		h29.7c12.5,0,22.6-10.1,22.6-22.6c0-0.4,0.1-1.1,0.2-1.7c0.1-0.7,0.3-2.1,0.2-2.6H354.3z"/>
</g>
<path class="st3" d="M406.9,138.1h-11.1c-1.3,0-2.3,0.9-2.8,2c-0.9,2.3-3.3,4-6.1,4c-2.8,0-5.2-1.7-6.1-4c-0.5-1.2-1.5-2-2.8-2h-0.5
	c-13,0-23.7,10.7-23.7,23.7v76.5c0,1.5,12.5,4.4,19.2,4.6c7.4,0.2,23.7-3.7,33.6-2c6,1,24-1,24-2.6l0-76.5
	C430.6,148.8,420,138.1,406.9,138.1z"/>
<path class="st6" d="M373.6,244.7c-0.2,0-0.4,0-0.6,0c-0.2,0-21-1.7-21-6.4v-76.5c0-14.1,11.5-25.6,25.5-25.6h0.5
	c2,0,3.8,1.3,4.5,3.2c0.6,1.7,2.4,2.8,4.4,2.8s3.7-1.1,4.4-2.8c0.8-2,2.5-3.2,4.5-3.2h11.1c14.1,0,25.6,11.5,25.6,25.6v76.5
	c0,0.4-0.1,1.1-0.8,1.7c-2.5,2.1-19.9,3.7-25.4,2.7c-5.9-1-14.2,0-21.6,1C380.3,244.2,376.5,244.7,373.6,244.7z M355.7,237.5
	c2.4,1.2,11.7,3.3,17.4,3.5c2.7,0.1,6.8-0.5,11.2-1c7.6-1,16.3-2.1,22.7-0.9c4.9,0.9,18.5-0.6,21.9-1.7v-75.5
	c0-12.1-9.8-21.9-21.9-21.9h-11.1c-0.5,0-0.9,0.4-1.1,0.9c-1.2,3.1-4.4,5.2-7.9,5.2c-3.5,0-6.7-2.1-7.9-5.2
	c-0.2-0.4-0.5-0.9-1.1-0.9h-0.5c-12,0-21.8,9.8-21.8,21.9V237.5z"/>
<g>
	<path class="st4" d="M417.7,161.7c-2.1,5.9-6,20.8-3,27.2s2.4,22.2,0,24.6c-2.4,2.4-4.6,18-18.6,16.2c-14.1-1.7-19.9,7.8-24.5,7.8
		c-4.5,0-8.9,4.3-3.8,4.8c5.1,0.5,25.9-2.7,27.2-2.5s16.1-0.1,17.1,0.5c1,0.7,16.8-1.4,18-2.6s0.5-54.4,0.5-54.4L417.7,161.7z"/>
</g>
<g>
	<path class="st5" d="M373.6,244.7c-0.2,0-0.4,0-0.6,0c-0.2,0-21-1.7-21-6.4v-76.5c0-14.1,11.5-25.6,25.5-25.6h0.5
		c2,0,3.8,1.3,4.5,3.2c0.6,1.7,2.4,2.8,4.4,2.8s3.7-1.1,4.4-2.8c0.8-2,2.5-3.2,4.5-3.2h11.1c14.1,0,25.6,11.5,25.6,25.6v76.5
		c0,0.4-0.1,1.1-0.8,1.7c-2.5,2.1-19.9,3.7-25.4,2.7c-5.9-1-14.2,0-21.6,1C380.3,244.2,376.5,244.7,373.6,244.7z M355.7,237.5
		c2.4,1.2,11.7,3.3,17.4,3.5c2.7,0.1,6.8-0.5,11.2-1c7.6-1,16.3-2.1,22.7-0.9c4.9,0.9,18.5-0.6,21.9-1.7v-75.5
		c0-12.1-9.8-21.9-21.9-21.9h-11.1c-0.5,0-0.9,0.4-1.1,0.9c-1.2,3.1-4.4,5.2-7.9,5.2c-3.5,0-6.7-2.1-7.9-5.2
		c-0.2-0.4-0.5-0.9-1.1-0.9h-0.5c-12,0-21.8,9.8-21.8,21.9V237.5z"/>
</g>
<path class="st3" d="M415.3,149.1c-4,6.6,14.4,35.8,22.2,39.4c7.8,3.6,18.2-14.9,17-16.9S425.7,131.7,415.3,149.1z"/>
<path class="st6" d="M439.7,190.8c-1.1,0-2.1-0.3-2.9-0.6c-7-3.2-19.6-22.6-22.9-33.3c-1.2-4-1.3-6.9-0.1-8.8l0,0
	c2.1-3.6,5.2-5.4,8.9-5.4c0,0,0.1,0,0.1,0c14.1,0.2,33.3,27.7,33.5,28c1.6,2.8-3.8,11.1-7.1,14.8
	C445.3,189.6,442.2,190.8,439.7,190.8z M416.9,150c-0.2,0.3-0.7,1.7,0.5,5.8c3.5,11.3,15.8,28.6,20.9,31c1.2,0.6,2.8,0.3,4.5-0.8
	c5.1-3.2,9.6-11.6,10-13.7c-2.2-3.3-19.4-25.8-30.2-25.8c0,0,0,0-0.1,0C420.3,146.4,418.4,147.6,416.9,150L416.9,150z"/>
<g>
	<path class="st4" d="M415.3,152.1c1.2,2.8,5.7,10.4,9.6,11.9c3.9,1.5,11.5,4.7,14.4,5.3s10.4,5.2,14.2,4.4
		c3.8-0.8-6.1,10.8-6.1,10.8s-4.8,5.4-7.4,5.2s-12.5-11-12.5-11l-12.2-21V152.1z"/>
</g>
<g>
	<path class="st6" d="M294.6,112.5l-3.5-1.2c0.1-0.4,0.2-0.9,0.2-1.5c0-1.1-0.3-2.4-0.5-3.6c-0.4-2-0.8-3.8,0.2-5
		c0.5-0.6,1.3-1,2.2-1h0.5l0.4,0.3c3.5,2.1,5.7,5,6.5,8.7l-3.6,0.8c-0.4-1.8-1.2-3.3-2.6-4.6c0,0,0,0.1,0,0.1
		c0.3,1.4,0.6,2.9,0.6,4.5C295.1,110.8,294.9,111.7,294.6,112.5z"/>
</g>
<g>
	<path class="st5" d="M317.9,194c-0.9,0-1.8-0.1-2.7-0.4c-4.3-1.5-10.4-14.5-21.6-41.2c-2.6-6.1-5.2-12.4-6.1-14
		c-3-0.9-12-4.6-14.3-5.9c-3.6-2.1-10.4-22.6-10.5-22.8c-0.8-2.4-0.2-6.4,0.8-11.9c0.3-1.9,0.6-3.8,0.7-5c0.1-1.6,0.9-3.1,2.3-4.2
		c2.4-2,6.8-3,11.5-2.5c5.8,0.6,12,17.2,14.7,25.8l2,0.7c-0.7,1.9-2,2.8-2.9,3l-1.7,0.4l-0.5-1.6c-4-12.8-9.6-24.3-12-24.6
		c-3.6-0.4-7.1,0.3-8.7,1.7c-0.6,0.5-0.9,1-0.9,1.6c-0.1,1.4-0.4,3.3-0.8,5.3c-0.6,3.4-1.4,8.4-0.9,10.1c1.7,5.3,7.2,19.4,8.9,20.8
		c2.2,1.3,12.4,5.3,13.9,5.7c1.4,0.3,1.7,0.8,8.1,16c5.1,12.2,15.8,37.6,19.4,39.1c3.9,1.4,10.1-3.8,12.9-6.6l-1-3
		c-3.6,2.8-7.6,5.3-9.8,4.7c-0.9-0.2-2.2-0.5-14.8-26.2c-4.6-9.5-12.4-25.7-12.4-28.5c0-1.3,0.8-2.9,1.9-5.4
		c1.9-4.1,4.8-10.3,3.7-15.3l3.6-0.8c1.3,6.2-1.9,13.1-4,17.6c-0.7,1.5-1.5,3.3-1.6,3.9c0.4,3.5,20.8,45.4,24.7,51
		c1.3-0.4,4.7-2.6,8.3-5.6l2.1-1.7l3.3,10.2l-0.7,0.8C331.9,186.2,324.7,194,317.9,194z"/>
</g>
<g>
	<path class="st5" d="M294.6,112.5l-3.5-1.2c0.1-0.4,0.2-0.9,0.2-1.5c0-1.1-0.3-2.4-0.5-3.6c-0.4-2-0.8-3.8,0.2-5
		c0.5-0.6,1.3-1,2.2-1h0.5l0.4,0.3c3.5,2.1,5.7,5,6.5,8.7l-3.6,0.8c-0.4-1.8-1.2-3.3-2.6-4.6c0,0,0,0.1,0,0.1
		c0.3,1.4,0.6,2.9,0.6,4.5C295.1,110.8,294.9,111.7,294.6,112.5z"/>
</g>
<path class="st4" d="M396.7,86.4c-0.1,1.8-2.5,1.6-4,1.1c-1.5-0.5-3.1-16.9-2.5-18.4s-8.1,2.4-10.2-0.9c-2.1-3.2-1.6-8.2-1-9.2
	s-16.7-5.6-24.3-2.6c-7.6,3-18.6-12.7-13.2-25.7s24.6-13.4,27-8.6c-2.4,0.4-5.9,2-8.8,4.5c-2.5,2.2-3.2,7.8-0.2,10
	c1.4-4.7,3.2-9.6,8.4-8.4c0,0-4,5.1-3.5,8.3s5.7-1,7.2,0.2c1.5,1.2,21.6-2.2,25.5,4.3s4.6-1.1,2.5-3.2c-2.1-2.2,3.2,1.2,2.6,5.7
	s3.2-1.2,6.4,1.2c3.2,2.5-4.1-0.9-4.7,3.5c6.6,3.5,5.5,18.8,5.4,28.3C404.6,75.9,397.5,75.8,396.7,86.4z"/>
<path class="st5" d="M411.2,76.9c0-0.1,0.1-0.2,0.1-0.3c0-0.9,0-2,0.1-3c0.2-9.5,0.4-21-4.8-25.8c0.4-0.1,0.9-0.1,1.8-0.1
	c0.9,0,2.4,0,2.9-1.4c0.5-1.5-0.8-2.5-1.4-3c-2-1.6-4.2-1-5.6-0.5c0-3.9-3.1-7-4.2-7.4c-0.8-0.3-1.8,0-2.3,0.7
	c-0.9,1.3,0.3,2.5,0.7,3c0.2,0.2,0.4,0.6,0.5,1.1c0,0,0-0.1-0.1-0.1c-3.3-5.5-14.4-5.2-21.7-5c-1.7,0-3.9,0.1-4.6,0
	c-1.4-0.9-3.1-0.3-4.7,0.3c-0.5,0.2-1.1,0.4-1.6,0.5c0-1.8,1.8-4.8,3.1-6.5c0.4-0.5,0.5-1.2,0.3-1.8c-0.2-0.6-0.7-1-1.3-1.2
	c-4.8-1.1-7.4,1.8-9,5.1c0.1-1.4,0.7-2.7,1.5-3.4c2.8-2.4,5.9-3.8,7.9-4.1c0.6-0.1,1.1-0.5,1.3-1c0.3-0.5,0.3-1.1,0-1.7
	c-1.3-2.6-5.2-4.1-10.3-3.9c-6.9,0.2-16.3,3.6-20,12.6c-3.8,9-0.3,19.3,5.1,24.7c3.4,3.5,7.3,4.7,10.6,3.4c0.4-0.2,0.9-0.3,1.3-0.4
	c-1.5,6.1-1.4,17.3-0.7,20.3c-0.4,1.5-4.1,6.6-6,7.9c-1.8,1.2-1.4,2.6-1.2,3c0.8,1.9,4.5,2.1,6.7,2c0.1,0.9,0.1,2,0.2,2.9
	c0.1,2.6,0.2,4,0.6,4.9c1.3,2.7,11.3,5.2,15.8,3.3c0.7-0.3,1.2-0.5,1.5-0.5c0,0.2,0,0.4,0,0.5c0,0.5-0.8,4.8-3.8,6.5
	c-2.3,1.3-5.5,0.8-9.4-1.6c-0.6-0.3-1.3-0.3-1.9,0c-0.6,0.3-0.9,1-0.9,1.6c0,3.4,2.1,7,5.3,9.6c2.4,1.9,6.3,3.9,12,3.9
	c1.8,0,3.8-0.2,6-0.7l-0.4,19.9c0,1,0.8,1.9,1.8,1.9c0,0,0,0,0,0c1,0,1.8-0.8,1.9-1.8l0.4-21.1c1-0.4,1.9-0.8,2.8-1.2l2.5,21.1
	c0.1,0.9,0.9,1.6,1.8,1.6c0.1,0,0.1,0,0.2,0c1-0.1,1.7-1,1.6-2.1L391,117c7.9-5.5,12-14.5,12.4-21.6c1.8,0.3,3.5,0,5.2-1
	c3.5-2,5.9-6.6,5.9-11.3C414.4,81.2,413.2,78.7,411.2,76.9z M354.1,54.7c-1.8,0.7-4.3-0.2-6.5-2.5c-4.4-4.5-7.4-13.2-4.3-20.7
	c3-7.3,10.9-10.1,16.7-10.3c1.8-0.1,3.3,0.1,4.4,0.4c-2,0.9-4,2.2-5.8,3.7c-1.9,1.6-3,4.5-2.8,7.3c0.1,2.4,1.1,4.4,2.8,5.6
	c0.5,0.3,1.1,0.4,1.7,0.2c0.6-0.2,1-0.6,1.2-1.2c0.9-2.9,1.7-4.8,2.6-5.9c-0.9,1.8-1.5,3.8-1.2,5.6c0.2,1.3,0.9,2,1.5,2.4
	c1.5,0.9,3.3,0.3,4.9-0.3c0.5-0.2,1.3-0.4,1.7-0.5c1,0.6,2.5,0.5,6.4,0.4c5.7-0.1,16.2-0.4,18.4,3.2c0.9,1.6,2.5,3.6,4.4,3.5
	c0.2,0,0.3,0,0.5-0.1c0.1,0.5,0.4,0.9,0.9,1.3c0.3,0.2,0.6,0.4,1,0.4c-0.1,0.3-0.1,0.5-0.2,0.9c-0.1,0.8,0.3,1.5,1,1.9
	c4.9,2.6,4.7,15.2,4.5,23.6c0,0.3,0,0.7,0,1c-0.6,0-1.2-0.1-1.8,0c-2-0.1-4.2,0.4-6.3,1.7c-0.1,0.1-0.2,0.2-0.3,0.2
	c-3.2,3-4.5,5.5-4.2,7.8c0,0,0,0.1,0,0.1c-0.1,0.5-0.2,1.1-0.2,1.6c-0.2,0-0.6,0-1.1-0.1c-1-2.6-2.2-14.4-1.9-16
	c0.3-0.7,0.2-1.5-0.3-2.1c-0.9-1.1-2.2-0.9-4.3-0.5c-1.4,0.3-5.2,1-5.8,0c-1.6-2.5-1.3-6.5-1-7.2c0.5-0.7,0.4-1.7-0.1-2.4
	c-1.4-1.7-12.4-4.5-20.7-4.1c0,0-0.1,0-0.1,0C357.5,53.7,355.6,54.1,354.1,54.7z M396.7,86.4l-1.9-0.1v0L396.7,86.4z M406.7,91.2
	c-1.4,0.8-2.9,0.8-4.3,0c-0.6-0.4-1.4-0.3-1.9,0c-0.6,0.4-0.9,1.1-0.8,1.7c0.7,7.2-5.1,21.6-19.2,24.7c-7.8,1.7-12.6-0.4-15.1-2.4
	c-1.2-1-2.2-2.1-2.8-3.2c3.6,1.3,6.7,1.2,9.3-0.3c4.3-2.4,5.6-8,5.6-9.7c0-1.1,0-2.8-1.4-3.8c-1.5-1-3.6-0.3-5.3,0.3
	c-2.9,1.2-9.6-0.7-11.1-1.6c-0.1-0.7-0.2-2.2-0.2-3.3c-0.2-3.7-0.3-5.2-1.3-6.1c-0.5-0.4-1.1-0.5-1.7-0.4c-0.4,0.1-1.4,0.1-2.4,0
	c2.6-2.8,6.4-7.8,5.6-10.1c-0.5-2.2-0.4-16.5,1-19.8c6-0.2,13.4,1.6,16.2,2.6c-0.5,2.5-0.2,6.5,1.6,9.4c1.9,3.1,6.6,2.2,9.6,1.6
	c0.1,0,0.1,0,0.2,0c0,4.8,1.3,14.5,2.3,16.8c0.1,0.3,0.6,1.3,1.6,1.6c0.4,0.1,1.5,0.5,2.6,0.5c0.8,0,1.7-0.2,2.4-0.6
	c0.8-0.6,1.3-1.4,1.4-2.5c0.3-3.4,1.2-5.7,2.9-7c1.2-1,2.8-1.3,4.3-1.4c0.7,0.1,1.3,0.3,1.9,0.6c2,1.1,3.1,3.4,3.2,4.3
	C410.7,86.5,409.1,89.8,406.7,91.2z"/>
<path class="st5" d="M549.4,169l-0.4-0.3c-2.2-1.7-7.5-5.8-18-3.1c-2.6,0.7-4.9,1.3-6.8,1.9c-1.3,0.4-2.7,0.8-3.8,1
	c0.4-0.5,0.7-0.9,1-1.3c1-1.3,1.9-2.4,1.3-3.9c-0.6-1.4-2.2-1.7-4.1-2c-4.5-0.5-8.6,5.2-11.6,9.5c-0.9,1.2-1.7,2.4-2.1,2.8
	c-0.5,0.5-1.3,1.6-0.7,3c-1,0.6-3.3,1.6-8.7,3.5c-15.2,5.3-38.6,1.3-41.2-0.7c-0.1-0.2-0.3-0.4-0.5-0.5c2-3.3,3.3-6.7,2.4-8.3
	c-0.2-0.3-19.4-27.8-33.5-28c0,0-0.1,0-0.1,0c-3.7,0-6.8,1.9-8.9,5.4c-1.1,1.9-1.1,4.8,0.1,8.8c3.3,10.7,15.9,30,22.9,33.3
	c0.8,0.4,1.8,0.6,2.9,0.6c1,0,2-0.2,3.2-0.7c1.2,1.1,3.7,2.6,8.8,4.5c2.7,1,6,1.5,9.7,1.5c14.1,0,33.7-6.1,43.2-9.1
	c1.7-0.5,3.4-1.1,4.3-1.3c1.3,1,4.1,3,6.3,2.7c0.5,0,2.9,0.1,5.3,0.2c18.8,1.1,25.5,0.8,27.4-1c2.9-2.8,5.2-8.2,5.9-10.5
	C554.8,174,551.3,170.5,549.4,169z M438.4,186.8c-5.1-2.4-17.4-19.7-20.9-31c-1.3-4.1-0.7-5.5-0.5-5.8c1.5-2.4,3.3-3.6,5.7-3.6
	c0,0,0,0,0.1,0c10.8,0.1,28,22.5,30.2,25.8c-0.3,2.2-4.9,10.5-10,13.7C441.1,187.1,439.6,187.4,438.4,186.8z M545.5,184.9
	c-2.3,1.3-18.6,0.4-24.8,0.1c-4-0.2-5.3-0.3-5.9-0.2c-0.7,0-3-1.3-4.1-2.4c-0.9-0.9-1-0.8-7.2,1.1c-10.7,3.3-39,12.2-50.5,7.7
	c-3.8-1.5-5.8-2.5-6.7-3.1c0.9-0.7,1.8-1.6,2.8-2.6c0.8-0.9,1.8-2.1,2.7-3.3c5.1,4.2,30.4,6.7,44.9,1.6c10.3-3.6,11.2-4.7,11.6-6.1
	c0.2-0.7,0-1.3-0.3-1.8c0.6-0.7,1.3-1.6,2.1-2.8c1.9-2.7,5.8-8.2,8.1-7.9c0.1,0,0.1,0,0.2,0c-0.5,0.7-1.2,1.5-1.8,2.6
	c-0.4,0.7-1.5,2.5-0.4,3.9c1.3,1.7,3.6,1,9.1-0.6c1.9-0.5,4.1-1.2,6.7-1.8c8.8-2.2,12.9,0.9,14.9,2.4l0.5,0.4c2,1.4,3.3,3.5,3.1,4.1
	C549.7,178.2,547.6,182.9,545.5,184.9z"/>
<path class="st5" d="M348,396.6c-0.5-19.9-1-38.7-0.8-42.4c0.6-9.1,28.7-80.5,31.6-85.8l0.5,0l0-0.9c0-0.4,0-0.7-1-0.9l0,0
	c0,0-0.1,0-0.1,0c-1.3-0.3-4.2-0.6-10.5-1.2l-0.7-0.1l-0.3,0.6c-1.3,2.8-31.8,68.7-31.8,83.9c0,4.7-0.4,16.9-0.8,30.9
	c-1.5,49.6-2,74.1-0.7,76.8c-0.5,0.4-1.4,0.9-2.7,1.5c-0.3,0.1-0.6,0.2-0.9,0.4c0,0,0,0,0,0c-0.8,0.3-1.7,0.7-2.7,1.1
	c-0.5-0.1-1.1,0-1.5,0.4c-0.1,0.1-0.2,0.2-0.3,0.3c-0.9,0.3-2,0.7-3.1,1.1c-0.5-0.1-1.1,0-1.5,0.4c-0.1,0-0.1,0.1-0.1,0.1
	c-0.8,0.2-1.6,0.5-2.4,0.7c-0.5-0.1-1.1,0-1.6,0.3c-0.1,0-0.1,0.1-0.1,0.2c-2.6,0.8-5.6,1.6-9,2.5c-4.7,1.2-6.5,4.2-7.1,5.8
	c-0.3,0.8-0.4,1.6-0.5,2.4c-0.7,2,0.1,5.6,2.6,8.2c1.7,1.7,4.5,2.2,6.9,2.2c2,0,3.7-0.3,4.1-0.5c0.4-0.1,2.7-0.8,11.3-3.1l0.6-0.2
	c0.7-0.2,3.6-0.6,6.1-0.9c5.3-0.7,8.9-1.2,10.2-1.6c2.3-0.8,3.9-2.8,4.5-4.4c0.2-0.7,0.3-1.2,0.2-1.7c1.6-3.9,2.5-10.6,1.8-14.3
	C349.3,456.6,349.3,447.3,348,396.6z M304,473.7c0.4-1.2,1.6-2.7,4.5-3.5c3.3-0.9,6.2-1.7,8.8-2.4c1,1.4,1.8,2.8,1.9,3.3
	c0,1,0.8,1.8,1.8,1.9c0,0,0,0,0,0c1,0,1.8-0.8,1.9-1.8c0-1.3-0.9-3-1.8-4.5c0.1,0,0.3-0.1,0.4-0.1c1,1.4,1.8,2.8,1.9,3.3
	c0,1,0.8,1.8,1.8,1.9c0,0,0,0,0,0c1,0,1.8-0.8,1.9-1.8c0-1.3-0.9-3.1-1.9-4.6c0.4-0.1,0.8-0.3,1.2-0.4c1,1.3,1.7,2.7,1.8,3.2
	c0,1,0.8,1.8,1.8,1.9c0,0,0,0,0,0c1,0,1.8-0.8,1.9-1.8c0-1.3-0.9-3.1-1.9-4.6c0.2-0.1,0.4-0.2,0.6-0.3c1,1.4,1.8,2.8,1.9,3.3
	c0,1,0.8,1.8,1.8,1.9c0,0,0,0,0,0c1,0,1.8-0.8,1.9-1.8c0-1.4-1.1-3.4-2.2-5c1.4-0.7,2.2-1.4,2.8-2c1.3,0.3,2.7,0.5,4.2,0.5
	c1.4,0,2.8-0.1,4-0.3c0.3,3.4-1,11.3-2.2,12.6c-1.6,1.1-12.9,2.4-14.8,2.3c-2-0.2-12.6,2.9-15.4,3.8c-2.8,1-7.7-0.7-8.5-1.9
	C303.7,476.2,303.5,474.9,304,473.7z"/>
<g>
	<g>
		<path class="st3" d="M224.2,256.9c4.6-7.2,11.6-23.4,16.7-20.1c5.1,3.2,5.8,13.9,6.7,15c0.9,1.2-12.7,15.7-14.6,16.1
			C231.2,268.2,224.2,256.9,224.2,256.9z"/>
		<path class="st6" d="M232.9,269.7c-1.2,0-3.7-1.2-10.3-11.9c-0.4-0.6-0.4-1.4,0-2c1-1.6,2.2-3.7,3.5-6c4.6-8.3,8.2-14.3,12.2-15.3
			c1.2-0.3,2.5-0.1,3.6,0.5c4.3,2.7,5.8,9.4,6.7,13.4c0.2,0.8,0.4,1.9,0.6,2.2c0.3,0.4,0.6,1.1,0.2,2.1c-1,2.7-13,16.2-15.9,16.8
			C233.3,269.7,233.1,269.7,232.9,269.7z M226.4,256.9c2.4,3.8,5.2,7.8,6.6,8.9c2.8-2,11.2-11.2,12.7-13.8c-0.2-0.6-0.4-1.4-0.7-2.7
			c-0.8-3.4-2.1-9.1-5.1-11c-0.2-0.1-0.4-0.2-0.7-0.1c-2.7,0.7-7.1,8.4-9.9,13.5C228.3,253.6,227.3,255.3,226.4,256.9z"/>
	</g>
	<g>
		<path class="st4" d="M225.8,255.8c1.7-3,4.8-6.6,7.9-7c3.1-0.4,8.7-0.5,9.9,0.5c1.2,1,3.8,3.4,3.4,4c-0.4,0.6,0.7-4.8,0.7-4.8
			l-4.8-10l-4.3-2.9l-5.5,6.2l-2.7,4.3L225.8,255.8z"/>
	</g>
	<g>
		<path class="st5" d="M232.9,269.7c-1.2,0-3.7-1.2-10.3-11.9c-0.4-0.6-0.4-1.4,0-2c1-1.6,2.2-3.7,3.5-6c4.6-8.3,8.2-14.3,12.2-15.3
			c1.2-0.3,2.5-0.1,3.6,0.5c4.3,2.7,5.8,9.4,6.7,13.4c0.2,0.8,0.4,1.9,0.6,2.2c0.3,0.4,0.6,1.1,0.2,2.1c-1,2.7-13,16.2-15.9,16.8
			C233.3,269.7,233.1,269.7,232.9,269.7z M226.4,256.9c2.4,3.8,5.2,7.8,6.6,8.9c2.8-2,11.2-11.2,12.7-13.8c-0.2-0.6-0.4-1.4-0.7-2.7
			c-0.8-3.4-2.1-9.1-5.1-11c-0.2-0.1-0.4-0.2-0.7-0.1c-2.7,0.7-7.1,8.4-9.9,13.5C228.3,253.6,227.3,255.3,226.4,256.9z"/>
	</g>
	<g>
		<path class="st7" d="M210.9,255.2l-67.7,3.4c-46.5-2.5-36,77.7-4.1,122.3h71.3C235.8,336.3,256.3,255.7,210.9,255.2z"/>
		<path class="st6" d="M210.4,382.8h-71.3c-0.6,0-1.2-0.3-1.5-0.8c-24.9-34.8-35.1-86.5-21.9-110.6c5.6-10.2,15.1-15.3,27.5-14.7
			l67.6-3.4c0,0,0.1,0,0.1,0c10.7,0.1,18.5,4.4,23.3,12.8c14.9,26-4.5,84.4-22.3,115.7C211.6,382.4,211,382.8,210.4,382.8z
			 M140.1,379.1h69.2c20.4-36.4,34.5-88.9,21.7-111.1c-4.1-7.1-10.9-10.8-20.1-10.9l-67.6,3.4c-0.1,0-0.1,0-0.2,0
			c-11.1-0.6-19.2,3.7-24.2,12.7C106.7,295.6,116.7,345.9,140.1,379.1z"/>
	</g>
	<g>
		<path class="st4" d="M189.6,270.2c-6.5,3.1-11.1,11-20,10.1c-8.8-0.9-18.3-3.7-20.7-6.3c-2.3-2.6,0.5-6.3-2.6-8.4s-9.5-0.2-10.2,0
			c-0.7,0.2-3,9.7,0,14.7s-0.5,21.3-2.8,22.7c-2.3,1.4-2.6,15.2-1.2,20.4c1.4,5.2,7.6,30.2,10.9,37.4s8.3,7.2,15.3,10.2
			s13.5,2.6,17.4,4.6s12.1,5.3,12.1,5.3l-47.4,2l-5.1-7.4c0,0-24.3-41.5-23.1-64.9c0.7-7.9,2.4-9.1,2.4-9.1l12.1-15.7l3.3-8.7
			l-3.5-6.8l-6.9,1.2L117,273l3.4-5.2l8.2-7.2l9.7-1.9h6.9l5.8,1.9l6.7,2.1l0.8,4.2l11.8,3L189.6,270.2z"/>
	</g>
	<g>
		<path class="st5" d="M210.4,382.8h-71.3c-0.6,0-1.2-0.3-1.5-0.8c-24.9-34.8-35.1-86.5-21.9-110.6c5.6-10.2,15.1-15.3,27.5-14.7
			l67.6-3.4c0,0,0.1,0,0.1,0c10.7,0.1,18.5,4.4,23.3,12.8c14.9,26-4.5,84.4-22.3,115.7C211.6,382.4,211,382.8,210.4,382.8z
			 M140.1,379.1h69.2c20.4-36.4,34.5-88.9,21.7-111.1c-4.1-7.1-10.9-10.8-20.1-10.9l-67.6,3.4c-0.1,0-0.1,0-0.2,0
			c-11.1-0.6-19.2,3.7-24.2,12.7C106.7,295.6,116.7,345.9,140.1,379.1z"/>
	</g>
	<g>
		<polygon class="st7" points="130.2,238.6 139.9,254 153.9,261.7 158.6,261.7 161.2,249 173.3,238.6 188.1,235.2 199.3,235.9 
			197.3,229.8 197.7,225.1 191.5,217.8 190.4,225.4 190.7,228.8 183.9,226.2 171.3,214.4 172.1,222.1 174,227.2 163.2,223.7 
			151.5,214.8 144.6,199.3 138.3,193 125.2,176.2 120.8,162.9 123,153.9 118.8,154.5 113,164.9 113,181.8 117.5,192.4 123.2,200.3 
			123.5,207.8 121.9,214.6 119,221.6 121.1,233 124.7,237.4 		"/>
	</g>
	<path class="st7" d="M205.2,237.6c-7.1-3.4-46.9-8.6-46.6,27.4c0,8.4,43.6,6,46.6-2.1C208.2,254.8,212.8,241.3,205.2,237.6z"/>
	<g>
		<path class="st5" d="M197.3,254.6c-0.8,0-1.6-0.5-1.8-1.4l-2.5-9l-21.1,7.5c-1,0.3-2-0.2-2.4-1.1c-0.3-1,0.2-2,1.1-2.4l23-8.1
			c0.5-0.2,1-0.1,1.5,0.1c0.5,0.2,0.8,0.7,0.9,1.2l3,10.9c0.3,1-0.3,2-1.3,2.3C197.6,254.5,197.4,254.6,197.3,254.6z"/>
	</g>
	<g>
		<path class="st4" d="M118.8,156.1c-4.2,3.1-8,16.8-7.1,20.7c1,3.9,11.6,25.1,13.3,27.3c1.7,2.2,8.2,4.9,12.6,3.8
			c4.5-1.2,4.9-9.9,4.8-10.6c-0.1-0.7-15.4-17.8-15.4-17.8l-6.1-14.7l1.6-9.3L118.8,156.1z"/>
	</g>
	<g>
		<path class="st4" d="M192.3,153.9c0.7,2.9-0.9,15.9-3.9,17.7c-3,1.8-3.1,4.7-3.1,4.7l5.7,7.9l2.1,5.4l4.5-7.2l1.6-21.4
			L192.3,153.9z"/>
	</g>
	<path class="st4" d="M131.3,184.1c3.5-14.6,30.6-13.6,47.5-10.9s18,38.1,18.5,39c0.5,0.9,0.4,9.1,2.6,15.5
		c-4.8-2.6-7.8-11.4-7.8-13.1c-1.7,1.7-2.9,10.3-0.5,14.3c-10.9-1.4-20.3-14.2-20.3-17.7c-0.6,1.9-3,5.1,3.7,15.5
		c-24.7-3-30.1-22.2-30.5-28.9C136.8,193.4,131.3,184.1,131.3,184.1z"/>
	<path class="st5" d="M208,237.3c-0.1-0.1-0.1-0.1-0.2-0.2c-0.5-0.4-1.1-0.9-1.8-1.2c-1.3-0.6-3.3-1.2-5.9-1.7
		c-0.3-1.4-0.7-3.2-1-4.8c0.6,0.3,1.4,0.2,1.9-0.3c0.6-0.5,0.8-1.3,0.6-2c-1.4-4.2-1.8-9.2-2.1-12.2c-0.2-1.9-0.2-2.7-0.4-3.3
		c0-0.3-0.1-0.8-0.2-1.6c-0.8-8.4-2.2-15.4-4.1-21.1c3.9-3,6.9-13.8,6.2-22.7c-0.7-8.4-4.3-14.3-10.6-17c-0.8-0.3-1.7-0.1-2.2,0.6
		c-0.5,0.7-0.5,1.6,0,2.3c2,2.6,2.6,5.9,2,9.7c-0.9,5.5-4.3,10.4-5.5,11.7c-1.7-1.1-3.6-1.8-5.6-2.1c-10-1.6-41.8-5.3-48.7,9.8
		c-6-8.3-9.9-18.5-4.3-30c0.4-0.8,0.2-1.7-0.5-2.2c-0.7-0.5-1.6-0.6-2.3,0c-0.5,0.4-12.2,9.4-13.7,21.9c-1.2,9.8,7.1,24.4,12.4,32.2
		c-0.1,0.2-0.2,0.4-0.3,0.6c-0.6,2.3-0.2,7.1-0.1,8.4c-1.2,1.3-2.2,2.9-3,4.7c-3,6.7-1.8,14.5,3.2,20.6c0.2,0.3,0.5,0.5,0.8,0.6
		c1.2,0.4,2.3,0.6,3.5,0.6c0.9,0,1.7-0.2,2.5-0.4c1.7,9.9,12.7,24.1,27.7,25.4c0.1,0,0.1,0,0.2,0c0.1,0,0.2,0,0.3-0.1
		c0,0.5-0.1,0.9-0.1,1.4c0,3.1,3,5.2,9,6.3c3,0.5,6.7,0.8,10.8,0.8c12.7,0,28.2-2.7,30.4-8.5C209.5,256.7,214.5,243,208,237.3z
		 M193.7,163.4c0.5-2.4,0.6-4.7,0.3-6.8c2.2,3,3.1,6.8,3.3,9.9c0.6,7.8-1.9,15.6-3.9,18.5c-1.6-3.9-3.6-7-5.8-9.3
		C189.6,173.6,192.6,168.8,193.7,163.4z M178.5,175c6.1,1,13.9,7.9,16.6,35.4c0.2,1.6,0.2,2.1,0.4,2.5c0.1,0.3,0.2,1.4,0.2,2.4
		c0.1,1.6,0.3,3.7,0.7,6c-1.6-2.8-2.5-5.8-2.5-6.6c0-0.8-0.5-1.4-1.1-1.7c-0.7-0.3-1.5-0.1-2,0.4c-1.9,1.9-3.1,8.1-2.1,13
		c-8.6-3-15.5-12.8-15.5-15.1c0-0.9-0.7-1.7-1.6-1.8c-0.1,0-0.2,0-0.3,0c-0.8,0-1.5,0.5-1.8,1.3c0,0.2-0.1,0.3-0.2,0.5
		c-0.8,2-2.1,5.4,2,13.1c-23.5-4.9-25-25.6-25.1-26.5c0-0.6-0.4-1.2-0.9-1.5c-6-3.5-10.7-10.3-12.1-12.5
		C136.9,172.7,158.9,171.9,178.5,175z M125.3,207.5c0.4,0.4,0.9,0.6,1.4,0.6c0.2,0,0.4,0,0.6-0.1c-0.8,0.3-1.5,0.6-2.2,1.1
		c0-0.6,0-1.3,0-1.9C125.2,207.3,125.3,207.4,125.3,207.5z M156.6,259.9c-15-1.3-24-16.2-24.5-23.6c0.2-0.1,0.3-0.2,0.5-0.4
		c6.2-5.6,8.2-18.4,7.3-22.1c-0.2-1-1.2-1.6-2.2-1.4c-1,0.2-1.6,1.2-1.4,2.2c0.6,2.6-1.1,13.9-6.2,18.5c-1.7,1.6-3.6,2-5.8,1.4
		c-5.5-7.1-3.5-13.8-2.4-16.3c1.8-4.1,5.4-7.1,8.8-7.2c1-0.1,1.8-0.9,1.8-2s-0.9-1.8-2-1.8c-1.1,0.1-2.1,0.3-3.2,0.7
		c0.2-0.1,0.4-0.2,0.6-0.3c0.8-0.7,0.8-1.8,0.2-2.6c-3.4-3.9-16.2-22.9-14.9-33.8c0.7-5.7,3.9-10.7,6.9-14.2
		c-3.4,17.4,10.9,31.5,19,39.6c1,0.9,1.8,1.8,2.6,2.6c0.3,0.3,0.6,0.4,0.9,0.5c1.3,9.7,9.2,26.2,32,29c0.7,0.1,1.4-0.2,1.8-0.9
		c0.4-0.6,0.4-1.4,0-2c-2-3.1-3.1-5.5-3.7-7.3c4,5.4,11,11.4,18.5,12.3c0.1,0,0.2,0,0.2,0c0.6,0,1.2-0.3,1.6-0.8
		c0.4-0.6,0.4-1.4,0-2c-1.1-1.8-1.3-4.6-1.1-7.1c0.8,1.7,1.8,3.5,3,5c0,0.1,0,0.1,0,0.2c-0.1,1.9,0.6,5.3,1.1,7.5
		c-7.9-0.9-18.6-0.2-26.9,5c-7.3,4.6-11.4,11.8-12.4,21.3C156.8,259.9,156.7,259.9,156.6,259.9z M203.4,262.2
		c-1.5,4.1-23.2,7.9-37.1,5.4c-4.9-0.9-6-2.2-6-2.7c-0.1-10.8,3.6-18.6,10.9-23.2c5.7-3.6,12.8-4.7,19-4.7c4.9,0,9.3,0.7,12,1.5
		l-3.3,1.6c-0.7,0.4-1.2,1.2-1,2l1.6,10c0.1,0.9,0.9,1.6,1.8,1.6c0.1,0,0.2,0,0.3,0c1-0.2,1.7-1.1,1.5-2.1l-1.4-8.6l4.3-2
		C209.6,245.6,205.4,257,203.4,262.2z"/>
	<g>
		<path class="st7" d="M127.3,271.5c-6.6-6.7-31.6,18.8-31.4,21.8s6.7,12.8,10.2,14.2C109.6,308.8,137.3,281.7,127.3,271.5z"/>
		<path class="st6" d="M106.2,309.3c-0.3,0-0.6,0-0.8-0.1c-4-1.6-11.1-12-11.4-15.7c-0.3-3.8,15.2-19.2,24.8-23.5
			c4.4-2,7.7-1.9,9.8,0.2l0,0c4.4,4.5,3.5,11.8-2.7,21.1C121.4,297.9,110.9,309.3,106.2,309.3z M97.7,293.3c0.5,2.7,6,10.8,8.8,12.3
			c3.1-0.9,16.7-13.5,20.3-24.2c1.3-3.8,1-6.7-0.9-8.6c-0.6-0.6-1.7-0.7-3.2-0.4C114.1,274.6,99,290.2,97.7,293.3z"/>
	</g>
	<g>
		<path class="st4" d="M127.7,274.6c-7.3-1.7-18.7,9.3-18.9,11.3c-0.2,2,0.2,10.1,1.5,11.8c1.4,1.7,1.6,7.5,2.2,7.4
			c0.6-0.1-6.7,3.2-6.7,3.2l-10.1-13.6l3.9-7L117,273l8.7-2.4l2.9,2.7L127.7,274.6z"/>
	</g>
	<g>
		<path class="st5" d="M106.2,309.3c-0.3,0-0.6,0-0.8-0.1c-4-1.6-11.1-12-11.4-15.7c-0.3-3.8,15.2-19.2,24.8-23.5
			c4.4-2,7.7-1.9,9.8,0.2l0,0c4.4,4.5,3.5,11.8-2.7,21.1C121.4,297.9,110.9,309.3,106.2,309.3z M97.7,293.3c0.5,2.7,6,10.8,8.8,12.3
			c3.1-0.9,16.7-13.5,20.3-24.2c1.3-3.8,1-6.7-0.9-8.6c-0.6-0.6-1.7-0.7-3.2-0.4C114.1,274.6,99,290.2,97.7,293.3z"/>
	</g>
	<path class="st3" d="M43.4,261.7l10.4-2.3c0.7,1.9,9.5,46.6,16.9,49.2c7.4,2.6,13.5-5.6,25.1-10.7l7,7c-4.2,4.4-23,22-37.4,17.9
		C51.1,318.6,43.4,264.7,43.4,261.7"/>
	<path class="st5" d="M70.1,325.3c-1.8,0-3.5-0.2-5.2-0.7c-16.5-4.8-23.4-62.3-23.4-62.8c0-0.9,0.6-1.6,1.5-1.8l10.4-2.3
		c0.9-0.2,1.8,0.3,2.1,1.2c0.2,0.4,0.4,1.4,1.1,4.4c8.3,36.5,12.8,43.1,14.8,43.7c3.9,1.3,7.6-1.1,12.7-4.4c3.1-2,6.7-4.3,11.1-6.3
		c0.7-0.3,1.5-0.2,2.1,0.4l7,7c0.7,0.7,0.7,1.9,0,2.6C102.2,308.3,85.4,325.3,70.1,325.3z M45.4,263.2c1,9.6,9,54.4,20.6,57.8
		c12.7,3.7,29.5-11.4,34.3-16.1l-4.8-4.7c-3.6,1.7-6.7,3.7-9.4,5.5c-5.5,3.6-10.3,6.7-15.9,4.8c-5.1-1.7-10.1-15.2-17.2-46.4
		c-0.2-0.8-0.4-1.6-0.5-2.3L45.4,263.2z"/>
	<path class="st3" d="M38.2,230.6c-2.6,0.4-7.7,0.4-8.7,3.3c-3.2,9.7,5.5,30.7,18.3,27.8c16.7-3.7,7.2-33.2,1.6-34.5
		c-5.4-1.2-11.5-1.7-11.3,1.2s6.3,13.8,3.2,13.3C38.3,241.3,38.2,230.6,38.2,230.6z"/>
	<path class="st5" d="M45.5,263.8c-3.9,0-7.7-1.9-10.9-5.4c-6-6.6-9.2-18.1-6.9-25.1c1.1-3.5,5.5-4.1,8.5-4.4c0-0.1,0-0.2,0-0.3
		c-0.1-1.1,0.3-2.2,1.2-2.9c1.9-1.6,6.1-1.7,12.4-0.3c4.9,1.1,9.3,13.3,9.3,22.1c0,8.8-3.9,14.5-10.9,16
		C47.3,263.7,46.4,263.8,45.5,263.8z M36.4,232.6c-2,0.2-4.7,0.6-5.1,1.8c-1.9,5.7,1.1,15.9,6.1,21.5c2.1,2.3,5.6,4.9,10.1,4
		c6.5-1.5,7.9-7.5,7.9-12.4c0-9.3-4.6-18.1-6.4-18.5c-5.4-1.2-8.3-1-9-0.6c0.2,0.9,1,3,1.7,4.8c2.1,5.1,3.1,7.9,1.8,9.6
		c-0.6,0.7-1.4,1-2.4,0.9C37.6,243.1,36.6,237.2,36.4,232.6z"/>
	<path class="st3" d="M247.7,249.9c14.2-9.1,14.7-63.8,12.5-66.6c14.4-2.8,7.2-21.8,4.4-26l-7.4,1.9l1.6,12.1l-2.6-9.7l-9.5,1.6
		c0,0-3,21.1,9.1,20.2c0.7,1.9-9.7,53.1-11.6,55.3L247.7,249.9z"/>
	<path class="st5" d="M247.7,251.8c-0.2,0-0.4,0-0.6-0.1c-0.5-0.2-1-0.6-1.1-1.2l-3.5-11.3c-0.2-0.6-0.1-1.2,0.3-1.7
		c1.6-3.1,10.1-43.3,11.2-52.3c-2.1-0.2-4-1.1-5.4-2.7c-5.4-5.8-3.6-19-3.5-19.6c0.1-0.8,0.7-1.4,1.5-1.6l9-1.5l0-0.3
		c-0.1-0.9,0.5-1.8,1.4-2l7.4-1.9c0.8-0.2,1.6,0.1,2,0.8c2,3,6.7,14.2,3.5,21.9c-1.3,3.1-3.8,5.3-7.2,6.4c1.2,6.9,0.5,25.3-1.7,38.6
		c-2.5,15.2-6.6,24.7-12.1,28.2C248.4,251.7,248,251.8,247.7,251.8z M246.1,238.6l2.5,8.1c10.8-11.8,11.6-58.2,10-62.4
		c-0.3-0.5-0.4-1.1-0.2-1.7c0.2-0.6,0.8-1.1,1.4-1.2c3.2-0.6,5.3-2.2,6.4-4.7c2.2-5.3-0.5-13.6-2.5-17.3l-4.5,1.1l1.4,10.4
		c0.1,1-0.5,1.9-1.5,2.1c-1,0.2-1.9-0.4-2.2-1.3l-2.2-8.1l-6.4,1.1c-0.4,4-0.4,11.9,2.7,15.2c1.1,1.2,2.6,1.7,4.5,1.6
		c0.8-0.1,1.6,0.4,1.9,1.2C258.5,185.2,249.2,230.4,246.1,238.6z"/>
	<g>
		<path class="st5" d="M182.4,410c7.7,0,18.2-11.9,27.9-29h-71.3C151.1,397.8,166.2,409.6,182.4,410z"/>
		<path class="st5" d="M182.4,410.9L182.4,410.9c-19.4-0.4-34.7-16.2-44.1-29.4l-1-1.5H212l-0.8,1.4
			C200.5,400.1,190,410.9,182.4,410.9z M140.9,381.9c9.2,12.5,23.6,26.8,41.5,27.1c6.6,0,16.4-10.1,26.3-27.1H140.9z"/>
	</g>
	<g>
		<path class="st5" d="M203.2,393.6c3.6,8.7,1.5,56.6,2.1,61c0.6,4.3-11.4,0-11.4,0l0.4-51.3L203.2,393.6z"/>
		<path class="st5" d="M202.6,457.3c-3.3,0-7.9-1.6-9-2l-0.6-0.2l0.4-52.3l10.2-11l0.6,1.3c2.6,6.3,2.3,31.4,2.1,48
			c-0.1,6.7-0.1,11.9,0,13.1c0.2,1.2-0.3,1.9-0.8,2.2C204.8,457.1,203.8,457.3,202.6,457.3z M194.8,453.9c3.9,1.3,8.4,2.2,9.5,1.3
			c0.1-0.1,0.2-0.1,0.1-0.5c-0.2-1.4-0.1-6.4,0-13.4c0.2-14.5,0.5-38-1.5-45.9l-7.6,8.3L194.8,453.9z"/>
	</g>
	<g>
		<path class="st5" d="M160,402.2c-4.2,8.1,0,54.3,0,54.3h13.2c0,0-1.2-32.3-1.9-37.2c-0.6-5,0-11.3,0-11.3L160,402.2z"/>
		<path class="st5" d="M174.1,457.4h-15l-0.1-0.8c-0.2-1.9-4.1-46.5,0.1-54.8l0.4-0.8l12.7,6.5l-0.1,0.6c0,0.1-0.6,6.3,0,11.1
			c0.6,4.9,1.8,36,1.9,37.3L174.1,457.4z M160.8,455.5h11.4c-0.2-5.4-1.3-31.8-1.8-36.2c-0.5-4.1-0.2-9.1-0.1-10.9l-9.9-5
			C157.8,411.1,159.5,440,160.8,455.5z"/>
	</g>
	<g>
		<path class="st5" d="M167.8,477.3c-2.2,0-4-1.8-4-4c0-2.2,1.8-4,4-4c2.2,0,4,1.8,4,4C171.8,475.5,170,477.3,167.8,477.3z
			 M167.8,472.9c-0.2,0-0.3,0.1-0.3,0.3c0,0.3,0.6,0.3,0.6,0C168.1,473.1,168,472.9,167.8,472.9z"/>
	</g>
	<path class="st5" d="M175.7,464.7c-0.4-2.8-1-6.7-0.8-7.6c0.2-0.6,0.1-1.2-0.2-1.7c-0.4-0.5-0.9-0.7-1.5-0.8
		c-3.1,0.1-11.3,0.2-12.9,0c-0.8-0.1-1.6,0.4-1.9,1.2c-0.5,1.5-0.5,3.1-0.5,4.7c0,2,0.1,3.9-0.8,4.8c-0.3,0.2-0.9,0.3-1.7,0.4
		c-0.5-0.3-1-0.4-1.6-0.2c-0.2,0.1-0.3,0.2-0.4,0.3c-0.9,0-1.8,0-2.8,0c-0.5-0.3-1.1-0.4-1.7-0.2c-0.1,0-0.2,0.1-0.3,0.2
		c-1.5,0-3.1-0.1-4.5-0.2c0,0,0,0,0,0c-0.2,0-0.4,0-0.6,0c-4.8-0.2-8.7-0.3-11.6-0.2c0,0-0.1,0-0.1,0c-2.5,0.1-4.4,0.5-5.5,1.2
		c-5,3.2-6.9,9.9-6.6,13.5c0.1,0.8,0.3,1.6,0.7,2.3c-0.1,1.4,0,3.6,0.9,3.9c6.1,2.3,32.5-1.3,39.5,1c6.9,2.3,13.7-0.4,14.4-2
		c0.6-1.3,0.7-4.7,0.7-6.4c0.4-0.6,0.6-1.1,0.8-1.7C177.2,475,176.6,470.8,175.7,464.7z M134.6,469.1c1.1,0,2.2,0,3.3,0.1
		c0.6,1.9,1,3.9,0.9,4.4c-0.3,1,0.2,2,1.1,2.4c0.2,0.1,0.4,0.1,0.6,0.1c0.8,0,1.5-0.5,1.7-1.2c0.5-1.4,0.1-3.6-0.5-5.6
		c0.2,0,0.5,0,0.7,0c0.6,1.9,1,3.9,0.9,4.4c-0.3,1,0.2,2,1.1,2.4c0.2,0.1,0.4,0.1,0.6,0.1c0.8,0,1.5-0.5,1.7-1.2
		c0.5-1.4,0.1-3.6-0.5-5.5c0.6,0,1.1,0,1.7,0.1c0.6,1.8,0.9,3.6,0.8,4.1c-0.3,1,0.2,2,1.1,2.4c0.2,0.1,0.4,0.1,0.6,0.1
		c0.8,0,1.5-0.5,1.7-1.2c0.5-1.3,0.1-3.4-0.4-5.3c0.3,0,0.7,0,1,0c0.5,1.8,0.9,3.5,0.8,4c-0.3,1,0.2,2,1.1,2.4
		c0.2,0.1,0.4,0.1,0.6,0.1c0.8,0,1.5-0.5,1.7-1.2c0.5-1.4,0.1-3.7-0.5-5.6c1.2-0.2,2-0.6,2.6-1.2c2.1-2.1,2-5.1,2-7.5
		c0-0.7,0-1.5,0-2.1c2.6,0.1,7.1,0,9.7,0c0.1,1.6,0.4,3.8,0.9,6.9c0.6,3.7,1.4,9.3,0.9,10.8c-0.9,2.9-6.5,6.1-8.7,5.6
		c-3.1-0.7-14.9-1.4-16.3-0.9c-0.9,0.1-7.8,0.5-12.7,0.8c1.1-5,0.1-9.7-0.8-12.4C134.5,469.1,134.6,469.1,134.6,469.1z M128.1,469.7
		c0.4-0.3,1.3-0.4,2.4-0.5c0.8,2.2,2.2,7.3,0.8,12.5c-1.7,0.1-3.1,0.2-3.7,0.2c-1,0.1-4.2,0.1-4.4-2.1
		C123,477,124.7,471.9,128.1,469.7z"/>
	<g>
		<path class="st5" d="M198.2,477.3c-2.2,0-4-1.8-4-4c0-2.2,1.8-4,4-4s4,1.8,4,4C202.3,475.5,200.5,477.3,198.2,477.3z M198.2,472.9
			c-0.2,0-0.3,0.1-0.3,0.3c0,0.3,0.6,0.3,0.6,0C198.5,473.1,198.4,472.9,198.2,472.9z"/>
	</g>
	<path class="st5" d="M239.9,466.6c-1.1-0.7-3-1-5.5-1.2c0,0-0.1,0-0.1,0c-2.9-0.1-6.8,0-11.6,0.2c-0.2,0-0.4,0-0.6,0c0,0,0,0,0,0
		c-1.4,0.1-2.9,0.1-4.5,0.2c-0.1-0.1-0.2-0.1-0.3-0.2c-0.6-0.2-1.2-0.1-1.7,0.2c-1,0-1.9,0-2.7,0c-0.1-0.1-0.3-0.2-0.5-0.3
		c-0.6-0.2-1.1-0.1-1.6,0.2c-0.7-0.1-1.3-0.2-1.5-0.3c-1-1-1-2.9-0.9-4.9c0-1.6,0-3.3-0.5-4.7c-0.3-0.8-1.1-1.3-1.9-1.2
		c-1.6,0.2-9.9,0-12.9,0c-0.7,0-1.2,0.3-1.6,0.8c-0.4,0.5-0.4,1.1-0.2,1.7c0.2,0.9-0.4,4.8-0.8,7.6c-0.9,6.1-1.5,10.3-0.8,12.6
		c0.2,0.6,0.5,1.2,0.8,1.7c0,1.7,0.1,5.1,0.7,6.4c0.7,1.6,7.4,4.3,14.4,2c6.9-2.3,33.4,1.3,39.5-1c0.9-0.4,1-2.6,0.9-3.9
		c0.4-0.7,0.6-1.4,0.7-2.3C246.8,476.5,244.9,469.8,239.9,466.6z M242.8,479.8c-0.2,2.3-3.4,2.2-4.4,2.2c-0.6,0-2-0.1-3.7-0.2
		c-1.4-5.2,0-10.3,0.8-12.5c1.1,0.1,2,0.3,2.4,0.5C241.3,471.9,243,477,242.8,479.8z M194,465.2c0.5-3.1,0.8-5.3,0.9-6.9
		c2.6,0,7.1,0.1,9.7,0c0,0.6,0,1.3,0,2.1c0,2.4-0.1,5.4,2,7.5c0.5,0.6,1.4,0.9,2.6,1.2c-0.5,1.9-1,4.2-0.5,5.6
		c0.3,0.8,1,1.2,1.8,1.2c0.2,0,0.4,0,0.6-0.1c1-0.3,1.5-1.4,1.1-2.4c-0.1-0.5,0.2-2.2,0.8-4c0.3,0,0.7,0,1,0c-0.5,1.8-0.9,4-0.4,5.3
		c0.3,0.8,1,1.2,1.8,1.2c0.2,0,0.4,0,0.6-0.1c1-0.3,1.5-1.4,1.1-2.4c-0.1-0.5,0.2-2.3,0.8-4.1c0.5,0,1.1,0,1.7-0.1
		c-0.5,1.9-1,4.2-0.5,5.5c0.3,0.8,1,1.2,1.8,1.2c0.2,0,0.4,0,0.6-0.1c1-0.3,1.5-1.4,1.1-2.4c-0.1-0.6,0.3-2.5,0.9-4.4
		c0.2,0,0.5,0,0.7,0c-0.5,1.9-1,4.2-0.5,5.6c0.3,0.8,1,1.2,1.8,1.2c0.2,0,0.4,0,0.6-0.1c1-0.3,1.5-1.4,1.1-2.4
		c-0.1-0.6,0.3-2.5,0.9-4.5c1.2,0,2.4-0.1,3.5,0c-0.9,2.8-1.8,7.4-0.8,12.4c-5-0.3-11.8-0.6-12.6-0.7c-0.4-0.1-1.3-0.2-2.7-0.2
		c-4.1,0-11.5,0.5-13.8,1.1c-2.2,0.5-7.8-2.7-8.7-5.6C192.6,474.5,193.4,468.9,194,465.2z"/>
</g>
<g>
	<path class="st5" d="M421.4,433.5h-16.1c0.7,12.2,1.2,21,1.3,22.1c0,0.2,0.1,0.3,0.1,0.5c-0.5,0.4-1.3,0.8-2.4,1.3
		c-0.3,0.1-0.6,0.2-0.9,0.4c0,0,0,0,0,0c-0.8,0.3-1.7,0.7-2.7,1.1c-0.5-0.1-1.1,0-1.5,0.3c-0.1,0.1-0.2,0.2-0.3,0.3
		c-0.9,0.3-2,0.7-3.1,1.1c-0.5-0.1-1,0-1.5,0.4c0,0-0.1,0.1-0.1,0.1c-0.8,0.2-1.6,0.5-2.4,0.8c-0.5-0.1-1.1,0-1.6,0.3
		c-0.1,0-0.1,0.1-0.1,0.2c-2.6,0.8-5.6,1.6-9,2.5c-4.7,1.2-6.5,4.2-7.1,5.8c-0.3,0.8-0.4,1.6-0.5,2.4c-0.7,2,0.1,5.6,2.6,8.2
		c1.7,1.7,4.5,2.2,6.9,2.2c2,0,3.7-0.3,4.1-0.5c0.4-0.1,2.6-0.8,11.3-3l0.7-0.2c0.7-0.2,3.6-0.6,6.1-0.9c5.3-0.7,8.9-1.2,10.2-1.6
		c2.3-0.8,3.9-2.8,4.5-4.4c0.2-0.7,0.3-1.2,0.2-1.7c1.6-4.1,2.6-11.3,1.7-14.9C422.5,454.1,422.4,447.9,421.4,433.5z M416.3,470.7
		c-1.6,1.1-13,2.3-14.8,2.3c-1.9-0.2-12.7,2.9-15.4,3.8c-2.8,1-7.7-0.7-8.5-1.9c-0.3-0.4-0.5-1.7-0.1-3c0.4-1.2,1.6-2.8,4.5-3.5
		c3.3-0.9,6.2-1.7,8.8-2.4c1,1.4,1.8,2.8,1.9,3.3c0,1,0.8,1.8,1.8,1.9c0,0,0,0,0,0c1,0,1.8-0.8,1.9-1.8c0-1.3-0.9-3-1.8-4.5
		c0.1,0,0.3-0.1,0.4-0.1c1,1.4,1.8,2.8,1.9,3.3c0,1,0.8,1.8,1.8,1.9c0,0,0,0,0,0c1,0,1.8-0.8,1.9-1.8c0-1.3-0.9-3.1-1.9-4.6
		c0.4-0.1,0.8-0.3,1.2-0.4c1,1.3,1.7,2.7,1.8,3.2c0,1,0.8,1.8,1.8,1.9c0,0,0,0,0,0c1,0,1.8-0.8,1.9-1.8c0-1.3-0.9-3.1-1.9-4.6
		c0.2-0.1,0.4-0.2,0.6-0.3c1,1.4,1.8,2.8,1.9,3.3c0,1,0.8,1.8,1.8,1.9c0,0,0,0,0,0c1,0,1.8-0.8,1.9-1.8c0-1.4-1.1-3.4-2.2-5
		c1-0.6,1.8-1.1,2.3-1.5c1,0.2,2.1,0.4,3.3,0.4c1.8,0,3.8-0.3,5.4-0.7C418.8,461.4,417.5,469.3,416.3,470.7z"/>
	<path class="st5" d="M415.9,322.1c0-25-0.2-52.6-0.2-54.6l0-0.9h-11.4v0.9c0,0.4-0.2,5-0.5,11.4c-0.5,11.2-1.3,27.8-2,43.2H415.9z"
		/>
</g>
</svg>
