<?xml version="1.0" encoding="utf-8"?>
<!-- Generator: Adobe Illustrator 19.2.0, SVG Export Plug-In . SVG Version: 6.00 Build 0)  -->
<svg version="1.1" id="Layer_1" xmlns="http://www.w3.org/2000/svg" xmlns:xlink="http://www.w3.org/1999/xlink" x="0px" y="0px"
	 viewBox="0 0 700 400" style="enable-background:new 0 0 700 400;" xml:space="preserve">
<style type="text/css">
	.st0{opacity:0.5;}
	.st1{fill:#456CB3;}
	.st2{fill:#BEDFF4;}
	.st3{fill:none;stroke:#466CB3;stroke-width:5;stroke-miterlimit:10;}
	.st4{opacity:0.5;fill:#456CB3;enable-background:new    ;}
	.st5{fill:#466CB3;}
</style>
<g class="st0">
	<path class="st1" d="M255.4,78.1v17h10.5v-17h9v44.5h-9v-19.8h-10.5v19.8h-9V78.1H255.4z"/>
	<path class="st1" d="M306,85.5h-15.9V96h15v7.4h-15v12h16.5v7.4h-25.5V78.1H306V85.5z"/>
	<path class="st1" d="M324.2,95.3h0.1l6.2-17.2h9.7l-11.5,27v17.5h-9v-17.5l-11.5-27h10.1L324.2,95.3z"/>
	<path class="st1" d="M382.3,85.5h-9.7v37.2h-9V85.5h-9.7v-7.4h28.4L382.3,85.5L382.3,85.5z"/>
	<path class="st1" d="M395.1,78.1v17h10.5v-17h9v44.5h-9v-19.8h-10.5v19.8h-9V78.1H395.1z"/>
	<path class="st1" d="M445.7,85.5h-15.9V96h15v7.4h-15v12h16.5v7.4h-25.5V78.1h24.9V85.5z"/>
	<path class="st1" d="M467.4,78.1c3.7,0,6.6,0.9,8.7,2.8s3.1,4.8,3.1,8.6c0,3-0.6,5.4-1.8,7.3c-1.2,1.9-3.1,3.1-5.6,3.6v0.1
		c2.2,0.3,3.9,1.1,4.9,2.2s1.7,2.9,1.9,5.4c0.1,0.8,0.1,1.7,0.2,2.7c0,1,0.1,2.1,0.1,3.3c0.1,2.4,0.2,4.2,0.4,5.4
		c0.2,1.2,0.8,2.1,1.6,2.6v0.4h-9.7c-0.5-0.6-0.7-1.3-0.9-2.2c-0.1-0.8-0.2-1.7-0.2-2.5l-0.2-8.5c-0.1-1.7-0.5-3.1-1.3-4.1
		s-2.1-1.5-4-1.5h-4.8v18.8h-9V78.1H467.4z M463.5,97.6c2.2,0,3.8-0.5,5-1.5s1.7-2.7,1.7-5.1c0-4.1-2.1-6.2-6.2-6.2h-4.2v12.8
		C459.8,97.6,463.5,97.6,463.5,97.6z"/>
	<path class="st1" d="M510.3,85.5h-15.9V96h15v7.4h-15v12H511v7.4h-25.5V78.1h24.9v7.4H510.3z"/>
</g>
<g>
	<g>
		<path class="st1" d="M246.1,128.7h14.4v71.5h-14.4V128.7z"/>
		<path class="st1" d="M285.3,149.1c-0.4,2.2-1.1,4.2-2.1,5.8s-2.4,3-4.1,4s-3.9,1.7-6.6,2v-7c1.7-0.3,3-1.3,3.9-2.8
			s1.3-3.2,1.3-5.1v-1.6h-5.2v-15.6h13.2v13C285.8,144.4,285.7,146.9,285.3,149.1z"/>
		<path class="st1" d="M319,128.7l10.2,50.5h0.2l10.3-50.5H361v71.5h-13.2v-57.1h-0.2l-12.7,57.1h-11.2l-12.7-57h-0.2v57.1h-13.2
			v-71.5L319,128.7L319,128.7z"/>
		<path class="st1" d="M422.1,128.7c6,0,10.7,1.5,14,4.6c3.3,3,5,7.7,5,13.9c0,4.8-1,8.7-2.9,11.8c-1.9,3-4.9,5-9,5.9v0.2
			c3.6,0.5,6.2,1.7,7.9,3.5c1.7,1.8,2.7,4.7,3.1,8.7c0.1,1.3,0.2,2.8,0.3,4.4c0.1,1.6,0.1,3.3,0.2,5.3c0.1,3.8,0.3,6.7,0.6,8.7
			c0.4,2,1.3,3.4,2.6,4.1v0.6h-15.6c-0.7-1-1.2-2.2-1.4-3.5c-0.2-1.3-0.3-2.7-0.4-4.1l-0.4-13.7c-0.1-2.8-0.8-5-2.1-6.6
			c-1.3-1.6-3.4-2.4-6.4-2.4h-7.7v30.3h-14.4v-71.5h26.6V128.7z M415.9,160c3.5,0,6.1-0.8,8-2.5c1.9-1.6,2.8-4.4,2.8-8.3
			c0-6.6-3.3-9.9-10-9.9h-6.8V160H415.9z"/>
		<path class="st1" d="M451.9,128.7h14.4v71.5h-14.4V128.7z"/>
		<path class="st1" d="M505.7,141.5c-1.2-2.4-3.5-3.6-6.8-3.6c-1.8,0-3.3,0.5-4.5,1.5s-2.1,2.5-2.8,4.7c-0.7,2.2-1.1,5-1.4,8.5
			s-0.4,7.8-0.4,12.9c0,5.4,0.2,9.8,0.6,13.1s0.9,5.9,1.7,7.8c0.8,1.8,1.7,3.1,2.9,3.7c1.2,0.6,2.5,1,4.1,1c1.3,0,2.5-0.2,3.6-0.7
			c1.1-0.4,2.1-1.3,2.9-2.6s1.4-3.1,1.9-5.5s0.7-5.5,0.7-9.4h14.4c0,3.9-0.3,7.5-0.9,11c-0.6,3.5-1.7,6.5-3.4,9.1
			c-1.6,2.6-3.9,4.6-6.9,6.1c-3,1.5-6.8,2.2-11.6,2.2c-5.4,0-9.7-0.9-12.9-2.6c-3.2-1.7-5.7-4.2-7.4-7.5c-1.7-3.3-2.8-7.2-3.3-11.7
			s-0.8-9.6-0.8-15s0.3-10.4,0.8-15s1.6-8.5,3.3-11.8c1.7-3.3,4.2-5.8,7.4-7.7c3.2-1.8,7.5-2.8,12.9-2.8c5.1,0,9.2,0.8,12.2,2.5
			s5.2,3.8,6.7,6.4c1.5,2.6,2.4,5.3,2.8,8.3c0.4,3,0.6,5.8,0.6,8.4h-14.4C507.6,147.7,507,143.9,505.7,141.5z"/>
		<path class="st1" d="M545.3,128.7v27.4h16.8v-27.4h14.4v71.5h-14.4v-31.8h-16.8v31.8h-14.4v-71.5H545.3z"/>
		<path class="st1" d="M587.3,128.7h14.4v71.5h-14.4V128.7z"/>
		<path class="st1" d="M652.4,140.6h-25.6v16.8h24v11.8h-24v19.2h26.6v11.8h-41v-71.5h40V140.6z"/>
	</g>
</g>
<g class="st0">
	<g>
		<path class="st1" d="M247.1,214.7h9.4v46.5h-9.4V214.7z"/>
		<path class="st1" d="M272.6,227.9c-0.2,1.5-0.7,2.7-1.3,3.8c-0.7,1.1-1.5,1.9-2.6,2.6c-1.1,0.7-2.5,1.1-4.3,1.3V231
			c1.1-0.2,2-0.8,2.5-1.8c0.6-1,0.8-2.1,0.8-3.3v-1h-3.4v-10.2h8.6v8.5C272.9,224.9,272.8,226.5,272.6,227.9z"/>
		<path class="st1" d="M294.5,214.7l6.6,32.8h0.1l6.7-32.8h13.9v46.5h-8.6V224h-0.1l-8.3,37.1h-7.3l-8.3-37.1h-0.1v37.1h-8.6v-46.5
			L294.5,214.7L294.5,214.7z"/>
		<path class="st1" d="M351.7,248c0,1.1,0.1,2.1,0.3,3c0.2,0.9,0.5,1.6,1,2.2c0.5,0.6,1.1,1.1,1.9,1.4s1.8,0.5,3,0.5
			c1.4,0,2.7-0.5,3.9-1.4c1.1-0.9,1.7-2.4,1.7-4.3c0-1-0.1-1.9-0.4-2.7s-0.7-1.4-1.4-2.1c-0.7-0.6-1.5-1.2-2.6-1.7s-2.4-1-3.9-1.5
			c-2.1-0.7-3.9-1.5-5.4-2.3s-2.8-1.8-3.8-2.9c-1-1.1-1.8-2.4-2.2-3.8c-0.5-1.5-0.7-3.1-0.7-5c0-4.6,1.3-8,3.8-10.3
			c2.6-2.3,6.1-3.4,10.6-3.4c2.1,0,4,0.2,5.8,0.7s3.3,1.2,4.6,2.2c1.3,1,2.3,2.3,3,3.9c0.7,1.6,1.1,3.5,1.1,5.7v1.3h-9
			c0-2.2-0.4-3.9-1.2-5.1s-2.1-1.8-3.9-1.8c-1,0-1.9,0.2-2.6,0.5s-1.2,0.7-1.7,1.2c-0.4,0.5-0.7,1.1-0.8,1.7c-0.2,0.7-0.2,1.3-0.2,2
			c0,1.4,0.3,2.6,0.9,3.6s1.9,1.9,3.9,2.7l7.2,3.1c1.8,0.8,3.2,1.6,4.4,2.4c1.1,0.8,2,1.8,2.7,2.7c0.7,1,1.1,2.1,1.4,3.2
			c0.3,1.2,0.4,2.5,0.4,3.9c0,4.9-1.4,8.5-4.3,10.7c-2.8,2.2-6.8,3.4-11.9,3.4c-5.3,0-9.1-1.2-11.4-3.5c-2.3-2.3-3.4-5.6-3.4-9.9
			v-1.9h9.4v1.6H351.7z"/>
		<path class="st1" d="M384.2,214.7l5.1,34.4h0.1l5.5-34.4h9l5.5,34.4h0.1l5.1-34.4h9l-8.5,46.5h-10.5l-5.2-33.7h-0.1l-5.2,33.7
			h-10.5l-8.5-46.5L384.2,214.7L384.2,214.7z"/>
		<path class="st1" d="M453.4,222.4h-16.6v10.9h15.6v7.7h-15.6v12.5h17.3v7.7h-26.6v-46.5h26L453.4,222.4L453.4,222.4z"/>
		<path class="st1" d="M484.8,222.4h-16.6v10.9h15.6v7.7h-15.6v12.5h17.3v7.7h-26.6v-46.5h26L484.8,222.4L484.8,222.4z"/>
		<path class="st1" d="M517.3,222.4h-10.2v38.8h-9.4v-38.8h-10.2v-7.7h29.7v7.7H517.3z"/>
	</g>
</g>
<g class="st0">
	<g>
		<path class="st1" d="M260.9,266l7.2,27.1h-5.7l-1.3-5.7H254l-1.3,5.7H247l7.2-27.1H260.9z M260.2,282.9l-2.6-12.2h-0.1l-2.6,12.2
			H260.2z"/>
		<path class="st1" d="M282.9,284.6L282.9,284.6L283,266h5v27.1h-6.2l-6.7-18.9H275v18.9h-5V266h6.3L282.9,284.6z"/>
		<path class="st1" d="M301,266c1.9,0,3.4,0.3,4.6,0.9s2.1,1.5,2.7,2.7c0.6,1.1,1.1,2.5,1.3,4.1c0.2,1.6,0.3,3.4,0.3,5.4
			c0,2.4-0.1,4.4-0.4,6.2s-0.8,3.2-1.5,4.3c-0.7,1.1-1.7,2-2.8,2.5c-1.2,0.6-2.7,0.8-4.5,0.8H292V266H301z M299.9,289.1
			c1,0,1.7-0.2,2.3-0.5c0.6-0.3,1-0.9,1.4-1.6s0.6-1.8,0.7-3s0.2-2.8,0.2-4.6c0-1.5-0.1-2.9-0.2-4.1s-0.3-2.1-0.6-2.9
			c-0.3-0.8-0.8-1.4-1.4-1.7c-0.6-0.4-1.4-0.6-2.5-0.6h-2.3v19L299.9,289.1L299.9,289.1z"/>
		<path class="st1" d="M333.2,266l7.2,27.1h-5.7l-1.3-5.7h-7.2l-1.3,5.7h-5.7l7.2-27.1H333.2z M332.5,282.9l-2.6-12.2h-0.1
			l-2.6,12.2H332.5z"/>
		<path class="st1" d="M352.3,266c2.3,0,4,0.6,5.3,1.7c1.3,1.2,1.9,2.9,1.9,5.2c0,1.8-0.4,3.3-1.1,4.5c-0.7,1.1-1.9,1.9-3.4,2.2v0.1
			c1.4,0.2,2.4,0.6,3,1.3c0.6,0.7,1,1.8,1.2,3.3c0,0.5,0.1,1.1,0.1,1.6c0,0.6,0.1,1.3,0.1,2c0,1.4,0.1,2.5,0.2,3.3
			c0.2,0.8,0.5,1.3,1,1.6v0.2h-5.9c-0.3-0.4-0.5-0.8-0.5-1.3c-0.1-0.5-0.1-1-0.2-1.5l-0.2-5.2c-0.1-1.1-0.3-1.9-0.8-2.5
			s-1.3-0.9-2.4-0.9h-2.9V293h-5.5v-27H352.3z M350,277.9c1.3,0,2.3-0.3,3-0.9s1.1-1.7,1.1-3.1c0-2.5-1.3-3.8-3.8-3.8h-2.6v7.8H350z
			"/>
		<path class="st1" d="M378.5,270.5h-5.9v22.6h-5.5v-22.6h-5.9V266h17.3V270.5z"/>
		<path class="st1" d="M381.1,266h5.5v27.1h-5.5V266z"/>
		<path class="st1" d="M405.7,266v4.5H396v6.4h9.1v4.5H396v11.7h-5.5V266H405.7z"/>
		<path class="st1" d="M408.4,266h5.5v27.1h-5.5V266z"/>
		<path class="st1" d="M428.8,270.9c-0.5-0.9-1.3-1.3-2.6-1.3c-0.7,0-1.2,0.2-1.7,0.5c-0.4,0.4-0.8,1-1,1.8
			c-0.3,0.8-0.4,1.9-0.5,3.2c-0.1,1.3-0.2,3-0.2,4.9c0,2,0.1,3.7,0.2,5s0.4,2.2,0.6,2.9c0.3,0.7,0.7,1.2,1.1,1.4
			c0.4,0.2,1,0.4,1.5,0.4s0.9-0.1,1.3-0.2s0.8-0.5,1.1-1c0.3-0.5,0.5-1.2,0.7-2.1s0.3-2.1,0.3-3.5h5.5c0,1.5-0.1,2.9-0.3,4.2
			c-0.2,1.3-0.7,2.5-1.3,3.4s-1.5,1.8-2.6,2.3c-1.1,0.6-2.6,0.8-4.4,0.8c-2,0-3.7-0.3-4.9-1c-1.2-0.7-2.1-1.6-2.8-2.8
			c-0.6-1.2-1.1-2.7-1.3-4.4s-0.3-3.6-0.3-5.7c0-2,0.1-3.9,0.3-5.7c0.2-1.7,0.6-3.2,1.3-4.5c0.6-1.2,1.6-2.2,2.8-2.9
			c1.2-0.7,2.8-1,4.9-1c1.9,0,3.5,0.3,4.6,0.9s2,1.4,2.5,2.4s0.9,2,1,3.1s0.2,2.2,0.2,3.2h-5.5C429.5,273.2,429.3,271.8,428.8,270.9
			z"/>
		<path class="st1" d="M438.6,266h5.5v27.1h-5.5V266z"/>
		<path class="st1" d="M460.1,266l7.2,27.1h-5.7l-1.3-5.7h-7.2l-1.3,5.7h-5.7l7.2-27.1H460.1z M459.4,282.9l-2.6-12.2h-0.1
			l-2.6,12.2H459.4z"/>
		<path class="st1" d="M469.1,266h5.5v22.6h9.7v4.5h-15.1V266H469.1z"/>
		<path class="st1" d="M486.7,266h5.5v22.6h9.7v4.5h-15.1V266H486.7z"/>
		<path class="st1" d="M508.7,276.5L508.7,276.5l3.9-10.5h5.9l-7,16.4V293H506v-10.6l-7-16.4h6.1L508.7,276.5z"/>
	</g>
</g>
<g class="st0">
	<path class="st1" d="M247,297.5h7.7v38H247V297.5z"/>
	<path class="st1" d="M278.5,323.6h0.1v-26.1h7v38h-8.7l-9.4-26.6h-0.1v26.6h-7v-38h8.8L278.5,323.6z"/>
	<path class="st1" d="M313.2,303.8h-8.3v31.8h-7.7v-31.8h-8.3v-6.3h24.3V303.8z"/>
	<path class="st1" d="M337.8,303.8h-13.6v9H337v6.3h-12.8v10.2h14.1v6.3h-21.8v-38h21.3L337.8,303.8L337.8,303.8z"/>
	<path class="st1" d="M342.2,297.5h7.7v31.8h13.6v6.3h-21.3L342.2,297.5L342.2,297.5z"/>
	<path class="st1" d="M366.8,297.5h7.7v31.8h13.6v6.3h-21.3L366.8,297.5L366.8,297.5z"/>
	<path class="st1" d="M391.9,297.5h7.7v38h-7.7V297.5z"/>
	<path class="st1" d="M421.9,306.6c-0.2-0.7-0.4-1.4-0.8-2.1c-0.4-0.6-0.8-1.1-1.4-1.5s-1.2-0.6-2-0.6c-1.8,0-3.2,1-4,3.1
		s-1.2,5.5-1.2,10.2c0,2.3,0.1,4.3,0.2,6.2c0.1,1.8,0.4,3.4,0.8,4.7c0.4,1.3,0.9,2.3,1.6,3s1.6,1,2.7,1c0.5,0,1-0.1,1.5-0.4
		c0.6-0.2,1.1-0.6,1.5-1.1c0.5-0.5,0.9-1.1,1.2-1.9c0.3-0.8,0.5-1.7,0.5-2.7v-3.9h-5.1V315h12.4v20.5h-5.6V332h-0.1
		c-0.9,1.5-2,2.5-3.3,3.2c-1.3,0.6-2.9,0.9-4.7,0.9c-2.3,0-4.3-0.4-5.7-1.2c-1.5-0.8-2.6-2.1-3.5-3.8c-0.8-1.7-1.4-3.8-1.7-6.3
		c-0.3-2.5-0.4-5.4-0.4-8.7c0-3.2,0.2-6,0.6-8.4s1.1-4.4,2.1-6s2.3-2.8,3.9-3.7c1.6-0.8,3.7-1.2,6.1-1.2c4.2,0,7.2,1,9.1,3.1
		c1.8,2.1,2.8,5.1,2.8,8.9H422C422.1,308.1,422.1,307.4,421.9,306.6z"/>
	<path class="st1" d="M456.1,303.8h-13.6v9h12.8v6.3h-12.8v10.2h14.1v6.3h-21.8v-38h21.3V303.8z"/>
	<path class="st1" d="M478.6,323.6h0.1v-26.1h7v38H477l-9.4-26.6h-0.1v26.6h-7v-38h8.8L478.6,323.6z"/>
	<path class="st1" d="M513.4,303.8h-8.3v31.8h-7.7v-31.8h-8.3v-6.3h24.3V303.8z"/>
</g>
<ellipse class="st2" cx="163.5" cy="228.6" rx="5" ry="52.4"/>
<ellipse class="st2" cx="53.3" cy="226.5" rx="5" ry="52.2"/>
<g>
	<path class="st3" d="M162.5,285H53.3c0,0-37.6-154.6,57.5-154.8C197.7,130,162.5,285,162.5,285z"/>
	<path class="st3" d="M162.1,304.6H53.9c-0.3,0-0.6-0.3-0.6-0.6v-18.4c0-0.3,0.3-0.6,0.6-0.6h108.2c0.3,0,0.6,0.3,0.6,0.6V304
		C162.6,304.3,162.4,304.6,162.1,304.6z"/>
	<ellipse class="st3" cx="108" cy="192.9" rx="44.7" ry="35.5"/>
	<ellipse class="st3" cx="95.5" cy="188.8" rx="6.5" ry="6.3"/>
	<ellipse class="st3" cx="122" cy="188.8" rx="6.5" ry="6.3"/>
	<line class="st3" x1="112.4" y1="130.2" x2="112.4" y2="121"/>
	<rect x="67.9" y="304.6" class="st3" width="16.1" height="33.2"/>
	<path class="st3" d="M87.9,349.3H59.6c-0.7,0-1.2-0.6-1.2-1.2v-9c0-0.7,0.6-1.2,1.2-1.2H88c0.7,0,1.2,0.6,1.2,1.2v9
		C89.2,348.7,88.6,349.3,87.9,349.3z"/>
	<line class="st3" x1="70" y1="315.3" x2="84" y2="315.3"/>
	<line class="st3" x1="69.1" y1="326.3" x2="84" y2="326.3"/>
	<rect x="132.5" y="304.6" class="st3" width="16.1" height="33.2"/>
	<path class="st3" d="M157.2,349.3h-28.4c-0.7,0-1.2-0.6-1.2-1.2v-9c0-0.7,0.6-1.2,1.2-1.2h28.4c0.7,0,1.2,0.6,1.2,1.2v9
		C158.4,348.7,157.8,349.3,157.2,349.3z"/>
	<line class="st3" x1="134.6" y1="315.3" x2="148.6" y2="315.3"/>
	<line class="st3" x1="133.7" y1="326.3" x2="148.6" y2="326.3"/>
	<path class="st4" d="M101.9,116v4.9c3.6-0.6,7.5-0.8,11.6-0.8c5,0,9.1,0.4,11.2,0.7v-4.7c-3.9-1.4-7.8-2.1-11.7-2.1
		C107.5,114,103.5,115.4,101.9,116z"/>
	<path class="st5" d="M95,103.5c2.4,2.9,4.6,8.2,5.5,10.4c-0.2,0.1-0.4,0.2-0.4,0.2c-0.4,0.2-0.7,0.6-0.7,1.1v7.2
		c0,0.4,0.2,0.7,0.4,0.9c0.2,0.2,0.5,0.3,0.8,0.3c0.1,0,0.1,0,0.2,0c3.8-0.7,8.1-1,12.6-1c6.9,0,12.2,0.8,12.2,0.8
		c0.4,0.1,0.7,0,1-0.3c0.3-0.2,0.4-0.6,0.4-0.9v-7c0-0.5-0.3-1-0.8-1.2c-0.4-0.2-0.8-0.3-1.2-0.4c0.1-0.5,0.3-1.3,0.5-2.3
		c0.9-4.1,2.3-10.9,2.3-14V67.5c0-2.3-0.5-4.3-1.4-5.6s-2.2-2.1-3.6-2.1c-0.7,0-1.4,0.2-2,0.6c-0.2-0.8-0.5-1.6-1-2.2
		c-0.8-1-1.8-1.5-3.1-1.5c-0.8,0-1.6,0.3-2.3,0.7v-2.8c0-2.1-0.8-3.3-1.5-4c-0.9-0.9-2-1.3-3.3-1.3c-2.5,0-5.1,1.8-5.1,4.7v3.7
		c-0.7-0.4-1.5-0.6-2.2-0.6c-1.4,0-2.7,0.6-3.6,1.6c-0.7,0.8-1.6,2.2-1.6,4.5v25.6c-4.7-4.5-8.4-4.6-10.4-4.2
		c-2.1,0.4-3.8,1.8-4.3,3.5c-0.3,1.1-0.1,2.2,0.6,2.9C85.7,93.3,91.8,99.6,95,103.5z M124.7,120.8c-2.1-0.3-6.2-0.7-11.2-0.7
		c-4.1,0-8,0.3-11.6,0.8V116c1.5-0.6,5.6-2,11.1-2c3.9,0,7.9,0.7,11.7,2.1V120.8z M85.1,88.8c0.2-0.7,1-1.5,2.4-1.8
		s5.1-0.3,10.2,5.7c0.3,0.4,0.9,0.5,1.4,0.4c0.5-0.2,0.8-0.6,0.8-1.2V63.2c0-1.2,0.3-2.2,0.9-2.8c0.5-0.5,1.1-0.8,1.8-0.8
		c1.1,0,2.2,0.7,2.2,2.4v21.6c0,0.7,0.6,1.2,1.2,1.2c0.7,0,1.2-0.6,1.2-1.2V62v-8c0-1.4,1.4-2.2,2.6-2.2c0.4,0,1.1,0.1,1.6,0.6
		s0.7,1.3,0.7,2.3v28.8c0,0.7,0.6,1.2,1.2,1.2c0.7,0,1.2-0.6,1.2-1.2v-21c0-0.3,0-0.5,0-0.7c0-1.6,1.3-2.6,2.3-2.6
		c0.4,0,0.8,0.2,1.1,0.6c0.3,0.4,0.7,1.2,0.7,2.7v1.3c0,0.6,0,1,0,1.7c0,0.3,0.1,0.4,0,0.8v17.4c0,0.7,0.6,1.2,1.2,1.2
		c0.7,0,1.2-0.6,1.2-1.2V64c0.3-1.1,1.1-1.7,1.8-1.7c0.6,0,1.1,0.4,1.5,1c0.4,0.7,1,2,1,4.3v29.8c0,2.9-1.5,9.8-2.3,13.5
		c-0.2,0.8-0.3,1.5-0.4,2c-3.2-0.9-6.5-1.4-9.8-1.4c-4.4,0-7.9,0.8-10.2,1.5c-0.9-2.4-3.3-8-6-11.2c-3.3-3.9-9.5-10.3-11.8-12.6
		C85,89.2,85.1,89,85.1,88.8z"/>
</g>
</svg>
