<?xml version="1.0" encoding="utf-8"?>
<!-- Generator: Adobe Illustrator 19.2.0, SVG Export Plug-In . SVG Version: 6.00 Build 0)  -->
<svg version="1.1" id="Layer_1" xmlns="http://www.w3.org/2000/svg" xmlns:xlink="http://www.w3.org/1999/xlink" x="0px" y="0px"
	 viewBox="0 0 900 500" style="enable-background:new 0 0 900 500;" xml:space="preserve">
<style type="text/css">
	.st0{opacity:0.5;}
	.st1{fill:#446DB2;}
	.st2{fill:#D2EAF7;}
	.st3{fill:#FFFFFF;}
	.st4{fill:none;stroke:#233368;stroke-width:2;stroke-linecap:round;stroke-miterlimit:10;}
	.st5{opacity:0.5;fill:#446DB2;}
</style>
<g class="st0">
	<path class="st1" d="M375.5,92.6l15.1,57.1h-12l-2.6-12.1h-15.2l-2.6,12.1h-12l15.1-57.1H375.5z M374,128.2l-5.5-25.7h-0.2
		l-5.5,25.7H374z"/>
	<path class="st1" d="M394.7,92.6h11.5v47.7h20.4v9.4h-31.9V92.6z"/>
	<path class="st1" d="M431.7,92.6h11.5v47.7h20.4v9.4h-31.9V92.6z"/>
	<path class="st1" d="M519.9,92.6v9.4h-20.4v13.4h19.2v9.4h-19.2v24.8h-11.5V92.6H519.9z"/>
	<path class="st1" d="M524.4,109.2c0.4-3.7,1.3-6.8,2.6-9.4c1.4-2.6,3.3-4.7,5.9-6.1c2.6-1.5,6-2.2,10.3-2.2c4.3,0,7.8,0.7,10.3,2.2
		c2.6,1.5,4.5,3.5,5.9,6.1c1.4,2.6,2.2,5.7,2.6,9.4c0.4,3.7,0.6,7.6,0.6,12c0,4.4-0.2,8.4-0.6,12c-0.4,3.6-1.3,6.7-2.6,9.4
		c-1.4,2.6-3.3,4.6-5.9,6c-2.6,1.4-6,2.1-10.3,2.1c-4.3,0-7.8-0.7-10.3-2.1c-2.6-1.4-4.5-3.4-5.9-6c-1.4-2.6-2.2-5.7-2.6-9.4
		c-0.4-3.6-0.6-7.6-0.6-12C523.8,116.9,524,112.9,524.4,109.2z M535.6,131c0.2,2.7,0.6,4.9,1.1,6.6c0.6,1.7,1.4,2.9,2.4,3.7
		c1,0.8,2.4,1.2,4.1,1.2c1.7,0,3.1-0.4,4.1-1.2c1-0.8,1.8-2,2.4-3.7c0.6-1.7,0.9-3.9,1.1-6.6c0.2-2.7,0.3-6,0.3-9.8
		s-0.1-7.1-0.3-9.8c-0.2-2.7-0.6-4.9-1.1-6.6c-0.6-1.7-1.4-2.9-2.4-3.7c-1-0.8-2.4-1.2-4.1-1.2c-1.7,0-3.1,0.4-4.1,1.2
		c-1,0.8-1.8,2-2.4,3.7c-0.6,1.7-0.9,3.9-1.1,6.6c-0.2,2.7-0.3,5.9-0.3,9.8S535.4,128.3,535.6,131z"/>
	<path class="st1" d="M590.7,92.6c4.8,0,8.5,1.2,11.2,3.6c2.7,2.4,4,6.1,4,11.1c0,3.8-0.8,7-2.3,9.4c-1.5,2.4-3.9,4-7.2,4.7v0.2
		c2.9,0.4,5,1.4,6.3,2.8c1.3,1.4,2.2,3.8,2.5,7c0.1,1.1,0.2,2.2,0.2,3.5c0.1,1.3,0.1,2.7,0.2,4.2c0.1,3,0.3,5.4,0.5,7
		c0.3,1.6,1,2.7,2.1,3.3v0.5h-12.5c-0.6-0.8-1-1.7-1.1-2.8c-0.2-1-0.3-2.1-0.3-3.2l-0.3-11c-0.1-2.2-0.7-4-1.7-5.3
		c-1-1.3-2.7-1.9-5.1-1.9H581v24.2h-11.5V92.6H590.7z M585.8,117.6c2.8,0,4.9-0.7,6.4-2c1.5-1.3,2.2-3.5,2.2-6.6
		c0-5.3-2.7-7.9-8-7.9H581v16.5H585.8z"/>
	<path class="st1" d="M646.9,114.7h0.2l8-22.1h12.5l-14.8,34.6v22.5h-11.5v-22.5l-14.8-34.6h13L646.9,114.7z"/>
	<path class="st1" d="M671.2,109.2c0.4-3.7,1.3-6.8,2.6-9.4c1.4-2.6,3.3-4.7,5.9-6.1c2.6-1.5,6-2.2,10.3-2.2c4.3,0,7.8,0.7,10.3,2.2
		c2.6,1.5,4.5,3.5,5.9,6.1c1.4,2.6,2.2,5.7,2.6,9.4c0.4,3.7,0.6,7.6,0.6,12c0,4.4-0.2,8.4-0.6,12c-0.4,3.6-1.3,6.7-2.6,9.4
		c-1.4,2.6-3.3,4.6-5.9,6c-2.6,1.4-6,2.1-10.3,2.1c-4.3,0-7.8-0.7-10.3-2.1c-2.6-1.4-4.5-3.4-5.9-6c-1.4-2.6-2.2-5.7-2.6-9.4
		c-0.4-3.6-0.6-7.6-0.6-12C670.6,116.9,670.8,112.9,671.2,109.2z M682.4,131c0.2,2.7,0.6,4.9,1.1,6.6c0.6,1.7,1.4,2.9,2.4,3.7
		c1,0.8,2.4,1.2,4.1,1.2c1.7,0,3.1-0.4,4.1-1.2c1-0.8,1.8-2,2.4-3.7c0.6-1.7,0.9-3.9,1.1-6.6c0.2-2.7,0.3-6,0.3-9.8
		s-0.1-7.1-0.3-9.8c-0.2-2.7-0.6-4.9-1.1-6.6c-0.6-1.7-1.4-2.9-2.4-3.7c-1-0.8-2.4-1.2-4.1-1.2c-1.7,0-3.1,0.4-4.1,1.2
		c-1,0.8-1.8,2-2.4,3.7c-0.6,1.7-0.9,3.9-1.1,6.6c-0.2,2.7-0.3,5.9-0.3,9.8S682.2,128.3,682.4,131z"/>
	<path class="st1" d="M727.1,132.5c0,1.4,0.1,2.8,0.3,4c0.2,1.2,0.5,2.2,1,3.1c0.5,0.9,1.2,1.6,2.1,2.1c0.9,0.5,2,0.8,3.3,0.8
		c1.4,0,2.5-0.3,3.4-0.8c0.9-0.5,1.5-1.2,2-2.1c0.5-0.9,0.9-1.9,1-3.1c0.2-1.2,0.3-2.5,0.3-4V92.6H752v39.8c0,3.6-0.5,6.6-1.5,9
		c-1,2.4-2.4,4.3-4.1,5.6c-1.7,1.4-3.7,2.3-5.8,2.8c-2.2,0.5-4.5,0.7-6.8,0.7s-4.6-0.2-6.8-0.6c-2.2-0.4-4.1-1.3-5.8-2.6
		c-1.7-1.3-3.1-3.2-4.1-5.6c-1-2.4-1.5-5.5-1.5-9.4V92.6h11.5V132.5z"/>
	<path class="st1" d="M780.6,92.6c4.8,0,8.5,1.2,11.2,3.6c2.7,2.4,4,6.1,4,11.1c0,3.8-0.8,7-2.3,9.4c-1.5,2.4-3.9,4-7.2,4.7v0.2
		c2.9,0.4,5,1.4,6.3,2.8c1.3,1.4,2.2,3.8,2.5,7c0.1,1.1,0.2,2.2,0.2,3.5c0.1,1.3,0.1,2.7,0.2,4.2c0.1,3,0.3,5.4,0.5,7
		c0.3,1.6,1,2.7,2.1,3.3v0.5h-12.5c-0.6-0.8-1-1.7-1.1-2.8c-0.2-1-0.3-2.1-0.3-3.2l-0.3-11c-0.1-2.2-0.7-4-1.7-5.3
		c-1-1.3-2.7-1.9-5.1-1.9h-6.2v24.2h-11.5V92.6H780.6z M775.6,117.6c2.8,0,4.9-0.7,6.4-2c1.5-1.3,2.2-3.5,2.2-6.6
		c0-5.3-2.7-7.9-8-7.9h-5.4v16.5H775.6z"/>
</g>
<g>
	<g>
		<path class="st1" d="M423.2,170.3v11.8h-25.5v16.8h24v11.8h-24v31h-14.4v-71.4H423.2z"/>
		<path class="st1" d="M430.3,170.3h14.4v71.4h-14.4V170.3z"/>
		<path class="st1" d="M489.4,219.2h0.2v-48.9h13.2v71.4h-16.4l-17.6-50h-0.2v50h-13.2v-71.4H472L489.4,219.2z"/>
		<path class="st1" d="M544.5,170.3l18.9,71.4h-15l-3.3-15.1h-19l-3.3,15.1h-15l18.9-71.4H544.5z M542.6,214.8l-6.9-32.1h-0.2
			l-6.9,32.1H542.6z"/>
		<path class="st1" d="M602.4,219.2h0.2v-48.9h13.2v71.4h-16.4l-17.6-50h-0.2v50h-13.2v-71.4H585L602.4,219.2z"/>
		<path class="st1" d="M654.5,183c-1.2-2.4-3.5-3.5-6.8-3.5c-1.8,0-3.3,0.5-4.5,1.5c-1.2,1-2.1,2.5-2.8,4.7c-0.7,2.2-1.1,5-1.4,8.5
			c-0.3,3.5-0.4,7.8-0.4,12.8c0,5.4,0.2,9.8,0.5,13.1c0.4,3.3,0.9,5.9,1.7,7.8c0.8,1.8,1.7,3.1,2.9,3.7c1.2,0.6,2.5,1,4,1
			c1.3,0,2.5-0.2,3.6-0.6c1.1-0.4,2-1.3,2.8-2.6s1.4-3.1,1.9-5.5c0.5-2.4,0.7-5.5,0.7-9.3h14.4c0,3.9-0.3,7.5-0.9,11
			c-0.6,3.5-1.7,6.5-3.3,9.1c-1.6,2.6-3.9,4.6-6.9,6.1c-3,1.5-6.8,2.2-11.5,2.2c-5.4,0-9.7-0.9-12.9-2.6c-3.2-1.7-5.7-4.2-7.4-7.5
			c-1.7-3.3-2.8-7.2-3.3-11.7c-0.5-4.5-0.8-9.5-0.8-15c0-5.4,0.2-10.4,0.8-15c0.5-4.6,1.6-8.5,3.3-11.8c1.7-3.3,4.2-5.8,7.4-7.6
			c3.2-1.8,7.5-2.8,12.9-2.8c5.1,0,9.2,0.8,12.2,2.5c3,1.7,5.2,3.8,6.6,6.3c1.5,2.6,2.4,5.3,2.8,8.3c0.4,3,0.6,5.8,0.6,8.4h-14.4
			C656.3,189.2,655.7,185.4,654.5,183z"/>
		<path class="st1" d="M680.2,170.3h14.4v71.4h-14.4V170.3z"/>
		<path class="st1" d="M737,170.3l18.9,71.4h-15l-3.3-15.1h-19l-3.3,15.1h-15l18.9-71.4H737z M735.1,214.8l-6.9-32.1H728l-6.9,32.1
			H735.1z"/>
		<path class="st1" d="M760.9,170.3h14.4v59.6h25.5v11.8h-39.9V170.3z"/>
	</g>
</g>
<g>
	<g>
		<path class="st2" d="M288.1,125.7c2.8-2.4,4.5-4.6,4.8-5c0.4-0.5,4.9,24.1,2.8,32.8c-3.5,3.7-5.6,3.4-5.6,3.4s0.8-17.2,0.6-20.9
			C290.6,132.3,288.1,125.7,288.1,125.7z"/>
	</g>
	<g>
		<path class="st3" d="M302.5,289.8c1.7,0,7.6-1.6,7.6-0.9c0,0.6,7.3,64.9,7.3,64.9s6.1,5.2,7.5,10.6c1.4,5.4,2.4,15.5-1,20.5
			c0,0-0.8,3.7-1.1,5.3c-0.3,1.6-1.6,5.4-5.2,4.4c-3.6-0.9-6.5-3.3-6.1-4.9c0.4-1.6-0.5-18-1.5-19.9c-0.9-1.9-2.4-0.6-2.5,0.3
			s-0.1,11.9-1.2,11.6c-1-0.2-4.1-4.2-3.9-5.4s-2.2-6.9,8.1-20.2C312.1,354.2,302.5,289.8,302.5,289.8z"/>
	</g>
	<g>
		<path class="st3" d="M203.8,278.3c0.6,2-15.6,23.4-15.8,26c-0.2,2.6-52.1,7.1-52.5,5.8c-0.4-1.3-7.5-9.9-8.8-11
			c-1.2-1.1-7.9,1.7-7.9,1.7l-32.9,5c0,0-0.3,3.3,1.8,4.7s4.1,3,5.1,2.9c1,0-1.4,2.9-0.2,3.2s36,13.1,40.9,1.4
			c1.9-1,67.3-1.7,67.5-11.1s9.4-22.2,9.4-22.2L203.8,278.3z"/>
	</g>
	<g>
		<path class="st3" d="M254.7,219.5c0,2.5-1.5,21.5,0.8,23.9s3.6,4.7,7.6,4.7c4,0,7.7-4.5,7.7-10.9s0-17.7,0-17.7s7-4.6,8.6-6.7
			s9.6-18.8,10.6-28.9c1-10,1.5-14,1.7-13.3c0.2,0.7,4.6,2.8,7.9,2.4c3.3-0.5,7.3-5.6,8.2-7.1c0.9-1.5,0.9-8.4-2.5-10.7
			c-3.4-2.2-6.7-3.2-9.5-1.9c-2.2,1-5.6,4.5-5.6,4.9s1-10.1,1-12.3c0-2.2-0.9-16.9-2.7-18.8c-1.7-1.9-3,0.2-4.9,0.9
			c-1.9,0.7-10.6,2.1-14.7,1.2s-16.6-6.4-18.7-7.8c-2.2-1.4-7.7,1-9.6,2.6c-2,1.6-11,8.1-9.2,30.2c-4.4-1-7.2-1.6-9.5-0.4
			c-2.3,1.1-6.2,3.8-6.3,7c-0.1,3.2,0.2,8.5,2.4,9.4s6.6,4,10.8,2.5c4.3-1.5,3.3-1.8,2.9-0.6c-0.4,1.2,1.1,8.2,0.8,9.9
			s2.6,14.1,3.5,16.7C236.9,201.4,242.3,218.2,254.7,219.5z"/>
	</g>
	<g>
		<g>
			<path class="st1" d="M297,340c-2.7-2.1-79.5-1.4-79.5-1.4c-0.1,2.3-0.7,11.1,3.8,14.2c3.1,2.1,20.3,10.3,36.6,10.3
				c20.7,0,32.5-4.9,35.1-8.9C294.9,351.6,297.6,343.2,297,340z"/>
			<path class="st1" d="M257.9,364.2c-16.4,0-33.9-8.2-37.1-10.5c-4.6-3.2-4.4-11.4-4.3-14.5l0-1.5l1,0c18.1-0.2,77.3-0.6,80.1,1.6
				l0.3,0.2l0.1,0.4c0.7,3.7-2.3,12.3-4.1,15C290.9,359.3,278.4,364.1,257.9,364.2C257.9,364.2,257.9,364.2,257.9,364.2z
				 M218.5,339.6c-0.1,3-0.2,10,3.4,12.4c3.1,2.1,20,10.1,36,10.1c0,0,0,0,0,0c21,0,32-5,34.3-8.4c1.6-2.5,4.1-9.8,3.9-13
				C290.9,339.4,247.7,339.4,218.5,339.6z"/>
		</g>
	</g>
	<g>
		<path class="st2" d="M256.5,221.2c1.9,0.7,12.2,10.4,13.6,16s0.7-13.6,0.7-15.2C270.8,220.4,256.5,221.2,256.5,221.2z"/>
	</g>
	<g>
		<path class="st2" d="M271.6,129.6c-3.9-0.7,4.6,5,7.7,5s1.7,28.8,1,38.5c-0.8,9.7-5.8,42.3-11,47c-5.2,4.7,16.1-5.7,18.2-24.3
			s3.7-28.1,3.7-28.1s-0.1,4.2,2.9,4.7c3,0.5,11.9,0.2,13.3-5c2.5-9.7-7-17.2-7.3-13.9c-1,11.5-5.4,9.1-8.5,11.8
			c-2.1,1.8,1.6-36.5-3-37.9C283.9,125.7,279,131,271.6,129.6z"/>
	</g>
	<g>
		<path class="st2" d="M227.5,119.5c0,0.2,0,0.4-0.1,0.6c-0.6,11.4-1.1,32.8-0.7,33.4s4.6,2.7,4.6,2.7c0-2-4.6-33.7,17.1-35.2
			c6.1,5.8,34.3,16.9,43.4-0.1s-0.2-33.1-7.3-37.3c-7.1-4.2-22.7-3.2-23.7,6.4c0.2,5.8,0.7,5.7,1.6,5.5c0.8-0.2,2.5-4.7,4.5-5.7
			c2-1.1,2.8-3.2,5.5-1.7c2.7,1.5,3.4,2.1,4.6,5.1s-2.1,8.8-4.6,9.4c0.7-3.1-1.2-10.8-2.6-9.3c-1.4,1.5-1.1,6.2-3,7.4
			c-1.7,1-6.5,0.9-12,1.9"/>
	</g>
	<g>
		<path class="st1" d="M262.3,222.1c-29.7,0-31.3-40.8-31.8-54.3c0-0.9-0.1-1.7-0.1-2.4c0-0.6,0.4-1,0.9-1c0.5,0,1,0.4,1,0.9
			c0,0.7,0.1,1.5,0.1,2.4c0.6,14.3,2,52.3,29.8,52.3c5.7,0,10.6-2.1,14.6-6.1c12.9-13,13.3-42.6,13.3-48.4l0-0.2c0-0.6,0.4-1,1-1
			s1,0.4,1,1l0,0.2c0.1,5.9-0.4,36.2-13.8,49.8C273.9,219.9,268.5,222.1,262.3,222.1z"/>
	</g>
	<g>
		<path class="st1" d="M226.4,174c-0.2,0-0.5,0-0.7,0c-3.8-0.2-8.9-2.4-10.7-7.6c-1.7-4.6,0-9.6,4.2-12.3c3.5-2.3,9.3-3.2,14.4,1.7
			c0.4,0.4,0.4,1,0,1.4c-0.4,0.4-1,0.4-1.4,0c-4.2-4.1-9.1-3.4-12-1.5c-2.6,1.7-5.1,5.3-3.4,9.9c1.6,4.4,5.8,6.1,9,6.3
			c2.3,0.1,4.2-0.5,4.8-1.7c0.2-0.5,0.9-0.7,1.3-0.4c0.5,0.2,0.7,0.9,0.4,1.3C231.5,173,229.2,174,226.4,174z"/>
	</g>
	<g>
		<path class="st1" d="M226.8,154c-1.8-3.9-1.2-31.2-0.3-34.5l1.9,0.5c-0.9,3.3-1.3,29.9,0.2,33.1L226.8,154z"/>
	</g>
	<g>
		<path class="st1" d="M230.3,155.4c-1.9-27.2,9.2-34.3,18.9-35.4l0.4,0l0.3,0.2c9.4,6.7,21,9.9,29.5,8.2c5-1,8.9-3.7,11.6-7.9
			c4.8-7.7,4.6-19.6-0.3-28.5c-3.6-6.5-9.2-10.1-15.7-10.1c-9.6,0-12.2,5-12.9,7.2c-0.7,2.2-0.3,4.3,0.4,5.4c0.3-0.4,0.6-0.9,1-1.4
			c1.9-2.8,5.1-7.5,9.3-5.7c3.4,1.4,5.5,4.9,5.2,9c-0.2,3.7-2.3,6.6-5.3,7.5l-1.9,0.5l0.6-1.8c1.4-3.8,0.3-6-1.1-7.8
			c-0.2,0.6-0.4,1.5-0.6,2.2c-0.7,2.9-1.5,6-3.6,6c0,0,0,0,0,0c-2.8,0-6.1,0.3-9.7,0.8l-0.3-2c3.8-0.6,7.1-0.8,10-0.8c0,0,0,0,0,0
			c0.6-0.2,1.4-3.2,1.7-4.5c0.6-2.4,1-3.9,2.1-4.2c0.3-0.1,0.9-0.1,1.5,0.6c1.7,2,3.2,4.4,2.6,8c1.2-1.1,2-2.7,2.1-4.7
			c0.1-2.4-0.8-5.7-4-7c-2.6-1-4.8,1.9-6.9,5c-1,1.5-1.6,2.3-2.4,2.5c-0.3,0.1-0.7,0-0.9-0.2c-1.9-1.3-2.6-4.8-1.6-8
			c0.8-2.6,3.8-8.6,14.8-8.6c7.2,0,13.4,4,17.4,11.2c5.3,9.4,5.4,22.3,0.3,30.5c-2.9,4.7-7.3,7.7-12.9,8.8
			c-8.9,1.8-20.9-1.5-30.7-8.3c-12.5,1.6-18.2,12.8-16.7,33.2L230.3,155.4z"/>
	</g>
	<g>
		<path class="st1" d="M297.7,173.7c-2.5,0-5-0.6-7.1-1.8c-0.5-0.3-0.7-0.9-0.4-1.4c0.3-0.5,0.9-0.6,1.4-0.4
			c3.3,1.9,7.6,2.1,10.8,0.5c2.6-1.2,4.2-3.5,4.7-6.6c0.7-4.3-2.3-7.8-5.6-9c-3.3-1.3-6.5-0.3-8.4,2.6c-0.2,0.3-0.7,0.8-2,0.4
			c-0.9-0.3-1.4-0.9-1.4-1.5c0.9-14.5-0.4-27.6-2.9-30c-0.4-0.4-0.4-1-0.1-1.4c0.4-0.4,1-0.4,1.4-0.1c4.1,3.7,4.1,21.6,3.6,31
			c2.5-3.3,6.4-4.5,10.5-2.9c4,1.6,7.7,5.9,6.9,11.2c-0.7,4.8-3.5,7-5.8,8.1C301.7,173.3,299.7,173.7,297.7,173.7z"/>
	</g>
	<g>
		<path class="st1" d="M296.2,154.5l-2-0.3c0.9-6,1.5-31.6-2.3-33.1l0.7-1.9C299.1,121.8,296.2,154.2,296.2,154.5z"/>
	</g>
	<g>
		<g>
			<rect x="253.7" y="220.4" class="st1" width="2" height="19.5"/>
		</g>
	</g>
	<g>
		<path class="st3" d="M202.3,275.3c1.3,2.4,6,10.4,8.7,10.6c2.7,0.2,4.8-5.6,5.3-5.3c0.6,0.3-0.3,11.6-0.3,11.6s-1.2,44.2,1.8,46.5
			c3,2.2,15.8-0.4,20.4,0.8s11,2.1,16.5,2.3c5.5,0.3,12.3-1.6,15.3-1.6c3.1,0,25.5,2.6,27-0.2s1.5-20.3,1.5-20.3l1.1-31.5
			c0,0,0.9,3.3,2,3.2c1.1-0.1,9.1-1.5,9.9-2.8c0.8-1.4-7.5-40.1-11.9-42.8c-4.4-2.7-21.1-5.3-27.7-5.8c-0.4,1.4-1.6,4.3-3.1,5.7
			s-6.8,3.6-8.5,2.5s-6.1-5.8-6.1-6.6s-0.1-2.7-0.1-2.7s-12.1,0.1-15.7,0.9s-12.5,2.3-15.2,5.4c-2.7,3.1-12,14.6-14.1,18.5
			C206.9,267.6,202.3,275.3,202.3,275.3z"/>
	</g>
	<g>
		<path class="st2" d="M271.6,240.8c4.8,3.1,17.5,4.9,23.9,12.2c2.8,3.3,10.4,36.6,9.6,36.8c-11.7,2.1-9-23.5-10.8-23.1
			c-14.6,3.2-13.2,48.7-13.2,54.6c0,2,0.8,19.4,2.7,20.2c1.9,0.7,12.4,1.8,13.2-1.5s3.3-49.7,3.3-49.7l11.2-2.5c0,0-4.9-26-5.4-27.8
			c-0.5-1.8-4.9-15.5-11.1-17C288.7,241.5,271.6,240.8,271.6,240.8z"/>
	</g>
	<g>
		<g>
			<path class="st1" d="M211.7,286.9c-3.6,0-7.7-5-9.6-10c-0.3-0.8-0.3-1.8,0.2-2.6c16.8-33.9,22.3-36.1,52.4-35.5c0.6,0,1,0.5,1,1
				c0,0.6-0.5,1-1,1c-28.5-0.5-33.7,0.3-50.6,34.4c-0.2,0.3-0.2,0.7-0.1,1c1.8,4.7,5.5,8.9,7.8,8.7c1.6-0.1,4.6-7.4,5.8-10.4
				c0.9-2.3,1.7-4.1,2.3-4.9c0.3-0.5,0.9-0.6,1.4-0.3c0.5,0.3,0.6,0.9,0.3,1.4c-0.5,0.7-1.3,2.6-2.1,4.6c-2.8,6.7-5,11.5-7.5,11.7
				C211.9,286.9,211.8,286.9,211.7,286.9z"/>
		</g>
	</g>
	<g>
		<path class="st1" d="M254.8,342.8c-3.1,0-6.4-0.3-9-1.3c-3.3-1.2-9.7-1.1-15.4-1c-6.8,0.2-11.1,0.2-13-1
			c-1.1-0.7-3.7-2.4-1.9-57.4c0-1.2,0.1-2,0.1-2.2l2,0c0,0.3,0,1-0.1,2.3c-1.6,48.9,0.4,55,1.1,55.7c1.4,0.9,6.7,0.8,11.9,0.7
			c6.2-0.1,12.5-0.3,16.2,1.1c7.2,2.7,19.6,0,20.1-0.1c4-0.9,18.7,0.1,20.8,0.5c2.8,0.6,7.4,0.4,8.8-0.6c0.1-0.1,0.2-0.2,0.2-0.2
			c0.2-2.3,2.8-45.9,2.2-49.8l2-0.3c0.7,4.2-2,48-2.2,50.3c0,0.4-0.3,1.1-1,1.6c-2.1,1.5-7.5,1.5-10.4,0.9c-2-0.4-16.2-1.3-19.9-0.5
			C266.1,341.7,260.6,342.8,254.8,342.8z"/>
	</g>
	<g>
		<path class="st1" d="M301.1,291.8c-0.4,0-1-0.2-1.6-0.8c-3.3-3.6-5.4-21.1-4.8-25.4c0.1-0.5,0.6-0.9,1.1-0.9
			c0.5,0.1,0.9,0.6,0.9,1.1c-0.7,5.5,2.3,23.2,4.5,24c3.5-0.2,8.5-1.5,9.4-2.3c0-3.8-5.7-39.1-13.6-42.6c-8.5-3.8-25.7-3.9-26.2-3.9
			c0,0,0,0,0,0c-0.6,0-1-0.4-1-1s0.4-1,1-1c0.8,0,18,0,27,4.1c9.4,4.2,15.3,43.1,14.7,45.1c-0.8,2.4-10,3.6-11.2,3.6
			C301.2,291.8,301.1,291.8,301.1,291.8z"/>
	</g>
	<g>
		<g>
			<rect x="269.8" y="220.4" class="st1" width="2" height="19.5"/>
		</g>
	</g>
	<g>
		<g>
			<path class="st1" d="M319.6,394.9c-2.6,0-6.5-1.5-7.9-3c-0.8-0.9-0.8-3.1-0.8-7.9c0-4.8,0-13.6-2.2-14.2
				c-0.4,0.7-0.4,3.2-0.4,4.7c-0.1,3.9-0.1,8-2.9,8h-0.5l-0.3-0.5c-7.8-12,1.4-21.2,4.8-24.6c0.4-0.4,0.9-0.9,1.1-1.1
				c-1.4-6-7.4-54.5-7.4-57.1c0-1.9-0.3-3-0.6-4.3c-0.3-1.1-0.6-2.3-0.8-4.1l2-0.2c0.2,1.7,0.5,2.8,0.7,3.9c0.4,1.4,0.7,2.7,0.7,4.8
				c0,3.5,6.5,54,7.3,56.8c0.4,0.8-0.3,1.5-1.6,2.9c-3.6,3.6-11.1,11-5.1,21.3c0.5-1.1,0.5-4.3,0.5-5.7c0.1-3.3,0.1-5.4,1.2-6.3
				c0.4-0.3,0.8-0.5,1.3-0.4c4.2,0.5,4.1,8.9,4.1,16.3c0,2.7,0,6,0.3,6.6c1.3,1.4,6.2,2.7,7.1,2.3c0.7-0.6,1-3.2,0.8-3.7
				c-0.2-0.5,0-1,0.6-2.2c2.1-4,8.6-16.3-2.5-30.5c-0.2-0.3-0.6-0.5-0.9-0.7c-1-0.6-2.3-1.4-2.4-3.9c-0.1-3.3-5.2-54.3-5.9-56.6
				c-0.7-2.4-1.5-5.9-1.5-6l2-0.4c0,0,0.7,3.5,1.5,5.8c0.8,2.6,5.8,54.4,6,57.1c0.1,1.4,0.6,1.7,1.5,2.3c0.5,0.3,1,0.6,1.5,1.2
				c11.9,15.3,5,28.4,2.7,32.7c-0.2,0.3-0.4,0.7-0.4,0.9c0.3,1.4-0.2,4.5-1.6,5.6C321.1,394.8,320.4,394.9,319.6,394.9z"/>
		</g>
	</g>
	<g>
		<g>
			<path class="st1" d="M132.1,321.4c-4.4,0-11.7-18.1-12.2-19.8c-0.4-0.5-2.1-1.4-8.6-2.9c-0.6-0.2-1.1-0.3-1.3-0.3
				c-1-0.3-1.6-1.5-1.5-2.8c0.1-1.1,0.9-2.4,2.8-2.7c12.4-1.5,18.3,7.5,21.8,13c0.9,1.4,2.1,3.2,2.6,3.4c3.5,0.6,48.2-3.6,51.5-5.4
				c1.4-2.7,13.4-22.1,16.3-25.4l1.5,1.3c-2.9,3.4-15.4,23.7-16.1,25.2c-0.3,0.7-0.9,2-26.3,4.6c-11.7,1.2-25.5,2.2-27.3,1.9
				c-1.3-0.2-2.3-1.8-3.9-4.2c-3.5-5.4-8.7-13.5-19.8-12.1c-0.6,0.1-0.9,0.3-1.1,0.7c-0.1,0.4,0.1,0.8,0.2,0.9
				c0.1,0,0.5,0.1,1.1,0.3c7.2,1.8,9.7,2.9,10,4.4c0.5,2.4,8,18.2,10.3,18.2c0,0,0.3-0.3,0.5-1.6c0.3-2.3,4.6-2.6,21.4-2.9
				c17.7-0.3,44.3-0.8,46.1-8.3c2.3-7,9.7-20.6,10.1-21.2l1.8,1c-0.1,0.1-7.7,14-9.9,20.8c-2.1,8.9-27.6,9.3-48,9.7
				c-8.5,0.2-18.1,0.3-19.5,1.4C134.2,320.3,133.3,321.3,132.1,321.4C132.1,321.4,132.1,321.4,132.1,321.4z"/>
		</g>
	</g>
	<g>
		<circle class="st1" cx="248.1" cy="157.5" r="3.9"/>
	</g>
	<g>
		<circle class="st1" cx="276.4" cy="157.5" r="3.9"/>
	</g>
	<g>
		<path class="st1" d="M262,198.3c-7.5,0-15.9-4.5-18.2-8.4c-0.8-1.5-0.6-2.5-0.3-3.1c1.7-3,4.3-1.8,6.9-0.5c2.6,1.3,6.2,3,11.6,3.1
			c0,0,0.1,0,0.1,0c4.5,0,7.9-1.5,10.7-2.6c3.1-1.3,5.7-2.4,7.1,0.3c0.4,0.7,0.6,1.9-0.4,3.5C277.4,194.2,269.6,198.3,262,198.3
			L262,198.3C262,198.3,262,198.3,262,198.3z M246.5,186.9c-0.5,0-0.8,0.3-1.2,0.9c-0.1,0.2,0,0.6,0.3,1.1c1.7,3,9.1,7.4,16.4,7.4
			c0,0,0,0,0,0l0,0c7.3,0,14.1-4,15.9-6.8c0.3-0.5,0.6-1.1,0.3-1.6c-0.5-0.9-1.3-0.7-4.5,0.6c-2.8,1.2-6.7,2.8-11.5,2.8
			c0,0-0.1,0-0.1,0c-5.8,0-9.6-1.9-12.4-3.3C248,187.3,247.1,186.9,246.5,186.9z"/>
	</g>
	<g>
		<g>
			<path class="st1" d="M263,249.2h-0.3c-5.1,0-9-4.1-9-9.4h2c0,4.1,3.1,7.4,7,7.4h0.3c3.9,0,6.7-3,6.7-7.2h2
				C271.8,245.3,268.1,249.2,263,249.2z"/>
		</g>
	</g>
	<g>
		<path class="st1" d="M261.3,173.1c-0.7,0-1.4,0-1.9-0.1c-0.4-0.1-1.7-0.3-1.9-1.4c-0.2-1,0.9-1.6,1.3-1.8c2.1-1.1,2.4-4.2,2.6-7.9
			c0.1-1.5,0.2-3,0.5-4.6c0.1-0.5,0.6-0.9,1.1-0.8c0.5,0.1,0.9,0.6,0.8,1.1c-0.2,1.5-0.4,3-0.5,4.4c-0.3,3.7-0.6,7.2-3,9
			c1.8,0.1,4.8-0.3,5.3-0.9c0.3-0.5,0.9-0.7,1.4-0.4c0.5,0.3,0.7,0.9,0.4,1.4C266.8,172.6,263.6,173.1,261.3,173.1z"/>
	</g>
	<g>
		<path class="st4" d="M114.1,315.4"/>
	</g>
	<g>
		<g>
			<path class="st1" d="M320.2,393.2c-0.1,0-0.2,0-0.3-0.1c-0.5-0.2-0.8-0.8-0.6-1.3c0.5-1.3,1.7-15.7,1.3-18.3
				c-0.1-0.5,0.3-1.1,0.8-1.1c0.5-0.1,1.1,0.3,1.1,0.8c0.4,3-0.8,17.7-1.4,19.3C321,393,320.6,393.2,320.2,393.2z"/>
		</g>
	</g>
	<g>
		<g>
			<path class="st1" d="M316,393.2c-0.2,0-0.4-0.1-0.6-0.2c-0.5-0.3-0.6-0.9-0.3-1.4c0.9-1.4,0.8-15.3-0.7-20.1
				c-0.2-0.5,0.1-1.1,0.6-1.3c0.5-0.2,1.1,0.1,1.3,0.6c1.5,4.6,2.1,19.6,0.5,21.9C316.7,393.1,316.4,393.2,316,393.2z"/>
		</g>
	</g>
	<g>
		<path class="st1" d="M217.7,128.3c-0.5,0-0.9-0.4-1-0.9c0,0-0.2-1.5-0.7-2.9c-0.2-0.3-1.5-0.3-2.1-0.4c-1.1-0.1-2.7-0.1-2.7-1.5
			c0-0.5,0.2-1.1,0.3-1.8c0.1-0.5,0.3-1.1,0.3-1.4c-1.1-1.6-12-12.2-15-14.6c-0.4-0.3-0.5-1-0.2-1.4c0.3-0.4,1-0.5,1.4-0.2
			c1.8,1.5,15.3,14.1,15.7,15.6c0.2,0.8,0,1.7-0.3,2.5c-0.1,0.2-0.1,0.5-0.2,0.7c0.2,0,0.5,0,0.7,0c1.4,0.1,3.2,0.2,3.8,1.6
			c0.7,1.6,0.9,3.4,0.9,3.5c0.1,0.5-0.3,1-0.9,1.1C217.8,128.3,217.8,128.3,217.7,128.3z"/>
	</g>
	<g>
		<path class="st1" d="M215.4,112.5c-5,0-14.4-7.5-17.6-10.1c-0.4-0.4-0.5-1-0.1-1.4c0.4-0.4,1-0.5,1.4-0.1
			c6.8,5.6,15.2,10.9,17,9.4c0.1-0.1,0.4-0.4,0.5-1.5c0.6-5.7-4.8-20.5-5.8-21.7c-0.3-0.4-0.3-1.1,0.1-1.4s1-0.3,1.4,0.1
			c1.3,1.4,6.9,16.6,6.3,23c-0.1,1.5-0.5,2.5-1.3,3.1C216.9,112.3,216.2,112.5,215.4,112.5z"/>
	</g>
	<g>
		<path class="st1" d="M232.5,97c-5,0-16.2-8.3-19.8-11.1c-0.4-0.3-0.5-1-0.2-1.4c0.3-0.4,1-0.5,1.4-0.2c7.8,6,17.3,11.7,19,10.6
			c1.5-0.9-0.7-11-4.5-21.5c-0.2-0.5,0.1-1.1,0.6-1.3c0.5-0.2,1.1,0.1,1.3,0.6c2.4,6.4,7.5,21.6,3.7,23.9
			C233.6,96.8,233.1,97,232.5,97z"/>
	</g>
	<g>
		<path class="st1" d="M249.6,89.1c-4.6,0-15.3-12.5-18.6-16.5c-0.4-0.4-0.3-1.1,0.1-1.4c0.4-0.4,1.1-0.3,1.4,0.1
			c6.6,8,15,16.4,17.1,15.8c1.8-0.5,1.6-8.9,0.2-16.5c-0.1-0.5,0.3-1.1,0.8-1.2c0.5-0.1,1.1,0.3,1.2,0.8c0.7,4.1,2.8,17.5-1.7,18.8
			C250,89.1,249.8,89.1,249.6,89.1z"/>
	</g>
	<g>
		<path class="st1" d="M268.7,82.7c-0.1,0-0.2,0-0.3-0.1c-0.5-0.2-0.8-0.8-0.6-1.3c1.3-3.6,0.6-9.5,0.6-9.6c-0.1-0.5,0.3-1,0.9-1.1
			c0.6-0.1,1,0.3,1.1,0.9c0,0.3,0.8,6.5-0.7,10.5C269.5,82.4,269.1,82.7,268.7,82.7z"/>
	</g>
	<g>
		<path class="st1" d="M264.1,85.2c-0.1,0-0.2,0-0.3,0c-5.8-1.8-11.4-14.1-11.6-14.6c-0.2-0.5,0-1.1,0.5-1.3c0.5-0.2,1.1,0,1.3,0.5
			c1.5,3.3,6.3,12.2,10.4,13.6c0.5,0.2,0.8,0.7,0.6,1.3C264.9,85,264.5,85.2,264.1,85.2z"/>
	</g>
	<g>
		<path class="st1" d="M273.5,81.8c-0.4,0-0.8-0.3-0.9-0.7c-1.7-4.6-2.9-8.2-2.9-8.3c-0.2-0.5,0.1-1.1,0.6-1.3
			c0.5-0.2,1.1,0.1,1.3,0.6c0,0,1.2,3.6,2.9,8.2c0.2,0.5-0.1,1.1-0.6,1.3C273.7,81.8,273.6,81.8,273.5,81.8z"/>
	</g>
	<ellipse transform="matrix(0.9705 -0.241 0.241 0.9705 -18.1493 49.8194)" class="st2" cx="194.6" cy="99.1" rx="3.9" ry="3.4"/>
	<path class="st1" d="M194.4,103.6c-2.1,0-4-1.3-4.5-3.3c-0.6-2.4,1.1-4.8,3.7-5.5c1.3-0.3,2.5-0.2,3.6,0.4c1.1,0.6,1.9,1.5,2.2,2.7
		v0c0.6,2.4-1.1,4.8-3.7,5.5C195.3,103.5,194.8,103.6,194.4,103.6z M194.9,96.7c-0.3,0-0.6,0-0.8,0.1c-1.6,0.4-2.6,1.8-2.3,3
		c0.3,1.3,1.9,2,3.4,1.6c1.6-0.4,2.6-1.8,2.3-3l0,0c-0.1-0.6-0.6-1.1-1.2-1.4C195.9,96.8,195.4,96.7,194.9,96.7z"/>
	<ellipse transform="matrix(0.9705 -0.241 0.241 0.9705 -13.4974 52.94)" class="st2" cx="209.7" cy="81.7" rx="3.9" ry="3.7"/>
	<path class="st1" d="M209.6,86.4c-0.8,0-1.7-0.2-2.4-0.6c-1.1-0.6-1.9-1.7-2.2-2.9c-0.3-1.2-0.1-2.5,0.6-3.6c0.7-1.1,1.8-1.8,3-2.1
		c2.6-0.7,5.3,0.8,5.9,3.3l0,0c0.3,1.2,0.1,2.5-0.6,3.6c-0.7,1.1-1.8,1.8-3,2.1C210.4,86.3,210,86.4,209.6,86.4z M209.8,79
		c-0.3,0-0.5,0-0.8,0.1c-0.8,0.2-1.4,0.6-1.8,1.3c-0.4,0.6-0.5,1.3-0.4,2s0.6,1.3,1.3,1.6c0.7,0.4,1.5,0.5,2.2,0.3
		c0.8-0.2,1.4-0.6,1.8-1.3c0.4-0.6,0.5-1.3,0.4-2C212.3,79.8,211.1,79,209.8,79z"/>
	<ellipse transform="matrix(0.9705 -0.241 0.241 0.9705 -9.832 57.2112)" class="st2" cx="229" cy="68.8" rx="3.9" ry="3.4"/>
	<path class="st1" d="M228.7,73.2c-2.1,0-4-1.3-4.5-3.2c-0.3-1.2,0-2.4,0.7-3.4c0.7-1,1.8-1.7,3-2c1.3-0.3,2.5-0.2,3.6,0.4
		c1.1,0.6,1.9,1.5,2.2,2.7c0.3,1.2,0,2.4-0.7,3.4c-0.7,1-1.8,1.7-3,2C229.6,73.1,229.2,73.2,228.7,73.2z M229.3,66.4
		c-0.3,0-0.6,0-0.9,0.1c-0.8,0.2-1.5,0.6-1.9,1.2c-0.4,0.6-0.5,1.2-0.4,1.8c0.3,1.3,1.8,2,3.4,1.6c0.8-0.2,1.5-0.6,1.9-1.2
		c0.4-0.6,0.5-1.2,0.4-1.8c-0.1-0.6-0.6-1.1-1.2-1.4C230.3,66.5,229.8,66.4,229.3,66.4z"/>
	<ellipse transform="matrix(0.9705 -0.241 0.241 0.9705 -8.7244 62.3891)" class="st2" cx="250.8" cy="66.9" rx="2.5" ry="2.8"/>
	<path class="st1" d="M250.9,70.7c-0.7,0-1.3-0.2-1.9-0.6c-0.8-0.5-1.3-1.4-1.6-2.3c-0.2-1-0.1-2,0.3-2.8c0.5-0.9,1.2-1.5,2.2-1.7
		c0.9-0.2,1.9,0,2.7,0.5c0.8,0.5,1.3,1.4,1.6,2.3c0.2,1,0.1,2-0.3,2.8c-0.5,0.9-1.2,1.5-2.2,1.7C251.4,70.7,251.2,70.7,250.9,70.7z
		 M250.6,65.1c-0.1,0-0.2,0-0.3,0c-0.4,0.1-0.7,0.3-0.9,0.7c-0.2,0.4-0.3,0.9-0.1,1.4s0.4,0.9,0.8,1.2c0.3,0.2,0.7,0.3,1.1,0.2
		c0.4-0.1,0.7-0.3,0.9-0.7c0.2-0.4,0.3-0.9,0.1-1.4s-0.4-0.9-0.8-1.2C251.1,65.1,250.9,65.1,250.6,65.1z"/>
	<ellipse transform="matrix(0.9705 -0.241 0.241 0.9705 -8.6695 66.7685)" class="st2" cx="268.7" cy="68.8" rx="2.3" ry="2.5"/>
	<path class="st1" d="M268.8,72.3c-0.6,0-1.2-0.2-1.8-0.5c-0.8-0.5-1.3-1.3-1.5-2.2c-0.5-1.9,0.6-3.8,2.4-4.2
		c0.9-0.2,1.8-0.1,2.6,0.4c0.8,0.5,1.3,1.3,1.5,2.2v0c0.5,1.9-0.6,3.8-2.4,4.2C269.3,72.3,269,72.3,268.8,72.3z M268.6,67.3
		c-0.1,0-0.2,0-0.3,0c-0.7,0.2-1.1,1-0.9,1.8c0.1,0.4,0.3,0.7,0.7,1c0.3,0.2,0.7,0.3,1,0.2c0.7-0.2,1.1-1,0.9-1.8
		c-0.1-0.4-0.3-0.7-0.7-1C269.1,67.4,268.9,67.3,268.6,67.3z"/>
	<g>
		<path class="st1" d="M272.9,97.8c-0.5,0-0.9-0.3-1-0.8c-0.1-0.5,0.2-1.1,0.8-1.2c1.8-0.4,3.2-0.5,4.4-0.4c0.6,0,1,0.5,0.9,1.1
			c0,0.6-0.5,1-1.1,0.9c-1-0.1-2.2,0.1-3.9,0.4C273,97.8,273,97.8,272.9,97.8z"/>
	</g>
	<g>
		<path class="st1" d="M223.5,133.5c-2.6,0-4.2-0.7-4.9-2c-2.8-5.2,11.7-16.5,27.5-24.9c8.1-4.3,15.9-7.7,21.9-9.6
			c0.5-0.2,1.1,0.1,1.2,0.7c0.2,0.5-0.1,1.1-0.7,1.2c-5.9,1.8-13.6,5.2-21.6,9.4c-18.6,9.9-28,19.6-26.7,22.2
			c0.2,0.4,1.2,1.5,6.2,0.7c0.5-0.1,1.1,0.3,1.1,0.8c0.1,0.5-0.3,1.1-0.8,1.1C225.6,133.4,224.5,133.5,223.5,133.5z"/>
	</g>
	<path class="st2" d="M110.4,268.9c-1.8,4,8,33.2,8.8,34s-5,14-6.8,15.2c-1.8,1.2-31.5,40.8-17.3,61.2c14.2,20.3,49.3,18.8,58.7,0
		c9.3-18.8-7.2-53-22.2-68.2c-9.8-20.8-1.3-38.3-1.2-39.8s-5,5.4-8.2,4.3C118.9,274.5,110.4,268.9,110.4,268.9z"/>
	<path class="st1" d="M125.5,394.9c-12.8,0-24.6-5.6-31.2-15.1c-3.8-5.5-4.9-12.7-3.2-21.6c3.7-19.6,19.5-40.1,20.8-41
		c1.3-0.9,6.3-12,6.4-14c-1.8-3.6-10.6-30.5-8.7-34.7l0.5-1.1l1,0.7c0.1,0.1,8.4,5.5,11.5,6.6c1.5,0.5,4.2-1.9,5.6-3.2
		c1.3-1.2,1.9-1.7,2.7-1.3c0.2,0.1,0.7,0.4,0.6,1.2c0,0.3-0.2,0.7-0.5,1.5c-4.6,13.2-4.1,25.8,1.5,37.6
		c15.4,15.6,31.6,50.3,22.2,69.2c-4.3,8.6-13.9,14.2-25.9,15.1C127.7,394.9,126.6,394.9,125.5,394.9z M120,302.3
		c0.3,0.4,0.3,1,0.3,1.2c-0.3,2.6-5.2,14.1-7.2,15.5c-2,1.6-30.6,40.3-17.1,59.8c6.8,9.7,19.3,15.1,32.7,14.2
		c11.3-0.8,20.3-6.1,24.3-14c9-18.2-7-51.9-22-67l-0.1-0.1l-0.1-0.2c-5.6-11.9-6.3-24.6-2.1-37.8c-1.9,1.7-4.5,3.6-6.7,2.8
		c-2.6-0.9-8.1-4.3-10.7-5.9C111.3,276.9,118.7,300.1,120,302.3z"/>
	<path class="st3" d="M116.3,302.5c-1.7,1.1-4.4,9,7.6,9.9c4.2,0,2.2-4.5,0-5c-2.2-0.5-3.6-2.7-4.1-3.4
		C119.2,303.4,118.5,301,116.3,302.5z"/>
	<path class="st1" d="M123.9,313.4c-7.1-0.6-9.3-3.4-9.9-5.7c-0.7-2.6,0.6-5.3,1.7-6.1c0.9-0.6,1.7-0.8,2.5-0.6
		c1.2,0.3,1.8,1.4,2.2,2c0.1,0.1,0.1,0.3,0.2,0.3l0.2,0.2c0.6,0.8,1.8,2.4,3.4,2.8c1.8,0.4,3.4,2.6,3.2,4.5
		C127.3,311.5,126.8,313.4,123.9,313.4z M117.6,303c-0.2,0-0.5,0.1-0.8,0.3c-0.4,0.3-1.4,2.1-0.9,3.9c0.6,2.4,3.4,3.9,8.1,4.2
		c0.8,0,1.3-0.2,1.4-0.7c0.1-0.8-0.8-2.1-1.6-2.3c-2.4-0.5-3.9-2.7-4.6-3.6l-0.1-0.2c-0.1-0.1-0.2-0.3-0.3-0.6
		C118.4,303.7,118,303.1,117.6,303C117.7,303,117.6,303,117.6,303z"/>
	<path class="st3" d="M115.3,309.9c-1.4-1.2-1.8,5.1,0.8,5.9s7.2,1.9,7.9,1.1c0.7-0.8,2-3.2,0.5-3.8S116.7,311.2,115.3,309.9z"/>
	<path class="st1" d="M122.5,318.1c-2.4,0-5.9-1.1-6.8-1.4c-1.4-0.5-2.3-2.1-2.5-4.3c0-0.7-0.1-2.9,1.1-3.5c0.5-0.3,1.1-0.1,1.6,0.3
		l0,0c0.9,0.8,5,1.9,6.9,2.5c0.8,0.2,1.5,0.4,1.8,0.5c0.7,0.2,1.1,0.7,1.3,1.4c0.4,1.4-0.8,3.3-1.4,4
		C124.2,318,123.5,318.1,122.5,318.1z M115.2,311.1c-0.1,0.6-0.1,1.7,0.2,2.6c0.1,0.4,0.4,1,0.8,1.1c3,1,6.2,1.5,6.9,1.3
		c0.5-0.7,1-1.8,0.8-2.1c-0.4-0.1-1-0.3-1.7-0.5C119.4,312.8,116.7,312,115.2,311.1z M115.3,309.9l-0.7,0.7l0,0l0,0L115.3,309.9z"/>
	<path class="st3" d="M114.8,315.6c-2.8,0.2-1.8,3-1.1,3.8s5.6,1.4,8.1,0s1.5-2.2,1.1-2.2S114.8,315.6,114.8,315.6z"/>
	<path class="st1" d="M117.8,321.1c-2.1,0-4.1-0.4-4.8-1.1c-0.7-0.7-1.4-2.4-0.9-3.8c0.2-0.6,0.8-1.6,2.6-1.7c0.1,0,0.2,0,0.3,0
		c2.8,0.6,7.5,1.5,8,1.5c0.5,0,1.3,0.4,1.5,1.2c0.2,1-0.5,2-2.1,2.9C121.1,320.9,119.4,321.1,117.8,321.1z M114.7,316.6
		c-0.4,0-0.7,0.2-0.8,0.4c-0.2,0.5,0.2,1.4,0.5,1.7c0.6,0.4,4.8,1,6.9-0.2c0.3-0.2,0.5-0.3,0.7-0.5
		C120.6,317.8,117.4,317.1,114.7,316.6z"/>
	<path class="st3" d="M130.4,302c1.8,0.6,4.6,2.1,3.1,4.7c-1.5,2.5-2.3,3.4-3.4,3.4s-4-1.5-2.8-3.4c1.2-1.9,1.9-1.2,2.2-2.2
		c0.3-1-0.9-2.4-0.9-2.4H130.4z"/>
	<path class="st1" d="M130.1,311c-1.1,0-3-0.9-3.8-2.2c-0.5-0.9-0.4-1.8,0.1-2.7c0.8-1.3,1.5-1.6,2-1.8c0.1,0,0.1-0.1,0.2-0.1
		c0.1-0.3-0.3-1.1-0.7-1.5c-0.3-0.3-0.3-0.7-0.2-1.1c0.2-0.4,0.5-0.6,0.9-0.6h1.8c0.1,0,0.2,0,0.3,0.1c1.2,0.4,3.3,1.4,4,3.1
		c0.2,0.7,0.4,1.7-0.4,3C132.7,309.8,131.7,311,130.1,311z M130.4,303c0.2,0.5,0.3,1.1,0.1,1.7c-0.3,0.9-0.8,1.2-1.2,1.3
		c-0.3,0.2-0.6,0.3-1.2,1.1c-0.2,0.3-0.2,0.5-0.1,0.7c0.4,0.7,1.6,1.2,2,1.2c0.5,0,1.1-0.5,2.5-2.9c0.4-0.6,0.3-1,0.2-1.3
		C132.6,304.2,131.7,303.5,130.4,303z"/>
	<g>
		<g>
			<g>
				<path class="st1" d="M134.9,352.7c0,1.3-0.7,2.4-2,2.4c-2,0-3.5-4.1-7-4.1c-1.1,0-2,0.6-2,1.9c0,3.9,11.5,1.6,11.5,11
					c0,5.3-5.4,8.2-8.1,8.4c-0.9,0.1-0.8,0.4-0.8,1.4c0,2-0.1,2-2,2c-1.7,0-2.2,0.3-2.2-1.8c0-0.7,0.2-1.4-0.6-1.5
					c-1.4-0.2-4.4-0.9-5.5-1.8c-1.3-1.1-2.1-4.7-2.1-6.3c0-0.9,0.4-1.9,1.4-1.9c2.6,0,2.1,5.7,7.9,5.7c0.8,0,2.8-0.4,2.8-1.8
					c0-1.2-0.3-1.5-4.4-3.1c-3.4-1.3-7-3.9-7-8.3c0-4.1,3.1-7.3,6.7-8.1c1-0.2,0.9-0.3,0.9-1.4c0-2,0.1-2,2-2c1.8,0,2.2-0.3,2.2,1.8
					c0,0.6-0.2,1.4,0.5,1.5c0.5,0.1,2.4,0.6,2.6,0.6c0.5,0,1-0.4,1.7-0.4C132.7,347,134.9,350.2,134.9,352.7z"/>
			</g>
		</g>
	</g>
	<g>
		<g>
			<polygon class="st1" points="286.1,358.9 286.1,358.9 286.1,358.9 			"/>
			<path class="st1" d="M277.9,361.8c-0.3,3.9-0.7,37.2-0.7,70.2h8.7c-0.3-35-0.6-69.3-0.8-72.6l-8.2,2.2c0,0,0,0.1,0,0.1
				L277.9,361.8z"/>
		</g>
	</g>
	<g>
		<g>
			<path class="st1" d="M225.9,427.3c0.3,0.8,0.7,3.7,1.1,8.7h9.3c-0.4-6-0.8-10.4-0.9-12c-0.4-3.8,1.4-58.6,2.7-64l0.9,0.3v0
				l-10.5-3.8C226.9,369.1,224.9,424.3,225.9,427.3z"/>
			<polygon class="st1" points="227.7,356.1 227.7,356.1 227.7,356.1 			"/>
		</g>
	</g>
</g>
<g>
	<path class="st1" d="M437.6,245.5v16.6h-36v23.7h33.8v16.6h-33.8v43.7h-20.3V245.5H437.6z"/>
	<path class="st1" d="M465.7,315.7c0,2.5,0.2,4.9,0.5,7c0.3,2.1,0.9,3.9,1.8,5.5c0.9,1.6,2.1,2.8,3.7,3.7c1.6,0.9,3.5,1.3,5.9,1.3
		c2.4,0,4.4-0.4,5.9-1.3c1.5-0.9,2.7-2.1,3.6-3.7c0.9-1.6,1.5-3.4,1.8-5.5c0.3-2.1,0.5-4.4,0.5-7v-70.2h20.3v70.2
		c0,6.4-0.9,11.7-2.7,15.9c-1.8,4.2-4.2,7.5-7.2,9.9c-3,2.4-6.4,4.1-10.3,4.9c-3.9,0.8-7.8,1.3-12,1.3c-4.1,0-8.1-0.4-12-1.1
		c-3.9-0.8-7.3-2.3-10.3-4.6c-3-2.3-5.4-5.6-7.2-9.8c-1.8-4.2-2.7-9.7-2.7-16.5v-70.2h20.3V315.7z"/>
	<path class="st1" d="M581.4,262.1h-22v84h-20.3v-84h-22v-16.6h64.3V262.1z"/>
	<path class="st1" d="M609.2,315.7c0,2.5,0.2,4.9,0.5,7c0.3,2.1,0.9,3.9,1.8,5.5c0.9,1.6,2.1,2.8,3.7,3.7c1.6,0.9,3.5,1.3,5.9,1.3
		c2.4,0,4.4-0.4,5.9-1.3c1.5-0.9,2.7-2.1,3.6-3.7c0.9-1.6,1.5-3.4,1.8-5.5c0.3-2.1,0.5-4.4,0.5-7v-70.2h20.3v70.2
		c0,6.4-0.9,11.7-2.7,15.9c-1.8,4.2-4.2,7.5-7.2,9.9c-3,2.4-6.4,4.1-10.3,4.9c-3.9,0.8-7.8,1.3-12,1.3c-4.1,0-8.1-0.4-12-1.1
		c-3.9-0.8-7.3-2.3-10.3-4.6c-3-2.3-5.4-5.6-7.2-9.8c-1.8-4.2-2.7-9.7-2.7-16.5v-70.2h20.3V315.7z"/>
	<path class="st1" d="M703.5,245.5c8.5,0,15,2.1,19.7,6.4c4.7,4.3,7,10.8,7,19.5c0,6.8-1.4,12.3-4.1,16.6c-2.7,4.3-7,7-12.7,8.2v0.3
		c5.1,0.8,8.8,2.4,11.1,4.9c2.3,2.5,3.8,6.6,4.4,12.3c0.2,1.9,0.3,3.9,0.4,6.1c0.1,2.2,0.2,4.7,0.3,7.4c0.2,5.4,0.5,9.4,0.8,12.3
		c0.6,2.8,1.8,4.7,3.7,5.8v0.8h-22c-1-1.4-1.7-3-2-4.9s-0.5-3.7-0.6-5.7l-0.6-19.3c-0.2-3.9-1.2-7.1-3-9.3c-1.8-2.3-4.8-3.4-9-3.4
		h-10.9v42.6H666V245.5H703.5z M694.8,289.5c4.9,0,8.6-1.2,11.3-3.5c2.6-2.3,3.9-6.2,3.9-11.6c0-9.3-4.7-14-14.1-14h-9.6v29H694.8z"
		/>
	<path class="st1" d="M800.7,262.1h-36v23.7h33.8v16.6h-33.8v27.1h37.4v16.6h-57.7V245.5h56.3V262.1z"/>
</g>
<g>
	<path class="st5" d="M468.3,405.6c-0.4,0.9-0.7,1.8-0.9,2.7c-0.2,0.9-0.4,1.8-0.5,2.8c-0.1,0.9-0.2,1.9-0.2,3s0,2.1,0.2,3
		c0.1,0.9,0.3,1.8,0.5,2.7c0.2,0.9,0.5,1.8,0.9,2.7c0.4,0.9,0.8,1.8,1.3,2.8H467c-1.2-2-2.1-3.9-2.7-5.7c-0.5-1.8-0.8-3.7-0.8-5.4
		s0.3-3.6,0.8-5.5c0.5-1.9,1.4-3.8,2.7-5.8h2.6C469.2,403.8,468.7,404.7,468.3,405.6z"/>
	<path class="st5" d="M481.4,405.8h-3.9v14.9h-3.6v-14.9H470v-2.9h11.4V405.8z"/>
	<path class="st5" d="M486.5,402.8v6.8h4.2v-6.8h3.6v17.8h-3.6v-7.9h-4.2v7.9h-3.6v-17.8H486.5z"/>
	<path class="st5" d="M504.7,402.8l4.7,17.8h-3.8l-0.8-3.8h-4.8l-0.8,3.8h-3.8l4.7-17.8H504.7z M504.3,414l-1.7-8h0l-1.7,8H504.3z"
		/>
	<path class="st5" d="M519.8,405.8h-3.9v14.9h-3.6v-14.9h-3.9v-2.9h11.4V405.8z"/>
	<path class="st5" d="M524.9,407.9c-0.1,0.6-0.3,1-0.5,1.5s-0.6,0.7-1,1c-0.4,0.3-1,0.4-1.6,0.5v-1.8c0.4-0.1,0.8-0.3,1-0.7
		c0.2-0.4,0.3-0.8,0.3-1.3v-0.4h-1.3v-3.9h3.3v3.2C525,406.8,525,407.4,524.9,407.9z"/>
	<path class="st5" d="M530.7,415.6c0,0.4,0,0.8,0.1,1.1s0.2,0.6,0.4,0.9s0.4,0.4,0.7,0.5c0.3,0.1,0.7,0.2,1.2,0.2
		c0.5,0,1-0.2,1.5-0.5c0.4-0.4,0.7-0.9,0.7-1.7c0-0.4-0.1-0.7-0.2-1c-0.1-0.3-0.3-0.6-0.5-0.8s-0.6-0.4-1-0.6
		c-0.4-0.2-0.9-0.4-1.5-0.6c-0.8-0.3-1.5-0.6-2.1-0.9c-0.6-0.3-1.1-0.7-1.5-1.1c-0.4-0.4-0.7-0.9-0.9-1.5c-0.2-0.6-0.3-1.2-0.3-1.9
		c0-1.8,0.5-3.1,1.5-4c1-0.9,2.3-1.3,4-1.3c0.8,0,1.5,0.1,2.2,0.3c0.7,0.2,1.3,0.5,1.8,0.8c0.5,0.4,0.9,0.9,1.2,1.5
		c0.3,0.6,0.4,1.3,0.4,2.2v0.5H535c0-0.8-0.2-1.5-0.5-2s-0.8-0.7-1.5-0.7c-0.4,0-0.7,0.1-1,0.2c-0.3,0.1-0.5,0.3-0.6,0.5
		s-0.3,0.4-0.3,0.7s-0.1,0.5-0.1,0.8c0,0.5,0.1,1,0.3,1.4s0.7,0.7,1.5,1l2.8,1.2c0.7,0.3,1.2,0.6,1.7,0.9c0.4,0.3,0.8,0.7,1,1
		s0.4,0.8,0.5,1.2c0.1,0.5,0.1,1,0.1,1.5c0,1.9-0.5,3.3-1.6,4.1s-2.6,1.3-4.6,1.3c-2,0-3.5-0.4-4.4-1.3s-1.3-2.2-1.3-3.8v-0.7h3.6
		V415.6z"/>
	<path class="st5" d="M548.3,402.8l2,13.2h0l2.1-13.2h3.4L558,416h0l2-13.2h3.5l-3.2,17.8h-4l-2-13h-0.1l-2,13h-4l-3.2-17.8H548.3z"
		/>
	<path class="st5" d="M568.5,402.8v6.8h4.2v-6.8h3.6v17.8h-3.6v-7.9h-4.2v7.9h-3.6v-17.8H568.5z"/>
	<path class="st5" d="M584,409.7L584,409.7l2.6-6.9h3.9l-4.6,10.8v7h-3.6v-7l-4.6-10.8h4L584,409.7z"/>
	<path class="st5" d="M603.2,402.8l2.5,12.6h0.1l2.6-12.6h5.3v17.8h-3.3v-14.2h0l-3.2,14.2h-2.8l-3.2-14.2h0v14.2h-3.3v-17.8H603.2z
		"/>
	<path class="st5" d="M621.5,409.7L621.5,409.7l2.6-6.9h3.9l-4.6,10.8v7h-3.6v-7l-4.6-10.8h4L621.5,409.7z"/>
	<path class="st5" d="M643.8,415.1L643.8,415.1l0-12.2h3.3v17.8H643l-4.4-12.5h0v12.5h-3.3v-17.8h4.2L643.8,415.1z"/>
	<path class="st5" d="M657.6,402.8l4.7,17.8h-3.8l-0.8-3.8H653l-0.8,3.8h-3.8l4.7-17.8H657.6z M657.1,414l-1.7-8h0l-1.7,8H657.1z"/>
	<path class="st5" d="M669,402.8l2.5,12.6h0.1l2.6-12.6h5.3v17.8h-3.3v-14.2h0l-3.2,14.2h-2.8l-3.2-14.2h0v14.2h-3.3v-17.8H669z"/>
	<path class="st5" d="M692,405.8h-6.4v4.2h6v3h-6v4.8h6.6v3H682v-17.8h10V405.8z"/>
	<path class="st5" d="M700.2,402.8h3.6v17.8h-3.6V402.8z"/>
	<path class="st5" d="M709.4,415.6c0,0.4,0,0.8,0.1,1.1s0.2,0.6,0.4,0.9s0.4,0.4,0.7,0.5c0.3,0.1,0.7,0.2,1.2,0.2
		c0.5,0,1-0.2,1.5-0.5c0.4-0.4,0.7-0.9,0.7-1.7c0-0.4-0.1-0.7-0.2-1c-0.1-0.3-0.3-0.6-0.5-0.8s-0.6-0.4-1-0.6
		c-0.4-0.2-0.9-0.4-1.5-0.6c-0.8-0.3-1.5-0.6-2.1-0.9c-0.6-0.3-1.1-0.7-1.5-1.1c-0.4-0.4-0.7-0.9-0.9-1.5c-0.2-0.6-0.3-1.2-0.3-1.9
		c0-1.8,0.5-3.1,1.5-4c1-0.9,2.3-1.3,4-1.3c0.8,0,1.5,0.1,2.2,0.3c0.7,0.2,1.3,0.5,1.8,0.8c0.5,0.4,0.9,0.9,1.2,1.5
		c0.3,0.6,0.4,1.3,0.4,2.2v0.5h-3.4c0-0.8-0.2-1.5-0.5-2s-0.8-0.7-1.5-0.7c-0.4,0-0.7,0.1-1,0.2c-0.3,0.1-0.5,0.3-0.6,0.5
		s-0.3,0.4-0.3,0.7s-0.1,0.5-0.1,0.8c0,0.5,0.1,1,0.3,1.4s0.7,0.7,1.5,1l2.8,1.2c0.7,0.3,1.2,0.6,1.7,0.9c0.4,0.3,0.8,0.7,1,1
		s0.4,0.8,0.5,1.2c0.1,0.5,0.1,1,0.1,1.5c0,1.9-0.5,3.3-1.6,4.1s-2.6,1.3-4.6,1.3c-2,0-3.5-0.4-4.4-1.3s-1.3-2.2-1.3-3.8v-0.7h3.6
		V415.6z"/>
	<path class="st5" d="M732.1,402.8c1.5,0,2.7,0.4,3.5,1.1c0.8,0.8,1.2,1.9,1.2,3.5c0,1.2-0.2,2.2-0.7,2.9c-0.5,0.8-1.2,1.2-2.2,1.5
		v0c0.9,0.1,1.6,0.4,2,0.9c0.4,0.5,0.7,1.2,0.8,2.2c0,0.3,0.1,0.7,0.1,1.1s0,0.8,0,1.3c0,0.9,0.1,1.7,0.2,2.2c0.1,0.5,0.3,0.8,0.6,1
		v0.2h-3.9c-0.2-0.2-0.3-0.5-0.4-0.9c0-0.3-0.1-0.7-0.1-1l-0.1-3.4c0-0.7-0.2-1.2-0.5-1.7c-0.3-0.4-0.8-0.6-1.6-0.6h-1.9v7.5h-3.6
		v-17.8H732.1z M730.6,410.6c0.9,0,1.5-0.2,2-0.6s0.7-1.1,0.7-2.1c0-1.7-0.8-2.5-2.5-2.5h-1.7v5.2H730.6z"/>
	<path class="st5" d="M739.6,402.8h3.6v17.8h-3.6V402.8z"/>
	<path class="st5" d="M753,406c-0.3-0.6-0.9-0.9-1.7-0.9c-0.4,0-0.8,0.1-1.1,0.4c-0.3,0.2-0.5,0.6-0.7,1.2c-0.2,0.5-0.3,1.2-0.3,2.1
		c-0.1,0.9-0.1,1.9-0.1,3.2c0,1.3,0,2.4,0.1,3.3c0.1,0.8,0.2,1.5,0.4,1.9c0.2,0.5,0.4,0.8,0.7,0.9c0.3,0.2,0.6,0.2,1,0.2
		c0.3,0,0.6-0.1,0.9-0.2c0.3-0.1,0.5-0.3,0.7-0.6s0.4-0.8,0.5-1.4c0.1-0.6,0.2-1.4,0.2-2.3h3.6c0,1-0.1,1.9-0.2,2.8
		c-0.2,0.9-0.4,1.6-0.8,2.3c-0.4,0.6-1,1.2-1.7,1.5c-0.7,0.4-1.7,0.6-2.9,0.6c-1.4,0-2.4-0.2-3.2-0.7c-0.8-0.4-1.4-1.1-1.8-1.9
		s-0.7-1.8-0.8-2.9s-0.2-2.4-0.2-3.8c0-1.4,0.1-2.6,0.2-3.7s0.4-2.1,0.8-2.9s1-1.5,1.8-1.9c0.8-0.5,1.9-0.7,3.2-0.7
		c1.3,0,2.3,0.2,3,0.6c0.7,0.4,1.3,0.9,1.7,1.6c0.4,0.6,0.6,1.3,0.7,2.1c0.1,0.7,0.1,1.4,0.1,2.1h-3.6
		C753.5,407.6,753.3,406.6,753,406z"/>
	<path class="st5" d="M762.9,402.8v6.8h4.2v-6.8h3.6v17.8h-3.6v-7.9h-4.2v7.9h-3.6v-17.8H762.9z"/>
	<path class="st5" d="M773.3,402.8h3.6v17.8h-3.6V402.8z"/>
	<path class="st5" d="M789.6,405.8h-6.4v4.2h6v3h-6v4.8h6.6v3h-10.2v-17.8h10V405.8z"/>
	<path class="st5" d="M795.7,408.6c0.5,1.9,0.8,3.7,0.8,5.5s-0.3,3.6-0.8,5.4c-0.5,1.9-1.4,3.8-2.7,5.7h-2.7c0.5-1,1-1.9,1.3-2.8
		c0.4-0.9,0.7-1.8,0.9-2.7c0.2-0.9,0.4-1.8,0.5-2.7c0.1-0.9,0.1-1.9,0.1-3s0-2.1-0.1-3c-0.1-0.9-0.3-1.9-0.5-2.8
		c-0.2-0.9-0.5-1.8-0.9-2.7c-0.4-0.9-0.8-1.8-1.3-2.8h2.7C794.3,404.8,795.2,406.7,795.7,408.6z"/>
</g>
</svg>
