<?xml version="1.0" encoding="utf-8"?>
<!-- Generator: Adobe Illustrator 19.2.0, SVG Export Plug-In . SVG Version: 6.00 Build 0)  -->
<svg version="1.1" id="Layer_1" xmlns="http://www.w3.org/2000/svg" xmlns:xlink="http://www.w3.org/1999/xlink" x="0px" y="0px"
	 viewBox="0 0 700 400" style="enable-background:new 0 0 700 400;" xml:space="preserve">
<style type="text/css">
	.st0{opacity:0.5;}
	.st1{fill:#446DB2;}
	.st2{fill:#FFFFFF;}
	.st3{fill:#D2EAF7;}
	.st4{fill:#336699;}
	.st5{fill:#233368;}
	.st6{fill:#CCE7F6;}
</style>
<g class="st0">
	<path class="st1" d="M280.5,96.2v6.3h-13.7v9h12.9v6.3h-12.9v16.6h-7.7V96.2H280.5z"/>
	<path class="st1" d="M284.3,96.2h7.7v38.3h-7.7V96.2z"/>
	<path class="st1" d="M312.1,96.2c3.2,0,5.7,0.8,7.5,2.4c1.8,1.6,2.7,4.1,2.7,7.4c0,2.6-0.5,4.7-1.6,6.3c-1,1.6-2.6,2.7-4.8,3.1v0.1
		c1.9,0.3,3.3,0.9,4.2,1.9c0.9,1,1.4,2.5,1.7,4.7c0.1,0.7,0.1,1.5,0.2,2.3c0,0.8,0.1,1.8,0.1,2.8c0.1,2,0.2,3.6,0.3,4.7
		c0.2,1.1,0.7,1.8,1.4,2.2v0.3h-8.4c-0.4-0.5-0.6-1.2-0.8-1.9s-0.2-1.4-0.2-2.2l-0.2-7.4c-0.1-1.5-0.4-2.7-1.1-3.5
		c-0.7-0.9-1.8-1.3-3.4-1.3h-4.1v16.2h-7.7V96.2H312.1z M308.8,112.9c1.9,0,3.3-0.4,4.3-1.3c1-0.9,1.5-2.4,1.5-4.4
		c0-3.5-1.8-5.3-5.4-5.3h-3.7v11.1H308.8z"/>
	<path class="st1" d="M333.9,123.7c0,0.9,0.1,1.7,0.2,2.4c0.1,0.7,0.4,1.4,0.8,1.9c0.4,0.5,0.9,0.9,1.6,1.2c0.7,0.3,1.5,0.4,2.5,0.4
		c1.2,0,2.2-0.4,3.2-1.2c0.9-0.8,1.4-2,1.4-3.6c0-0.9-0.1-1.6-0.3-2.2c-0.2-0.6-0.6-1.2-1.2-1.7c-0.5-0.5-1.2-1-2.1-1.4
		c-0.9-0.4-2-0.8-3.2-1.3c-1.7-0.6-3.2-1.2-4.5-1.9c-1.3-0.7-2.3-1.5-3.1-2.4c-0.8-0.9-1.5-2-1.9-3.2c-0.4-1.2-0.6-2.6-0.6-4.2
		c0-3.8,1.1-6.6,3.2-8.5c2.1-1.9,5-2.8,8.7-2.8c1.7,0,3.3,0.2,4.8,0.6c1.4,0.4,2.7,1,3.8,1.8c1.1,0.8,1.9,1.9,2.5,3.2
		c0.6,1.3,0.9,2.9,0.9,4.7v1.1H343c0-1.8-0.3-3.2-1-4.2c-0.6-1-1.7-1.5-3.2-1.5c-0.9,0-1.6,0.1-2.1,0.4c-0.6,0.3-1,0.6-1.4,1
		c-0.3,0.4-0.6,0.9-0.7,1.4c-0.1,0.5-0.2,1.1-0.2,1.7c0,1.2,0.2,2.2,0.8,3c0.5,0.8,1.6,1.5,3.2,2.2l6,2.6c1.5,0.6,2.7,1.3,3.6,2
		c0.9,0.7,1.7,1.4,2.2,2.3c0.6,0.8,0.9,1.7,1.2,2.7s0.3,2,0.3,3.2c0,4-1.2,7-3.5,8.8c-2.3,1.8-5.6,2.8-9.8,2.8
		c-4.4,0-7.5-0.9-9.4-2.8c-1.9-1.9-2.8-4.6-2.8-8.2v-1.6h7.7V123.7z"/>
	<path class="st1" d="M378,102.5h-8.4v32h-7.7v-32h-8.4v-6.3H378V102.5z"/>
	<path class="st1" d="M397.3,96.2l4.2,28.3h0.1l4.5-28.3h7.4l4.5,28.3h0.1l4.2-28.3h7.4l-7,38.3h-8.6l-4.3-27.8h-0.1l-4.3,27.8h-8.6
		l-7-38.3H397.3z"/>
	<path class="st1" d="M454.4,102.5h-13.7v9h12.9v6.3h-12.9v10.3h14.2v6.3h-22V96.2h21.4V102.5z"/>
	<path class="st1" d="M474.8,96.2l4.2,28.3h0.1l4.5-28.3h7.4l4.5,28.3h0.1l4.2-28.3h7.4l-7,38.3h-8.6l-4.3-27.8h-0.1l-4.3,27.8h-8.6
		l-7-38.3H474.8z"/>
	<path class="st1" d="M510.9,96.2h7.7v38.3h-7.7V96.2z"/>
	<path class="st1" d="M524.3,96.2h7.7v32h13.7v6.3h-21.4V96.2z"/>
	<path class="st1" d="M549.2,96.2h7.7v32h13.7v6.3h-21.4V96.2z"/>
</g>
<g>
	<g>
		<path class="st1" d="M264.5,140c0.8,0,1.5,0.1,2.1,0.2c0.6,0.2,1.2,0.4,1.7,0.8c0.5,0.4,0.8,0.8,1.1,1.4c0.3,0.6,0.4,1.3,0.4,2.2
			c0,1-0.2,1.9-0.7,2.6c-0.5,0.7-1.2,1.2-2.1,1.5v0.1c1,0.1,1.9,0.6,2.5,1.3c0.6,0.7,0.9,1.7,0.9,3c0,0.7-0.1,1.4-0.3,2.1
			c-0.2,0.7-0.5,1.2-1,1.7c-0.5,0.5-1.1,0.9-1.8,1.2c-0.7,0.3-1.6,0.4-2.7,0.4h-6.3V140H264.5z M263.1,147.6c1,0,1.8-0.2,2.3-0.6
			c0.5-0.4,0.7-1,0.7-1.9c0-0.9-0.2-1.5-0.6-1.9c-0.4-0.4-1.1-0.5-2-0.5H262v4.8H263.1z M263.5,155.7c0.9,0,1.6-0.2,2.2-0.6
			c0.6-0.4,0.8-1.1,0.8-2.2c0-0.5-0.1-1-0.2-1.3c-0.1-0.4-0.3-0.6-0.6-0.9c-0.2-0.2-0.5-0.4-0.9-0.5c-0.3-0.1-0.7-0.1-1.1-0.1H262
			v5.6H263.5z"/>
		<path class="st1" d="M276.2,152.9c0,0.5,0,0.9,0.1,1.3c0.1,0.4,0.2,0.7,0.3,1s0.4,0.5,0.7,0.7c0.3,0.2,0.6,0.2,1.1,0.2
			c0.4,0,0.8-0.1,1.1-0.2c0.3-0.2,0.5-0.4,0.7-0.7s0.3-0.6,0.3-1c0.1-0.4,0.1-0.8,0.1-1.3V140h3.7v12.9c0,1.2-0.2,2.1-0.5,2.9
			c-0.3,0.8-0.8,1.4-1.3,1.8c-0.6,0.4-1.2,0.7-1.9,0.9c-0.7,0.2-1.4,0.2-2.2,0.2c-0.8,0-1.5-0.1-2.2-0.2c-0.7-0.1-1.3-0.4-1.9-0.8
			s-1-1-1.3-1.8c-0.3-0.8-0.5-1.8-0.5-3V140h3.7V152.9z"/>
		<path class="st1" d="M293.4,140c1.5,0,2.8,0.4,3.6,1.2c0.9,0.8,1.3,2,1.3,3.6c0,1.2-0.2,2.3-0.7,3c-0.5,0.8-1.3,1.3-2.3,1.5v0.1
			c0.9,0.1,1.6,0.4,2,0.9c0.4,0.5,0.7,1.2,0.8,2.2c0,0.3,0.1,0.7,0.1,1.1c0,0.4,0,0.9,0.1,1.4c0,1,0.1,1.7,0.2,2.2
			c0.1,0.5,0.3,0.9,0.7,1.1v0.2h-4c-0.2-0.3-0.3-0.6-0.4-0.9s-0.1-0.7-0.1-1l-0.1-3.5c0-0.7-0.2-1.3-0.5-1.7
			c-0.3-0.4-0.9-0.6-1.7-0.6h-2v7.8h-3.7V140H293.4z M291.8,148.1c0.9,0,1.6-0.2,2.1-0.6c0.5-0.4,0.7-1.1,0.7-2.1
			c0-1.7-0.9-2.6-2.6-2.6h-1.8v5.3H291.8z"/>
		<path class="st1" d="M309.7,152.6L309.7,152.6l0.1-12.6h3.4v18.4h-4.2l-4.5-12.9h-0.1v12.9h-3.4V140h4.3L309.7,152.6z"/>
		<path class="st1" d="M331.8,143.1h-4v15.4H324v-15.4h-4v-3h11.8V143.1z"/>
		<path class="st1" d="M337.1,140v7.1h4.3V140h3.7v18.4h-3.7v-8.2h-4.3v8.2h-3.7V140H337.1z"/>
		<path class="st1" d="M358.1,143.1h-6.6v4.3h6.2v3h-6.2v5h6.8v3h-10.6V140h10.3V143.1z"/>
		<path class="st1" d="M376.2,143.1h-4v15.4h-3.7v-15.4h-4v-3h11.8V143.1z"/>
		<path class="st1" d="M388.1,143.1h-6.6v4.3h6.2v3h-6.2v5h6.8v3h-10.6V140h10.3V143.1z"/>
		<path class="st1" d="M393.6,140l2.4,6l2.4-6h4.1l-4.3,9.1l4.6,9.3h-4.2l-2.7-6.3l-2.6,6.3h-4.1l4.6-9.3l-4.2-9.1H393.6z"/>
		<path class="st1" d="M414.9,143.1h-4v15.4h-3.7v-15.4h-4v-3h11.8V143.1z"/>
		<path class="st1" d="M422.7,140c0.8,0,1.5,0.1,2.1,0.2c0.6,0.2,1.2,0.4,1.7,0.8c0.5,0.4,0.8,0.8,1.1,1.4c0.3,0.6,0.4,1.3,0.4,2.2
			c0,1-0.2,1.9-0.7,2.6c-0.5,0.7-1.2,1.2-2.1,1.5v0.1c1,0.1,1.9,0.6,2.5,1.3s0.9,1.7,0.9,3c0,0.7-0.1,1.4-0.3,2.1
			c-0.2,0.7-0.5,1.2-1,1.7s-1,0.9-1.8,1.2c-0.7,0.3-1.6,0.4-2.7,0.4h-6.3V140H422.7z M421.3,147.6c1,0,1.8-0.2,2.3-0.6
			s0.7-1,0.7-1.9c0-0.9-0.2-1.5-0.6-1.9c-0.4-0.4-1.1-0.5-2-0.5h-1.3v4.8H421.3z M421.7,155.7c0.9,0,1.6-0.2,2.2-0.6
			c0.6-0.4,0.8-1.1,0.8-2.2c0-0.5-0.1-1-0.2-1.3c-0.1-0.4-0.3-0.6-0.6-0.9c-0.2-0.2-0.5-0.4-0.9-0.5c-0.3-0.1-0.7-0.1-1.1-0.1h-1.6
			v5.6H421.7z"/>
		<path class="st1" d="M430.7,145.4c0.1-1.2,0.4-2.2,0.9-3c0.4-0.8,1.1-1.5,1.9-2c0.8-0.5,1.9-0.7,3.3-0.7c1.4,0,2.5,0.2,3.3,0.7
			c0.8,0.5,1.5,1.1,1.9,2c0.4,0.8,0.7,1.9,0.9,3c0.1,1.2,0.2,2.5,0.2,3.9c0,1.4-0.1,2.7-0.2,3.9s-0.4,2.2-0.9,3
			c-0.4,0.8-1.1,1.5-1.9,1.9c-0.8,0.4-1.9,0.7-3.3,0.7c-1.4,0-2.5-0.2-3.3-0.7c-0.8-0.4-1.5-1.1-1.9-1.9c-0.4-0.8-0.7-1.9-0.9-3
			s-0.2-2.5-0.2-3.9C430.5,147.8,430.5,146.5,430.7,145.4z M434.3,152.4c0.1,0.9,0.2,1.6,0.4,2.1c0.2,0.5,0.4,0.9,0.8,1.2
			c0.3,0.2,0.8,0.4,1.3,0.4c0.6,0,1-0.1,1.3-0.4c0.3-0.2,0.6-0.6,0.8-1.2c0.2-0.5,0.3-1.2,0.4-2.1c0.1-0.9,0.1-1.9,0.1-3.2
			s0-2.3-0.1-3.2c-0.1-0.9-0.2-1.6-0.4-2.1s-0.4-1-0.8-1.2c-0.3-0.2-0.8-0.4-1.3-0.4c-0.6,0-1,0.1-1.3,0.4c-0.3,0.2-0.6,0.6-0.8,1.2
			s-0.3,1.3-0.4,2.1c-0.1,0.9-0.1,1.9-0.1,3.2S434.2,151.5,434.3,152.4z"/>
		<path class="st1" d="M445,145.4c0.1-1.2,0.4-2.2,0.9-3c0.4-0.8,1.1-1.5,1.9-2c0.8-0.5,1.9-0.7,3.3-0.7c1.4,0,2.5,0.2,3.3,0.7
			c0.8,0.5,1.5,1.1,1.9,2c0.4,0.8,0.7,1.9,0.9,3c0.1,1.2,0.2,2.5,0.2,3.9c0,1.4-0.1,2.7-0.2,3.9s-0.4,2.2-0.9,3
			c-0.4,0.8-1.1,1.5-1.9,1.9c-0.8,0.4-1.9,0.7-3.3,0.7c-1.4,0-2.5-0.2-3.3-0.7c-0.8-0.4-1.5-1.1-1.9-1.9c-0.4-0.8-0.7-1.9-0.9-3
			s-0.2-2.5-0.2-3.9C444.8,147.8,444.9,146.5,445,145.4z M448.7,152.4c0.1,0.9,0.2,1.6,0.4,2.1c0.2,0.5,0.4,0.9,0.8,1.2
			c0.3,0.2,0.8,0.4,1.3,0.4c0.6,0,1-0.1,1.3-0.4c0.3-0.2,0.6-0.6,0.8-1.2c0.2-0.5,0.3-1.2,0.4-2.1c0.1-0.9,0.1-1.9,0.1-3.2
			s0-2.3-0.1-3.2c-0.1-0.9-0.2-1.6-0.4-2.1s-0.4-1-0.8-1.2c-0.3-0.2-0.8-0.4-1.3-0.4c-0.6,0-1,0.1-1.3,0.4c-0.3,0.2-0.6,0.6-0.8,1.2
			s-0.3,1.3-0.4,2.1c-0.1,0.9-0.1,1.9-0.1,3.2S448.6,151.5,448.7,152.4z"/>
		<path class="st1" d="M463.3,147.4L463.3,147.4l4.8-7.4h4l-5,7.9l5.6,10.5h-4.2l-3.8-7.6l-1.4,2.1v5.5h-3.7V140h3.7V147.4z"/>
		<path class="st1" d="M476.5,153.2c0,0.4,0,0.8,0.1,1.2c0.1,0.4,0.2,0.6,0.4,0.9s0.4,0.4,0.8,0.6c0.3,0.1,0.7,0.2,1.2,0.2
			c0.6,0,1.1-0.2,1.5-0.6c0.5-0.4,0.7-0.9,0.7-1.7c0-0.4-0.1-0.8-0.2-1.1c-0.1-0.3-0.3-0.6-0.6-0.8c-0.3-0.2-0.6-0.5-1-0.7
			s-0.9-0.4-1.6-0.6c-0.8-0.3-1.5-0.6-2.1-0.9c-0.6-0.3-1.1-0.7-1.5-1.1c-0.4-0.4-0.7-0.9-0.9-1.5s-0.3-1.2-0.3-2
			c0-1.8,0.5-3.2,1.5-4.1c1-0.9,2.4-1.3,4.2-1.3c0.8,0,1.6,0.1,2.3,0.3c0.7,0.2,1.3,0.5,1.8,0.9c0.5,0.4,0.9,0.9,1.2,1.5
			s0.4,1.4,0.4,2.3v0.5h-3.6c0-0.9-0.2-1.6-0.5-2c-0.3-0.5-0.8-0.7-1.5-0.7c-0.4,0-0.8,0.1-1,0.2c-0.3,0.1-0.5,0.3-0.7,0.5
			c-0.2,0.2-0.3,0.4-0.3,0.7s-0.1,0.5-0.1,0.8c0,0.6,0.1,1,0.4,1.4s0.8,0.7,1.5,1.1l2.9,1.2c0.7,0.3,1.3,0.6,1.7,1
			c0.4,0.3,0.8,0.7,1.1,1.1c0.3,0.4,0.5,0.8,0.6,1.3s0.2,1,0.2,1.5c0,1.9-0.6,3.4-1.7,4.2s-2.7,1.3-4.7,1.3c-2.1,0-3.6-0.5-4.5-1.4
			c-0.9-0.9-1.4-2.2-1.4-3.9v-0.7h3.7V153.2z"/>
	</g>
</g>
<g class="st0">
	<g>
		<path class="st1" d="M278.4,233.4l12.2,46.1h-9.7l-2.1-9.8h-12.3l-2.1,9.8h-9.7l12.2-46.1H278.4z M277.2,262.2l-4.5-20.7h-0.1
			l-4.5,20.7H277.2z"/>
		<path class="st1" d="M315.8,265h0.1v-31.6h8.5v46.1h-10.6l-11.4-32.3h-0.1v32.3h-8.5v-46.1h10.7L315.8,265z"/>
		<path class="st1" d="M346.6,233.4c3.2,0,5.8,0.5,7.8,1.6s3.5,2.6,4.6,4.5c1.1,2,1.8,4.3,2.2,7.1c0.4,2.8,0.6,5.8,0.6,9.2
			c0,4-0.2,7.6-0.7,10.6c-0.5,3-1.3,5.5-2.6,7.4c-1.2,1.9-2.8,3.4-4.8,4.3c-2,0.9-4.6,1.4-7.7,1.4h-14.7v-46.1H346.6z M344.8,272.7
			c1.6,0,2.9-0.3,3.9-0.8c1-0.6,1.8-1.5,2.4-2.8c0.6-1.3,1-3,1.2-5.1c0.2-2.1,0.3-4.7,0.3-7.9c0-2.6-0.1-4.9-0.3-6.9
			c-0.2-2-0.5-3.6-1.1-4.9c-0.5-1.3-1.3-2.3-2.4-3c-1.1-0.7-2.5-1-4.2-1h-3.9v32.4H344.8z"/>
		<path class="st1" d="M383.5,233.4h9.3v38.5h16.5v7.6h-25.8V233.4z"/>
		<path class="st1" d="M439.1,241.1h-16.5v10.8h15.5v7.6h-15.5v12.4h17.1v7.6h-26.4v-46.1h25.8V241.1z"/>
		<path class="st1" d="M464.9,233.4l12.2,46.1h-9.7l-2.1-9.8H453l-2.1,9.8h-9.7l12.2-46.1H464.9z M463.7,262.2l-4.5-20.7h-0.1
			l-4.5,20.7H463.7z"/>
		<path class="st1" d="M497.5,233.4c3.9,0,6.9,1,9,2.9c2.2,2,3.2,4.9,3.2,8.9c0,3.1-0.6,5.6-1.9,7.6c-1.2,2-3.2,3.2-5.8,3.8v0.1
			c2.3,0.3,4,1.1,5.1,2.3c1.1,1.2,1.7,3,2,5.6c0.1,0.9,0.2,1.8,0.2,2.8c0,1,0.1,2.1,0.1,3.4c0.1,2.5,0.2,4.3,0.4,5.6
			c0.3,1.3,0.8,2.2,1.7,2.6v0.4h-10.1c-0.5-0.6-0.8-1.4-0.9-2.2c-0.1-0.8-0.2-1.7-0.3-2.6l-0.3-8.8c-0.1-1.8-0.5-3.2-1.4-4.3
			c-0.8-1-2.2-1.5-4.1-1.5h-5v19.5h-9.3v-46.1H497.5z M493.5,253.6c2.2,0,4-0.5,5.2-1.6c1.2-1.1,1.8-2.8,1.8-5.3
			c0-4.3-2.2-6.4-6.5-6.4h-4.4v13.3H493.5z"/>
		<path class="st1" d="M538.2,265h0.1v-31.6h8.5v46.1h-10.6l-11.4-32.3h-0.1v32.3h-8.5v-46.1h10.7L538.2,265z"/>
		<path class="st1" d="M578.1,233.4v17.6h10.8v-17.6h9.3v46.1h-9.3v-20.5h-10.8v20.5h-9.3v-46.1H578.1z"/>
		<path class="st1" d="M604.2,246.8c0.3-2.9,1-5.5,2.1-7.6s2.7-3.8,4.7-4.9c2.1-1.2,4.8-1.8,8.3-1.8c3.5,0,6.3,0.6,8.3,1.8
			c2.1,1.2,3.6,2.8,4.7,4.9s1.8,4.6,2.1,7.6c0.3,2.9,0.5,6.2,0.5,9.7c0,3.5-0.2,6.8-0.5,9.7c-0.3,2.9-1,5.4-2.1,7.6
			c-1.1,2.1-2.7,3.7-4.7,4.8c-2.1,1.1-4.8,1.7-8.3,1.7c-3.5,0-6.3-0.6-8.3-1.7s-3.6-2.7-4.7-4.8c-1.1-2.1-1.8-4.6-2.1-7.6
			c-0.3-2.9-0.5-6.2-0.5-9.7C603.7,253,603.9,249.8,604.2,246.8z M613.2,264.4c0.2,2.2,0.5,3.9,0.9,5.3c0.5,1.4,1.1,2.3,1.9,3
			c0.8,0.6,1.9,0.9,3.3,0.9c1.4,0,2.5-0.3,3.3-0.9c0.8-0.6,1.5-1.6,1.9-3c0.5-1.4,0.8-3.1,0.9-5.3c0.1-2.2,0.2-4.8,0.2-7.9
			c0-3.1-0.1-5.7-0.2-7.9c-0.2-2.2-0.5-3.9-0.9-5.3c-0.5-1.4-1.1-2.4-1.9-3c-0.8-0.6-1.9-0.9-3.3-0.9c-1.4,0-2.5,0.3-3.3,0.9
			s-1.5,1.6-1.9,3c-0.5,1.4-0.8,3.1-0.9,5.3c-0.2,2.2-0.2,4.8-0.2,7.9C613,259.6,613.1,262.2,613.2,264.4z"/>
		<path class="st1" d="M646.8,233.4l5.1,34.1h0.1l5.4-34.1h8.9l5.4,34.1h0.1l5.1-34.1h8.9l-8.4,46.1h-10.4l-5.2-33.4h-0.1l-5.2,33.4
			h-10.4l-8.4-46.1H646.8z"/>
	</g>
</g>
<g class="st0">
	<path class="st1" d="M272.3,286h-5.1v19.4h-4.7V286h-5.1v-3.8h14.9V286z"/>
	<path class="st1" d="M274.1,288.9c0.2-1.5,0.5-2.8,1.1-3.8c0.6-1.1,1.4-1.9,2.4-2.5c1-0.6,2.4-0.9,4.2-0.9s3.2,0.3,4.2,0.9
		c1,0.6,1.8,1.4,2.4,2.5c0.6,1.1,0.9,2.3,1.1,3.8s0.2,3.1,0.2,4.9c0,1.8-0.1,3.4-0.2,4.9c-0.2,1.5-0.5,2.8-1.1,3.8
		c-0.6,1.1-1.4,1.9-2.4,2.4s-2.4,0.8-4.2,0.8s-3.2-0.3-4.2-0.8s-1.8-1.4-2.4-2.4c-0.6-1.1-0.9-2.3-1.1-3.8c-0.2-1.5-0.2-3.1-0.2-4.9
		C273.8,292,273.9,290.4,274.1,288.9z M278.6,297.8c0.1,1.1,0.2,2,0.5,2.7c0.2,0.7,0.6,1.2,1,1.5c0.4,0.3,1,0.5,1.7,0.5
		c0.7,0,1.3-0.2,1.7-0.5c0.4-0.3,0.8-0.8,1-1.5c0.2-0.7,0.4-1.6,0.5-2.7c0.1-1.1,0.1-2.4,0.1-4c0-1.6,0-2.9-0.1-4
		c-0.1-1.1-0.2-2-0.5-2.7c-0.2-0.7-0.6-1.2-1-1.5c-0.4-0.3-1-0.5-1.7-0.5c-0.7,0-1.3,0.2-1.7,0.5s-0.8,0.8-1,1.5
		c-0.2,0.7-0.4,1.6-0.5,2.7c-0.1,1.1-0.1,2.4-0.1,4C278.5,295.4,278.6,296.7,278.6,297.8z"/>
	<path class="st1" d="M300.5,282.2h4.7v23.3h-4.7V282.2z"/>
	<path class="st1" d="M319.8,298.1L319.8,298.1l0.1-16h4.3v23.3h-5.4l-5.7-16.3H313v16.3h-4.3v-23.3h5.4L319.8,298.1z"/>
	<path class="st1" d="M334.2,299.4L334.2,299.4l3.6-17.2h4.9l-5.4,23.3h-6l-5.4-23.3h5L334.2,299.4z"/>
	<path class="st1" d="M357.4,286h-8.3v5.5h7.8v3.8h-7.8v6.3h8.6v3.8h-13.3v-23.3h13V286z"/>
	<path class="st1" d="M363.8,298.9c0,0.5,0,1,0.1,1.5c0.1,0.4,0.2,0.8,0.5,1.1c0.2,0.3,0.6,0.5,1,0.7c0.4,0.2,0.9,0.3,1.5,0.3
		c0.7,0,1.4-0.2,1.9-0.7c0.6-0.5,0.9-1.2,0.9-2.2c0-0.5-0.1-1-0.2-1.4c-0.1-0.4-0.4-0.7-0.7-1c-0.3-0.3-0.8-0.6-1.3-0.8
		c-0.5-0.2-1.2-0.5-2-0.8c-1-0.3-1.9-0.7-2.7-1.1s-1.4-0.9-1.9-1.5c-0.5-0.6-0.9-1.2-1.1-1.9s-0.4-1.6-0.4-2.5c0-2.3,0.6-4,1.9-5.2
		c1.3-1.1,3-1.7,5.3-1.7c1,0,2,0.1,2.9,0.3s1.6,0.6,2.3,1.1c0.6,0.5,1.1,1.2,1.5,2c0.4,0.8,0.5,1.7,0.5,2.9v0.7h-4.5
		c0-1.1-0.2-2-0.6-2.6c-0.4-0.6-1-0.9-2-0.9c-0.5,0-1,0.1-1.3,0.2c-0.3,0.2-0.6,0.4-0.8,0.6c-0.2,0.2-0.3,0.5-0.4,0.9
		s-0.1,0.7-0.1,1c0,0.7,0.2,1.3,0.5,1.8s1,0.9,2,1.4l3.6,1.6c0.9,0.4,1.6,0.8,2.2,1.2c0.6,0.4,1,0.9,1.4,1.4s0.6,1,0.7,1.6
		c0.1,0.6,0.2,1.2,0.2,2c0,2.5-0.7,4.2-2.1,5.4c-1.4,1.1-3.4,1.7-6,1.7c-2.7,0-4.6-0.6-5.7-1.7c-1.1-1.2-1.7-2.8-1.7-5v-0.9h4.7
		V298.9z"/>
	<path class="st1" d="M390.6,286h-5.1v19.4h-4.7V286h-5.1v-3.8h14.9V286z"/>
</g>
<g>
	<path class="st2" d="M207.8,259.9c-1.1,1.1-2.1,4.3-1.8,6.3s1.5,2.2,1.1,4.1c0.8-1.4,1.8-3.2,1.1-4.5c-0.7-1.3,0.3-4.5,0.9-5.2
		c0.5-0.7,3.5-2.7,3.1-3.5C211.9,257.8,208.8,258.9,207.8,259.9z"/>
</g>
<g>
	<g>
		<path class="st3" d="M208.7,96.9c1.4-1.2,2.3-2.3,2.5-2.6c0.2-0.3-1.4,18.5-1.4,18.5s0.4-8.8,0.3-10.7
			C209.9,100.2,208.7,96.9,208.7,96.9z"/>
	</g>
	<g>
		<path class="st2" d="M216,180.6c0.9,0,3.9-0.8,3.9-0.5c0,0.3,3.7,33.1,3.7,33.1s3.1,2.7,3.8,5.4c0.7,2.8,1.2,7.9-0.5,10.5
			c0,0-0.4,1.9-0.5,2.7c-0.2,0.8-0.8,2.7-2.6,2.3s-3.3-1.7-3.1-2.5c0.2-0.8-0.3-9.2-0.8-10.2c-0.5-1-1.2-0.3-1.3,0.2
			c-0.1,0.5-0.1,6-0.6,5.9c-0.5-0.1-2.1-2.1-2-2.8c0.1-0.6-1.1-3.5,4.1-10.3C220.9,213.4,216,180.6,216,180.6z"/>
	</g>
	<g>
		<path class="st2" d="M166.1,174.7c-0.9,0.6-5.7,13.4-7,13.6c-1.3,0.3-11.6-24.2-11-24.6c0.6-0.4,3.6-5.2,4-6s2.1-7-0.1-8.7
			s-2,5.1-2,5.1s-3-13.6-5.1-13.7c-2.2-0.1-2.4-1.5-2.4-1.5s-1.6,0.4-2,1.6c-0.3,1.2-0.8,2.5-0.6,2.9c0.2,0.5-1.6-0.2-1.6,0.4
			c0,0.6-0.7,19.5,5.7,20.1c0.8,0.8,11.3,32.4,15.9,31.1c4.6-1.3,8.9-17.2,8.9-17.2L166.1,174.7z"/>
	</g>
	<g>
		<path class="st2" d="M191.7,144.7c0,1.3-0.8,11,0.4,12.2c1.2,1.2,1.8,2.4,3.9,2.4c2,0,3.9-2.3,3.9-5.6s0-9,0-9s3.5-2.3,4.4-3.4
			c0.8-1.1,4.9-9.6,5.4-14.7c0.5-5.1,0.8-7.2,0.9-6.8c0.1,0.4-0.8-6.5-0.8-6.3s0.5-5.2,0.5-6.3s-0.5-8.6-1.4-9.6
			c-0.9-1-1.6,0.1-2.5,0.5c-1,0.4-5.4,1.1-7.5,0.6s-8.5-3.3-9.6-4c-1.1-0.7-3.9,0.5-4.9,1.3c-1,0.8-5.6,4.1-4.7,15.4
			c-2.2-0.5-3.7-0.8-4.8-0.2c-1.2,0.6-3.2,1.9-3.2,3.6c-0.1,1.6,0.1,4.3,1.2,4.8c1.1,0.5,3.4,2.1,5.5,1.3s1.7-0.9,1.5-0.3
			s0.6,4.2,0.4,5c-0.2,0.9,1.3,7.2,1.8,8.5S185.4,144,191.7,144.7z"/>
	</g>
	<g>
		<path class="st3" d="M199,145.9c-1,0.4-6.2,5.3-6.9,8.2c-0.7,2.9-0.3-6.9-0.3-7.7C191.7,145.5,199,145.9,199,145.9z"/>
	</g>
	<g>
		<path class="st3" d="M195.3,97.5c-3.7,1.5-7.7,1.7-9.3,1.7s-0.9,14.7-0.5,19.6c0.4,4.9,1.7,18.8,5.5,25.6
			c0.8,2.8-8.8-4.3-9.9-13.8s-1.9-13.8-1.9-13.8l1.6-2.4c0,0-2.5-15.2,3-18.3C186,94.9,188.3,93.2,195.3,97.5z"/>
	</g>
	<g>
		<path class="st3" d="M179.7,112.5c0-1-2.3-17.2,8.7-18c3.1,3,18.6,8.9,23.3,0.3S211.6,77,208,74.9c-3.6-2.2-12.7-1.1-13.2,3.8
			c0.1,2.9,0.4,2.9,0.8,2.8s1.3-2.4,2.3-2.9s1.5-1.6,2.8-0.8s1.7,1.1,2.3,2.6s-1.1,4.5-2.3,4.8c0.3-1.6-0.6-5.5-1.3-4.8
			c-0.7,0.8-0.5,3.2-1.5,3.8c-1,0.6-3.9,0.5-7.1,1.2s-12.7,2.9-13,8.7c-0.3,5.8-0.6,16.8-0.4,17.1S179.7,112.5,179.7,112.5z"/>
	</g>
	<g>
		<path class="st2" d="M164.9,173.2c0.7,1.2,3.1,5.3,4.4,5.4c1.4,0.1,2.4-2.9,2.7-2.7s-0.2,5.9-0.2,5.9s-0.6,22.6,0.9,23.7
			s8-0.2,10.4,0.4c2.4,0.6,5.6,1,8.4,1.2c2.8,0.1,6.3-0.8,7.8-0.8c1.6,0,13,1.3,13.8-0.1c0.8-1.4,0.8-10.3,0.8-10.3l0.6-16.1
			c0,0,0.4,1.7,1,1.6c0.6,0,4.6-0.8,5-1.5c0.4-0.7-3.8-20.4-6.1-21.8c-2.2-1.4-10.8-2.7-14.1-3c-0.2,0.7-0.8,2.2-1.6,2.9
			c-0.8,0.7-3.5,1.9-4.3,1.3s-3.1-3-3.1-3.4c0-0.4-0.1-1.4-0.1-1.4s-6.2,0-8,0.4c-1.9,0.4-6.4,1.2-7.8,2.7c-1.4,1.6-6.1,7.4-7.2,9.4
			S164.9,173.2,164.9,173.2z"/>
	</g>
	<g>
		<path class="st3" d="M189.6,155.1c-2.4,1.6-9.1,3.3-12.4,7c-1.5,1.7-10.7,12.8-10.5,13.1c4.6,9.3,7-4.9,8-4.7
			c7.5,1.7,9.9,23.4,9.9,26.4c0,1,0.1,8.5-0.9,8.9c-1,0.4-11,0.6-11.5-1.1c-0.4-1.4,0.2-20-0.6-26.5c-0.2-1.4-2.4,0.5-2.4,0.5
			l-4.3-5.9c0,0,5.3-8.5,5.6-9.4s4-5.2,7-6.5C180.7,155.7,189.6,155.1,189.6,155.1z"/>
	</g>
	<g>
		<circle class="st4" cx="190" cy="113.1" r="2"/>
	</g>
	<g>
		<circle class="st4" cx="204.4" cy="113.1" r="2"/>
	</g>
	<g>
		<path class="st4" d="M197.1,134.3c-3.9,0-8.4-2.4-9.6-4.5c-0.5-0.9-0.3-1.6-0.1-1.9c1.1-1.8,2.6-1.1,4-0.4
			c1.3,0.6,3.1,1.5,5.7,1.5c0,0,0,0,0.1,0c2.2,0,3.9-0.7,5.3-1.3c1.5-0.6,3.2-1.3,4.1,0.3c0.2,0.4,0.4,1.1-0.2,2.1
			C205.1,132.1,201.1,134.3,197.1,134.3L197.1,134.3C197.1,134.3,197.1,134.3,197.1,134.3z M189.2,128.4c-0.2,0-0.2,0.1-0.3,0.3
			c0,0,0.1,0.3,0.6,0.8c1.5,1.5,4.7,3,7.6,3c0,0,0,0,0,0l0,0c3.6,0,7-1.9,7.8-3.3c0.1-0.2,0.2-0.4,0.1-0.5c0-0.1-0.1-0.1-0.1-0.1
			c-0.2-0.1-1.1,0.3-1.8,0.6c-1.5,0.6-3.5,1.4-6,1.4c0,0,0,0-0.1,0c-3,0-5.1-1-6.5-1.7C189.8,128.6,189.4,128.4,189.2,128.4z"/>
	</g>
	<g>
		<path class="st4" d="M198.1,121.4c-1.2,0-3-0.2-3.5-1.2c-0.2-0.4-0.1-0.9,0.3-1.2c0.4-0.2,0.9-0.1,1.1,0.3
			c0.2,0.2,0.9,0.3,1.6,0.3c-0.8-1.1-0.9-2.6-1-4.2c-0.1-0.7-0.1-1.5-0.2-2.2c-0.1-0.5,0.2-0.9,0.7-1c0.5-0.1,0.9,0.2,1,0.7
			c0.1,0.8,0.2,1.6,0.3,2.4c0.2,2,0.3,3.3,1.2,3.7c0.8,0.4,0.9,0.9,0.8,1.3c-0.1,0.4-0.3,0.8-1.2,1
			C198.9,121.4,198.5,121.4,198.1,121.4z"/>
	</g>
	<g>
		<path class="st5" d="M142.2,155.1c-0.4,0-0.7-0.2-0.8-0.6c-0.3-1-2.5-9.3-2.2-11.9c0.1-0.5,0.5-0.8,1-0.8c0.5,0.1,0.8,0.5,0.8,1
			c-0.2,2,1.8,10.1,2.1,11.1c0.2,0.4-0.1,0.9-0.5,1.1C142.4,155,142.3,155.1,142.2,155.1z"/>
	</g>
	<g>
		<path class="st5" d="M144,153c-0.4,0-0.7-0.2-0.8-0.6c-0.3-1.1-2.4-11.4-2.4-13.3c0-0.5,0.4-0.9,0.9-0.9c0.5,0,0.9,0.4,0.9,0.9
			c0,1.5,2,11.7,2.3,12.8c0.1,0.5-0.1,0.9-0.6,1.1C144.2,153,144.1,153,144,153z"/>
	</g>
	<g>
		<path class="st5" d="M145.6,152.7c-0.5,0-0.8-0.4-0.9-0.8c0-0.9-0.3-3.4-1.5-10.6l0-0.3c-0.1-0.5,0.2-0.9,0.7-1
			c0.5-0.1,0.9,0.2,1,0.7l0,0.3c1,5.9,1.5,9.6,1.5,10.9C146.5,152.3,146.1,152.7,145.6,152.7C145.7,152.7,145.7,152.7,145.6,152.7z"
			/>
	</g>
	<polyline class="st2" points="152.9,151.5 158.7,149.1 152.6,130.7 123.6,139.8 129.3,161.3 150.3,152.6 	"/>
	<g>
		<path class="st3" d="M138.3,135.8c-5,2.8-3.4,19.4-0.8,21.4c-1.5,1.3-7.9,4.5-7.9,4.5l-5.5-21.5L138.3,135.8z"/>
	</g>
	<path class="st4" d="M225.6,213.7c-0.3-0.3-0.6-0.5-0.8-0.7c-0.4-0.3-0.6-0.3-0.6-0.9c0-0.2-2.6-27.6-3-29.2
		c-0.2-0.7-0.4-1.7-0.6-2.3c0.4-0.2,0.7-0.5,0.9-0.8c0.3-1-2.6-21.1-7.7-23.4c-3.8-1.7-10.6-2-13.1-2.1v-9.1
		c1.2-0.6,2.2-1.3,3.2-2.3c5.6-5.6,6.8-16.8,7.1-22.6c0-0.1,0.1-0.2,0.1-0.4c0-0.2,0-0.5,0-0.8c0-0.9,0-1.6,0-2l0-0.1
		c0-0.1,0-0.3-0.1-0.4c-0.1-2-0.1-3.9-0.1-4.1c0-0.3,0-0.7,0.1-1.1c0.6-3.1,2.1-12.6,1-15.8c0.5-0.6,1-1.2,1.4-1.8
		c2.3-4.2,2-10.8-0.9-15.7c-2.2-3.7-5.4-5.7-9.1-5.7c-5.2,0-8,2.9-8.8,5.6c-0.5,1.8-0.3,3.3,0.7,4c0.2,0.1,0.5,0.2,0.7,0.2
		c0.6-0.1,0.9-0.6,1.4-1.4c1-1.5,2-2.9,3.1-2.4c1.4,0.6,1.9,2.1,1.8,3.2c0,0.4-0.1,0.8-0.3,1.2c-0.1-1.4-0.7-2.3-1.4-3.2
		c-0.4-0.5-0.9-0.4-1.1-0.4c-0.8,0.2-1,1.1-1.3,2.4c-0.2,0.6-0.4,1.7-0.7,2c-1.9,0-17.9,0.5-20.4,9.4c-0.3,1.3-0.8,12.6-0.2,16.9
		c-1.2,0-2.4,0.3-3.5,1c-2.3,1.5-3.2,4.2-2.3,6.7c1,2.8,3.8,4,5.8,4.1c0.1,0,0.3,0,0.4,0c0.7,0,1.3-0.1,1.8-0.3
		c0.5,7.5,2.3,20.8,11.7,24.1v8.5c-14.8-0.2-17.7,1.2-26.2,18.3c-0.3,0.5-0.3,1.1-0.1,1.6c0.1,0.3,0.2,0.6,0.4,0.9
		c-0.4,0.8-1,2.1-1.7,3.6c-1.1,2.5-3.1,6.9-4.1,8.5c-2.2-3.5-9.8-21.3-10.2-23.4c0.1-0.3,0.7-1,1.1-1.6c1.6-2,4.4-5.4,3.9-9.8l0,0
		c0-0.1,0-0.1-0.1-0.2c0,0,0,0,0-0.1l5.1-2.1c0.4-0.2,0.6-0.6,0.5-1.1l-6.1-18.4c-0.1-0.4-0.6-0.7-1.1-0.6l-0.2,0.1l-0.6-1.3
		c-0.2-0.4-0.6-0.6-1-0.5l-32.1,9.7c-0.2,0.1-0.4,0.2-0.5,0.4c-0.1,0.2-0.1,0.4-0.1,0.7c1.7,5.3,7.4,22.4,7.9,23.2
		c0.4,0.7,1.2,1.1,2.3,1.1c0.4,0,0.9-0.1,1.5-0.2c0.5-0.1,0.7-0.6,0.6-1.1c0-0.1-0.1-0.1-0.1-0.2l9-3.7c0.6,2.4,1.4,4.4,2.4,5.6
		c0.9,1,1.8,1.2,2.5,1.1c0.7,0.9,2.2,5.2,3.5,9c4.3,12.5,7.9,22.1,12.3,22.1c0.1,0,0.2,0,0.2,0c0,0,0,0,0,0c3.8,0,7.9-11.7,9.5-16.5
		c0.1,0,0.2,0,0.4,0c0,0,0.1,0,0.1,0c0.5,0,0.9-0.3,1.3-0.7c-0.6,21.2,0.1,25.8,0.8,27l-0.1,0.3c-0.4,2,1.2,6.5,2.1,7.9
		c0.6,0.8,1.7,1.7,3.4,2.4c-0.2,7.1-0.8,67.6-0.6,71.7l-0.1,0c0-0.1,0-0.1,0-0.1c-0.1,0.2-0.6,0.6-1.7,1.1c-0.1,0-0.3,0.1-0.4,0.2
		c0,0,0,0,0,0c-0.4,0.2-0.9,0.4-1.4,0.6c-0.3-0.1-0.5,0-0.7,0.2c-0.1,0-0.1,0.1-0.1,0.2c-0.5,0.2-1,0.3-1.6,0.5
		c-0.2,0-0.5,0-0.7,0.2c0,0,0,0.1-0.1,0.1c-0.4,0.1-0.8,0.3-1.2,0.4c-0.3-0.1-0.5,0-0.7,0.2c0,0,0,0.1-0.1,0.1
		c-1.3,0.4-2.8,0.8-4.5,1.2c-2.3,0.6-3.2,2-3.5,2.9c-0.1,0.4-0.2,0.8-0.2,1.2c-0.3,1,0.1,2.7,1.3,4c0.8,0.8,2.2,1.1,3.4,1.1
		c1,0,1.8-0.2,2-0.2c0.2-0.1,1.3-0.4,5.6-1.5l0.3-0.1c0.3-0.1,1.8-0.3,3-0.4c2.6-0.3,4.4-0.6,5-0.8c1.1-0.4,1.9-1.4,2.2-2.1
		c0.1-0.3,0.1-0.6,0.1-0.8c0.9-2.2,1.4-6.3,0.7-7.8c1.1-9.5,0.5-61.5,0.4-69.8c2.5,0.4,5.4,0.7,8.7,0.7c0,0,0,0,0,0
		c3,0,6-0.5,8.8-1.3c0.6,5.3,1.5,29.3,1.3,31.4c0,0.4-2.8,35.5-2.1,39.4c-0.7,1.5-0.2,5.6,0.7,7.8c0,0.2,0,0.5,0.1,0.8
		c0.3,0.8,1.1,1.8,2.2,2.1c0.6,0.2,2.4,0.5,5,0.8c1.3,0.2,2.7,0.4,3,0.4l0.3,0.1c4.3,1.1,5.4,1.4,5.6,1.5c0.2,0.1,1.1,0.3,2.1,0.3
		c1.2,0,2.6-0.2,3.4-1.1c1.2-1.3,1.6-3,1.3-4c0-0.4-0.1-0.8-0.2-1.2c-0.3-0.8-1.1-2.3-3.5-2.9c-1.7-0.4-3.2-0.8-4.5-1.2
		c0,0,0-0.1-0.1-0.1c-0.2-0.2-0.5-0.2-0.7-0.2c-0.4-0.1-0.8-0.3-1.2-0.4c0,0,0-0.1-0.1-0.1c-0.2-0.2-0.5-0.2-0.7-0.2
		c-0.6-0.2-1.1-0.4-1.6-0.5c0-0.1-0.1-0.1-0.1-0.2c-0.2-0.2-0.5-0.2-0.7-0.2c-0.5-0.2-1-0.4-1.4-0.6c0,0,0,0,0,0
		c-0.1-0.1-0.3-0.1-0.4-0.2c-1.1-0.5-1.6-0.9-1.7-1.1c0,0,0,0.1,0,0.1l-0.1,0c0.2-0.3,0.2-0.6,0.2-0.8c-0.1-2.5,2.1-34.7,2.6-36.5
		c0.8-2.1-0.6-30.1-1.3-36.3c1.4-0.6,2.3-1.2,2.8-1.5c2.3-1.6,2.4-5.2,2.3-7.1c0.1-0.1,0.1-0.3,0.1-0.4c0-0.2,1.1-17.8,1.2-23.9
		c0.1,0.5,0.2,0.8,0.3,1.2c0.2,0.7,0.3,1.2,0.3,2.1c0,0.2,2.9,24.8,3.7,29c-0.1,0.1-0.3,0.3-0.4,0.4c-1.8,1.8-6.6,6.6-2.5,13
		l0.3,0.4h0.5c1.8,0,1.8-2.4,1.8-4.4c0-0.5,0-1.3,0.1-1.8c0.6,1.2,0.6,5.2,0.6,6.6c0,2.6,0,3.7,0.5,4.2c0.7,0.8,2.8,1.7,4.3,1.7
		c0.5,0,0.9-0.1,1.2-0.3c0.8-0.7,1.1-2.2,0.9-3.1c0-0.1,0.1-0.2,0.2-0.3C230.3,224.7,229.8,219,225.6,213.7z M210.6,99.9
		c-0.2-1-0.4-1.8-0.7-2.4c0.2-0.1,0.4-0.3,0.6-0.4C210.6,97.7,210.7,98.7,210.6,99.9z M178.7,93.7c2.2-8,18.7-8.1,18.8-8.1
		c1.3,0,1.8-1.7,2.2-3.3c0-0.1,0.1-0.3,0.1-0.4c0.4,0.7,0.6,1.6,0.1,3l-0.6,1.6L201,86c1.7-0.5,2.9-2.1,3-4.1c0.1-2.2-1-4.1-2.9-4.9
		c-2.4-1-4.2,1.6-5.2,3c0,0,0,0,0,0.1c0-0.4,0-0.8,0.2-1.4c0.7-2.1,2.9-4.4,7.2-4.4c3.1,0,5.8,1.7,7.7,4.9c2.5,4.3,2.9,10.3,0.9,14
		c-1.2,2.1-3.2,3.5-6,4.2c-4.9,1.1-11.8-0.4-16.3-3.6l-0.3-0.2l-0.3,0c-4.9,0.6-10.5,4-10,16.9c-0.1,0-0.1-0.1-0.2-0.1
		C178,107.9,178.3,95.1,178.7,93.7z M180.6,118.3c0-0.5,0-0.9-0.1-1.2c0-0.5-0.5-0.8-0.9-0.8c-0.5,0-0.8,0.4-0.8,0.9
		c0,0.3,0,0.8,0.1,1.2c0,0.4,0,0.8,0,1.2c-0.3,0.4-1.1,0.6-2,0.6c-1.6-0.1-3.6-1.1-4.3-3c-0.8-2.2,0.4-3.8,1.6-4.6
		c1.4-0.9,3.6-1.2,5.7,0.7c0.3,0.3,0.9,0.3,1.2,0c0.3-0.3,0.3-0.9,0-1.2c-0.2-0.2-0.4-0.3-0.5-0.5c-0.6-9.9,2.1-15.3,8.1-16.2
		c4.9,3.3,12.1,4.9,17.4,3.7c0.8-0.2,1.6-0.4,2.3-0.7c0.8,1.6,1.3,6.4,0.8,14.3c0,0.1,0.1,2.4,0.2,6.7c-0.1,5.1-1.1,16.9-6.6,22.4
		c-2,2-4.4,3-7.2,3C181.7,144.7,180.9,125.5,180.6,118.3z M199,145.9v9.2c0,2-1.3,3.3-3.1,3.3h-0.2c-1.8,0-3.2-1.5-3.2-3.4v-9
		c0.9,0.2,1.9,0.3,3,0.3C196.7,146.4,197.9,146.2,199,145.9z M122.1,140.3c-0.1-0.5-0.6-0.7-1.1-0.6c-0.5,0.1-0.7,0.6-0.6,1.1
		l4.8,15c-1.6-4.6-3.8-11.3-5.5-16.6l30.6-9.2l0.2,0.4l-27.1,8.5c-0.4,0.1-0.7,0.6-0.6,1l3.6,13.6L122.1,140.3z M127.2,161.4
		c0-0.1-0.1-0.2-0.2-0.5c0.2,0.1,0.4,0.2,0.6,0.2c0.1,0,0.2,0,0.3,0c0.2-0.1,0.3-0.2,0.4-0.3l0.2,0.6c0,0,0,0.1,0.1,0.1
		C127.8,161.7,127.3,161.6,127.2,161.4z M129.8,160.1l-5.2-19.7l27.4-8.6l5.6,16.9l-4.1,1.7c-0.1-0.4-0.3-0.8-0.5-1.2
		c-0.5-1.1-2.2-1.1-2.2-1.1c-1.2,0-1.5,1.9-1.4,4L129.8,160.1z M159.8,194.2c-3.6,0.3-8.1-13-10.8-20.9c-2.9-8.6-3.7-10.4-5.1-10.2
		c-0.2,0-0.6,0-1.1-0.4c-0.9-0.9-1.7-2.9-2.2-5.2l8.2-3.4c0.3,1.2,0.5,1.6,0.9,1.8l0.5,0.2l0.4-0.2c0.8-0.5,1-1.7,0.8-5.3
		c0.5,0.6,0.8,1.2,1,1.9c0.4,3.7-1.9,6.5-3.5,8.5c-1,1.2-1.6,2-1.5,2.8c0.1,1.1,3.2,8.5,5.2,13.1c5.2,12.1,6,12.2,6.6,12.3
		c1,0.1,1.7-0.8,5.8-9.9c0.4-1,0.8-1.8,1.2-2.5c0.6,0.8,1.2,1.5,1.8,1.9C165.4,186.3,161.8,194.2,159.8,194.2z M181,295.6
		c-0.8,0.6-6.5,1.2-7.4,1.1c-0.9-0.1-6.3,1.4-7.6,1.9c-1.4,0.5-3.9-0.4-4.3-1c-0.2-0.2-0.3-0.8,0-1.5c0.2-0.6,0.8-1.4,2.3-1.8
		c1.7-0.4,3.1-0.8,4.4-1.2c0.5,0.7,0.9,1.4,1,1.7c0,0.5,0.4,0.9,0.8,0.9c0,0,0,0,0,0c0.5,0,0.8-0.4,0.9-0.8c0-0.6-0.5-1.5-0.9-2.3
		c0.1,0,0.2-0.1,0.3-0.1c0.5,0.7,0.9,1.4,1,1.7c0,0.5,0.4,0.9,0.8,0.9c0,0,0,0,0,0c0.5,0,0.8-0.4,0.9-0.8c0-0.7-0.5-1.6-1-2.3
		c0.3-0.1,0.5-0.2,0.7-0.3c0.5,0.7,0.9,1.4,0.9,1.6c0,0.5,0.4,0.9,0.8,0.9c0,0,0,0,0,0c0.5,0,0.8-0.4,0.9-0.8c0-0.7-0.5-1.6-1-2.3
		c0.1-0.1,0.3-0.1,0.4-0.2c0.5,0.7,1,1.5,1,1.7c0,0.5,0.4,0.9,0.8,0.9c0,0,0,0,0,0c0.5,0,0.8-0.4,0.9-0.8c0-0.7-0.6-1.7-1.1-2.5
		c0.4-0.2,0.8-0.5,1-0.7c0.3,0.2,0.7,0.4,1.2,0.6c0.4,0.1,1,0.2,1.7,0.2c0.6,0,1.2-0.1,1.8-0.2C182.1,292,181.5,295.1,181,295.6z
		 M207.8,290.6c-0.5,0.8-1.1,1.8-1.1,2.5c0,0.5,0.4,0.8,0.9,0.8c0,0,0,0,0,0c0.5,0,0.9-0.4,0.8-0.9c0-0.3,0.4-1,1-1.7
		c0.1,0.1,0.3,0.1,0.4,0.2c-0.5,0.7-1,1.7-1,2.3c0,0.5,0.4,0.8,0.9,0.8c0,0,0,0,0,0c0.5,0,0.9-0.4,0.8-0.9c0-0.2,0.4-0.9,0.9-1.7
		c0.2,0.1,0.5,0.2,0.7,0.3c-0.5,0.7-1,1.6-1,2.3c0,0.5,0.4,0.8,0.9,0.8c0,0,0,0,0,0c0.5,0,0.9-0.4,0.8-0.9c0-0.3,0.4-1,1-1.7
		c0.1,0,0.2,0.1,0.3,0.1c-0.5,0.7-1,1.6-0.9,2.3c0,0.5,0.4,0.8,0.9,0.8c0,0,0,0,0,0c0.5,0,0.8-0.4,0.8-0.9c0-0.3,0.4-1,1-1.7
		c1.3,0.4,2.8,0.8,4.4,1.2c1.5,0.4,2.1,1.2,2.3,1.8c0.3,0.7,0.1,1.3,0,1.5c-0.4,0.6-2.9,1.5-4.3,1c-1.3-0.5-6.7-2-7.6-1.9
		c-0.9,0.1-6.6-0.6-7.4-1.1c-0.6-0.6-1.4-4.9-1.1-6.5c0.6,0.2,1.3,0.3,2,0.3c0.7,0,1.3-0.1,1.8-0.2c0.1,0,0.2-0.1,0.3-0.1
		C206.5,289.8,207,290.2,207.8,290.6z M215.4,180.2c-1-1.1-2.4-9.4-2-11.8c0.1-0.5-0.3-0.9-0.7-1c-0.5-0.1-0.9,0.3-1,0.7
		c-0.3,2,0.6,9.4,2,12.4c0.2,2-0.8,19.3-1.1,24.1c-12.4-0.1-31.3-0.2-38,0.4c-0.5,0-1-0.1-1.2-0.2c-0.3-0.7-1.2-4.6-0.4-28.1
		c0-0.4,0-0.8,0-1c0.3-0.7,0.7-1.6,1.1-2.5c0.4-1,0.8-1.9,1-2.3c0.3-0.4,0.2-0.9-0.2-1.2c-0.4-0.3-0.9-0.2-1.2,0.2
		c-0.3,0.5-0.7,1.4-1.2,2.6c-0.6,1.4-2,4.8-2.7,5.1c-0.9,0.1-2.7-1.8-3.6-4.2c0-0.1,0-0.2,0-0.2c8.3-16.7,10.6-17.6,24.7-17.4
		c0.4,2.5,2.4,4.3,4.9,4.3h0.2c2.5,0,4.4-1.7,4.7-4.2c2.3,0,8.9,0.3,12.4,1.9c3.6,1.6,6.6,18.3,6.7,21.2
		C219.1,179.5,217,180.1,215.4,180.2z M226.4,228.1c0.2-2.1,0.2-4.3,0.1-5c-0.1-0.5-0.5-0.8-1-0.7c-0.5,0.1-0.8,0.5-0.7,1
		c0.2,1.3-0.4,8.4-0.6,9.2c0,0.1,0,0.2,0,0.2c-0.1,0-0.2,0-0.3-0.1c0.6-2.3,0.2-8.8-0.4-10.9c-0.1-0.5-0.6-0.7-1.1-0.6
		c-0.5,0.1-0.7,0.6-0.6,1.1c0.7,2.2,0.8,8.3,0.5,9.7c-0.2-0.1-0.4-0.2-0.5-0.3c-0.1-0.4-0.1-1.9-0.1-3.2c0-4.1,0-8.3-2.4-8.6
		c-0.4,0-0.7,0.1-1,0.3c-0.6,0.6-0.7,1.6-0.7,3.5c0,0.5,0,1.2-0.1,1.9c-2-4.5,1.3-7.9,3-9.6c0.7-0.7,1.2-1.2,0.9-1.8
		c-0.4-1.7-3.7-27.2-3.7-28.8c0-1.1-0.2-1.8-0.4-2.5c-0.1-0.3-0.2-0.7-0.2-1.1c0.6-0.1,1.2-0.2,1.9-0.4c0.1,0.6,0.4,1.5,0.6,2.2
		c0.4,1.3,2.9,27.2,3,28.8c0.1,1.4,0.9,2,1.4,2.3c0.2,0.1,0.3,0.2,0.4,0.3C228.6,220.3,227.6,225.2,226.4,228.1z M219.8,214.6
		c0,0.2,0.1,0.3,0.1,0.3C219.8,214.8,219.8,214.7,219.8,214.6z"/>
</g>
<g>
	<g>
		<path class="st6" d="M46.5,273.2c-1.5-2.8-0.6-10.1,2.6-13.2c3.2-3.1,8-6.3,6.7-9.6c-1.3-3.3-2.9-6-4.9-6.7
			c6.5,0.3,9.7,4.6,10.2,6.6s2.7,6.1,1.7,8.2c-1,2,0.5,7.3,1.3,7.9c0.7,0.6-1.9-10.4,0.7-15.5c2.6-5,4-6.9,6.3-8.3
			c2.3-1.4,6.2-4.7,5.5-10.3c-0.7-5.6,1.3-9.2,2.2-9.9c-0.6,0.7,0.1,6.2,0.8,7.4c0.7,1.1,4.9,4.5,6.2,7.1c1.4,2.6,2,7.5,1.5,10.3
			c-0.5,2.7-1.2-10.2,1.8-13.9c3-3.7,5.7-5.7,6-7.8c0.4-2.2-0.9-7.4,0.6-10.3c1.6-2.9,5.5-9.9,3.4-13.8c3.2,0,3.4,6.3,3.3,8.3
			c-0.1,2-0.2,5.2,1.7,6.5c1.9,1.4,3.9,5.5,4,7.9c0.1,2.4-3.9,13.6-3.1,15c0.9,1.4-2.2-9.3-0.1-11.6s6.2-3.9,6.6-6.2
			s-0.5-6.2,0.8-7.6c0,1.2,0.4,3.4,0.8,3.9c0.4,0.5,2.4,3.4,2.5,5c0.1,1.5,1.4,5.1-0.9,7.7c-2.2,2.7-1.9,6-0.4,8.5
			c1.5,2.5,2.4,3.1,3.2,3.5c0.9,0.4-1.9-0.9-1.1-4.4c0.9-3.4,3.5-6.2,5-7c1.5-0.8,2.2-3.4,1.5-4.8c-0.7-1.4,1.7,1.4,2,2.8
			c0.3,1.4,1.7,6,0,9.3c-1.7,3.3-0.9,7.1,0,7.7c0.9,0.6,2.7,0.6,2.8,2.6c0.1,2-1.4,5-1.7,3.9c-0.4-1.1,0.4-7.7,2.4-8.8
			c1.9-1.1,5.4-3.2,6.2-5.2c0.6,2-1.3,2.7-0.6,3.7c0.6,1.1,2.3,3.8,2.5,5.6c0.2,1.8,0.3,2.5-0.6,5.5c-0.9,3,3.2,8.1,4.1,10.2
			c0.9,2.1,0.7,12.8,0.7,12.8s5.5,0,5.3-2.8c-0.1-2.8-1.8-4.7-0.7-7.4c1-2.7,3.3-3.3,2.7-7.9c1.7,1.8,3.3,4.4,3.4,6.6
			c0.1,2.1-1.4,5.3-1.4,6.4c0.1,1.1,2.9,0.6,3.4,2s1.4,2.8,1.4,2.8s1.2,2.1,0,5.9c-1.2,3.8-3.2,9.6-3.2,9.6s6.4,0.9,7.1-0.8
			c0.6-1.6-1-5.4,0.6-7.2c1.6-1.8,2.8-2.8,2.3-4.6c1.1,0.9,2.3,3.9,2.3,4.6c0,0.6,0.7,1.9,0.8,3.1c0.1,1.2-1.1,2.6-1.1,3.4
			c0,0.8,0.3-4.2,1.4-5.9c1.1-1.7,1-3.9,0.4-5.2c-0.6-1.3-0.3-4,0.5-5c0,1.7,0.9,2.6,1.5,3.7c0.5,1,2.3,1.8,2.6,4
			c0.3,2.3-0.6,3.7-0.5,4.3c0.1,0.5,2.9,3,3.3,5.6c0.4,2.6-38.6,2.3-38.6,2.3L46.5,273.2z"/>
	</g>
	<g>
		<polygon class="st2" points="41.3,258.5 47.9,257.8 48.5,260 49.5,270 51,271.9 66.2,260.6 65.7,263.5 67.6,264.6 68.5,266.4 
			69.9,267.8 70.6,268.9 71.5,271.1 72.8,272.5 73.5,272 74.7,272.5 78.8,264.8 90.8,264.6 88.6,261.3 85.3,258.7 96.8,247.7 
			118.7,244.1 132.1,257.8 133.1,260.2 132.1,265.5 127.9,266.3 128.4,267.4 144.8,266.1 146.7,268.9 146.4,273.6 145.8,274.5 
			153.1,274.5 154.5,279.7 149.4,292.1 153.3,290.9 159.9,289.4 177.1,292.1 179.2,295.2 178.5,301.5 163.1,306.4 190.2,317 
			190.8,320 189.1,323.3 176.9,338.1 143,325.5 145,323.5 146.1,323 143.5,321.1 136.7,330 130,326.7 107.5,346.2 82.9,334.8 
			86.4,331.1 86.7,329.2 84,327.9 90.2,323 101.1,315 108.5,308.2 107.8,307.8 109.3,306 107.6,305.7 83.4,321.1 79.9,317.4 
			55.8,327.9 45.3,315.3 43.4,316.1 23.2,316.1 23.6,313.3 23.8,311.8 24.5,309.2 25.2,304.5 30.6,291.6 32.7,290.9 33.1,288 
			31.9,272.9 		"/>
	</g>
	<g>
		<path class="st6" d="M73.5,292.9c4.2-1.6,22.2-1.8,26.5,2.7l-4.8-7.3l-4.4-5L73.5,292.9z"/>
	</g>
	<g>
		<path class="st6" d="M95.4,319.5c-1.7,1.2,17.1,11.6,27.5,6.8c6.6-5.5,7.8-6.6,7.8-6.6s2.1,1.4,2.1,2.2c0,0.9-0.8,3.8-0.8,3.8
			l-24.6,20.1l-23.8-11.2l1.4-2.4l3.9-1.8l-4.6-2.8L95.4,319.5z"/>
	</g>
	<g>
		<path class="st6" d="M102.2,252.3c-1,0.4,9.1,10.4,9.1,10.4l11.3-2.3l6.3-1.4c0,0,1.6-2.3-3-2.6c-4.6-0.3-9.5,1.1-13.7-0.9
			C108.1,253.6,103.1,251.9,102.2,252.3z"/>
	</g>
	<g>
		<path class="st6" d="M75.9,271c-1.4-1.3-5,8-4.4,7.9c0.6-0.1,36.1-4.3,36.1-4.3l0.2-3C107.9,271.7,79,274,75.9,271z"/>
	</g>
	<g>
		<path class="st6" d="M38.6,295.2c-2.5-0.1-6.2,2.5-6.2,2.5s-1.1,2.5,0.8,3.7c2,1.1-0.1,5.3-1.2,5c-1-0.3-0.6,1.9-0.6,1.9l12.1,4.8
			v1.6l1.5-3.2l1.1-3.3l-11.4-1.7l3.4-1.2l0.6-2l0.3-2.5l-1.7-1.7l-2.6-0.5l1.4-1.3l4.6-0.7l-0.6-1.3L38.6,295.2z"/>
	</g>
	<g>
		<path class="st6" d="M57.8,266.4c0,0-1.2,1.3-1.6,3.6s-2.5,7.5-2,8.4c0.5,0.9,0.5,2.2,0.5,2.2l-12.2,6.7l1.4-3.7l6.7-11.9
			L57.8,266.4z"/>
	</g>
	<g>
		<path class="st6" d="M46.2,257.5c-2.2,1.4-10.3,13.4-10,15.7l-4.1-0.3l9.6-15L46.2,257.5z"/>
	</g>
	<g>
		<path class="st6" d="M96.3,289l5.2,6.9l15.1-3.9l0.5-5.9l0.4-2c0,0-1.5-1.7-3.1-1.3c0.3-0.7,1.8-2.1,1.8-2.1l0-1l-9.2,1.1v2.3
			l1.5,2.2l-1.5,1.2L96.3,289z"/>
	</g>
	<g>
		<path class="st4" d="M111.3,263.2C111.3,263.2,111.2,263.1,111.3,263.2c-0.3-0.1-0.8-0.5-7.9-8.8c-2.6-3-5.3-6.2-5.7-6.5
			c-0.1-0.1-0.2-0.3-0.1-0.4c0-0.2,0.2-0.3,0.3-0.3l20.3-3.9c0.1,0,0.3,0,0.4,0.1l13.8,14.6c0.1,0.1,0.1,0.3,0.1,0.4
			c0,0.1-0.2,0.3-0.3,0.3C113.8,262.8,111.6,263.2,111.3,263.2z M98.8,247.8c0.9,1,2.7,3.1,5.2,6c3,3.5,6.8,7.9,7.4,8.5
			c1-0.1,12-2.5,19.8-4.2l-13.1-13.9L98.8,247.8z"/>
	</g>
	<g>
		<path class="st4" d="M110.8,270c-0.1,0-0.2-0.1-0.3-0.1l-13.6-15.3c-0.2-0.2-0.1-0.4,0-0.6c0.2-0.2,0.4-0.1,0.6,0l13.4,15.1
			l20.9-4.5c0.4-0.8,1.7-4.2,0-6c-0.2-0.2-0.2-0.4,0-0.6c0.2-0.2,0.4-0.2,0.6,0c2.4,2.5,0.2,7,0.1,7.2c-0.1,0.1-0.2,0.2-0.3,0.2
			L110.8,270C110.9,270,110.8,270,110.8,270z"/>
	</g>
	<g>
		<path class="st4" d="M111,268.2c-0.1,0-0.2-0.1-0.3-0.2l-11.5-13.5c-0.1-0.1-0.1-0.2-0.1-0.3v-4.1c0-0.2,0.2-0.4,0.4-0.4
			s0.4,0.2,0.4,0.4v3.9l11.2,13.1l18.8-3.9V259c0-0.2,0.2-0.4,0.4-0.4s0.4,0.2,0.4,0.4v4.8c0,0.2-0.1,0.4-0.3,0.4L111,268.2
			C111.1,268.2,111,268.2,111,268.2z"/>
	</g>
	<g>
		<path class="st4" d="M41.3,288.4c-0.1,0-0.2,0-0.3-0.1c-0.1-0.1-0.2-0.4-0.1-0.5c1-1.7,9.4-16.2,9.6-16.6c0,0,0.1-0.1,0.1-0.1
			l16.1-10.9c0.2-0.1,0.4-0.1,0.5,0c0.1,0.1,0.2,0.3,0.1,0.5l-8,16.7c0,0.1-0.1,0.1-0.2,0.2l-17.8,10.7
			C41.5,288.4,41.4,288.4,41.3,288.4z M51.3,271.7c-0.5,0.9-5.5,9.4-8.7,15l16.3-9.8l7.2-15.1L51.3,271.7z"/>
	</g>
	<g>
		<path class="st4" d="M47.1,294.7c-0.6,0-2.5-0.1-4-1.5c-1.3-1.2-2.1-2.9-2.2-5.2c0-0.2,0.2-0.4,0.4-0.5c0.3,0,0.4,0.2,0.5,0.4
			c0.1,2,0.8,3.6,1.9,4.6c1.4,1.3,3.2,1.3,3.6,1.3l18.8-6.2l6.6-14.4l-1,0.3c-0.2,0.1-0.5,0-0.5-0.3c-0.1-0.2,0-0.5,0.3-0.5l1.9-0.6
			c0.2-0.1,0.3,0,0.5,0.1c0.1,0.1,0.1,0.3,0.1,0.5l-7.1,15.5c0,0.1-0.1,0.2-0.3,0.2l-19,6.3c0,0-0.1,0-0.1,0
			C47.3,294.7,47.3,294.7,47.1,294.7z"/>
	</g>
	<g>
		<path class="st4" d="M47.2,293.3c-0.1,0-0.2-0.1-0.3-0.1c-4.2-4.7-4.2-5-4.2-5.2c0-0.2,0.2-0.4,0.4-0.4c0.2,0,0.4,0.1,0.4,0.3
			c0.2,0.4,2.1,2.5,3.8,4.5l16.9-6.5l6.9-14.4c0.1-0.2,0.4-0.3,0.6-0.2c0.2,0.1,0.3,0.4,0.2,0.6l-7,14.5c0,0.1-0.1,0.2-0.2,0.2
			l-17.3,6.7C47.3,293.3,47.3,293.3,47.2,293.3z"/>
	</g>
	<g>
		<path class="st4" d="M47.9,292c-0.2,0-0.3-0.1-0.4-0.2c-0.1-0.2,0-0.5,0.2-0.6l15.6-7.6l6.4-14.2c0.1-0.2,0.4-0.3,0.6-0.2
			c0.2,0.1,0.3,0.4,0.2,0.6l-6.5,14.3c0,0.1-0.1,0.2-0.2,0.2L48.1,292C48,292,48,292,47.9,292z"/>
	</g>
	<g>
		<path class="st4" d="M47.2,291c-0.2,0-0.3-0.1-0.4-0.2c-0.1-0.2,0-0.5,0.2-0.6l15.6-8.3l6.4-13.8c0.1-0.2,0.4-0.3,0.6-0.2
			c0.2,0.1,0.3,0.4,0.2,0.6l-6.5,13.9c0,0.1-0.1,0.2-0.2,0.2L47.4,291C47.3,291,47.3,291,47.2,291z"/>
	</g>
	<g>
		<path class="st4" d="M46.2,289.8c-0.2,0-0.3-0.1-0.4-0.2c-0.1-0.2,0-0.5,0.2-0.6l15.8-8.8l5.8-13.6c0.1-0.2,0.3-0.3,0.6-0.2
			c0.2,0.1,0.3,0.3,0.2,0.6l-5.8,13.8c0,0.1-0.1,0.2-0.2,0.2l-15.9,8.8C46.4,289.8,46.3,289.8,46.2,289.8z"/>
	</g>
	<g>
		<path class="st4" d="M45.3,288.4c-0.2,0-0.3-0.1-0.4-0.2c-0.1-0.2,0-0.5,0.2-0.6l15.6-8.5l6.1-14.2c0.1-0.2,0.3-0.3,0.6-0.2
			c0.2,0.1,0.3,0.3,0.2,0.6l-6.1,14.4c0,0.1-0.1,0.2-0.2,0.2l-15.7,8.5C45.4,288.4,45.3,288.4,45.3,288.4z"/>
	</g>
	<g>
		<path class="st4" d="M71.5,279.4c-0.1,0-0.3-0.1-0.4-0.2c-0.1-0.1-0.1-0.3,0-0.4l7.4-13.9c0.1-0.1,0.2-0.2,0.4-0.2h25.9
			c0.2,0,0.3,0.1,0.4,0.3l4.2,9.2c0.1,0.1,0.1,0.3,0,0.4c-0.1,0.1-0.2,0.2-0.3,0.2L71.5,279.4C71.6,279.4,71.5,279.4,71.5,279.4z
			 M79.2,265.5l-6.9,12.9l36.2-4.5l-3.8-8.4H79.2z"/>
	</g>
	<g>
		<path class="st4" d="M97.2,289c-0.2,0-0.4-0.1-0.4-0.4c0-0.2,0.1-0.5,0.3-0.5l10.8-2l-1-2.6c-0.1-0.2,0-0.5,0.2-0.6
			c0.2-0.1,0.5,0,0.6,0.2l1.2,3.1c0,0.1,0,0.3,0,0.4s-0.2,0.2-0.3,0.2L97.2,289C97.3,289,97.3,289,97.2,289z"/>
	</g>
	<g>
		<path class="st4" d="M75.5,281c-0.2,0-0.4-0.2-0.4-0.4c0-0.2,0.1-0.5,0.4-0.5l30.6-4.1c0.2,0,0.5,0.1,0.5,0.4
			c0,0.2-0.1,0.5-0.4,0.5L75.5,281C75.5,281,75.5,281,75.5,281z"/>
	</g>
	<g>
		<path class="st4" d="M75.9,282.7c-0.2,0-0.4-0.2-0.4-0.4c0-0.2,0.1-0.5,0.4-0.5l30.1-4.1c0.2,0,0.5,0.1,0.5,0.4
			c0,0.2-0.1,0.5-0.4,0.5L75.9,282.7C76,282.7,76,282.7,75.9,282.7z"/>
	</g>
	<g>
		<path class="st4" d="M107.9,272.1c-0.2,0-0.4-0.1-0.4-0.3c-0.1-0.2,0-0.4,0.2-0.5l2.7-1.3c0.2-0.1,0.5,0,0.6,0.2
			c0.1,0.2,0,0.5-0.2,0.6l-0.4,0.2l21.7-2.4l6.4-1.5l-14.6,1.2c-0.2,0-0.4-0.2-0.5-0.4c0-0.2,0.2-0.4,0.4-0.5l20.2-1.7
			c0.2,0,0.4,0.1,0.5,0.4c0,0.2-0.1,0.4-0.3,0.5l-11.9,2.9L107.9,272.1C107.9,272.1,107.9,272.1,107.9,272.1z"/>
	</g>
	<g>
		<path class="st4" d="M107.2,281c-0.1,0-0.2,0-0.3,0c-0.3-0.1-0.4-0.3-0.4-0.5c0-0.3,0-0.6,3.1-1.5c0.2-0.1,0.5,0.1,0.5,0.3
			c0.1,0.2-0.1,0.5-0.3,0.5c-0.2,0.1-0.4,0.1-0.6,0.2c4.6-0.4,15.8-1.5,23.8-2.4l12.8-4.6c0.2-0.7,1-3.5,0-5.2
			c-0.4-0.7-1-1.1-1.8-1.3c-0.2,0-0.4-0.3-0.3-0.5c0-0.2,0.3-0.4,0.5-0.3c1.1,0.2,1.9,0.8,2.4,1.7c1.3,2.3,0,6,0,6.1
			c0,0.1-0.1,0.2-0.3,0.3l-13,4.7c0,0-0.1,0-0.1,0C125.9,279.3,109.5,281,107.2,281z"/>
	</g>
	<g>
		<path class="st4" d="M109.1,273.8c-0.2,0-0.4-0.2-0.4-0.4c0-0.2,0.1-0.4,0.4-0.5l23-2.7l11.9-2.9c0.2-0.1,0.5,0.1,0.5,0.3
			c0.1,0.2-0.1,0.5-0.3,0.5l-11.9,2.9L109.1,273.8C109.1,273.8,109.1,273.8,109.1,273.8z"/>
	</g>
	<g>
		<path class="st4" d="M109.8,275.4c-0.2,0-0.4-0.2-0.4-0.4c0-0.2,0.1-0.4,0.4-0.5l23.2-2.5l10.9-3.6c0.2-0.1,0.5,0,0.5,0.3
			c0.1,0.2,0,0.5-0.3,0.5l-11,3.6c0,0-0.1,0-0.1,0L109.8,275.4C109.9,275.4,109.8,275.4,109.8,275.4z"/>
	</g>
	<g>
		<path class="st4" d="M110.3,277c-0.2,0-0.4-0.2-0.4-0.4c0-0.2,0.1-0.4,0.4-0.5l22.8-2.3l10.9-3.7c0.2-0.1,0.5,0,0.5,0.3
			c0.1,0.2,0,0.5-0.3,0.5l-11,3.7c0,0-0.1,0-0.1,0L110.3,277C110.3,277,110.3,277,110.3,277z"/>
	</g>
	<g>
		<path class="st4" d="M110.3,279.4c-0.2,0-0.4-0.2-0.4-0.4c0-0.2,0.1-0.4,0.4-0.5l22.8-2.4l10.9-4.5c0.2-0.1,0.5,0,0.6,0.2
			c0.1,0.2,0,0.5-0.2,0.6l-11,4.5c0,0-0.1,0-0.1,0L110.3,279.4C110.3,279.4,110.3,279.4,110.3,279.4z"/>
	</g>
	<g>
		<path class="st4" d="M77,284.7c-0.2,0-0.4-0.1-0.4-0.4c0-0.2,0.1-0.5,0.4-0.5l11.7-2c0.2,0,0.5,0.1,0.5,0.4c0,0.2-0.1,0.5-0.4,0.5
			L77,284.7C77.1,284.7,77,284.7,77,284.7z"/>
	</g>
	<g>
		<path class="st4" d="M92.3,282.7c-0.2,0-0.4-0.2-0.4-0.4c0-0.2,0.1-0.5,0.4-0.5l13-2.1c0.2,0,0.5,0.1,0.5,0.4
			c0,0.2-0.1,0.5-0.4,0.5L92.3,282.7C92.3,282.7,92.3,282.7,92.3,282.7z"/>
	</g>
	<g>
		<path class="st4" d="M94.1,283.8c-0.2,0-0.4-0.2-0.4-0.4c0-0.2,0.1-0.5,0.4-0.5l11.2-1.6c0.2,0,0.5,0.1,0.5,0.4
			c0,0.2-0.1,0.5-0.4,0.5L94.1,283.8C94.2,283.8,94.1,283.8,94.1,283.8z"/>
	</g>
	<g>
		<path class="st4" d="M78.1,286.4c-0.2,0-0.4-0.1-0.4-0.3c0-0.2,0.1-0.5,0.3-0.5l5.6-1.1c0.2,0,0.5,0.1,0.5,0.3
			c0,0.2-0.1,0.5-0.3,0.5L78.1,286.4C78.1,286.4,78.1,286.4,78.1,286.4z"/>
	</g>
	<g>
		<path class="st4" d="M78.1,287.8c-0.2,0-0.4-0.1-0.4-0.3c0-0.2,0.1-0.5,0.3-0.5l3.9-0.8c0.2,0,0.5,0.1,0.5,0.3
			c0,0.2-0.1,0.5-0.3,0.5L78.1,287.8C78.1,287.8,78.1,287.8,78.1,287.8z"/>
	</g>
	<g>
		<path class="st4" d="M94.5,285.3c-0.2,0-0.4-0.2-0.4-0.4c0-0.2,0.1-0.5,0.4-0.5l10.8-1.5c0.2,0,0.5,0.1,0.5,0.4
			c0,0.2-0.1,0.5-0.4,0.5L94.5,285.3C94.6,285.3,94.6,285.3,94.5,285.3z"/>
	</g>
	<g>
		<path class="st4" d="M96.3,287c-0.2,0-0.4-0.1-0.4-0.3c0-0.2,0.1-0.5,0.3-0.5l9-1.7c0.2,0,0.5,0.1,0.5,0.3c0,0.2-0.1,0.5-0.3,0.5
			L96.3,287C96.3,287,96.3,287,96.3,287z"/>
	</g>
	<g>
		<path class="st4" d="M80,315.1c-0.1,0-0.3-0.1-0.4-0.2l-3-4.3c-0.1-0.2-0.1-0.5,0.1-0.6c0.2-0.1,0.5-0.1,0.6,0.1l2.8,4l23.5-14.2
			l-12.9-16.8l-23.4,13.2c-0.2,0.1-0.5,0-0.6-0.2c-0.1-0.2,0-0.5,0.2-0.6l23.7-13.4c0.2-0.1,0.4-0.1,0.6,0.1l13.5,17.5
			c0.1,0.1,0.1,0.2,0.1,0.3c0,0.1-0.1,0.2-0.2,0.3l-24.2,14.6C80.2,315.1,80.1,315.1,80,315.1z"/>
	</g>
	<g>
		<path class="st4" d="M83.3,321.2c-0.1,0-0.1,0-0.2,0c0,0-4.5-2.1-3.5-6.5c0-0.2,0.3-0.4,0.5-0.3c0.2,0,0.4,0.3,0.3,0.5
			c-0.7,3.3,2.1,5,2.9,5.4l23.6-14.7l-3-3.9c-0.1-0.2-0.1-0.5,0.1-0.6c0.2-0.1,0.5-0.1,0.6,0.1l3.3,4.3c0.1,0.1,0.1,0.2,0.1,0.3
			c0,0.1-0.1,0.2-0.2,0.3l-24.2,15.1C83.5,321.1,83.4,321.2,83.3,321.2z"/>
	</g>
	<g>
		<path class="st4" d="M82,315.7c-0.1,0-0.3-0.1-0.4-0.2c-0.1-0.2-0.1-0.5,0.1-0.6l21.3-12.8c0.2-0.1,0.5-0.1,0.6,0.1
			c0.1,0.2,0.1,0.5-0.1,0.6l-21.3,12.8C82.1,315.7,82,315.7,82,315.7z"/>
	</g>
	<g>
		<path class="st4" d="M82.9,317.1c-0.1,0-0.3-0.1-0.4-0.2c-0.1-0.2-0.1-0.5,0.1-0.6l21.4-13.4c0.2-0.1,0.5-0.1,0.6,0.1
			c0.1,0.2,0.1,0.5-0.1,0.6l-21.4,13.4C83,317.1,83,317.1,82.9,317.1z"/>
	</g>
	<g>
		<path class="st4" d="M83.7,319c-0.1,0-0.3-0.1-0.4-0.2c-0.1-0.2-0.1-0.5,0.1-0.6l21.6-13.6c0.2-0.1,0.5-0.1,0.6,0.1
			c0.1,0.2,0.1,0.5-0.1,0.6l-21.6,13.6C83.8,319,83.8,319,83.7,319z"/>
	</g>
	<g>
		<path class="st4" d="M60.1,302.9C60.1,302.9,60.1,302.9,60.1,302.9l-25.4-4.5c-0.2,0-0.4-0.2-0.4-0.4c0-0.2,0.2-0.4,0.4-0.4
			l22.3-3.1c0,0,0.1,0,0.1,0l22.8,3.1c0.2,0,0.4,0.2,0.4,0.4c0,0.2-0.1,0.4-0.3,0.4L60.1,302.9C60.2,302.9,60.1,302.9,60.1,302.9z
			 M37.6,298.1l22.5,4l17.4-3.9l-20.4-2.8L37.6,298.1z"/>
	</g>
	<g>
		<path class="st4" d="M60.4,311.5C60.4,311.5,60.4,311.5,60.4,311.5l-25.7-4.5c-0.2,0-0.4-0.2-0.4-0.4c0-0.2,0.1-0.4,0.3-0.4
			l3.9-0.8c0.2,0,0.5,0.1,0.5,0.3c0,0.2-0.1,0.5-0.3,0.5l-1.6,0.3l23.2,4.1l19.3-6.7c0.5-1.4,1.3-4.8,0-5.5
			c-0.2-0.1-0.3-0.4-0.2-0.6c0.1-0.2,0.4-0.3,0.6-0.2c2.3,1.2,0.5,6.2,0.3,6.8c0,0.1-0.1,0.2-0.3,0.3l-19.6,6.8
			C60.5,311.5,60.5,311.5,60.4,311.5z"/>
	</g>
	<g>
		<path class="st4" d="M60.3,305C60.3,305,60.3,305,60.3,305l-20.5-3.7c-0.2,0-0.4-0.3-0.3-0.5c0-0.2,0.3-0.4,0.5-0.3l20.4,3.7
			l18.2-4.3c0.2-0.1,0.5,0.1,0.5,0.3s-0.1,0.5-0.3,0.5L60.4,305C60.4,305,60.4,305,60.3,305z"/>
	</g>
	<g>
		<path class="st4" d="M60.2,307.2C60.2,307.2,60.2,307.2,60.2,307.2l-20.9-3.4c-0.2,0-0.4-0.3-0.4-0.5c0-0.2,0.3-0.4,0.5-0.4
			l20.8,3.4l17.8-5.4c0.2-0.1,0.5,0.1,0.5,0.3c0.1,0.2-0.1,0.5-0.3,0.5l-17.9,5.4C60.3,307.2,60.3,307.2,60.2,307.2z"/>
	</g>
	<g>
		<path class="st4" d="M60.3,309.9C60.3,309.9,60.3,309.9,60.3,309.9l-21.1-3.7c-0.2,0-0.4-0.3-0.3-0.5c0-0.2,0.3-0.4,0.5-0.3
			l20.9,3.6l17.7-6.1c0.2-0.1,0.5,0,0.5,0.3c0.1,0.2,0,0.5-0.3,0.5l-17.8,6.1C60.4,309.9,60.4,309.9,60.3,309.9z"/>
	</g>
	<g>
		<path class="st4" d="M52.5,296c-0.2,0-0.3-0.1-0.4-0.3c-0.1-0.2,0-0.5,0.2-0.6l19.8-8.1l0.8-8.1c0-0.2,0.2-0.4,0.5-0.4
			c0.2,0,0.4,0.2,0.4,0.5l-0.9,8.4c0,0.2-0.1,0.3-0.3,0.4l-20.1,8.2C52.6,296,52.6,296,52.5,296z"/>
	</g>
	<g>
		<path class="st4" d="M50.2,296c-0.1,0-0.1,0-0.2,0c-0.2-0.1-0.3-0.3-0.2-0.6l0.8-1.8c0.1-0.2,0.3-0.3,0.6-0.2
			c0.2,0.1,0.3,0.3,0.2,0.6l-0.8,1.8C50.5,295.9,50.4,296,50.2,296z"/>
	</g>
	<g>
		<path class="st4" d="M60.4,294.7c-0.2,0-0.3-0.1-0.4-0.3c-0.1-0.2,0-0.5,0.3-0.6l13.2-4.8l0.8-6.9c0-0.2,0.2-0.4,0.5-0.4
			c0.2,0,0.4,0.2,0.4,0.5l-0.9,7.2c0,0.2-0.1,0.3-0.3,0.4l-13.5,4.8C60.5,294.7,60.5,294.7,60.4,294.7z"/>
	</g>
	<g>
		<path class="st4" d="M63.8,295.3c-0.2,0-0.3-0.1-0.4-0.3c-0.1-0.2,0-0.5,0.3-0.5l10.7-3.8l1.1-6.6c0-0.2,0.3-0.4,0.5-0.4
			c0.2,0,0.4,0.3,0.4,0.5l-1.2,6.9c0,0.2-0.1,0.3-0.3,0.3l-11,3.9C63.9,295.3,63.8,295.3,63.8,295.3z"/>
	</g>
	<g>
		<path class="st4" d="M115.1,283c-0.2,0-0.3-0.1-0.4-0.2c-0.1-0.2,0-0.4,0.1-0.5l2.4-2.4c0.2-0.2,0.4-0.2,0.6,0s0.2,0.4,0,0.6
			l-1.5,1.5l30.3-3.8l4.8-3.4h-6.4c-0.2,0-0.4-0.2-0.4-0.4c0-0.2,0.2-0.4,0.4-0.4h7.7c0.2,0,0.4,0.1,0.4,0.3c0.1,0.2,0,0.4-0.2,0.5
			l-6,4.3c-0.1,0-0.1,0.1-0.2,0.1L115.1,283C115.1,283,115.1,283,115.1,283z"/>
	</g>
	<g>
		<path class="st4" d="M127.2,294.6c-0.2,0-0.4-0.2-0.4-0.4c0-0.2,0.2-0.4,0.4-0.5l21.7-1.9l4.9-11.4c0.1-2.2-0.3-5.6-1.2-5.8
			c-0.2-0.1-0.4-0.3-0.3-0.5c0.1-0.2,0.3-0.4,0.5-0.3c2,0.5,1.9,5.7,1.8,6.8c0,0.1,0,0.1,0,0.2l-5.1,11.7c-0.1,0.1-0.2,0.2-0.4,0.3
			L127.2,294.6C127.2,294.6,127.2,294.6,127.2,294.6z"/>
	</g>
	<g>
		<path class="st4" d="M118.1,284.6c-0.2,0-0.4-0.2-0.4-0.4c0-0.2,0.1-0.5,0.4-0.5l28.5-3.5l5.1-4c0.2-0.1,0.5-0.1,0.6,0.1
			c0.1,0.2,0.1,0.5-0.1,0.6l-5.2,4.1c-0.1,0-0.1,0.1-0.2,0.1L118.1,284.6C118.2,284.6,118.1,284.6,118.1,284.6z"/>
	</g>
	<g>
		<path class="st4" d="M118.5,287c-0.2,0-0.4-0.2-0.4-0.4c0-0.2,0.1-0.5,0.4-0.5l28-4.3l5.1-4.5c0.2-0.2,0.5-0.1,0.6,0
			c0.2,0.2,0.1,0.5,0,0.6l-5.2,4.6c-0.1,0.1-0.1,0.1-0.2,0.1L118.5,287C118.6,287,118.6,287,118.5,287z"/>
	</g>
	<g>
		<path class="st4" d="M119.2,290c-0.2,0-0.4-0.1-0.4-0.4c0-0.2,0.1-0.5,0.3-0.5l27.8-5.2l4.6-5.2c0.2-0.2,0.4-0.2,0.6,0
			s0.2,0.4,0,0.6l-4.7,5.3c-0.1,0.1-0.1,0.1-0.2,0.1L119.2,290C119.2,290,119.2,290,119.2,290z"/>
	</g>
	<g>
		<path class="st4" d="M121.5,292.5c-0.2,0-0.4-0.1-0.4-0.4c0-0.2,0.1-0.5,0.3-0.5l27-4.8l3.1-6.7c0.1-0.2,0.4-0.3,0.6-0.2
			c0.2,0.1,0.3,0.4,0.2,0.6l-3.2,6.9c-0.1,0.1-0.2,0.2-0.3,0.2L121.5,292.5C121.5,292.5,121.5,292.5,121.5,292.5z"/>
	</g>
	<g>
		<path class="st4" d="M135.6,322.8c-0.1,0-0.1,0-0.2,0l-3.9-1.6c-0.2-0.1-0.3-0.3-0.2-0.6c0.1-0.2,0.3-0.3,0.6-0.2l3.6,1.5
			c1.2-1.3,9-10.6,14.3-17.1l-29.7-11.4l-12.2,15.4c-0.1,0.2-0.4,0.2-0.6,0.1c-0.2-0.1-0.2-0.4-0.1-0.6l12.4-15.6
			c0.1-0.1,0.3-0.2,0.5-0.1l30.6,11.7c0.1,0,0.2,0.2,0.3,0.3c0,0.1,0,0.3-0.1,0.4c-4.4,5.3-14.5,17.6-15.1,17.9
			C135.7,322.8,135.6,322.8,135.6,322.8z"/>
	</g>
	<g>
		<path class="st4" d="M136.1,329.7c-0.1,0-0.1,0-0.2,0l-3-1.2c-0.2-0.1-0.3-0.3-0.2-0.6c0.1-0.2,0.3-0.3,0.6-0.2l2.4,0.9l-0.5-6.2
			c0-0.2,0.2-0.4,0.4-0.5c0.2,0,0.4,0.2,0.5,0.4l0.5,6.9c0,0.1-0.1,0.3-0.2,0.4C136.3,329.6,136.2,329.7,136.1,329.7z"/>
	</g>
	<g>
		<path class="st4" d="M136.7,330.1c-0.1,0-0.2,0-0.3-0.1c-0.2-0.1-0.2-0.4-0.1-0.6l8.7-11.1c0.1-0.2,0.4-0.2,0.6-0.1
			c0.2,0.1,0.2,0.4,0.1,0.6l-8.7,11.1C136.9,330,136.8,330.1,136.7,330.1z"/>
	</g>
	<g>
		<path class="st4" d="M136.7,323.2c-0.1,0-0.2,0-0.3-0.1c-0.2-0.2-0.2-0.4,0-0.6l11.4-12.8c0.2-0.2,0.4-0.2,0.6,0
			c0.2,0.2,0.2,0.4,0,0.6L137,323.1C136.9,323.2,136.8,323.2,136.7,323.2z"/>
	</g>
	<g>
		<path class="st4" d="M137.3,325c-0.1,0-0.2,0-0.3-0.1c-0.2-0.2-0.2-0.4-0.1-0.6l10.8-12.8c0.2-0.2,0.4-0.2,0.6-0.1
			c0.2,0.2,0.2,0.4,0.1,0.6l-10.8,12.8C137.5,325,137.4,325,137.3,325z"/>
	</g>
	<g>
		<path class="st4" d="M137.3,327c-0.1,0-0.2,0-0.3-0.1c-0.2-0.2-0.2-0.4,0-0.6l6.8-8c0.2-0.2,0.4-0.2,0.6,0c0.2,0.2,0.2,0.4,0,0.6
			l-6.8,8C137.5,326.9,137.4,327,137.3,327z"/>
	</g>
	<g>
		<path class="st4" d="M177.8,328.6c-0.1,0-0.1,0-0.1,0l-31.7-11.8c-0.2-0.1-0.3-0.2-0.3-0.4c0-0.2,0.1-0.3,0.2-0.4l17.2-9.6
			c0.1-0.1,0.2-0.1,0.4,0l26.5,9.6c0.1,0.1,0.2,0.2,0.3,0.3c0,0.1,0,0.3-0.1,0.4l-11.9,11.8C178.1,328.5,178,328.6,177.8,328.6z
			 M147.1,316.3l30.6,11.3l11.3-11.1l-25.6-9.3L147.1,316.3z"/>
	</g>
	<g>
		<path class="st4" d="M176.6,338.5c-0.1,0-0.1,0-0.2,0l-33.9-12.7c-0.2-0.1-0.3-0.2-0.3-0.4c0-0.2,0.1-0.3,0.2-0.4l3.4-2
			c0.2-0.1,0.5-0.1,0.6,0.2c0.1,0.2,0.1,0.5-0.2,0.6l-2.7,1.6l32.8,12.3l12.4-14.5c0.2-0.1,3-2.8,0.6-6.4c-0.1-0.2-0.1-0.5,0.1-0.6
			c0.2-0.1,0.5-0.1,0.6,0.1c2.8,4.2-0.7,7.4-0.7,7.5l-12.6,14.7C176.8,338.4,176.7,338.5,176.6,338.5z"/>
	</g>
	<g>
		<path class="st4" d="M177.3,329.7c0,0-0.1,0-0.1,0L146.5,319c-0.2-0.1-0.3-0.3-0.3-0.5c0.1-0.2,0.3-0.3,0.5-0.3l30.6,10.7
			c0.2,0.1,0.3,0.3,0.3,0.5C177.7,329.6,177.5,329.7,177.3,329.7z"/>
	</g>
	<g>
		<path class="st4" d="M177.3,331.5c0,0-0.1,0-0.1,0l-30.6-10.3c-0.2-0.1-0.3-0.3-0.3-0.5c0.1-0.2,0.3-0.3,0.5-0.3l30.4,10.2
			l10.1-10.6c0.2-0.2,0.4-0.2,0.6,0c0.2,0.2,0.2,0.4,0,0.6l-10.3,10.8C177.5,331.4,177.4,331.5,177.3,331.5z"/>
	</g>
	<g>
		<path class="st4" d="M177.3,334c0,0-0.1,0-0.1,0l-29.9-9.6c-0.2-0.1-0.4-0.3-0.3-0.5c0.1-0.2,0.3-0.4,0.5-0.3l29.6,9.5l10.8-12.6
			c0.2-0.2,0.4-0.2,0.6,0c0.2,0.2,0.2,0.4,0,0.6l-11,12.8C177.6,333.9,177.4,334,177.3,334z"/>
	</g>
	<g>
		<path class="st4" d="M176.4,334.9c0,0-0.1,0-0.1,0l-29.1-9.9c-0.2-0.1-0.3-0.3-0.3-0.5c0.1-0.2,0.3-0.3,0.5-0.3l29.1,9.9
			c0.2,0.1,0.3,0.3,0.3,0.5C176.8,334.8,176.6,334.9,176.4,334.9z"/>
	</g>
	<g>
		<path class="st4" d="M107.9,341.1c-0.1,0-0.1,0-0.2,0l-24.2-12.5c-0.1-0.1-0.2-0.2-0.2-0.3c0-0.1,0-0.3,0.2-0.4l25.4-19.9
			c0.1-0.1,0.3-0.1,0.5,0l22.2,11c0.1,0.1,0.2,0.2,0.2,0.3s0,0.3-0.1,0.4L108.2,341C108.1,341,108,341.1,107.9,341.1z M84.5,328.1
			l23.3,12l22.7-20.8l-21.4-10.6L84.5,328.1z"/>
	</g>
	<g>
		<path class="st4" d="M107,346.7c-0.1,0-0.2-0.1-0.3-0.2c-0.2-0.2-0.1-0.5,0.1-0.6l25.1-21.3c1.8-3.1-0.7-5-0.8-5.1
			c-0.2-0.1-0.2-0.4-0.1-0.6c0.1-0.2,0.4-0.2,0.6-0.1c0,0,3.2,2.4,1,6.3c0,0-0.1,0.1-0.1,0.1l-25.2,21.3
			C107.1,346.6,107,346.7,107,346.7z"/>
	</g>
	<g>
		<path class="st4" d="M107,346.7c-0.1,0-0.1,0-0.2,0l-24.1-11.7c-0.1-0.1-0.2-0.2-0.2-0.3c0-0.1,0-0.3,0.1-0.4l2.8-2.4
			c0.2-0.2,0.5-0.1,0.6,0.1c0.2,0.2,0.1,0.5-0.1,0.6l-2.3,1.9l23.2,11.3c0.6-0.5,2.2-2.4,0.6-4.9c-0.1-0.2-0.1-0.5,0.1-0.6
			c0.2-0.1,0.5-0.1,0.6,0.1c2.2,3.6-1,6.1-1,6.2C107.1,346.6,107,346.7,107,346.7z"/>
	</g>
	<g>
		<path class="st4" d="M107,341.8c-0.1,0-0.1,0-0.2,0l-20.3-10.3c-0.2-0.1-0.3-0.4-0.2-0.6c0.1-0.2,0.4-0.3,0.6-0.2l20.3,10.3
			c0.2,0.1,0.3,0.4,0.2,0.6C107.3,341.7,107.1,341.8,107,341.8z"/>
	</g>
	<g>
		<path class="st4" d="M106.1,343.2c-0.1,0-0.1,0-0.2,0l-19.4-10.1c-0.2-0.1-0.3-0.4-0.2-0.6c0.1-0.2,0.4-0.3,0.6-0.2l19.4,10.1
			c0.2,0.1,0.3,0.4,0.2,0.6C106.4,343.1,106.2,343.2,106.1,343.2z"/>
	</g>
	<g>
		<path class="st4" d="M102.9,296c-0.2,0-0.4-0.1-0.4-0.3c-0.1-0.2,0.1-0.5,0.3-0.5l14.2-3.9v-5c0-0.2,0.2-0.4,0.4-0.4
			s0.4,0.2,0.4,0.4v5.3c0,0.2-0.1,0.4-0.3,0.4l-14.6,4C103,296,102.9,296,102.9,296z"/>
	</g>
	<g>
		<path class="st4" d="M103.7,297.1c-0.2,0-0.4-0.1-0.4-0.3c-0.1-0.2,0.1-0.5,0.3-0.5l12.8-3.8c0.2-0.1,0.5,0.1,0.5,0.3
			c0.1,0.2-0.1,0.5-0.3,0.5l-12.8,3.8C103.8,297,103.7,297.1,103.7,297.1z"/>
	</g>
	<g>
		<path class="st4" d="M104.2,298.1c-0.2,0-0.4-0.1-0.4-0.3c-0.1-0.2,0.1-0.5,0.3-0.5l12.3-3c0.2-0.1,0.5,0.1,0.5,0.3
			s-0.1,0.5-0.3,0.5l-12.3,3C104.3,298.1,104.3,298.1,104.2,298.1z"/>
	</g>
	<g>
		<path class="st4" d="M104.8,299.1c-0.2,0-0.4-0.2-0.4-0.4c0-0.2,0.2-0.4,0.4-0.5l10.2-0.9c0.2,0,0.4,0.2,0.5,0.4
			c0,0.2-0.2,0.4-0.4,0.5L104.8,299.1C104.8,299.1,104.8,299.1,104.8,299.1z"/>
	</g>
	<g>
		<path class="st4" d="M113.1,301.3h-7.7c-0.2,0-0.4-0.2-0.4-0.4c0-0.2,0.2-0.4,0.4-0.4h7.7c0.2,0,0.4,0.2,0.4,0.4
			C113.5,301.1,113.3,301.3,113.1,301.3z"/>
	</g>
	<g>
		<path class="st4" d="M154.7,296.7C154.7,296.7,154.7,296.7,154.7,296.7l-12.1-2c-0.2,0-0.4-0.3-0.4-0.5c0-0.2,0.3-0.4,0.5-0.4
			l12,2l19.2-3.6l-14.4-2.3l-8.3,2.1c-0.2,0.1-0.5-0.1-0.5-0.3c-0.1-0.2,0.1-0.5,0.3-0.5l8.4-2.2c0.1,0,0.1,0,0.2,0l16.9,2.7
			c0.2,0,0.4,0.2,0.4,0.4c0,0.2-0.1,0.4-0.4,0.4L154.7,296.7C154.8,296.6,154.7,296.7,154.7,296.7z"/>
	</g>
	<g>
		<path class="st4" d="M155.8,308.7c-0.1,0-0.1,0-0.2,0l-4.8-1.9c-0.2-0.1-0.3-0.3-0.2-0.6c0.1-0.2,0.3-0.3,0.6-0.2l4.7,1.8
			l22.8-6.8c0.3-2.5,0.3-8.1-2.3-8.5c-0.2,0-0.4-0.3-0.4-0.5c0-0.2,0.3-0.4,0.5-0.4c4.1,0.7,3,9.4,2.9,9.7c0,0.2-0.1,0.3-0.3,0.4
			l-23.2,6.9C155.9,308.7,155.8,308.7,155.8,308.7z"/>
	</g>
	<g>
		<path class="st4" d="M154.9,299.1C154.9,299.1,154.9,299.1,154.9,299.1l-14.3-2.7c-0.2,0-0.4-0.3-0.3-0.5c0-0.2,0.3-0.4,0.5-0.3
			l14.2,2.7l21.4-4.4c0.2-0.1,0.5,0.1,0.5,0.3c0,0.2-0.1,0.5-0.3,0.5L154.9,299.1C155,299.1,155,299.1,154.9,299.1z"/>
	</g>
	<g>
		<path class="st4" d="M154.7,301.3C154.7,301.3,154.7,301.3,154.7,301.3l-14.1-2.7c-0.2,0-0.4-0.3-0.3-0.5c0-0.2,0.3-0.4,0.5-0.3
			l14,2.6l21.7-4.8c0.2-0.1,0.5,0.1,0.5,0.3c0.1,0.2-0.1,0.5-0.3,0.5L154.7,301.3C154.8,301.2,154.7,301.3,154.7,301.3z"/>
	</g>
	<g>
		<path class="st4" d="M155.4,302.9C155.3,302.9,155.3,302.9,155.4,302.9l-13.1-2c-0.2,0-0.4-0.3-0.4-0.5c0-0.2,0.3-0.4,0.5-0.4
			l12.9,2l21-4.8c0.2-0.1,0.5,0.1,0.5,0.3c0.1,0.2-0.1,0.5-0.3,0.5L155.4,302.9C155.4,302.9,155.4,302.9,155.4,302.9z"/>
	</g>
	<g>
		<path class="st4" d="M156.1,306.8c0,0-0.1,0-0.1,0l-4.2-1.3c-0.2-0.1-0.4-0.3-0.3-0.5c0.1-0.2,0.3-0.3,0.5-0.3l4.1,1.3l20.2-6.9
			c0.2-0.1,0.5,0,0.5,0.3c0.1,0.2,0,0.5-0.3,0.5l-20.3,6.9C156.2,306.8,156.2,306.8,156.1,306.8z"/>
	</g>
	<g>
		<path class="st4" d="M55.5,328.4c-0.1,0-0.2-0.1-0.3-0.1l-9.3-10.7c-0.1-0.1-2.7-4,0-6.8c0.1-0.1,0.3-0.2,0.5-0.1l6.9,3.6l4.3-1.8
			c0.2-0.1,0.5,0,0.6,0.2c0.1,0.2,0,0.5-0.2,0.6l-4.5,1.8c-0.1,0-0.2,0-0.4,0l-6.8-3.5c-1.9,2.3,0.2,5.4,0.3,5.5l9,10.4l22.4-9.1
			l-0.4-0.9c-0.1-0.2,0-0.5,0.2-0.6c0.2-0.1,0.5,0,0.6,0.2l0.5,1.3c0,0.1,0,0.2,0,0.3c0,0.1-0.1,0.2-0.2,0.2l-23.1,9.4
			C55.6,328.4,55.5,328.4,55.5,328.4z"/>
	</g>
	<g>
		<path class="st4" d="M54.2,316.8C54.2,316.8,54.2,316.8,54.2,316.8l-4.9-1.1c-0.2-0.1-0.4-0.3-0.3-0.5c0.1-0.2,0.3-0.4,0.5-0.3
			l4.6,1.1l23.7-8.1c0.2-0.1,0.5,0,0.5,0.3c0.1,0.2,0,0.5-0.3,0.5l-23.9,8.1C54.3,316.8,54.3,316.8,54.2,316.8z"/>
	</g>
	<g>
		<path class="st4" d="M54.6,319.7c-0.1,0-0.2,0-0.2-0.1c-2.1-1.3-4.6-2.7-5-2.8c-0.2,0-0.4-0.2-0.4-0.5c0-0.2,0.2-0.4,0.4-0.4
			c0.7,0,3.7,1.9,5.2,2.8l20.7-7.4c0.2-0.1,0.5,0,0.5,0.3c0.1,0.2,0,0.5-0.3,0.5l-20.9,7.4C54.7,319.6,54.7,319.7,54.6,319.7z"/>
	</g>
	<g>
		<path class="st4" d="M55.6,321.2c-0.1,0-0.1,0-0.2,0l-6.1-3.2c-0.2-0.1-0.3-0.4-0.2-0.6c0.1-0.2,0.4-0.3,0.6-0.2l6,3.1l20.6-7.6
			c0.2-0.1,0.5,0,0.6,0.3c0.1,0.2,0,0.5-0.3,0.6l-20.8,7.6C55.7,321.2,55.6,321.2,55.6,321.2z"/>
	</g>
	<g>
		<path class="st4" d="M55.5,323.9c-0.1,0-0.2,0-0.3-0.1l-5.3-4.2c-0.2-0.1-0.2-0.4-0.1-0.6c0.1-0.2,0.4-0.2,0.6-0.1l5.1,4l20.6-8.1
			c0.2-0.1,0.5,0,0.6,0.2c0.1,0.2,0,0.5-0.2,0.6l-20.9,8.1C55.6,323.8,55.5,323.9,55.5,323.9z"/>
	</g>
	<g>
		<path class="st4" d="M56.2,325.6c-0.2,0-0.3-0.1-0.4-0.3c-0.1-0.2,0-0.5,0.2-0.6l20.2-7.7c0.2-0.1,0.5,0,0.6,0.2
			c0.1,0.2,0,0.5-0.2,0.6l-20.2,7.7C56.3,325.6,56.2,325.6,56.2,325.6z"/>
	</g>
	<g>
		<path class="st4" d="M88.7,260.4c-0.1,0-0.2,0-0.3-0.1c-0.2-0.2-0.2-0.4,0-0.6l9.3-8.9c0.2-0.2,0.4-0.2,0.6,0
			c0.2,0.2,0.2,0.4,0,0.6l-9.3,8.9C89,260.4,88.8,260.4,88.7,260.4z"/>
	</g>
	<g>
		<path class="st4" d="M90.8,264.7c-0.1,0-0.3-0.1-0.3-0.2l-2.6-3.6c-1.9-0.5-2.4-1.6-2.6-2.3c0-0.1,0-0.3,0.1-0.4l11.1-10.4
			c0.2-0.2,0.4-0.2,0.6,0c0.2,0.2,0.2,0.4,0,0.6l-11,10.3c0.2,0.7,0.9,1.2,2,1.5c0.1,0,0.2,0.1,0.2,0.2l2.7,3.7
			c0.1,0.2,0.1,0.5-0.1,0.6C91,264.7,90.9,264.7,90.8,264.7z"/>
	</g>
	<g>
		<path class="st4" d="M40.6,294.1c-0.2,0-0.4-0.2-0.4-0.4l-1.3-19.2c-2.9-1.7-5.3-0.8-6-0.4c0.1,2.3,0.8,17,0.8,17.4
			c0,0.2-0.2,0.4-0.4,0.4c-0.2,0-0.4-0.2-0.4-0.4c0-0.4-0.5-11.7-0.8-17.7c0-0.2,0.1-0.3,0.2-0.4c0.1-0.1,3.4-2,7.3,0.4
			c0.1,0.1,0.2,0.2,0.2,0.3l1.3,19.4C41.1,293.9,40.9,294.1,40.6,294.1C40.7,294.1,40.6,294.1,40.6,294.1z"/>
	</g>
	<g>
		<path class="st4" d="M39.9,274.2c-0.1,0-0.2,0-0.2-0.1c-0.2-0.1-0.3-0.4-0.1-0.6l8.8-14.5c-1.9-2.2-5.2-0.8-5.8-0.5l-10,14.9
			c-0.1,0.2-0.4,0.3-0.6,0.1c-0.2-0.1-0.3-0.4-0.1-0.6l10-15c0-0.1,0.1-0.1,0.2-0.1c0,0,4.7-2.3,7.1,1c0.1,0.1,0.1,0.3,0,0.5
			L40.2,274C40.2,274.1,40,274.2,39.9,274.2z"/>
	</g>
	<g>
		<path class="st4" d="M49.5,271c-0.2,0-0.4-0.2-0.4-0.4L48.7,260c0-0.2,0.2-0.4,0.4-0.4c0,0,0,0,0,0c0.2,0,0.4,0.2,0.4,0.4
			l0.3,10.6C49.9,270.8,49.7,271,49.5,271C49.5,271,49.5,271,49.5,271z"/>
	</g>
	<g>
		<path class="st4" d="M34.5,291.3c-0.2,0-0.4-0.2-0.4-0.4l-0.4-16.2c0-0.2,0.2-0.4,0.4-0.4c0.2,0,0.4,0.2,0.4,0.4l0.4,16.2
			C34.9,291.1,34.7,291.3,34.5,291.3C34.5,291.3,34.5,291.3,34.5,291.3z"/>
	</g>
	<g>
		<path class="st4" d="M36.3,292c-0.2,0-0.4-0.2-0.4-0.4l-1.1-16.9c0-0.2,0.2-0.4,0.4-0.5c0.2,0,0.4,0.2,0.5,0.4l1.1,16.9
			C36.7,291.8,36.5,292,36.3,292C36.3,292,36.3,292,36.3,292z"/>
	</g>
	<g>
		<path class="st4" d="M37.9,292.5c-0.2,0-0.4-0.2-0.4-0.4l-1.4-17.4c0-0.2,0.2-0.4,0.4-0.5c0.2,0,0.4,0.2,0.5,0.4l1.4,17.4
			C38.4,292.2,38.2,292.4,37.9,292.5C37.9,292.5,37.9,292.5,37.9,292.5z"/>
	</g>
	<g>
		<path class="st4" d="M39.3,292.9c-0.2,0-0.4-0.2-0.4-0.4l-1.4-17.8c0-0.2,0.2-0.4,0.4-0.5c0.2,0,0.4,0.2,0.5,0.4l1.4,17.8
			C39.8,292.7,39.6,292.9,39.3,292.9C39.4,292.9,39.4,292.9,39.3,292.9z"/>
	</g>
	<g>
		<path class="st4" d="M42.8,316.5H22.3c-0.2,0-0.3-0.1-0.4-0.2c-0.1-0.1-0.1-0.3,0-0.4l1.6-2.5c0.1-0.2,0.4-0.3,0.6-0.1
			c0.2,0.1,0.3,0.4,0.1,0.6l-1.2,1.8h19.5c0.2-0.2,0.4-0.4,0.4-0.6c0.2-0.8-0.3-1.9-0.6-2.3l-17.4-7c-0.1,0-0.2-0.1-0.2-0.2
			c0-0.1,0-0.2,0-0.3l5.7-13.7c0.1-0.2,0.3-0.3,0.6-0.2l11.6,4.7c0.2,0.1,0.3,0.3,0.2,0.6c-0.1,0.2-0.3,0.3-0.6,0.2l-11.2-4.5
			L25.8,305l17.2,6.9c0.1,0,0.2,0.1,0.2,0.2c0,0.1,1.1,1.8,0.8,3.1c-0.1,0.5-0.5,0.9-1,1.2C42.9,316.5,42.9,316.5,42.8,316.5z"/>
	</g>
	<g>
		<path class="st4" d="M41.8,313.5c0,0-0.1,0-0.1,0l-17-6.1c-0.2-0.1-0.3-0.3-0.3-0.5c0.1-0.2,0.3-0.3,0.5-0.3l17,6.1
			c0.2,0.1,0.3,0.3,0.3,0.5C42.1,313.4,42,313.5,41.8,313.5z"/>
	</g>
	<g>
		<path class="st4" d="M41.8,314.3c0,0-0.1,0-0.1,0l-17-4.7c-0.2-0.1-0.4-0.3-0.3-0.5c0.1-0.2,0.3-0.4,0.5-0.3l17,4.7
			c0.2,0.1,0.4,0.3,0.3,0.5C42.1,314.1,42,314.3,41.8,314.3z"/>
	</g>
	<g>
		<path class="st4" d="M41.8,314.6C41.8,314.6,41.8,314.6,41.8,314.6l-17-0.4c-0.2,0-0.4-0.2-0.4-0.4c0-0.2,0.2-0.4,0.4-0.4
			c0,0,0,0,0,0l9.7,0.2l-10-1.4c-0.2,0-0.4-0.2-0.4-0.5c0-0.2,0.3-0.4,0.5-0.4l17.3,2.4c0.2,0,0.4,0.2,0.4,0.5
			C42.2,314.5,42,314.6,41.8,314.6z"/>
	</g>
	<g>
		<path class="st2" d="M99.5,209c0.1,2.2-2.8,6.8-2.3,8.8c0.5,2,1.9,6.6,1.6,8.5c-0.4,1.9-1.3,3.7-3.7,6.5c-2.4,2.8-2.7,6.5-2.5,7.2
			c0.8-0.9,1.3-4.5,2.9-5.4c1.6-0.9,6.5-5.8,6-9.1c-0.5-3.3-2.6-7.8-2.4-9.4C99.3,214.6,101.1,211.6,99.5,209z"/>
	</g>
	<g>
		<path class="st2" d="M70.2,246.3c-0.9,1.3-2.5,3.9-2.2,6c0.3,2,1.5,2.2,1.1,4.1c0.8-1.4,1.8-3.2,1.1-4.5c-0.7-1.3-0.3-3.4,0.2-4.1
			s1-2.4,0.6-3.2C70.8,245.2,70.5,245.8,70.2,246.3z"/>
	</g>
	<g>
		<path class="st2" d="M57,249.8c0.1,1.5-2,4.4-3,8c-0.6,2,1,4.2,0.5,6.2c0.8-1.4,1.3-7.1,1.9-8.4c0.8-1.8,2.9-2.8,2.5-5
			c-0.6-4-2.5-4.1-3.6-4.4C55.9,247.1,56.8,247,57,249.8z"/>
	</g>
	<g>
		<path class="st2" d="M130.1,243.9c-0.9,1.3-0.2,3.8,0.3,4.9c0.8,1.9,0.2,2.5-0.2,4.5c0.8-1.4,2.3-4,1.6-5.3
			c-0.7-1.3-0.3-3.4,0.3-4c0.7-0.6,0.5-1.7,0.1-2.5C131.9,242.1,130.5,243.4,130.1,243.9z"/>
	</g>
	<g>
		<path class="st2" d="M123.2,232.3c-0.9,1.3-2.5,3.9-2.2,6s2,3.2,1.5,5.2c0.8-1.4,1.8-4.3,1.1-5.6c-0.7-1.3-0.1-3.4,0.2-4
			c0.4-0.8,1.1-4.9,0.1-5.3C124,229.5,123.5,231.8,123.2,232.3z"/>
	</g>
	<g>
		<path class="st2" d="M167.2,278.9c0.5,0.8,1.5,2.4,1.3,3.6c-0.2,1.2-0.9,1.3-0.7,2.5c-0.5-0.8-1.1-1.9-0.7-2.7
			c0.4-0.8,0.2-2.1-0.1-2.5c-0.3-0.4-0.6-1.4-0.4-2C166.9,278.3,167,278.7,167.2,278.9z"/>
	</g>
	<g>
		<path class="st2" d="M81.8,253.2c0.9,1.3,2.5,3.9,2.2,6s-1.5,2.2-1.1,4.1c-0.8-1.4-1.8-3.2-1.1-4.5c0.7-1.3,0.3-3.4-0.2-4.1
			s-1-2.4-0.6-3.2C81.2,252.1,81.5,252.7,81.8,253.2z"/>
	</g>
	<g>
		<path class="st2" d="M78.3,230.7c-0.9,0.4,0.5,3.4,1.9,4.6s2.6,3.3,2.6,4.8s-0.4,3.9,0,5.2c0.4-1.6,2-3.8,1.4-6.8
			s-2.5-2.9-3.6-4.5C79.5,232.2,79.5,230.2,78.3,230.7z"/>
	</g>
	<g>
		<path class="st4" d="M114.5,308.6c0,0.1-0.1,0.1-0.1,0l-1.5-1l0.4-0.6c0.3-0.5,0.7-0.6,1.1-0.3c0.4,0.2,0.4,0.7,0.1,1.1
			c-0.1,0.1-0.2,0.2-0.2,0.3l0.5,0.3L114.5,308.6z M114,307.9c0.1-0.1,0.1-0.1,0.2-0.2c0.2-0.2,0.2-0.5-0.1-0.6
			c-0.2-0.1-0.4-0.1-0.6,0.2l-0.2,0.2L114,307.9z"/>
		<path class="st4" d="M115.9,306.5c-0.3,0.4-0.5,0.4-0.8,0.2l-1.1-0.7l0.7-1.1c0,0,0.1-0.1,0.1,0c0.1,0,0.1,0.1,0.2,0.1l-0.5,0.8
			l0.4,0.3l0.4-0.6c0,0,0.1-0.1,0.1,0l0.2,0.1l-0.4,0.6l0.2,0.1c0.2,0.1,0.2,0.1,0.3,0l0.4-0.6c0,0,0.1-0.1,0.1,0l0.2,0.1
			L115.9,306.5z"/>
		<path class="st4" d="M117,304.6c-0.2,0-0.3,0-0.5,0c-0.1,0.1-0.1,0.1-0.2,0.2l0.5,0.3l-0.2,0.3c0,0.1-0.1,0.1-0.1,0l-1.5-1
			l0.4-0.6c0.3-0.5,0.7-0.6,1.1-0.4c0.2,0.2,0.3,0.4,0.2,0.7c0.1,0,0.2,0,0.3,0c0.1,0,0.2-0.1,0.2-0.1l0-0.1c0,0,0.1,0,0.1,0.1
			c0.1,0,0.1,0.2,0,0.3C117.3,304.5,117.2,304.6,117,304.6z M116.1,304.6c0,0,0.1-0.1,0.1-0.2c0.2-0.2,0.2-0.4,0-0.6
			c-0.2-0.1-0.4-0.1-0.6,0.2l-0.1,0.2L116.1,304.6z"/>
		<path class="st4" d="M117.9,302.7c-0.1-0.1-0.2,0-0.5,0.2c-0.3,0.3-0.6,0.4-0.9,0.2c-0.3-0.2-0.3-0.6,0-0.9
			c0.2-0.3,0.5-0.4,0.7-0.4c0,0,0.1,0,0.1,0c0,0,0,0.1,0,0.1c0,0.1-0.1,0.2-0.1,0.3c-0.2,0-0.3,0-0.4,0.2c-0.1,0.2-0.1,0.3,0,0.4
			c0.1,0.1,0.2,0,0.5-0.2c0.3-0.3,0.6-0.4,0.8-0.2c0.3,0.2,0.3,0.5,0,1c-0.2,0.3-0.5,0.5-0.6,0.4c0,0-0.1-0.1-0.1-0.1
			c0.1-0.1,0.3-0.2,0.4-0.4C118,302.9,118,302.8,117.9,302.7z"/>
		<path class="st4" d="M119.4,301.5c-0.3,0.5-0.9,0.7-1.4,0.3c-0.5-0.4-0.6-1-0.2-1.4c0.3-0.5,0.9-0.7,1.4-0.3
			C119.7,300.4,119.7,301,119.4,301.5z M118.9,300.4c-0.4-0.2-0.7-0.2-0.9,0.1c-0.2,0.3-0.2,0.6,0.2,0.9c0.4,0.2,0.7,0.1,0.9-0.1
			C119.3,301,119.3,300.7,118.9,300.4z"/>
		<path class="st4" d="M119.4,299.1l1,0.7l-0.2,0.3c0,0.1-0.1,0.1-0.1,0l-1.5-1c0-0.1,0-0.3,0.1-0.3c0-0.1,0.1-0.1,0.1-0.1l1.5,0
			l-1-0.7l0.2-0.3c0-0.1,0.1-0.1,0.1,0l1.5,1c0,0.1,0,0.3-0.1,0.3c0,0.1-0.1,0.1-0.1,0.1L119.4,299.1z"/>
		<path class="st4" d="M121.4,298.4c0,0.1-0.1,0.1-0.1,0l-1.1-1.6c0-0.1,0.1-0.2,0.1-0.3c0.1-0.1,0.1-0.1,0.2-0.1l1.9,0.4l-0.2,0.3
			c0,0.1-0.1,0.1-0.1,0.1l-0.4-0.1l-0.5,0.7l0.3,0.4L121.4,298.4z M120.6,296.8l0.5,0.7l0.3-0.5L120.6,296.8z"/>
		<path class="st4" d="M123,296.1c-0.2,0.4-0.5,0.4-0.8,0.2l-1.1-0.7c0-0.1,0.1-0.2,0.1-0.3c0-0.1,0.1-0.1,0.1-0.1l1.1,0.7
			c0.2,0.1,0.3,0.1,0.3,0l0.4-0.6c0,0,0.1-0.1,0.1,0l0.2,0.1L123,296.1z"/>
		<path class="st4" d="M117.3,310.5c0,0.1-0.1,0.1-0.1,0l-1.5-1l0.7-1.1c0-0.1,0.1-0.1,0.1,0c0.1,0,0.1,0.1,0.2,0.1l-0.5,0.8
			l0.4,0.3l0.4-0.6c0,0,0.1-0.1,0.1,0l0.2,0.1l-0.4,0.6l0.6,0.4L117.3,310.5z"/>
		<path class="st4" d="M118.3,309c0,0.1-0.1,0.1-0.1,0l-1.5-1c0-0.1,0.1-0.2,0.2-0.3c0-0.1,0.1-0.1,0.1-0.1l1.5,1L118.3,309z"/>
		<path class="st4" d="M117.9,307.2l1,0.7l-0.2,0.3c0,0.1-0.1,0.1-0.1,0l-1.5-1c0-0.1,0-0.3,0.1-0.3c0-0.1,0.1-0.1,0.1-0.1l1.5,0
			l-1-0.7l0.2-0.3c0-0.1,0.1-0.1,0.1,0l1.5,1c0,0.1,0,0.3-0.1,0.3c0,0.1-0.1,0.1-0.1,0.1L117.9,307.2z"/>
		<path class="st4" d="M120,306.5c0,0.1-0.1,0.1-0.1,0l-1.1-1.6c0-0.1,0.1-0.2,0.1-0.3c0.1-0.1,0.1-0.1,0.2-0.1l1.9,0.4l-0.2,0.3
			c0,0.1-0.1,0.1-0.1,0.1l-0.4-0.1l-0.5,0.7l0.3,0.4L120,306.5z M119.2,304.9l0.5,0.7l0.3-0.5L119.2,304.9z"/>
		<path class="st4" d="M120.4,303.5l1,0.7l-0.2,0.3c0,0.1-0.1,0.1-0.1,0l-1.5-1c0-0.1,0-0.3,0.1-0.3c0-0.1,0.1-0.1,0.1-0.1l1.5,0
			l-1-0.7l0.2-0.3c0-0.1,0.1-0.1,0.1,0l1.5,1c0,0.1,0,0.3-0.1,0.3c0,0.1-0.1,0.1-0.1,0.1L120.4,303.5z"/>
		<path class="st4" d="M121.6,301.1c-0.2,0.2-0.1,0.6,0.2,0.8c0.4,0.3,0.8,0.1,1.1-0.3c0.1-0.1,0.2-0.3,0.2-0.5c0.1,0,0.1,0,0.2,0
			c0.1,0.1,0,0.4-0.2,0.7c-0.4,0.6-1,0.7-1.5,0.4c-0.5-0.3-0.5-0.9-0.2-1.4c0.2-0.3,0.5-0.5,0.8-0.5c0,0,0.1,0,0.1,0
			c0,0,0,0.1,0,0.1c0,0.1-0.1,0.2-0.1,0.3C122,300.8,121.8,300.9,121.6,301.1z"/>
		<path class="st4" d="M124,300.4c-0.3,0.4-0.5,0.4-0.8,0.2l-1.1-0.7l0.7-1.1c0,0,0.1-0.1,0.1,0c0.1,0,0.1,0.1,0.2,0.1l-0.5,0.8
			l0.4,0.3l0.4-0.6c0,0,0.1-0.1,0.1,0l0.2,0.1l-0.4,0.6l0.2,0.1c0.2,0.1,0.2,0.1,0.3,0l0.4-0.6c0,0,0.1-0.1,0.1,0l0.2,0.1L124,300.4
			z"/>
	</g>
	<g>
		<path class="st4" d="M76.2,296.7c-0.1,0-0.1,0-0.1,0l-1-1.4l1-0.7c0,0,0.1,0,0.1,0c0,0.1,0.1,0.1,0.1,0.2l-0.7,0.5l0.3,0.4
			l0.5-0.4c0,0,0.1,0,0.1,0l0.1,0.2l-0.6,0.4l0.4,0.6L76.2,296.7z"/>
		<path class="st4" d="M77.5,295.7c-0.1,0-0.1,0-0.1,0l-1-1.4c0.1-0.1,0.1-0.1,0.2-0.2c0.1,0,0.1,0,0.1,0l1,1.5L77.5,295.7z"/>
		<path class="st4" d="M77.9,294.1l0.7,1l-0.3,0.2c-0.1,0-0.1,0-0.1,0l-0.9-1.4c0-0.1,0.1-0.2,0.2-0.2c0,0,0.1,0,0.1,0l1.3,0.5
			l-0.7-1l0.3-0.2c0.1,0,0.1,0,0.1,0l0.9,1.4c0,0.1-0.1,0.2-0.2,0.2c0,0-0.1,0-0.1,0L77.9,294.1z"/>
		<path class="st4" d="M79.9,294.1c-0.1,0-0.1,0-0.1,0l-0.4-1.8c0.1-0.1,0.1-0.2,0.2-0.2c0.1-0.1,0.1-0.1,0.2,0l1.6,1l-0.3,0.2
			c-0.1,0-0.1,0.1-0.1,0l-0.3-0.2l-0.6,0.4l0.1,0.4L79.9,294.1z M79.8,292.5l0.2,0.8l0.5-0.3L79.8,292.5z"/>
		<path class="st4" d="M81.3,291.7l0.7,1l-0.3,0.2c-0.1,0-0.1,0-0.1,0l-0.9-1.4c0-0.1,0.1-0.2,0.2-0.2c0,0,0.1,0,0.1,0l1.3,0.5
			l-0.7-1l0.3-0.2c0.1,0,0.1,0,0.1,0L83,292c0,0.1-0.1,0.2-0.2,0.2c0,0-0.1,0-0.1,0L81.3,291.7z"/>
		<path class="st4" d="M83.3,290c-0.2,0.2-0.3,0.5-0.1,0.8c0.2,0.4,0.6,0.4,1,0.1c0.1-0.1,0.3-0.2,0.3-0.3c0,0,0.1,0.1,0.1,0.1
			c0.1,0.1-0.1,0.3-0.4,0.5c-0.5,0.4-1.1,0.3-1.5-0.2c-0.3-0.5-0.1-1,0.3-1.3c0.3-0.2,0.6-0.2,0.9-0.1c0,0,0,0,0.1,0.1
			c0,0,0,0.1,0,0.1c0,0.1-0.1,0.2-0.2,0.2C83.6,289.9,83.4,289.9,83.3,290z"/>
		<path class="st4" d="M85.6,290.3c-0.4,0.2-0.6,0.1-0.8-0.2l-0.7-1l1-0.7c0,0,0.1,0,0.1,0c0,0.1,0.1,0.1,0.1,0.2l-0.7,0.5l0.3,0.4
			l0.5-0.4c0,0,0.1,0,0.1,0l0.1,0.2l-0.6,0.4l0.1,0.2c0.1,0.2,0.2,0.2,0.3,0.1l0.5-0.4c0,0,0.1,0,0.1,0l0.1,0.2L85.6,290.3z"/>
		<path class="st4" d="M77.9,299.2c-0.1,0-0.1,0-0.1,0l-1-1.4l1-0.7c0,0,0.1,0,0.1,0c0,0.1,0.1,0.1,0.1,0.2l-0.7,0.5l0.3,0.4
			l0.5-0.4c0,0,0.1,0,0.1,0l0.1,0.2l-0.6,0.4l0.4,0.6L77.9,299.2z"/>
		<path class="st4" d="M79.9,297.9c-0.5,0.3-1,0.3-1.4-0.2c-0.3-0.5-0.2-1,0.3-1.3c0.5-0.3,1-0.3,1.4,0.2
			C80.6,297.1,80.4,297.6,79.9,297.9z M79.9,296.8c-0.2-0.3-0.6-0.4-0.9-0.2c-0.2,0.2-0.4,0.5-0.1,0.8c0.2,0.3,0.6,0.4,0.9,0.2
			C80,297.5,80.1,297.2,79.9,296.8z"/>
		<path class="st4" d="M81.7,296.4c-0.2,0-0.3-0.1-0.4-0.2c-0.1,0-0.2,0.1-0.2,0.1l0.3,0.5l-0.3,0.2c-0.1,0-0.1,0-0.1,0l-1-1.4
			l0.5-0.4c0.4-0.3,0.8-0.3,1,0.1c0.2,0.2,0.1,0.5,0,0.7c0.1,0,0.2,0.1,0.3,0.1c0.1,0,0.2,0,0.2,0l0,0c0,0,0.1,0.1,0.1,0.1
			c0,0.1,0,0.2-0.1,0.3C82,296.5,81.9,296.5,81.7,296.4z M80.9,296.1c0.1,0,0.1-0.1,0.2-0.1c0.2-0.1,0.3-0.3,0.2-0.5
			c-0.1-0.2-0.3-0.2-0.5,0l-0.2,0.1L80.9,296.1z"/>
		<path class="st4" d="M82.4,298.4l0,0.8c0,0,0,0.1-0.1,0.1l-0.2,0.1l-0.8-0.3l0.6,1.1l-0.3,0.2c-0.1,0-0.1,0-0.1,0l-0.8-1.5
			c0.1-0.1,0.1-0.2,0.2-0.2c0,0,0.1,0,0.1,0l0.9,0.4l-0.1-1.1l0.2-0.2c0.1,0,0.1,0,0.1,0l1.2,1.3l-0.3,0.2c-0.1,0-0.1,0-0.1,0
			L82.4,298.4z"/>
		<path class="st4" d="M84.6,296.9l0,0.8c0,0,0,0.1-0.1,0.1l-0.2,0.1l-0.8-0.3l0.6,1.1l-0.3,0.2c-0.1,0-0.1,0-0.1,0l-0.8-1.5
			c0.1-0.1,0.1-0.2,0.2-0.2c0,0,0.1,0,0.1,0l0.9,0.4l-0.1-1.1l0.2-0.2c0.1,0,0.1,0,0.1,0l1.2,1.3l-0.3,0.2c-0.1,0-0.1,0-0.1,0
			L84.6,296.9z"/>
		<path class="st4" d="M86.2,297.3c-0.1,0-0.1,0-0.1,0l-1-1.4c0.1-0.1,0.1-0.1,0.2-0.2c0.1,0,0.1,0,0.1,0l1,1.5L86.2,297.3z"/>
		<path class="st4" d="M87.4,296.6c-0.4,0.2-0.6,0.1-0.8-0.2l-0.7-1l1-0.7c0,0,0.1,0,0.1,0c0,0.1,0.1,0.1,0.1,0.2l-0.7,0.5l0.3,0.4
			l0.5-0.4c0,0,0.1,0,0.1,0l0.1,0.2l-0.6,0.4l0.1,0.2c0.1,0.2,0.2,0.2,0.3,0.1l0.5-0.4c0,0,0.1,0,0.1,0l0.1,0.2L87.4,296.6z"/>
		<path class="st4" d="M88.9,295c-0.1-0.1-0.2-0.1-0.5,0c-0.4,0.1-0.7,0.1-0.9-0.1c-0.2-0.3-0.1-0.6,0.3-0.8
			c0.3-0.2,0.6-0.2,0.7-0.1c0,0,0.1,0,0.1,0.1c0,0,0,0.1,0,0.1c0,0.1-0.1,0.2-0.2,0.2c-0.1-0.1-0.3-0.1-0.4,0
			c-0.1,0.1-0.2,0.2-0.1,0.3c0.1,0.1,0.2,0.1,0.5,0c0.4-0.1,0.7-0.1,0.8,0.1c0.2,0.2,0.1,0.6-0.3,0.8c-0.3,0.2-0.6,0.2-0.7,0.2
			c0,0,0-0.1,0-0.2c0.2,0,0.3-0.1,0.5-0.2C88.9,295.2,88.9,295.1,88.9,295z"/>
	</g>
</g>
</svg>
